G04 #@! TF.GenerationSoftware,KiCad,Pcbnew,(5.0.0)*
G04 #@! TF.CreationDate,2018-10-21T19:09:07+02:00*
G04 #@! TF.ProjectId,mibo48_stm32,6D69626F34385F73746D33322E6B6963,rev?*
G04 #@! TF.SameCoordinates,PX7a53eb0PY5ad6650*
G04 #@! TF.FileFunction,Legend,Bot*
G04 #@! TF.FilePolarity,Positive*
%FSLAX46Y46*%
G04 Gerber Fmt 4.6, Leading zero omitted, Abs format (unit mm)*
G04 Created by KiCad (PCBNEW (5.0.0)) date 10/21/18 19:09:07*
%MOMM*%
%LPD*%
G01*
G04 APERTURE LIST*
%ADD10C,0.300000*%
%ADD11C,0.120000*%
G04 APERTURE END LIST*
D10*
X22108000Y-12157142D02*
X22108000Y-13357142D01*
X22108000Y-12900000D02*
X22222285Y-12957142D01*
X22450857Y-12957142D01*
X22565142Y-12900000D01*
X22622285Y-12842857D01*
X22679428Y-12728571D01*
X22679428Y-12385714D01*
X22622285Y-12271428D01*
X22565142Y-12214285D01*
X22450857Y-12157142D01*
X22222285Y-12157142D01*
X22108000Y-12214285D01*
X23079428Y-12957142D02*
X23365142Y-12157142D01*
X23650857Y-12957142D02*
X23365142Y-12157142D01*
X23250857Y-11871428D01*
X23193714Y-11814285D01*
X23079428Y-11757142D01*
X25022285Y-12957142D02*
X25022285Y-12157142D01*
X25022285Y-12842857D02*
X25079428Y-12900000D01*
X25193714Y-12957142D01*
X25365142Y-12957142D01*
X25479428Y-12900000D01*
X25536571Y-12785714D01*
X25536571Y-12157142D01*
X25993714Y-12957142D02*
X26279428Y-12157142D01*
X26565142Y-12957142D01*
X27022285Y-12157142D02*
X27022285Y-12957142D01*
X27022285Y-13357142D02*
X26965142Y-13300000D01*
X27022285Y-13242857D01*
X27079428Y-13300000D01*
X27022285Y-13357142D01*
X27022285Y-13242857D01*
X27422285Y-12957142D02*
X27879428Y-12957142D01*
X27593714Y-13357142D02*
X27593714Y-12328571D01*
X27650857Y-12214285D01*
X27765142Y-12157142D01*
X27879428Y-12157142D01*
X28165142Y-12957142D02*
X28450857Y-12157142D01*
X28736571Y-12957142D02*
X28450857Y-12157142D01*
X28336571Y-11871428D01*
X28279428Y-11814285D01*
X28165142Y-11757142D01*
X29708000Y-12157142D02*
X29708000Y-12785714D01*
X29650857Y-12900000D01*
X29536571Y-12957142D01*
X29308000Y-12957142D01*
X29193714Y-12900000D01*
X29708000Y-12214285D02*
X29593714Y-12157142D01*
X29308000Y-12157142D01*
X29193714Y-12214285D01*
X29136571Y-12328571D01*
X29136571Y-12442857D01*
X29193714Y-12557142D01*
X29308000Y-12614285D01*
X29593714Y-12614285D01*
X29708000Y-12671428D01*
X17586571Y-14307428D02*
X17586571Y-15807428D01*
X18086571Y-14736000D01*
X18586571Y-15807428D01*
X18586571Y-14307428D01*
X19300857Y-14307428D02*
X19300857Y-15807428D01*
X20515142Y-15093142D02*
X20729428Y-15021714D01*
X20800857Y-14950285D01*
X20872285Y-14807428D01*
X20872285Y-14593142D01*
X20800857Y-14450285D01*
X20729428Y-14378857D01*
X20586571Y-14307428D01*
X20015142Y-14307428D01*
X20015142Y-15807428D01*
X20515142Y-15807428D01*
X20658000Y-15736000D01*
X20729428Y-15664571D01*
X20800857Y-15521714D01*
X20800857Y-15378857D01*
X20729428Y-15236000D01*
X20658000Y-15164571D01*
X20515142Y-15093142D01*
X20015142Y-15093142D01*
X21800857Y-15807428D02*
X22086571Y-15807428D01*
X22229428Y-15736000D01*
X22372285Y-15593142D01*
X22443714Y-15307428D01*
X22443714Y-14807428D01*
X22372285Y-14521714D01*
X22229428Y-14378857D01*
X22086571Y-14307428D01*
X21800857Y-14307428D01*
X21658000Y-14378857D01*
X21515142Y-14521714D01*
X21443714Y-14807428D01*
X21443714Y-15307428D01*
X21515142Y-15593142D01*
X21658000Y-15736000D01*
X21800857Y-15807428D01*
X23729428Y-15307428D02*
X23729428Y-14307428D01*
X23372285Y-15878857D02*
X23015142Y-14807428D01*
X23943714Y-14807428D01*
X24729428Y-15164571D02*
X24586571Y-15236000D01*
X24515142Y-15307428D01*
X24443714Y-15450285D01*
X24443714Y-15521714D01*
X24515142Y-15664571D01*
X24586571Y-15736000D01*
X24729428Y-15807428D01*
X25015142Y-15807428D01*
X25158000Y-15736000D01*
X25229428Y-15664571D01*
X25300857Y-15521714D01*
X25300857Y-15450285D01*
X25229428Y-15307428D01*
X25158000Y-15236000D01*
X25015142Y-15164571D01*
X24729428Y-15164571D01*
X24586571Y-15093142D01*
X24515142Y-15021714D01*
X24443714Y-14878857D01*
X24443714Y-14593142D01*
X24515142Y-14450285D01*
X24586571Y-14378857D01*
X24729428Y-14307428D01*
X25015142Y-14307428D01*
X25158000Y-14378857D01*
X25229428Y-14450285D01*
X25300857Y-14593142D01*
X25300857Y-14878857D01*
X25229428Y-15021714D01*
X25158000Y-15093142D01*
X25015142Y-15164571D01*
X25943714Y-14878857D02*
X27086571Y-14878857D01*
X27729428Y-14378857D02*
X27943714Y-14307428D01*
X28300857Y-14307428D01*
X28443714Y-14378857D01*
X28515142Y-14450285D01*
X28586571Y-14593142D01*
X28586571Y-14736000D01*
X28515142Y-14878857D01*
X28443714Y-14950285D01*
X28300857Y-15021714D01*
X28015142Y-15093142D01*
X27872285Y-15164571D01*
X27800857Y-15236000D01*
X27729428Y-15378857D01*
X27729428Y-15521714D01*
X27800857Y-15664571D01*
X27872285Y-15736000D01*
X28015142Y-15807428D01*
X28372285Y-15807428D01*
X28586571Y-15736000D01*
X29015142Y-15807428D02*
X29872285Y-15807428D01*
X29443714Y-14307428D02*
X29443714Y-15807428D01*
X30372285Y-14307428D02*
X30372285Y-15807428D01*
X30872285Y-14736000D01*
X31372285Y-15807428D01*
X31372285Y-14307428D01*
X31943714Y-15807428D02*
X32872285Y-15807428D01*
X32372285Y-15236000D01*
X32586571Y-15236000D01*
X32729428Y-15164571D01*
X32800857Y-15093142D01*
X32872285Y-14950285D01*
X32872285Y-14593142D01*
X32800857Y-14450285D01*
X32729428Y-14378857D01*
X32586571Y-14307428D01*
X32158000Y-14307428D01*
X32015142Y-14378857D01*
X31943714Y-14450285D01*
X33443714Y-15664571D02*
X33515142Y-15736000D01*
X33658000Y-15807428D01*
X34015142Y-15807428D01*
X34158000Y-15736000D01*
X34229428Y-15664571D01*
X34300857Y-15521714D01*
X34300857Y-15378857D01*
X34229428Y-15164571D01*
X33372285Y-14307428D01*
X34300857Y-14307428D01*
D11*
G04 #@! TO.C,J2*
X55940000Y-17720000D02*
X55940000Y-20380000D01*
X2540000Y-17720000D02*
X55940000Y-17720000D01*
X2540000Y-20380000D02*
X55940000Y-20380000D01*
X2540000Y-17720000D02*
X2540000Y-20380000D01*
X1270000Y-17720000D02*
X-60000Y-17720000D01*
X-60000Y-17720000D02*
X-60000Y-19050000D01*
G04 #@! TO.C,J3*
X-60000Y60000D02*
X-60000Y-1270000D01*
X1270000Y60000D02*
X-60000Y60000D01*
X2540000Y60000D02*
X2540000Y-2600000D01*
X2540000Y-2600000D02*
X55940000Y-2600000D01*
X2540000Y60000D02*
X55940000Y60000D01*
X55940000Y60000D02*
X55940000Y-2600000D01*
G04 #@! TD*
M02*
