G04 #@! TF.GenerationSoftware,KiCad,Pcbnew,(5.0.0)*
G04 #@! TF.CreationDate,2018-10-21T19:09:07+02:00*
G04 #@! TF.ProjectId,mibo48_stm32,6D69626F34385F73746D33322E6B6963,rev?*
G04 #@! TF.SameCoordinates,PX7a53eb0PY5ad6650*
G04 #@! TF.FileFunction,Copper,L2,Bot,Signal*
G04 #@! TF.FilePolarity,Positive*
%FSLAX46Y46*%
G04 Gerber Fmt 4.6, Leading zero omitted, Abs format (unit mm)*
G04 Created by KiCad (PCBNEW (5.0.0)) date 10/21/18 19:09:07*
%MOMM*%
%LPD*%
G01*
G04 APERTURE LIST*
G04 #@! TA.AperFunction,ComponentPad*
%ADD10R,1.700000X1.700000*%
G04 #@! TD*
G04 #@! TA.AperFunction,ComponentPad*
%ADD11O,1.700000X1.700000*%
G04 #@! TD*
G04 #@! TA.AperFunction,ComponentPad*
%ADD12C,1.450000*%
G04 #@! TD*
G04 #@! TA.AperFunction,ComponentPad*
%ADD13O,1.900000X1.200000*%
G04 #@! TD*
G04 #@! TA.AperFunction,ComponentPad*
%ADD14C,1.500000*%
G04 #@! TD*
G04 #@! TA.AperFunction,ComponentPad*
%ADD15C,1.000000*%
G04 #@! TD*
G04 #@! TA.AperFunction,ViaPad*
%ADD16C,0.600000*%
G04 #@! TD*
G04 #@! TA.AperFunction,ViaPad*
%ADD17C,0.800000*%
G04 #@! TD*
G04 #@! TA.AperFunction,Conductor*
%ADD18C,0.152000*%
G04 #@! TD*
G04 #@! TA.AperFunction,Conductor*
%ADD19C,0.400000*%
G04 #@! TD*
G04 #@! TA.AperFunction,Conductor*
%ADD20C,0.200000*%
G04 #@! TD*
G04 APERTURE END LIST*
D10*
G04 #@! TO.P,J2,1*
G04 #@! TO.N,GND*
X1270000Y-19050000D03*
D11*
G04 #@! TO.P,J2,2*
G04 #@! TO.N,+3V3*
X3810000Y-19050000D03*
G04 #@! TO.P,J2,3*
G04 #@! TO.N,/PA4*
X6350000Y-19050000D03*
G04 #@! TO.P,J2,4*
G04 #@! TO.N,/PA5*
X8890000Y-19050000D03*
G04 #@! TO.P,J2,5*
G04 #@! TO.N,/PA6*
X11430000Y-19050000D03*
G04 #@! TO.P,J2,6*
G04 #@! TO.N,/PA7*
X13970000Y-19050000D03*
G04 #@! TO.P,J2,7*
G04 #@! TO.N,/PB0*
X16510000Y-19050000D03*
G04 #@! TO.P,J2,8*
G04 #@! TO.N,/PB1*
X19050000Y-19050000D03*
G04 #@! TO.P,J2,9*
G04 #@! TO.N,/PB2*
X21590000Y-19050000D03*
G04 #@! TO.P,J2,10*
G04 #@! TO.N,/PB10*
X24130000Y-19050000D03*
G04 #@! TO.P,J2,11*
G04 #@! TO.N,/PB11*
X26670000Y-19050000D03*
G04 #@! TO.P,J2,12*
G04 #@! TO.N,/PB12*
X29210000Y-19050000D03*
G04 #@! TO.P,J2,13*
G04 #@! TO.N,/PB13*
X31750000Y-19050000D03*
G04 #@! TO.P,J2,14*
G04 #@! TO.N,/PB14*
X34290000Y-19050000D03*
G04 #@! TO.P,J2,15*
G04 #@! TO.N,/PB15*
X36830000Y-19050000D03*
G04 #@! TO.P,J2,16*
G04 #@! TO.N,/PA8*
X39370000Y-19050000D03*
G04 #@! TO.P,J2,17*
G04 #@! TO.N,/PA9*
X41910000Y-19050000D03*
G04 #@! TO.P,J2,18*
G04 #@! TO.N,/PA10*
X44450000Y-19050000D03*
G04 #@! TO.P,J2,19*
G04 #@! TO.N,/PA11*
X46990000Y-19050000D03*
G04 #@! TO.P,J2,20*
G04 #@! TO.N,/PA12*
X49530000Y-19050000D03*
G04 #@! TO.P,J2,21*
G04 #@! TO.N,/5V*
X52070000Y-19050000D03*
G04 #@! TO.P,J2,22*
G04 #@! TO.N,GND*
X54610000Y-19050000D03*
G04 #@! TD*
G04 #@! TO.P,J3,22*
G04 #@! TO.N,GND*
X54610000Y-1270000D03*
G04 #@! TO.P,J3,21*
G04 #@! TO.N,+3V3*
X52070000Y-1270000D03*
G04 #@! TO.P,J3,20*
G04 #@! TO.N,/LED1*
X49530000Y-1270000D03*
G04 #@! TO.P,J3,19*
G04 #@! TO.N,/PA15*
X46990000Y-1270000D03*
G04 #@! TO.P,J3,18*
G04 #@! TO.N,/PB3*
X44450000Y-1270000D03*
G04 #@! TO.P,J3,17*
G04 #@! TO.N,/PB4*
X41910000Y-1270000D03*
G04 #@! TO.P,J3,16*
G04 #@! TO.N,/PB5*
X39370000Y-1270000D03*
G04 #@! TO.P,J3,15*
G04 #@! TO.N,/PB6*
X36830000Y-1270000D03*
G04 #@! TO.P,J3,14*
G04 #@! TO.N,/PB7*
X34290000Y-1270000D03*
G04 #@! TO.P,J3,13*
G04 #@! TO.N,/PB9*
X31750000Y-1270000D03*
G04 #@! TO.P,J3,12*
G04 #@! TO.N,/PB8*
X29210000Y-1270000D03*
G04 #@! TO.P,J3,11*
G04 #@! TO.N,/VBAT*
X26670000Y-1270000D03*
G04 #@! TO.P,J3,10*
G04 #@! TO.N,/OSC32_IN*
X24130000Y-1270000D03*
G04 #@! TO.P,J3,9*
G04 #@! TO.N,/OSC32_OUT*
X21590000Y-1270000D03*
G04 #@! TO.P,J3,8*
G04 #@! TO.N,/RESET*
X19050000Y-1270000D03*
G04 #@! TO.P,J3,7*
G04 #@! TO.N,/PA0*
X16510000Y-1270000D03*
G04 #@! TO.P,J3,6*
G04 #@! TO.N,/PA1*
X13970000Y-1270000D03*
G04 #@! TO.P,J3,5*
G04 #@! TO.N,/PA2*
X11430000Y-1270000D03*
G04 #@! TO.P,J3,4*
G04 #@! TO.N,/PA3*
X8890000Y-1270000D03*
G04 #@! TO.P,J3,3*
G04 #@! TO.N,/BOOT0*
X6350000Y-1270000D03*
G04 #@! TO.P,J3,2*
G04 #@! TO.N,/5V*
X3810000Y-1270000D03*
D10*
G04 #@! TO.P,J3,1*
G04 #@! TO.N,GND*
X1270000Y-1270000D03*
G04 #@! TD*
D12*
G04 #@! TO.P,J4,6*
G04 #@! TO.N,GND*
X51877500Y-14946000D03*
X51877500Y-9946000D03*
D13*
X54577500Y-15946000D03*
X54577500Y-8946000D03*
G04 #@! TD*
D10*
G04 #@! TO.P,J5,1*
G04 #@! TO.N,+3V3*
X3810000Y-6350000D03*
D11*
G04 #@! TO.P,J5,2*
G04 #@! TO.N,/SWDIO*
X3810000Y-8890000D03*
G04 #@! TO.P,J5,3*
G04 #@! TO.N,/SWDCLK*
X3810000Y-11430000D03*
G04 #@! TO.P,J5,4*
G04 #@! TO.N,GND*
X3810000Y-13970000D03*
G04 #@! TD*
D14*
G04 #@! TO.P,Y1,1*
G04 #@! TO.N,/OSC_IN*
X14224000Y-12192000D03*
G04 #@! TO.P,Y1,2*
G04 #@! TO.N,/OSC_OUT*
X19104000Y-12192000D03*
G04 #@! TD*
D15*
G04 #@! TO.P,Y2,1*
G04 #@! TO.N,/OSC32_IN*
X19113500Y-4889500D03*
G04 #@! TO.P,Y2,2*
G04 #@! TO.N,/OSC32_OUT*
X19113500Y-6789500D03*
G04 #@! TD*
D10*
G04 #@! TO.P,J1,1*
G04 #@! TO.N,/BOOT0*
X6350000Y-8890000D03*
D11*
G04 #@! TO.P,J1,2*
G04 #@! TO.N,+3V3*
X6350000Y-6350000D03*
G04 #@! TD*
D16*
G04 #@! TO.N,GND*
X46228000Y-16129000D03*
X42608500Y-14986000D03*
X50545994Y-7810500D03*
X45402500Y-9270996D03*
X48632841Y-7103841D03*
X33782000Y-4889500D03*
X38036500Y-5588000D03*
X24955500Y-17017998D03*
X22923500Y-4508500D03*
X35806360Y-15057140D03*
X12763500Y-8509000D03*
X26485435Y-8511538D03*
X9525000Y-9398000D03*
X20002500Y-8509000D03*
X9144002Y-11684000D03*
G04 #@! TO.N,/OSC_IN*
X11874500Y-8509000D03*
X28342797Y-8788589D03*
G04 #@! TO.N,/OSC_OUT*
X15938500Y-8509000D03*
X27622500Y-8445498D03*
G04 #@! TO.N,+3V3*
X24003000Y-6858000D03*
X25971500Y-4508500D03*
X31432500Y-3683000D03*
X37465000Y-8826500D03*
X37465000Y-10223500D03*
X35750500Y-10858500D03*
X36385500Y-10223500D03*
X47180506Y-11620500D03*
D17*
G04 #@! TO.N,/5V*
X42545000Y-10414000D03*
X50673000Y-16065518D03*
X1403990Y-16256000D03*
D16*
G04 #@! TO.N,/BOOT0*
X30924500Y-7620000D03*
X30924500Y-7620000D03*
G04 #@! TO.N,/OSC32_OUT*
X27931763Y-6982007D03*
G04 #@! TO.N,/OSC32_IN*
X28638500Y-7239000D03*
G04 #@! TO.N,/PA15*
X47117000Y-8826500D03*
G04 #@! TO.N,/SWDCLK*
X32902941Y-9341470D03*
G04 #@! TO.N,/SWDIO*
X32948298Y-11323010D03*
G04 #@! TD*
D18*
G04 #@! TO.N,/OSC_IN*
X15240000Y-13208000D02*
X14224000Y-12192000D01*
X28342797Y-8788589D02*
X23923386Y-13208000D01*
X23923386Y-13208000D02*
X15240000Y-13208000D01*
X11874500Y-9842500D02*
X14224000Y-12192000D01*
X11874500Y-8509000D02*
X11874500Y-9842500D01*
G04 #@! TO.N,/OSC_OUT*
X27622500Y-9017000D02*
X27622500Y-8445498D01*
X24447500Y-12192000D02*
X27622500Y-9017000D01*
X24447500Y-12192000D02*
X19104000Y-12192000D01*
X15938500Y-9017000D02*
X15938500Y-8509000D01*
X19104000Y-12192000D02*
X19104000Y-12182500D01*
X19104000Y-12182500D02*
X15938500Y-9017000D01*
D19*
G04 #@! TO.N,+3V3*
X24003000Y-6858000D02*
X25971500Y-4889500D01*
X25971500Y-4889500D02*
X25971500Y-4508500D01*
X3810000Y-6350000D02*
X6350000Y-6350000D01*
X37465000Y-8826500D02*
X37465000Y-10223500D01*
X36385500Y-10223500D02*
X30670500Y-4508500D01*
X30670500Y-4508500D02*
X25971500Y-4508500D01*
X52070000Y-1270000D02*
X52070000Y-7409264D01*
X52070000Y-7409264D02*
X47858764Y-11620500D01*
X47858764Y-11620500D02*
X47604770Y-11620500D01*
X47604770Y-11620500D02*
X47180506Y-11620500D01*
X25971500Y-4508500D02*
X24257000Y-4508500D01*
X23177500Y-3429000D02*
X9271000Y-3429000D01*
X9271000Y-3429000D02*
X6350000Y-6350000D01*
X24257000Y-4508500D02*
X23177500Y-3429000D01*
X31432500Y-4191000D02*
X31432500Y-3683000D01*
X37465000Y-8826500D02*
X36068000Y-8826500D01*
X36068000Y-8826500D02*
X31432500Y-4191000D01*
G04 #@! TO.N,/5V*
X42545000Y-10414000D02*
X48196518Y-16065518D01*
X48196518Y-16065518D02*
X50673000Y-16065518D01*
X42545000Y-10414000D02*
X36703000Y-16256000D01*
X1969675Y-16256000D02*
X1403990Y-16256000D01*
X36703000Y-16256000D02*
X1969675Y-16256000D01*
D18*
G04 #@! TO.N,/BOOT0*
X7352000Y-8890000D02*
X6350000Y-8890000D01*
X11987500Y-13525500D02*
X7352000Y-8890000D01*
X30924500Y-7620000D02*
X25019000Y-13525500D01*
X25019000Y-13525500D02*
X11987500Y-13525500D01*
G04 #@! TO.N,/OSC32_OUT*
X27507499Y-6982007D02*
X27931763Y-6982007D01*
X26531429Y-6982007D02*
X27507499Y-6982007D01*
X25335425Y-8178011D02*
X26531429Y-6982007D01*
X19113500Y-6789500D02*
X20502011Y-8178011D01*
X20502011Y-8178011D02*
X25335425Y-8178011D01*
G04 #@! TO.N,/OSC32_IN*
X26733500Y-6350000D02*
X28173764Y-6350000D01*
X28638500Y-6814736D02*
X28638500Y-7239000D01*
X28173764Y-6350000D02*
X28638500Y-6814736D01*
X25209500Y-7874000D02*
X26733500Y-6350000D01*
X19113500Y-4889500D02*
X22098000Y-7874000D01*
X22098000Y-7874000D02*
X25209500Y-7874000D01*
G04 #@! TO.N,/PA15*
X47117000Y-1397000D02*
X46990000Y-1270000D01*
X47117000Y-8826500D02*
X47117000Y-1397000D01*
G04 #@! TO.N,/SWDCLK*
X3810000Y-11430000D02*
X5763936Y-11430000D01*
X5763936Y-11430000D02*
X8952425Y-14618489D01*
X8952425Y-14618489D02*
X27625922Y-14618489D01*
X32602942Y-9641469D02*
X32902941Y-9341470D01*
X27625922Y-14618489D02*
X32602942Y-9641469D01*
G04 #@! TO.N,/SWDIO*
X32648299Y-11623009D02*
X32948298Y-11323010D01*
X3810000Y-8890000D02*
X2413000Y-10287000D01*
X2413000Y-10287000D02*
X2413000Y-11874500D01*
X2413000Y-11874500D02*
X3238500Y-12700000D01*
X3238500Y-12700000D02*
X6604000Y-12700000D01*
X6604000Y-12700000D02*
X8826500Y-14922500D01*
X8826500Y-14922500D02*
X29348808Y-14922500D01*
X29348808Y-14922500D02*
X32648299Y-11623009D01*
G04 #@! TD*
D20*
G04 #@! TO.N,GND*
G36*
X2980897Y-440897D02*
X2726724Y-821293D01*
X2637471Y-1270000D01*
X2726724Y-1718707D01*
X2980897Y-2099103D01*
X3361293Y-2353276D01*
X3696739Y-2420000D01*
X3923261Y-2420000D01*
X4258707Y-2353276D01*
X4639103Y-2099103D01*
X4893276Y-1718707D01*
X4982529Y-1270000D01*
X4893276Y-821293D01*
X4639103Y-440897D01*
X4540481Y-375000D01*
X5619519Y-375000D01*
X5520897Y-440897D01*
X5266724Y-821293D01*
X5177471Y-1270000D01*
X5266724Y-1718707D01*
X5520897Y-2099103D01*
X5901293Y-2353276D01*
X6236739Y-2420000D01*
X6463261Y-2420000D01*
X6798707Y-2353276D01*
X7179103Y-2099103D01*
X7433276Y-1718707D01*
X7522529Y-1270000D01*
X7433276Y-821293D01*
X7179103Y-440897D01*
X7080481Y-375000D01*
X8159519Y-375000D01*
X8060897Y-440897D01*
X7806724Y-821293D01*
X7717471Y-1270000D01*
X7806724Y-1718707D01*
X8060897Y-2099103D01*
X8441293Y-2353276D01*
X8776739Y-2420000D01*
X9003261Y-2420000D01*
X9338707Y-2353276D01*
X9719103Y-2099103D01*
X9973276Y-1718707D01*
X10062529Y-1270000D01*
X9973276Y-821293D01*
X9719103Y-440897D01*
X9620481Y-375000D01*
X10699519Y-375000D01*
X10600897Y-440897D01*
X10346724Y-821293D01*
X10257471Y-1270000D01*
X10346724Y-1718707D01*
X10600897Y-2099103D01*
X10981293Y-2353276D01*
X11316739Y-2420000D01*
X11543261Y-2420000D01*
X11878707Y-2353276D01*
X12259103Y-2099103D01*
X12513276Y-1718707D01*
X12602529Y-1270000D01*
X12513276Y-821293D01*
X12259103Y-440897D01*
X12160481Y-375000D01*
X13239519Y-375000D01*
X13140897Y-440897D01*
X12886724Y-821293D01*
X12797471Y-1270000D01*
X12886724Y-1718707D01*
X13140897Y-2099103D01*
X13521293Y-2353276D01*
X13856739Y-2420000D01*
X14083261Y-2420000D01*
X14418707Y-2353276D01*
X14799103Y-2099103D01*
X15053276Y-1718707D01*
X15142529Y-1270000D01*
X15053276Y-821293D01*
X14799103Y-440897D01*
X14700481Y-375000D01*
X15779519Y-375000D01*
X15680897Y-440897D01*
X15426724Y-821293D01*
X15337471Y-1270000D01*
X15426724Y-1718707D01*
X15680897Y-2099103D01*
X16061293Y-2353276D01*
X16396739Y-2420000D01*
X16623261Y-2420000D01*
X16958707Y-2353276D01*
X17339103Y-2099103D01*
X17593276Y-1718707D01*
X17682529Y-1270000D01*
X17593276Y-821293D01*
X17339103Y-440897D01*
X17240481Y-375000D01*
X18319519Y-375000D01*
X18220897Y-440897D01*
X17966724Y-821293D01*
X17877471Y-1270000D01*
X17966724Y-1718707D01*
X18220897Y-2099103D01*
X18601293Y-2353276D01*
X18936739Y-2420000D01*
X19163261Y-2420000D01*
X19498707Y-2353276D01*
X19879103Y-2099103D01*
X20133276Y-1718707D01*
X20222529Y-1270000D01*
X20133276Y-821293D01*
X19879103Y-440897D01*
X19780481Y-375000D01*
X20859519Y-375000D01*
X20760897Y-440897D01*
X20506724Y-821293D01*
X20417471Y-1270000D01*
X20506724Y-1718707D01*
X20760897Y-2099103D01*
X21141293Y-2353276D01*
X21476739Y-2420000D01*
X21703261Y-2420000D01*
X22038707Y-2353276D01*
X22419103Y-2099103D01*
X22673276Y-1718707D01*
X22762529Y-1270000D01*
X22673276Y-821293D01*
X22419103Y-440897D01*
X22320481Y-375000D01*
X23399519Y-375000D01*
X23300897Y-440897D01*
X23046724Y-821293D01*
X22957471Y-1270000D01*
X23046724Y-1718707D01*
X23300897Y-2099103D01*
X23681293Y-2353276D01*
X24016739Y-2420000D01*
X24243261Y-2420000D01*
X24578707Y-2353276D01*
X24959103Y-2099103D01*
X25213276Y-1718707D01*
X25302529Y-1270000D01*
X25213276Y-821293D01*
X24959103Y-440897D01*
X24860481Y-375000D01*
X25939519Y-375000D01*
X25840897Y-440897D01*
X25586724Y-821293D01*
X25497471Y-1270000D01*
X25586724Y-1718707D01*
X25840897Y-2099103D01*
X26221293Y-2353276D01*
X26556739Y-2420000D01*
X26783261Y-2420000D01*
X27118707Y-2353276D01*
X27499103Y-2099103D01*
X27753276Y-1718707D01*
X27842529Y-1270000D01*
X27753276Y-821293D01*
X27499103Y-440897D01*
X27400481Y-375000D01*
X28479519Y-375000D01*
X28380897Y-440897D01*
X28126724Y-821293D01*
X28037471Y-1270000D01*
X28126724Y-1718707D01*
X28380897Y-2099103D01*
X28761293Y-2353276D01*
X29096739Y-2420000D01*
X29323261Y-2420000D01*
X29658707Y-2353276D01*
X30039103Y-2099103D01*
X30293276Y-1718707D01*
X30382529Y-1270000D01*
X30293276Y-821293D01*
X30039103Y-440897D01*
X29940481Y-375000D01*
X31019519Y-375000D01*
X30920897Y-440897D01*
X30666724Y-821293D01*
X30577471Y-1270000D01*
X30666724Y-1718707D01*
X30920897Y-2099103D01*
X31301293Y-2353276D01*
X31636739Y-2420000D01*
X31863261Y-2420000D01*
X32198707Y-2353276D01*
X32579103Y-2099103D01*
X32833276Y-1718707D01*
X32922529Y-1270000D01*
X32833276Y-821293D01*
X32579103Y-440897D01*
X32480481Y-375000D01*
X33559519Y-375000D01*
X33460897Y-440897D01*
X33206724Y-821293D01*
X33117471Y-1270000D01*
X33206724Y-1718707D01*
X33460897Y-2099103D01*
X33841293Y-2353276D01*
X34176739Y-2420000D01*
X34403261Y-2420000D01*
X34738707Y-2353276D01*
X35119103Y-2099103D01*
X35373276Y-1718707D01*
X35462529Y-1270000D01*
X35373276Y-821293D01*
X35119103Y-440897D01*
X35020481Y-375000D01*
X36099519Y-375000D01*
X36000897Y-440897D01*
X35746724Y-821293D01*
X35657471Y-1270000D01*
X35746724Y-1718707D01*
X36000897Y-2099103D01*
X36381293Y-2353276D01*
X36716739Y-2420000D01*
X36943261Y-2420000D01*
X37278707Y-2353276D01*
X37659103Y-2099103D01*
X37913276Y-1718707D01*
X38002529Y-1270000D01*
X37913276Y-821293D01*
X37659103Y-440897D01*
X37560481Y-375000D01*
X38639519Y-375000D01*
X38540897Y-440897D01*
X38286724Y-821293D01*
X38197471Y-1270000D01*
X38286724Y-1718707D01*
X38540897Y-2099103D01*
X38921293Y-2353276D01*
X39256739Y-2420000D01*
X39483261Y-2420000D01*
X39818707Y-2353276D01*
X40199103Y-2099103D01*
X40453276Y-1718707D01*
X40542529Y-1270000D01*
X40453276Y-821293D01*
X40199103Y-440897D01*
X40100481Y-375000D01*
X41179519Y-375000D01*
X41080897Y-440897D01*
X40826724Y-821293D01*
X40737471Y-1270000D01*
X40826724Y-1718707D01*
X41080897Y-2099103D01*
X41461293Y-2353276D01*
X41796739Y-2420000D01*
X42023261Y-2420000D01*
X42358707Y-2353276D01*
X42739103Y-2099103D01*
X42993276Y-1718707D01*
X43082529Y-1270000D01*
X42993276Y-821293D01*
X42739103Y-440897D01*
X42640481Y-375000D01*
X43719519Y-375000D01*
X43620897Y-440897D01*
X43366724Y-821293D01*
X43277471Y-1270000D01*
X43366724Y-1718707D01*
X43620897Y-2099103D01*
X44001293Y-2353276D01*
X44336739Y-2420000D01*
X44563261Y-2420000D01*
X44898707Y-2353276D01*
X45279103Y-2099103D01*
X45533276Y-1718707D01*
X45622529Y-1270000D01*
X45533276Y-821293D01*
X45279103Y-440897D01*
X45180481Y-375000D01*
X46259519Y-375000D01*
X46160897Y-440897D01*
X45906724Y-821293D01*
X45817471Y-1270000D01*
X45906724Y-1718707D01*
X46160897Y-2099103D01*
X46541293Y-2353276D01*
X46741001Y-2393000D01*
X46741000Y-8353971D01*
X46608344Y-8486627D01*
X46517000Y-8707153D01*
X46517000Y-8945847D01*
X46608344Y-9166373D01*
X46777127Y-9335156D01*
X46997653Y-9426500D01*
X47236347Y-9426500D01*
X47456873Y-9335156D01*
X47625656Y-9166373D01*
X47717000Y-8945847D01*
X47717000Y-8707153D01*
X47625656Y-8486627D01*
X47493000Y-8353971D01*
X47493000Y-2316999D01*
X47819103Y-2099103D01*
X48073276Y-1718707D01*
X48162529Y-1270000D01*
X48073276Y-821293D01*
X47819103Y-440897D01*
X47720481Y-375000D01*
X48799519Y-375000D01*
X48700897Y-440897D01*
X48446724Y-821293D01*
X48357471Y-1270000D01*
X48446724Y-1718707D01*
X48700897Y-2099103D01*
X49081293Y-2353276D01*
X49416739Y-2420000D01*
X49643261Y-2420000D01*
X49978707Y-2353276D01*
X50359103Y-2099103D01*
X50613276Y-1718707D01*
X50702529Y-1270000D01*
X50613276Y-821293D01*
X50359103Y-440897D01*
X50260481Y-375000D01*
X51339519Y-375000D01*
X51240897Y-440897D01*
X50986724Y-821293D01*
X50897471Y-1270000D01*
X50986724Y-1718707D01*
X51240897Y-2099103D01*
X51570000Y-2319003D01*
X51570001Y-7202156D01*
X47651658Y-11120500D01*
X47529035Y-11120500D01*
X47520379Y-11111844D01*
X47299853Y-11020500D01*
X47061159Y-11020500D01*
X46840633Y-11111844D01*
X46671850Y-11280627D01*
X46580506Y-11501153D01*
X46580506Y-11739847D01*
X46671850Y-11960373D01*
X46840633Y-12129156D01*
X47061159Y-12220500D01*
X47299853Y-12220500D01*
X47520379Y-12129156D01*
X47529035Y-12120500D01*
X47809523Y-12120500D01*
X47858764Y-12130295D01*
X47908005Y-12120500D01*
X47908007Y-12120500D01*
X48053854Y-12091489D01*
X48219244Y-11980980D01*
X48247141Y-11939229D01*
X49465491Y-10720879D01*
X51173331Y-10720879D01*
X51244378Y-10902482D01*
X51658601Y-11071960D01*
X52106149Y-11070020D01*
X52510622Y-10902482D01*
X52581669Y-10720879D01*
X51877500Y-10016711D01*
X51173331Y-10720879D01*
X49465491Y-10720879D01*
X50459269Y-9727101D01*
X50751540Y-9727101D01*
X50753480Y-10174649D01*
X50921018Y-10579122D01*
X51102621Y-10650169D01*
X51806789Y-9946000D01*
X51948211Y-9946000D01*
X52652379Y-10650169D01*
X52833982Y-10579122D01*
X53003460Y-10164899D01*
X53001520Y-9717351D01*
X52833982Y-9312878D01*
X52652379Y-9241831D01*
X51948211Y-9946000D01*
X51806789Y-9946000D01*
X51102621Y-9241831D01*
X50921018Y-9312878D01*
X50751540Y-9727101D01*
X50459269Y-9727101D01*
X51015249Y-9171121D01*
X51173331Y-9171121D01*
X51877500Y-9875289D01*
X52581669Y-9171121D01*
X52574041Y-9151623D01*
X53248869Y-9151623D01*
X53284487Y-9282489D01*
X53485038Y-9617751D01*
X53798623Y-9850745D01*
X54177500Y-9946000D01*
X54527500Y-9946000D01*
X54527500Y-8996000D01*
X53328890Y-8996000D01*
X53248869Y-9151623D01*
X52574041Y-9151623D01*
X52510622Y-8989518D01*
X52096399Y-8820040D01*
X51648851Y-8821980D01*
X51244378Y-8989518D01*
X51173331Y-9171121D01*
X51015249Y-9171121D01*
X51445993Y-8740377D01*
X53248869Y-8740377D01*
X53328890Y-8896000D01*
X54527500Y-8896000D01*
X54527500Y-7946000D01*
X54177500Y-7946000D01*
X53798623Y-8041255D01*
X53485038Y-8274249D01*
X53284487Y-8609511D01*
X53248869Y-8740377D01*
X51445993Y-8740377D01*
X52388732Y-7797639D01*
X52430480Y-7769744D01*
X52540989Y-7604354D01*
X52570000Y-7458507D01*
X52570000Y-7458506D01*
X52579795Y-7409265D01*
X52570000Y-7360023D01*
X52570000Y-2319003D01*
X52899103Y-2099103D01*
X53153276Y-1718707D01*
X53193841Y-1514772D01*
X53384195Y-1514772D01*
X53571174Y-1965235D01*
X53916305Y-2309855D01*
X54365229Y-2495801D01*
X54560000Y-2418913D01*
X54560000Y-1320000D01*
X53460996Y-1320000D01*
X53384195Y-1514772D01*
X53193841Y-1514772D01*
X53242529Y-1270000D01*
X53153276Y-821293D01*
X52899103Y-440897D01*
X52800481Y-375000D01*
X53771235Y-375000D01*
X53571174Y-574765D01*
X53384195Y-1025228D01*
X53460996Y-1220000D01*
X54560000Y-1220000D01*
X54560000Y-1200000D01*
X54660000Y-1200000D01*
X54660000Y-1220000D01*
X54680000Y-1220000D01*
X54680000Y-1320000D01*
X54660000Y-1320000D01*
X54660000Y-2418913D01*
X54854771Y-2495801D01*
X55303695Y-2309855D01*
X55505000Y-2108848D01*
X55505000Y-8151682D01*
X55356377Y-8041255D01*
X54977500Y-7946000D01*
X54627500Y-7946000D01*
X54627500Y-8896000D01*
X54647500Y-8896000D01*
X54647500Y-8996000D01*
X54627500Y-8996000D01*
X54627500Y-9946000D01*
X54977500Y-9946000D01*
X55356377Y-9850745D01*
X55505000Y-9740318D01*
X55505001Y-15151683D01*
X55356377Y-15041255D01*
X54977500Y-14946000D01*
X54627500Y-14946000D01*
X54627500Y-15896000D01*
X54647500Y-15896000D01*
X54647500Y-15996000D01*
X54627500Y-15996000D01*
X54627500Y-16946000D01*
X54977500Y-16946000D01*
X55356377Y-16850745D01*
X55505001Y-16740317D01*
X55505001Y-18211153D01*
X55303695Y-18010145D01*
X54854771Y-17824199D01*
X54660000Y-17901087D01*
X54660000Y-19000000D01*
X54680000Y-19000000D01*
X54680000Y-19100000D01*
X54660000Y-19100000D01*
X54660000Y-19120000D01*
X54560000Y-19120000D01*
X54560000Y-19100000D01*
X53460996Y-19100000D01*
X53384195Y-19294772D01*
X53571174Y-19745235D01*
X53771235Y-19945000D01*
X52800481Y-19945000D01*
X52899103Y-19879103D01*
X53153276Y-19498707D01*
X53242529Y-19050000D01*
X53193842Y-18805228D01*
X53384195Y-18805228D01*
X53460996Y-19000000D01*
X54560000Y-19000000D01*
X54560000Y-17901087D01*
X54365229Y-17824199D01*
X53916305Y-18010145D01*
X53571174Y-18354765D01*
X53384195Y-18805228D01*
X53193842Y-18805228D01*
X53153276Y-18601293D01*
X52899103Y-18220897D01*
X52518707Y-17966724D01*
X52183261Y-17900000D01*
X51956739Y-17900000D01*
X51621293Y-17966724D01*
X51240897Y-18220897D01*
X50986724Y-18601293D01*
X50897471Y-19050000D01*
X50986724Y-19498707D01*
X51240897Y-19879103D01*
X51339519Y-19945000D01*
X50260481Y-19945000D01*
X50359103Y-19879103D01*
X50613276Y-19498707D01*
X50702529Y-19050000D01*
X50613276Y-18601293D01*
X50359103Y-18220897D01*
X49978707Y-17966724D01*
X49643261Y-17900000D01*
X49416739Y-17900000D01*
X49081293Y-17966724D01*
X48700897Y-18220897D01*
X48446724Y-18601293D01*
X48357471Y-19050000D01*
X48446724Y-19498707D01*
X48700897Y-19879103D01*
X48799519Y-19945000D01*
X47720481Y-19945000D01*
X47819103Y-19879103D01*
X48073276Y-19498707D01*
X48162529Y-19050000D01*
X48073276Y-18601293D01*
X47819103Y-18220897D01*
X47438707Y-17966724D01*
X47103261Y-17900000D01*
X46876739Y-17900000D01*
X46541293Y-17966724D01*
X46160897Y-18220897D01*
X45906724Y-18601293D01*
X45817471Y-19050000D01*
X45906724Y-19498707D01*
X46160897Y-19879103D01*
X46259519Y-19945000D01*
X45180481Y-19945000D01*
X45279103Y-19879103D01*
X45533276Y-19498707D01*
X45622529Y-19050000D01*
X45533276Y-18601293D01*
X45279103Y-18220897D01*
X44898707Y-17966724D01*
X44563261Y-17900000D01*
X44336739Y-17900000D01*
X44001293Y-17966724D01*
X43620897Y-18220897D01*
X43366724Y-18601293D01*
X43277471Y-19050000D01*
X43366724Y-19498707D01*
X43620897Y-19879103D01*
X43719519Y-19945000D01*
X42640481Y-19945000D01*
X42739103Y-19879103D01*
X42993276Y-19498707D01*
X43082529Y-19050000D01*
X42993276Y-18601293D01*
X42739103Y-18220897D01*
X42358707Y-17966724D01*
X42023261Y-17900000D01*
X41796739Y-17900000D01*
X41461293Y-17966724D01*
X41080897Y-18220897D01*
X40826724Y-18601293D01*
X40737471Y-19050000D01*
X40826724Y-19498707D01*
X41080897Y-19879103D01*
X41179519Y-19945000D01*
X40100481Y-19945000D01*
X40199103Y-19879103D01*
X40453276Y-19498707D01*
X40542529Y-19050000D01*
X40453276Y-18601293D01*
X40199103Y-18220897D01*
X39818707Y-17966724D01*
X39483261Y-17900000D01*
X39256739Y-17900000D01*
X38921293Y-17966724D01*
X38540897Y-18220897D01*
X38286724Y-18601293D01*
X38197471Y-19050000D01*
X38286724Y-19498707D01*
X38540897Y-19879103D01*
X38639519Y-19945000D01*
X37560481Y-19945000D01*
X37659103Y-19879103D01*
X37913276Y-19498707D01*
X38002529Y-19050000D01*
X37913276Y-18601293D01*
X37659103Y-18220897D01*
X37278707Y-17966724D01*
X36943261Y-17900000D01*
X36716739Y-17900000D01*
X36381293Y-17966724D01*
X36000897Y-18220897D01*
X35746724Y-18601293D01*
X35657471Y-19050000D01*
X35746724Y-19498707D01*
X36000897Y-19879103D01*
X36099519Y-19945000D01*
X35020481Y-19945000D01*
X35119103Y-19879103D01*
X35373276Y-19498707D01*
X35462529Y-19050000D01*
X35373276Y-18601293D01*
X35119103Y-18220897D01*
X34738707Y-17966724D01*
X34403261Y-17900000D01*
X34176739Y-17900000D01*
X33841293Y-17966724D01*
X33460897Y-18220897D01*
X33206724Y-18601293D01*
X33117471Y-19050000D01*
X33206724Y-19498707D01*
X33460897Y-19879103D01*
X33559519Y-19945000D01*
X32480481Y-19945000D01*
X32579103Y-19879103D01*
X32833276Y-19498707D01*
X32922529Y-19050000D01*
X32833276Y-18601293D01*
X32579103Y-18220897D01*
X32198707Y-17966724D01*
X31863261Y-17900000D01*
X31636739Y-17900000D01*
X31301293Y-17966724D01*
X30920897Y-18220897D01*
X30666724Y-18601293D01*
X30577471Y-19050000D01*
X30666724Y-19498707D01*
X30920897Y-19879103D01*
X31019519Y-19945000D01*
X29940481Y-19945000D01*
X30039103Y-19879103D01*
X30293276Y-19498707D01*
X30382529Y-19050000D01*
X30293276Y-18601293D01*
X30039103Y-18220897D01*
X29658707Y-17966724D01*
X29323261Y-17900000D01*
X29096739Y-17900000D01*
X28761293Y-17966724D01*
X28380897Y-18220897D01*
X28126724Y-18601293D01*
X28037471Y-19050000D01*
X28126724Y-19498707D01*
X28380897Y-19879103D01*
X28479519Y-19945000D01*
X27400481Y-19945000D01*
X27499103Y-19879103D01*
X27753276Y-19498707D01*
X27842529Y-19050000D01*
X27753276Y-18601293D01*
X27499103Y-18220897D01*
X27118707Y-17966724D01*
X26783261Y-17900000D01*
X26556739Y-17900000D01*
X26221293Y-17966724D01*
X25840897Y-18220897D01*
X25586724Y-18601293D01*
X25497471Y-19050000D01*
X25586724Y-19498707D01*
X25840897Y-19879103D01*
X25939519Y-19945000D01*
X24860481Y-19945000D01*
X24959103Y-19879103D01*
X25213276Y-19498707D01*
X25302529Y-19050000D01*
X25213276Y-18601293D01*
X24959103Y-18220897D01*
X24578707Y-17966724D01*
X24243261Y-17900000D01*
X24016739Y-17900000D01*
X23681293Y-17966724D01*
X23300897Y-18220897D01*
X23046724Y-18601293D01*
X22957471Y-19050000D01*
X23046724Y-19498707D01*
X23300897Y-19879103D01*
X23399519Y-19945000D01*
X22320481Y-19945000D01*
X22419103Y-19879103D01*
X22673276Y-19498707D01*
X22762529Y-19050000D01*
X22673276Y-18601293D01*
X22419103Y-18220897D01*
X22038707Y-17966724D01*
X21703261Y-17900000D01*
X21476739Y-17900000D01*
X21141293Y-17966724D01*
X20760897Y-18220897D01*
X20506724Y-18601293D01*
X20417471Y-19050000D01*
X20506724Y-19498707D01*
X20760897Y-19879103D01*
X20859519Y-19945000D01*
X19780481Y-19945000D01*
X19879103Y-19879103D01*
X20133276Y-19498707D01*
X20222529Y-19050000D01*
X20133276Y-18601293D01*
X19879103Y-18220897D01*
X19498707Y-17966724D01*
X19163261Y-17900000D01*
X18936739Y-17900000D01*
X18601293Y-17966724D01*
X18220897Y-18220897D01*
X17966724Y-18601293D01*
X17877471Y-19050000D01*
X17966724Y-19498707D01*
X18220897Y-19879103D01*
X18319519Y-19945000D01*
X17240481Y-19945000D01*
X17339103Y-19879103D01*
X17593276Y-19498707D01*
X17682529Y-19050000D01*
X17593276Y-18601293D01*
X17339103Y-18220897D01*
X16958707Y-17966724D01*
X16623261Y-17900000D01*
X16396739Y-17900000D01*
X16061293Y-17966724D01*
X15680897Y-18220897D01*
X15426724Y-18601293D01*
X15337471Y-19050000D01*
X15426724Y-19498707D01*
X15680897Y-19879103D01*
X15779519Y-19945000D01*
X14700481Y-19945000D01*
X14799103Y-19879103D01*
X15053276Y-19498707D01*
X15142529Y-19050000D01*
X15053276Y-18601293D01*
X14799103Y-18220897D01*
X14418707Y-17966724D01*
X14083261Y-17900000D01*
X13856739Y-17900000D01*
X13521293Y-17966724D01*
X13140897Y-18220897D01*
X12886724Y-18601293D01*
X12797471Y-19050000D01*
X12886724Y-19498707D01*
X13140897Y-19879103D01*
X13239519Y-19945000D01*
X12160481Y-19945000D01*
X12259103Y-19879103D01*
X12513276Y-19498707D01*
X12602529Y-19050000D01*
X12513276Y-18601293D01*
X12259103Y-18220897D01*
X11878707Y-17966724D01*
X11543261Y-17900000D01*
X11316739Y-17900000D01*
X10981293Y-17966724D01*
X10600897Y-18220897D01*
X10346724Y-18601293D01*
X10257471Y-19050000D01*
X10346724Y-19498707D01*
X10600897Y-19879103D01*
X10699519Y-19945000D01*
X9620481Y-19945000D01*
X9719103Y-19879103D01*
X9973276Y-19498707D01*
X10062529Y-19050000D01*
X9973276Y-18601293D01*
X9719103Y-18220897D01*
X9338707Y-17966724D01*
X9003261Y-17900000D01*
X8776739Y-17900000D01*
X8441293Y-17966724D01*
X8060897Y-18220897D01*
X7806724Y-18601293D01*
X7717471Y-19050000D01*
X7806724Y-19498707D01*
X8060897Y-19879103D01*
X8159519Y-19945000D01*
X7080481Y-19945000D01*
X7179103Y-19879103D01*
X7433276Y-19498707D01*
X7522529Y-19050000D01*
X7433276Y-18601293D01*
X7179103Y-18220897D01*
X6798707Y-17966724D01*
X6463261Y-17900000D01*
X6236739Y-17900000D01*
X5901293Y-17966724D01*
X5520897Y-18220897D01*
X5266724Y-18601293D01*
X5177471Y-19050000D01*
X5266724Y-19498707D01*
X5520897Y-19879103D01*
X5619519Y-19945000D01*
X4540481Y-19945000D01*
X4639103Y-19879103D01*
X4893276Y-19498707D01*
X4982529Y-19050000D01*
X4893276Y-18601293D01*
X4639103Y-18220897D01*
X4258707Y-17966724D01*
X3923261Y-17900000D01*
X3696739Y-17900000D01*
X3361293Y-17966724D01*
X2980897Y-18220897D01*
X2726724Y-18601293D01*
X2637471Y-19050000D01*
X2726724Y-19498707D01*
X2980897Y-19879103D01*
X3079519Y-19945000D01*
X2520000Y-19945000D01*
X2520000Y-19200000D01*
X2420000Y-19100000D01*
X1320000Y-19100000D01*
X1320000Y-19120000D01*
X1220000Y-19120000D01*
X1220000Y-19100000D01*
X1200000Y-19100000D01*
X1200000Y-19000000D01*
X1220000Y-19000000D01*
X1220000Y-17900000D01*
X1320000Y-17900000D01*
X1320000Y-19000000D01*
X2420000Y-19000000D01*
X2520000Y-18900000D01*
X2520000Y-18120435D01*
X2459104Y-17973418D01*
X2346582Y-17860896D01*
X2199565Y-17800000D01*
X1420000Y-17800000D01*
X1320000Y-17900000D01*
X1220000Y-17900000D01*
X1120000Y-17800000D01*
X375000Y-17800000D01*
X375000Y-16116761D01*
X703990Y-16116761D01*
X703990Y-16395239D01*
X810558Y-16652518D01*
X1007472Y-16849432D01*
X1264751Y-16956000D01*
X1543229Y-16956000D01*
X1800508Y-16849432D01*
X1893940Y-16756000D01*
X36653759Y-16756000D01*
X36703000Y-16765795D01*
X36752241Y-16756000D01*
X36752243Y-16756000D01*
X36898090Y-16726989D01*
X37063480Y-16616480D01*
X37091377Y-16574729D01*
X42545000Y-11121107D01*
X47808143Y-16384250D01*
X47836038Y-16425998D01*
X48001428Y-16536507D01*
X48147275Y-16565518D01*
X48147276Y-16565518D01*
X48196517Y-16575313D01*
X48245758Y-16565518D01*
X50183050Y-16565518D01*
X50276482Y-16658950D01*
X50533761Y-16765518D01*
X50812239Y-16765518D01*
X51069518Y-16658950D01*
X51266432Y-16462036D01*
X51373000Y-16204757D01*
X51373000Y-16151623D01*
X53248869Y-16151623D01*
X53284487Y-16282489D01*
X53485038Y-16617751D01*
X53798623Y-16850745D01*
X54177500Y-16946000D01*
X54527500Y-16946000D01*
X54527500Y-15996000D01*
X53328890Y-15996000D01*
X53248869Y-16151623D01*
X51373000Y-16151623D01*
X51373000Y-15955107D01*
X51658601Y-16071960D01*
X52106149Y-16070020D01*
X52510622Y-15902482D01*
X52574040Y-15740377D01*
X53248869Y-15740377D01*
X53328890Y-15896000D01*
X54527500Y-15896000D01*
X54527500Y-14946000D01*
X54177500Y-14946000D01*
X53798623Y-15041255D01*
X53485038Y-15274249D01*
X53284487Y-15609511D01*
X53248869Y-15740377D01*
X52574040Y-15740377D01*
X52581669Y-15720879D01*
X51877500Y-15016711D01*
X51863358Y-15030853D01*
X51792647Y-14960142D01*
X51806789Y-14946000D01*
X51948211Y-14946000D01*
X52652379Y-15650169D01*
X52833982Y-15579122D01*
X53003460Y-15164899D01*
X53001520Y-14717351D01*
X52833982Y-14312878D01*
X52652379Y-14241831D01*
X51948211Y-14946000D01*
X51806789Y-14946000D01*
X51102621Y-14241831D01*
X50921018Y-14312878D01*
X50751540Y-14727101D01*
X50753480Y-15174649D01*
X50836745Y-15375669D01*
X50812239Y-15365518D01*
X50533761Y-15365518D01*
X50276482Y-15472086D01*
X50183050Y-15565518D01*
X48403625Y-15565518D01*
X47009228Y-14171121D01*
X51173331Y-14171121D01*
X51877500Y-14875289D01*
X52581669Y-14171121D01*
X52510622Y-13989518D01*
X52096399Y-13820040D01*
X51648851Y-13821980D01*
X51244378Y-13989518D01*
X51173331Y-14171121D01*
X47009228Y-14171121D01*
X43245000Y-10406894D01*
X43245000Y-10274761D01*
X43138432Y-10017482D01*
X42941518Y-9820568D01*
X42684239Y-9714000D01*
X42405761Y-9714000D01*
X42148482Y-9820568D01*
X41951568Y-10017482D01*
X41845000Y-10274761D01*
X41845000Y-10406893D01*
X36495894Y-15756000D01*
X1893940Y-15756000D01*
X1800508Y-15662568D01*
X1543229Y-15556000D01*
X1264751Y-15556000D01*
X1007472Y-15662568D01*
X810558Y-15859482D01*
X703990Y-16116761D01*
X375000Y-16116761D01*
X375000Y-14214771D01*
X2584199Y-14214771D01*
X2770145Y-14663695D01*
X3114765Y-15008826D01*
X3565228Y-15195805D01*
X3760000Y-15119004D01*
X3760000Y-14020000D01*
X3860000Y-14020000D01*
X3860000Y-15119004D01*
X4054772Y-15195805D01*
X4505235Y-15008826D01*
X4849855Y-14663695D01*
X5035801Y-14214771D01*
X4958913Y-14020000D01*
X3860000Y-14020000D01*
X3760000Y-14020000D01*
X2661087Y-14020000D01*
X2584199Y-14214771D01*
X375000Y-14214771D01*
X375000Y-10287000D01*
X2029634Y-10287000D01*
X2037000Y-10324031D01*
X2037001Y-11837464D01*
X2029634Y-11874500D01*
X2058816Y-12021207D01*
X2068562Y-12035793D01*
X2141920Y-12145581D01*
X2173313Y-12166557D01*
X2946441Y-12939685D01*
X2967419Y-12971081D01*
X3031898Y-13014164D01*
X2770145Y-13276305D01*
X2584199Y-13725229D01*
X2661087Y-13920000D01*
X3760000Y-13920000D01*
X3760000Y-13900000D01*
X3860000Y-13900000D01*
X3860000Y-13920000D01*
X4958913Y-13920000D01*
X5035801Y-13725229D01*
X4849855Y-13276305D01*
X4649847Y-13076000D01*
X6448256Y-13076000D01*
X8534443Y-15162188D01*
X8555419Y-15193581D01*
X8586812Y-15214557D01*
X8679792Y-15276684D01*
X8826500Y-15305866D01*
X8863531Y-15298500D01*
X29311777Y-15298500D01*
X29348808Y-15305866D01*
X29385839Y-15298500D01*
X29495516Y-15276684D01*
X29619889Y-15193581D01*
X29640867Y-15162185D01*
X32880043Y-11923010D01*
X33067645Y-11923010D01*
X33288171Y-11831666D01*
X33456954Y-11662883D01*
X33548298Y-11442357D01*
X33548298Y-11203663D01*
X33456954Y-10983137D01*
X33288171Y-10814354D01*
X33067645Y-10723010D01*
X32828951Y-10723010D01*
X32608425Y-10814354D01*
X32439642Y-10983137D01*
X32348298Y-11203663D01*
X32348298Y-11391265D01*
X29193064Y-14546500D01*
X28229655Y-14546500D01*
X32834685Y-9941470D01*
X33022288Y-9941470D01*
X33242814Y-9850126D01*
X33411597Y-9681343D01*
X33502941Y-9460817D01*
X33502941Y-9222123D01*
X33411597Y-9001597D01*
X33242814Y-8832814D01*
X33022288Y-8741470D01*
X32783594Y-8741470D01*
X32563068Y-8832814D01*
X32394285Y-9001597D01*
X32302941Y-9222123D01*
X32302941Y-9409726D01*
X27470178Y-14242489D01*
X9108169Y-14242489D01*
X6055995Y-11190315D01*
X6035017Y-11158919D01*
X5910644Y-11075816D01*
X5800967Y-11054000D01*
X5763936Y-11046634D01*
X5726905Y-11054000D01*
X4907738Y-11054000D01*
X4893276Y-10981293D01*
X4639103Y-10600897D01*
X4258707Y-10346724D01*
X3923261Y-10280000D01*
X3696739Y-10280000D01*
X3361293Y-10346724D01*
X2980897Y-10600897D01*
X2789000Y-10888091D01*
X2789000Y-10442744D01*
X3299654Y-9932090D01*
X3361293Y-9973276D01*
X3696739Y-10040000D01*
X3923261Y-10040000D01*
X4258707Y-9973276D01*
X4639103Y-9719103D01*
X4893276Y-9338707D01*
X4982529Y-8890000D01*
X4893276Y-8441293D01*
X4639103Y-8060897D01*
X4607829Y-8040000D01*
X5194123Y-8040000D01*
X5194123Y-9740000D01*
X5217407Y-9857054D01*
X5283712Y-9956288D01*
X5382946Y-10022593D01*
X5500000Y-10045877D01*
X7200000Y-10045877D01*
X7317054Y-10022593D01*
X7416288Y-9956288D01*
X7482593Y-9857054D01*
X7505877Y-9740000D01*
X7505877Y-9575621D01*
X11695443Y-13765188D01*
X11716419Y-13796581D01*
X11840792Y-13879684D01*
X11987500Y-13908866D01*
X12024531Y-13901500D01*
X24981969Y-13901500D01*
X25019000Y-13908866D01*
X25056031Y-13901500D01*
X25165708Y-13879684D01*
X25290081Y-13796581D01*
X25311059Y-13765185D01*
X30856244Y-8220000D01*
X31043847Y-8220000D01*
X31264373Y-8128656D01*
X31433156Y-7959873D01*
X31524500Y-7739347D01*
X31524500Y-7500653D01*
X31433156Y-7280127D01*
X31264373Y-7111344D01*
X31043847Y-7020000D01*
X30805153Y-7020000D01*
X30584627Y-7111344D01*
X30415844Y-7280127D01*
X30324500Y-7500653D01*
X30324500Y-7688256D01*
X24863256Y-13149500D01*
X24513630Y-13149500D01*
X28274542Y-9388589D01*
X28462144Y-9388589D01*
X28682670Y-9297245D01*
X28851453Y-9128462D01*
X28942797Y-8907936D01*
X28942797Y-8669242D01*
X28851453Y-8448716D01*
X28682670Y-8279933D01*
X28462144Y-8188589D01*
X28223450Y-8188589D01*
X28174004Y-8209070D01*
X28131156Y-8105625D01*
X27962373Y-7936842D01*
X27741847Y-7845498D01*
X27503153Y-7845498D01*
X27282627Y-7936842D01*
X27113844Y-8105625D01*
X27022500Y-8326151D01*
X27022500Y-8564845D01*
X27113844Y-8785371D01*
X27218115Y-8889642D01*
X24291756Y-11816000D01*
X20084767Y-11816000D01*
X19994147Y-11597223D01*
X19698777Y-11301853D01*
X19312858Y-11142000D01*
X18895142Y-11142000D01*
X18683082Y-11229838D01*
X16374637Y-8921393D01*
X16447156Y-8848873D01*
X16538500Y-8628347D01*
X16538500Y-8389653D01*
X16447156Y-8169127D01*
X16278373Y-8000344D01*
X16057847Y-7909000D01*
X15819153Y-7909000D01*
X15598627Y-8000344D01*
X15429844Y-8169127D01*
X15338500Y-8389653D01*
X15338500Y-8628347D01*
X15429844Y-8848873D01*
X15562241Y-8981270D01*
X15555134Y-9017000D01*
X15562500Y-9054030D01*
X15584316Y-9163707D01*
X15667419Y-9288081D01*
X15698815Y-9309059D01*
X18147403Y-11757647D01*
X18054000Y-11983142D01*
X18054000Y-12400858D01*
X18213853Y-12786777D01*
X18259076Y-12832000D01*
X15395745Y-12832000D01*
X15183380Y-12619635D01*
X15274000Y-12400858D01*
X15274000Y-11983142D01*
X15114147Y-11597223D01*
X14818777Y-11301853D01*
X14432858Y-11142000D01*
X14015142Y-11142000D01*
X13796365Y-11232620D01*
X12250500Y-9686756D01*
X12250500Y-8981529D01*
X12383156Y-8848873D01*
X12474500Y-8628347D01*
X12474500Y-8389653D01*
X12383156Y-8169127D01*
X12214373Y-8000344D01*
X11993847Y-7909000D01*
X11755153Y-7909000D01*
X11534627Y-8000344D01*
X11365844Y-8169127D01*
X11274500Y-8389653D01*
X11274500Y-8628347D01*
X11365844Y-8848873D01*
X11498500Y-8981529D01*
X11498501Y-9805464D01*
X11491134Y-9842500D01*
X11520316Y-9989207D01*
X11538694Y-10016711D01*
X11603420Y-10113581D01*
X11634813Y-10134557D01*
X13264620Y-11764365D01*
X13174000Y-11983142D01*
X13174000Y-12400858D01*
X13333853Y-12786777D01*
X13629223Y-13082147D01*
X13791827Y-13149500D01*
X12143245Y-13149500D01*
X7644059Y-8650315D01*
X7623081Y-8618919D01*
X7505877Y-8540606D01*
X7505877Y-8040000D01*
X7482593Y-7922946D01*
X7416288Y-7823712D01*
X7317054Y-7757407D01*
X7200000Y-7734123D01*
X5500000Y-7734123D01*
X5382946Y-7757407D01*
X5283712Y-7823712D01*
X5217407Y-7922946D01*
X5194123Y-8040000D01*
X4607829Y-8040000D01*
X4258707Y-7806724D01*
X3923261Y-7740000D01*
X3696739Y-7740000D01*
X3361293Y-7806724D01*
X2980897Y-8060897D01*
X2726724Y-8441293D01*
X2637471Y-8890000D01*
X2726724Y-9338707D01*
X2767910Y-9400346D01*
X2173315Y-9994941D01*
X2141919Y-10015919D01*
X2097641Y-10082187D01*
X2058816Y-10140293D01*
X2029634Y-10287000D01*
X375000Y-10287000D01*
X375000Y-5500000D01*
X2654123Y-5500000D01*
X2654123Y-7200000D01*
X2677407Y-7317054D01*
X2743712Y-7416288D01*
X2842946Y-7482593D01*
X2960000Y-7505877D01*
X4660000Y-7505877D01*
X4777054Y-7482593D01*
X4876288Y-7416288D01*
X4942593Y-7317054D01*
X4965877Y-7200000D01*
X4965877Y-6850000D01*
X5300997Y-6850000D01*
X5520897Y-7179103D01*
X5901293Y-7433276D01*
X6236739Y-7500000D01*
X6463261Y-7500000D01*
X6798707Y-7433276D01*
X7179103Y-7179103D01*
X7433276Y-6798707D01*
X7522529Y-6350000D01*
X7445311Y-5961796D01*
X8676737Y-4730370D01*
X18313500Y-4730370D01*
X18313500Y-5048630D01*
X18435293Y-5342664D01*
X18660336Y-5567707D01*
X18954370Y-5689500D01*
X19272630Y-5689500D01*
X19349794Y-5657538D01*
X21494267Y-7802011D01*
X20657755Y-7802011D01*
X19881538Y-7025794D01*
X19913500Y-6948630D01*
X19913500Y-6630370D01*
X19791707Y-6336336D01*
X19566664Y-6111293D01*
X19272630Y-5989500D01*
X18954370Y-5989500D01*
X18660336Y-6111293D01*
X18435293Y-6336336D01*
X18313500Y-6630370D01*
X18313500Y-6948630D01*
X18435293Y-7242664D01*
X18660336Y-7467707D01*
X18954370Y-7589500D01*
X19272630Y-7589500D01*
X19349794Y-7557538D01*
X20209952Y-8417696D01*
X20230930Y-8449092D01*
X20333324Y-8517509D01*
X20355303Y-8532195D01*
X20502010Y-8561377D01*
X20539041Y-8554011D01*
X25298394Y-8554011D01*
X25335425Y-8561377D01*
X25372456Y-8554011D01*
X25482133Y-8532195D01*
X25606506Y-8449092D01*
X25627484Y-8417696D01*
X26687173Y-7358007D01*
X27459234Y-7358007D01*
X27591890Y-7490663D01*
X27812416Y-7582007D01*
X28051110Y-7582007D01*
X28119422Y-7553712D01*
X28129844Y-7578873D01*
X28298627Y-7747656D01*
X28519153Y-7839000D01*
X28757847Y-7839000D01*
X28978373Y-7747656D01*
X29147156Y-7578873D01*
X29238500Y-7358347D01*
X29238500Y-7119653D01*
X29147156Y-6899127D01*
X29011711Y-6763682D01*
X28992684Y-6668028D01*
X28930557Y-6575048D01*
X28909581Y-6543655D01*
X28878188Y-6522679D01*
X28465823Y-6110315D01*
X28444845Y-6078919D01*
X28320472Y-5995816D01*
X28210795Y-5974000D01*
X28173764Y-5966634D01*
X28136733Y-5974000D01*
X26770529Y-5974000D01*
X26733499Y-5966634D01*
X26696469Y-5974000D01*
X26586792Y-5995816D01*
X26462419Y-6078919D01*
X26441441Y-6110315D01*
X25053756Y-7498000D01*
X22253744Y-7498000D01*
X19881538Y-5125794D01*
X19913500Y-5048630D01*
X19913500Y-4730370D01*
X19791707Y-4436336D01*
X19566664Y-4211293D01*
X19272630Y-4089500D01*
X18954370Y-4089500D01*
X18660336Y-4211293D01*
X18435293Y-4436336D01*
X18313500Y-4730370D01*
X8676737Y-4730370D01*
X9478107Y-3929000D01*
X22970394Y-3929000D01*
X23868625Y-4827232D01*
X23896520Y-4868980D01*
X24000929Y-4938743D01*
X24061910Y-4979489D01*
X24257000Y-5018296D01*
X24306246Y-5008500D01*
X25145393Y-5008500D01*
X23895894Y-6258000D01*
X23883653Y-6258000D01*
X23663127Y-6349344D01*
X23494344Y-6518127D01*
X23403000Y-6738653D01*
X23403000Y-6977347D01*
X23494344Y-7197873D01*
X23663127Y-7366656D01*
X23883653Y-7458000D01*
X24122347Y-7458000D01*
X24342873Y-7366656D01*
X24511656Y-7197873D01*
X24603000Y-6977347D01*
X24603000Y-6965106D01*
X26290233Y-5277874D01*
X26331980Y-5249980D01*
X26442489Y-5084590D01*
X26457624Y-5008500D01*
X30463394Y-5008500D01*
X35713394Y-10258500D01*
X35631153Y-10258500D01*
X35410627Y-10349844D01*
X35241844Y-10518627D01*
X35150500Y-10739153D01*
X35150500Y-10977847D01*
X35241844Y-11198373D01*
X35410627Y-11367156D01*
X35631153Y-11458500D01*
X35869847Y-11458500D01*
X36090373Y-11367156D01*
X36259156Y-11198373D01*
X36350500Y-10977847D01*
X36350500Y-10823500D01*
X36504847Y-10823500D01*
X36725373Y-10732156D01*
X36894156Y-10563373D01*
X36925250Y-10488305D01*
X36956344Y-10563373D01*
X37125127Y-10732156D01*
X37345653Y-10823500D01*
X37584347Y-10823500D01*
X37804873Y-10732156D01*
X37973656Y-10563373D01*
X38065000Y-10342847D01*
X38065000Y-10104153D01*
X37973656Y-9883627D01*
X37965000Y-9874971D01*
X37965000Y-9175029D01*
X37973656Y-9166373D01*
X38065000Y-8945847D01*
X38065000Y-8707153D01*
X37973656Y-8486627D01*
X37804873Y-8317844D01*
X37584347Y-8226500D01*
X37345653Y-8226500D01*
X37125127Y-8317844D01*
X37116471Y-8326500D01*
X36275107Y-8326500D01*
X31950037Y-4001431D01*
X32032500Y-3802347D01*
X32032500Y-3563653D01*
X31941156Y-3343127D01*
X31772373Y-3174344D01*
X31551847Y-3083000D01*
X31313153Y-3083000D01*
X31092627Y-3174344D01*
X30923844Y-3343127D01*
X30832500Y-3563653D01*
X30832500Y-3802347D01*
X30923844Y-4022873D01*
X30932500Y-4031529D01*
X30932500Y-4082219D01*
X30865590Y-4037511D01*
X30719743Y-4008500D01*
X30719741Y-4008500D01*
X30670500Y-3998705D01*
X30621259Y-4008500D01*
X26320029Y-4008500D01*
X26311373Y-3999844D01*
X26090847Y-3908500D01*
X25852153Y-3908500D01*
X25631627Y-3999844D01*
X25622971Y-4008500D01*
X24464107Y-4008500D01*
X23565876Y-3110270D01*
X23537980Y-3068520D01*
X23372590Y-2958011D01*
X23226743Y-2929000D01*
X23226741Y-2929000D01*
X23177500Y-2919205D01*
X23128259Y-2929000D01*
X9320243Y-2929000D01*
X9271000Y-2919205D01*
X9221757Y-2929000D01*
X9075910Y-2958011D01*
X8910520Y-3068520D01*
X8882625Y-3110268D01*
X6738204Y-5254689D01*
X6463261Y-5200000D01*
X6236739Y-5200000D01*
X5901293Y-5266724D01*
X5520897Y-5520897D01*
X5300997Y-5850000D01*
X4965877Y-5850000D01*
X4965877Y-5500000D01*
X4942593Y-5382946D01*
X4876288Y-5283712D01*
X4777054Y-5217407D01*
X4660000Y-5194123D01*
X2960000Y-5194123D01*
X2842946Y-5217407D01*
X2743712Y-5283712D01*
X2677407Y-5382946D01*
X2654123Y-5500000D01*
X375000Y-5500000D01*
X375000Y-2520000D01*
X1120000Y-2520000D01*
X1220000Y-2420000D01*
X1220000Y-1320000D01*
X1320000Y-1320000D01*
X1320000Y-2420000D01*
X1420000Y-2520000D01*
X2199565Y-2520000D01*
X2346582Y-2459104D01*
X2459104Y-2346582D01*
X2520000Y-2199565D01*
X2520000Y-1420000D01*
X2420000Y-1320000D01*
X1320000Y-1320000D01*
X1220000Y-1320000D01*
X1200000Y-1320000D01*
X1200000Y-1220000D01*
X1220000Y-1220000D01*
X1220000Y-1200000D01*
X1320000Y-1200000D01*
X1320000Y-1220000D01*
X2420000Y-1220000D01*
X2520000Y-1120000D01*
X2520000Y-375000D01*
X3079519Y-375000D01*
X2980897Y-440897D01*
X2980897Y-440897D01*
G37*
X2980897Y-440897D02*
X2726724Y-821293D01*
X2637471Y-1270000D01*
X2726724Y-1718707D01*
X2980897Y-2099103D01*
X3361293Y-2353276D01*
X3696739Y-2420000D01*
X3923261Y-2420000D01*
X4258707Y-2353276D01*
X4639103Y-2099103D01*
X4893276Y-1718707D01*
X4982529Y-1270000D01*
X4893276Y-821293D01*
X4639103Y-440897D01*
X4540481Y-375000D01*
X5619519Y-375000D01*
X5520897Y-440897D01*
X5266724Y-821293D01*
X5177471Y-1270000D01*
X5266724Y-1718707D01*
X5520897Y-2099103D01*
X5901293Y-2353276D01*
X6236739Y-2420000D01*
X6463261Y-2420000D01*
X6798707Y-2353276D01*
X7179103Y-2099103D01*
X7433276Y-1718707D01*
X7522529Y-1270000D01*
X7433276Y-821293D01*
X7179103Y-440897D01*
X7080481Y-375000D01*
X8159519Y-375000D01*
X8060897Y-440897D01*
X7806724Y-821293D01*
X7717471Y-1270000D01*
X7806724Y-1718707D01*
X8060897Y-2099103D01*
X8441293Y-2353276D01*
X8776739Y-2420000D01*
X9003261Y-2420000D01*
X9338707Y-2353276D01*
X9719103Y-2099103D01*
X9973276Y-1718707D01*
X10062529Y-1270000D01*
X9973276Y-821293D01*
X9719103Y-440897D01*
X9620481Y-375000D01*
X10699519Y-375000D01*
X10600897Y-440897D01*
X10346724Y-821293D01*
X10257471Y-1270000D01*
X10346724Y-1718707D01*
X10600897Y-2099103D01*
X10981293Y-2353276D01*
X11316739Y-2420000D01*
X11543261Y-2420000D01*
X11878707Y-2353276D01*
X12259103Y-2099103D01*
X12513276Y-1718707D01*
X12602529Y-1270000D01*
X12513276Y-821293D01*
X12259103Y-440897D01*
X12160481Y-375000D01*
X13239519Y-375000D01*
X13140897Y-440897D01*
X12886724Y-821293D01*
X12797471Y-1270000D01*
X12886724Y-1718707D01*
X13140897Y-2099103D01*
X13521293Y-2353276D01*
X13856739Y-2420000D01*
X14083261Y-2420000D01*
X14418707Y-2353276D01*
X14799103Y-2099103D01*
X15053276Y-1718707D01*
X15142529Y-1270000D01*
X15053276Y-821293D01*
X14799103Y-440897D01*
X14700481Y-375000D01*
X15779519Y-375000D01*
X15680897Y-440897D01*
X15426724Y-821293D01*
X15337471Y-1270000D01*
X15426724Y-1718707D01*
X15680897Y-2099103D01*
X16061293Y-2353276D01*
X16396739Y-2420000D01*
X16623261Y-2420000D01*
X16958707Y-2353276D01*
X17339103Y-2099103D01*
X17593276Y-1718707D01*
X17682529Y-1270000D01*
X17593276Y-821293D01*
X17339103Y-440897D01*
X17240481Y-375000D01*
X18319519Y-375000D01*
X18220897Y-440897D01*
X17966724Y-821293D01*
X17877471Y-1270000D01*
X17966724Y-1718707D01*
X18220897Y-2099103D01*
X18601293Y-2353276D01*
X18936739Y-2420000D01*
X19163261Y-2420000D01*
X19498707Y-2353276D01*
X19879103Y-2099103D01*
X20133276Y-1718707D01*
X20222529Y-1270000D01*
X20133276Y-821293D01*
X19879103Y-440897D01*
X19780481Y-375000D01*
X20859519Y-375000D01*
X20760897Y-440897D01*
X20506724Y-821293D01*
X20417471Y-1270000D01*
X20506724Y-1718707D01*
X20760897Y-2099103D01*
X21141293Y-2353276D01*
X21476739Y-2420000D01*
X21703261Y-2420000D01*
X22038707Y-2353276D01*
X22419103Y-2099103D01*
X22673276Y-1718707D01*
X22762529Y-1270000D01*
X22673276Y-821293D01*
X22419103Y-440897D01*
X22320481Y-375000D01*
X23399519Y-375000D01*
X23300897Y-440897D01*
X23046724Y-821293D01*
X22957471Y-1270000D01*
X23046724Y-1718707D01*
X23300897Y-2099103D01*
X23681293Y-2353276D01*
X24016739Y-2420000D01*
X24243261Y-2420000D01*
X24578707Y-2353276D01*
X24959103Y-2099103D01*
X25213276Y-1718707D01*
X25302529Y-1270000D01*
X25213276Y-821293D01*
X24959103Y-440897D01*
X24860481Y-375000D01*
X25939519Y-375000D01*
X25840897Y-440897D01*
X25586724Y-821293D01*
X25497471Y-1270000D01*
X25586724Y-1718707D01*
X25840897Y-2099103D01*
X26221293Y-2353276D01*
X26556739Y-2420000D01*
X26783261Y-2420000D01*
X27118707Y-2353276D01*
X27499103Y-2099103D01*
X27753276Y-1718707D01*
X27842529Y-1270000D01*
X27753276Y-821293D01*
X27499103Y-440897D01*
X27400481Y-375000D01*
X28479519Y-375000D01*
X28380897Y-440897D01*
X28126724Y-821293D01*
X28037471Y-1270000D01*
X28126724Y-1718707D01*
X28380897Y-2099103D01*
X28761293Y-2353276D01*
X29096739Y-2420000D01*
X29323261Y-2420000D01*
X29658707Y-2353276D01*
X30039103Y-2099103D01*
X30293276Y-1718707D01*
X30382529Y-1270000D01*
X30293276Y-821293D01*
X30039103Y-440897D01*
X29940481Y-375000D01*
X31019519Y-375000D01*
X30920897Y-440897D01*
X30666724Y-821293D01*
X30577471Y-1270000D01*
X30666724Y-1718707D01*
X30920897Y-2099103D01*
X31301293Y-2353276D01*
X31636739Y-2420000D01*
X31863261Y-2420000D01*
X32198707Y-2353276D01*
X32579103Y-2099103D01*
X32833276Y-1718707D01*
X32922529Y-1270000D01*
X32833276Y-821293D01*
X32579103Y-440897D01*
X32480481Y-375000D01*
X33559519Y-375000D01*
X33460897Y-440897D01*
X33206724Y-821293D01*
X33117471Y-1270000D01*
X33206724Y-1718707D01*
X33460897Y-2099103D01*
X33841293Y-2353276D01*
X34176739Y-2420000D01*
X34403261Y-2420000D01*
X34738707Y-2353276D01*
X35119103Y-2099103D01*
X35373276Y-1718707D01*
X35462529Y-1270000D01*
X35373276Y-821293D01*
X35119103Y-440897D01*
X35020481Y-375000D01*
X36099519Y-375000D01*
X36000897Y-440897D01*
X35746724Y-821293D01*
X35657471Y-1270000D01*
X35746724Y-1718707D01*
X36000897Y-2099103D01*
X36381293Y-2353276D01*
X36716739Y-2420000D01*
X36943261Y-2420000D01*
X37278707Y-2353276D01*
X37659103Y-2099103D01*
X37913276Y-1718707D01*
X38002529Y-1270000D01*
X37913276Y-821293D01*
X37659103Y-440897D01*
X37560481Y-375000D01*
X38639519Y-375000D01*
X38540897Y-440897D01*
X38286724Y-821293D01*
X38197471Y-1270000D01*
X38286724Y-1718707D01*
X38540897Y-2099103D01*
X38921293Y-2353276D01*
X39256739Y-2420000D01*
X39483261Y-2420000D01*
X39818707Y-2353276D01*
X40199103Y-2099103D01*
X40453276Y-1718707D01*
X40542529Y-1270000D01*
X40453276Y-821293D01*
X40199103Y-440897D01*
X40100481Y-375000D01*
X41179519Y-375000D01*
X41080897Y-440897D01*
X40826724Y-821293D01*
X40737471Y-1270000D01*
X40826724Y-1718707D01*
X41080897Y-2099103D01*
X41461293Y-2353276D01*
X41796739Y-2420000D01*
X42023261Y-2420000D01*
X42358707Y-2353276D01*
X42739103Y-2099103D01*
X42993276Y-1718707D01*
X43082529Y-1270000D01*
X42993276Y-821293D01*
X42739103Y-440897D01*
X42640481Y-375000D01*
X43719519Y-375000D01*
X43620897Y-440897D01*
X43366724Y-821293D01*
X43277471Y-1270000D01*
X43366724Y-1718707D01*
X43620897Y-2099103D01*
X44001293Y-2353276D01*
X44336739Y-2420000D01*
X44563261Y-2420000D01*
X44898707Y-2353276D01*
X45279103Y-2099103D01*
X45533276Y-1718707D01*
X45622529Y-1270000D01*
X45533276Y-821293D01*
X45279103Y-440897D01*
X45180481Y-375000D01*
X46259519Y-375000D01*
X46160897Y-440897D01*
X45906724Y-821293D01*
X45817471Y-1270000D01*
X45906724Y-1718707D01*
X46160897Y-2099103D01*
X46541293Y-2353276D01*
X46741001Y-2393000D01*
X46741000Y-8353971D01*
X46608344Y-8486627D01*
X46517000Y-8707153D01*
X46517000Y-8945847D01*
X46608344Y-9166373D01*
X46777127Y-9335156D01*
X46997653Y-9426500D01*
X47236347Y-9426500D01*
X47456873Y-9335156D01*
X47625656Y-9166373D01*
X47717000Y-8945847D01*
X47717000Y-8707153D01*
X47625656Y-8486627D01*
X47493000Y-8353971D01*
X47493000Y-2316999D01*
X47819103Y-2099103D01*
X48073276Y-1718707D01*
X48162529Y-1270000D01*
X48073276Y-821293D01*
X47819103Y-440897D01*
X47720481Y-375000D01*
X48799519Y-375000D01*
X48700897Y-440897D01*
X48446724Y-821293D01*
X48357471Y-1270000D01*
X48446724Y-1718707D01*
X48700897Y-2099103D01*
X49081293Y-2353276D01*
X49416739Y-2420000D01*
X49643261Y-2420000D01*
X49978707Y-2353276D01*
X50359103Y-2099103D01*
X50613276Y-1718707D01*
X50702529Y-1270000D01*
X50613276Y-821293D01*
X50359103Y-440897D01*
X50260481Y-375000D01*
X51339519Y-375000D01*
X51240897Y-440897D01*
X50986724Y-821293D01*
X50897471Y-1270000D01*
X50986724Y-1718707D01*
X51240897Y-2099103D01*
X51570000Y-2319003D01*
X51570001Y-7202156D01*
X47651658Y-11120500D01*
X47529035Y-11120500D01*
X47520379Y-11111844D01*
X47299853Y-11020500D01*
X47061159Y-11020500D01*
X46840633Y-11111844D01*
X46671850Y-11280627D01*
X46580506Y-11501153D01*
X46580506Y-11739847D01*
X46671850Y-11960373D01*
X46840633Y-12129156D01*
X47061159Y-12220500D01*
X47299853Y-12220500D01*
X47520379Y-12129156D01*
X47529035Y-12120500D01*
X47809523Y-12120500D01*
X47858764Y-12130295D01*
X47908005Y-12120500D01*
X47908007Y-12120500D01*
X48053854Y-12091489D01*
X48219244Y-11980980D01*
X48247141Y-11939229D01*
X49465491Y-10720879D01*
X51173331Y-10720879D01*
X51244378Y-10902482D01*
X51658601Y-11071960D01*
X52106149Y-11070020D01*
X52510622Y-10902482D01*
X52581669Y-10720879D01*
X51877500Y-10016711D01*
X51173331Y-10720879D01*
X49465491Y-10720879D01*
X50459269Y-9727101D01*
X50751540Y-9727101D01*
X50753480Y-10174649D01*
X50921018Y-10579122D01*
X51102621Y-10650169D01*
X51806789Y-9946000D01*
X51948211Y-9946000D01*
X52652379Y-10650169D01*
X52833982Y-10579122D01*
X53003460Y-10164899D01*
X53001520Y-9717351D01*
X52833982Y-9312878D01*
X52652379Y-9241831D01*
X51948211Y-9946000D01*
X51806789Y-9946000D01*
X51102621Y-9241831D01*
X50921018Y-9312878D01*
X50751540Y-9727101D01*
X50459269Y-9727101D01*
X51015249Y-9171121D01*
X51173331Y-9171121D01*
X51877500Y-9875289D01*
X52581669Y-9171121D01*
X52574041Y-9151623D01*
X53248869Y-9151623D01*
X53284487Y-9282489D01*
X53485038Y-9617751D01*
X53798623Y-9850745D01*
X54177500Y-9946000D01*
X54527500Y-9946000D01*
X54527500Y-8996000D01*
X53328890Y-8996000D01*
X53248869Y-9151623D01*
X52574041Y-9151623D01*
X52510622Y-8989518D01*
X52096399Y-8820040D01*
X51648851Y-8821980D01*
X51244378Y-8989518D01*
X51173331Y-9171121D01*
X51015249Y-9171121D01*
X51445993Y-8740377D01*
X53248869Y-8740377D01*
X53328890Y-8896000D01*
X54527500Y-8896000D01*
X54527500Y-7946000D01*
X54177500Y-7946000D01*
X53798623Y-8041255D01*
X53485038Y-8274249D01*
X53284487Y-8609511D01*
X53248869Y-8740377D01*
X51445993Y-8740377D01*
X52388732Y-7797639D01*
X52430480Y-7769744D01*
X52540989Y-7604354D01*
X52570000Y-7458507D01*
X52570000Y-7458506D01*
X52579795Y-7409265D01*
X52570000Y-7360023D01*
X52570000Y-2319003D01*
X52899103Y-2099103D01*
X53153276Y-1718707D01*
X53193841Y-1514772D01*
X53384195Y-1514772D01*
X53571174Y-1965235D01*
X53916305Y-2309855D01*
X54365229Y-2495801D01*
X54560000Y-2418913D01*
X54560000Y-1320000D01*
X53460996Y-1320000D01*
X53384195Y-1514772D01*
X53193841Y-1514772D01*
X53242529Y-1270000D01*
X53153276Y-821293D01*
X52899103Y-440897D01*
X52800481Y-375000D01*
X53771235Y-375000D01*
X53571174Y-574765D01*
X53384195Y-1025228D01*
X53460996Y-1220000D01*
X54560000Y-1220000D01*
X54560000Y-1200000D01*
X54660000Y-1200000D01*
X54660000Y-1220000D01*
X54680000Y-1220000D01*
X54680000Y-1320000D01*
X54660000Y-1320000D01*
X54660000Y-2418913D01*
X54854771Y-2495801D01*
X55303695Y-2309855D01*
X55505000Y-2108848D01*
X55505000Y-8151682D01*
X55356377Y-8041255D01*
X54977500Y-7946000D01*
X54627500Y-7946000D01*
X54627500Y-8896000D01*
X54647500Y-8896000D01*
X54647500Y-8996000D01*
X54627500Y-8996000D01*
X54627500Y-9946000D01*
X54977500Y-9946000D01*
X55356377Y-9850745D01*
X55505000Y-9740318D01*
X55505001Y-15151683D01*
X55356377Y-15041255D01*
X54977500Y-14946000D01*
X54627500Y-14946000D01*
X54627500Y-15896000D01*
X54647500Y-15896000D01*
X54647500Y-15996000D01*
X54627500Y-15996000D01*
X54627500Y-16946000D01*
X54977500Y-16946000D01*
X55356377Y-16850745D01*
X55505001Y-16740317D01*
X55505001Y-18211153D01*
X55303695Y-18010145D01*
X54854771Y-17824199D01*
X54660000Y-17901087D01*
X54660000Y-19000000D01*
X54680000Y-19000000D01*
X54680000Y-19100000D01*
X54660000Y-19100000D01*
X54660000Y-19120000D01*
X54560000Y-19120000D01*
X54560000Y-19100000D01*
X53460996Y-19100000D01*
X53384195Y-19294772D01*
X53571174Y-19745235D01*
X53771235Y-19945000D01*
X52800481Y-19945000D01*
X52899103Y-19879103D01*
X53153276Y-19498707D01*
X53242529Y-19050000D01*
X53193842Y-18805228D01*
X53384195Y-18805228D01*
X53460996Y-19000000D01*
X54560000Y-19000000D01*
X54560000Y-17901087D01*
X54365229Y-17824199D01*
X53916305Y-18010145D01*
X53571174Y-18354765D01*
X53384195Y-18805228D01*
X53193842Y-18805228D01*
X53153276Y-18601293D01*
X52899103Y-18220897D01*
X52518707Y-17966724D01*
X52183261Y-17900000D01*
X51956739Y-17900000D01*
X51621293Y-17966724D01*
X51240897Y-18220897D01*
X50986724Y-18601293D01*
X50897471Y-19050000D01*
X50986724Y-19498707D01*
X51240897Y-19879103D01*
X51339519Y-19945000D01*
X50260481Y-19945000D01*
X50359103Y-19879103D01*
X50613276Y-19498707D01*
X50702529Y-19050000D01*
X50613276Y-18601293D01*
X50359103Y-18220897D01*
X49978707Y-17966724D01*
X49643261Y-17900000D01*
X49416739Y-17900000D01*
X49081293Y-17966724D01*
X48700897Y-18220897D01*
X48446724Y-18601293D01*
X48357471Y-19050000D01*
X48446724Y-19498707D01*
X48700897Y-19879103D01*
X48799519Y-19945000D01*
X47720481Y-19945000D01*
X47819103Y-19879103D01*
X48073276Y-19498707D01*
X48162529Y-19050000D01*
X48073276Y-18601293D01*
X47819103Y-18220897D01*
X47438707Y-17966724D01*
X47103261Y-17900000D01*
X46876739Y-17900000D01*
X46541293Y-17966724D01*
X46160897Y-18220897D01*
X45906724Y-18601293D01*
X45817471Y-19050000D01*
X45906724Y-19498707D01*
X46160897Y-19879103D01*
X46259519Y-19945000D01*
X45180481Y-19945000D01*
X45279103Y-19879103D01*
X45533276Y-19498707D01*
X45622529Y-19050000D01*
X45533276Y-18601293D01*
X45279103Y-18220897D01*
X44898707Y-17966724D01*
X44563261Y-17900000D01*
X44336739Y-17900000D01*
X44001293Y-17966724D01*
X43620897Y-18220897D01*
X43366724Y-18601293D01*
X43277471Y-19050000D01*
X43366724Y-19498707D01*
X43620897Y-19879103D01*
X43719519Y-19945000D01*
X42640481Y-19945000D01*
X42739103Y-19879103D01*
X42993276Y-19498707D01*
X43082529Y-19050000D01*
X42993276Y-18601293D01*
X42739103Y-18220897D01*
X42358707Y-17966724D01*
X42023261Y-17900000D01*
X41796739Y-17900000D01*
X41461293Y-17966724D01*
X41080897Y-18220897D01*
X40826724Y-18601293D01*
X40737471Y-19050000D01*
X40826724Y-19498707D01*
X41080897Y-19879103D01*
X41179519Y-19945000D01*
X40100481Y-19945000D01*
X40199103Y-19879103D01*
X40453276Y-19498707D01*
X40542529Y-19050000D01*
X40453276Y-18601293D01*
X40199103Y-18220897D01*
X39818707Y-17966724D01*
X39483261Y-17900000D01*
X39256739Y-17900000D01*
X38921293Y-17966724D01*
X38540897Y-18220897D01*
X38286724Y-18601293D01*
X38197471Y-19050000D01*
X38286724Y-19498707D01*
X38540897Y-19879103D01*
X38639519Y-19945000D01*
X37560481Y-19945000D01*
X37659103Y-19879103D01*
X37913276Y-19498707D01*
X38002529Y-19050000D01*
X37913276Y-18601293D01*
X37659103Y-18220897D01*
X37278707Y-17966724D01*
X36943261Y-17900000D01*
X36716739Y-17900000D01*
X36381293Y-17966724D01*
X36000897Y-18220897D01*
X35746724Y-18601293D01*
X35657471Y-19050000D01*
X35746724Y-19498707D01*
X36000897Y-19879103D01*
X36099519Y-19945000D01*
X35020481Y-19945000D01*
X35119103Y-19879103D01*
X35373276Y-19498707D01*
X35462529Y-19050000D01*
X35373276Y-18601293D01*
X35119103Y-18220897D01*
X34738707Y-17966724D01*
X34403261Y-17900000D01*
X34176739Y-17900000D01*
X33841293Y-17966724D01*
X33460897Y-18220897D01*
X33206724Y-18601293D01*
X33117471Y-19050000D01*
X33206724Y-19498707D01*
X33460897Y-19879103D01*
X33559519Y-19945000D01*
X32480481Y-19945000D01*
X32579103Y-19879103D01*
X32833276Y-19498707D01*
X32922529Y-19050000D01*
X32833276Y-18601293D01*
X32579103Y-18220897D01*
X32198707Y-17966724D01*
X31863261Y-17900000D01*
X31636739Y-17900000D01*
X31301293Y-17966724D01*
X30920897Y-18220897D01*
X30666724Y-18601293D01*
X30577471Y-19050000D01*
X30666724Y-19498707D01*
X30920897Y-19879103D01*
X31019519Y-19945000D01*
X29940481Y-19945000D01*
X30039103Y-19879103D01*
X30293276Y-19498707D01*
X30382529Y-19050000D01*
X30293276Y-18601293D01*
X30039103Y-18220897D01*
X29658707Y-17966724D01*
X29323261Y-17900000D01*
X29096739Y-17900000D01*
X28761293Y-17966724D01*
X28380897Y-18220897D01*
X28126724Y-18601293D01*
X28037471Y-19050000D01*
X28126724Y-19498707D01*
X28380897Y-19879103D01*
X28479519Y-19945000D01*
X27400481Y-19945000D01*
X27499103Y-19879103D01*
X27753276Y-19498707D01*
X27842529Y-19050000D01*
X27753276Y-18601293D01*
X27499103Y-18220897D01*
X27118707Y-17966724D01*
X26783261Y-17900000D01*
X26556739Y-17900000D01*
X26221293Y-17966724D01*
X25840897Y-18220897D01*
X25586724Y-18601293D01*
X25497471Y-19050000D01*
X25586724Y-19498707D01*
X25840897Y-19879103D01*
X25939519Y-19945000D01*
X24860481Y-19945000D01*
X24959103Y-19879103D01*
X25213276Y-19498707D01*
X25302529Y-19050000D01*
X25213276Y-18601293D01*
X24959103Y-18220897D01*
X24578707Y-17966724D01*
X24243261Y-17900000D01*
X24016739Y-17900000D01*
X23681293Y-17966724D01*
X23300897Y-18220897D01*
X23046724Y-18601293D01*
X22957471Y-19050000D01*
X23046724Y-19498707D01*
X23300897Y-19879103D01*
X23399519Y-19945000D01*
X22320481Y-19945000D01*
X22419103Y-19879103D01*
X22673276Y-19498707D01*
X22762529Y-19050000D01*
X22673276Y-18601293D01*
X22419103Y-18220897D01*
X22038707Y-17966724D01*
X21703261Y-17900000D01*
X21476739Y-17900000D01*
X21141293Y-17966724D01*
X20760897Y-18220897D01*
X20506724Y-18601293D01*
X20417471Y-19050000D01*
X20506724Y-19498707D01*
X20760897Y-19879103D01*
X20859519Y-19945000D01*
X19780481Y-19945000D01*
X19879103Y-19879103D01*
X20133276Y-19498707D01*
X20222529Y-19050000D01*
X20133276Y-18601293D01*
X19879103Y-18220897D01*
X19498707Y-17966724D01*
X19163261Y-17900000D01*
X18936739Y-17900000D01*
X18601293Y-17966724D01*
X18220897Y-18220897D01*
X17966724Y-18601293D01*
X17877471Y-19050000D01*
X17966724Y-19498707D01*
X18220897Y-19879103D01*
X18319519Y-19945000D01*
X17240481Y-19945000D01*
X17339103Y-19879103D01*
X17593276Y-19498707D01*
X17682529Y-19050000D01*
X17593276Y-18601293D01*
X17339103Y-18220897D01*
X16958707Y-17966724D01*
X16623261Y-17900000D01*
X16396739Y-17900000D01*
X16061293Y-17966724D01*
X15680897Y-18220897D01*
X15426724Y-18601293D01*
X15337471Y-19050000D01*
X15426724Y-19498707D01*
X15680897Y-19879103D01*
X15779519Y-19945000D01*
X14700481Y-19945000D01*
X14799103Y-19879103D01*
X15053276Y-19498707D01*
X15142529Y-19050000D01*
X15053276Y-18601293D01*
X14799103Y-18220897D01*
X14418707Y-17966724D01*
X14083261Y-17900000D01*
X13856739Y-17900000D01*
X13521293Y-17966724D01*
X13140897Y-18220897D01*
X12886724Y-18601293D01*
X12797471Y-19050000D01*
X12886724Y-19498707D01*
X13140897Y-19879103D01*
X13239519Y-19945000D01*
X12160481Y-19945000D01*
X12259103Y-19879103D01*
X12513276Y-19498707D01*
X12602529Y-19050000D01*
X12513276Y-18601293D01*
X12259103Y-18220897D01*
X11878707Y-17966724D01*
X11543261Y-17900000D01*
X11316739Y-17900000D01*
X10981293Y-17966724D01*
X10600897Y-18220897D01*
X10346724Y-18601293D01*
X10257471Y-19050000D01*
X10346724Y-19498707D01*
X10600897Y-19879103D01*
X10699519Y-19945000D01*
X9620481Y-19945000D01*
X9719103Y-19879103D01*
X9973276Y-19498707D01*
X10062529Y-19050000D01*
X9973276Y-18601293D01*
X9719103Y-18220897D01*
X9338707Y-17966724D01*
X9003261Y-17900000D01*
X8776739Y-17900000D01*
X8441293Y-17966724D01*
X8060897Y-18220897D01*
X7806724Y-18601293D01*
X7717471Y-19050000D01*
X7806724Y-19498707D01*
X8060897Y-19879103D01*
X8159519Y-19945000D01*
X7080481Y-19945000D01*
X7179103Y-19879103D01*
X7433276Y-19498707D01*
X7522529Y-19050000D01*
X7433276Y-18601293D01*
X7179103Y-18220897D01*
X6798707Y-17966724D01*
X6463261Y-17900000D01*
X6236739Y-17900000D01*
X5901293Y-17966724D01*
X5520897Y-18220897D01*
X5266724Y-18601293D01*
X5177471Y-19050000D01*
X5266724Y-19498707D01*
X5520897Y-19879103D01*
X5619519Y-19945000D01*
X4540481Y-19945000D01*
X4639103Y-19879103D01*
X4893276Y-19498707D01*
X4982529Y-19050000D01*
X4893276Y-18601293D01*
X4639103Y-18220897D01*
X4258707Y-17966724D01*
X3923261Y-17900000D01*
X3696739Y-17900000D01*
X3361293Y-17966724D01*
X2980897Y-18220897D01*
X2726724Y-18601293D01*
X2637471Y-19050000D01*
X2726724Y-19498707D01*
X2980897Y-19879103D01*
X3079519Y-19945000D01*
X2520000Y-19945000D01*
X2520000Y-19200000D01*
X2420000Y-19100000D01*
X1320000Y-19100000D01*
X1320000Y-19120000D01*
X1220000Y-19120000D01*
X1220000Y-19100000D01*
X1200000Y-19100000D01*
X1200000Y-19000000D01*
X1220000Y-19000000D01*
X1220000Y-17900000D01*
X1320000Y-17900000D01*
X1320000Y-19000000D01*
X2420000Y-19000000D01*
X2520000Y-18900000D01*
X2520000Y-18120435D01*
X2459104Y-17973418D01*
X2346582Y-17860896D01*
X2199565Y-17800000D01*
X1420000Y-17800000D01*
X1320000Y-17900000D01*
X1220000Y-17900000D01*
X1120000Y-17800000D01*
X375000Y-17800000D01*
X375000Y-16116761D01*
X703990Y-16116761D01*
X703990Y-16395239D01*
X810558Y-16652518D01*
X1007472Y-16849432D01*
X1264751Y-16956000D01*
X1543229Y-16956000D01*
X1800508Y-16849432D01*
X1893940Y-16756000D01*
X36653759Y-16756000D01*
X36703000Y-16765795D01*
X36752241Y-16756000D01*
X36752243Y-16756000D01*
X36898090Y-16726989D01*
X37063480Y-16616480D01*
X37091377Y-16574729D01*
X42545000Y-11121107D01*
X47808143Y-16384250D01*
X47836038Y-16425998D01*
X48001428Y-16536507D01*
X48147275Y-16565518D01*
X48147276Y-16565518D01*
X48196517Y-16575313D01*
X48245758Y-16565518D01*
X50183050Y-16565518D01*
X50276482Y-16658950D01*
X50533761Y-16765518D01*
X50812239Y-16765518D01*
X51069518Y-16658950D01*
X51266432Y-16462036D01*
X51373000Y-16204757D01*
X51373000Y-16151623D01*
X53248869Y-16151623D01*
X53284487Y-16282489D01*
X53485038Y-16617751D01*
X53798623Y-16850745D01*
X54177500Y-16946000D01*
X54527500Y-16946000D01*
X54527500Y-15996000D01*
X53328890Y-15996000D01*
X53248869Y-16151623D01*
X51373000Y-16151623D01*
X51373000Y-15955107D01*
X51658601Y-16071960D01*
X52106149Y-16070020D01*
X52510622Y-15902482D01*
X52574040Y-15740377D01*
X53248869Y-15740377D01*
X53328890Y-15896000D01*
X54527500Y-15896000D01*
X54527500Y-14946000D01*
X54177500Y-14946000D01*
X53798623Y-15041255D01*
X53485038Y-15274249D01*
X53284487Y-15609511D01*
X53248869Y-15740377D01*
X52574040Y-15740377D01*
X52581669Y-15720879D01*
X51877500Y-15016711D01*
X51863358Y-15030853D01*
X51792647Y-14960142D01*
X51806789Y-14946000D01*
X51948211Y-14946000D01*
X52652379Y-15650169D01*
X52833982Y-15579122D01*
X53003460Y-15164899D01*
X53001520Y-14717351D01*
X52833982Y-14312878D01*
X52652379Y-14241831D01*
X51948211Y-14946000D01*
X51806789Y-14946000D01*
X51102621Y-14241831D01*
X50921018Y-14312878D01*
X50751540Y-14727101D01*
X50753480Y-15174649D01*
X50836745Y-15375669D01*
X50812239Y-15365518D01*
X50533761Y-15365518D01*
X50276482Y-15472086D01*
X50183050Y-15565518D01*
X48403625Y-15565518D01*
X47009228Y-14171121D01*
X51173331Y-14171121D01*
X51877500Y-14875289D01*
X52581669Y-14171121D01*
X52510622Y-13989518D01*
X52096399Y-13820040D01*
X51648851Y-13821980D01*
X51244378Y-13989518D01*
X51173331Y-14171121D01*
X47009228Y-14171121D01*
X43245000Y-10406894D01*
X43245000Y-10274761D01*
X43138432Y-10017482D01*
X42941518Y-9820568D01*
X42684239Y-9714000D01*
X42405761Y-9714000D01*
X42148482Y-9820568D01*
X41951568Y-10017482D01*
X41845000Y-10274761D01*
X41845000Y-10406893D01*
X36495894Y-15756000D01*
X1893940Y-15756000D01*
X1800508Y-15662568D01*
X1543229Y-15556000D01*
X1264751Y-15556000D01*
X1007472Y-15662568D01*
X810558Y-15859482D01*
X703990Y-16116761D01*
X375000Y-16116761D01*
X375000Y-14214771D01*
X2584199Y-14214771D01*
X2770145Y-14663695D01*
X3114765Y-15008826D01*
X3565228Y-15195805D01*
X3760000Y-15119004D01*
X3760000Y-14020000D01*
X3860000Y-14020000D01*
X3860000Y-15119004D01*
X4054772Y-15195805D01*
X4505235Y-15008826D01*
X4849855Y-14663695D01*
X5035801Y-14214771D01*
X4958913Y-14020000D01*
X3860000Y-14020000D01*
X3760000Y-14020000D01*
X2661087Y-14020000D01*
X2584199Y-14214771D01*
X375000Y-14214771D01*
X375000Y-10287000D01*
X2029634Y-10287000D01*
X2037000Y-10324031D01*
X2037001Y-11837464D01*
X2029634Y-11874500D01*
X2058816Y-12021207D01*
X2068562Y-12035793D01*
X2141920Y-12145581D01*
X2173313Y-12166557D01*
X2946441Y-12939685D01*
X2967419Y-12971081D01*
X3031898Y-13014164D01*
X2770145Y-13276305D01*
X2584199Y-13725229D01*
X2661087Y-13920000D01*
X3760000Y-13920000D01*
X3760000Y-13900000D01*
X3860000Y-13900000D01*
X3860000Y-13920000D01*
X4958913Y-13920000D01*
X5035801Y-13725229D01*
X4849855Y-13276305D01*
X4649847Y-13076000D01*
X6448256Y-13076000D01*
X8534443Y-15162188D01*
X8555419Y-15193581D01*
X8586812Y-15214557D01*
X8679792Y-15276684D01*
X8826500Y-15305866D01*
X8863531Y-15298500D01*
X29311777Y-15298500D01*
X29348808Y-15305866D01*
X29385839Y-15298500D01*
X29495516Y-15276684D01*
X29619889Y-15193581D01*
X29640867Y-15162185D01*
X32880043Y-11923010D01*
X33067645Y-11923010D01*
X33288171Y-11831666D01*
X33456954Y-11662883D01*
X33548298Y-11442357D01*
X33548298Y-11203663D01*
X33456954Y-10983137D01*
X33288171Y-10814354D01*
X33067645Y-10723010D01*
X32828951Y-10723010D01*
X32608425Y-10814354D01*
X32439642Y-10983137D01*
X32348298Y-11203663D01*
X32348298Y-11391265D01*
X29193064Y-14546500D01*
X28229655Y-14546500D01*
X32834685Y-9941470D01*
X33022288Y-9941470D01*
X33242814Y-9850126D01*
X33411597Y-9681343D01*
X33502941Y-9460817D01*
X33502941Y-9222123D01*
X33411597Y-9001597D01*
X33242814Y-8832814D01*
X33022288Y-8741470D01*
X32783594Y-8741470D01*
X32563068Y-8832814D01*
X32394285Y-9001597D01*
X32302941Y-9222123D01*
X32302941Y-9409726D01*
X27470178Y-14242489D01*
X9108169Y-14242489D01*
X6055995Y-11190315D01*
X6035017Y-11158919D01*
X5910644Y-11075816D01*
X5800967Y-11054000D01*
X5763936Y-11046634D01*
X5726905Y-11054000D01*
X4907738Y-11054000D01*
X4893276Y-10981293D01*
X4639103Y-10600897D01*
X4258707Y-10346724D01*
X3923261Y-10280000D01*
X3696739Y-10280000D01*
X3361293Y-10346724D01*
X2980897Y-10600897D01*
X2789000Y-10888091D01*
X2789000Y-10442744D01*
X3299654Y-9932090D01*
X3361293Y-9973276D01*
X3696739Y-10040000D01*
X3923261Y-10040000D01*
X4258707Y-9973276D01*
X4639103Y-9719103D01*
X4893276Y-9338707D01*
X4982529Y-8890000D01*
X4893276Y-8441293D01*
X4639103Y-8060897D01*
X4607829Y-8040000D01*
X5194123Y-8040000D01*
X5194123Y-9740000D01*
X5217407Y-9857054D01*
X5283712Y-9956288D01*
X5382946Y-10022593D01*
X5500000Y-10045877D01*
X7200000Y-10045877D01*
X7317054Y-10022593D01*
X7416288Y-9956288D01*
X7482593Y-9857054D01*
X7505877Y-9740000D01*
X7505877Y-9575621D01*
X11695443Y-13765188D01*
X11716419Y-13796581D01*
X11840792Y-13879684D01*
X11987500Y-13908866D01*
X12024531Y-13901500D01*
X24981969Y-13901500D01*
X25019000Y-13908866D01*
X25056031Y-13901500D01*
X25165708Y-13879684D01*
X25290081Y-13796581D01*
X25311059Y-13765185D01*
X30856244Y-8220000D01*
X31043847Y-8220000D01*
X31264373Y-8128656D01*
X31433156Y-7959873D01*
X31524500Y-7739347D01*
X31524500Y-7500653D01*
X31433156Y-7280127D01*
X31264373Y-7111344D01*
X31043847Y-7020000D01*
X30805153Y-7020000D01*
X30584627Y-7111344D01*
X30415844Y-7280127D01*
X30324500Y-7500653D01*
X30324500Y-7688256D01*
X24863256Y-13149500D01*
X24513630Y-13149500D01*
X28274542Y-9388589D01*
X28462144Y-9388589D01*
X28682670Y-9297245D01*
X28851453Y-9128462D01*
X28942797Y-8907936D01*
X28942797Y-8669242D01*
X28851453Y-8448716D01*
X28682670Y-8279933D01*
X28462144Y-8188589D01*
X28223450Y-8188589D01*
X28174004Y-8209070D01*
X28131156Y-8105625D01*
X27962373Y-7936842D01*
X27741847Y-7845498D01*
X27503153Y-7845498D01*
X27282627Y-7936842D01*
X27113844Y-8105625D01*
X27022500Y-8326151D01*
X27022500Y-8564845D01*
X27113844Y-8785371D01*
X27218115Y-8889642D01*
X24291756Y-11816000D01*
X20084767Y-11816000D01*
X19994147Y-11597223D01*
X19698777Y-11301853D01*
X19312858Y-11142000D01*
X18895142Y-11142000D01*
X18683082Y-11229838D01*
X16374637Y-8921393D01*
X16447156Y-8848873D01*
X16538500Y-8628347D01*
X16538500Y-8389653D01*
X16447156Y-8169127D01*
X16278373Y-8000344D01*
X16057847Y-7909000D01*
X15819153Y-7909000D01*
X15598627Y-8000344D01*
X15429844Y-8169127D01*
X15338500Y-8389653D01*
X15338500Y-8628347D01*
X15429844Y-8848873D01*
X15562241Y-8981270D01*
X15555134Y-9017000D01*
X15562500Y-9054030D01*
X15584316Y-9163707D01*
X15667419Y-9288081D01*
X15698815Y-9309059D01*
X18147403Y-11757647D01*
X18054000Y-11983142D01*
X18054000Y-12400858D01*
X18213853Y-12786777D01*
X18259076Y-12832000D01*
X15395745Y-12832000D01*
X15183380Y-12619635D01*
X15274000Y-12400858D01*
X15274000Y-11983142D01*
X15114147Y-11597223D01*
X14818777Y-11301853D01*
X14432858Y-11142000D01*
X14015142Y-11142000D01*
X13796365Y-11232620D01*
X12250500Y-9686756D01*
X12250500Y-8981529D01*
X12383156Y-8848873D01*
X12474500Y-8628347D01*
X12474500Y-8389653D01*
X12383156Y-8169127D01*
X12214373Y-8000344D01*
X11993847Y-7909000D01*
X11755153Y-7909000D01*
X11534627Y-8000344D01*
X11365844Y-8169127D01*
X11274500Y-8389653D01*
X11274500Y-8628347D01*
X11365844Y-8848873D01*
X11498500Y-8981529D01*
X11498501Y-9805464D01*
X11491134Y-9842500D01*
X11520316Y-9989207D01*
X11538694Y-10016711D01*
X11603420Y-10113581D01*
X11634813Y-10134557D01*
X13264620Y-11764365D01*
X13174000Y-11983142D01*
X13174000Y-12400858D01*
X13333853Y-12786777D01*
X13629223Y-13082147D01*
X13791827Y-13149500D01*
X12143245Y-13149500D01*
X7644059Y-8650315D01*
X7623081Y-8618919D01*
X7505877Y-8540606D01*
X7505877Y-8040000D01*
X7482593Y-7922946D01*
X7416288Y-7823712D01*
X7317054Y-7757407D01*
X7200000Y-7734123D01*
X5500000Y-7734123D01*
X5382946Y-7757407D01*
X5283712Y-7823712D01*
X5217407Y-7922946D01*
X5194123Y-8040000D01*
X4607829Y-8040000D01*
X4258707Y-7806724D01*
X3923261Y-7740000D01*
X3696739Y-7740000D01*
X3361293Y-7806724D01*
X2980897Y-8060897D01*
X2726724Y-8441293D01*
X2637471Y-8890000D01*
X2726724Y-9338707D01*
X2767910Y-9400346D01*
X2173315Y-9994941D01*
X2141919Y-10015919D01*
X2097641Y-10082187D01*
X2058816Y-10140293D01*
X2029634Y-10287000D01*
X375000Y-10287000D01*
X375000Y-5500000D01*
X2654123Y-5500000D01*
X2654123Y-7200000D01*
X2677407Y-7317054D01*
X2743712Y-7416288D01*
X2842946Y-7482593D01*
X2960000Y-7505877D01*
X4660000Y-7505877D01*
X4777054Y-7482593D01*
X4876288Y-7416288D01*
X4942593Y-7317054D01*
X4965877Y-7200000D01*
X4965877Y-6850000D01*
X5300997Y-6850000D01*
X5520897Y-7179103D01*
X5901293Y-7433276D01*
X6236739Y-7500000D01*
X6463261Y-7500000D01*
X6798707Y-7433276D01*
X7179103Y-7179103D01*
X7433276Y-6798707D01*
X7522529Y-6350000D01*
X7445311Y-5961796D01*
X8676737Y-4730370D01*
X18313500Y-4730370D01*
X18313500Y-5048630D01*
X18435293Y-5342664D01*
X18660336Y-5567707D01*
X18954370Y-5689500D01*
X19272630Y-5689500D01*
X19349794Y-5657538D01*
X21494267Y-7802011D01*
X20657755Y-7802011D01*
X19881538Y-7025794D01*
X19913500Y-6948630D01*
X19913500Y-6630370D01*
X19791707Y-6336336D01*
X19566664Y-6111293D01*
X19272630Y-5989500D01*
X18954370Y-5989500D01*
X18660336Y-6111293D01*
X18435293Y-6336336D01*
X18313500Y-6630370D01*
X18313500Y-6948630D01*
X18435293Y-7242664D01*
X18660336Y-7467707D01*
X18954370Y-7589500D01*
X19272630Y-7589500D01*
X19349794Y-7557538D01*
X20209952Y-8417696D01*
X20230930Y-8449092D01*
X20333324Y-8517509D01*
X20355303Y-8532195D01*
X20502010Y-8561377D01*
X20539041Y-8554011D01*
X25298394Y-8554011D01*
X25335425Y-8561377D01*
X25372456Y-8554011D01*
X25482133Y-8532195D01*
X25606506Y-8449092D01*
X25627484Y-8417696D01*
X26687173Y-7358007D01*
X27459234Y-7358007D01*
X27591890Y-7490663D01*
X27812416Y-7582007D01*
X28051110Y-7582007D01*
X28119422Y-7553712D01*
X28129844Y-7578873D01*
X28298627Y-7747656D01*
X28519153Y-7839000D01*
X28757847Y-7839000D01*
X28978373Y-7747656D01*
X29147156Y-7578873D01*
X29238500Y-7358347D01*
X29238500Y-7119653D01*
X29147156Y-6899127D01*
X29011711Y-6763682D01*
X28992684Y-6668028D01*
X28930557Y-6575048D01*
X28909581Y-6543655D01*
X28878188Y-6522679D01*
X28465823Y-6110315D01*
X28444845Y-6078919D01*
X28320472Y-5995816D01*
X28210795Y-5974000D01*
X28173764Y-5966634D01*
X28136733Y-5974000D01*
X26770529Y-5974000D01*
X26733499Y-5966634D01*
X26696469Y-5974000D01*
X26586792Y-5995816D01*
X26462419Y-6078919D01*
X26441441Y-6110315D01*
X25053756Y-7498000D01*
X22253744Y-7498000D01*
X19881538Y-5125794D01*
X19913500Y-5048630D01*
X19913500Y-4730370D01*
X19791707Y-4436336D01*
X19566664Y-4211293D01*
X19272630Y-4089500D01*
X18954370Y-4089500D01*
X18660336Y-4211293D01*
X18435293Y-4436336D01*
X18313500Y-4730370D01*
X8676737Y-4730370D01*
X9478107Y-3929000D01*
X22970394Y-3929000D01*
X23868625Y-4827232D01*
X23896520Y-4868980D01*
X24000929Y-4938743D01*
X24061910Y-4979489D01*
X24257000Y-5018296D01*
X24306246Y-5008500D01*
X25145393Y-5008500D01*
X23895894Y-6258000D01*
X23883653Y-6258000D01*
X23663127Y-6349344D01*
X23494344Y-6518127D01*
X23403000Y-6738653D01*
X23403000Y-6977347D01*
X23494344Y-7197873D01*
X23663127Y-7366656D01*
X23883653Y-7458000D01*
X24122347Y-7458000D01*
X24342873Y-7366656D01*
X24511656Y-7197873D01*
X24603000Y-6977347D01*
X24603000Y-6965106D01*
X26290233Y-5277874D01*
X26331980Y-5249980D01*
X26442489Y-5084590D01*
X26457624Y-5008500D01*
X30463394Y-5008500D01*
X35713394Y-10258500D01*
X35631153Y-10258500D01*
X35410627Y-10349844D01*
X35241844Y-10518627D01*
X35150500Y-10739153D01*
X35150500Y-10977847D01*
X35241844Y-11198373D01*
X35410627Y-11367156D01*
X35631153Y-11458500D01*
X35869847Y-11458500D01*
X36090373Y-11367156D01*
X36259156Y-11198373D01*
X36350500Y-10977847D01*
X36350500Y-10823500D01*
X36504847Y-10823500D01*
X36725373Y-10732156D01*
X36894156Y-10563373D01*
X36925250Y-10488305D01*
X36956344Y-10563373D01*
X37125127Y-10732156D01*
X37345653Y-10823500D01*
X37584347Y-10823500D01*
X37804873Y-10732156D01*
X37973656Y-10563373D01*
X38065000Y-10342847D01*
X38065000Y-10104153D01*
X37973656Y-9883627D01*
X37965000Y-9874971D01*
X37965000Y-9175029D01*
X37973656Y-9166373D01*
X38065000Y-8945847D01*
X38065000Y-8707153D01*
X37973656Y-8486627D01*
X37804873Y-8317844D01*
X37584347Y-8226500D01*
X37345653Y-8226500D01*
X37125127Y-8317844D01*
X37116471Y-8326500D01*
X36275107Y-8326500D01*
X31950037Y-4001431D01*
X32032500Y-3802347D01*
X32032500Y-3563653D01*
X31941156Y-3343127D01*
X31772373Y-3174344D01*
X31551847Y-3083000D01*
X31313153Y-3083000D01*
X31092627Y-3174344D01*
X30923844Y-3343127D01*
X30832500Y-3563653D01*
X30832500Y-3802347D01*
X30923844Y-4022873D01*
X30932500Y-4031529D01*
X30932500Y-4082219D01*
X30865590Y-4037511D01*
X30719743Y-4008500D01*
X30719741Y-4008500D01*
X30670500Y-3998705D01*
X30621259Y-4008500D01*
X26320029Y-4008500D01*
X26311373Y-3999844D01*
X26090847Y-3908500D01*
X25852153Y-3908500D01*
X25631627Y-3999844D01*
X25622971Y-4008500D01*
X24464107Y-4008500D01*
X23565876Y-3110270D01*
X23537980Y-3068520D01*
X23372590Y-2958011D01*
X23226743Y-2929000D01*
X23226741Y-2929000D01*
X23177500Y-2919205D01*
X23128259Y-2929000D01*
X9320243Y-2929000D01*
X9271000Y-2919205D01*
X9221757Y-2929000D01*
X9075910Y-2958011D01*
X8910520Y-3068520D01*
X8882625Y-3110268D01*
X6738204Y-5254689D01*
X6463261Y-5200000D01*
X6236739Y-5200000D01*
X5901293Y-5266724D01*
X5520897Y-5520897D01*
X5300997Y-5850000D01*
X4965877Y-5850000D01*
X4965877Y-5500000D01*
X4942593Y-5382946D01*
X4876288Y-5283712D01*
X4777054Y-5217407D01*
X4660000Y-5194123D01*
X2960000Y-5194123D01*
X2842946Y-5217407D01*
X2743712Y-5283712D01*
X2677407Y-5382946D01*
X2654123Y-5500000D01*
X375000Y-5500000D01*
X375000Y-2520000D01*
X1120000Y-2520000D01*
X1220000Y-2420000D01*
X1220000Y-1320000D01*
X1320000Y-1320000D01*
X1320000Y-2420000D01*
X1420000Y-2520000D01*
X2199565Y-2520000D01*
X2346582Y-2459104D01*
X2459104Y-2346582D01*
X2520000Y-2199565D01*
X2520000Y-1420000D01*
X2420000Y-1320000D01*
X1320000Y-1320000D01*
X1220000Y-1320000D01*
X1200000Y-1320000D01*
X1200000Y-1220000D01*
X1220000Y-1220000D01*
X1220000Y-1200000D01*
X1320000Y-1200000D01*
X1320000Y-1220000D01*
X2420000Y-1220000D01*
X2520000Y-1120000D01*
X2520000Y-375000D01*
X3079519Y-375000D01*
X2980897Y-440897D01*
G04 #@! TD*
M02*
