M48
;DRILL file {KiCad (5.0.0)} date 10/21/18 19:09:19
;FORMAT={3:3/ absolute / metric / suppress leading zeros}
FMAT,2
METRIC,TZ
T1C0.300
T2C0.500
T3C0.600
T4C0.800
T5C0.850
T6C1.000
%
G90
G05
M71
T1
X9144Y-11684
X9525Y-9398
X11874Y-8509
X12764Y-8509
X15939Y-8509
X20002Y-8509
X22924Y-4508
X24003Y-6858
X24955Y-17018
X25971Y-4508
X26485Y-8512
X27622Y-8445
X27932Y-6982
X28343Y-8789
X28639Y-7239
X30925Y-7620
X30925Y-7620
X31433Y-3683
X32903Y-9341
X32948Y-11323
X33782Y-4889
X35750Y-10859
X35806Y-15057
X36386Y-10224
X37465Y-8826
X37465Y-10224
X38037Y-5588
X42608Y-14986
X45403Y-9271
X46228Y-16129
X47117Y-8826
X47181Y-11621
X48633Y-7104
X50546Y-7811
T2
X1404Y-16256
X42545Y-10414
X50673Y-16066
X19114Y-4889
X19114Y-6789
T4
X14224Y-12192
X19104Y-12192
T5
X51878Y-9946
X51878Y-14946
T6
X1270Y-1270
X3810Y-1270
X6350Y-1270
X8890Y-1270
X11430Y-1270
X13970Y-1270
X16510Y-1270
X19050Y-1270
X21590Y-1270
X24130Y-1270
X26670Y-1270
X29210Y-1270
X31750Y-1270
X34290Y-1270
X36830Y-1270
X39370Y-1270
X41910Y-1270
X44450Y-1270
X46990Y-1270
X49530Y-1270
X52070Y-1270
X54610Y-1270
X3810Y-6350
X3810Y-8890
X3810Y-11430
X3810Y-13970
X6350Y-6350
X6350Y-8890
X1270Y-19050
X3810Y-19050
X6350Y-19050
X8890Y-19050
X11430Y-19050
X13970Y-19050
X16510Y-19050
X19050Y-19050
X21590Y-19050
X24130Y-19050
X26670Y-19050
X29210Y-19050
X31750Y-19050
X34290Y-19050
X36830Y-19050
X39370Y-19050
X41910Y-19050
X44450Y-19050
X46990Y-19050
X49530Y-19050
X52070Y-19050
X54610Y-19050
T3
X54228Y-8946G85X54928Y-8946
G05
X54928Y-15946G85X54228Y-15946
G05
T0
M30
