G04 #@! TF.GenerationSoftware,KiCad,Pcbnew,(5.0.0)*
G04 #@! TF.CreationDate,2018-10-21T18:57:15+02:00*
G04 #@! TF.ProjectId,mibo100_imxrt,6D69626F3130305F696D7872742E6B69,rev?*
G04 #@! TF.SameCoordinates,PX695f190PY429d390*
G04 #@! TF.FileFunction,Legend,Top*
G04 #@! TF.FilePolarity,Positive*
%FSLAX46Y46*%
G04 Gerber Fmt 4.6, Leading zero omitted, Abs format (unit mm)*
G04 Created by KiCad (PCBNEW (5.0.0)) date 10/21/18 18:57:15*
%MOMM*%
%LPD*%
G01*
G04 APERTURE LIST*
%ADD10C,0.150000*%
%ADD11C,0.250000*%
%ADD12C,0.300000*%
%ADD13C,0.225000*%
%ADD14C,0.120000*%
%ADD15C,0.200000*%
%ADD16C,0.175000*%
G04 APERTURE END LIST*
D10*
X62457000Y-19478571D02*
X62457000Y-19192857D01*
X62628428Y-19535714D02*
X62028428Y-19335714D01*
X62628428Y-19135714D01*
X62028428Y-18992857D02*
X62028428Y-18621428D01*
X62257000Y-18821428D01*
X62257000Y-18735714D01*
X62285571Y-18678571D01*
X62314142Y-18650000D01*
X62371285Y-18621428D01*
X62514142Y-18621428D01*
X62571285Y-18650000D01*
X62599857Y-18678571D01*
X62628428Y-18735714D01*
X62628428Y-18907142D01*
X62599857Y-18964285D01*
X62571285Y-18992857D01*
D11*
X54681619Y-9977380D02*
X54348285Y-9501190D01*
X54110190Y-9977380D02*
X54110190Y-8977380D01*
X54491142Y-8977380D01*
X54586380Y-9025000D01*
X54634000Y-9072619D01*
X54681619Y-9167857D01*
X54681619Y-9310714D01*
X54634000Y-9405952D01*
X54586380Y-9453571D01*
X54491142Y-9501190D01*
X54110190Y-9501190D01*
X55110190Y-9453571D02*
X55443523Y-9453571D01*
X55586380Y-9977380D02*
X55110190Y-9977380D01*
X55110190Y-8977380D01*
X55586380Y-8977380D01*
X55967333Y-9929761D02*
X56110190Y-9977380D01*
X56348285Y-9977380D01*
X56443523Y-9929761D01*
X56491142Y-9882142D01*
X56538761Y-9786904D01*
X56538761Y-9691666D01*
X56491142Y-9596428D01*
X56443523Y-9548809D01*
X56348285Y-9501190D01*
X56157809Y-9453571D01*
X56062571Y-9405952D01*
X56014952Y-9358333D01*
X55967333Y-9263095D01*
X55967333Y-9167857D01*
X56014952Y-9072619D01*
X56062571Y-9025000D01*
X56157809Y-8977380D01*
X56395904Y-8977380D01*
X56538761Y-9025000D01*
X56967333Y-9453571D02*
X57300666Y-9453571D01*
X57443523Y-9977380D02*
X56967333Y-9977380D01*
X56967333Y-8977380D01*
X57443523Y-8977380D01*
X57729238Y-8977380D02*
X58300666Y-8977380D01*
X58014952Y-9977380D02*
X58014952Y-8977380D01*
D12*
X8989714Y-20400095D02*
X8989714Y-19100095D01*
X9389714Y-20028666D01*
X9789714Y-19100095D01*
X9789714Y-20400095D01*
X10361142Y-20400095D02*
X10361142Y-19100095D01*
X11332571Y-19719142D02*
X11504000Y-19781047D01*
X11561142Y-19842952D01*
X11618285Y-19966761D01*
X11618285Y-20152476D01*
X11561142Y-20276285D01*
X11504000Y-20338190D01*
X11389714Y-20400095D01*
X10932571Y-20400095D01*
X10932571Y-19100095D01*
X11332571Y-19100095D01*
X11446857Y-19162000D01*
X11504000Y-19223904D01*
X11561142Y-19347714D01*
X11561142Y-19471523D01*
X11504000Y-19595333D01*
X11446857Y-19657238D01*
X11332571Y-19719142D01*
X10932571Y-19719142D01*
X12361142Y-19100095D02*
X12589714Y-19100095D01*
X12704000Y-19162000D01*
X12818285Y-19285809D01*
X12875428Y-19533428D01*
X12875428Y-19966761D01*
X12818285Y-20214380D01*
X12704000Y-20338190D01*
X12589714Y-20400095D01*
X12361142Y-20400095D01*
X12246857Y-20338190D01*
X12132571Y-20214380D01*
X12075428Y-19966761D01*
X12075428Y-19533428D01*
X12132571Y-19285809D01*
X12246857Y-19162000D01*
X12361142Y-19100095D01*
X14018285Y-20400095D02*
X13332571Y-20400095D01*
X13675428Y-20400095D02*
X13675428Y-19100095D01*
X13561142Y-19285809D01*
X13446857Y-19409619D01*
X13332571Y-19471523D01*
X14761142Y-19100095D02*
X14875428Y-19100095D01*
X14989714Y-19162000D01*
X15046857Y-19223904D01*
X15104000Y-19347714D01*
X15161142Y-19595333D01*
X15161142Y-19904857D01*
X15104000Y-20152476D01*
X15046857Y-20276285D01*
X14989714Y-20338190D01*
X14875428Y-20400095D01*
X14761142Y-20400095D01*
X14646857Y-20338190D01*
X14589714Y-20276285D01*
X14532571Y-20152476D01*
X14475428Y-19904857D01*
X14475428Y-19595333D01*
X14532571Y-19347714D01*
X14589714Y-19223904D01*
X14646857Y-19162000D01*
X14761142Y-19100095D01*
X15904000Y-19100095D02*
X16018285Y-19100095D01*
X16132571Y-19162000D01*
X16189714Y-19223904D01*
X16246857Y-19347714D01*
X16304000Y-19595333D01*
X16304000Y-19904857D01*
X16246857Y-20152476D01*
X16189714Y-20276285D01*
X16132571Y-20338190D01*
X16018285Y-20400095D01*
X15904000Y-20400095D01*
X15789714Y-20338190D01*
X15732571Y-20276285D01*
X15675428Y-20152476D01*
X15618285Y-19904857D01*
X15618285Y-19595333D01*
X15675428Y-19347714D01*
X15732571Y-19223904D01*
X15789714Y-19162000D01*
X15904000Y-19100095D01*
X16818285Y-19904857D02*
X17732571Y-19904857D01*
X18304000Y-20400095D02*
X18304000Y-19100095D01*
X18875428Y-20400095D02*
X18875428Y-19100095D01*
X19275428Y-20028666D01*
X19675428Y-19100095D01*
X19675428Y-20400095D01*
X20132571Y-19100095D02*
X20932571Y-20400095D01*
X20932571Y-19100095D02*
X20132571Y-20400095D01*
X22075428Y-20400095D02*
X21675428Y-19781047D01*
X21389714Y-20400095D02*
X21389714Y-19100095D01*
X21846857Y-19100095D01*
X21961142Y-19162000D01*
X22018285Y-19223904D01*
X22075428Y-19347714D01*
X22075428Y-19533428D01*
X22018285Y-19657238D01*
X21961142Y-19719142D01*
X21846857Y-19781047D01*
X21389714Y-19781047D01*
X22418285Y-19100095D02*
X23104000Y-19100095D01*
X22761142Y-20400095D02*
X22761142Y-19100095D01*
D11*
X2377785Y-18677000D02*
X2282547Y-18629380D01*
X2139690Y-18629380D01*
X1996833Y-18677000D01*
X1901595Y-18772238D01*
X1853976Y-18867476D01*
X1806357Y-19057952D01*
X1806357Y-19200809D01*
X1853976Y-19391285D01*
X1901595Y-19486523D01*
X1996833Y-19581761D01*
X2139690Y-19629380D01*
X2234928Y-19629380D01*
X2377785Y-19581761D01*
X2425404Y-19534142D01*
X2425404Y-19200809D01*
X2234928Y-19200809D01*
X2853976Y-19629380D02*
X2853976Y-18629380D01*
X3425404Y-19629380D01*
X3425404Y-18629380D01*
X3901595Y-19629380D02*
X3901595Y-18629380D01*
X4139690Y-18629380D01*
X4282547Y-18677000D01*
X4377785Y-18772238D01*
X4425404Y-18867476D01*
X4473023Y-19057952D01*
X4473023Y-19200809D01*
X4425404Y-19391285D01*
X4377785Y-19486523D01*
X4282547Y-19581761D01*
X4139690Y-19629380D01*
X3901595Y-19629380D01*
D13*
X436892Y-16874285D02*
X565464Y-16917142D01*
X779750Y-16917142D01*
X865464Y-16874285D01*
X908321Y-16831428D01*
X951178Y-16745714D01*
X951178Y-16660000D01*
X908321Y-16574285D01*
X865464Y-16531428D01*
X779750Y-16488571D01*
X608321Y-16445714D01*
X522607Y-16402857D01*
X479750Y-16360000D01*
X436892Y-16274285D01*
X436892Y-16188571D01*
X479750Y-16102857D01*
X522607Y-16060000D01*
X608321Y-16017142D01*
X822607Y-16017142D01*
X951178Y-16060000D01*
X1251178Y-16017142D02*
X1465464Y-16917142D01*
X1636892Y-16274285D01*
X1808321Y-16917142D01*
X2022607Y-16017142D01*
X2879750Y-16831428D02*
X2836892Y-16874285D01*
X2708321Y-16917142D01*
X2622607Y-16917142D01*
X2494035Y-16874285D01*
X2408321Y-16788571D01*
X2365464Y-16702857D01*
X2322607Y-16531428D01*
X2322607Y-16402857D01*
X2365464Y-16231428D01*
X2408321Y-16145714D01*
X2494035Y-16060000D01*
X2622607Y-16017142D01*
X2708321Y-16017142D01*
X2836892Y-16060000D01*
X2879750Y-16102857D01*
X3694035Y-16917142D02*
X3265464Y-16917142D01*
X3265464Y-16017142D01*
X3994035Y-16917142D02*
X3994035Y-16017142D01*
X4508321Y-16917142D02*
X4122607Y-16402857D01*
X4508321Y-16017142D02*
X3994035Y-16531428D01*
X694035Y-14461285D02*
X822607Y-14504142D01*
X1036892Y-14504142D01*
X1122607Y-14461285D01*
X1165464Y-14418428D01*
X1208321Y-14332714D01*
X1208321Y-14247000D01*
X1165464Y-14161285D01*
X1122607Y-14118428D01*
X1036892Y-14075571D01*
X865464Y-14032714D01*
X779750Y-13989857D01*
X736892Y-13947000D01*
X694035Y-13861285D01*
X694035Y-13775571D01*
X736892Y-13689857D01*
X779750Y-13647000D01*
X865464Y-13604142D01*
X1079750Y-13604142D01*
X1208321Y-13647000D01*
X1508321Y-13604142D02*
X1722607Y-14504142D01*
X1894035Y-13861285D01*
X2065464Y-14504142D01*
X2279750Y-13604142D01*
X2622607Y-14504142D02*
X2622607Y-13604142D01*
X2836892Y-13604142D01*
X2965464Y-13647000D01*
X3051178Y-13732714D01*
X3094035Y-13818428D01*
X3136892Y-13989857D01*
X3136892Y-14118428D01*
X3094035Y-14289857D01*
X3051178Y-14375571D01*
X2965464Y-14461285D01*
X2836892Y-14504142D01*
X2622607Y-14504142D01*
X3522607Y-14504142D02*
X3522607Y-13604142D01*
X4122607Y-13604142D02*
X4294035Y-13604142D01*
X4379750Y-13647000D01*
X4465464Y-13732714D01*
X4508321Y-13904142D01*
X4508321Y-14204142D01*
X4465464Y-14375571D01*
X4379750Y-14461285D01*
X4294035Y-14504142D01*
X4122607Y-14504142D01*
X4036892Y-14461285D01*
X3951178Y-14375571D01*
X3908321Y-14204142D01*
X3908321Y-13904142D01*
X3951178Y-13732714D01*
X4036892Y-13647000D01*
X4122607Y-13604142D01*
D11*
X1568261Y-10882380D02*
X2187309Y-10882380D01*
X1853976Y-11263333D01*
X1996833Y-11263333D01*
X2092071Y-11310952D01*
X2139690Y-11358571D01*
X2187309Y-11453809D01*
X2187309Y-11691904D01*
X2139690Y-11787142D01*
X2092071Y-11834761D01*
X1996833Y-11882380D01*
X1711119Y-11882380D01*
X1615880Y-11834761D01*
X1568261Y-11787142D01*
X2615880Y-11787142D02*
X2663500Y-11834761D01*
X2615880Y-11882380D01*
X2568261Y-11834761D01*
X2615880Y-11787142D01*
X2615880Y-11882380D01*
X2996833Y-10882380D02*
X3615880Y-10882380D01*
X3282547Y-11263333D01*
X3425404Y-11263333D01*
X3520642Y-11310952D01*
X3568261Y-11358571D01*
X3615880Y-11453809D01*
X3615880Y-11691904D01*
X3568261Y-11787142D01*
X3520642Y-11834761D01*
X3425404Y-11882380D01*
X3139690Y-11882380D01*
X3044452Y-11834761D01*
X2996833Y-11787142D01*
X3901595Y-10882380D02*
X4234928Y-11882380D01*
X4568261Y-10882380D01*
X1282547Y-8342380D02*
X806357Y-8342380D01*
X758738Y-8818571D01*
X806357Y-8770952D01*
X901595Y-8723333D01*
X1139690Y-8723333D01*
X1234928Y-8770952D01*
X1282547Y-8818571D01*
X1330166Y-8913809D01*
X1330166Y-9151904D01*
X1282547Y-9247142D01*
X1234928Y-9294761D01*
X1139690Y-9342380D01*
X901595Y-9342380D01*
X806357Y-9294761D01*
X758738Y-9247142D01*
X1615880Y-8342380D02*
X1949214Y-9342380D01*
X2282547Y-8342380D01*
X3377785Y-9342380D02*
X3377785Y-8342380D01*
X3853976Y-9342380D02*
X3853976Y-8342380D01*
X4425404Y-9342380D01*
X4425404Y-8342380D01*
X16795714Y-11501380D02*
X16224285Y-11501380D01*
X16510000Y-11501380D02*
X16510000Y-10501380D01*
X16414761Y-10644238D01*
X16319523Y-10739476D01*
X16224285Y-10787095D01*
X13922380Y-10501380D02*
X14017619Y-10501380D01*
X14112857Y-10549000D01*
X14160476Y-10596619D01*
X14208095Y-10691857D01*
X14255714Y-10882333D01*
X14255714Y-11120428D01*
X14208095Y-11310904D01*
X14160476Y-11406142D01*
X14112857Y-11453761D01*
X14017619Y-11501380D01*
X13922380Y-11501380D01*
X13827142Y-11453761D01*
X13779523Y-11406142D01*
X13731904Y-11310904D01*
X13684285Y-11120428D01*
X13684285Y-10882333D01*
X13731904Y-10691857D01*
X13779523Y-10596619D01*
X13827142Y-10549000D01*
X13922380Y-10501380D01*
X18581857Y-8945571D02*
X18724714Y-8993190D01*
X18772333Y-9040809D01*
X18819952Y-9136047D01*
X18819952Y-9278904D01*
X18772333Y-9374142D01*
X18724714Y-9421761D01*
X18629476Y-9469380D01*
X18248523Y-9469380D01*
X18248523Y-8469380D01*
X18581857Y-8469380D01*
X18677095Y-8517000D01*
X18724714Y-8564619D01*
X18772333Y-8659857D01*
X18772333Y-8755095D01*
X18724714Y-8850333D01*
X18677095Y-8897952D01*
X18581857Y-8945571D01*
X18248523Y-8945571D01*
X19439000Y-8469380D02*
X19629476Y-8469380D01*
X19724714Y-8517000D01*
X19819952Y-8612238D01*
X19867571Y-8802714D01*
X19867571Y-9136047D01*
X19819952Y-9326523D01*
X19724714Y-9421761D01*
X19629476Y-9469380D01*
X19439000Y-9469380D01*
X19343761Y-9421761D01*
X19248523Y-9326523D01*
X19200904Y-9136047D01*
X19200904Y-8802714D01*
X19248523Y-8612238D01*
X19343761Y-8517000D01*
X19439000Y-8469380D01*
X20486619Y-8469380D02*
X20677095Y-8469380D01*
X20772333Y-8517000D01*
X20867571Y-8612238D01*
X20915190Y-8802714D01*
X20915190Y-9136047D01*
X20867571Y-9326523D01*
X20772333Y-9421761D01*
X20677095Y-9469380D01*
X20486619Y-9469380D01*
X20391380Y-9421761D01*
X20296142Y-9326523D01*
X20248523Y-9136047D01*
X20248523Y-8802714D01*
X20296142Y-8612238D01*
X20391380Y-8517000D01*
X20486619Y-8469380D01*
X21200904Y-8469380D02*
X21772333Y-8469380D01*
X21486619Y-9469380D02*
X21486619Y-8469380D01*
D14*
X33210500Y-1016000D02*
X32829500Y-1333500D01*
X33210500Y-1016000D02*
X33210500Y-1333500D01*
X33210500Y-1016000D02*
X32893000Y-1016000D01*
X35750500Y-1016000D02*
X35369500Y-1333500D01*
X35750500Y-1016000D02*
X35750500Y-1333500D01*
X35750500Y-1016000D02*
X35433000Y-1016000D01*
X27749500Y-2984500D02*
X27368500Y-3302000D01*
X27749500Y-2984500D02*
X27749500Y-3302000D01*
X27749500Y-2984500D02*
X27432000Y-2984500D01*
X30861000Y-3111500D02*
X30480000Y-3429000D01*
X30861000Y-3111500D02*
X30543500Y-3111500D01*
X30861000Y-3111500D02*
X30861000Y-3429000D01*
X37973000Y-2667000D02*
X37973000Y-2984500D01*
X37973000Y-2667000D02*
X37655500Y-2667000D01*
X37973000Y-2667000D02*
X37465000Y-3111500D01*
D15*
X914476Y-3156000D02*
X838285Y-3117904D01*
X724000Y-3117904D01*
X609714Y-3156000D01*
X533523Y-3232190D01*
X495428Y-3308380D01*
X457333Y-3460761D01*
X457333Y-3575047D01*
X495428Y-3727428D01*
X533523Y-3803619D01*
X609714Y-3879809D01*
X724000Y-3917904D01*
X800190Y-3917904D01*
X914476Y-3879809D01*
X952571Y-3841714D01*
X952571Y-3575047D01*
X800190Y-3575047D01*
X1295428Y-3917904D02*
X1295428Y-3117904D01*
X1752571Y-3917904D01*
X1752571Y-3117904D01*
X2133523Y-3917904D02*
X2133523Y-3117904D01*
X2324000Y-3117904D01*
X2438285Y-3156000D01*
X2514476Y-3232190D01*
X2552571Y-3308380D01*
X2590666Y-3460761D01*
X2590666Y-3575047D01*
X2552571Y-3727428D01*
X2514476Y-3803619D01*
X2438285Y-3879809D01*
X2324000Y-3917904D01*
X2133523Y-3917904D01*
X3657619Y-2609904D02*
X3276666Y-2609904D01*
X3238571Y-2990857D01*
X3276666Y-2952761D01*
X3352857Y-2914666D01*
X3543333Y-2914666D01*
X3619523Y-2952761D01*
X3657619Y-2990857D01*
X3695714Y-3067047D01*
X3695714Y-3257523D01*
X3657619Y-3333714D01*
X3619523Y-3371809D01*
X3543333Y-3409904D01*
X3352857Y-3409904D01*
X3276666Y-3371809D01*
X3238571Y-3333714D01*
X3924285Y-2609904D02*
X4190952Y-3409904D01*
X4457619Y-2609904D01*
X5416666Y-3498857D02*
X5683333Y-3498857D01*
X5797619Y-3917904D02*
X5416666Y-3917904D01*
X5416666Y-3117904D01*
X5797619Y-3117904D01*
X6064285Y-3117904D02*
X6559523Y-3117904D01*
X6292857Y-3422666D01*
X6407142Y-3422666D01*
X6483333Y-3460761D01*
X6521428Y-3498857D01*
X6559523Y-3575047D01*
X6559523Y-3765523D01*
X6521428Y-3841714D01*
X6483333Y-3879809D01*
X6407142Y-3917904D01*
X6178571Y-3917904D01*
X6102380Y-3879809D01*
X6064285Y-3841714D01*
X6864285Y-3194095D02*
X6902380Y-3156000D01*
X6978571Y-3117904D01*
X7169047Y-3117904D01*
X7245238Y-3156000D01*
X7283333Y-3194095D01*
X7321428Y-3270285D01*
X7321428Y-3346476D01*
X7283333Y-3460761D01*
X6826190Y-3917904D01*
X7321428Y-3917904D01*
X7956666Y-2990857D02*
X8223333Y-2990857D01*
X8337619Y-3409904D02*
X7956666Y-3409904D01*
X7956666Y-2609904D01*
X8337619Y-2609904D01*
X8604285Y-2609904D02*
X9099523Y-2609904D01*
X8832857Y-2914666D01*
X8947142Y-2914666D01*
X9023333Y-2952761D01*
X9061428Y-2990857D01*
X9099523Y-3067047D01*
X9099523Y-3257523D01*
X9061428Y-3333714D01*
X9023333Y-3371809D01*
X8947142Y-3409904D01*
X8718571Y-3409904D01*
X8642380Y-3371809D01*
X8604285Y-3333714D01*
X9366190Y-2609904D02*
X9861428Y-2609904D01*
X9594761Y-2914666D01*
X9709047Y-2914666D01*
X9785238Y-2952761D01*
X9823333Y-2990857D01*
X9861428Y-3067047D01*
X9861428Y-3257523D01*
X9823333Y-3333714D01*
X9785238Y-3371809D01*
X9709047Y-3409904D01*
X9480476Y-3409904D01*
X9404285Y-3371809D01*
X9366190Y-3333714D01*
X10496666Y-3498857D02*
X10763333Y-3498857D01*
X10877619Y-3917904D02*
X10496666Y-3917904D01*
X10496666Y-3117904D01*
X10877619Y-3117904D01*
X11144285Y-3117904D02*
X11639523Y-3117904D01*
X11372857Y-3422666D01*
X11487142Y-3422666D01*
X11563333Y-3460761D01*
X11601428Y-3498857D01*
X11639523Y-3575047D01*
X11639523Y-3765523D01*
X11601428Y-3841714D01*
X11563333Y-3879809D01*
X11487142Y-3917904D01*
X11258571Y-3917904D01*
X11182380Y-3879809D01*
X11144285Y-3841714D01*
X12325238Y-3384571D02*
X12325238Y-3917904D01*
X12134761Y-3079809D02*
X11944285Y-3651238D01*
X12439523Y-3651238D01*
X13036666Y-2990857D02*
X13303333Y-2990857D01*
X13417619Y-3409904D02*
X13036666Y-3409904D01*
X13036666Y-2609904D01*
X13417619Y-2609904D01*
X13684285Y-2609904D02*
X14179523Y-2609904D01*
X13912857Y-2914666D01*
X14027142Y-2914666D01*
X14103333Y-2952761D01*
X14141428Y-2990857D01*
X14179523Y-3067047D01*
X14179523Y-3257523D01*
X14141428Y-3333714D01*
X14103333Y-3371809D01*
X14027142Y-3409904D01*
X13798571Y-3409904D01*
X13722380Y-3371809D01*
X13684285Y-3333714D01*
X14903333Y-2609904D02*
X14522380Y-2609904D01*
X14484285Y-2990857D01*
X14522380Y-2952761D01*
X14598571Y-2914666D01*
X14789047Y-2914666D01*
X14865238Y-2952761D01*
X14903333Y-2990857D01*
X14941428Y-3067047D01*
X14941428Y-3257523D01*
X14903333Y-3333714D01*
X14865238Y-3371809D01*
X14789047Y-3409904D01*
X14598571Y-3409904D01*
X14522380Y-3371809D01*
X14484285Y-3333714D01*
X15938571Y-3689333D02*
X16319523Y-3689333D01*
X15862380Y-3917904D02*
X16129047Y-3117904D01*
X16395714Y-3917904D01*
X17005238Y-3384571D02*
X17005238Y-3917904D01*
X16814761Y-3079809D02*
X16624285Y-3651238D01*
X17119523Y-3651238D01*
X18478571Y-3181333D02*
X18859523Y-3181333D01*
X18402380Y-3409904D02*
X18669047Y-2609904D01*
X18935714Y-3409904D01*
X19583333Y-2609904D02*
X19202380Y-2609904D01*
X19164285Y-2990857D01*
X19202380Y-2952761D01*
X19278571Y-2914666D01*
X19469047Y-2914666D01*
X19545238Y-2952761D01*
X19583333Y-2990857D01*
X19621428Y-3067047D01*
X19621428Y-3257523D01*
X19583333Y-3333714D01*
X19545238Y-3371809D01*
X19469047Y-3409904D01*
X19278571Y-3409904D01*
X19202380Y-3371809D01*
X19164285Y-3333714D01*
X21018571Y-3689333D02*
X21399523Y-3689333D01*
X20942380Y-3917904D02*
X21209047Y-3117904D01*
X21475714Y-3917904D01*
X22085238Y-3117904D02*
X21932857Y-3117904D01*
X21856666Y-3156000D01*
X21818571Y-3194095D01*
X21742380Y-3308380D01*
X21704285Y-3460761D01*
X21704285Y-3765523D01*
X21742380Y-3841714D01*
X21780476Y-3879809D01*
X21856666Y-3917904D01*
X22009047Y-3917904D01*
X22085238Y-3879809D01*
X22123333Y-3841714D01*
X22161428Y-3765523D01*
X22161428Y-3575047D01*
X22123333Y-3498857D01*
X22085238Y-3460761D01*
X22009047Y-3422666D01*
X21856666Y-3422666D01*
X21780476Y-3460761D01*
X21742380Y-3498857D01*
X21704285Y-3575047D01*
X23558571Y-3181333D02*
X23939523Y-3181333D01*
X23482380Y-3409904D02*
X23749047Y-2609904D01*
X24015714Y-3409904D01*
X24206190Y-2609904D02*
X24739523Y-2609904D01*
X24396666Y-3409904D01*
X25155658Y-2166719D02*
X25425032Y-2436093D01*
X24940158Y-2274469D02*
X25694406Y-1897345D01*
X25317282Y-2651593D01*
X25909905Y-2597718D02*
X25882967Y-2516906D01*
X25882967Y-2463031D01*
X25909905Y-2382219D01*
X25936842Y-2355281D01*
X26017654Y-2328344D01*
X26071529Y-2328344D01*
X26152341Y-2355281D01*
X26260091Y-2463031D01*
X26287028Y-2543843D01*
X26287028Y-2597718D01*
X26260091Y-2678530D01*
X26233154Y-2705467D01*
X26152341Y-2732405D01*
X26098467Y-2732405D01*
X26017654Y-2705467D01*
X25909905Y-2597718D01*
X25829093Y-2570780D01*
X25775218Y-2570780D01*
X25694406Y-2597718D01*
X25586656Y-2705467D01*
X25559719Y-2786280D01*
X25559719Y-2840154D01*
X25586656Y-2920967D01*
X25694406Y-3028716D01*
X25775218Y-3055654D01*
X25829093Y-3055654D01*
X25909905Y-3028716D01*
X26017654Y-2920967D01*
X26044592Y-2840154D01*
X26044592Y-2786280D01*
X26017654Y-2705467D01*
X27759158Y-2293719D02*
X28028532Y-2563093D01*
X27543658Y-2401469D02*
X28297906Y-2024345D01*
X27920782Y-2778593D01*
X28136281Y-2994092D02*
X28244031Y-3101841D01*
X28324843Y-3128779D01*
X28378718Y-3128779D01*
X28513405Y-3101841D01*
X28648092Y-3021029D01*
X28863591Y-2805530D01*
X28890528Y-2724718D01*
X28890528Y-2670843D01*
X28863591Y-2590031D01*
X28755841Y-2482281D01*
X28675029Y-2455344D01*
X28621154Y-2455344D01*
X28540342Y-2482281D01*
X28405655Y-2616968D01*
X28378718Y-2697780D01*
X28378718Y-2751655D01*
X28405655Y-2832467D01*
X28513405Y-2940217D01*
X28594217Y-2967154D01*
X28648092Y-2967154D01*
X28728904Y-2940217D01*
D16*
X30333306Y-1814595D02*
X30380446Y-1908876D01*
X30380446Y-1956016D01*
X30356876Y-2026727D01*
X30286165Y-2097438D01*
X30215455Y-2121008D01*
X30168314Y-2121008D01*
X30097603Y-2097438D01*
X29909042Y-1908876D01*
X30404016Y-1413901D01*
X30569008Y-1578893D01*
X30592578Y-1649603D01*
X30592578Y-1696744D01*
X30569008Y-1767455D01*
X30521867Y-1814595D01*
X30451157Y-1838165D01*
X30404016Y-1838165D01*
X30333306Y-1814595D01*
X30168314Y-1649603D01*
X30663289Y-2663123D02*
X30380446Y-2380280D01*
X30521867Y-2521702D02*
X31016842Y-2026727D01*
X30898991Y-2050297D01*
X30804710Y-2050297D01*
X30734000Y-2026727D01*
X31606098Y-2615983D02*
X31370396Y-2380280D01*
X31111123Y-2592412D01*
X31158264Y-2592412D01*
X31228974Y-2615983D01*
X31346825Y-2733834D01*
X31370396Y-2804544D01*
X31370396Y-2851685D01*
X31346825Y-2922396D01*
X31228974Y-3040247D01*
X31158264Y-3063817D01*
X31111123Y-3063817D01*
X31040412Y-3040247D01*
X30922561Y-2922396D01*
X30898991Y-2851685D01*
X30898991Y-2804544D01*
D10*
X32930548Y-1881938D02*
X32970954Y-1962751D01*
X32970954Y-2003157D01*
X32950751Y-2063766D01*
X32890142Y-2124375D01*
X32829532Y-2144578D01*
X32789126Y-2144578D01*
X32728517Y-2124375D01*
X32566893Y-1962751D01*
X32991157Y-1538487D01*
X33132578Y-1679908D01*
X33152781Y-1740517D01*
X33152781Y-1780923D01*
X33132578Y-1841532D01*
X33092172Y-1881938D01*
X33031563Y-1902142D01*
X32991157Y-1902142D01*
X32930548Y-1881938D01*
X32789126Y-1740517D01*
X33213390Y-2609248D02*
X32970954Y-2366812D01*
X33092172Y-2488030D02*
X33516436Y-2063766D01*
X33415421Y-2083969D01*
X33334609Y-2083969D01*
X33274000Y-2063766D01*
X33859888Y-2690061D02*
X33577045Y-2972903D01*
X33920497Y-2427421D02*
X33516436Y-2629451D01*
X33779076Y-2892091D01*
X34901938Y-2629451D02*
X34982751Y-2589045D01*
X35023157Y-2589045D01*
X35083766Y-2609248D01*
X35144375Y-2669857D01*
X35164578Y-2730467D01*
X35164578Y-2770873D01*
X35144375Y-2831482D01*
X34982751Y-2993106D01*
X34558487Y-2568842D01*
X34699908Y-2427421D01*
X34760517Y-2407218D01*
X34800923Y-2407218D01*
X34861532Y-2427421D01*
X34901938Y-2467827D01*
X34922142Y-2528436D01*
X34922142Y-2568842D01*
X34901938Y-2629451D01*
X34760517Y-2770873D01*
X35629248Y-2346609D02*
X35386812Y-2589045D01*
X35508030Y-2467827D02*
X35083766Y-2043563D01*
X35103969Y-2144578D01*
X35103969Y-2225390D01*
X35083766Y-2286000D01*
X35346406Y-1780923D02*
X35609045Y-1518284D01*
X35629248Y-1821329D01*
X35689857Y-1760720D01*
X35750467Y-1740517D01*
X35790873Y-1740517D01*
X35851482Y-1760720D01*
X35952497Y-1861735D01*
X35972700Y-1922345D01*
X35972700Y-1962751D01*
X35952497Y-2023360D01*
X35831279Y-2144578D01*
X35770670Y-2164781D01*
X35730264Y-2164781D01*
X38010548Y-1881938D02*
X38050954Y-1962751D01*
X38050954Y-2003157D01*
X38030751Y-2063766D01*
X37970142Y-2124375D01*
X37909532Y-2144578D01*
X37869126Y-2144578D01*
X37808517Y-2124375D01*
X37646893Y-1962751D01*
X38071157Y-1538487D01*
X38212578Y-1679908D01*
X38232781Y-1740517D01*
X38232781Y-1780923D01*
X38212578Y-1841532D01*
X38172172Y-1881938D01*
X38111563Y-1902142D01*
X38071157Y-1902142D01*
X38010548Y-1881938D01*
X37869126Y-1740517D01*
X38293390Y-2609248D02*
X38050954Y-2366812D01*
X38172172Y-2488030D02*
X38596436Y-2063766D01*
X38495421Y-2083969D01*
X38414609Y-2083969D01*
X38354000Y-2063766D01*
X38838873Y-2387015D02*
X38879279Y-2387015D01*
X38939888Y-2407218D01*
X39040903Y-2508233D01*
X39061106Y-2568842D01*
X39061106Y-2609248D01*
X39040903Y-2669857D01*
X39000497Y-2710264D01*
X38919685Y-2750670D01*
X38434812Y-2750670D01*
X38697451Y-3013309D01*
D16*
X42055333Y-2744000D02*
X42155333Y-2777333D01*
X42188666Y-2810666D01*
X42222000Y-2877333D01*
X42222000Y-2977333D01*
X42188666Y-3044000D01*
X42155333Y-3077333D01*
X42088666Y-3110666D01*
X41822000Y-3110666D01*
X41822000Y-2410666D01*
X42055333Y-2410666D01*
X42122000Y-2444000D01*
X42155333Y-2477333D01*
X42188666Y-2544000D01*
X42188666Y-2610666D01*
X42155333Y-2677333D01*
X42122000Y-2710666D01*
X42055333Y-2744000D01*
X41822000Y-2744000D01*
X42888666Y-3110666D02*
X42488666Y-3110666D01*
X42688666Y-3110666D02*
X42688666Y-2410666D01*
X42622000Y-2510666D01*
X42555333Y-2577333D01*
X42488666Y-2610666D01*
X43555333Y-3110666D02*
X43155333Y-3110666D01*
X43355333Y-3110666D02*
X43355333Y-2410666D01*
X43288666Y-2510666D01*
X43222000Y-2577333D01*
X43155333Y-2610666D01*
X44341333Y-2744000D02*
X44441333Y-2777333D01*
X44474666Y-2810666D01*
X44508000Y-2877333D01*
X44508000Y-2977333D01*
X44474666Y-3044000D01*
X44441333Y-3077333D01*
X44374666Y-3110666D01*
X44108000Y-3110666D01*
X44108000Y-2410666D01*
X44341333Y-2410666D01*
X44408000Y-2444000D01*
X44441333Y-2477333D01*
X44474666Y-2544000D01*
X44474666Y-2610666D01*
X44441333Y-2677333D01*
X44408000Y-2710666D01*
X44341333Y-2744000D01*
X44108000Y-2744000D01*
X45174666Y-3110666D02*
X44774666Y-3110666D01*
X44974666Y-3110666D02*
X44974666Y-2410666D01*
X44908000Y-2510666D01*
X44841333Y-2577333D01*
X44774666Y-2610666D01*
X45608000Y-2410666D02*
X45674666Y-2410666D01*
X45741333Y-2444000D01*
X45774666Y-2477333D01*
X45808000Y-2544000D01*
X45841333Y-2677333D01*
X45841333Y-2844000D01*
X45808000Y-2977333D01*
X45774666Y-3044000D01*
X45741333Y-3077333D01*
X45674666Y-3110666D01*
X45608000Y-3110666D01*
X45541333Y-3077333D01*
X45508000Y-3044000D01*
X45474666Y-2977333D01*
X45441333Y-2844000D01*
X45441333Y-2677333D01*
X45474666Y-2544000D01*
X45508000Y-2477333D01*
X45541333Y-2444000D01*
X45608000Y-2410666D01*
D15*
X46037619Y-3435333D02*
X46418571Y-3435333D01*
X45961428Y-3663904D02*
X46228095Y-2863904D01*
X46494761Y-3663904D01*
X47180476Y-3663904D02*
X46723333Y-3663904D01*
X46951904Y-3663904D02*
X46951904Y-2863904D01*
X46875714Y-2978190D01*
X46799523Y-3054380D01*
X46723333Y-3092476D01*
X47904285Y-2863904D02*
X47523333Y-2863904D01*
X47485238Y-3244857D01*
X47523333Y-3206761D01*
X47599523Y-3168666D01*
X47790000Y-3168666D01*
X47866190Y-3206761D01*
X47904285Y-3244857D01*
X47942380Y-3321047D01*
X47942380Y-3511523D01*
X47904285Y-3587714D01*
X47866190Y-3625809D01*
X47790000Y-3663904D01*
X47599523Y-3663904D01*
X47523333Y-3625809D01*
X47485238Y-3587714D01*
X48577619Y-3181333D02*
X48958571Y-3181333D01*
X48501428Y-3409904D02*
X48768095Y-2609904D01*
X49034761Y-3409904D01*
X49720476Y-3409904D02*
X49263333Y-3409904D01*
X49491904Y-3409904D02*
X49491904Y-2609904D01*
X49415714Y-2724190D01*
X49339523Y-2800380D01*
X49263333Y-2838476D01*
X50406190Y-2876571D02*
X50406190Y-3409904D01*
X50215714Y-2571809D02*
X50025238Y-3143238D01*
X50520476Y-3143238D01*
X51117619Y-3181333D02*
X51498571Y-3181333D01*
X51041428Y-3409904D02*
X51308095Y-2609904D01*
X51574761Y-3409904D01*
X52260476Y-3409904D02*
X51803333Y-3409904D01*
X52031904Y-3409904D02*
X52031904Y-2609904D01*
X51955714Y-2724190D01*
X51879523Y-2800380D01*
X51803333Y-2838476D01*
X52527142Y-2609904D02*
X53022380Y-2609904D01*
X52755714Y-2914666D01*
X52870000Y-2914666D01*
X52946190Y-2952761D01*
X52984285Y-2990857D01*
X53022380Y-3067047D01*
X53022380Y-3257523D01*
X52984285Y-3333714D01*
X52946190Y-3371809D01*
X52870000Y-3409904D01*
X52641428Y-3409904D01*
X52565238Y-3371809D01*
X52527142Y-3333714D01*
X53657619Y-3181333D02*
X54038571Y-3181333D01*
X53581428Y-3409904D02*
X53848095Y-2609904D01*
X54114761Y-3409904D01*
X54800476Y-3409904D02*
X54343333Y-3409904D01*
X54571904Y-3409904D02*
X54571904Y-2609904D01*
X54495714Y-2724190D01*
X54419523Y-2800380D01*
X54343333Y-2838476D01*
X55105238Y-2686095D02*
X55143333Y-2648000D01*
X55219523Y-2609904D01*
X55410000Y-2609904D01*
X55486190Y-2648000D01*
X55524285Y-2686095D01*
X55562380Y-2762285D01*
X55562380Y-2838476D01*
X55524285Y-2952761D01*
X55067142Y-3409904D01*
X55562380Y-3409904D01*
X56197619Y-3689333D02*
X56578571Y-3689333D01*
X56121428Y-3917904D02*
X56388095Y-3117904D01*
X56654761Y-3917904D01*
X57340476Y-3917904D02*
X56883333Y-3917904D01*
X57111904Y-3917904D02*
X57111904Y-3117904D01*
X57035714Y-3232190D01*
X56959523Y-3308380D01*
X56883333Y-3346476D01*
X58102380Y-3917904D02*
X57645238Y-3917904D01*
X57873809Y-3917904D02*
X57873809Y-3117904D01*
X57797619Y-3232190D01*
X57721428Y-3308380D01*
X57645238Y-3346476D01*
X58737619Y-3181333D02*
X59118571Y-3181333D01*
X58661428Y-3409904D02*
X58928095Y-2609904D01*
X59194761Y-3409904D01*
X59880476Y-3409904D02*
X59423333Y-3409904D01*
X59651904Y-3409904D02*
X59651904Y-2609904D01*
X59575714Y-2724190D01*
X59499523Y-2800380D01*
X59423333Y-2838476D01*
X60375714Y-2609904D02*
X60451904Y-2609904D01*
X60528095Y-2648000D01*
X60566190Y-2686095D01*
X60604285Y-2762285D01*
X60642380Y-2914666D01*
X60642380Y-3105142D01*
X60604285Y-3257523D01*
X60566190Y-3333714D01*
X60528095Y-3371809D01*
X60451904Y-3409904D01*
X60375714Y-3409904D01*
X60299523Y-3371809D01*
X60261428Y-3333714D01*
X60223333Y-3257523D01*
X60185238Y-3105142D01*
X60185238Y-2914666D01*
X60223333Y-2762285D01*
X60261428Y-2686095D01*
X60299523Y-2648000D01*
X60375714Y-2609904D01*
X61391904Y-3117904D02*
X61887142Y-3117904D01*
X61620476Y-3422666D01*
X61734761Y-3422666D01*
X61810952Y-3460761D01*
X61849047Y-3498857D01*
X61887142Y-3575047D01*
X61887142Y-3765523D01*
X61849047Y-3841714D01*
X61810952Y-3879809D01*
X61734761Y-3917904D01*
X61506190Y-3917904D01*
X61430000Y-3879809D01*
X61391904Y-3841714D01*
X62230000Y-3841714D02*
X62268095Y-3879809D01*
X62230000Y-3917904D01*
X62191904Y-3879809D01*
X62230000Y-3841714D01*
X62230000Y-3917904D01*
X62534761Y-3117904D02*
X63030000Y-3117904D01*
X62763333Y-3422666D01*
X62877619Y-3422666D01*
X62953809Y-3460761D01*
X62991904Y-3498857D01*
X63030000Y-3575047D01*
X63030000Y-3765523D01*
X62991904Y-3841714D01*
X62953809Y-3879809D01*
X62877619Y-3917904D01*
X62649047Y-3917904D01*
X62572857Y-3879809D01*
X62534761Y-3841714D01*
X63906476Y-2648000D02*
X63830285Y-2609904D01*
X63716000Y-2609904D01*
X63601714Y-2648000D01*
X63525523Y-2724190D01*
X63487428Y-2800380D01*
X63449333Y-2952761D01*
X63449333Y-3067047D01*
X63487428Y-3219428D01*
X63525523Y-3295619D01*
X63601714Y-3371809D01*
X63716000Y-3409904D01*
X63792190Y-3409904D01*
X63906476Y-3371809D01*
X63944571Y-3333714D01*
X63944571Y-3067047D01*
X63792190Y-3067047D01*
X64287428Y-3409904D02*
X64287428Y-2609904D01*
X64744571Y-3409904D01*
X64744571Y-2609904D01*
X65125523Y-3409904D02*
X65125523Y-2609904D01*
X65316000Y-2609904D01*
X65430285Y-2648000D01*
X65506476Y-2724190D01*
X65544571Y-2800380D01*
X65582666Y-2952761D01*
X65582666Y-3067047D01*
X65544571Y-3219428D01*
X65506476Y-3295619D01*
X65430285Y-3371809D01*
X65316000Y-3409904D01*
X65125523Y-3409904D01*
X914476Y-21698000D02*
X838285Y-21659904D01*
X724000Y-21659904D01*
X609714Y-21698000D01*
X533523Y-21774190D01*
X495428Y-21850380D01*
X457333Y-22002761D01*
X457333Y-22117047D01*
X495428Y-22269428D01*
X533523Y-22345619D01*
X609714Y-22421809D01*
X724000Y-22459904D01*
X800190Y-22459904D01*
X914476Y-22421809D01*
X952571Y-22383714D01*
X952571Y-22117047D01*
X800190Y-22117047D01*
X1295428Y-22459904D02*
X1295428Y-21659904D01*
X1752571Y-22459904D01*
X1752571Y-21659904D01*
X2133523Y-22459904D02*
X2133523Y-21659904D01*
X2324000Y-21659904D01*
X2438285Y-21698000D01*
X2514476Y-21774190D01*
X2552571Y-21850380D01*
X2590666Y-22002761D01*
X2590666Y-22117047D01*
X2552571Y-22269428D01*
X2514476Y-22345619D01*
X2438285Y-22421809D01*
X2324000Y-22459904D01*
X2133523Y-22459904D01*
X2971904Y-22167904D02*
X3467142Y-22167904D01*
X3200476Y-22472666D01*
X3314761Y-22472666D01*
X3390952Y-22510761D01*
X3429047Y-22548857D01*
X3467142Y-22625047D01*
X3467142Y-22815523D01*
X3429047Y-22891714D01*
X3390952Y-22929809D01*
X3314761Y-22967904D01*
X3086190Y-22967904D01*
X3010000Y-22929809D01*
X2971904Y-22891714D01*
X3810000Y-22891714D02*
X3848095Y-22929809D01*
X3810000Y-22967904D01*
X3771904Y-22929809D01*
X3810000Y-22891714D01*
X3810000Y-22967904D01*
X4114761Y-22167904D02*
X4610000Y-22167904D01*
X4343333Y-22472666D01*
X4457619Y-22472666D01*
X4533809Y-22510761D01*
X4571904Y-22548857D01*
X4610000Y-22625047D01*
X4610000Y-22815523D01*
X4571904Y-22891714D01*
X4533809Y-22929809D01*
X4457619Y-22967904D01*
X4229047Y-22967904D01*
X4152857Y-22929809D01*
X4114761Y-22891714D01*
X5416666Y-22040857D02*
X5683333Y-22040857D01*
X5797619Y-22459904D02*
X5416666Y-22459904D01*
X5416666Y-21659904D01*
X5797619Y-21659904D01*
X6102380Y-21736095D02*
X6140476Y-21698000D01*
X6216666Y-21659904D01*
X6407142Y-21659904D01*
X6483333Y-21698000D01*
X6521428Y-21736095D01*
X6559523Y-21812285D01*
X6559523Y-21888476D01*
X6521428Y-22002761D01*
X6064285Y-22459904D01*
X6559523Y-22459904D01*
X6826190Y-21659904D02*
X7359523Y-21659904D01*
X7016666Y-22459904D01*
X7956666Y-22548857D02*
X8223333Y-22548857D01*
X8337619Y-22967904D02*
X7956666Y-22967904D01*
X7956666Y-22167904D01*
X8337619Y-22167904D01*
X8642380Y-22244095D02*
X8680476Y-22206000D01*
X8756666Y-22167904D01*
X8947142Y-22167904D01*
X9023333Y-22206000D01*
X9061428Y-22244095D01*
X9099523Y-22320285D01*
X9099523Y-22396476D01*
X9061428Y-22510761D01*
X8604285Y-22967904D01*
X9099523Y-22967904D01*
X9785238Y-22167904D02*
X9632857Y-22167904D01*
X9556666Y-22206000D01*
X9518571Y-22244095D01*
X9442380Y-22358380D01*
X9404285Y-22510761D01*
X9404285Y-22815523D01*
X9442380Y-22891714D01*
X9480476Y-22929809D01*
X9556666Y-22967904D01*
X9709047Y-22967904D01*
X9785238Y-22929809D01*
X9823333Y-22891714D01*
X9861428Y-22815523D01*
X9861428Y-22625047D01*
X9823333Y-22548857D01*
X9785238Y-22510761D01*
X9709047Y-22472666D01*
X9556666Y-22472666D01*
X9480476Y-22510761D01*
X9442380Y-22548857D01*
X9404285Y-22625047D01*
X10496666Y-22040857D02*
X10763333Y-22040857D01*
X10877619Y-22459904D02*
X10496666Y-22459904D01*
X10496666Y-21659904D01*
X10877619Y-21659904D01*
X11182380Y-21736095D02*
X11220476Y-21698000D01*
X11296666Y-21659904D01*
X11487142Y-21659904D01*
X11563333Y-21698000D01*
X11601428Y-21736095D01*
X11639523Y-21812285D01*
X11639523Y-21888476D01*
X11601428Y-22002761D01*
X11144285Y-22459904D01*
X11639523Y-22459904D01*
X12363333Y-21659904D02*
X11982380Y-21659904D01*
X11944285Y-22040857D01*
X11982380Y-22002761D01*
X12058571Y-21964666D01*
X12249047Y-21964666D01*
X12325238Y-22002761D01*
X12363333Y-22040857D01*
X12401428Y-22117047D01*
X12401428Y-22307523D01*
X12363333Y-22383714D01*
X12325238Y-22421809D01*
X12249047Y-22459904D01*
X12058571Y-22459904D01*
X11982380Y-22421809D01*
X11944285Y-22383714D01*
X13036666Y-22548857D02*
X13303333Y-22548857D01*
X13417619Y-22967904D02*
X13036666Y-22967904D01*
X13036666Y-22167904D01*
X13417619Y-22167904D01*
X13722380Y-22244095D02*
X13760476Y-22206000D01*
X13836666Y-22167904D01*
X14027142Y-22167904D01*
X14103333Y-22206000D01*
X14141428Y-22244095D01*
X14179523Y-22320285D01*
X14179523Y-22396476D01*
X14141428Y-22510761D01*
X13684285Y-22967904D01*
X14179523Y-22967904D01*
X14865238Y-22434571D02*
X14865238Y-22967904D01*
X14674761Y-22129809D02*
X14484285Y-22701238D01*
X14979523Y-22701238D01*
X15576666Y-22040857D02*
X15843333Y-22040857D01*
X15957619Y-22459904D02*
X15576666Y-22459904D01*
X15576666Y-21659904D01*
X15957619Y-21659904D01*
X16262380Y-21736095D02*
X16300476Y-21698000D01*
X16376666Y-21659904D01*
X16567142Y-21659904D01*
X16643333Y-21698000D01*
X16681428Y-21736095D01*
X16719523Y-21812285D01*
X16719523Y-21888476D01*
X16681428Y-22002761D01*
X16224285Y-22459904D01*
X16719523Y-22459904D01*
X16986190Y-21659904D02*
X17481428Y-21659904D01*
X17214761Y-21964666D01*
X17329047Y-21964666D01*
X17405238Y-22002761D01*
X17443333Y-22040857D01*
X17481428Y-22117047D01*
X17481428Y-22307523D01*
X17443333Y-22383714D01*
X17405238Y-22421809D01*
X17329047Y-22459904D01*
X17100476Y-22459904D01*
X17024285Y-22421809D01*
X16986190Y-22383714D01*
X18116666Y-22548857D02*
X18383333Y-22548857D01*
X18497619Y-22967904D02*
X18116666Y-22967904D01*
X18116666Y-22167904D01*
X18497619Y-22167904D01*
X18802380Y-22244095D02*
X18840476Y-22206000D01*
X18916666Y-22167904D01*
X19107142Y-22167904D01*
X19183333Y-22206000D01*
X19221428Y-22244095D01*
X19259523Y-22320285D01*
X19259523Y-22396476D01*
X19221428Y-22510761D01*
X18764285Y-22967904D01*
X19259523Y-22967904D01*
X19564285Y-22244095D02*
X19602380Y-22206000D01*
X19678571Y-22167904D01*
X19869047Y-22167904D01*
X19945238Y-22206000D01*
X19983333Y-22244095D01*
X20021428Y-22320285D01*
X20021428Y-22396476D01*
X19983333Y-22510761D01*
X19526190Y-22967904D01*
X20021428Y-22967904D01*
X20656666Y-22040857D02*
X20923333Y-22040857D01*
X21037619Y-22459904D02*
X20656666Y-22459904D01*
X20656666Y-21659904D01*
X21037619Y-21659904D01*
X21342380Y-21736095D02*
X21380476Y-21698000D01*
X21456666Y-21659904D01*
X21647142Y-21659904D01*
X21723333Y-21698000D01*
X21761428Y-21736095D01*
X21799523Y-21812285D01*
X21799523Y-21888476D01*
X21761428Y-22002761D01*
X21304285Y-22459904D01*
X21799523Y-22459904D01*
X22561428Y-22459904D02*
X22104285Y-22459904D01*
X22332857Y-22459904D02*
X22332857Y-21659904D01*
X22256666Y-21774190D01*
X22180476Y-21850380D01*
X22104285Y-21888476D01*
X23196666Y-22548857D02*
X23463333Y-22548857D01*
X23577619Y-22967904D02*
X23196666Y-22967904D01*
X23196666Y-22167904D01*
X23577619Y-22167904D01*
X23882380Y-22244095D02*
X23920476Y-22206000D01*
X23996666Y-22167904D01*
X24187142Y-22167904D01*
X24263333Y-22206000D01*
X24301428Y-22244095D01*
X24339523Y-22320285D01*
X24339523Y-22396476D01*
X24301428Y-22510761D01*
X23844285Y-22967904D01*
X24339523Y-22967904D01*
X24834761Y-22167904D02*
X24910952Y-22167904D01*
X24987142Y-22206000D01*
X25025238Y-22244095D01*
X25063333Y-22320285D01*
X25101428Y-22472666D01*
X25101428Y-22663142D01*
X25063333Y-22815523D01*
X25025238Y-22891714D01*
X24987142Y-22929809D01*
X24910952Y-22967904D01*
X24834761Y-22967904D01*
X24758571Y-22929809D01*
X24720476Y-22891714D01*
X24682380Y-22815523D01*
X24644285Y-22663142D01*
X24644285Y-22472666D01*
X24682380Y-22320285D01*
X24720476Y-22244095D01*
X24758571Y-22206000D01*
X24834761Y-22167904D01*
X25482666Y-22294857D02*
X25749333Y-22294857D01*
X25863619Y-22713904D02*
X25482666Y-22713904D01*
X25482666Y-21913904D01*
X25863619Y-21913904D01*
X26625523Y-22713904D02*
X26168380Y-22713904D01*
X26396952Y-22713904D02*
X26396952Y-21913904D01*
X26320761Y-22028190D01*
X26244571Y-22104380D01*
X26168380Y-22142476D01*
X27006476Y-22713904D02*
X27158857Y-22713904D01*
X27235047Y-22675809D01*
X27273142Y-22637714D01*
X27349333Y-22523428D01*
X27387428Y-22371047D01*
X27387428Y-22066285D01*
X27349333Y-21990095D01*
X27311238Y-21952000D01*
X27235047Y-21913904D01*
X27082666Y-21913904D01*
X27006476Y-21952000D01*
X26968380Y-21990095D01*
X26930285Y-22066285D01*
X26930285Y-22256761D01*
X26968380Y-22332952D01*
X27006476Y-22371047D01*
X27082666Y-22409142D01*
X27235047Y-22409142D01*
X27311238Y-22371047D01*
X27349333Y-22332952D01*
X27387428Y-22256761D01*
D16*
X27885333Y-22810000D02*
X28118666Y-22810000D01*
X28218666Y-23176666D02*
X27885333Y-23176666D01*
X27885333Y-22476666D01*
X28218666Y-22476666D01*
X28885333Y-23176666D02*
X28485333Y-23176666D01*
X28685333Y-23176666D02*
X28685333Y-22476666D01*
X28618666Y-22576666D01*
X28552000Y-22643333D01*
X28485333Y-22676666D01*
X29285333Y-22776666D02*
X29218666Y-22743333D01*
X29185333Y-22710000D01*
X29152000Y-22643333D01*
X29152000Y-22610000D01*
X29185333Y-22543333D01*
X29218666Y-22510000D01*
X29285333Y-22476666D01*
X29418666Y-22476666D01*
X29485333Y-22510000D01*
X29518666Y-22543333D01*
X29552000Y-22610000D01*
X29552000Y-22643333D01*
X29518666Y-22710000D01*
X29485333Y-22743333D01*
X29418666Y-22776666D01*
X29285333Y-22776666D01*
X29218666Y-22810000D01*
X29185333Y-22843333D01*
X29152000Y-22910000D01*
X29152000Y-23043333D01*
X29185333Y-23110000D01*
X29218666Y-23143333D01*
X29285333Y-23176666D01*
X29418666Y-23176666D01*
X29485333Y-23143333D01*
X29518666Y-23110000D01*
X29552000Y-23043333D01*
X29552000Y-22910000D01*
X29518666Y-22843333D01*
X29485333Y-22810000D01*
X29418666Y-22776666D01*
D15*
X30430001Y-23210186D02*
X30618563Y-23021624D01*
X30995687Y-23237123D02*
X30726312Y-23506497D01*
X30160627Y-22940812D01*
X30430001Y-22671438D01*
X30995687Y-22590625D02*
X30914874Y-22617563D01*
X30861000Y-22617563D01*
X30780187Y-22590625D01*
X30753250Y-22563688D01*
X30726312Y-22482876D01*
X30726312Y-22429001D01*
X30753250Y-22348189D01*
X30861000Y-22240439D01*
X30941812Y-22213502D01*
X30995687Y-22213502D01*
X31076499Y-22240439D01*
X31103436Y-22267377D01*
X31130374Y-22348189D01*
X31130374Y-22402064D01*
X31103436Y-22482876D01*
X30995687Y-22590625D01*
X30968749Y-22671438D01*
X30968749Y-22725312D01*
X30995687Y-22806125D01*
X31103436Y-22913874D01*
X31184248Y-22940812D01*
X31238123Y-22940812D01*
X31318935Y-22913874D01*
X31426685Y-22806125D01*
X31453622Y-22725312D01*
X31453622Y-22671438D01*
X31426685Y-22590625D01*
X31318935Y-22482876D01*
X31238123Y-22455938D01*
X31184248Y-22455938D01*
X31103436Y-22482876D01*
D10*
X33204751Y-23313139D02*
X33346172Y-23171718D01*
X33629015Y-23333342D02*
X33426984Y-23535373D01*
X33002720Y-23111109D01*
X33204751Y-22909078D01*
X33831045Y-23131312D02*
X33911857Y-23050500D01*
X33932061Y-22989890D01*
X33932061Y-22949484D01*
X33911857Y-22848469D01*
X33851248Y-22747454D01*
X33689624Y-22585829D01*
X33629015Y-22565626D01*
X33588609Y-22565626D01*
X33528000Y-22585829D01*
X33447187Y-22666642D01*
X33426984Y-22727251D01*
X33426984Y-22767657D01*
X33447187Y-22828266D01*
X33548203Y-22929281D01*
X33608812Y-22949484D01*
X33649218Y-22949484D01*
X33709827Y-22929281D01*
X33790639Y-22848469D01*
X33810842Y-22787860D01*
X33810842Y-22747454D01*
X33790639Y-22686845D01*
X37114214Y-22753642D02*
X37314214Y-22753642D01*
X37399928Y-23067928D02*
X37114214Y-23067928D01*
X37114214Y-22467928D01*
X37399928Y-22467928D01*
X37599928Y-22467928D02*
X37999928Y-22467928D01*
X37742785Y-23067928D01*
D16*
X39902666Y-22810000D02*
X40136000Y-22810000D01*
X40236000Y-23176666D02*
X39902666Y-23176666D01*
X39902666Y-22476666D01*
X40236000Y-22476666D01*
X40836000Y-22476666D02*
X40702666Y-22476666D01*
X40636000Y-22510000D01*
X40602666Y-22543333D01*
X40536000Y-22643333D01*
X40502666Y-22776666D01*
X40502666Y-23043333D01*
X40536000Y-23110000D01*
X40569333Y-23143333D01*
X40636000Y-23176666D01*
X40769333Y-23176666D01*
X40836000Y-23143333D01*
X40869333Y-23110000D01*
X40902666Y-23043333D01*
X40902666Y-22876666D01*
X40869333Y-22810000D01*
X40836000Y-22776666D01*
X40769333Y-22743333D01*
X40636000Y-22743333D01*
X40569333Y-22776666D01*
X40536000Y-22810000D01*
X40502666Y-22876666D01*
D15*
X41865619Y-22294857D02*
X42132285Y-22294857D01*
X42246571Y-22713904D02*
X41865619Y-22713904D01*
X41865619Y-21913904D01*
X42246571Y-21913904D01*
X42970380Y-21913904D02*
X42589428Y-21913904D01*
X42551333Y-22294857D01*
X42589428Y-22256761D01*
X42665619Y-22218666D01*
X42856095Y-22218666D01*
X42932285Y-22256761D01*
X42970380Y-22294857D01*
X43008476Y-22371047D01*
X43008476Y-22561523D01*
X42970380Y-22637714D01*
X42932285Y-22675809D01*
X42856095Y-22713904D01*
X42665619Y-22713904D01*
X42589428Y-22675809D01*
X42551333Y-22637714D01*
X43897619Y-22548857D02*
X44164285Y-22548857D01*
X44278571Y-22967904D02*
X43897619Y-22967904D01*
X43897619Y-22167904D01*
X44278571Y-22167904D01*
X44964285Y-22434571D02*
X44964285Y-22967904D01*
X44773809Y-22129809D02*
X44583333Y-22701238D01*
X45078571Y-22701238D01*
X46380476Y-22421809D02*
X46494761Y-22459904D01*
X46685238Y-22459904D01*
X46761428Y-22421809D01*
X46799523Y-22383714D01*
X46837619Y-22307523D01*
X46837619Y-22231333D01*
X46799523Y-22155142D01*
X46761428Y-22117047D01*
X46685238Y-22078952D01*
X46532857Y-22040857D01*
X46456666Y-22002761D01*
X46418571Y-21964666D01*
X46380476Y-21888476D01*
X46380476Y-21812285D01*
X46418571Y-21736095D01*
X46456666Y-21698000D01*
X46532857Y-21659904D01*
X46723333Y-21659904D01*
X46837619Y-21698000D01*
X47561428Y-21659904D02*
X47180476Y-21659904D01*
X47142380Y-22040857D01*
X47180476Y-22002761D01*
X47256666Y-21964666D01*
X47447142Y-21964666D01*
X47523333Y-22002761D01*
X47561428Y-22040857D01*
X47599523Y-22117047D01*
X47599523Y-22307523D01*
X47561428Y-22383714D01*
X47523333Y-22421809D01*
X47447142Y-22459904D01*
X47256666Y-22459904D01*
X47180476Y-22421809D01*
X47142380Y-22383714D01*
X48920476Y-22929809D02*
X49034761Y-22967904D01*
X49225238Y-22967904D01*
X49301428Y-22929809D01*
X49339523Y-22891714D01*
X49377619Y-22815523D01*
X49377619Y-22739333D01*
X49339523Y-22663142D01*
X49301428Y-22625047D01*
X49225238Y-22586952D01*
X49072857Y-22548857D01*
X48996666Y-22510761D01*
X48958571Y-22472666D01*
X48920476Y-22396476D01*
X48920476Y-22320285D01*
X48958571Y-22244095D01*
X48996666Y-22206000D01*
X49072857Y-22167904D01*
X49263333Y-22167904D01*
X49377619Y-22206000D01*
X50063333Y-22434571D02*
X50063333Y-22967904D01*
X49872857Y-22129809D02*
X49682380Y-22701238D01*
X50177619Y-22701238D01*
X51460476Y-22421809D02*
X51574761Y-22459904D01*
X51765238Y-22459904D01*
X51841428Y-22421809D01*
X51879523Y-22383714D01*
X51917619Y-22307523D01*
X51917619Y-22231333D01*
X51879523Y-22155142D01*
X51841428Y-22117047D01*
X51765238Y-22078952D01*
X51612857Y-22040857D01*
X51536666Y-22002761D01*
X51498571Y-21964666D01*
X51460476Y-21888476D01*
X51460476Y-21812285D01*
X51498571Y-21736095D01*
X51536666Y-21698000D01*
X51612857Y-21659904D01*
X51803333Y-21659904D01*
X51917619Y-21698000D01*
X52184285Y-21659904D02*
X52679523Y-21659904D01*
X52412857Y-21964666D01*
X52527142Y-21964666D01*
X52603333Y-22002761D01*
X52641428Y-22040857D01*
X52679523Y-22117047D01*
X52679523Y-22307523D01*
X52641428Y-22383714D01*
X52603333Y-22421809D01*
X52527142Y-22459904D01*
X52298571Y-22459904D01*
X52222380Y-22421809D01*
X52184285Y-22383714D01*
X54000476Y-22929809D02*
X54114761Y-22967904D01*
X54305238Y-22967904D01*
X54381428Y-22929809D01*
X54419523Y-22891714D01*
X54457619Y-22815523D01*
X54457619Y-22739333D01*
X54419523Y-22663142D01*
X54381428Y-22625047D01*
X54305238Y-22586952D01*
X54152857Y-22548857D01*
X54076666Y-22510761D01*
X54038571Y-22472666D01*
X54000476Y-22396476D01*
X54000476Y-22320285D01*
X54038571Y-22244095D01*
X54076666Y-22206000D01*
X54152857Y-22167904D01*
X54343333Y-22167904D01*
X54457619Y-22206000D01*
X54762380Y-22244095D02*
X54800476Y-22206000D01*
X54876666Y-22167904D01*
X55067142Y-22167904D01*
X55143333Y-22206000D01*
X55181428Y-22244095D01*
X55219523Y-22320285D01*
X55219523Y-22396476D01*
X55181428Y-22510761D01*
X54724285Y-22967904D01*
X55219523Y-22967904D01*
X59080476Y-22929809D02*
X59194761Y-22967904D01*
X59385238Y-22967904D01*
X59461428Y-22929809D01*
X59499523Y-22891714D01*
X59537619Y-22815523D01*
X59537619Y-22739333D01*
X59499523Y-22663142D01*
X59461428Y-22625047D01*
X59385238Y-22586952D01*
X59232857Y-22548857D01*
X59156666Y-22510761D01*
X59118571Y-22472666D01*
X59080476Y-22396476D01*
X59080476Y-22320285D01*
X59118571Y-22244095D01*
X59156666Y-22206000D01*
X59232857Y-22167904D01*
X59423333Y-22167904D01*
X59537619Y-22206000D01*
X60032857Y-22167904D02*
X60109047Y-22167904D01*
X60185238Y-22206000D01*
X60223333Y-22244095D01*
X60261428Y-22320285D01*
X60299523Y-22472666D01*
X60299523Y-22663142D01*
X60261428Y-22815523D01*
X60223333Y-22891714D01*
X60185238Y-22929809D01*
X60109047Y-22967904D01*
X60032857Y-22967904D01*
X59956666Y-22929809D01*
X59918571Y-22891714D01*
X59880476Y-22815523D01*
X59842380Y-22663142D01*
X59842380Y-22472666D01*
X59880476Y-22320285D01*
X59918571Y-22244095D01*
X59956666Y-22206000D01*
X60032857Y-22167904D01*
X62077619Y-21913904D02*
X61696666Y-21913904D01*
X61658571Y-22294857D01*
X61696666Y-22256761D01*
X61772857Y-22218666D01*
X61963333Y-22218666D01*
X62039523Y-22256761D01*
X62077619Y-22294857D01*
X62115714Y-22371047D01*
X62115714Y-22561523D01*
X62077619Y-22637714D01*
X62039523Y-22675809D01*
X61963333Y-22713904D01*
X61772857Y-22713904D01*
X61696666Y-22675809D01*
X61658571Y-22637714D01*
X62344285Y-21913904D02*
X62610952Y-22713904D01*
X62877619Y-21913904D01*
X64033476Y-22206000D02*
X63957285Y-22167904D01*
X63843000Y-22167904D01*
X63728714Y-22206000D01*
X63652523Y-22282190D01*
X63614428Y-22358380D01*
X63576333Y-22510761D01*
X63576333Y-22625047D01*
X63614428Y-22777428D01*
X63652523Y-22853619D01*
X63728714Y-22929809D01*
X63843000Y-22967904D01*
X63919190Y-22967904D01*
X64033476Y-22929809D01*
X64071571Y-22891714D01*
X64071571Y-22625047D01*
X63919190Y-22625047D01*
X64414428Y-22967904D02*
X64414428Y-22167904D01*
X64871571Y-22967904D01*
X64871571Y-22167904D01*
X65252523Y-22967904D02*
X65252523Y-22167904D01*
X65443000Y-22167904D01*
X65557285Y-22206000D01*
X65633476Y-22282190D01*
X65671571Y-22358380D01*
X65709666Y-22510761D01*
X65709666Y-22625047D01*
X65671571Y-22777428D01*
X65633476Y-22853619D01*
X65557285Y-22929809D01*
X65443000Y-22967904D01*
X65252523Y-22967904D01*
X56540476Y-22675809D02*
X56654761Y-22713904D01*
X56845238Y-22713904D01*
X56921428Y-22675809D01*
X56959523Y-22637714D01*
X56997619Y-22561523D01*
X56997619Y-22485333D01*
X56959523Y-22409142D01*
X56921428Y-22371047D01*
X56845238Y-22332952D01*
X56692857Y-22294857D01*
X56616666Y-22256761D01*
X56578571Y-22218666D01*
X56540476Y-22142476D01*
X56540476Y-22066285D01*
X56578571Y-21990095D01*
X56616666Y-21952000D01*
X56692857Y-21913904D01*
X56883333Y-21913904D01*
X56997619Y-21952000D01*
X57759523Y-22713904D02*
X57302380Y-22713904D01*
X57530952Y-22713904D02*
X57530952Y-21913904D01*
X57454761Y-22028190D01*
X57378571Y-22104380D01*
X57302380Y-22142476D01*
D14*
G04 #@! TO.C,C28*
X45498273Y-16374522D02*
X45728478Y-16604727D01*
X46219522Y-15653273D02*
X46449727Y-15883478D01*
G04 #@! TO.C,C4*
X42953721Y-6796500D02*
X43279279Y-6796500D01*
X42953721Y-5776500D02*
X43279279Y-5776500D01*
G04 #@! TO.C,C2*
X54735000Y-5369779D02*
X54735000Y-5044221D01*
X55755000Y-5369779D02*
X55755000Y-5044221D01*
G04 #@! TO.C,C3*
X49341500Y-5107721D02*
X49341500Y-5433279D01*
X48321500Y-5107721D02*
X48321500Y-5433279D01*
G04 #@! TO.C,C9*
X29431727Y-4246022D02*
X29201522Y-4476227D01*
X28710478Y-3524773D02*
X28480273Y-3754978D01*
G04 #@! TO.C,C11*
X40223221Y-3685000D02*
X40548779Y-3685000D01*
X40223221Y-2665000D02*
X40548779Y-2665000D01*
G04 #@! TO.C,C15*
X43842721Y-4510500D02*
X44168279Y-4510500D01*
X43842721Y-3490500D02*
X44168279Y-3490500D01*
G04 #@! TO.C,C19*
X48351221Y-8697500D02*
X48676779Y-8697500D01*
X48351221Y-9717500D02*
X48676779Y-9717500D01*
G04 #@! TO.C,C29*
X61914500Y-17180779D02*
X61914500Y-16855221D01*
X60894500Y-17180779D02*
X60894500Y-16855221D01*
G04 #@! TO.C,D1*
X65062000Y-18315000D02*
X62777000Y-18315000D01*
X62777000Y-18315000D02*
X62777000Y-19785000D01*
X62777000Y-19785000D02*
X65062000Y-19785000D01*
G04 #@! TO.C,D2*
X62777000Y-16737000D02*
X65062000Y-16737000D01*
X62777000Y-15267000D02*
X62777000Y-16737000D01*
X65062000Y-15267000D02*
X62777000Y-15267000D01*
G04 #@! TO.C,J3*
X12640000Y-10220000D02*
X17840000Y-10220000D01*
X12640000Y-7620000D02*
X12640000Y-10220000D01*
X17840000Y-5020000D02*
X17840000Y-10220000D01*
X12640000Y-7620000D02*
X15240000Y-7620000D01*
X15240000Y-7620000D02*
X15240000Y-5020000D01*
X15240000Y-5020000D02*
X17840000Y-5020000D01*
X12640000Y-6350000D02*
X12640000Y-5020000D01*
X12640000Y-5020000D02*
X13970000Y-5020000D01*
G04 #@! TO.C,J4*
X61737500Y-12155000D02*
X61737500Y-11705000D01*
X63587500Y-12155000D02*
X61737500Y-12155000D01*
X66137500Y-4355000D02*
X65887500Y-4355000D01*
X66137500Y-12155000D02*
X65887500Y-12155000D01*
X63587500Y-4355000D02*
X61737500Y-4355000D01*
X61737500Y-4355000D02*
X61737500Y-4805000D01*
X61187500Y-9955000D02*
X61187500Y-9505000D01*
X61187500Y-9955000D02*
X61637500Y-9955000D01*
G04 #@! TO.C,J5*
X5020000Y-20380000D02*
X7680000Y-20380000D01*
X5020000Y-10160000D02*
X5020000Y-20380000D01*
X7680000Y-10160000D02*
X7680000Y-20380000D01*
X5020000Y-10160000D02*
X7680000Y-10160000D01*
X5020000Y-8890000D02*
X5020000Y-7560000D01*
X5020000Y-7560000D02*
X6350000Y-7560000D01*
G04 #@! TO.C,L1*
X25223112Y-4189296D02*
X25588796Y-3823612D01*
X26227204Y-5193388D02*
X26592888Y-4827704D01*
G04 #@! TO.C,R1*
X21558773Y-14342522D02*
X21788978Y-14572727D01*
X22280022Y-13621273D02*
X22510227Y-13851478D01*
G04 #@! TO.C,R2*
X11686000Y-6512779D02*
X11686000Y-6187221D01*
X10666000Y-6512779D02*
X10666000Y-6187221D01*
G04 #@! TO.C,R3*
X18794000Y-6512779D02*
X18794000Y-6187221D01*
X19814000Y-6512779D02*
X19814000Y-6187221D01*
G04 #@! TO.C,R4*
X54899779Y-15750000D02*
X54574221Y-15750000D01*
X54899779Y-14730000D02*
X54574221Y-14730000D01*
G04 #@! TO.C,R5*
X58074779Y-14730000D02*
X57749221Y-14730000D01*
X58074779Y-15750000D02*
X57749221Y-15750000D01*
G04 #@! TO.C,R6*
X51589721Y-8697500D02*
X51915279Y-8697500D01*
X51589721Y-9717500D02*
X51915279Y-9717500D01*
G04 #@! TO.C,R7*
X60894500Y-20030221D02*
X60894500Y-20355779D01*
X61914500Y-20030221D02*
X61914500Y-20355779D01*
G04 #@! TO.C,R8*
X64099221Y-20064000D02*
X64424779Y-20064000D01*
X64099221Y-21084000D02*
X64424779Y-21084000D01*
G04 #@! TO.C,R9*
X64424779Y-14988000D02*
X64099221Y-14988000D01*
X64424779Y-13968000D02*
X64099221Y-13968000D01*
G04 #@! TO.C,SW1*
X58813000Y-14042000D02*
X52693000Y-14042000D01*
X52693000Y-14042000D02*
X52693000Y-10342000D01*
X52693000Y-10342000D02*
X58813000Y-10342000D01*
X58813000Y-10342000D02*
X58813000Y-14042000D01*
D10*
G04 #@! TO.C,U1*
X34290000Y-22776272D02*
X34749619Y-22316652D01*
X24213728Y-12700000D02*
X24751130Y-12162599D01*
X34290000Y-2623728D02*
X33752599Y-3161130D01*
X44366272Y-12700000D02*
X43828870Y-13237401D01*
X34290000Y-22776272D02*
X33752599Y-22238870D01*
X44366272Y-12700000D02*
X43828870Y-12162599D01*
X34290000Y-2623728D02*
X34827401Y-3161130D01*
X24213728Y-12700000D02*
X24751130Y-13237401D01*
X34749619Y-22316652D02*
X35827957Y-23394990D01*
G04 #@! TO.C,U2*
X13419000Y-12220500D02*
X13419000Y-12270500D01*
X17569000Y-12220500D02*
X17569000Y-12365500D01*
X17569000Y-17370500D02*
X17569000Y-17225500D01*
X13419000Y-17370500D02*
X13419000Y-17225500D01*
X13419000Y-12220500D02*
X17569000Y-12220500D01*
X13419000Y-17370500D02*
X17569000Y-17370500D01*
X13419000Y-12270500D02*
X12019000Y-12270500D01*
D14*
G04 #@! TO.C,U3*
X57393000Y-19580500D02*
X59193000Y-19580500D01*
X59193000Y-16360500D02*
X56743000Y-16360500D01*
G04 #@! TO.C,Y1*
X50070000Y-3493500D02*
X50070000Y-6793500D01*
X50070000Y-6793500D02*
X54070000Y-6793500D01*
G04 #@! TO.C,L2*
X52991936Y-18579000D02*
X54196064Y-18579000D01*
X52991936Y-21299000D02*
X54196064Y-21299000D01*
G04 #@! TO.C,L3*
X46682111Y-15267942D02*
X47533558Y-16119389D01*
X48605442Y-13344611D02*
X49456889Y-14196058D01*
G04 #@! TO.C,C17*
X54097422Y-16435000D02*
X54614578Y-16435000D01*
X54097422Y-17855000D02*
X54614578Y-17855000D01*
G04 #@! TO.C,C24*
X58615078Y-21665000D02*
X58097922Y-21665000D01*
X58615078Y-20245000D02*
X58097922Y-20245000D01*
G04 #@! TO.C,C23*
X47683922Y-10339000D02*
X48201078Y-10339000D01*
X47683922Y-11759000D02*
X48201078Y-11759000D01*
G04 #@! TO.C,C28*
D10*
X47694315Y-18126375D02*
X47640440Y-18126375D01*
X47532691Y-18072500D01*
X47478816Y-18018625D01*
X47424941Y-17910876D01*
X47424941Y-17803126D01*
X47451878Y-17722314D01*
X47532691Y-17587627D01*
X47613503Y-17506815D01*
X47748190Y-17426003D01*
X47829002Y-17399065D01*
X47936752Y-17399065D01*
X48044501Y-17452940D01*
X48098376Y-17506815D01*
X48152251Y-17614564D01*
X48152251Y-17668439D01*
X48367750Y-17883938D02*
X48421625Y-17883938D01*
X48502437Y-17910876D01*
X48637124Y-18045563D01*
X48664062Y-18126375D01*
X48664062Y-18180250D01*
X48637124Y-18261062D01*
X48583249Y-18314937D01*
X48475500Y-18368812D01*
X47829002Y-18368812D01*
X48179188Y-18718998D01*
X48825686Y-18718998D02*
X48798749Y-18638186D01*
X48798749Y-18584311D01*
X48825686Y-18503499D01*
X48852623Y-18476561D01*
X48933436Y-18449624D01*
X48987310Y-18449624D01*
X49068123Y-18476561D01*
X49175872Y-18584311D01*
X49202810Y-18665123D01*
X49202810Y-18718998D01*
X49175872Y-18799810D01*
X49148935Y-18826748D01*
X49068123Y-18853685D01*
X49014248Y-18853685D01*
X48933436Y-18826748D01*
X48825686Y-18718998D01*
X48744874Y-18692061D01*
X48690999Y-18692061D01*
X48610187Y-18718998D01*
X48502437Y-18826748D01*
X48475500Y-18907560D01*
X48475500Y-18961435D01*
X48502437Y-19042247D01*
X48610187Y-19149996D01*
X48690999Y-19176934D01*
X48744874Y-19176934D01*
X48825686Y-19149996D01*
X48933436Y-19042247D01*
X48960373Y-18961435D01*
X48960373Y-18907560D01*
X48933436Y-18826748D01*
G04 #@! TO.C,C4*
X45586666Y-6635714D02*
X45548571Y-6673809D01*
X45434285Y-6711904D01*
X45358095Y-6711904D01*
X45243809Y-6673809D01*
X45167619Y-6597619D01*
X45129523Y-6521428D01*
X45091428Y-6369047D01*
X45091428Y-6254761D01*
X45129523Y-6102380D01*
X45167619Y-6026190D01*
X45243809Y-5950000D01*
X45358095Y-5911904D01*
X45434285Y-5911904D01*
X45548571Y-5950000D01*
X45586666Y-5988095D01*
X46272380Y-6178571D02*
X46272380Y-6711904D01*
X46081904Y-5873809D02*
X45891428Y-6445238D01*
X46386666Y-6445238D01*
G04 #@! TO.C,C2*
X56800714Y-6102333D02*
X56838809Y-6140428D01*
X56876904Y-6254714D01*
X56876904Y-6330904D01*
X56838809Y-6445190D01*
X56762619Y-6521380D01*
X56686428Y-6559476D01*
X56534047Y-6597571D01*
X56419761Y-6597571D01*
X56267380Y-6559476D01*
X56191190Y-6521380D01*
X56115000Y-6445190D01*
X56076904Y-6330904D01*
X56076904Y-6254714D01*
X56115000Y-6140428D01*
X56153095Y-6102333D01*
X56153095Y-5797571D02*
X56115000Y-5759476D01*
X56076904Y-5683285D01*
X56076904Y-5492809D01*
X56115000Y-5416619D01*
X56153095Y-5378523D01*
X56229285Y-5340428D01*
X56305476Y-5340428D01*
X56419761Y-5378523D01*
X56876904Y-5835666D01*
X56876904Y-5340428D01*
G04 #@! TO.C,C3*
X47910714Y-6102333D02*
X47948809Y-6140428D01*
X47986904Y-6254714D01*
X47986904Y-6330904D01*
X47948809Y-6445190D01*
X47872619Y-6521380D01*
X47796428Y-6559476D01*
X47644047Y-6597571D01*
X47529761Y-6597571D01*
X47377380Y-6559476D01*
X47301190Y-6521380D01*
X47225000Y-6445190D01*
X47186904Y-6330904D01*
X47186904Y-6254714D01*
X47225000Y-6140428D01*
X47263095Y-6102333D01*
X47186904Y-5835666D02*
X47186904Y-5340428D01*
X47491666Y-5607095D01*
X47491666Y-5492809D01*
X47529761Y-5416619D01*
X47567857Y-5378523D01*
X47644047Y-5340428D01*
X47834523Y-5340428D01*
X47910714Y-5378523D01*
X47948809Y-5416619D01*
X47986904Y-5492809D01*
X47986904Y-5721380D01*
X47948809Y-5797571D01*
X47910714Y-5835666D01*
G04 #@! TO.C,C5*
X19805666Y-11461714D02*
X19767571Y-11499809D01*
X19653285Y-11537904D01*
X19577095Y-11537904D01*
X19462809Y-11499809D01*
X19386619Y-11423619D01*
X19348523Y-11347428D01*
X19310428Y-11195047D01*
X19310428Y-11080761D01*
X19348523Y-10928380D01*
X19386619Y-10852190D01*
X19462809Y-10776000D01*
X19577095Y-10737904D01*
X19653285Y-10737904D01*
X19767571Y-10776000D01*
X19805666Y-10814095D01*
X20529476Y-10737904D02*
X20148523Y-10737904D01*
X20110428Y-11118857D01*
X20148523Y-11080761D01*
X20224714Y-11042666D01*
X20415190Y-11042666D01*
X20491380Y-11080761D01*
X20529476Y-11118857D01*
X20567571Y-11195047D01*
X20567571Y-11385523D01*
X20529476Y-11461714D01*
X20491380Y-11499809D01*
X20415190Y-11537904D01*
X20224714Y-11537904D01*
X20148523Y-11499809D01*
X20110428Y-11461714D01*
G04 #@! TO.C,C6*
X39490666Y-21240714D02*
X39452571Y-21278809D01*
X39338285Y-21316904D01*
X39262095Y-21316904D01*
X39147809Y-21278809D01*
X39071619Y-21202619D01*
X39033523Y-21126428D01*
X38995428Y-20974047D01*
X38995428Y-20859761D01*
X39033523Y-20707380D01*
X39071619Y-20631190D01*
X39147809Y-20555000D01*
X39262095Y-20516904D01*
X39338285Y-20516904D01*
X39452571Y-20555000D01*
X39490666Y-20593095D01*
X40176380Y-20516904D02*
X40024000Y-20516904D01*
X39947809Y-20555000D01*
X39909714Y-20593095D01*
X39833523Y-20707380D01*
X39795428Y-20859761D01*
X39795428Y-21164523D01*
X39833523Y-21240714D01*
X39871619Y-21278809D01*
X39947809Y-21316904D01*
X40100190Y-21316904D01*
X40176380Y-21278809D01*
X40214476Y-21240714D01*
X40252571Y-21164523D01*
X40252571Y-20974047D01*
X40214476Y-20897857D01*
X40176380Y-20859761D01*
X40100190Y-20821666D01*
X39947809Y-20821666D01*
X39871619Y-20859761D01*
X39833523Y-20897857D01*
X39795428Y-20974047D01*
G04 #@! TO.C,C7*
X45042688Y-18776749D02*
X44988813Y-18776749D01*
X44881064Y-18722874D01*
X44827189Y-18668999D01*
X44773314Y-18561250D01*
X44773314Y-18453500D01*
X44800251Y-18372688D01*
X44881064Y-18238001D01*
X44961876Y-18157189D01*
X45096563Y-18076377D01*
X45177375Y-18049439D01*
X45285125Y-18049439D01*
X45392874Y-18103314D01*
X45446749Y-18157189D01*
X45500624Y-18264938D01*
X45500624Y-18318813D01*
X45743061Y-18453500D02*
X46120184Y-18830624D01*
X45312062Y-19153873D01*
G04 #@! TO.C,C8*
X26269749Y-7535311D02*
X26269749Y-7589186D01*
X26215874Y-7696935D01*
X26162000Y-7750810D01*
X26054250Y-7804685D01*
X25946500Y-7804685D01*
X25865688Y-7777748D01*
X25731001Y-7696935D01*
X25650189Y-7616123D01*
X25569377Y-7481436D01*
X25542439Y-7400624D01*
X25542439Y-7292874D01*
X25596314Y-7185125D01*
X25650189Y-7131250D01*
X25757938Y-7077375D01*
X25811813Y-7077375D01*
X26323624Y-6942688D02*
X26242812Y-6969625D01*
X26188937Y-6969625D01*
X26108125Y-6942688D01*
X26081187Y-6915751D01*
X26054250Y-6834938D01*
X26054250Y-6781064D01*
X26081187Y-6700251D01*
X26188937Y-6592502D01*
X26269749Y-6565564D01*
X26323624Y-6565564D01*
X26404436Y-6592502D01*
X26431374Y-6619439D01*
X26458311Y-6700251D01*
X26458311Y-6754126D01*
X26431374Y-6834938D01*
X26323624Y-6942688D01*
X26296687Y-7023500D01*
X26296687Y-7077375D01*
X26323624Y-7158187D01*
X26431374Y-7265937D01*
X26512186Y-7292874D01*
X26566061Y-7292874D01*
X26646873Y-7265937D01*
X26754622Y-7158187D01*
X26781560Y-7077375D01*
X26781560Y-7023500D01*
X26754622Y-6942688D01*
X26646873Y-6834938D01*
X26566061Y-6808001D01*
X26512186Y-6808001D01*
X26431374Y-6834938D01*
G04 #@! TO.C,C10*
X21849814Y-6823375D02*
X21795939Y-6823375D01*
X21688190Y-6769500D01*
X21634315Y-6715625D01*
X21580440Y-6607876D01*
X21580440Y-6500126D01*
X21607377Y-6419314D01*
X21688190Y-6284627D01*
X21769002Y-6203815D01*
X21903689Y-6123003D01*
X21984501Y-6096065D01*
X22092251Y-6096065D01*
X22200000Y-6149940D01*
X22253875Y-6203815D01*
X22307750Y-6311564D01*
X22307750Y-6365439D01*
X22334687Y-7415998D02*
X22011438Y-7092749D01*
X22173063Y-7254374D02*
X22738748Y-6688688D01*
X22604061Y-6715625D01*
X22496312Y-6715625D01*
X22415500Y-6688688D01*
X23250559Y-7200499D02*
X23304434Y-7254374D01*
X23331371Y-7335186D01*
X23331371Y-7389061D01*
X23304434Y-7469873D01*
X23223622Y-7604560D01*
X23088935Y-7739247D01*
X22954248Y-7820059D01*
X22873435Y-7846996D01*
X22819561Y-7846996D01*
X22738748Y-7820059D01*
X22684874Y-7766184D01*
X22657936Y-7685372D01*
X22657936Y-7631497D01*
X22684874Y-7550685D01*
X22765686Y-7415998D01*
X22900373Y-7281311D01*
X23035060Y-7200499D01*
X23115872Y-7173561D01*
X23169747Y-7173561D01*
X23250559Y-7200499D01*
G04 #@! TO.C,C11*
X39871714Y-4730714D02*
X39833619Y-4768809D01*
X39719333Y-4806904D01*
X39643142Y-4806904D01*
X39528857Y-4768809D01*
X39452666Y-4692619D01*
X39414571Y-4616428D01*
X39376476Y-4464047D01*
X39376476Y-4349761D01*
X39414571Y-4197380D01*
X39452666Y-4121190D01*
X39528857Y-4045000D01*
X39643142Y-4006904D01*
X39719333Y-4006904D01*
X39833619Y-4045000D01*
X39871714Y-4083095D01*
X40633619Y-4806904D02*
X40176476Y-4806904D01*
X40405047Y-4806904D02*
X40405047Y-4006904D01*
X40328857Y-4121190D01*
X40252666Y-4197380D01*
X40176476Y-4235476D01*
X41395523Y-4806904D02*
X40938380Y-4806904D01*
X41166952Y-4806904D02*
X41166952Y-4006904D01*
X41090761Y-4121190D01*
X41014571Y-4197380D01*
X40938380Y-4235476D01*
G04 #@! TO.C,C12*
X19932714Y-17303714D02*
X19894619Y-17341809D01*
X19780333Y-17379904D01*
X19704142Y-17379904D01*
X19589857Y-17341809D01*
X19513666Y-17265619D01*
X19475571Y-17189428D01*
X19437476Y-17037047D01*
X19437476Y-16922761D01*
X19475571Y-16770380D01*
X19513666Y-16694190D01*
X19589857Y-16618000D01*
X19704142Y-16579904D01*
X19780333Y-16579904D01*
X19894619Y-16618000D01*
X19932714Y-16656095D01*
X20694619Y-17379904D02*
X20237476Y-17379904D01*
X20466047Y-17379904D02*
X20466047Y-16579904D01*
X20389857Y-16694190D01*
X20313666Y-16770380D01*
X20237476Y-16808476D01*
X20999380Y-16656095D02*
X21037476Y-16618000D01*
X21113666Y-16579904D01*
X21304142Y-16579904D01*
X21380333Y-16618000D01*
X21418428Y-16656095D01*
X21456523Y-16732285D01*
X21456523Y-16808476D01*
X21418428Y-16922761D01*
X20961285Y-17379904D01*
X21456523Y-17379904D01*
G04 #@! TO.C,C13*
X45332714Y-8032714D02*
X45294619Y-8070809D01*
X45180333Y-8108904D01*
X45104142Y-8108904D01*
X44989857Y-8070809D01*
X44913666Y-7994619D01*
X44875571Y-7918428D01*
X44837476Y-7766047D01*
X44837476Y-7651761D01*
X44875571Y-7499380D01*
X44913666Y-7423190D01*
X44989857Y-7347000D01*
X45104142Y-7308904D01*
X45180333Y-7308904D01*
X45294619Y-7347000D01*
X45332714Y-7385095D01*
X46094619Y-8108904D02*
X45637476Y-8108904D01*
X45866047Y-8108904D02*
X45866047Y-7308904D01*
X45789857Y-7423190D01*
X45713666Y-7499380D01*
X45637476Y-7537476D01*
X46361285Y-7308904D02*
X46856523Y-7308904D01*
X46589857Y-7613666D01*
X46704142Y-7613666D01*
X46780333Y-7651761D01*
X46818428Y-7689857D01*
X46856523Y-7766047D01*
X46856523Y-7956523D01*
X46818428Y-8032714D01*
X46780333Y-8070809D01*
X46704142Y-8108904D01*
X46475571Y-8108904D01*
X46399380Y-8070809D01*
X46361285Y-8032714D01*
G04 #@! TO.C,C14*
X28570285Y-21296285D02*
X28541714Y-21324857D01*
X28456000Y-21353428D01*
X28398857Y-21353428D01*
X28313142Y-21324857D01*
X28256000Y-21267714D01*
X28227428Y-21210571D01*
X28198857Y-21096285D01*
X28198857Y-21010571D01*
X28227428Y-20896285D01*
X28256000Y-20839142D01*
X28313142Y-20782000D01*
X28398857Y-20753428D01*
X28456000Y-20753428D01*
X28541714Y-20782000D01*
X28570285Y-20810571D01*
X29141714Y-21353428D02*
X28798857Y-21353428D01*
X28970285Y-21353428D02*
X28970285Y-20753428D01*
X28913142Y-20839142D01*
X28856000Y-20896285D01*
X28798857Y-20924857D01*
X29656000Y-20953428D02*
X29656000Y-21353428D01*
X29513142Y-20724857D02*
X29370285Y-21153428D01*
X29741714Y-21153428D01*
G04 #@! TO.C,C15*
X44189714Y-5365714D02*
X44151619Y-5403809D01*
X44037333Y-5441904D01*
X43961142Y-5441904D01*
X43846857Y-5403809D01*
X43770666Y-5327619D01*
X43732571Y-5251428D01*
X43694476Y-5099047D01*
X43694476Y-4984761D01*
X43732571Y-4832380D01*
X43770666Y-4756190D01*
X43846857Y-4680000D01*
X43961142Y-4641904D01*
X44037333Y-4641904D01*
X44151619Y-4680000D01*
X44189714Y-4718095D01*
X44951619Y-5441904D02*
X44494476Y-5441904D01*
X44723047Y-5441904D02*
X44723047Y-4641904D01*
X44646857Y-4756190D01*
X44570666Y-4832380D01*
X44494476Y-4870476D01*
X45675428Y-4641904D02*
X45294476Y-4641904D01*
X45256380Y-5022857D01*
X45294476Y-4984761D01*
X45370666Y-4946666D01*
X45561142Y-4946666D01*
X45637333Y-4984761D01*
X45675428Y-5022857D01*
X45713523Y-5099047D01*
X45713523Y-5289523D01*
X45675428Y-5365714D01*
X45637333Y-5403809D01*
X45561142Y-5441904D01*
X45370666Y-5441904D01*
X45294476Y-5403809D01*
X45256380Y-5365714D01*
G04 #@! TO.C,C18*
X44138314Y-19840875D02*
X44084439Y-19840875D01*
X43976690Y-19787000D01*
X43922815Y-19733125D01*
X43868940Y-19625376D01*
X43868940Y-19517626D01*
X43895877Y-19436814D01*
X43976690Y-19302127D01*
X44057502Y-19221315D01*
X44192189Y-19140503D01*
X44273001Y-19113565D01*
X44380751Y-19113565D01*
X44488500Y-19167440D01*
X44542375Y-19221315D01*
X44596250Y-19329064D01*
X44596250Y-19382939D01*
X44623187Y-20433498D02*
X44299938Y-20110249D01*
X44461563Y-20271874D02*
X45027248Y-19706188D01*
X44892561Y-19733125D01*
X44784812Y-19733125D01*
X44704000Y-19706188D01*
X45269685Y-20433498D02*
X45242748Y-20352686D01*
X45242748Y-20298811D01*
X45269685Y-20217999D01*
X45296622Y-20191061D01*
X45377435Y-20164124D01*
X45431309Y-20164124D01*
X45512122Y-20191061D01*
X45619871Y-20298811D01*
X45646809Y-20379623D01*
X45646809Y-20433498D01*
X45619871Y-20514310D01*
X45592934Y-20541248D01*
X45512122Y-20568185D01*
X45458247Y-20568185D01*
X45377435Y-20541248D01*
X45269685Y-20433498D01*
X45188873Y-20406561D01*
X45134998Y-20406561D01*
X45054186Y-20433498D01*
X44946436Y-20541248D01*
X44919499Y-20622060D01*
X44919499Y-20675935D01*
X44946436Y-20756747D01*
X45054186Y-20864496D01*
X45134998Y-20891434D01*
X45188873Y-20891434D01*
X45269685Y-20864496D01*
X45377435Y-20756747D01*
X45404372Y-20675935D01*
X45404372Y-20622060D01*
X45377435Y-20541248D01*
G04 #@! TO.C,C19*
X47999714Y-8286714D02*
X47961619Y-8324809D01*
X47847333Y-8362904D01*
X47771142Y-8362904D01*
X47656857Y-8324809D01*
X47580666Y-8248619D01*
X47542571Y-8172428D01*
X47504476Y-8020047D01*
X47504476Y-7905761D01*
X47542571Y-7753380D01*
X47580666Y-7677190D01*
X47656857Y-7601000D01*
X47771142Y-7562904D01*
X47847333Y-7562904D01*
X47961619Y-7601000D01*
X47999714Y-7639095D01*
X48761619Y-8362904D02*
X48304476Y-8362904D01*
X48533047Y-8362904D02*
X48533047Y-7562904D01*
X48456857Y-7677190D01*
X48380666Y-7753380D01*
X48304476Y-7791476D01*
X49142571Y-8362904D02*
X49294952Y-8362904D01*
X49371142Y-8324809D01*
X49409238Y-8286714D01*
X49485428Y-8172428D01*
X49523523Y-8020047D01*
X49523523Y-7715285D01*
X49485428Y-7639095D01*
X49447333Y-7601000D01*
X49371142Y-7562904D01*
X49218761Y-7562904D01*
X49142571Y-7601000D01*
X49104476Y-7639095D01*
X49066380Y-7715285D01*
X49066380Y-7905761D01*
X49104476Y-7981952D01*
X49142571Y-8020047D01*
X49218761Y-8058142D01*
X49371142Y-8058142D01*
X49447333Y-8020047D01*
X49485428Y-7981952D01*
X49523523Y-7905761D01*
G04 #@! TO.C,C20*
X45812375Y-10852685D02*
X45812375Y-10906560D01*
X45758500Y-11014309D01*
X45704625Y-11068184D01*
X45596876Y-11122059D01*
X45489126Y-11122059D01*
X45408314Y-11095122D01*
X45273627Y-11014309D01*
X45192815Y-10933497D01*
X45112003Y-10798810D01*
X45085065Y-10717998D01*
X45085065Y-10610248D01*
X45138940Y-10502499D01*
X45192815Y-10448624D01*
X45300564Y-10394749D01*
X45354439Y-10394749D01*
X45569938Y-10179250D02*
X45569938Y-10125375D01*
X45596876Y-10044563D01*
X45731563Y-9909876D01*
X45812375Y-9882938D01*
X45866250Y-9882938D01*
X45947062Y-9909876D01*
X46000937Y-9963751D01*
X46054812Y-10071500D01*
X46054812Y-10717998D01*
X46404998Y-10367812D01*
X46189499Y-9451940D02*
X46243374Y-9398065D01*
X46324186Y-9371128D01*
X46378061Y-9371128D01*
X46458873Y-9398065D01*
X46593560Y-9478877D01*
X46728247Y-9613564D01*
X46809059Y-9748251D01*
X46835996Y-9829064D01*
X46835996Y-9882938D01*
X46809059Y-9963751D01*
X46755184Y-10017625D01*
X46674372Y-10044563D01*
X46620497Y-10044563D01*
X46539685Y-10017625D01*
X46404998Y-9936813D01*
X46270311Y-9802126D01*
X46189499Y-9667439D01*
X46162561Y-9586627D01*
X46162561Y-9532752D01*
X46189499Y-9451940D01*
G04 #@! TO.C,C21*
X22675314Y-5934375D02*
X22621439Y-5934375D01*
X22513690Y-5880500D01*
X22459815Y-5826625D01*
X22405940Y-5718876D01*
X22405940Y-5611126D01*
X22432877Y-5530314D01*
X22513690Y-5395627D01*
X22594502Y-5314815D01*
X22729189Y-5234003D01*
X22810001Y-5207065D01*
X22917751Y-5207065D01*
X23025500Y-5260940D01*
X23079375Y-5314815D01*
X23133250Y-5422564D01*
X23133250Y-5476439D01*
X23348749Y-5691938D02*
X23402624Y-5691938D01*
X23483436Y-5718876D01*
X23618123Y-5853563D01*
X23645061Y-5934375D01*
X23645061Y-5988250D01*
X23618123Y-6069062D01*
X23564248Y-6122937D01*
X23456499Y-6176812D01*
X22810001Y-6176812D01*
X23160187Y-6526998D01*
X23698935Y-7065746D02*
X23375687Y-6742497D01*
X23537311Y-6904122D02*
X24102996Y-6338436D01*
X23968309Y-6365374D01*
X23860560Y-6365374D01*
X23779748Y-6338436D01*
G04 #@! TO.C,C26*
X23742714Y-18446714D02*
X23704619Y-18484809D01*
X23590333Y-18522904D01*
X23514142Y-18522904D01*
X23399857Y-18484809D01*
X23323666Y-18408619D01*
X23285571Y-18332428D01*
X23247476Y-18180047D01*
X23247476Y-18065761D01*
X23285571Y-17913380D01*
X23323666Y-17837190D01*
X23399857Y-17761000D01*
X23514142Y-17722904D01*
X23590333Y-17722904D01*
X23704619Y-17761000D01*
X23742714Y-17799095D01*
X24047476Y-17799095D02*
X24085571Y-17761000D01*
X24161761Y-17722904D01*
X24352238Y-17722904D01*
X24428428Y-17761000D01*
X24466523Y-17799095D01*
X24504619Y-17875285D01*
X24504619Y-17951476D01*
X24466523Y-18065761D01*
X24009380Y-18522904D01*
X24504619Y-18522904D01*
X25190333Y-17722904D02*
X25037952Y-17722904D01*
X24961761Y-17761000D01*
X24923666Y-17799095D01*
X24847476Y-17913380D01*
X24809380Y-18065761D01*
X24809380Y-18370523D01*
X24847476Y-18446714D01*
X24885571Y-18484809D01*
X24961761Y-18522904D01*
X25114142Y-18522904D01*
X25190333Y-18484809D01*
X25228428Y-18446714D01*
X25266523Y-18370523D01*
X25266523Y-18180047D01*
X25228428Y-18103857D01*
X25190333Y-18065761D01*
X25114142Y-18027666D01*
X24961761Y-18027666D01*
X24885571Y-18065761D01*
X24847476Y-18103857D01*
X24809380Y-18180047D01*
G04 #@! TO.C,C27*
X26409714Y-19716714D02*
X26371619Y-19754809D01*
X26257333Y-19792904D01*
X26181142Y-19792904D01*
X26066857Y-19754809D01*
X25990666Y-19678619D01*
X25952571Y-19602428D01*
X25914476Y-19450047D01*
X25914476Y-19335761D01*
X25952571Y-19183380D01*
X25990666Y-19107190D01*
X26066857Y-19031000D01*
X26181142Y-18992904D01*
X26257333Y-18992904D01*
X26371619Y-19031000D01*
X26409714Y-19069095D01*
X26714476Y-19069095D02*
X26752571Y-19031000D01*
X26828761Y-18992904D01*
X27019238Y-18992904D01*
X27095428Y-19031000D01*
X27133523Y-19069095D01*
X27171619Y-19145285D01*
X27171619Y-19221476D01*
X27133523Y-19335761D01*
X26676380Y-19792904D01*
X27171619Y-19792904D01*
X27438285Y-18992904D02*
X27971619Y-18992904D01*
X27628761Y-19792904D01*
G04 #@! TO.C,C29*
X62444285Y-15371714D02*
X62472857Y-15400285D01*
X62501428Y-15486000D01*
X62501428Y-15543142D01*
X62472857Y-15628857D01*
X62415714Y-15686000D01*
X62358571Y-15714571D01*
X62244285Y-15743142D01*
X62158571Y-15743142D01*
X62044285Y-15714571D01*
X61987142Y-15686000D01*
X61930000Y-15628857D01*
X61901428Y-15543142D01*
X61901428Y-15486000D01*
X61930000Y-15400285D01*
X61958571Y-15371714D01*
X61958571Y-15143142D02*
X61930000Y-15114571D01*
X61901428Y-15057428D01*
X61901428Y-14914571D01*
X61930000Y-14857428D01*
X61958571Y-14828857D01*
X62015714Y-14800285D01*
X62072857Y-14800285D01*
X62158571Y-14828857D01*
X62501428Y-15171714D01*
X62501428Y-14800285D01*
X62501428Y-14514571D02*
X62501428Y-14400285D01*
X62472857Y-14343142D01*
X62444285Y-14314571D01*
X62358571Y-14257428D01*
X62244285Y-14228857D01*
X62015714Y-14228857D01*
X61958571Y-14257428D01*
X61930000Y-14286000D01*
X61901428Y-14343142D01*
X61901428Y-14457428D01*
X61930000Y-14514571D01*
X61958571Y-14543142D01*
X62015714Y-14571714D01*
X62158571Y-14571714D01*
X62215714Y-14543142D01*
X62244285Y-14514571D01*
X62272857Y-14457428D01*
X62272857Y-14343142D01*
X62244285Y-14286000D01*
X62215714Y-14257428D01*
X62158571Y-14228857D01*
G04 #@! TO.C,D1*
X62803142Y-18051428D02*
X62803142Y-17451428D01*
X62946000Y-17451428D01*
X63031714Y-17480000D01*
X63088857Y-17537142D01*
X63117428Y-17594285D01*
X63146000Y-17708571D01*
X63146000Y-17794285D01*
X63117428Y-17908571D01*
X63088857Y-17965714D01*
X63031714Y-18022857D01*
X62946000Y-18051428D01*
X62803142Y-18051428D01*
X63717428Y-18051428D02*
X63374571Y-18051428D01*
X63546000Y-18051428D02*
X63546000Y-17451428D01*
X63488857Y-17537142D01*
X63431714Y-17594285D01*
X63374571Y-17622857D01*
G04 #@! TO.C,D2*
X63819142Y-17543428D02*
X63819142Y-16943428D01*
X63962000Y-16943428D01*
X64047714Y-16972000D01*
X64104857Y-17029142D01*
X64133428Y-17086285D01*
X64162000Y-17200571D01*
X64162000Y-17286285D01*
X64133428Y-17400571D01*
X64104857Y-17457714D01*
X64047714Y-17514857D01*
X63962000Y-17543428D01*
X63819142Y-17543428D01*
X64390571Y-17000571D02*
X64419142Y-16972000D01*
X64476285Y-16943428D01*
X64619142Y-16943428D01*
X64676285Y-16972000D01*
X64704857Y-17000571D01*
X64733428Y-17057714D01*
X64733428Y-17114857D01*
X64704857Y-17200571D01*
X64362000Y-17543428D01*
X64733428Y-17543428D01*
G04 #@! TO.C,J3*
X11499904Y-9283666D02*
X12071333Y-9283666D01*
X12185619Y-9321761D01*
X12261809Y-9397952D01*
X12299904Y-9512238D01*
X12299904Y-9588428D01*
X11499904Y-8978904D02*
X11499904Y-8483666D01*
X11804666Y-8750333D01*
X11804666Y-8636047D01*
X11842761Y-8559857D01*
X11880857Y-8521761D01*
X11957047Y-8483666D01*
X12147523Y-8483666D01*
X12223714Y-8521761D01*
X12261809Y-8559857D01*
X12299904Y-8636047D01*
X12299904Y-8864619D01*
X12261809Y-8940809D01*
X12223714Y-8978904D01*
G04 #@! TO.C,J4*
X60013904Y-4838666D02*
X60585333Y-4838666D01*
X60699619Y-4876761D01*
X60775809Y-4952952D01*
X60813904Y-5067238D01*
X60813904Y-5143428D01*
X60280571Y-4114857D02*
X60813904Y-4114857D01*
X59975809Y-4305333D02*
X60547238Y-4495809D01*
X60547238Y-4000571D01*
G04 #@! TO.C,J5*
X6083333Y-6121904D02*
X6083333Y-6693333D01*
X6045238Y-6807619D01*
X5969047Y-6883809D01*
X5854761Y-6921904D01*
X5778571Y-6921904D01*
X6845238Y-6121904D02*
X6464285Y-6121904D01*
X6426190Y-6502857D01*
X6464285Y-6464761D01*
X6540476Y-6426666D01*
X6730952Y-6426666D01*
X6807142Y-6464761D01*
X6845238Y-6502857D01*
X6883333Y-6579047D01*
X6883333Y-6769523D01*
X6845238Y-6845714D01*
X6807142Y-6883809D01*
X6730952Y-6921904D01*
X6540476Y-6921904D01*
X6464285Y-6883809D01*
X6426190Y-6845714D01*
G04 #@! TO.C,L1*
X24291624Y-4668186D02*
X24022250Y-4937560D01*
X23456564Y-4371874D01*
X24776497Y-4183312D02*
X24453248Y-4506561D01*
X24614873Y-4344937D02*
X24049187Y-3779251D01*
X24076125Y-3913938D01*
X24076125Y-4021688D01*
X24049187Y-4102500D01*
G04 #@! TO.C,R1*
X22255813Y-12988624D02*
X22336625Y-12530688D01*
X21932564Y-12665375D02*
X22498250Y-12099690D01*
X22713749Y-12315189D01*
X22740687Y-12396001D01*
X22740687Y-12449876D01*
X22713749Y-12530688D01*
X22632937Y-12611500D01*
X22552125Y-12638438D01*
X22498250Y-12638438D01*
X22417438Y-12611500D01*
X22201938Y-12396001D01*
X22794561Y-13527372D02*
X22471312Y-13204123D01*
X22632937Y-13365748D02*
X23198622Y-12800062D01*
X23063935Y-12827000D01*
X22956186Y-12827000D01*
X22875374Y-12800062D01*
G04 #@! TO.C,R2*
X10394904Y-6991333D02*
X10013952Y-7258000D01*
X10394904Y-7448476D02*
X9594904Y-7448476D01*
X9594904Y-7143714D01*
X9633000Y-7067523D01*
X9671095Y-7029428D01*
X9747285Y-6991333D01*
X9861571Y-6991333D01*
X9937761Y-7029428D01*
X9975857Y-7067523D01*
X10013952Y-7143714D01*
X10013952Y-7448476D01*
X9671095Y-6686571D02*
X9633000Y-6648476D01*
X9594904Y-6572285D01*
X9594904Y-6381809D01*
X9633000Y-6305619D01*
X9671095Y-6267523D01*
X9747285Y-6229428D01*
X9823476Y-6229428D01*
X9937761Y-6267523D01*
X10394904Y-6724666D01*
X10394904Y-6229428D01*
G04 #@! TO.C,R3*
X20808904Y-7245333D02*
X20427952Y-7512000D01*
X20808904Y-7702476D02*
X20008904Y-7702476D01*
X20008904Y-7397714D01*
X20047000Y-7321523D01*
X20085095Y-7283428D01*
X20161285Y-7245333D01*
X20275571Y-7245333D01*
X20351761Y-7283428D01*
X20389857Y-7321523D01*
X20427952Y-7397714D01*
X20427952Y-7702476D01*
X20008904Y-6978666D02*
X20008904Y-6483428D01*
X20313666Y-6750095D01*
X20313666Y-6635809D01*
X20351761Y-6559619D01*
X20389857Y-6521523D01*
X20466047Y-6483428D01*
X20656523Y-6483428D01*
X20732714Y-6521523D01*
X20770809Y-6559619D01*
X20808904Y-6635809D01*
X20808904Y-6864380D01*
X20770809Y-6940571D01*
X20732714Y-6978666D01*
G04 #@! TO.C,R4*
X52317666Y-15601904D02*
X52051000Y-15220952D01*
X51860523Y-15601904D02*
X51860523Y-14801904D01*
X52165285Y-14801904D01*
X52241476Y-14840000D01*
X52279571Y-14878095D01*
X52317666Y-14954285D01*
X52317666Y-15068571D01*
X52279571Y-15144761D01*
X52241476Y-15182857D01*
X52165285Y-15220952D01*
X51860523Y-15220952D01*
X53003380Y-15068571D02*
X53003380Y-15601904D01*
X52812904Y-14763809D02*
X52622428Y-15335238D01*
X53117666Y-15335238D01*
G04 #@! TO.C,R5*
X59810666Y-14839904D02*
X59544000Y-14458952D01*
X59353523Y-14839904D02*
X59353523Y-14039904D01*
X59658285Y-14039904D01*
X59734476Y-14078000D01*
X59772571Y-14116095D01*
X59810666Y-14192285D01*
X59810666Y-14306571D01*
X59772571Y-14382761D01*
X59734476Y-14420857D01*
X59658285Y-14458952D01*
X59353523Y-14458952D01*
X60534476Y-14039904D02*
X60153523Y-14039904D01*
X60115428Y-14420857D01*
X60153523Y-14382761D01*
X60229714Y-14344666D01*
X60420190Y-14344666D01*
X60496380Y-14382761D01*
X60534476Y-14420857D01*
X60572571Y-14497047D01*
X60572571Y-14687523D01*
X60534476Y-14763714D01*
X60496380Y-14801809D01*
X60420190Y-14839904D01*
X60229714Y-14839904D01*
X60153523Y-14801809D01*
X60115428Y-14763714D01*
G04 #@! TO.C,R6*
X52444666Y-8489904D02*
X52178000Y-8108952D01*
X51987523Y-8489904D02*
X51987523Y-7689904D01*
X52292285Y-7689904D01*
X52368476Y-7728000D01*
X52406571Y-7766095D01*
X52444666Y-7842285D01*
X52444666Y-7956571D01*
X52406571Y-8032761D01*
X52368476Y-8070857D01*
X52292285Y-8108952D01*
X51987523Y-8108952D01*
X53130380Y-7689904D02*
X52978000Y-7689904D01*
X52901809Y-7728000D01*
X52863714Y-7766095D01*
X52787523Y-7880380D01*
X52749428Y-8032761D01*
X52749428Y-8337523D01*
X52787523Y-8413714D01*
X52825619Y-8451809D01*
X52901809Y-8489904D01*
X53054190Y-8489904D01*
X53130380Y-8451809D01*
X53168476Y-8413714D01*
X53206571Y-8337523D01*
X53206571Y-8147047D01*
X53168476Y-8070857D01*
X53130380Y-8032761D01*
X53054190Y-7994666D01*
X52901809Y-7994666D01*
X52825619Y-8032761D01*
X52787523Y-8070857D01*
X52749428Y-8147047D01*
G04 #@! TO.C,R7*
X60723428Y-20166000D02*
X60437714Y-20366000D01*
X60723428Y-20508857D02*
X60123428Y-20508857D01*
X60123428Y-20280285D01*
X60152000Y-20223142D01*
X60180571Y-20194571D01*
X60237714Y-20166000D01*
X60323428Y-20166000D01*
X60380571Y-20194571D01*
X60409142Y-20223142D01*
X60437714Y-20280285D01*
X60437714Y-20508857D01*
X60123428Y-19966000D02*
X60123428Y-19566000D01*
X60723428Y-19823142D01*
G04 #@! TO.C,R8*
X65161333Y-21906666D02*
X64928000Y-21573333D01*
X64761333Y-21906666D02*
X64761333Y-21206666D01*
X65028000Y-21206666D01*
X65094666Y-21240000D01*
X65128000Y-21273333D01*
X65161333Y-21340000D01*
X65161333Y-21440000D01*
X65128000Y-21506666D01*
X65094666Y-21540000D01*
X65028000Y-21573333D01*
X64761333Y-21573333D01*
X65561333Y-21506666D02*
X65494666Y-21473333D01*
X65461333Y-21440000D01*
X65428000Y-21373333D01*
X65428000Y-21340000D01*
X65461333Y-21273333D01*
X65494666Y-21240000D01*
X65561333Y-21206666D01*
X65694666Y-21206666D01*
X65761333Y-21240000D01*
X65794666Y-21273333D01*
X65828000Y-21340000D01*
X65828000Y-21373333D01*
X65794666Y-21440000D01*
X65761333Y-21473333D01*
X65694666Y-21506666D01*
X65561333Y-21506666D01*
X65494666Y-21540000D01*
X65461333Y-21573333D01*
X65428000Y-21640000D01*
X65428000Y-21773333D01*
X65461333Y-21840000D01*
X65494666Y-21873333D01*
X65561333Y-21906666D01*
X65694666Y-21906666D01*
X65761333Y-21873333D01*
X65794666Y-21840000D01*
X65828000Y-21773333D01*
X65828000Y-21640000D01*
X65794666Y-21573333D01*
X65761333Y-21540000D01*
X65694666Y-21506666D01*
G04 #@! TO.C,R9*
X64128666Y-13696904D02*
X63862000Y-13315952D01*
X63671523Y-13696904D02*
X63671523Y-12896904D01*
X63976285Y-12896904D01*
X64052476Y-12935000D01*
X64090571Y-12973095D01*
X64128666Y-13049285D01*
X64128666Y-13163571D01*
X64090571Y-13239761D01*
X64052476Y-13277857D01*
X63976285Y-13315952D01*
X63671523Y-13315952D01*
X64509619Y-13696904D02*
X64662000Y-13696904D01*
X64738190Y-13658809D01*
X64776285Y-13620714D01*
X64852476Y-13506428D01*
X64890571Y-13354047D01*
X64890571Y-13049285D01*
X64852476Y-12973095D01*
X64814380Y-12935000D01*
X64738190Y-12896904D01*
X64585809Y-12896904D01*
X64509619Y-12935000D01*
X64471523Y-12973095D01*
X64433428Y-13049285D01*
X64433428Y-13239761D01*
X64471523Y-13315952D01*
X64509619Y-13354047D01*
X64585809Y-13392142D01*
X64738190Y-13392142D01*
X64814380Y-13354047D01*
X64852476Y-13315952D01*
X64890571Y-13239761D01*
G04 #@! TO.C,SW1*
X54813333Y-12388809D02*
X54927619Y-12426904D01*
X55118095Y-12426904D01*
X55194285Y-12388809D01*
X55232380Y-12350714D01*
X55270476Y-12274523D01*
X55270476Y-12198333D01*
X55232380Y-12122142D01*
X55194285Y-12084047D01*
X55118095Y-12045952D01*
X54965714Y-12007857D01*
X54889523Y-11969761D01*
X54851428Y-11931666D01*
X54813333Y-11855476D01*
X54813333Y-11779285D01*
X54851428Y-11703095D01*
X54889523Y-11665000D01*
X54965714Y-11626904D01*
X55156190Y-11626904D01*
X55270476Y-11665000D01*
X55537142Y-11626904D02*
X55727619Y-12426904D01*
X55880000Y-11855476D01*
X56032380Y-12426904D01*
X56222857Y-11626904D01*
X56946666Y-12426904D02*
X56489523Y-12426904D01*
X56718095Y-12426904D02*
X56718095Y-11626904D01*
X56641904Y-11741190D01*
X56565714Y-11817380D01*
X56489523Y-11855476D01*
G04 #@! TO.C,U1*
X44729476Y-12261904D02*
X44729476Y-12909523D01*
X44767571Y-12985714D01*
X44805666Y-13023809D01*
X44881857Y-13061904D01*
X45034238Y-13061904D01*
X45110428Y-13023809D01*
X45148523Y-12985714D01*
X45186619Y-12909523D01*
X45186619Y-12261904D01*
X45986619Y-13061904D02*
X45529476Y-13061904D01*
X45758047Y-13061904D02*
X45758047Y-12261904D01*
X45681857Y-12376190D01*
X45605666Y-12452380D01*
X45529476Y-12490476D01*
G04 #@! TO.C,U2*
X10864904Y-15341523D02*
X11512523Y-15341523D01*
X11588714Y-15303428D01*
X11626809Y-15265333D01*
X11664904Y-15189142D01*
X11664904Y-15036761D01*
X11626809Y-14960571D01*
X11588714Y-14922476D01*
X11512523Y-14884380D01*
X10864904Y-14884380D01*
X10941095Y-14541523D02*
X10903000Y-14503428D01*
X10864904Y-14427238D01*
X10864904Y-14236761D01*
X10903000Y-14160571D01*
X10941095Y-14122476D01*
X11017285Y-14084380D01*
X11093476Y-14084380D01*
X11207761Y-14122476D01*
X11664904Y-14579619D01*
X11664904Y-14084380D01*
G04 #@! TO.C,U3*
X59359857Y-15673428D02*
X59359857Y-16159142D01*
X59388428Y-16216285D01*
X59417000Y-16244857D01*
X59474142Y-16273428D01*
X59588428Y-16273428D01*
X59645571Y-16244857D01*
X59674142Y-16216285D01*
X59702714Y-16159142D01*
X59702714Y-15673428D01*
X59931285Y-15673428D02*
X60302714Y-15673428D01*
X60102714Y-15902000D01*
X60188428Y-15902000D01*
X60245571Y-15930571D01*
X60274142Y-15959142D01*
X60302714Y-16016285D01*
X60302714Y-16159142D01*
X60274142Y-16216285D01*
X60245571Y-16244857D01*
X60188428Y-16273428D01*
X60017000Y-16273428D01*
X59959857Y-16244857D01*
X59931285Y-16216285D01*
G04 #@! TO.C,Y1*
X50419047Y-7473952D02*
X50419047Y-7854904D01*
X50152380Y-7054904D02*
X50419047Y-7473952D01*
X50685714Y-7054904D01*
X51371428Y-7854904D02*
X50914285Y-7854904D01*
X51142857Y-7854904D02*
X51142857Y-7054904D01*
X51066666Y-7169190D01*
X50990476Y-7245380D01*
X50914285Y-7283476D01*
G04 #@! TO.C,L2*
X50285666Y-20300904D02*
X49904714Y-20300904D01*
X49904714Y-19500904D01*
X50514238Y-19577095D02*
X50552333Y-19539000D01*
X50628523Y-19500904D01*
X50819000Y-19500904D01*
X50895190Y-19539000D01*
X50933285Y-19577095D01*
X50971380Y-19653285D01*
X50971380Y-19729476D01*
X50933285Y-19843761D01*
X50476142Y-20300904D01*
X50971380Y-20300904D01*
G04 #@! TO.C,L3*
X49179813Y-13496624D02*
X48910439Y-13227250D01*
X49476125Y-12661564D01*
X49880186Y-13065625D02*
X50230372Y-13415812D01*
X49826311Y-13442749D01*
X49907123Y-13523561D01*
X49934061Y-13604374D01*
X49934061Y-13658248D01*
X49907123Y-13739061D01*
X49772436Y-13873748D01*
X49691624Y-13900685D01*
X49637749Y-13900685D01*
X49556937Y-13873748D01*
X49395312Y-13712123D01*
X49368375Y-13631311D01*
X49368375Y-13577436D01*
G04 #@! TO.C,C17*
X51047714Y-17938714D02*
X51009619Y-17976809D01*
X50895333Y-18014904D01*
X50819142Y-18014904D01*
X50704857Y-17976809D01*
X50628666Y-17900619D01*
X50590571Y-17824428D01*
X50552476Y-17672047D01*
X50552476Y-17557761D01*
X50590571Y-17405380D01*
X50628666Y-17329190D01*
X50704857Y-17253000D01*
X50819142Y-17214904D01*
X50895333Y-17214904D01*
X51009619Y-17253000D01*
X51047714Y-17291095D01*
X51809619Y-18014904D02*
X51352476Y-18014904D01*
X51581047Y-18014904D02*
X51581047Y-17214904D01*
X51504857Y-17329190D01*
X51428666Y-17405380D01*
X51352476Y-17443476D01*
X52076285Y-17214904D02*
X52609619Y-17214904D01*
X52266761Y-18014904D01*
G04 #@! TO.C,C24*
X56638000Y-21024000D02*
X56671333Y-21057333D01*
X56704666Y-21157333D01*
X56704666Y-21224000D01*
X56671333Y-21324000D01*
X56604666Y-21390666D01*
X56538000Y-21424000D01*
X56404666Y-21457333D01*
X56304666Y-21457333D01*
X56171333Y-21424000D01*
X56104666Y-21390666D01*
X56038000Y-21324000D01*
X56004666Y-21224000D01*
X56004666Y-21157333D01*
X56038000Y-21057333D01*
X56071333Y-21024000D01*
X56071333Y-20757333D02*
X56038000Y-20724000D01*
X56004666Y-20657333D01*
X56004666Y-20490666D01*
X56038000Y-20424000D01*
X56071333Y-20390666D01*
X56138000Y-20357333D01*
X56204666Y-20357333D01*
X56304666Y-20390666D01*
X56704666Y-20790666D01*
X56704666Y-20357333D01*
X56238000Y-19757333D02*
X56704666Y-19757333D01*
X55971333Y-19924000D02*
X56471333Y-20090666D01*
X56471333Y-19657333D01*
G04 #@! TO.C,C23*
X50158714Y-10953714D02*
X50120619Y-10991809D01*
X50006333Y-11029904D01*
X49930142Y-11029904D01*
X49815857Y-10991809D01*
X49739666Y-10915619D01*
X49701571Y-10839428D01*
X49663476Y-10687047D01*
X49663476Y-10572761D01*
X49701571Y-10420380D01*
X49739666Y-10344190D01*
X49815857Y-10268000D01*
X49930142Y-10229904D01*
X50006333Y-10229904D01*
X50120619Y-10268000D01*
X50158714Y-10306095D01*
X50463476Y-10306095D02*
X50501571Y-10268000D01*
X50577761Y-10229904D01*
X50768238Y-10229904D01*
X50844428Y-10268000D01*
X50882523Y-10306095D01*
X50920619Y-10382285D01*
X50920619Y-10458476D01*
X50882523Y-10572761D01*
X50425380Y-11029904D01*
X50920619Y-11029904D01*
X51187285Y-10229904D02*
X51682523Y-10229904D01*
X51415857Y-10534666D01*
X51530142Y-10534666D01*
X51606333Y-10572761D01*
X51644428Y-10610857D01*
X51682523Y-10687047D01*
X51682523Y-10877523D01*
X51644428Y-10953714D01*
X51606333Y-10991809D01*
X51530142Y-11029904D01*
X51301571Y-11029904D01*
X51225380Y-10991809D01*
X51187285Y-10953714D01*
G04 #@! TD*
M02*
