G04 #@! TF.GenerationSoftware,KiCad,Pcbnew,(5.0.0)*
G04 #@! TF.CreationDate,2018-10-21T19:13:21+02:00*
G04 #@! TF.ProjectId,mibo64_stm32,6D69626F36345F73746D33322E6B6963,rev?*
G04 #@! TF.SameCoordinates,PX6486dd0PY621abf0*
G04 #@! TF.FileFunction,Legend,Top*
G04 #@! TF.FilePolarity,Positive*
%FSLAX46Y46*%
G04 Gerber Fmt 4.6, Leading zero omitted, Abs format (unit mm)*
G04 Created by KiCad (PCBNEW (5.0.0)) date 10/21/18 19:13:21*
%MOMM*%
%LPD*%
G01*
G04 APERTURE LIST*
%ADD10C,0.200000*%
%ADD11C,0.175000*%
%ADD12C,0.120000*%
%ADD13C,0.150000*%
G04 APERTURE END LIST*
D10*
X8119875Y-15774142D02*
X8232375Y-14874142D01*
X8452017Y-15517000D01*
X8832375Y-14874142D01*
X8719875Y-15774142D01*
X9148446Y-15774142D02*
X9260946Y-14874142D01*
X9935946Y-15302714D02*
X10059160Y-15345571D01*
X10096660Y-15388428D01*
X10128803Y-15474142D01*
X10112732Y-15602714D01*
X10059160Y-15688428D01*
X10010946Y-15731285D01*
X9919875Y-15774142D01*
X9577017Y-15774142D01*
X9689517Y-14874142D01*
X9989517Y-14874142D01*
X10069875Y-14917000D01*
X10107375Y-14959857D01*
X10139517Y-15045571D01*
X10128803Y-15131285D01*
X10075232Y-15217000D01*
X10027017Y-15259857D01*
X9935946Y-15302714D01*
X9635946Y-15302714D01*
X10760946Y-14874142D02*
X10932375Y-14874142D01*
X11012732Y-14917000D01*
X11087732Y-15002714D01*
X11109160Y-15174142D01*
X11071660Y-15474142D01*
X11007375Y-15645571D01*
X10910946Y-15731285D01*
X10819875Y-15774142D01*
X10648446Y-15774142D01*
X10568089Y-15731285D01*
X10493089Y-15645571D01*
X10471660Y-15474142D01*
X10509160Y-15174142D01*
X10573446Y-15002714D01*
X10669875Y-14917000D01*
X10760946Y-14874142D01*
X11918089Y-14874142D02*
X11746660Y-14874142D01*
X11655589Y-14917000D01*
X11607375Y-14959857D01*
X11505589Y-15088428D01*
X11441303Y-15259857D01*
X11398446Y-15602714D01*
X11430589Y-15688428D01*
X11468089Y-15731285D01*
X11548446Y-15774142D01*
X11719875Y-15774142D01*
X11810946Y-15731285D01*
X11859160Y-15688428D01*
X11912732Y-15602714D01*
X11939517Y-15388428D01*
X11907375Y-15302714D01*
X11869875Y-15259857D01*
X11789517Y-15217000D01*
X11618089Y-15217000D01*
X11527017Y-15259857D01*
X11478803Y-15302714D01*
X11425232Y-15388428D01*
X12737732Y-15174142D02*
X12662732Y-15774142D01*
X12566303Y-14831285D02*
X12271660Y-15474142D01*
X12828803Y-15474142D01*
X13177017Y-15431285D02*
X13862732Y-15431285D01*
X14210946Y-15731285D02*
X14334160Y-15774142D01*
X14548446Y-15774142D01*
X14639517Y-15731285D01*
X14687732Y-15688428D01*
X14741303Y-15602714D01*
X14752017Y-15517000D01*
X14719875Y-15431285D01*
X14682375Y-15388428D01*
X14602017Y-15345571D01*
X14435946Y-15302714D01*
X14355589Y-15259857D01*
X14318089Y-15217000D01*
X14285946Y-15131285D01*
X14296660Y-15045571D01*
X14350232Y-14959857D01*
X14398446Y-14917000D01*
X14489517Y-14874142D01*
X14703803Y-14874142D01*
X14827017Y-14917000D01*
X15089517Y-14874142D02*
X15603803Y-14874142D01*
X15234160Y-15774142D02*
X15346660Y-14874142D01*
X15791303Y-15774142D02*
X15903803Y-14874142D01*
X16123446Y-15517000D01*
X16503803Y-14874142D01*
X16391303Y-15774142D01*
X16846660Y-14874142D02*
X17403803Y-14874142D01*
X17060946Y-15217000D01*
X17189517Y-15217000D01*
X17269875Y-15259857D01*
X17307375Y-15302714D01*
X17339517Y-15388428D01*
X17312732Y-15602714D01*
X17259160Y-15688428D01*
X17210946Y-15731285D01*
X17119875Y-15774142D01*
X16862732Y-15774142D01*
X16782375Y-15731285D01*
X16744875Y-15688428D01*
X17735946Y-14959857D02*
X17784160Y-14917000D01*
X17875232Y-14874142D01*
X18089517Y-14874142D01*
X18169875Y-14917000D01*
X18207375Y-14959857D01*
X18239517Y-15045571D01*
X18228803Y-15131285D01*
X18169875Y-15259857D01*
X17591303Y-15774142D01*
X18148446Y-15774142D01*
X11055428Y-8424904D02*
X10788761Y-8043952D01*
X10598285Y-8424904D02*
X10598285Y-7624904D01*
X10903047Y-7624904D01*
X10979238Y-7663000D01*
X11017333Y-7701095D01*
X11055428Y-7777285D01*
X11055428Y-7891571D01*
X11017333Y-7967761D01*
X10979238Y-8005857D01*
X10903047Y-8043952D01*
X10598285Y-8043952D01*
X11550666Y-7624904D02*
X11703047Y-7624904D01*
X11779238Y-7663000D01*
X11855428Y-7739190D01*
X11893523Y-7891571D01*
X11893523Y-8158238D01*
X11855428Y-8310619D01*
X11779238Y-8386809D01*
X11703047Y-8424904D01*
X11550666Y-8424904D01*
X11474476Y-8386809D01*
X11398285Y-8310619D01*
X11360190Y-8158238D01*
X11360190Y-7891571D01*
X11398285Y-7739190D01*
X11474476Y-7663000D01*
X11550666Y-7624904D01*
X12236380Y-8424904D02*
X12236380Y-7624904D01*
X12503047Y-8196333D01*
X12769714Y-7624904D01*
X12769714Y-8424904D01*
X11226857Y-9405857D02*
X11341142Y-9443952D01*
X11379238Y-9482047D01*
X11417333Y-9558238D01*
X11417333Y-9672523D01*
X11379238Y-9748714D01*
X11341142Y-9786809D01*
X11264952Y-9824904D01*
X10960190Y-9824904D01*
X10960190Y-9024904D01*
X11226857Y-9024904D01*
X11303047Y-9063000D01*
X11341142Y-9101095D01*
X11379238Y-9177285D01*
X11379238Y-9253476D01*
X11341142Y-9329666D01*
X11303047Y-9367761D01*
X11226857Y-9405857D01*
X10960190Y-9405857D01*
X12141142Y-9824904D02*
X11760190Y-9824904D01*
X11760190Y-9024904D01*
X12407809Y-9748714D02*
X12445904Y-9786809D01*
X12407809Y-9824904D01*
X12369714Y-9786809D01*
X12407809Y-9748714D01*
X12407809Y-9824904D01*
X1359047Y-5911904D02*
X1854285Y-5911904D01*
X1587619Y-6216666D01*
X1701904Y-6216666D01*
X1778095Y-6254761D01*
X1816190Y-6292857D01*
X1854285Y-6369047D01*
X1854285Y-6559523D01*
X1816190Y-6635714D01*
X1778095Y-6673809D01*
X1701904Y-6711904D01*
X1473333Y-6711904D01*
X1397142Y-6673809D01*
X1359047Y-6635714D01*
X2197142Y-6635714D02*
X2235238Y-6673809D01*
X2197142Y-6711904D01*
X2159047Y-6673809D01*
X2197142Y-6635714D01*
X2197142Y-6711904D01*
X2501904Y-5911904D02*
X2997142Y-5911904D01*
X2730476Y-6216666D01*
X2844761Y-6216666D01*
X2920952Y-6254761D01*
X2959047Y-6292857D01*
X2997142Y-6369047D01*
X2997142Y-6559523D01*
X2959047Y-6635714D01*
X2920952Y-6673809D01*
X2844761Y-6711904D01*
X2616190Y-6711904D01*
X2540000Y-6673809D01*
X2501904Y-6635714D01*
X3225714Y-5911904D02*
X3492380Y-6711904D01*
X3759047Y-5911904D01*
X844761Y-9213809D02*
X959047Y-9251904D01*
X1149523Y-9251904D01*
X1225714Y-9213809D01*
X1263809Y-9175714D01*
X1301904Y-9099523D01*
X1301904Y-9023333D01*
X1263809Y-8947142D01*
X1225714Y-8909047D01*
X1149523Y-8870952D01*
X997142Y-8832857D01*
X920952Y-8794761D01*
X882857Y-8756666D01*
X844761Y-8680476D01*
X844761Y-8604285D01*
X882857Y-8528095D01*
X920952Y-8490000D01*
X997142Y-8451904D01*
X1187619Y-8451904D01*
X1301904Y-8490000D01*
X1568571Y-8451904D02*
X1759047Y-9251904D01*
X1911428Y-8680476D01*
X2063809Y-9251904D01*
X2254285Y-8451904D01*
X2559047Y-9251904D02*
X2559047Y-8451904D01*
X2749523Y-8451904D01*
X2863809Y-8490000D01*
X2940000Y-8566190D01*
X2978095Y-8642380D01*
X3016190Y-8794761D01*
X3016190Y-8909047D01*
X2978095Y-9061428D01*
X2940000Y-9137619D01*
X2863809Y-9213809D01*
X2749523Y-9251904D01*
X2559047Y-9251904D01*
X3359047Y-9251904D02*
X3359047Y-8451904D01*
X3892380Y-8451904D02*
X4044761Y-8451904D01*
X4120952Y-8490000D01*
X4197142Y-8566190D01*
X4235238Y-8718571D01*
X4235238Y-8985238D01*
X4197142Y-9137619D01*
X4120952Y-9213809D01*
X4044761Y-9251904D01*
X3892380Y-9251904D01*
X3816190Y-9213809D01*
X3740000Y-9137619D01*
X3701904Y-8985238D01*
X3701904Y-8718571D01*
X3740000Y-8566190D01*
X3816190Y-8490000D01*
X3892380Y-8451904D01*
X330476Y-11753809D02*
X444761Y-11791904D01*
X635238Y-11791904D01*
X711428Y-11753809D01*
X749523Y-11715714D01*
X787619Y-11639523D01*
X787619Y-11563333D01*
X749523Y-11487142D01*
X711428Y-11449047D01*
X635238Y-11410952D01*
X482857Y-11372857D01*
X406666Y-11334761D01*
X368571Y-11296666D01*
X330476Y-11220476D01*
X330476Y-11144285D01*
X368571Y-11068095D01*
X406666Y-11030000D01*
X482857Y-10991904D01*
X673333Y-10991904D01*
X787619Y-11030000D01*
X1054285Y-10991904D02*
X1244761Y-11791904D01*
X1397142Y-11220476D01*
X1549523Y-11791904D01*
X1740000Y-10991904D01*
X2044761Y-11791904D02*
X2044761Y-10991904D01*
X2235238Y-10991904D01*
X2349523Y-11030000D01*
X2425714Y-11106190D01*
X2463809Y-11182380D01*
X2501904Y-11334761D01*
X2501904Y-11449047D01*
X2463809Y-11601428D01*
X2425714Y-11677619D01*
X2349523Y-11753809D01*
X2235238Y-11791904D01*
X2044761Y-11791904D01*
X3301904Y-11715714D02*
X3263809Y-11753809D01*
X3149523Y-11791904D01*
X3073333Y-11791904D01*
X2959047Y-11753809D01*
X2882857Y-11677619D01*
X2844761Y-11601428D01*
X2806666Y-11449047D01*
X2806666Y-11334761D01*
X2844761Y-11182380D01*
X2882857Y-11106190D01*
X2959047Y-11030000D01*
X3073333Y-10991904D01*
X3149523Y-10991904D01*
X3263809Y-11030000D01*
X3301904Y-11068095D01*
X4025714Y-11791904D02*
X3644761Y-11791904D01*
X3644761Y-10991904D01*
X4292380Y-11791904D02*
X4292380Y-10991904D01*
X4749523Y-11791904D02*
X4406666Y-11334761D01*
X4749523Y-10991904D02*
X4292380Y-11449047D01*
X1930476Y-13824000D02*
X1854285Y-13785904D01*
X1740000Y-13785904D01*
X1625714Y-13824000D01*
X1549523Y-13900190D01*
X1511428Y-13976380D01*
X1473333Y-14128761D01*
X1473333Y-14243047D01*
X1511428Y-14395428D01*
X1549523Y-14471619D01*
X1625714Y-14547809D01*
X1740000Y-14585904D01*
X1816190Y-14585904D01*
X1930476Y-14547809D01*
X1968571Y-14509714D01*
X1968571Y-14243047D01*
X1816190Y-14243047D01*
X2311428Y-14585904D02*
X2311428Y-13785904D01*
X2768571Y-14585904D01*
X2768571Y-13785904D01*
X3149523Y-14585904D02*
X3149523Y-13785904D01*
X3340000Y-13785904D01*
X3454285Y-13824000D01*
X3530476Y-13900190D01*
X3568571Y-13976380D01*
X3606666Y-14128761D01*
X3606666Y-14243047D01*
X3568571Y-14395428D01*
X3530476Y-14471619D01*
X3454285Y-14547809D01*
X3340000Y-14585904D01*
X3149523Y-14585904D01*
X3225904Y-17087904D02*
X3721142Y-17087904D01*
X3454476Y-17392666D01*
X3568761Y-17392666D01*
X3644952Y-17430761D01*
X3683047Y-17468857D01*
X3721142Y-17545047D01*
X3721142Y-17735523D01*
X3683047Y-17811714D01*
X3644952Y-17849809D01*
X3568761Y-17887904D01*
X3340190Y-17887904D01*
X3264000Y-17849809D01*
X3225904Y-17811714D01*
X4064000Y-17811714D02*
X4102095Y-17849809D01*
X4064000Y-17887904D01*
X4025904Y-17849809D01*
X4064000Y-17811714D01*
X4064000Y-17887904D01*
X4368761Y-17087904D02*
X4864000Y-17087904D01*
X4597333Y-17392666D01*
X4711619Y-17392666D01*
X4787809Y-17430761D01*
X4825904Y-17468857D01*
X4864000Y-17545047D01*
X4864000Y-17735523D01*
X4825904Y-17811714D01*
X4787809Y-17849809D01*
X4711619Y-17887904D01*
X4483047Y-17887904D01*
X4406857Y-17849809D01*
X4368761Y-17811714D01*
X5778571Y-17151333D02*
X6159523Y-17151333D01*
X5702380Y-17379904D02*
X5969047Y-16579904D01*
X6235714Y-17379904D01*
X6426190Y-16579904D02*
X6921428Y-16579904D01*
X6654761Y-16884666D01*
X6769047Y-16884666D01*
X6845238Y-16922761D01*
X6883333Y-16960857D01*
X6921428Y-17037047D01*
X6921428Y-17227523D01*
X6883333Y-17303714D01*
X6845238Y-17341809D01*
X6769047Y-17379904D01*
X6540476Y-17379904D01*
X6464285Y-17341809D01*
X6426190Y-17303714D01*
X8318571Y-17659333D02*
X8699523Y-17659333D01*
X8242380Y-17887904D02*
X8509047Y-17087904D01*
X8775714Y-17887904D01*
X9385238Y-17354571D02*
X9385238Y-17887904D01*
X9194761Y-17049809D02*
X9004285Y-17621238D01*
X9499523Y-17621238D01*
X10858571Y-17151333D02*
X11239523Y-17151333D01*
X10782380Y-17379904D02*
X11049047Y-16579904D01*
X11315714Y-17379904D01*
X11963333Y-16579904D02*
X11582380Y-16579904D01*
X11544285Y-16960857D01*
X11582380Y-16922761D01*
X11658571Y-16884666D01*
X11849047Y-16884666D01*
X11925238Y-16922761D01*
X11963333Y-16960857D01*
X12001428Y-17037047D01*
X12001428Y-17227523D01*
X11963333Y-17303714D01*
X11925238Y-17341809D01*
X11849047Y-17379904D01*
X11658571Y-17379904D01*
X11582380Y-17341809D01*
X11544285Y-17303714D01*
X13398571Y-17659333D02*
X13779523Y-17659333D01*
X13322380Y-17887904D02*
X13589047Y-17087904D01*
X13855714Y-17887904D01*
X14465238Y-17087904D02*
X14312857Y-17087904D01*
X14236666Y-17126000D01*
X14198571Y-17164095D01*
X14122380Y-17278380D01*
X14084285Y-17430761D01*
X14084285Y-17735523D01*
X14122380Y-17811714D01*
X14160476Y-17849809D01*
X14236666Y-17887904D01*
X14389047Y-17887904D01*
X14465238Y-17849809D01*
X14503333Y-17811714D01*
X14541428Y-17735523D01*
X14541428Y-17545047D01*
X14503333Y-17468857D01*
X14465238Y-17430761D01*
X14389047Y-17392666D01*
X14236666Y-17392666D01*
X14160476Y-17430761D01*
X14122380Y-17468857D01*
X14084285Y-17545047D01*
X15938571Y-17151333D02*
X16319523Y-17151333D01*
X15862380Y-17379904D02*
X16129047Y-16579904D01*
X16395714Y-17379904D01*
X16586190Y-16579904D02*
X17119523Y-16579904D01*
X16776666Y-17379904D01*
X18916666Y-17811714D02*
X18878571Y-17849809D01*
X18764285Y-17887904D01*
X18688095Y-17887904D01*
X18573809Y-17849809D01*
X18497619Y-17773619D01*
X18459523Y-17697428D01*
X18421428Y-17545047D01*
X18421428Y-17430761D01*
X18459523Y-17278380D01*
X18497619Y-17202190D01*
X18573809Y-17126000D01*
X18688095Y-17087904D01*
X18764285Y-17087904D01*
X18878571Y-17126000D01*
X18916666Y-17164095D01*
X19602380Y-17354571D02*
X19602380Y-17887904D01*
X19411904Y-17049809D02*
X19221428Y-17621238D01*
X19716666Y-17621238D01*
X21456666Y-17303714D02*
X21418571Y-17341809D01*
X21304285Y-17379904D01*
X21228095Y-17379904D01*
X21113809Y-17341809D01*
X21037619Y-17265619D01*
X20999523Y-17189428D01*
X20961428Y-17037047D01*
X20961428Y-16922761D01*
X20999523Y-16770380D01*
X21037619Y-16694190D01*
X21113809Y-16618000D01*
X21228095Y-16579904D01*
X21304285Y-16579904D01*
X21418571Y-16618000D01*
X21456666Y-16656095D01*
X22180476Y-16579904D02*
X21799523Y-16579904D01*
X21761428Y-16960857D01*
X21799523Y-16922761D01*
X21875714Y-16884666D01*
X22066190Y-16884666D01*
X22142380Y-16922761D01*
X22180476Y-16960857D01*
X22218571Y-17037047D01*
X22218571Y-17227523D01*
X22180476Y-17303714D01*
X22142380Y-17341809D01*
X22066190Y-17379904D01*
X21875714Y-17379904D01*
X21799523Y-17341809D01*
X21761428Y-17303714D01*
X23806190Y-17468857D02*
X23920476Y-17506952D01*
X23958571Y-17545047D01*
X23996666Y-17621238D01*
X23996666Y-17735523D01*
X23958571Y-17811714D01*
X23920476Y-17849809D01*
X23844285Y-17887904D01*
X23539523Y-17887904D01*
X23539523Y-17087904D01*
X23806190Y-17087904D01*
X23882380Y-17126000D01*
X23920476Y-17164095D01*
X23958571Y-17240285D01*
X23958571Y-17316476D01*
X23920476Y-17392666D01*
X23882380Y-17430761D01*
X23806190Y-17468857D01*
X23539523Y-17468857D01*
X24491904Y-17087904D02*
X24568095Y-17087904D01*
X24644285Y-17126000D01*
X24682380Y-17164095D01*
X24720476Y-17240285D01*
X24758571Y-17392666D01*
X24758571Y-17583142D01*
X24720476Y-17735523D01*
X24682380Y-17811714D01*
X24644285Y-17849809D01*
X24568095Y-17887904D01*
X24491904Y-17887904D01*
X24415714Y-17849809D01*
X24377619Y-17811714D01*
X24339523Y-17735523D01*
X24301428Y-17583142D01*
X24301428Y-17392666D01*
X24339523Y-17240285D01*
X24377619Y-17164095D01*
X24415714Y-17126000D01*
X24491904Y-17087904D01*
X25838190Y-17214857D02*
X25952476Y-17252952D01*
X25990571Y-17291047D01*
X26028666Y-17367238D01*
X26028666Y-17481523D01*
X25990571Y-17557714D01*
X25952476Y-17595809D01*
X25876285Y-17633904D01*
X25571523Y-17633904D01*
X25571523Y-16833904D01*
X25838190Y-16833904D01*
X25914380Y-16872000D01*
X25952476Y-16910095D01*
X25990571Y-16986285D01*
X25990571Y-17062476D01*
X25952476Y-17138666D01*
X25914380Y-17176761D01*
X25838190Y-17214857D01*
X25571523Y-17214857D01*
X26790571Y-17633904D02*
X26333428Y-17633904D01*
X26562000Y-17633904D02*
X26562000Y-16833904D01*
X26485809Y-16948190D01*
X26409619Y-17024380D01*
X26333428Y-17062476D01*
X28251238Y-17468857D02*
X28365523Y-17506952D01*
X28403619Y-17545047D01*
X28441714Y-17621238D01*
X28441714Y-17735523D01*
X28403619Y-17811714D01*
X28365523Y-17849809D01*
X28289333Y-17887904D01*
X27984571Y-17887904D01*
X27984571Y-17087904D01*
X28251238Y-17087904D01*
X28327428Y-17126000D01*
X28365523Y-17164095D01*
X28403619Y-17240285D01*
X28403619Y-17316476D01*
X28365523Y-17392666D01*
X28327428Y-17430761D01*
X28251238Y-17468857D01*
X27984571Y-17468857D01*
X29203619Y-17887904D02*
X28746476Y-17887904D01*
X28975047Y-17887904D02*
X28975047Y-17087904D01*
X28898857Y-17202190D01*
X28822666Y-17278380D01*
X28746476Y-17316476D01*
X29965523Y-17887904D02*
X29508380Y-17887904D01*
X29736952Y-17887904D02*
X29736952Y-17087904D01*
X29660761Y-17202190D01*
X29584571Y-17278380D01*
X29508380Y-17316476D01*
X31045238Y-17468857D02*
X31159523Y-17506952D01*
X31197619Y-17545047D01*
X31235714Y-17621238D01*
X31235714Y-17735523D01*
X31197619Y-17811714D01*
X31159523Y-17849809D01*
X31083333Y-17887904D01*
X30778571Y-17887904D01*
X30778571Y-17087904D01*
X31045238Y-17087904D01*
X31121428Y-17126000D01*
X31159523Y-17164095D01*
X31197619Y-17240285D01*
X31197619Y-17316476D01*
X31159523Y-17392666D01*
X31121428Y-17430761D01*
X31045238Y-17468857D01*
X30778571Y-17468857D01*
X31997619Y-17887904D02*
X31540476Y-17887904D01*
X31769047Y-17887904D02*
X31769047Y-17087904D01*
X31692857Y-17202190D01*
X31616666Y-17278380D01*
X31540476Y-17316476D01*
X32492857Y-17087904D02*
X32569047Y-17087904D01*
X32645238Y-17126000D01*
X32683333Y-17164095D01*
X32721428Y-17240285D01*
X32759523Y-17392666D01*
X32759523Y-17583142D01*
X32721428Y-17735523D01*
X32683333Y-17811714D01*
X32645238Y-17849809D01*
X32569047Y-17887904D01*
X32492857Y-17887904D01*
X32416666Y-17849809D01*
X32378571Y-17811714D01*
X32340476Y-17735523D01*
X32302380Y-17583142D01*
X32302380Y-17392666D01*
X32340476Y-17240285D01*
X32378571Y-17164095D01*
X32416666Y-17126000D01*
X32492857Y-17087904D01*
X33458190Y-17214857D02*
X33572476Y-17252952D01*
X33610571Y-17291047D01*
X33648666Y-17367238D01*
X33648666Y-17481523D01*
X33610571Y-17557714D01*
X33572476Y-17595809D01*
X33496285Y-17633904D01*
X33191523Y-17633904D01*
X33191523Y-16833904D01*
X33458190Y-16833904D01*
X33534380Y-16872000D01*
X33572476Y-16910095D01*
X33610571Y-16986285D01*
X33610571Y-17062476D01*
X33572476Y-17138666D01*
X33534380Y-17176761D01*
X33458190Y-17214857D01*
X33191523Y-17214857D01*
X33953428Y-16910095D02*
X33991523Y-16872000D01*
X34067714Y-16833904D01*
X34258190Y-16833904D01*
X34334380Y-16872000D01*
X34372476Y-16910095D01*
X34410571Y-16986285D01*
X34410571Y-17062476D01*
X34372476Y-17176761D01*
X33915333Y-17633904D01*
X34410571Y-17633904D01*
D11*
X35342595Y-18434693D02*
X35436876Y-18387553D01*
X35484016Y-18387553D01*
X35554727Y-18411123D01*
X35625438Y-18481834D01*
X35649008Y-18552544D01*
X35649008Y-18599685D01*
X35625438Y-18670396D01*
X35436876Y-18858957D01*
X34941901Y-18363983D01*
X35106893Y-18198991D01*
X35177603Y-18175421D01*
X35224744Y-18175421D01*
X35295455Y-18198991D01*
X35342595Y-18246132D01*
X35366165Y-18316842D01*
X35366165Y-18363983D01*
X35342595Y-18434693D01*
X35177603Y-18599685D01*
X36191123Y-18104710D02*
X35908280Y-18387553D01*
X36049702Y-18246132D02*
X35554727Y-17751157D01*
X35578297Y-17869008D01*
X35578297Y-17963289D01*
X35554727Y-18033999D01*
X35931851Y-17468314D02*
X35931851Y-17421174D01*
X35955421Y-17350463D01*
X36073272Y-17232612D01*
X36143983Y-17209042D01*
X36191123Y-17209042D01*
X36261834Y-17232612D01*
X36308974Y-17279752D01*
X36356115Y-17374033D01*
X36356115Y-17939719D01*
X36662528Y-17633306D01*
D10*
X39339251Y-17475935D02*
X39447001Y-17422061D01*
X39500876Y-17422061D01*
X39581688Y-17448998D01*
X39662500Y-17529810D01*
X39689438Y-17610622D01*
X39689438Y-17664497D01*
X39662500Y-17745309D01*
X39447001Y-17960809D01*
X38881316Y-17395123D01*
X39069877Y-17206561D01*
X39150690Y-17179624D01*
X39204564Y-17179624D01*
X39285377Y-17206561D01*
X39339251Y-17260436D01*
X39366189Y-17341248D01*
X39366189Y-17395123D01*
X39339251Y-17475935D01*
X39150690Y-17664497D01*
X40308998Y-17098812D02*
X39985749Y-17422061D01*
X40147374Y-17260436D02*
X39581688Y-16694751D01*
X39608625Y-16829438D01*
X39608625Y-16937187D01*
X39581688Y-17018000D01*
X39931874Y-16344564D02*
X40282061Y-15994378D01*
X40308998Y-16398439D01*
X40389810Y-16317627D01*
X40470622Y-16290690D01*
X40524497Y-16290690D01*
X40605309Y-16317627D01*
X40739996Y-16452314D01*
X40766934Y-16533126D01*
X40766934Y-16587001D01*
X40739996Y-16667813D01*
X40578372Y-16829438D01*
X40497560Y-16856375D01*
X40443685Y-16856375D01*
X41205238Y-17468857D02*
X41319523Y-17506952D01*
X41357619Y-17545047D01*
X41395714Y-17621238D01*
X41395714Y-17735523D01*
X41357619Y-17811714D01*
X41319523Y-17849809D01*
X41243333Y-17887904D01*
X40938571Y-17887904D01*
X40938571Y-17087904D01*
X41205238Y-17087904D01*
X41281428Y-17126000D01*
X41319523Y-17164095D01*
X41357619Y-17240285D01*
X41357619Y-17316476D01*
X41319523Y-17392666D01*
X41281428Y-17430761D01*
X41205238Y-17468857D01*
X40938571Y-17468857D01*
X42157619Y-17887904D02*
X41700476Y-17887904D01*
X41929047Y-17887904D02*
X41929047Y-17087904D01*
X41852857Y-17202190D01*
X41776666Y-17278380D01*
X41700476Y-17316476D01*
X42843333Y-17354571D02*
X42843333Y-17887904D01*
X42652857Y-17049809D02*
X42462380Y-17621238D01*
X42957619Y-17621238D01*
X43745238Y-16960857D02*
X43859523Y-16998952D01*
X43897619Y-17037047D01*
X43935714Y-17113238D01*
X43935714Y-17227523D01*
X43897619Y-17303714D01*
X43859523Y-17341809D01*
X43783333Y-17379904D01*
X43478571Y-17379904D01*
X43478571Y-16579904D01*
X43745238Y-16579904D01*
X43821428Y-16618000D01*
X43859523Y-16656095D01*
X43897619Y-16732285D01*
X43897619Y-16808476D01*
X43859523Y-16884666D01*
X43821428Y-16922761D01*
X43745238Y-16960857D01*
X43478571Y-16960857D01*
X44697619Y-17379904D02*
X44240476Y-17379904D01*
X44469047Y-17379904D02*
X44469047Y-16579904D01*
X44392857Y-16694190D01*
X44316666Y-16770380D01*
X44240476Y-16808476D01*
X45421428Y-16579904D02*
X45040476Y-16579904D01*
X45002380Y-16960857D01*
X45040476Y-16922761D01*
X45116666Y-16884666D01*
X45307142Y-16884666D01*
X45383333Y-16922761D01*
X45421428Y-16960857D01*
X45459523Y-17037047D01*
X45459523Y-17227523D01*
X45421428Y-17303714D01*
X45383333Y-17341809D01*
X45307142Y-17379904D01*
X45116666Y-17379904D01*
X45040476Y-17341809D01*
X45002380Y-17303714D01*
X46856666Y-17811714D02*
X46818571Y-17849809D01*
X46704285Y-17887904D01*
X46628095Y-17887904D01*
X46513809Y-17849809D01*
X46437619Y-17773619D01*
X46399523Y-17697428D01*
X46361428Y-17545047D01*
X46361428Y-17430761D01*
X46399523Y-17278380D01*
X46437619Y-17202190D01*
X46513809Y-17126000D01*
X46628095Y-17087904D01*
X46704285Y-17087904D01*
X46818571Y-17126000D01*
X46856666Y-17164095D01*
X47542380Y-17087904D02*
X47390000Y-17087904D01*
X47313809Y-17126000D01*
X47275714Y-17164095D01*
X47199523Y-17278380D01*
X47161428Y-17430761D01*
X47161428Y-17735523D01*
X47199523Y-17811714D01*
X47237619Y-17849809D01*
X47313809Y-17887904D01*
X47466190Y-17887904D01*
X47542380Y-17849809D01*
X47580476Y-17811714D01*
X47618571Y-17735523D01*
X47618571Y-17545047D01*
X47580476Y-17468857D01*
X47542380Y-17430761D01*
X47466190Y-17392666D01*
X47313809Y-17392666D01*
X47237619Y-17430761D01*
X47199523Y-17468857D01*
X47161428Y-17545047D01*
X49396666Y-17303714D02*
X49358571Y-17341809D01*
X49244285Y-17379904D01*
X49168095Y-17379904D01*
X49053809Y-17341809D01*
X48977619Y-17265619D01*
X48939523Y-17189428D01*
X48901428Y-17037047D01*
X48901428Y-16922761D01*
X48939523Y-16770380D01*
X48977619Y-16694190D01*
X49053809Y-16618000D01*
X49168095Y-16579904D01*
X49244285Y-16579904D01*
X49358571Y-16618000D01*
X49396666Y-16656095D01*
X49663333Y-16579904D02*
X50196666Y-16579904D01*
X49853809Y-17379904D01*
X51936666Y-17811714D02*
X51898571Y-17849809D01*
X51784285Y-17887904D01*
X51708095Y-17887904D01*
X51593809Y-17849809D01*
X51517619Y-17773619D01*
X51479523Y-17697428D01*
X51441428Y-17545047D01*
X51441428Y-17430761D01*
X51479523Y-17278380D01*
X51517619Y-17202190D01*
X51593809Y-17126000D01*
X51708095Y-17087904D01*
X51784285Y-17087904D01*
X51898571Y-17126000D01*
X51936666Y-17164095D01*
X52393809Y-17430761D02*
X52317619Y-17392666D01*
X52279523Y-17354571D01*
X52241428Y-17278380D01*
X52241428Y-17240285D01*
X52279523Y-17164095D01*
X52317619Y-17126000D01*
X52393809Y-17087904D01*
X52546190Y-17087904D01*
X52622380Y-17126000D01*
X52660476Y-17164095D01*
X52698571Y-17240285D01*
X52698571Y-17278380D01*
X52660476Y-17354571D01*
X52622380Y-17392666D01*
X52546190Y-17430761D01*
X52393809Y-17430761D01*
X52317619Y-17468857D01*
X52279523Y-17506952D01*
X52241428Y-17583142D01*
X52241428Y-17735523D01*
X52279523Y-17811714D01*
X52317619Y-17849809D01*
X52393809Y-17887904D01*
X52546190Y-17887904D01*
X52622380Y-17849809D01*
X52660476Y-17811714D01*
X52698571Y-17735523D01*
X52698571Y-17583142D01*
X52660476Y-17506952D01*
X52622380Y-17468857D01*
X52546190Y-17430761D01*
X54476666Y-17303714D02*
X54438571Y-17341809D01*
X54324285Y-17379904D01*
X54248095Y-17379904D01*
X54133809Y-17341809D01*
X54057619Y-17265619D01*
X54019523Y-17189428D01*
X53981428Y-17037047D01*
X53981428Y-16922761D01*
X54019523Y-16770380D01*
X54057619Y-16694190D01*
X54133809Y-16618000D01*
X54248095Y-16579904D01*
X54324285Y-16579904D01*
X54438571Y-16618000D01*
X54476666Y-16656095D01*
X54857619Y-17379904D02*
X55010000Y-17379904D01*
X55086190Y-17341809D01*
X55124285Y-17303714D01*
X55200476Y-17189428D01*
X55238571Y-17037047D01*
X55238571Y-16732285D01*
X55200476Y-16656095D01*
X55162380Y-16618000D01*
X55086190Y-16579904D01*
X54933809Y-16579904D01*
X54857619Y-16618000D01*
X54819523Y-16656095D01*
X54781428Y-16732285D01*
X54781428Y-16922761D01*
X54819523Y-16998952D01*
X54857619Y-17037047D01*
X54933809Y-17075142D01*
X55086190Y-17075142D01*
X55162380Y-17037047D01*
X55200476Y-16998952D01*
X55238571Y-16922761D01*
X56578571Y-17659333D02*
X56959523Y-17659333D01*
X56502380Y-17887904D02*
X56769047Y-17087904D01*
X57035714Y-17887904D01*
X57416666Y-17430761D02*
X57340476Y-17392666D01*
X57302380Y-17354571D01*
X57264285Y-17278380D01*
X57264285Y-17240285D01*
X57302380Y-17164095D01*
X57340476Y-17126000D01*
X57416666Y-17087904D01*
X57569047Y-17087904D01*
X57645238Y-17126000D01*
X57683333Y-17164095D01*
X57721428Y-17240285D01*
X57721428Y-17278380D01*
X57683333Y-17354571D01*
X57645238Y-17392666D01*
X57569047Y-17430761D01*
X57416666Y-17430761D01*
X57340476Y-17468857D01*
X57302380Y-17506952D01*
X57264285Y-17583142D01*
X57264285Y-17735523D01*
X57302380Y-17811714D01*
X57340476Y-17849809D01*
X57416666Y-17887904D01*
X57569047Y-17887904D01*
X57645238Y-17849809D01*
X57683333Y-17811714D01*
X57721428Y-17735523D01*
X57721428Y-17583142D01*
X57683333Y-17506952D01*
X57645238Y-17468857D01*
X57569047Y-17430761D01*
X59118571Y-17151333D02*
X59499523Y-17151333D01*
X59042380Y-17379904D02*
X59309047Y-16579904D01*
X59575714Y-17379904D01*
X59880476Y-17379904D02*
X60032857Y-17379904D01*
X60109047Y-17341809D01*
X60147142Y-17303714D01*
X60223333Y-17189428D01*
X60261428Y-17037047D01*
X60261428Y-16732285D01*
X60223333Y-16656095D01*
X60185238Y-16618000D01*
X60109047Y-16579904D01*
X59956666Y-16579904D01*
X59880476Y-16618000D01*
X59842380Y-16656095D01*
X59804285Y-16732285D01*
X59804285Y-16922761D01*
X59842380Y-16998952D01*
X59880476Y-17037047D01*
X59956666Y-17075142D01*
X60109047Y-17075142D01*
X60185238Y-17037047D01*
X60223333Y-16998952D01*
X60261428Y-16922761D01*
X61277619Y-17659333D02*
X61658571Y-17659333D01*
X61201428Y-17887904D02*
X61468095Y-17087904D01*
X61734761Y-17887904D01*
X62420476Y-17887904D02*
X61963333Y-17887904D01*
X62191904Y-17887904D02*
X62191904Y-17087904D01*
X62115714Y-17202190D01*
X62039523Y-17278380D01*
X61963333Y-17316476D01*
X62915714Y-17087904D02*
X62991904Y-17087904D01*
X63068095Y-17126000D01*
X63106190Y-17164095D01*
X63144285Y-17240285D01*
X63182380Y-17392666D01*
X63182380Y-17583142D01*
X63144285Y-17735523D01*
X63106190Y-17811714D01*
X63068095Y-17849809D01*
X62991904Y-17887904D01*
X62915714Y-17887904D01*
X62839523Y-17849809D01*
X62801428Y-17811714D01*
X62763333Y-17735523D01*
X62725238Y-17583142D01*
X62725238Y-17392666D01*
X62763333Y-17240285D01*
X62801428Y-17164095D01*
X62839523Y-17126000D01*
X62915714Y-17087904D01*
X63817619Y-17405333D02*
X64198571Y-17405333D01*
X63741428Y-17633904D02*
X64008095Y-16833904D01*
X64274761Y-17633904D01*
X64960476Y-17633904D02*
X64503333Y-17633904D01*
X64731904Y-17633904D02*
X64731904Y-16833904D01*
X64655714Y-16948190D01*
X64579523Y-17024380D01*
X64503333Y-17062476D01*
X65722380Y-17633904D02*
X65265238Y-17633904D01*
X65493809Y-17633904D02*
X65493809Y-16833904D01*
X65417619Y-16948190D01*
X65341428Y-17024380D01*
X65265238Y-17062476D01*
X66357619Y-17659333D02*
X66738571Y-17659333D01*
X66281428Y-17887904D02*
X66548095Y-17087904D01*
X66814761Y-17887904D01*
X67500476Y-17887904D02*
X67043333Y-17887904D01*
X67271904Y-17887904D02*
X67271904Y-17087904D01*
X67195714Y-17202190D01*
X67119523Y-17278380D01*
X67043333Y-17316476D01*
X67805238Y-17164095D02*
X67843333Y-17126000D01*
X67919523Y-17087904D01*
X68110000Y-17087904D01*
X68186190Y-17126000D01*
X68224285Y-17164095D01*
X68262380Y-17240285D01*
X68262380Y-17316476D01*
X68224285Y-17430761D01*
X67767142Y-17887904D01*
X68262380Y-17887904D01*
X69697619Y-16833904D02*
X69316666Y-16833904D01*
X69278571Y-17214857D01*
X69316666Y-17176761D01*
X69392857Y-17138666D01*
X69583333Y-17138666D01*
X69659523Y-17176761D01*
X69697619Y-17214857D01*
X69735714Y-17291047D01*
X69735714Y-17481523D01*
X69697619Y-17557714D01*
X69659523Y-17595809D01*
X69583333Y-17633904D01*
X69392857Y-17633904D01*
X69316666Y-17595809D01*
X69278571Y-17557714D01*
X69964285Y-16833904D02*
X70230952Y-17633904D01*
X70497619Y-16833904D01*
X68757904Y-2863904D02*
X69253142Y-2863904D01*
X68986476Y-3168666D01*
X69100761Y-3168666D01*
X69176952Y-3206761D01*
X69215047Y-3244857D01*
X69253142Y-3321047D01*
X69253142Y-3511523D01*
X69215047Y-3587714D01*
X69176952Y-3625809D01*
X69100761Y-3663904D01*
X68872190Y-3663904D01*
X68796000Y-3625809D01*
X68757904Y-3587714D01*
X69596000Y-3587714D02*
X69634095Y-3625809D01*
X69596000Y-3663904D01*
X69557904Y-3625809D01*
X69596000Y-3587714D01*
X69596000Y-3663904D01*
X69900761Y-2863904D02*
X70396000Y-2863904D01*
X70129333Y-3168666D01*
X70243619Y-3168666D01*
X70319809Y-3206761D01*
X70357904Y-3244857D01*
X70396000Y-3321047D01*
X70396000Y-3511523D01*
X70357904Y-3587714D01*
X70319809Y-3625809D01*
X70243619Y-3663904D01*
X70015047Y-3663904D01*
X69938857Y-3625809D01*
X69900761Y-3587714D01*
X66795714Y-3079714D02*
X66757619Y-3117809D01*
X66643333Y-3155904D01*
X66567142Y-3155904D01*
X66452857Y-3117809D01*
X66376666Y-3041619D01*
X66338571Y-2965428D01*
X66300476Y-2813047D01*
X66300476Y-2698761D01*
X66338571Y-2546380D01*
X66376666Y-2470190D01*
X66452857Y-2394000D01*
X66567142Y-2355904D01*
X66643333Y-2355904D01*
X66757619Y-2394000D01*
X66795714Y-2432095D01*
X67557619Y-3155904D02*
X67100476Y-3155904D01*
X67329047Y-3155904D02*
X67329047Y-2355904D01*
X67252857Y-2470190D01*
X67176666Y-2546380D01*
X67100476Y-2584476D01*
X67824285Y-2355904D02*
X68319523Y-2355904D01*
X68052857Y-2660666D01*
X68167142Y-2660666D01*
X68243333Y-2698761D01*
X68281428Y-2736857D01*
X68319523Y-2813047D01*
X68319523Y-3003523D01*
X68281428Y-3079714D01*
X68243333Y-3117809D01*
X68167142Y-3155904D01*
X67938571Y-3155904D01*
X67862380Y-3117809D01*
X67824285Y-3079714D01*
X63817619Y-3435333D02*
X64198571Y-3435333D01*
X63741428Y-3663904D02*
X64008095Y-2863904D01*
X64274761Y-3663904D01*
X64960476Y-3663904D02*
X64503333Y-3663904D01*
X64731904Y-3663904D02*
X64731904Y-2863904D01*
X64655714Y-2978190D01*
X64579523Y-3054380D01*
X64503333Y-3092476D01*
X65684285Y-2863904D02*
X65303333Y-2863904D01*
X65265238Y-3244857D01*
X65303333Y-3206761D01*
X65379523Y-3168666D01*
X65570000Y-3168666D01*
X65646190Y-3206761D01*
X65684285Y-3244857D01*
X65722380Y-3321047D01*
X65722380Y-3511523D01*
X65684285Y-3587714D01*
X65646190Y-3625809D01*
X65570000Y-3663904D01*
X65379523Y-3663904D01*
X65303333Y-3625809D01*
X65265238Y-3587714D01*
X61715714Y-3079714D02*
X61677619Y-3117809D01*
X61563333Y-3155904D01*
X61487142Y-3155904D01*
X61372857Y-3117809D01*
X61296666Y-3041619D01*
X61258571Y-2965428D01*
X61220476Y-2813047D01*
X61220476Y-2698761D01*
X61258571Y-2546380D01*
X61296666Y-2470190D01*
X61372857Y-2394000D01*
X61487142Y-2355904D01*
X61563333Y-2355904D01*
X61677619Y-2394000D01*
X61715714Y-2432095D01*
X62477619Y-3155904D02*
X62020476Y-3155904D01*
X62249047Y-3155904D02*
X62249047Y-2355904D01*
X62172857Y-2470190D01*
X62096666Y-2546380D01*
X62020476Y-2584476D01*
X62972857Y-2355904D02*
X63049047Y-2355904D01*
X63125238Y-2394000D01*
X63163333Y-2432095D01*
X63201428Y-2508285D01*
X63239523Y-2660666D01*
X63239523Y-2851142D01*
X63201428Y-3003523D01*
X63163333Y-3079714D01*
X63125238Y-3117809D01*
X63049047Y-3155904D01*
X62972857Y-3155904D01*
X62896666Y-3117809D01*
X62858571Y-3079714D01*
X62820476Y-3003523D01*
X62782380Y-2851142D01*
X62782380Y-2660666D01*
X62820476Y-2508285D01*
X62858571Y-2432095D01*
X62896666Y-2394000D01*
X62972857Y-2355904D01*
X59175714Y-3587714D02*
X59137619Y-3625809D01*
X59023333Y-3663904D01*
X58947142Y-3663904D01*
X58832857Y-3625809D01*
X58756666Y-3549619D01*
X58718571Y-3473428D01*
X58680476Y-3321047D01*
X58680476Y-3206761D01*
X58718571Y-3054380D01*
X58756666Y-2978190D01*
X58832857Y-2902000D01*
X58947142Y-2863904D01*
X59023333Y-2863904D01*
X59137619Y-2902000D01*
X59175714Y-2940095D01*
X59937619Y-3663904D02*
X59480476Y-3663904D01*
X59709047Y-3663904D02*
X59709047Y-2863904D01*
X59632857Y-2978190D01*
X59556666Y-3054380D01*
X59480476Y-3092476D01*
X60699523Y-3663904D02*
X60242380Y-3663904D01*
X60470952Y-3663904D02*
X60470952Y-2863904D01*
X60394761Y-2978190D01*
X60318571Y-3054380D01*
X60242380Y-3092476D01*
X56635714Y-3079714D02*
X56597619Y-3117809D01*
X56483333Y-3155904D01*
X56407142Y-3155904D01*
X56292857Y-3117809D01*
X56216666Y-3041619D01*
X56178571Y-2965428D01*
X56140476Y-2813047D01*
X56140476Y-2698761D01*
X56178571Y-2546380D01*
X56216666Y-2470190D01*
X56292857Y-2394000D01*
X56407142Y-2355904D01*
X56483333Y-2355904D01*
X56597619Y-2394000D01*
X56635714Y-2432095D01*
X57397619Y-3155904D02*
X56940476Y-3155904D01*
X57169047Y-3155904D02*
X57169047Y-2355904D01*
X57092857Y-2470190D01*
X57016666Y-2546380D01*
X56940476Y-2584476D01*
X57702380Y-2432095D02*
X57740476Y-2394000D01*
X57816666Y-2355904D01*
X58007142Y-2355904D01*
X58083333Y-2394000D01*
X58121428Y-2432095D01*
X58159523Y-2508285D01*
X58159523Y-2584476D01*
X58121428Y-2698761D01*
X57664285Y-3155904D01*
X58159523Y-3155904D01*
X54019523Y-3663904D02*
X54019523Y-2863904D01*
X54210000Y-2863904D01*
X54324285Y-2902000D01*
X54400476Y-2978190D01*
X54438571Y-3054380D01*
X54476666Y-3206761D01*
X54476666Y-3321047D01*
X54438571Y-3473428D01*
X54400476Y-3549619D01*
X54324285Y-3625809D01*
X54210000Y-3663904D01*
X54019523Y-3663904D01*
X54781428Y-2940095D02*
X54819523Y-2902000D01*
X54895714Y-2863904D01*
X55086190Y-2863904D01*
X55162380Y-2902000D01*
X55200476Y-2940095D01*
X55238571Y-3016285D01*
X55238571Y-3092476D01*
X55200476Y-3206761D01*
X54743333Y-3663904D01*
X55238571Y-3663904D01*
X51746190Y-2736857D02*
X51860476Y-2774952D01*
X51898571Y-2813047D01*
X51936666Y-2889238D01*
X51936666Y-3003523D01*
X51898571Y-3079714D01*
X51860476Y-3117809D01*
X51784285Y-3155904D01*
X51479523Y-3155904D01*
X51479523Y-2355904D01*
X51746190Y-2355904D01*
X51822380Y-2394000D01*
X51860476Y-2432095D01*
X51898571Y-2508285D01*
X51898571Y-2584476D01*
X51860476Y-2660666D01*
X51822380Y-2698761D01*
X51746190Y-2736857D01*
X51479523Y-2736857D01*
X52203333Y-2355904D02*
X52698571Y-2355904D01*
X52431904Y-2660666D01*
X52546190Y-2660666D01*
X52622380Y-2698761D01*
X52660476Y-2736857D01*
X52698571Y-2813047D01*
X52698571Y-3003523D01*
X52660476Y-3079714D01*
X52622380Y-3117809D01*
X52546190Y-3155904D01*
X52317619Y-3155904D01*
X52241428Y-3117809D01*
X52203333Y-3079714D01*
X49206190Y-3244857D02*
X49320476Y-3282952D01*
X49358571Y-3321047D01*
X49396666Y-3397238D01*
X49396666Y-3511523D01*
X49358571Y-3587714D01*
X49320476Y-3625809D01*
X49244285Y-3663904D01*
X48939523Y-3663904D01*
X48939523Y-2863904D01*
X49206190Y-2863904D01*
X49282380Y-2902000D01*
X49320476Y-2940095D01*
X49358571Y-3016285D01*
X49358571Y-3092476D01*
X49320476Y-3168666D01*
X49282380Y-3206761D01*
X49206190Y-3244857D01*
X48939523Y-3244857D01*
X50082380Y-3130571D02*
X50082380Y-3663904D01*
X49891904Y-2825809D02*
X49701428Y-3397238D01*
X50196666Y-3397238D01*
X46666190Y-2736857D02*
X46780476Y-2774952D01*
X46818571Y-2813047D01*
X46856666Y-2889238D01*
X46856666Y-3003523D01*
X46818571Y-3079714D01*
X46780476Y-3117809D01*
X46704285Y-3155904D01*
X46399523Y-3155904D01*
X46399523Y-2355904D01*
X46666190Y-2355904D01*
X46742380Y-2394000D01*
X46780476Y-2432095D01*
X46818571Y-2508285D01*
X46818571Y-2584476D01*
X46780476Y-2660666D01*
X46742380Y-2698761D01*
X46666190Y-2736857D01*
X46399523Y-2736857D01*
X47580476Y-2355904D02*
X47199523Y-2355904D01*
X47161428Y-2736857D01*
X47199523Y-2698761D01*
X47275714Y-2660666D01*
X47466190Y-2660666D01*
X47542380Y-2698761D01*
X47580476Y-2736857D01*
X47618571Y-2813047D01*
X47618571Y-3003523D01*
X47580476Y-3079714D01*
X47542380Y-3117809D01*
X47466190Y-3155904D01*
X47275714Y-3155904D01*
X47199523Y-3117809D01*
X47161428Y-3079714D01*
X44126190Y-3244857D02*
X44240476Y-3282952D01*
X44278571Y-3321047D01*
X44316666Y-3397238D01*
X44316666Y-3511523D01*
X44278571Y-3587714D01*
X44240476Y-3625809D01*
X44164285Y-3663904D01*
X43859523Y-3663904D01*
X43859523Y-2863904D01*
X44126190Y-2863904D01*
X44202380Y-2902000D01*
X44240476Y-2940095D01*
X44278571Y-3016285D01*
X44278571Y-3092476D01*
X44240476Y-3168666D01*
X44202380Y-3206761D01*
X44126190Y-3244857D01*
X43859523Y-3244857D01*
X45002380Y-2863904D02*
X44850000Y-2863904D01*
X44773809Y-2902000D01*
X44735714Y-2940095D01*
X44659523Y-3054380D01*
X44621428Y-3206761D01*
X44621428Y-3511523D01*
X44659523Y-3587714D01*
X44697619Y-3625809D01*
X44773809Y-3663904D01*
X44926190Y-3663904D01*
X45002380Y-3625809D01*
X45040476Y-3587714D01*
X45078571Y-3511523D01*
X45078571Y-3321047D01*
X45040476Y-3244857D01*
X45002380Y-3206761D01*
X44926190Y-3168666D01*
X44773809Y-3168666D01*
X44697619Y-3206761D01*
X44659523Y-3244857D01*
X44621428Y-3321047D01*
X41586190Y-2736857D02*
X41700476Y-2774952D01*
X41738571Y-2813047D01*
X41776666Y-2889238D01*
X41776666Y-3003523D01*
X41738571Y-3079714D01*
X41700476Y-3117809D01*
X41624285Y-3155904D01*
X41319523Y-3155904D01*
X41319523Y-2355904D01*
X41586190Y-2355904D01*
X41662380Y-2394000D01*
X41700476Y-2432095D01*
X41738571Y-2508285D01*
X41738571Y-2584476D01*
X41700476Y-2660666D01*
X41662380Y-2698761D01*
X41586190Y-2736857D01*
X41319523Y-2736857D01*
X42043333Y-2355904D02*
X42576666Y-2355904D01*
X42233809Y-3155904D01*
X39554190Y-2736857D02*
X39668476Y-2774952D01*
X39706571Y-2813047D01*
X39744666Y-2889238D01*
X39744666Y-3003523D01*
X39706571Y-3079714D01*
X39668476Y-3117809D01*
X39592285Y-3155904D01*
X39287523Y-3155904D01*
X39287523Y-2355904D01*
X39554190Y-2355904D01*
X39630380Y-2394000D01*
X39668476Y-2432095D01*
X39706571Y-2508285D01*
X39706571Y-2584476D01*
X39668476Y-2660666D01*
X39630380Y-2698761D01*
X39554190Y-2736857D01*
X39287523Y-2736857D01*
X40125619Y-3155904D02*
X40278000Y-3155904D01*
X40354190Y-3117809D01*
X40392285Y-3079714D01*
X40468476Y-2965428D01*
X40506571Y-2813047D01*
X40506571Y-2508285D01*
X40468476Y-2432095D01*
X40430380Y-2394000D01*
X40354190Y-2355904D01*
X40201809Y-2355904D01*
X40125619Y-2394000D01*
X40087523Y-2432095D01*
X40049428Y-2508285D01*
X40049428Y-2698761D01*
X40087523Y-2774952D01*
X40125619Y-2813047D01*
X40201809Y-2851142D01*
X40354190Y-2851142D01*
X40430380Y-2813047D01*
X40468476Y-2774952D01*
X40506571Y-2698761D01*
X37458690Y-2546357D02*
X37572976Y-2584452D01*
X37611071Y-2622547D01*
X37649166Y-2698738D01*
X37649166Y-2813023D01*
X37611071Y-2889214D01*
X37572976Y-2927309D01*
X37496785Y-2965404D01*
X37192023Y-2965404D01*
X37192023Y-2165404D01*
X37458690Y-2165404D01*
X37534880Y-2203500D01*
X37572976Y-2241595D01*
X37611071Y-2317785D01*
X37611071Y-2393976D01*
X37572976Y-2470166D01*
X37534880Y-2508261D01*
X37458690Y-2546357D01*
X37192023Y-2546357D01*
X38106309Y-2508261D02*
X38030119Y-2470166D01*
X37992023Y-2432071D01*
X37953928Y-2355880D01*
X37953928Y-2317785D01*
X37992023Y-2241595D01*
X38030119Y-2203500D01*
X38106309Y-2165404D01*
X38258690Y-2165404D01*
X38334880Y-2203500D01*
X38372976Y-2241595D01*
X38411071Y-2317785D01*
X38411071Y-2355880D01*
X38372976Y-2432071D01*
X38334880Y-2470166D01*
X38258690Y-2508261D01*
X38106309Y-2508261D01*
X38030119Y-2546357D01*
X37992023Y-2584452D01*
X37953928Y-2660642D01*
X37953928Y-2813023D01*
X37992023Y-2889214D01*
X38030119Y-2927309D01*
X38106309Y-2965404D01*
X38258690Y-2965404D01*
X38334880Y-2927309D01*
X38372976Y-2889214D01*
X38411071Y-2813023D01*
X38411071Y-2660642D01*
X38372976Y-2584452D01*
X38334880Y-2546357D01*
X38258690Y-2508261D01*
D11*
X32759000Y-2283666D02*
X32992333Y-2983666D01*
X33225666Y-2283666D01*
X33692333Y-2617000D02*
X33792333Y-2650333D01*
X33825666Y-2683666D01*
X33859000Y-2750333D01*
X33859000Y-2850333D01*
X33825666Y-2917000D01*
X33792333Y-2950333D01*
X33725666Y-2983666D01*
X33459000Y-2983666D01*
X33459000Y-2283666D01*
X33692333Y-2283666D01*
X33759000Y-2317000D01*
X33792333Y-2350333D01*
X33825666Y-2417000D01*
X33825666Y-2483666D01*
X33792333Y-2550333D01*
X33759000Y-2583666D01*
X33692333Y-2617000D01*
X33459000Y-2617000D01*
X34125666Y-2783666D02*
X34459000Y-2783666D01*
X34059000Y-2983666D02*
X34292333Y-2283666D01*
X34525666Y-2983666D01*
X34659000Y-2283666D02*
X35059000Y-2283666D01*
X34859000Y-2983666D02*
X34859000Y-2283666D01*
D10*
X30981666Y-2952714D02*
X30943571Y-2990809D01*
X30829285Y-3028904D01*
X30753095Y-3028904D01*
X30638809Y-2990809D01*
X30562619Y-2914619D01*
X30524523Y-2838428D01*
X30486428Y-2686047D01*
X30486428Y-2571761D01*
X30524523Y-2419380D01*
X30562619Y-2343190D01*
X30638809Y-2267000D01*
X30753095Y-2228904D01*
X30829285Y-2228904D01*
X30943571Y-2267000D01*
X30981666Y-2305095D01*
X31476904Y-2228904D02*
X31553095Y-2228904D01*
X31629285Y-2267000D01*
X31667380Y-2305095D01*
X31705476Y-2381285D01*
X31743571Y-2533666D01*
X31743571Y-2724142D01*
X31705476Y-2876523D01*
X31667380Y-2952714D01*
X31629285Y-2990809D01*
X31553095Y-3028904D01*
X31476904Y-3028904D01*
X31400714Y-2990809D01*
X31362619Y-2952714D01*
X31324523Y-2876523D01*
X31286428Y-2724142D01*
X31286428Y-2533666D01*
X31324523Y-2381285D01*
X31362619Y-2305095D01*
X31400714Y-2267000D01*
X31476904Y-2228904D01*
X29076666Y-3587714D02*
X29038571Y-3625809D01*
X28924285Y-3663904D01*
X28848095Y-3663904D01*
X28733809Y-3625809D01*
X28657619Y-3549619D01*
X28619523Y-3473428D01*
X28581428Y-3321047D01*
X28581428Y-3206761D01*
X28619523Y-3054380D01*
X28657619Y-2978190D01*
X28733809Y-2902000D01*
X28848095Y-2863904D01*
X28924285Y-2863904D01*
X29038571Y-2902000D01*
X29076666Y-2940095D01*
X29838571Y-3663904D02*
X29381428Y-3663904D01*
X29610000Y-3663904D02*
X29610000Y-2863904D01*
X29533809Y-2978190D01*
X29457619Y-3054380D01*
X29381428Y-3092476D01*
X26536666Y-3079714D02*
X26498571Y-3117809D01*
X26384285Y-3155904D01*
X26308095Y-3155904D01*
X26193809Y-3117809D01*
X26117619Y-3041619D01*
X26079523Y-2965428D01*
X26041428Y-2813047D01*
X26041428Y-2698761D01*
X26079523Y-2546380D01*
X26117619Y-2470190D01*
X26193809Y-2394000D01*
X26308095Y-2355904D01*
X26384285Y-2355904D01*
X26498571Y-2394000D01*
X26536666Y-2432095D01*
X26841428Y-2432095D02*
X26879523Y-2394000D01*
X26955714Y-2355904D01*
X27146190Y-2355904D01*
X27222380Y-2394000D01*
X27260476Y-2432095D01*
X27298571Y-2508285D01*
X27298571Y-2584476D01*
X27260476Y-2698761D01*
X26803333Y-3155904D01*
X27298571Y-3155904D01*
X23996666Y-3587714D02*
X23958571Y-3625809D01*
X23844285Y-3663904D01*
X23768095Y-3663904D01*
X23653809Y-3625809D01*
X23577619Y-3549619D01*
X23539523Y-3473428D01*
X23501428Y-3321047D01*
X23501428Y-3206761D01*
X23539523Y-3054380D01*
X23577619Y-2978190D01*
X23653809Y-2902000D01*
X23768095Y-2863904D01*
X23844285Y-2863904D01*
X23958571Y-2902000D01*
X23996666Y-2940095D01*
X24263333Y-2863904D02*
X24758571Y-2863904D01*
X24491904Y-3168666D01*
X24606190Y-3168666D01*
X24682380Y-3206761D01*
X24720476Y-3244857D01*
X24758571Y-3321047D01*
X24758571Y-3511523D01*
X24720476Y-3587714D01*
X24682380Y-3625809D01*
X24606190Y-3663904D01*
X24377619Y-3663904D01*
X24301428Y-3625809D01*
X24263333Y-3587714D01*
X21018571Y-2927333D02*
X21399523Y-2927333D01*
X20942380Y-3155904D02*
X21209047Y-2355904D01*
X21475714Y-3155904D01*
X21894761Y-2355904D02*
X21970952Y-2355904D01*
X22047142Y-2394000D01*
X22085238Y-2432095D01*
X22123333Y-2508285D01*
X22161428Y-2660666D01*
X22161428Y-2851142D01*
X22123333Y-3003523D01*
X22085238Y-3079714D01*
X22047142Y-3117809D01*
X21970952Y-3155904D01*
X21894761Y-3155904D01*
X21818571Y-3117809D01*
X21780476Y-3079714D01*
X21742380Y-3003523D01*
X21704285Y-2851142D01*
X21704285Y-2660666D01*
X21742380Y-2508285D01*
X21780476Y-2432095D01*
X21818571Y-2394000D01*
X21894761Y-2355904D01*
X18478571Y-3435333D02*
X18859523Y-3435333D01*
X18402380Y-3663904D02*
X18669047Y-2863904D01*
X18935714Y-3663904D01*
X19621428Y-3663904D02*
X19164285Y-3663904D01*
X19392857Y-3663904D02*
X19392857Y-2863904D01*
X19316666Y-2978190D01*
X19240476Y-3054380D01*
X19164285Y-3092476D01*
X15938571Y-2927333D02*
X16319523Y-2927333D01*
X15862380Y-3155904D02*
X16129047Y-2355904D01*
X16395714Y-3155904D01*
X16624285Y-2432095D02*
X16662380Y-2394000D01*
X16738571Y-2355904D01*
X16929047Y-2355904D01*
X17005238Y-2394000D01*
X17043333Y-2432095D01*
X17081428Y-2508285D01*
X17081428Y-2584476D01*
X17043333Y-2698761D01*
X16586190Y-3155904D01*
X17081428Y-3155904D01*
X13531904Y-3663904D02*
X13265238Y-3282952D01*
X13074761Y-3663904D02*
X13074761Y-2863904D01*
X13379523Y-2863904D01*
X13455714Y-2902000D01*
X13493809Y-2940095D01*
X13531904Y-3016285D01*
X13531904Y-3130571D01*
X13493809Y-3206761D01*
X13455714Y-3244857D01*
X13379523Y-3282952D01*
X13074761Y-3282952D01*
X13836666Y-3625809D02*
X13950952Y-3663904D01*
X14141428Y-3663904D01*
X14217619Y-3625809D01*
X14255714Y-3587714D01*
X14293809Y-3511523D01*
X14293809Y-3435333D01*
X14255714Y-3359142D01*
X14217619Y-3321047D01*
X14141428Y-3282952D01*
X13989047Y-3244857D01*
X13912857Y-3206761D01*
X13874761Y-3168666D01*
X13836666Y-3092476D01*
X13836666Y-3016285D01*
X13874761Y-2940095D01*
X13912857Y-2902000D01*
X13989047Y-2863904D01*
X14179523Y-2863904D01*
X14293809Y-2902000D01*
X14522380Y-2863904D02*
X14979523Y-2863904D01*
X14750952Y-3663904D02*
X14750952Y-2863904D01*
X10915714Y-3079714D02*
X10877619Y-3117809D01*
X10763333Y-3155904D01*
X10687142Y-3155904D01*
X10572857Y-3117809D01*
X10496666Y-3041619D01*
X10458571Y-2965428D01*
X10420476Y-2813047D01*
X10420476Y-2698761D01*
X10458571Y-2546380D01*
X10496666Y-2470190D01*
X10572857Y-2394000D01*
X10687142Y-2355904D01*
X10763333Y-2355904D01*
X10877619Y-2394000D01*
X10915714Y-2432095D01*
X11677619Y-3155904D02*
X11220476Y-3155904D01*
X11449047Y-3155904D02*
X11449047Y-2355904D01*
X11372857Y-2470190D01*
X11296666Y-2546380D01*
X11220476Y-2584476D01*
X12401428Y-2355904D02*
X12020476Y-2355904D01*
X11982380Y-2736857D01*
X12020476Y-2698761D01*
X12096666Y-2660666D01*
X12287142Y-2660666D01*
X12363333Y-2698761D01*
X12401428Y-2736857D01*
X12439523Y-2813047D01*
X12439523Y-3003523D01*
X12401428Y-3079714D01*
X12363333Y-3117809D01*
X12287142Y-3155904D01*
X12096666Y-3155904D01*
X12020476Y-3117809D01*
X11982380Y-3079714D01*
X8629714Y-3587714D02*
X8591619Y-3625809D01*
X8477333Y-3663904D01*
X8401142Y-3663904D01*
X8286857Y-3625809D01*
X8210666Y-3549619D01*
X8172571Y-3473428D01*
X8134476Y-3321047D01*
X8134476Y-3206761D01*
X8172571Y-3054380D01*
X8210666Y-2978190D01*
X8286857Y-2902000D01*
X8401142Y-2863904D01*
X8477333Y-2863904D01*
X8591619Y-2902000D01*
X8629714Y-2940095D01*
X9391619Y-3663904D02*
X8934476Y-3663904D01*
X9163047Y-3663904D02*
X9163047Y-2863904D01*
X9086857Y-2978190D01*
X9010666Y-3054380D01*
X8934476Y-3092476D01*
X10077333Y-3130571D02*
X10077333Y-3663904D01*
X9886857Y-2825809D02*
X9696380Y-3397238D01*
X10191619Y-3397238D01*
X4845238Y-2901904D02*
X4845238Y-2101904D01*
X4845238Y-2406666D02*
X4921428Y-2368571D01*
X5073809Y-2368571D01*
X5150000Y-2406666D01*
X5188095Y-2444761D01*
X5226190Y-2520952D01*
X5226190Y-2749523D01*
X5188095Y-2825714D01*
X5150000Y-2863809D01*
X5073809Y-2901904D01*
X4921428Y-2901904D01*
X4845238Y-2863809D01*
X5683333Y-2901904D02*
X5607142Y-2863809D01*
X5569047Y-2825714D01*
X5530952Y-2749523D01*
X5530952Y-2520952D01*
X5569047Y-2444761D01*
X5607142Y-2406666D01*
X5683333Y-2368571D01*
X5797619Y-2368571D01*
X5873809Y-2406666D01*
X5911904Y-2444761D01*
X5950000Y-2520952D01*
X5950000Y-2749523D01*
X5911904Y-2825714D01*
X5873809Y-2863809D01*
X5797619Y-2901904D01*
X5683333Y-2901904D01*
X6407142Y-2901904D02*
X6330952Y-2863809D01*
X6292857Y-2825714D01*
X6254761Y-2749523D01*
X6254761Y-2520952D01*
X6292857Y-2444761D01*
X6330952Y-2406666D01*
X6407142Y-2368571D01*
X6521428Y-2368571D01*
X6597619Y-2406666D01*
X6635714Y-2444761D01*
X6673809Y-2520952D01*
X6673809Y-2749523D01*
X6635714Y-2825714D01*
X6597619Y-2863809D01*
X6521428Y-2901904D01*
X6407142Y-2901904D01*
X6902380Y-2368571D02*
X7207142Y-2368571D01*
X7016666Y-2101904D02*
X7016666Y-2787619D01*
X7054761Y-2863809D01*
X7130952Y-2901904D01*
X7207142Y-2901904D01*
X7626190Y-2101904D02*
X7702380Y-2101904D01*
X7778571Y-2140000D01*
X7816666Y-2178095D01*
X7854761Y-2254285D01*
X7892857Y-2406666D01*
X7892857Y-2597142D01*
X7854761Y-2749523D01*
X7816666Y-2825714D01*
X7778571Y-2863809D01*
X7702380Y-2901904D01*
X7626190Y-2901904D01*
X7550000Y-2863809D01*
X7511904Y-2825714D01*
X7473809Y-2749523D01*
X7435714Y-2597142D01*
X7435714Y-2406666D01*
X7473809Y-2254285D01*
X7511904Y-2178095D01*
X7550000Y-2140000D01*
X7626190Y-2101904D01*
X3657619Y-2863904D02*
X3276666Y-2863904D01*
X3238571Y-3244857D01*
X3276666Y-3206761D01*
X3352857Y-3168666D01*
X3543333Y-3168666D01*
X3619523Y-3206761D01*
X3657619Y-3244857D01*
X3695714Y-3321047D01*
X3695714Y-3511523D01*
X3657619Y-3587714D01*
X3619523Y-3625809D01*
X3543333Y-3663904D01*
X3352857Y-3663904D01*
X3276666Y-3625809D01*
X3238571Y-3587714D01*
X3924285Y-2863904D02*
X4190952Y-3663904D01*
X4457619Y-2863904D01*
X914476Y-2394000D02*
X838285Y-2355904D01*
X724000Y-2355904D01*
X609714Y-2394000D01*
X533523Y-2470190D01*
X495428Y-2546380D01*
X457333Y-2698761D01*
X457333Y-2813047D01*
X495428Y-2965428D01*
X533523Y-3041619D01*
X609714Y-3117809D01*
X724000Y-3155904D01*
X800190Y-3155904D01*
X914476Y-3117809D01*
X952571Y-3079714D01*
X952571Y-2813047D01*
X800190Y-2813047D01*
X1295428Y-3155904D02*
X1295428Y-2355904D01*
X1752571Y-3155904D01*
X1752571Y-2355904D01*
X2133523Y-3155904D02*
X2133523Y-2355904D01*
X2324000Y-2355904D01*
X2438285Y-2394000D01*
X2514476Y-2470190D01*
X2552571Y-2546380D01*
X2590666Y-2698761D01*
X2590666Y-2813047D01*
X2552571Y-2965428D01*
X2514476Y-3041619D01*
X2438285Y-3117809D01*
X2324000Y-3155904D01*
X2133523Y-3155904D01*
X914476Y-16872000D02*
X838285Y-16833904D01*
X724000Y-16833904D01*
X609714Y-16872000D01*
X533523Y-16948190D01*
X495428Y-17024380D01*
X457333Y-17176761D01*
X457333Y-17291047D01*
X495428Y-17443428D01*
X533523Y-17519619D01*
X609714Y-17595809D01*
X724000Y-17633904D01*
X800190Y-17633904D01*
X914476Y-17595809D01*
X952571Y-17557714D01*
X952571Y-17291047D01*
X800190Y-17291047D01*
X1295428Y-17633904D02*
X1295428Y-16833904D01*
X1752571Y-17633904D01*
X1752571Y-16833904D01*
X2133523Y-17633904D02*
X2133523Y-16833904D01*
X2324000Y-16833904D01*
X2438285Y-16872000D01*
X2514476Y-16948190D01*
X2552571Y-17024380D01*
X2590666Y-17176761D01*
X2590666Y-17291047D01*
X2552571Y-17443428D01*
X2514476Y-17519619D01*
X2438285Y-17595809D01*
X2324000Y-17633904D01*
X2133523Y-17633904D01*
X71526476Y-17126000D02*
X71450285Y-17087904D01*
X71336000Y-17087904D01*
X71221714Y-17126000D01*
X71145523Y-17202190D01*
X71107428Y-17278380D01*
X71069333Y-17430761D01*
X71069333Y-17545047D01*
X71107428Y-17697428D01*
X71145523Y-17773619D01*
X71221714Y-17849809D01*
X71336000Y-17887904D01*
X71412190Y-17887904D01*
X71526476Y-17849809D01*
X71564571Y-17811714D01*
X71564571Y-17545047D01*
X71412190Y-17545047D01*
X71907428Y-17887904D02*
X71907428Y-17087904D01*
X72364571Y-17887904D01*
X72364571Y-17087904D01*
X72745523Y-17887904D02*
X72745523Y-17087904D01*
X72936000Y-17087904D01*
X73050285Y-17126000D01*
X73126476Y-17202190D01*
X73164571Y-17278380D01*
X73202666Y-17430761D01*
X73202666Y-17545047D01*
X73164571Y-17697428D01*
X73126476Y-17773619D01*
X73050285Y-17849809D01*
X72936000Y-17887904D01*
X72745523Y-17887904D01*
X71526476Y-2648000D02*
X71450285Y-2609904D01*
X71336000Y-2609904D01*
X71221714Y-2648000D01*
X71145523Y-2724190D01*
X71107428Y-2800380D01*
X71069333Y-2952761D01*
X71069333Y-3067047D01*
X71107428Y-3219428D01*
X71145523Y-3295619D01*
X71221714Y-3371809D01*
X71336000Y-3409904D01*
X71412190Y-3409904D01*
X71526476Y-3371809D01*
X71564571Y-3333714D01*
X71564571Y-3067047D01*
X71412190Y-3067047D01*
X71907428Y-3409904D02*
X71907428Y-2609904D01*
X72364571Y-3409904D01*
X72364571Y-2609904D01*
X72745523Y-3409904D02*
X72745523Y-2609904D01*
X72936000Y-2609904D01*
X73050285Y-2648000D01*
X73126476Y-2724190D01*
X73164571Y-2800380D01*
X73202666Y-2952761D01*
X73202666Y-3067047D01*
X73164571Y-3219428D01*
X73126476Y-3295619D01*
X73050285Y-3371809D01*
X72936000Y-3409904D01*
X72745523Y-3409904D01*
D12*
G04 #@! TO.C,J5*
X5020000Y-15300000D02*
X7680000Y-15300000D01*
X5020000Y-7620000D02*
X5020000Y-15300000D01*
X7680000Y-7620000D02*
X7680000Y-15300000D01*
X5020000Y-7620000D02*
X7680000Y-7620000D01*
X5020000Y-6350000D02*
X5020000Y-5020000D01*
X5020000Y-5020000D02*
X6350000Y-5020000D01*
G04 #@! TO.C,C1*
X24894000Y-11846779D02*
X24894000Y-11521221D01*
X23874000Y-11846779D02*
X23874000Y-11521221D01*
G04 #@! TO.C,C2*
X24894000Y-8219221D02*
X24894000Y-8544779D01*
X23874000Y-8219221D02*
X23874000Y-8544779D01*
G04 #@! TO.C,C3*
X49782000Y-11495721D02*
X49782000Y-11821279D01*
X50802000Y-11495721D02*
X50802000Y-11821279D01*
G04 #@! TO.C,C4*
X42199779Y-3490500D02*
X41874221Y-3490500D01*
X42199779Y-4510500D02*
X41874221Y-4510500D01*
G04 #@! TO.C,C5*
X46226000Y-10322779D02*
X46226000Y-9997221D01*
X47246000Y-10322779D02*
X47246000Y-9997221D01*
G04 #@! TO.C,C6*
X31341279Y-16893000D02*
X31015721Y-16893000D01*
X31341279Y-15873000D02*
X31015721Y-15873000D01*
G04 #@! TO.C,C7*
X27912279Y-13019500D02*
X27586721Y-13019500D01*
X27912279Y-11999500D02*
X27586721Y-11999500D01*
G04 #@! TO.C,C8*
X61813221Y-13968000D02*
X62138779Y-13968000D01*
X61813221Y-14988000D02*
X62138779Y-14988000D01*
G04 #@! TO.C,C9*
X12194000Y-5679221D02*
X12194000Y-6004779D01*
X11174000Y-5679221D02*
X11174000Y-6004779D01*
G04 #@! TO.C,C10*
X16508000Y-5679221D02*
X16508000Y-6004779D01*
X17528000Y-5679221D02*
X17528000Y-6004779D01*
G04 #@! TO.C,C11*
X58328779Y-13968000D02*
X58003221Y-13968000D01*
X58328779Y-14988000D02*
X58003221Y-14988000D01*
G04 #@! TO.C,C12*
X27840721Y-15873000D02*
X28166279Y-15873000D01*
X27840721Y-16893000D02*
X28166279Y-16893000D01*
G04 #@! TO.C,C13*
X45811221Y-13464000D02*
X46136779Y-13464000D01*
X45811221Y-12444000D02*
X46136779Y-12444000D01*
G04 #@! TO.C,C14*
X29685727Y-5469478D02*
X29455522Y-5239273D01*
X28964478Y-6190727D02*
X28734273Y-5960522D01*
G04 #@! TO.C,D1*
X70651000Y-5307000D02*
X72936000Y-5307000D01*
X70651000Y-3837000D02*
X70651000Y-5307000D01*
X72936000Y-3837000D02*
X70651000Y-3837000D01*
G04 #@! TO.C,D2*
X72936000Y-6123000D02*
X70651000Y-6123000D01*
X70651000Y-6123000D02*
X70651000Y-7593000D01*
X70651000Y-7593000D02*
X72936000Y-7593000D01*
G04 #@! TO.C,J1*
X10220000Y-5020000D02*
X7560000Y-5020000D01*
X10220000Y-7620000D02*
X10220000Y-5020000D01*
X7560000Y-7620000D02*
X7560000Y-5020000D01*
X10220000Y-7620000D02*
X7560000Y-7620000D01*
X10220000Y-8890000D02*
X10220000Y-10220000D01*
X10220000Y-10220000D02*
X8890000Y-10220000D01*
G04 #@! TO.C,J4*
X69357500Y-16346000D02*
X69357500Y-15896000D01*
X71207500Y-16346000D02*
X69357500Y-16346000D01*
X73757500Y-8546000D02*
X73507500Y-8546000D01*
X73757500Y-16346000D02*
X73507500Y-16346000D01*
X71207500Y-8546000D02*
X69357500Y-8546000D01*
X69357500Y-8546000D02*
X69357500Y-8996000D01*
X68807500Y-14146000D02*
X68807500Y-13696000D01*
X68807500Y-14146000D02*
X69257500Y-14146000D01*
G04 #@! TO.C,R1*
X9908000Y-12283221D02*
X9908000Y-12608779D01*
X8888000Y-12283221D02*
X8888000Y-12608779D01*
G04 #@! TO.C,R2*
X49782000Y-8544779D02*
X49782000Y-8219221D01*
X50802000Y-8544779D02*
X50802000Y-8219221D01*
G04 #@! TO.C,R3*
X68442721Y-5082000D02*
X68768279Y-5082000D01*
X68442721Y-4062000D02*
X68768279Y-4062000D01*
G04 #@! TO.C,R4*
X32103279Y-4193000D02*
X31777721Y-4193000D01*
X32103279Y-3173000D02*
X31777721Y-3173000D01*
G04 #@! TO.C,R5*
X66228279Y-9400000D02*
X65902721Y-9400000D01*
X66228279Y-8380000D02*
X65902721Y-8380000D01*
G04 #@! TO.C,R6*
X65877221Y-11178000D02*
X66202779Y-11178000D01*
X65877221Y-10158000D02*
X66202779Y-10158000D01*
G04 #@! TO.C,R7*
X66202779Y-12956000D02*
X65877221Y-12956000D01*
X66202779Y-11936000D02*
X65877221Y-11936000D01*
G04 #@! TO.C,R8*
X65877221Y-14734000D02*
X66202779Y-14734000D01*
X65877221Y-13714000D02*
X66202779Y-13714000D01*
G04 #@! TO.C,R9*
X65877221Y-16512000D02*
X66202779Y-16512000D01*
X65877221Y-15492000D02*
X66202779Y-15492000D01*
G04 #@! TO.C,R10*
X68417221Y-7368000D02*
X68742779Y-7368000D01*
X68417221Y-6348000D02*
X68742779Y-6348000D01*
G04 #@! TO.C,SW1*
X55190000Y-6846000D02*
X55190000Y-12966000D01*
X55190000Y-12966000D02*
X51490000Y-12966000D01*
X51490000Y-12966000D02*
X51490000Y-6846000D01*
X51490000Y-6846000D02*
X55190000Y-6846000D01*
D13*
G04 #@! TO.C,U1*
X36830000Y-2841445D02*
X36122893Y-3548552D01*
X44148555Y-10160000D02*
X43388415Y-10920140D01*
X36830000Y-17478555D02*
X37590140Y-16718415D01*
X29511445Y-10160000D02*
X30271585Y-9399860D01*
X36830000Y-2841445D02*
X37590140Y-3601585D01*
X29511445Y-10160000D02*
X30271585Y-10920140D01*
X36830000Y-17478555D02*
X36069860Y-16718415D01*
X44148555Y-10160000D02*
X43388415Y-9399860D01*
X36122893Y-3548552D02*
X35398109Y-2823767D01*
D12*
G04 #@! TO.C,U2*
X63354000Y-6980000D02*
X62094000Y-6980000D01*
X56534000Y-6980000D02*
X57794000Y-6980000D01*
X63354000Y-10740000D02*
X63354000Y-6980000D01*
X56534000Y-12990000D02*
X56534000Y-6980000D01*
G04 #@! TO.C,Y1*
X18049000Y-13206000D02*
X18049000Y-6806000D01*
X23099000Y-13206000D02*
X23099000Y-6806000D01*
X23099000Y-13206000D02*
G75*
G02X18049000Y-13206000I-2525000J0D01*
G01*
X23099000Y-6806000D02*
G75*
G03X18049000Y-6806000I-2525000J0D01*
G01*
G04 #@! TO.C,Y2*
X13118500Y-6880000D02*
X13118500Y-13780000D01*
X13118500Y-13780000D02*
X15578500Y-13780000D01*
X15578500Y-13780000D02*
X15578500Y-6880000D01*
X15578500Y-6880000D02*
X13118500Y-6880000D01*
X13998500Y-6880000D02*
X13398500Y-5980000D01*
X13398500Y-5980000D02*
X13398500Y-5780000D01*
X14698500Y-6880000D02*
X15298500Y-5980000D01*
X15298500Y-5980000D02*
X15298500Y-5780000D01*
G04 #@! TD*
M02*
