M48
;DRILL file {KiCad (5.0.0)} date 10/21/18 19:13:28
;FORMAT={3:3/ absolute / metric / suppress leading zeros}
FMAT,2
METRIC,TZ
T1C0.300
T2C0.500
T3C0.600
T4C0.800
T5C0.850
T6C1.000
%
G90
G05
M71
T1
X10224Y-13208
X12510Y-6604
X17018Y-7430
X24384Y-10033
X25210Y-11557
X25400Y-7557
X26098Y-12510
X26289Y-15685
X27115Y-4508
X28067Y-4572
X28385Y-11748
X29591Y-16383
X31985Y-4679
X32766Y-15939
X33528Y-7366
X33655Y-13018
X34544Y-14541
X34671Y-12764
X34971Y-5177
X36005Y-5588
X37719Y-5461
X38926Y-6794
X40386Y-4000
X42799Y-3048
X47562Y-9398
X47562Y-12954
X47815Y-10922
X49403Y-12383
X50546Y-5652
X51589Y-6006
X54547Y-13779
X56515Y-12002
X57404Y-15367
X62738Y-15367
X64961Y-5271
T2
X2794Y-16574
X55880Y-10160
X58992Y-13526
X59944Y-10096
X61189Y-13526
X61468Y-10160
X64072Y-10668
X68326Y-14478
X13399Y-5080
X15299Y-5080
T4
X20574Y-7566
X20574Y-12446
T5
X69658Y-9946
X69658Y-14946
T6
X8890Y-6350
X8890Y-8890
X1270Y-1270
X3810Y-1270
X6350Y-1270
X8890Y-1270
X11430Y-1270
X13970Y-1270
X16510Y-1270
X19050Y-1270
X21590Y-1270
X24130Y-1270
X26670Y-1270
X29210Y-1270
X31750Y-1270
X34290Y-1270
X36830Y-1270
X39370Y-1270
X41910Y-1270
X44450Y-1270
X46990Y-1270
X49530Y-1270
X52070Y-1270
X54610Y-1270
X57150Y-1270
X59690Y-1270
X62230Y-1270
X64770Y-1270
X67310Y-1270
X69850Y-1270
X72390Y-1270
X6350Y-6350
X6350Y-8890
X6350Y-11430
X6350Y-13970
X1270Y-19050
X3810Y-19050
X6350Y-19050
X8890Y-19050
X11430Y-19050
X13970Y-19050
X16510Y-19050
X19050Y-19050
X21590Y-19050
X24130Y-19050
X26670Y-19050
X29210Y-19050
X31750Y-19050
X34290Y-19050
X36830Y-19050
X39370Y-19050
X41910Y-19050
X44450Y-19050
X46990Y-19050
X49530Y-19050
X52070Y-19050
X54610Y-19050
X57150Y-19050
X59690Y-19050
X62230Y-19050
X64770Y-19050
X67310Y-19050
X69850Y-19050
X72390Y-19050
T3
X72007Y-8946G85X72707Y-8946
G05
X72707Y-15946G85X72007Y-15946
G05
T0
M30
