G04 #@! TF.GenerationSoftware,KiCad,Pcbnew,(5.0.0)*
G04 #@! TF.CreationDate,2018-10-21T19:13:21+02:00*
G04 #@! TF.ProjectId,mibo64_stm32,6D69626F36345F73746D33322E6B6963,rev?*
G04 #@! TF.SameCoordinates,PX6486dd0PY621abf0*
G04 #@! TF.FileFunction,Copper,L2,Bot,Signal*
G04 #@! TF.FilePolarity,Positive*
%FSLAX46Y46*%
G04 Gerber Fmt 4.6, Leading zero omitted, Abs format (unit mm)*
G04 Created by KiCad (PCBNEW (5.0.0)) date 10/21/18 19:13:21*
%MOMM*%
%LPD*%
G01*
G04 APERTURE LIST*
G04 #@! TA.AperFunction,ComponentPad*
%ADD10R,1.700000X1.700000*%
G04 #@! TD*
G04 #@! TA.AperFunction,ComponentPad*
%ADD11O,1.700000X1.700000*%
G04 #@! TD*
G04 #@! TA.AperFunction,ComponentPad*
%ADD12C,1.450000*%
G04 #@! TD*
G04 #@! TA.AperFunction,ComponentPad*
%ADD13O,1.900000X1.200000*%
G04 #@! TD*
G04 #@! TA.AperFunction,ComponentPad*
%ADD14C,1.500000*%
G04 #@! TD*
G04 #@! TA.AperFunction,ComponentPad*
%ADD15C,1.000000*%
G04 #@! TD*
G04 #@! TA.AperFunction,ViaPad*
%ADD16C,0.600000*%
G04 #@! TD*
G04 #@! TA.AperFunction,ViaPad*
%ADD17C,0.800000*%
G04 #@! TD*
G04 #@! TA.AperFunction,Conductor*
%ADD18C,0.152000*%
G04 #@! TD*
G04 #@! TA.AperFunction,Conductor*
%ADD19C,0.400000*%
G04 #@! TD*
G04 #@! TA.AperFunction,Conductor*
%ADD20C,0.200000*%
G04 #@! TD*
G04 APERTURE END LIST*
D10*
G04 #@! TO.P,J5,1*
G04 #@! TO.N,+3V3*
X6350000Y-6350000D03*
D11*
G04 #@! TO.P,J5,2*
G04 #@! TO.N,/SWDIO*
X6350000Y-8890000D03*
G04 #@! TO.P,J5,3*
G04 #@! TO.N,/SWDCLK*
X6350000Y-11430000D03*
G04 #@! TO.P,J5,4*
G04 #@! TO.N,GND*
X6350000Y-13970000D03*
G04 #@! TD*
D10*
G04 #@! TO.P,J1,1*
G04 #@! TO.N,/BOOT0*
X8890000Y-8890000D03*
D11*
G04 #@! TO.P,J1,2*
G04 #@! TO.N,+3V3*
X8890000Y-6350000D03*
G04 #@! TD*
G04 #@! TO.P,J2,29*
G04 #@! TO.N,GND*
X72390000Y-19050000D03*
G04 #@! TO.P,J2,28*
G04 #@! TO.N,/5V*
X69850000Y-19050000D03*
G04 #@! TO.P,J2,27*
G04 #@! TO.N,/PA12*
X67310000Y-19050000D03*
G04 #@! TO.P,J2,26*
G04 #@! TO.N,/PA11*
X64770000Y-19050000D03*
G04 #@! TO.P,J2,25*
G04 #@! TO.N,/PA10*
X62230000Y-19050000D03*
G04 #@! TO.P,J2,24*
G04 #@! TO.N,/PA9*
X59690000Y-19050000D03*
G04 #@! TO.P,J2,23*
G04 #@! TO.N,/PA8*
X57150000Y-19050000D03*
G04 #@! TO.P,J2,22*
G04 #@! TO.N,/PC9*
X54610000Y-19050000D03*
G04 #@! TO.P,J2,21*
G04 #@! TO.N,/PC8*
X52070000Y-19050000D03*
G04 #@! TO.P,J2,20*
G04 #@! TO.N,/PC7*
X49530000Y-19050000D03*
G04 #@! TO.P,J2,19*
G04 #@! TO.N,/PC6*
X46990000Y-19050000D03*
G04 #@! TO.P,J2,18*
G04 #@! TO.N,/PB15*
X44450000Y-19050000D03*
G04 #@! TO.P,J2,17*
G04 #@! TO.N,/PB14*
X41910000Y-19050000D03*
G04 #@! TO.P,J2,16*
G04 #@! TO.N,/PB13*
X39370000Y-19050000D03*
G04 #@! TO.P,J2,15*
G04 #@! TO.N,/PB12*
X36830000Y-19050000D03*
G04 #@! TO.P,J2,14*
G04 #@! TO.N,/PB2*
X34290000Y-19050000D03*
G04 #@! TO.P,J2,13*
G04 #@! TO.N,/PB10*
X31750000Y-19050000D03*
G04 #@! TO.P,J2,12*
G04 #@! TO.N,/PB11*
X29210000Y-19050000D03*
G04 #@! TO.P,J2,11*
G04 #@! TO.N,/PB1*
X26670000Y-19050000D03*
G04 #@! TO.P,J2,10*
G04 #@! TO.N,/PB0*
X24130000Y-19050000D03*
G04 #@! TO.P,J2,9*
G04 #@! TO.N,/PC5*
X21590000Y-19050000D03*
G04 #@! TO.P,J2,8*
G04 #@! TO.N,/PC4*
X19050000Y-19050000D03*
G04 #@! TO.P,J2,7*
G04 #@! TO.N,/PA7*
X16510000Y-19050000D03*
G04 #@! TO.P,J2,6*
G04 #@! TO.N,/PA6*
X13970000Y-19050000D03*
G04 #@! TO.P,J2,5*
G04 #@! TO.N,/PA5*
X11430000Y-19050000D03*
G04 #@! TO.P,J2,4*
G04 #@! TO.N,/PA4*
X8890000Y-19050000D03*
G04 #@! TO.P,J2,3*
G04 #@! TO.N,/PA3*
X6350000Y-19050000D03*
G04 #@! TO.P,J2,2*
G04 #@! TO.N,+3V3*
X3810000Y-19050000D03*
D10*
G04 #@! TO.P,J2,1*
G04 #@! TO.N,GND*
X1270000Y-19050000D03*
G04 #@! TD*
G04 #@! TO.P,J3,1*
G04 #@! TO.N,GND*
X1270000Y-1270000D03*
D11*
G04 #@! TO.P,J3,2*
G04 #@! TO.N,/5V*
X3810000Y-1270000D03*
G04 #@! TO.P,J3,3*
G04 #@! TO.N,/BOOT0*
X6350000Y-1270000D03*
G04 #@! TO.P,J3,4*
G04 #@! TO.N,/OSC32_IN*
X8890000Y-1270000D03*
G04 #@! TO.P,J3,5*
G04 #@! TO.N,/OSC32_OUT*
X11430000Y-1270000D03*
G04 #@! TO.P,J3,6*
G04 #@! TO.N,/RESET*
X13970000Y-1270000D03*
G04 #@! TO.P,J3,7*
G04 #@! TO.N,/PA2*
X16510000Y-1270000D03*
G04 #@! TO.P,J3,8*
G04 #@! TO.N,/PA1*
X19050000Y-1270000D03*
G04 #@! TO.P,J3,9*
G04 #@! TO.N,/PA0*
X21590000Y-1270000D03*
G04 #@! TO.P,J3,10*
G04 #@! TO.N,/PC3*
X24130000Y-1270000D03*
G04 #@! TO.P,J3,11*
G04 #@! TO.N,/PC2*
X26670000Y-1270000D03*
G04 #@! TO.P,J3,12*
G04 #@! TO.N,/PC1*
X29210000Y-1270000D03*
G04 #@! TO.P,J3,13*
G04 #@! TO.N,/PC0*
X31750000Y-1270000D03*
G04 #@! TO.P,J3,14*
G04 #@! TO.N,/VBAT*
X34290000Y-1270000D03*
G04 #@! TO.P,J3,15*
G04 #@! TO.N,/PB8*
X36830000Y-1270000D03*
G04 #@! TO.P,J3,16*
G04 #@! TO.N,/PB9*
X39370000Y-1270000D03*
G04 #@! TO.P,J3,17*
G04 #@! TO.N,/PB7*
X41910000Y-1270000D03*
G04 #@! TO.P,J3,18*
G04 #@! TO.N,/PB6*
X44450000Y-1270000D03*
G04 #@! TO.P,J3,19*
G04 #@! TO.N,/PB5*
X46990000Y-1270000D03*
G04 #@! TO.P,J3,20*
G04 #@! TO.N,/PB4*
X49530000Y-1270000D03*
G04 #@! TO.P,J3,21*
G04 #@! TO.N,/PB3*
X52070000Y-1270000D03*
G04 #@! TO.P,J3,22*
G04 #@! TO.N,/PD2*
X54610000Y-1270000D03*
G04 #@! TO.P,J3,23*
G04 #@! TO.N,/PC12*
X57150000Y-1270000D03*
G04 #@! TO.P,J3,24*
G04 #@! TO.N,/PC11*
X59690000Y-1270000D03*
G04 #@! TO.P,J3,25*
G04 #@! TO.N,/PC10*
X62230000Y-1270000D03*
G04 #@! TO.P,J3,26*
G04 #@! TO.N,/PA15*
X64770000Y-1270000D03*
G04 #@! TO.P,J3,27*
G04 #@! TO.N,/LED1*
X67310000Y-1270000D03*
G04 #@! TO.P,J3,28*
G04 #@! TO.N,+3V3*
X69850000Y-1270000D03*
G04 #@! TO.P,J3,29*
G04 #@! TO.N,GND*
X72390000Y-1270000D03*
G04 #@! TD*
D12*
G04 #@! TO.P,J4,6*
G04 #@! TO.N,GND*
X69657500Y-14946000D03*
X69657500Y-9946000D03*
D13*
X72357500Y-15946000D03*
X72357500Y-8946000D03*
G04 #@! TD*
D14*
G04 #@! TO.P,Y1,1*
G04 #@! TO.N,/OSC_IN*
X20574000Y-12446000D03*
G04 #@! TO.P,Y1,2*
G04 #@! TO.N,/OSC_OUT*
X20574000Y-7566000D03*
G04 #@! TD*
D15*
G04 #@! TO.P,Y2,1*
G04 #@! TO.N,/OSC32_IN*
X13398500Y-5080000D03*
G04 #@! TO.P,Y2,2*
G04 #@! TO.N,/OSC32_OUT*
X15298500Y-5080000D03*
G04 #@! TD*
D16*
G04 #@! TO.N,GND*
X62738006Y-15367000D03*
X57404000Y-15367000D03*
X56515000Y-12001500D03*
X29591000Y-16383000D03*
X40386000Y-4000500D03*
X28067000Y-4572000D03*
X47561500Y-9398000D03*
X47561500Y-12954000D03*
X49403000Y-12382500D03*
X54546500Y-13779500D03*
X24384000Y-10033000D03*
X26098500Y-12509500D03*
X17018000Y-7429500D03*
X10223500Y-13208000D03*
X12509502Y-6604000D03*
G04 #@! TO.N,/OSC_IN*
X25209500Y-11556998D03*
G04 #@! TO.N,/OSC_OUT*
X25400000Y-7556500D03*
G04 #@! TO.N,/RESET*
X51588500Y-6006000D03*
X33528000Y-7366006D03*
G04 #@! TO.N,+3V3*
X28384500Y-11747500D03*
X42799000Y-3048000D03*
X47815500Y-10922000D03*
X27114500Y-4508500D03*
X31984731Y-4678990D03*
X32766000Y-15938500D03*
D17*
X61468000Y-10160000D03*
X55880000Y-10160000D03*
X59944004Y-10096500D03*
X58991500Y-13525500D03*
G04 #@! TO.N,/5V*
X2794000Y-16573500D03*
X61188500Y-13525500D03*
X64071500Y-10668000D03*
X68326000Y-14478000D03*
D16*
G04 #@! TO.N,/OSC32_IN*
X36004500Y-5588000D03*
G04 #@! TO.N,/OSC32_OUT*
X34970561Y-5177258D03*
G04 #@! TO.N,/BOOT0*
X37719000Y-5461000D03*
G04 #@! TO.N,/PA15*
X64960500Y-5270500D03*
G04 #@! TO.N,/PB1*
X26289002Y-15684500D03*
X34544004Y-14541500D03*
G04 #@! TO.N,/LED1*
X50546000Y-5651500D03*
X38925500Y-6794482D03*
G04 #@! TO.N,/SWDIO*
X33655000Y-13017500D03*
G04 #@! TO.N,/SWDCLK*
X34671000Y-12763500D03*
G04 #@! TD*
D18*
G04 #@! TO.N,/OSC_IN*
X24909501Y-11856997D02*
X25209500Y-11556998D01*
X20574000Y-12446000D02*
X24320498Y-12446000D01*
X24320498Y-12446000D02*
X24909501Y-11856997D01*
G04 #@! TO.N,/OSC_OUT*
X20574000Y-7566000D02*
X25390500Y-7566000D01*
X25390500Y-7566000D02*
X25400000Y-7556500D01*
G04 #@! TO.N,/RESET*
X51588500Y-6006000D02*
X50228494Y-7366006D01*
X50228494Y-7366006D02*
X33528000Y-7366006D01*
D19*
G04 #@! TO.N,+3V3*
X6350000Y-6350000D02*
X8890000Y-6350000D01*
X32575500Y-4088221D02*
X31984731Y-4678990D01*
X42799000Y-3048000D02*
X33615721Y-3048000D01*
X33615721Y-3048000D02*
X32575500Y-4088221D01*
X29210000Y-10922000D02*
X28384500Y-11747500D01*
X39243000Y-10922000D02*
X29210000Y-10922000D01*
X39687500Y-10922000D02*
X39243000Y-10922000D01*
X47815500Y-10922000D02*
X40068500Y-10922000D01*
X40068500Y-10922000D02*
X39687500Y-10922000D01*
X27114500Y-4508500D02*
X27114500Y-3937000D01*
X26479500Y-3302000D02*
X9398000Y-3302000D01*
X27114500Y-3937000D02*
X26479500Y-3302000D01*
X27241500Y-3810000D02*
X27114500Y-3937000D01*
X32004000Y-4699000D02*
X31115000Y-3810000D01*
X31115000Y-3810000D02*
X27241500Y-3810000D01*
X59944000Y-10096500D02*
X59944004Y-10096500D01*
X59436000Y-10096500D02*
X59944000Y-10096500D01*
X53022500Y-3683000D02*
X59436000Y-10096500D01*
X42799000Y-3048000D02*
X43434000Y-3683000D01*
X43434000Y-3683000D02*
X53022500Y-3683000D01*
X48514000Y-10223500D02*
X47815500Y-10922000D01*
X55880000Y-10160000D02*
X55816500Y-10223500D01*
X55816500Y-10223500D02*
X48514000Y-10223500D01*
X61867999Y-9760001D02*
X61468000Y-10160000D01*
X62820499Y-9760001D02*
X61867999Y-9760001D01*
X69000001Y-3580499D02*
X62820499Y-9760001D01*
X69850000Y-1270000D02*
X69000001Y-2119999D01*
X69000001Y-2119999D02*
X69000001Y-3580499D01*
X58356500Y-13525500D02*
X58991500Y-13525500D01*
X56705500Y-13525500D02*
X58356500Y-13525500D01*
X32766000Y-15938500D02*
X54292500Y-15938500D01*
X54292500Y-15938500D02*
X56705500Y-13525500D01*
X9398000Y-3302000D02*
X6350000Y-6350000D01*
G04 #@! TO.N,/5V*
X67119500Y-14478000D02*
X68326000Y-14478000D01*
X64071500Y-10668000D02*
X64071500Y-11430000D01*
X64071500Y-11430000D02*
X67119500Y-14478000D01*
X61188500Y-14440000D02*
X61188500Y-13525500D01*
X58581488Y-17047012D02*
X61188500Y-14440000D01*
X2794000Y-16573500D02*
X3267512Y-17047012D01*
X3267512Y-17047012D02*
X58581488Y-17047012D01*
D18*
G04 #@! TO.N,/OSC32_IN*
X14033500Y-5715000D02*
X13398500Y-5080000D01*
X14605000Y-6286500D02*
X14033500Y-5715000D01*
X36004500Y-5588000D02*
X35306000Y-6286500D01*
X35306000Y-6286500D02*
X14605000Y-6286500D01*
G04 #@! TO.N,/OSC32_OUT*
X15875000Y-5656500D02*
X15298500Y-5080000D01*
X15880000Y-5656500D02*
X15875000Y-5656500D01*
X16205989Y-5982489D02*
X15880000Y-5656500D01*
X34970561Y-5177258D02*
X34165330Y-5982489D01*
X34165330Y-5982489D02*
X16205989Y-5982489D01*
G04 #@! TO.N,/BOOT0*
X10541000Y-7302500D02*
X8953500Y-8890000D01*
X10668000Y-7302500D02*
X10541000Y-7302500D01*
X10668000Y-5969000D02*
X10668000Y-7302500D01*
X12319000Y-4318000D02*
X10668000Y-5969000D01*
X36830000Y-4572000D02*
X34480500Y-4572000D01*
X8953500Y-8890000D02*
X8890000Y-8890000D01*
X37719000Y-5461000D02*
X36830000Y-4572000D01*
X34480500Y-4572000D02*
X33374022Y-5678478D01*
X33374022Y-5678478D02*
X17235478Y-5678478D01*
X17235478Y-5678478D02*
X15875000Y-4318000D01*
X15875000Y-4318000D02*
X12319000Y-4318000D01*
G04 #@! TO.N,/PA15*
X64770000Y-3873500D02*
X64770000Y-1270000D01*
X64960500Y-5270500D02*
X64960500Y-4064000D01*
X64960500Y-4064000D02*
X64770000Y-3873500D01*
G04 #@! TO.N,/PB1*
X34119740Y-14541500D02*
X34544004Y-14541500D01*
X33865740Y-14795500D02*
X34119740Y-14541500D01*
X26289002Y-15684500D02*
X27178002Y-14795500D01*
X27178002Y-14795500D02*
X33865740Y-14795500D01*
G04 #@! TO.N,/LED1*
X38925532Y-6794482D02*
X38925500Y-6794482D01*
X39179550Y-7048500D02*
X38925532Y-6794482D01*
X50546000Y-5651500D02*
X49149000Y-7048500D01*
X49149000Y-7048500D02*
X39179550Y-7048500D01*
G04 #@! TO.N,/SWDIO*
X8128000Y-10668000D02*
X6350000Y-8890000D01*
X8128000Y-13208000D02*
X8128000Y-10668000D01*
X9080500Y-14160500D02*
X8128000Y-13208000D01*
X33655000Y-13017500D02*
X32512000Y-14160500D01*
X32512000Y-14160500D02*
X9080500Y-14160500D01*
G04 #@! TO.N,/SWDCLK*
X7747000Y-12827000D02*
X6350000Y-11430000D01*
X7747000Y-13271500D02*
X7747000Y-12827000D01*
X8940009Y-14464509D02*
X7747000Y-13271500D01*
X34671000Y-12763500D02*
X32969991Y-14464509D01*
X32969991Y-14464509D02*
X8940009Y-14464509D01*
G04 #@! TD*
D20*
G04 #@! TO.N,GND*
G36*
X2980897Y-440897D02*
X2726724Y-821293D01*
X2637471Y-1270000D01*
X2726724Y-1718707D01*
X2980897Y-2099103D01*
X3361293Y-2353276D01*
X3696739Y-2420000D01*
X3923261Y-2420000D01*
X4258707Y-2353276D01*
X4639103Y-2099103D01*
X4893276Y-1718707D01*
X4982529Y-1270000D01*
X4893276Y-821293D01*
X4639103Y-440897D01*
X4540481Y-375000D01*
X5619519Y-375000D01*
X5520897Y-440897D01*
X5266724Y-821293D01*
X5177471Y-1270000D01*
X5266724Y-1718707D01*
X5520897Y-2099103D01*
X5901293Y-2353276D01*
X6236739Y-2420000D01*
X6463261Y-2420000D01*
X6798707Y-2353276D01*
X7179103Y-2099103D01*
X7433276Y-1718707D01*
X7522529Y-1270000D01*
X7433276Y-821293D01*
X7179103Y-440897D01*
X7080481Y-375000D01*
X8159519Y-375000D01*
X8060897Y-440897D01*
X7806724Y-821293D01*
X7717471Y-1270000D01*
X7806724Y-1718707D01*
X8060897Y-2099103D01*
X8441293Y-2353276D01*
X8776739Y-2420000D01*
X9003261Y-2420000D01*
X9338707Y-2353276D01*
X9719103Y-2099103D01*
X9973276Y-1718707D01*
X10062529Y-1270000D01*
X9973276Y-821293D01*
X9719103Y-440897D01*
X9620481Y-375000D01*
X10699519Y-375000D01*
X10600897Y-440897D01*
X10346724Y-821293D01*
X10257471Y-1270000D01*
X10346724Y-1718707D01*
X10600897Y-2099103D01*
X10981293Y-2353276D01*
X11316739Y-2420000D01*
X11543261Y-2420000D01*
X11878707Y-2353276D01*
X12259103Y-2099103D01*
X12513276Y-1718707D01*
X12602529Y-1270000D01*
X12513276Y-821293D01*
X12259103Y-440897D01*
X12160481Y-375000D01*
X13239519Y-375000D01*
X13140897Y-440897D01*
X12886724Y-821293D01*
X12797471Y-1270000D01*
X12886724Y-1718707D01*
X13140897Y-2099103D01*
X13521293Y-2353276D01*
X13856739Y-2420000D01*
X14083261Y-2420000D01*
X14418707Y-2353276D01*
X14799103Y-2099103D01*
X15053276Y-1718707D01*
X15142529Y-1270000D01*
X15053276Y-821293D01*
X14799103Y-440897D01*
X14700481Y-375000D01*
X15779519Y-375000D01*
X15680897Y-440897D01*
X15426724Y-821293D01*
X15337471Y-1270000D01*
X15426724Y-1718707D01*
X15680897Y-2099103D01*
X16061293Y-2353276D01*
X16396739Y-2420000D01*
X16623261Y-2420000D01*
X16958707Y-2353276D01*
X17339103Y-2099103D01*
X17593276Y-1718707D01*
X17682529Y-1270000D01*
X17593276Y-821293D01*
X17339103Y-440897D01*
X17240481Y-375000D01*
X18319519Y-375000D01*
X18220897Y-440897D01*
X17966724Y-821293D01*
X17877471Y-1270000D01*
X17966724Y-1718707D01*
X18220897Y-2099103D01*
X18601293Y-2353276D01*
X18936739Y-2420000D01*
X19163261Y-2420000D01*
X19498707Y-2353276D01*
X19879103Y-2099103D01*
X20133276Y-1718707D01*
X20222529Y-1270000D01*
X20133276Y-821293D01*
X19879103Y-440897D01*
X19780481Y-375000D01*
X20859519Y-375000D01*
X20760897Y-440897D01*
X20506724Y-821293D01*
X20417471Y-1270000D01*
X20506724Y-1718707D01*
X20760897Y-2099103D01*
X21141293Y-2353276D01*
X21476739Y-2420000D01*
X21703261Y-2420000D01*
X22038707Y-2353276D01*
X22419103Y-2099103D01*
X22673276Y-1718707D01*
X22762529Y-1270000D01*
X22673276Y-821293D01*
X22419103Y-440897D01*
X22320481Y-375000D01*
X23399519Y-375000D01*
X23300897Y-440897D01*
X23046724Y-821293D01*
X22957471Y-1270000D01*
X23046724Y-1718707D01*
X23300897Y-2099103D01*
X23681293Y-2353276D01*
X24016739Y-2420000D01*
X24243261Y-2420000D01*
X24578707Y-2353276D01*
X24959103Y-2099103D01*
X25213276Y-1718707D01*
X25302529Y-1270000D01*
X25213276Y-821293D01*
X24959103Y-440897D01*
X24860481Y-375000D01*
X25939519Y-375000D01*
X25840897Y-440897D01*
X25586724Y-821293D01*
X25497471Y-1270000D01*
X25586724Y-1718707D01*
X25840897Y-2099103D01*
X26221293Y-2353276D01*
X26556739Y-2420000D01*
X26783261Y-2420000D01*
X27118707Y-2353276D01*
X27499103Y-2099103D01*
X27753276Y-1718707D01*
X27842529Y-1270000D01*
X27753276Y-821293D01*
X27499103Y-440897D01*
X27400481Y-375000D01*
X28479519Y-375000D01*
X28380897Y-440897D01*
X28126724Y-821293D01*
X28037471Y-1270000D01*
X28126724Y-1718707D01*
X28380897Y-2099103D01*
X28761293Y-2353276D01*
X29096739Y-2420000D01*
X29323261Y-2420000D01*
X29658707Y-2353276D01*
X30039103Y-2099103D01*
X30293276Y-1718707D01*
X30382529Y-1270000D01*
X30293276Y-821293D01*
X30039103Y-440897D01*
X29940481Y-375000D01*
X31019519Y-375000D01*
X30920897Y-440897D01*
X30666724Y-821293D01*
X30577471Y-1270000D01*
X30666724Y-1718707D01*
X30920897Y-2099103D01*
X31301293Y-2353276D01*
X31636739Y-2420000D01*
X31863261Y-2420000D01*
X32198707Y-2353276D01*
X32579103Y-2099103D01*
X32833276Y-1718707D01*
X32922529Y-1270000D01*
X32833276Y-821293D01*
X32579103Y-440897D01*
X32480481Y-375000D01*
X33559519Y-375000D01*
X33460897Y-440897D01*
X33206724Y-821293D01*
X33117471Y-1270000D01*
X33206724Y-1718707D01*
X33460897Y-2099103D01*
X33841293Y-2353276D01*
X34176739Y-2420000D01*
X34403261Y-2420000D01*
X34738707Y-2353276D01*
X35119103Y-2099103D01*
X35373276Y-1718707D01*
X35462529Y-1270000D01*
X35373276Y-821293D01*
X35119103Y-440897D01*
X35020481Y-375000D01*
X36099519Y-375000D01*
X36000897Y-440897D01*
X35746724Y-821293D01*
X35657471Y-1270000D01*
X35746724Y-1718707D01*
X36000897Y-2099103D01*
X36381293Y-2353276D01*
X36716739Y-2420000D01*
X36943261Y-2420000D01*
X37278707Y-2353276D01*
X37659103Y-2099103D01*
X37913276Y-1718707D01*
X38002529Y-1270000D01*
X37913276Y-821293D01*
X37659103Y-440897D01*
X37560481Y-375000D01*
X38639519Y-375000D01*
X38540897Y-440897D01*
X38286724Y-821293D01*
X38197471Y-1270000D01*
X38286724Y-1718707D01*
X38540897Y-2099103D01*
X38921293Y-2353276D01*
X39256739Y-2420000D01*
X39483261Y-2420000D01*
X39818707Y-2353276D01*
X40199103Y-2099103D01*
X40453276Y-1718707D01*
X40542529Y-1270000D01*
X40453276Y-821293D01*
X40199103Y-440897D01*
X40100481Y-375000D01*
X41179519Y-375000D01*
X41080897Y-440897D01*
X40826724Y-821293D01*
X40737471Y-1270000D01*
X40826724Y-1718707D01*
X41080897Y-2099103D01*
X41461293Y-2353276D01*
X41796739Y-2420000D01*
X42023261Y-2420000D01*
X42358707Y-2353276D01*
X42739103Y-2099103D01*
X42993276Y-1718707D01*
X43082529Y-1270000D01*
X42993276Y-821293D01*
X42739103Y-440897D01*
X42640481Y-375000D01*
X43719519Y-375000D01*
X43620897Y-440897D01*
X43366724Y-821293D01*
X43277471Y-1270000D01*
X43366724Y-1718707D01*
X43620897Y-2099103D01*
X44001293Y-2353276D01*
X44336739Y-2420000D01*
X44563261Y-2420000D01*
X44898707Y-2353276D01*
X45279103Y-2099103D01*
X45533276Y-1718707D01*
X45622529Y-1270000D01*
X45533276Y-821293D01*
X45279103Y-440897D01*
X45180481Y-375000D01*
X46259519Y-375000D01*
X46160897Y-440897D01*
X45906724Y-821293D01*
X45817471Y-1270000D01*
X45906724Y-1718707D01*
X46160897Y-2099103D01*
X46541293Y-2353276D01*
X46876739Y-2420000D01*
X47103261Y-2420000D01*
X47438707Y-2353276D01*
X47819103Y-2099103D01*
X48073276Y-1718707D01*
X48162529Y-1270000D01*
X48073276Y-821293D01*
X47819103Y-440897D01*
X47720481Y-375000D01*
X48799519Y-375000D01*
X48700897Y-440897D01*
X48446724Y-821293D01*
X48357471Y-1270000D01*
X48446724Y-1718707D01*
X48700897Y-2099103D01*
X49081293Y-2353276D01*
X49416739Y-2420000D01*
X49643261Y-2420000D01*
X49978707Y-2353276D01*
X50359103Y-2099103D01*
X50613276Y-1718707D01*
X50702529Y-1270000D01*
X50613276Y-821293D01*
X50359103Y-440897D01*
X50260481Y-375000D01*
X51339519Y-375000D01*
X51240897Y-440897D01*
X50986724Y-821293D01*
X50897471Y-1270000D01*
X50986724Y-1718707D01*
X51240897Y-2099103D01*
X51621293Y-2353276D01*
X51956739Y-2420000D01*
X52183261Y-2420000D01*
X52518707Y-2353276D01*
X52899103Y-2099103D01*
X53153276Y-1718707D01*
X53242529Y-1270000D01*
X53153276Y-821293D01*
X52899103Y-440897D01*
X52800481Y-375000D01*
X53879519Y-375000D01*
X53780897Y-440897D01*
X53526724Y-821293D01*
X53437471Y-1270000D01*
X53526724Y-1718707D01*
X53780897Y-2099103D01*
X54161293Y-2353276D01*
X54496739Y-2420000D01*
X54723261Y-2420000D01*
X55058707Y-2353276D01*
X55439103Y-2099103D01*
X55693276Y-1718707D01*
X55782529Y-1270000D01*
X55693276Y-821293D01*
X55439103Y-440897D01*
X55340481Y-375000D01*
X56419519Y-375000D01*
X56320897Y-440897D01*
X56066724Y-821293D01*
X55977471Y-1270000D01*
X56066724Y-1718707D01*
X56320897Y-2099103D01*
X56701293Y-2353276D01*
X57036739Y-2420000D01*
X57263261Y-2420000D01*
X57598707Y-2353276D01*
X57979103Y-2099103D01*
X58233276Y-1718707D01*
X58322529Y-1270000D01*
X58233276Y-821293D01*
X57979103Y-440897D01*
X57880481Y-375000D01*
X58959519Y-375000D01*
X58860897Y-440897D01*
X58606724Y-821293D01*
X58517471Y-1270000D01*
X58606724Y-1718707D01*
X58860897Y-2099103D01*
X59241293Y-2353276D01*
X59576739Y-2420000D01*
X59803261Y-2420000D01*
X60138707Y-2353276D01*
X60519103Y-2099103D01*
X60773276Y-1718707D01*
X60862529Y-1270000D01*
X60773276Y-821293D01*
X60519103Y-440897D01*
X60420481Y-375000D01*
X61499519Y-375000D01*
X61400897Y-440897D01*
X61146724Y-821293D01*
X61057471Y-1270000D01*
X61146724Y-1718707D01*
X61400897Y-2099103D01*
X61781293Y-2353276D01*
X62116739Y-2420000D01*
X62343261Y-2420000D01*
X62678707Y-2353276D01*
X63059103Y-2099103D01*
X63313276Y-1718707D01*
X63402529Y-1270000D01*
X63313276Y-821293D01*
X63059103Y-440897D01*
X62960481Y-375000D01*
X64039519Y-375000D01*
X63940897Y-440897D01*
X63686724Y-821293D01*
X63597471Y-1270000D01*
X63686724Y-1718707D01*
X63940897Y-2099103D01*
X64321293Y-2353276D01*
X64394001Y-2367738D01*
X64394000Y-3836469D01*
X64386634Y-3873500D01*
X64400260Y-3942000D01*
X64415816Y-4020207D01*
X64498919Y-4144581D01*
X64530315Y-4165559D01*
X64584501Y-4219745D01*
X64584500Y-4797971D01*
X64451844Y-4930627D01*
X64360500Y-5151153D01*
X64360500Y-5389847D01*
X64451844Y-5610373D01*
X64620627Y-5779156D01*
X64841153Y-5870500D01*
X65079847Y-5870500D01*
X65300373Y-5779156D01*
X65469156Y-5610373D01*
X65560500Y-5389847D01*
X65560500Y-5151153D01*
X65469156Y-4930627D01*
X65336500Y-4797971D01*
X65336500Y-4101031D01*
X65343866Y-4064000D01*
X65314684Y-3917292D01*
X65285423Y-3873500D01*
X65231581Y-3792919D01*
X65200185Y-3771941D01*
X65146000Y-3717756D01*
X65146000Y-2367738D01*
X65218707Y-2353276D01*
X65599103Y-2099103D01*
X65853276Y-1718707D01*
X65942529Y-1270000D01*
X65853276Y-821293D01*
X65599103Y-440897D01*
X65500481Y-375000D01*
X66579519Y-375000D01*
X66480897Y-440897D01*
X66226724Y-821293D01*
X66137471Y-1270000D01*
X66226724Y-1718707D01*
X66480897Y-2099103D01*
X66861293Y-2353276D01*
X67196739Y-2420000D01*
X67423261Y-2420000D01*
X67758707Y-2353276D01*
X68139103Y-2099103D01*
X68393276Y-1718707D01*
X68482529Y-1270000D01*
X68393276Y-821293D01*
X68139103Y-440897D01*
X68040481Y-375000D01*
X69119519Y-375000D01*
X69020897Y-440897D01*
X68766724Y-821293D01*
X68677471Y-1270000D01*
X68754689Y-1658204D01*
X68681271Y-1731623D01*
X68639521Y-1759519D01*
X68529012Y-1924910D01*
X68520991Y-1965235D01*
X68490206Y-2119999D01*
X68500001Y-2169241D01*
X68500002Y-3373391D01*
X62613393Y-9260001D01*
X61917240Y-9260001D01*
X61867998Y-9250206D01*
X61818757Y-9260001D01*
X61818756Y-9260001D01*
X61672909Y-9289012D01*
X61507519Y-9399521D01*
X61479625Y-9441268D01*
X61460893Y-9460000D01*
X61328761Y-9460000D01*
X61071482Y-9566568D01*
X60874568Y-9763482D01*
X60768000Y-10020761D01*
X60768000Y-10299239D01*
X60874568Y-10556518D01*
X61071482Y-10753432D01*
X61328761Y-10860000D01*
X61607239Y-10860000D01*
X61864518Y-10753432D01*
X62061432Y-10556518D01*
X62072929Y-10528761D01*
X63371500Y-10528761D01*
X63371500Y-10807239D01*
X63478068Y-11064518D01*
X63571501Y-11157951D01*
X63571501Y-11380754D01*
X63561705Y-11430000D01*
X63590888Y-11576707D01*
X63600512Y-11625090D01*
X63711021Y-11790480D01*
X63752768Y-11818375D01*
X66731125Y-14796732D01*
X66759020Y-14838480D01*
X66823215Y-14881373D01*
X66924409Y-14948989D01*
X67119500Y-14987795D01*
X67168743Y-14978000D01*
X67836050Y-14978000D01*
X67929482Y-15071432D01*
X68186761Y-15178000D01*
X68465239Y-15178000D01*
X68533372Y-15149778D01*
X68533480Y-15174649D01*
X68701018Y-15579122D01*
X68882621Y-15650169D01*
X69586789Y-14946000D01*
X69728211Y-14946000D01*
X70432379Y-15650169D01*
X70613982Y-15579122D01*
X70783460Y-15164899D01*
X70781520Y-14717351D01*
X70613982Y-14312878D01*
X70432379Y-14241831D01*
X69728211Y-14946000D01*
X69586789Y-14946000D01*
X69572647Y-14931858D01*
X69643358Y-14861147D01*
X69657500Y-14875289D01*
X70361669Y-14171121D01*
X70290622Y-13989518D01*
X69876399Y-13820040D01*
X69428851Y-13821980D01*
X69024378Y-13989518D01*
X68954900Y-14167110D01*
X68919432Y-14081482D01*
X68722518Y-13884568D01*
X68465239Y-13778000D01*
X68186761Y-13778000D01*
X67929482Y-13884568D01*
X67836050Y-13978000D01*
X67326607Y-13978000D01*
X64571500Y-11222894D01*
X64571500Y-11157950D01*
X64664932Y-11064518D01*
X64771500Y-10807239D01*
X64771500Y-10720879D01*
X68953331Y-10720879D01*
X69024378Y-10902482D01*
X69438601Y-11071960D01*
X69886149Y-11070020D01*
X70290622Y-10902482D01*
X70361669Y-10720879D01*
X69657500Y-10016711D01*
X68953331Y-10720879D01*
X64771500Y-10720879D01*
X64771500Y-10528761D01*
X64664932Y-10271482D01*
X64468018Y-10074568D01*
X64210739Y-9968000D01*
X63932261Y-9968000D01*
X63674982Y-10074568D01*
X63478068Y-10271482D01*
X63371500Y-10528761D01*
X62072929Y-10528761D01*
X62168000Y-10299239D01*
X62168000Y-10260001D01*
X62771258Y-10260001D01*
X62820499Y-10269796D01*
X62869740Y-10260001D01*
X62869742Y-10260001D01*
X63015589Y-10230990D01*
X63180979Y-10120481D01*
X63208876Y-10078730D01*
X63560505Y-9727101D01*
X68531540Y-9727101D01*
X68533480Y-10174649D01*
X68701018Y-10579122D01*
X68882621Y-10650169D01*
X69586789Y-9946000D01*
X69728211Y-9946000D01*
X70432379Y-10650169D01*
X70613982Y-10579122D01*
X70783460Y-10164899D01*
X70781520Y-9717351D01*
X70613982Y-9312878D01*
X70432379Y-9241831D01*
X69728211Y-9946000D01*
X69586789Y-9946000D01*
X68882621Y-9241831D01*
X68701018Y-9312878D01*
X68531540Y-9727101D01*
X63560505Y-9727101D01*
X64116485Y-9171121D01*
X68953331Y-9171121D01*
X69657500Y-9875289D01*
X70361669Y-9171121D01*
X70354041Y-9151623D01*
X71028869Y-9151623D01*
X71064487Y-9282489D01*
X71265038Y-9617751D01*
X71578623Y-9850745D01*
X71957500Y-9946000D01*
X72307500Y-9946000D01*
X72307500Y-8996000D01*
X71108890Y-8996000D01*
X71028869Y-9151623D01*
X70354041Y-9151623D01*
X70290622Y-8989518D01*
X69876399Y-8820040D01*
X69428851Y-8821980D01*
X69024378Y-8989518D01*
X68953331Y-9171121D01*
X64116485Y-9171121D01*
X64547229Y-8740377D01*
X71028869Y-8740377D01*
X71108890Y-8896000D01*
X72307500Y-8896000D01*
X72307500Y-7946000D01*
X71957500Y-7946000D01*
X71578623Y-8041255D01*
X71265038Y-8274249D01*
X71064487Y-8609511D01*
X71028869Y-8740377D01*
X64547229Y-8740377D01*
X69318733Y-3968874D01*
X69360481Y-3940979D01*
X69470990Y-3775589D01*
X69477689Y-3741910D01*
X69509797Y-3580499D01*
X69500001Y-3531253D01*
X69500001Y-2372910D01*
X69736739Y-2420000D01*
X69963261Y-2420000D01*
X70298707Y-2353276D01*
X70679103Y-2099103D01*
X70933276Y-1718707D01*
X70973841Y-1514772D01*
X71164195Y-1514772D01*
X71351174Y-1965235D01*
X71696305Y-2309855D01*
X72145229Y-2495801D01*
X72340000Y-2418913D01*
X72340000Y-1320000D01*
X71240996Y-1320000D01*
X71164195Y-1514772D01*
X70973841Y-1514772D01*
X71022529Y-1270000D01*
X70933276Y-821293D01*
X70679103Y-440897D01*
X70580481Y-375000D01*
X71551235Y-375000D01*
X71351174Y-574765D01*
X71164195Y-1025228D01*
X71240996Y-1220000D01*
X72340000Y-1220000D01*
X72340000Y-1200000D01*
X72440000Y-1200000D01*
X72440000Y-1220000D01*
X72460000Y-1220000D01*
X72460000Y-1320000D01*
X72440000Y-1320000D01*
X72440000Y-2418913D01*
X72634771Y-2495801D01*
X73083695Y-2309855D01*
X73285000Y-2108848D01*
X73285000Y-8151682D01*
X73136377Y-8041255D01*
X72757500Y-7946000D01*
X72407500Y-7946000D01*
X72407500Y-8896000D01*
X72427500Y-8896000D01*
X72427500Y-8996000D01*
X72407500Y-8996000D01*
X72407500Y-9946000D01*
X72757500Y-9946000D01*
X73136377Y-9850745D01*
X73285000Y-9740318D01*
X73285001Y-15151683D01*
X73136377Y-15041255D01*
X72757500Y-14946000D01*
X72407500Y-14946000D01*
X72407500Y-15896000D01*
X72427500Y-15896000D01*
X72427500Y-15996000D01*
X72407500Y-15996000D01*
X72407500Y-16946000D01*
X72757500Y-16946000D01*
X73136377Y-16850745D01*
X73285001Y-16740317D01*
X73285001Y-18211153D01*
X73083695Y-18010145D01*
X72634771Y-17824199D01*
X72440000Y-17901087D01*
X72440000Y-19000000D01*
X72460000Y-19000000D01*
X72460000Y-19100000D01*
X72440000Y-19100000D01*
X72440000Y-19120000D01*
X72340000Y-19120000D01*
X72340000Y-19100000D01*
X71240996Y-19100000D01*
X71164195Y-19294772D01*
X71351174Y-19745235D01*
X71551235Y-19945000D01*
X70580481Y-19945000D01*
X70679103Y-19879103D01*
X70933276Y-19498707D01*
X71022529Y-19050000D01*
X70973842Y-18805228D01*
X71164195Y-18805228D01*
X71240996Y-19000000D01*
X72340000Y-19000000D01*
X72340000Y-17901087D01*
X72145229Y-17824199D01*
X71696305Y-18010145D01*
X71351174Y-18354765D01*
X71164195Y-18805228D01*
X70973842Y-18805228D01*
X70933276Y-18601293D01*
X70679103Y-18220897D01*
X70298707Y-17966724D01*
X69963261Y-17900000D01*
X69736739Y-17900000D01*
X69401293Y-17966724D01*
X69020897Y-18220897D01*
X68766724Y-18601293D01*
X68677471Y-19050000D01*
X68766724Y-19498707D01*
X69020897Y-19879103D01*
X69119519Y-19945000D01*
X68040481Y-19945000D01*
X68139103Y-19879103D01*
X68393276Y-19498707D01*
X68482529Y-19050000D01*
X68393276Y-18601293D01*
X68139103Y-18220897D01*
X67758707Y-17966724D01*
X67423261Y-17900000D01*
X67196739Y-17900000D01*
X66861293Y-17966724D01*
X66480897Y-18220897D01*
X66226724Y-18601293D01*
X66137471Y-19050000D01*
X66226724Y-19498707D01*
X66480897Y-19879103D01*
X66579519Y-19945000D01*
X65500481Y-19945000D01*
X65599103Y-19879103D01*
X65853276Y-19498707D01*
X65942529Y-19050000D01*
X65853276Y-18601293D01*
X65599103Y-18220897D01*
X65218707Y-17966724D01*
X64883261Y-17900000D01*
X64656739Y-17900000D01*
X64321293Y-17966724D01*
X63940897Y-18220897D01*
X63686724Y-18601293D01*
X63597471Y-19050000D01*
X63686724Y-19498707D01*
X63940897Y-19879103D01*
X64039519Y-19945000D01*
X62960481Y-19945000D01*
X63059103Y-19879103D01*
X63313276Y-19498707D01*
X63402529Y-19050000D01*
X63313276Y-18601293D01*
X63059103Y-18220897D01*
X62678707Y-17966724D01*
X62343261Y-17900000D01*
X62116739Y-17900000D01*
X61781293Y-17966724D01*
X61400897Y-18220897D01*
X61146724Y-18601293D01*
X61057471Y-19050000D01*
X61146724Y-19498707D01*
X61400897Y-19879103D01*
X61499519Y-19945000D01*
X60420481Y-19945000D01*
X60519103Y-19879103D01*
X60773276Y-19498707D01*
X60862529Y-19050000D01*
X60773276Y-18601293D01*
X60519103Y-18220897D01*
X60138707Y-17966724D01*
X59803261Y-17900000D01*
X59576739Y-17900000D01*
X59241293Y-17966724D01*
X58860897Y-18220897D01*
X58606724Y-18601293D01*
X58517471Y-19050000D01*
X58606724Y-19498707D01*
X58860897Y-19879103D01*
X58959519Y-19945000D01*
X57880481Y-19945000D01*
X57979103Y-19879103D01*
X58233276Y-19498707D01*
X58322529Y-19050000D01*
X58233276Y-18601293D01*
X57979103Y-18220897D01*
X57598707Y-17966724D01*
X57263261Y-17900000D01*
X57036739Y-17900000D01*
X56701293Y-17966724D01*
X56320897Y-18220897D01*
X56066724Y-18601293D01*
X55977471Y-19050000D01*
X56066724Y-19498707D01*
X56320897Y-19879103D01*
X56419519Y-19945000D01*
X55340481Y-19945000D01*
X55439103Y-19879103D01*
X55693276Y-19498707D01*
X55782529Y-19050000D01*
X55693276Y-18601293D01*
X55439103Y-18220897D01*
X55058707Y-17966724D01*
X54723261Y-17900000D01*
X54496739Y-17900000D01*
X54161293Y-17966724D01*
X53780897Y-18220897D01*
X53526724Y-18601293D01*
X53437471Y-19050000D01*
X53526724Y-19498707D01*
X53780897Y-19879103D01*
X53879519Y-19945000D01*
X52800481Y-19945000D01*
X52899103Y-19879103D01*
X53153276Y-19498707D01*
X53242529Y-19050000D01*
X53153276Y-18601293D01*
X52899103Y-18220897D01*
X52518707Y-17966724D01*
X52183261Y-17900000D01*
X51956739Y-17900000D01*
X51621293Y-17966724D01*
X51240897Y-18220897D01*
X50986724Y-18601293D01*
X50897471Y-19050000D01*
X50986724Y-19498707D01*
X51240897Y-19879103D01*
X51339519Y-19945000D01*
X50260481Y-19945000D01*
X50359103Y-19879103D01*
X50613276Y-19498707D01*
X50702529Y-19050000D01*
X50613276Y-18601293D01*
X50359103Y-18220897D01*
X49978707Y-17966724D01*
X49643261Y-17900000D01*
X49416739Y-17900000D01*
X49081293Y-17966724D01*
X48700897Y-18220897D01*
X48446724Y-18601293D01*
X48357471Y-19050000D01*
X48446724Y-19498707D01*
X48700897Y-19879103D01*
X48799519Y-19945000D01*
X47720481Y-19945000D01*
X47819103Y-19879103D01*
X48073276Y-19498707D01*
X48162529Y-19050000D01*
X48073276Y-18601293D01*
X47819103Y-18220897D01*
X47438707Y-17966724D01*
X47103261Y-17900000D01*
X46876739Y-17900000D01*
X46541293Y-17966724D01*
X46160897Y-18220897D01*
X45906724Y-18601293D01*
X45817471Y-19050000D01*
X45906724Y-19498707D01*
X46160897Y-19879103D01*
X46259519Y-19945000D01*
X45180481Y-19945000D01*
X45279103Y-19879103D01*
X45533276Y-19498707D01*
X45622529Y-19050000D01*
X45533276Y-18601293D01*
X45279103Y-18220897D01*
X44898707Y-17966724D01*
X44563261Y-17900000D01*
X44336739Y-17900000D01*
X44001293Y-17966724D01*
X43620897Y-18220897D01*
X43366724Y-18601293D01*
X43277471Y-19050000D01*
X43366724Y-19498707D01*
X43620897Y-19879103D01*
X43719519Y-19945000D01*
X42640481Y-19945000D01*
X42739103Y-19879103D01*
X42993276Y-19498707D01*
X43082529Y-19050000D01*
X42993276Y-18601293D01*
X42739103Y-18220897D01*
X42358707Y-17966724D01*
X42023261Y-17900000D01*
X41796739Y-17900000D01*
X41461293Y-17966724D01*
X41080897Y-18220897D01*
X40826724Y-18601293D01*
X40737471Y-19050000D01*
X40826724Y-19498707D01*
X41080897Y-19879103D01*
X41179519Y-19945000D01*
X40100481Y-19945000D01*
X40199103Y-19879103D01*
X40453276Y-19498707D01*
X40542529Y-19050000D01*
X40453276Y-18601293D01*
X40199103Y-18220897D01*
X39818707Y-17966724D01*
X39483261Y-17900000D01*
X39256739Y-17900000D01*
X38921293Y-17966724D01*
X38540897Y-18220897D01*
X38286724Y-18601293D01*
X38197471Y-19050000D01*
X38286724Y-19498707D01*
X38540897Y-19879103D01*
X38639519Y-19945000D01*
X37560481Y-19945000D01*
X37659103Y-19879103D01*
X37913276Y-19498707D01*
X38002529Y-19050000D01*
X37913276Y-18601293D01*
X37659103Y-18220897D01*
X37278707Y-17966724D01*
X36943261Y-17900000D01*
X36716739Y-17900000D01*
X36381293Y-17966724D01*
X36000897Y-18220897D01*
X35746724Y-18601293D01*
X35657471Y-19050000D01*
X35746724Y-19498707D01*
X36000897Y-19879103D01*
X36099519Y-19945000D01*
X35020481Y-19945000D01*
X35119103Y-19879103D01*
X35373276Y-19498707D01*
X35462529Y-19050000D01*
X35373276Y-18601293D01*
X35119103Y-18220897D01*
X34738707Y-17966724D01*
X34403261Y-17900000D01*
X34176739Y-17900000D01*
X33841293Y-17966724D01*
X33460897Y-18220897D01*
X33206724Y-18601293D01*
X33117471Y-19050000D01*
X33206724Y-19498707D01*
X33460897Y-19879103D01*
X33559519Y-19945000D01*
X32480481Y-19945000D01*
X32579103Y-19879103D01*
X32833276Y-19498707D01*
X32922529Y-19050000D01*
X32833276Y-18601293D01*
X32579103Y-18220897D01*
X32198707Y-17966724D01*
X31863261Y-17900000D01*
X31636739Y-17900000D01*
X31301293Y-17966724D01*
X30920897Y-18220897D01*
X30666724Y-18601293D01*
X30577471Y-19050000D01*
X30666724Y-19498707D01*
X30920897Y-19879103D01*
X31019519Y-19945000D01*
X29940481Y-19945000D01*
X30039103Y-19879103D01*
X30293276Y-19498707D01*
X30382529Y-19050000D01*
X30293276Y-18601293D01*
X30039103Y-18220897D01*
X29658707Y-17966724D01*
X29323261Y-17900000D01*
X29096739Y-17900000D01*
X28761293Y-17966724D01*
X28380897Y-18220897D01*
X28126724Y-18601293D01*
X28037471Y-19050000D01*
X28126724Y-19498707D01*
X28380897Y-19879103D01*
X28479519Y-19945000D01*
X27400481Y-19945000D01*
X27499103Y-19879103D01*
X27753276Y-19498707D01*
X27842529Y-19050000D01*
X27753276Y-18601293D01*
X27499103Y-18220897D01*
X27118707Y-17966724D01*
X26783261Y-17900000D01*
X26556739Y-17900000D01*
X26221293Y-17966724D01*
X25840897Y-18220897D01*
X25586724Y-18601293D01*
X25497471Y-19050000D01*
X25586724Y-19498707D01*
X25840897Y-19879103D01*
X25939519Y-19945000D01*
X24860481Y-19945000D01*
X24959103Y-19879103D01*
X25213276Y-19498707D01*
X25302529Y-19050000D01*
X25213276Y-18601293D01*
X24959103Y-18220897D01*
X24578707Y-17966724D01*
X24243261Y-17900000D01*
X24016739Y-17900000D01*
X23681293Y-17966724D01*
X23300897Y-18220897D01*
X23046724Y-18601293D01*
X22957471Y-19050000D01*
X23046724Y-19498707D01*
X23300897Y-19879103D01*
X23399519Y-19945000D01*
X22320481Y-19945000D01*
X22419103Y-19879103D01*
X22673276Y-19498707D01*
X22762529Y-19050000D01*
X22673276Y-18601293D01*
X22419103Y-18220897D01*
X22038707Y-17966724D01*
X21703261Y-17900000D01*
X21476739Y-17900000D01*
X21141293Y-17966724D01*
X20760897Y-18220897D01*
X20506724Y-18601293D01*
X20417471Y-19050000D01*
X20506724Y-19498707D01*
X20760897Y-19879103D01*
X20859519Y-19945000D01*
X19780481Y-19945000D01*
X19879103Y-19879103D01*
X20133276Y-19498707D01*
X20222529Y-19050000D01*
X20133276Y-18601293D01*
X19879103Y-18220897D01*
X19498707Y-17966724D01*
X19163261Y-17900000D01*
X18936739Y-17900000D01*
X18601293Y-17966724D01*
X18220897Y-18220897D01*
X17966724Y-18601293D01*
X17877471Y-19050000D01*
X17966724Y-19498707D01*
X18220897Y-19879103D01*
X18319519Y-19945000D01*
X17240481Y-19945000D01*
X17339103Y-19879103D01*
X17593276Y-19498707D01*
X17682529Y-19050000D01*
X17593276Y-18601293D01*
X17339103Y-18220897D01*
X16958707Y-17966724D01*
X16623261Y-17900000D01*
X16396739Y-17900000D01*
X16061293Y-17966724D01*
X15680897Y-18220897D01*
X15426724Y-18601293D01*
X15337471Y-19050000D01*
X15426724Y-19498707D01*
X15680897Y-19879103D01*
X15779519Y-19945000D01*
X14700481Y-19945000D01*
X14799103Y-19879103D01*
X15053276Y-19498707D01*
X15142529Y-19050000D01*
X15053276Y-18601293D01*
X14799103Y-18220897D01*
X14418707Y-17966724D01*
X14083261Y-17900000D01*
X13856739Y-17900000D01*
X13521293Y-17966724D01*
X13140897Y-18220897D01*
X12886724Y-18601293D01*
X12797471Y-19050000D01*
X12886724Y-19498707D01*
X13140897Y-19879103D01*
X13239519Y-19945000D01*
X12160481Y-19945000D01*
X12259103Y-19879103D01*
X12513276Y-19498707D01*
X12602529Y-19050000D01*
X12513276Y-18601293D01*
X12259103Y-18220897D01*
X11878707Y-17966724D01*
X11543261Y-17900000D01*
X11316739Y-17900000D01*
X10981293Y-17966724D01*
X10600897Y-18220897D01*
X10346724Y-18601293D01*
X10257471Y-19050000D01*
X10346724Y-19498707D01*
X10600897Y-19879103D01*
X10699519Y-19945000D01*
X9620481Y-19945000D01*
X9719103Y-19879103D01*
X9973276Y-19498707D01*
X10062529Y-19050000D01*
X9973276Y-18601293D01*
X9719103Y-18220897D01*
X9338707Y-17966724D01*
X9003261Y-17900000D01*
X8776739Y-17900000D01*
X8441293Y-17966724D01*
X8060897Y-18220897D01*
X7806724Y-18601293D01*
X7717471Y-19050000D01*
X7806724Y-19498707D01*
X8060897Y-19879103D01*
X8159519Y-19945000D01*
X7080481Y-19945000D01*
X7179103Y-19879103D01*
X7433276Y-19498707D01*
X7522529Y-19050000D01*
X7433276Y-18601293D01*
X7179103Y-18220897D01*
X6798707Y-17966724D01*
X6463261Y-17900000D01*
X6236739Y-17900000D01*
X5901293Y-17966724D01*
X5520897Y-18220897D01*
X5266724Y-18601293D01*
X5177471Y-19050000D01*
X5266724Y-19498707D01*
X5520897Y-19879103D01*
X5619519Y-19945000D01*
X4540481Y-19945000D01*
X4639103Y-19879103D01*
X4893276Y-19498707D01*
X4982529Y-19050000D01*
X4893276Y-18601293D01*
X4639103Y-18220897D01*
X4258707Y-17966724D01*
X3923261Y-17900000D01*
X3696739Y-17900000D01*
X3361293Y-17966724D01*
X2980897Y-18220897D01*
X2726724Y-18601293D01*
X2637471Y-19050000D01*
X2726724Y-19498707D01*
X2980897Y-19879103D01*
X3079519Y-19945000D01*
X2520000Y-19945000D01*
X2520000Y-19200000D01*
X2420000Y-19100000D01*
X1320000Y-19100000D01*
X1320000Y-19120000D01*
X1220000Y-19120000D01*
X1220000Y-19100000D01*
X1200000Y-19100000D01*
X1200000Y-19000000D01*
X1220000Y-19000000D01*
X1220000Y-17900000D01*
X1320000Y-17900000D01*
X1320000Y-19000000D01*
X2420000Y-19000000D01*
X2520000Y-18900000D01*
X2520000Y-18120435D01*
X2459104Y-17973418D01*
X2346582Y-17860896D01*
X2199565Y-17800000D01*
X1420000Y-17800000D01*
X1320000Y-17900000D01*
X1220000Y-17900000D01*
X1120000Y-17800000D01*
X375000Y-17800000D01*
X375000Y-16434261D01*
X2094000Y-16434261D01*
X2094000Y-16712739D01*
X2200568Y-16970018D01*
X2397482Y-17166932D01*
X2654761Y-17273500D01*
X2786893Y-17273500D01*
X2879137Y-17365744D01*
X2907032Y-17407492D01*
X3072422Y-17518001D01*
X3218269Y-17547012D01*
X3218270Y-17547012D01*
X3267511Y-17556807D01*
X3316752Y-17547012D01*
X58532247Y-17547012D01*
X58581488Y-17556807D01*
X58630729Y-17547012D01*
X58630731Y-17547012D01*
X58776578Y-17518001D01*
X58941968Y-17407492D01*
X58969865Y-17365742D01*
X60183984Y-16151623D01*
X71028869Y-16151623D01*
X71064487Y-16282489D01*
X71265038Y-16617751D01*
X71578623Y-16850745D01*
X71957500Y-16946000D01*
X72307500Y-16946000D01*
X72307500Y-15996000D01*
X71108890Y-15996000D01*
X71028869Y-16151623D01*
X60183984Y-16151623D01*
X60614728Y-15720879D01*
X68953331Y-15720879D01*
X69024378Y-15902482D01*
X69438601Y-16071960D01*
X69886149Y-16070020D01*
X70290622Y-15902482D01*
X70354040Y-15740377D01*
X71028869Y-15740377D01*
X71108890Y-15896000D01*
X72307500Y-15896000D01*
X72307500Y-14946000D01*
X71957500Y-14946000D01*
X71578623Y-15041255D01*
X71265038Y-15274249D01*
X71064487Y-15609511D01*
X71028869Y-15740377D01*
X70354040Y-15740377D01*
X70361669Y-15720879D01*
X69657500Y-15016711D01*
X68953331Y-15720879D01*
X60614728Y-15720879D01*
X61507233Y-14828374D01*
X61548980Y-14800480D01*
X61659489Y-14635090D01*
X61688500Y-14489243D01*
X61688500Y-14489242D01*
X61698295Y-14440000D01*
X61688500Y-14390757D01*
X61688500Y-14015450D01*
X61781932Y-13922018D01*
X61888500Y-13664739D01*
X61888500Y-13386261D01*
X61781932Y-13128982D01*
X61585018Y-12932068D01*
X61327739Y-12825500D01*
X61049261Y-12825500D01*
X60791982Y-12932068D01*
X60595068Y-13128982D01*
X60488500Y-13386261D01*
X60488500Y-13664739D01*
X60595068Y-13922018D01*
X60688500Y-14015450D01*
X60688500Y-14232893D01*
X58374382Y-16547012D01*
X3494000Y-16547012D01*
X3494000Y-16434261D01*
X3387432Y-16176982D01*
X3190518Y-15980068D01*
X2933239Y-15873500D01*
X2654761Y-15873500D01*
X2397482Y-15980068D01*
X2200568Y-16176982D01*
X2094000Y-16434261D01*
X375000Y-16434261D01*
X375000Y-14214771D01*
X5124199Y-14214771D01*
X5310145Y-14663695D01*
X5654765Y-15008826D01*
X6105228Y-15195805D01*
X6300000Y-15119004D01*
X6300000Y-14020000D01*
X6400000Y-14020000D01*
X6400000Y-15119004D01*
X6594772Y-15195805D01*
X7045235Y-15008826D01*
X7389855Y-14663695D01*
X7575801Y-14214771D01*
X7498913Y-14020000D01*
X6400000Y-14020000D01*
X6300000Y-14020000D01*
X5201087Y-14020000D01*
X5124199Y-14214771D01*
X375000Y-14214771D01*
X375000Y-13725229D01*
X5124199Y-13725229D01*
X5201087Y-13920000D01*
X6300000Y-13920000D01*
X6300000Y-12820996D01*
X6105228Y-12744195D01*
X5654765Y-12931174D01*
X5310145Y-13276305D01*
X5124199Y-13725229D01*
X375000Y-13725229D01*
X375000Y-8890000D01*
X5177471Y-8890000D01*
X5266724Y-9338707D01*
X5520897Y-9719103D01*
X5901293Y-9973276D01*
X6236739Y-10040000D01*
X6463261Y-10040000D01*
X6798707Y-9973276D01*
X6860346Y-9932090D01*
X7752001Y-10823746D01*
X7752000Y-12300256D01*
X7392090Y-11940346D01*
X7433276Y-11878707D01*
X7522529Y-11430000D01*
X7433276Y-10981293D01*
X7179103Y-10600897D01*
X6798707Y-10346724D01*
X6463261Y-10280000D01*
X6236739Y-10280000D01*
X5901293Y-10346724D01*
X5520897Y-10600897D01*
X5266724Y-10981293D01*
X5177471Y-11430000D01*
X5266724Y-11878707D01*
X5520897Y-12259103D01*
X5901293Y-12513276D01*
X6236739Y-12580000D01*
X6463261Y-12580000D01*
X6798707Y-12513276D01*
X6860346Y-12472090D01*
X7371001Y-12982745D01*
X7371000Y-13234468D01*
X7367193Y-13253609D01*
X7045235Y-12931174D01*
X6594772Y-12744195D01*
X6400000Y-12820996D01*
X6400000Y-13920000D01*
X7498913Y-13920000D01*
X7575801Y-13725229D01*
X7509913Y-13566157D01*
X8647950Y-14704194D01*
X8668928Y-14735590D01*
X8784154Y-14812581D01*
X8793301Y-14818693D01*
X8940009Y-14847875D01*
X8977040Y-14840509D01*
X26601248Y-14840509D01*
X26357258Y-15084500D01*
X26169655Y-15084500D01*
X25949129Y-15175844D01*
X25780346Y-15344627D01*
X25689002Y-15565153D01*
X25689002Y-15803847D01*
X25780346Y-16024373D01*
X25949129Y-16193156D01*
X26169655Y-16284500D01*
X26408349Y-16284500D01*
X26628875Y-16193156D01*
X26797658Y-16024373D01*
X26882662Y-15819153D01*
X32166000Y-15819153D01*
X32166000Y-16057847D01*
X32257344Y-16278373D01*
X32426127Y-16447156D01*
X32646653Y-16538500D01*
X32885347Y-16538500D01*
X33105873Y-16447156D01*
X33114529Y-16438500D01*
X54243259Y-16438500D01*
X54292500Y-16448295D01*
X54341741Y-16438500D01*
X54341743Y-16438500D01*
X54487590Y-16409489D01*
X54652980Y-16298980D01*
X54680877Y-16257230D01*
X56912607Y-14025500D01*
X58501550Y-14025500D01*
X58594982Y-14118932D01*
X58852261Y-14225500D01*
X59130739Y-14225500D01*
X59388018Y-14118932D01*
X59584932Y-13922018D01*
X59691500Y-13664739D01*
X59691500Y-13386261D01*
X59584932Y-13128982D01*
X59388018Y-12932068D01*
X59130739Y-12825500D01*
X58852261Y-12825500D01*
X58594982Y-12932068D01*
X58501550Y-13025500D01*
X56754740Y-13025500D01*
X56705499Y-13015705D01*
X56656258Y-13025500D01*
X56656257Y-13025500D01*
X56510410Y-13054511D01*
X56345020Y-13165020D01*
X56317125Y-13206768D01*
X54085394Y-15438500D01*
X33114529Y-15438500D01*
X33105873Y-15429844D01*
X32885347Y-15338500D01*
X32646653Y-15338500D01*
X32426127Y-15429844D01*
X32257344Y-15598627D01*
X32166000Y-15819153D01*
X26882662Y-15819153D01*
X26889002Y-15803847D01*
X26889002Y-15616244D01*
X27333747Y-15171500D01*
X33828709Y-15171500D01*
X33865740Y-15178866D01*
X33902771Y-15171500D01*
X34012448Y-15149684D01*
X34136821Y-15066581D01*
X34157799Y-15035185D01*
X34173480Y-15019505D01*
X34204131Y-15050156D01*
X34424657Y-15141500D01*
X34663351Y-15141500D01*
X34883877Y-15050156D01*
X35052660Y-14881373D01*
X35144004Y-14660847D01*
X35144004Y-14422153D01*
X35052660Y-14201627D01*
X34883877Y-14032844D01*
X34663351Y-13941500D01*
X34424657Y-13941500D01*
X34204131Y-14032844D01*
X34068686Y-14168289D01*
X33973032Y-14187316D01*
X33848659Y-14270419D01*
X33827681Y-14301815D01*
X33709996Y-14419500D01*
X33546744Y-14419500D01*
X34602745Y-13363500D01*
X34790347Y-13363500D01*
X35010873Y-13272156D01*
X35179656Y-13103373D01*
X35271000Y-12882847D01*
X35271000Y-12644153D01*
X35179656Y-12423627D01*
X35010873Y-12254844D01*
X34790347Y-12163500D01*
X34551653Y-12163500D01*
X34331127Y-12254844D01*
X34162344Y-12423627D01*
X34088334Y-12602305D01*
X33994873Y-12508844D01*
X33774347Y-12417500D01*
X33535653Y-12417500D01*
X33315127Y-12508844D01*
X33146344Y-12677627D01*
X33055000Y-12898153D01*
X33055000Y-13085756D01*
X32356256Y-13784500D01*
X9236244Y-13784500D01*
X8504000Y-13052256D01*
X8504000Y-12237142D01*
X19524000Y-12237142D01*
X19524000Y-12654858D01*
X19683853Y-13040777D01*
X19979223Y-13336147D01*
X20365142Y-13496000D01*
X20782858Y-13496000D01*
X21168777Y-13336147D01*
X21464147Y-13040777D01*
X21554767Y-12822000D01*
X24283467Y-12822000D01*
X24320498Y-12829366D01*
X24357529Y-12822000D01*
X24362577Y-12820996D01*
X24373900Y-12818744D01*
X24467206Y-12800184D01*
X24591579Y-12717081D01*
X24612557Y-12685685D01*
X25141244Y-12156998D01*
X25328847Y-12156998D01*
X25549373Y-12065654D01*
X25718156Y-11896871D01*
X25809500Y-11676345D01*
X25809500Y-11628153D01*
X27784500Y-11628153D01*
X27784500Y-11866847D01*
X27875844Y-12087373D01*
X28044627Y-12256156D01*
X28265153Y-12347500D01*
X28503847Y-12347500D01*
X28724373Y-12256156D01*
X28893156Y-12087373D01*
X28984500Y-11866847D01*
X28984500Y-11854606D01*
X29417107Y-11422000D01*
X47466971Y-11422000D01*
X47475627Y-11430656D01*
X47696153Y-11522000D01*
X47934847Y-11522000D01*
X48155373Y-11430656D01*
X48324156Y-11261873D01*
X48415500Y-11041347D01*
X48415500Y-11029106D01*
X48721107Y-10723500D01*
X55453550Y-10723500D01*
X55483482Y-10753432D01*
X55740761Y-10860000D01*
X56019239Y-10860000D01*
X56276518Y-10753432D01*
X56473432Y-10556518D01*
X56580000Y-10299239D01*
X56580000Y-10020761D01*
X56473432Y-9763482D01*
X56276518Y-9566568D01*
X56019239Y-9460000D01*
X55740761Y-9460000D01*
X55483482Y-9566568D01*
X55326550Y-9723500D01*
X48563240Y-9723500D01*
X48513999Y-9713705D01*
X48464758Y-9723500D01*
X48464757Y-9723500D01*
X48318910Y-9752511D01*
X48153520Y-9863020D01*
X48125626Y-9904767D01*
X47708394Y-10322000D01*
X47696153Y-10322000D01*
X47475627Y-10413344D01*
X47466971Y-10422000D01*
X29259240Y-10422000D01*
X29209999Y-10412205D01*
X29160758Y-10422000D01*
X29160757Y-10422000D01*
X29014910Y-10451011D01*
X28849520Y-10561520D01*
X28821626Y-10603267D01*
X28277394Y-11147500D01*
X28265153Y-11147500D01*
X28044627Y-11238844D01*
X27875844Y-11407627D01*
X27784500Y-11628153D01*
X25809500Y-11628153D01*
X25809500Y-11437651D01*
X25718156Y-11217125D01*
X25549373Y-11048342D01*
X25328847Y-10956998D01*
X25090153Y-10956998D01*
X24869627Y-11048342D01*
X24700844Y-11217125D01*
X24609500Y-11437651D01*
X24609500Y-11625254D01*
X24164754Y-12070000D01*
X21554767Y-12070000D01*
X21464147Y-11851223D01*
X21168777Y-11555853D01*
X20782858Y-11396000D01*
X20365142Y-11396000D01*
X19979223Y-11555853D01*
X19683853Y-11851223D01*
X19524000Y-12237142D01*
X8504000Y-12237142D01*
X8504000Y-10705031D01*
X8511366Y-10668000D01*
X8482184Y-10521292D01*
X8420057Y-10428312D01*
X8399081Y-10396919D01*
X8367688Y-10375943D01*
X8037031Y-10045286D01*
X8040000Y-10045877D01*
X9740000Y-10045877D01*
X9857054Y-10022593D01*
X9956288Y-9956288D01*
X10022593Y-9857054D01*
X10045877Y-9740000D01*
X10045877Y-8329367D01*
X10694686Y-7680558D01*
X10705031Y-7678500D01*
X10814708Y-7656684D01*
X10939081Y-7573581D01*
X11022184Y-7449208D01*
X11051366Y-7302500D01*
X11044000Y-7265469D01*
X11044000Y-6124744D01*
X12474744Y-4694000D01*
X12692473Y-4694000D01*
X12598500Y-4920870D01*
X12598500Y-5239130D01*
X12720293Y-5533164D01*
X12945336Y-5758207D01*
X13239370Y-5880000D01*
X13557630Y-5880000D01*
X13634793Y-5848038D01*
X13793812Y-6007057D01*
X13793815Y-6007059D01*
X14312941Y-6526185D01*
X14333919Y-6557581D01*
X14458292Y-6640684D01*
X14604999Y-6669866D01*
X14642030Y-6662500D01*
X20011460Y-6662500D01*
X19979223Y-6675853D01*
X19683853Y-6971223D01*
X19524000Y-7357142D01*
X19524000Y-7774858D01*
X19683853Y-8160777D01*
X19979223Y-8456147D01*
X20365142Y-8616000D01*
X20782858Y-8616000D01*
X21168777Y-8456147D01*
X21464147Y-8160777D01*
X21554767Y-7942000D01*
X24936971Y-7942000D01*
X25060127Y-8065156D01*
X25280653Y-8156500D01*
X25519347Y-8156500D01*
X25739873Y-8065156D01*
X25908656Y-7896373D01*
X26000000Y-7675847D01*
X26000000Y-7437153D01*
X25921096Y-7246659D01*
X32928000Y-7246659D01*
X32928000Y-7485353D01*
X33019344Y-7705879D01*
X33188127Y-7874662D01*
X33408653Y-7966006D01*
X33647347Y-7966006D01*
X33867873Y-7874662D01*
X34000529Y-7742006D01*
X50191463Y-7742006D01*
X50228494Y-7749372D01*
X50265525Y-7742006D01*
X50375202Y-7720190D01*
X50499575Y-7637087D01*
X50520553Y-7605691D01*
X51520245Y-6606000D01*
X51707847Y-6606000D01*
X51928373Y-6514656D01*
X52097156Y-6345873D01*
X52188500Y-6125347D01*
X52188500Y-5886653D01*
X52097156Y-5666127D01*
X51928373Y-5497344D01*
X51707847Y-5406000D01*
X51469153Y-5406000D01*
X51248627Y-5497344D01*
X51146000Y-5599971D01*
X51146000Y-5532153D01*
X51054656Y-5311627D01*
X50885873Y-5142844D01*
X50665347Y-5051500D01*
X50426653Y-5051500D01*
X50206127Y-5142844D01*
X50037344Y-5311627D01*
X49946000Y-5532153D01*
X49946000Y-5719756D01*
X48993256Y-6672500D01*
X39524409Y-6672500D01*
X39434156Y-6454609D01*
X39265373Y-6285826D01*
X39044847Y-6194482D01*
X38806153Y-6194482D01*
X38585627Y-6285826D01*
X38416844Y-6454609D01*
X38325500Y-6675135D01*
X38325500Y-6913829D01*
X38357053Y-6990006D01*
X34000529Y-6990006D01*
X33867873Y-6857350D01*
X33647347Y-6766006D01*
X33408653Y-6766006D01*
X33188127Y-6857350D01*
X33019344Y-7026133D01*
X32928000Y-7246659D01*
X25921096Y-7246659D01*
X25908656Y-7216627D01*
X25739873Y-7047844D01*
X25519347Y-6956500D01*
X25280653Y-6956500D01*
X25060127Y-7047844D01*
X24917971Y-7190000D01*
X21554767Y-7190000D01*
X21464147Y-6971223D01*
X21168777Y-6675853D01*
X21136540Y-6662500D01*
X35268969Y-6662500D01*
X35306000Y-6669866D01*
X35343031Y-6662500D01*
X35452708Y-6640684D01*
X35577081Y-6557581D01*
X35598059Y-6526185D01*
X35936244Y-6188000D01*
X36123847Y-6188000D01*
X36344373Y-6096656D01*
X36513156Y-5927873D01*
X36604500Y-5707347D01*
X36604500Y-5468653D01*
X36513156Y-5248127D01*
X36344373Y-5079344D01*
X36123847Y-4988000D01*
X35885153Y-4988000D01*
X35664627Y-5079344D01*
X35570561Y-5173410D01*
X35570561Y-5057911D01*
X35525035Y-4948000D01*
X36674256Y-4948000D01*
X37119000Y-5392745D01*
X37119000Y-5580347D01*
X37210344Y-5800873D01*
X37379127Y-5969656D01*
X37599653Y-6061000D01*
X37838347Y-6061000D01*
X38058873Y-5969656D01*
X38227656Y-5800873D01*
X38319000Y-5580347D01*
X38319000Y-5341653D01*
X38227656Y-5121127D01*
X38058873Y-4952344D01*
X37838347Y-4861000D01*
X37650745Y-4861000D01*
X37122059Y-4332315D01*
X37101081Y-4300919D01*
X36976708Y-4217816D01*
X36867031Y-4196000D01*
X36830000Y-4188634D01*
X36792969Y-4196000D01*
X34517529Y-4196000D01*
X34480499Y-4188634D01*
X34443469Y-4196000D01*
X34333792Y-4217816D01*
X34209419Y-4300919D01*
X34188441Y-4332315D01*
X33218278Y-5302478D01*
X17391222Y-5302478D01*
X16167059Y-4078315D01*
X16146081Y-4046919D01*
X16021708Y-3963816D01*
X15912031Y-3942000D01*
X15875000Y-3934634D01*
X15837969Y-3942000D01*
X12356031Y-3942000D01*
X12319000Y-3934634D01*
X12281969Y-3942000D01*
X12172292Y-3963816D01*
X12047919Y-4046919D01*
X12026941Y-4078315D01*
X10428315Y-5676941D01*
X10396919Y-5697919D01*
X10348191Y-5770847D01*
X10313816Y-5822293D01*
X10284634Y-5969000D01*
X10292000Y-6006031D01*
X10292001Y-7016665D01*
X10269919Y-7031419D01*
X10248941Y-7062815D01*
X9577633Y-7734123D01*
X8040000Y-7734123D01*
X7922946Y-7757407D01*
X7823712Y-7823712D01*
X7757407Y-7922946D01*
X7734123Y-8040000D01*
X7734123Y-9740000D01*
X7734714Y-9742969D01*
X7392090Y-9400346D01*
X7433276Y-9338707D01*
X7522529Y-8890000D01*
X7433276Y-8441293D01*
X7179103Y-8060897D01*
X6798707Y-7806724D01*
X6463261Y-7740000D01*
X6236739Y-7740000D01*
X5901293Y-7806724D01*
X5520897Y-8060897D01*
X5266724Y-8441293D01*
X5177471Y-8890000D01*
X375000Y-8890000D01*
X375000Y-5500000D01*
X5194123Y-5500000D01*
X5194123Y-7200000D01*
X5217407Y-7317054D01*
X5283712Y-7416288D01*
X5382946Y-7482593D01*
X5500000Y-7505877D01*
X7200000Y-7505877D01*
X7317054Y-7482593D01*
X7416288Y-7416288D01*
X7482593Y-7317054D01*
X7505877Y-7200000D01*
X7505877Y-6850000D01*
X7840997Y-6850000D01*
X8060897Y-7179103D01*
X8441293Y-7433276D01*
X8776739Y-7500000D01*
X9003261Y-7500000D01*
X9338707Y-7433276D01*
X9719103Y-7179103D01*
X9973276Y-6798707D01*
X10062529Y-6350000D01*
X9973276Y-5901293D01*
X9719103Y-5520897D01*
X9338707Y-5266724D01*
X9003261Y-5200000D01*
X8776739Y-5200000D01*
X8441293Y-5266724D01*
X8060897Y-5520897D01*
X7840997Y-5850000D01*
X7557106Y-5850000D01*
X9605107Y-3802000D01*
X26272394Y-3802000D01*
X26614501Y-4144107D01*
X26614501Y-4159970D01*
X26605844Y-4168627D01*
X26514500Y-4389153D01*
X26514500Y-4627847D01*
X26605844Y-4848373D01*
X26774627Y-5017156D01*
X26995153Y-5108500D01*
X27233847Y-5108500D01*
X27454373Y-5017156D01*
X27623156Y-4848373D01*
X27714500Y-4627847D01*
X27714500Y-4389153D01*
X27681714Y-4310000D01*
X30907894Y-4310000D01*
X31384731Y-4786838D01*
X31384731Y-4798337D01*
X31476075Y-5018863D01*
X31644858Y-5187646D01*
X31865384Y-5278990D01*
X32104078Y-5278990D01*
X32324604Y-5187646D01*
X32493387Y-5018863D01*
X32584731Y-4798337D01*
X32584731Y-4786096D01*
X32963873Y-4406955D01*
X32963875Y-4406952D01*
X33822828Y-3548000D01*
X42450471Y-3548000D01*
X42459127Y-3556656D01*
X42679653Y-3648000D01*
X42691894Y-3648000D01*
X43045625Y-4001732D01*
X43073520Y-4043480D01*
X43238910Y-4153989D01*
X43325903Y-4171293D01*
X43434000Y-4192795D01*
X43483243Y-4183000D01*
X52815394Y-4183000D01*
X59047625Y-10415232D01*
X59075520Y-10456980D01*
X59203113Y-10542234D01*
X59240910Y-10567489D01*
X59436000Y-10606295D01*
X59459229Y-10601675D01*
X59547486Y-10689932D01*
X59804765Y-10796500D01*
X60083243Y-10796500D01*
X60340522Y-10689932D01*
X60537436Y-10493018D01*
X60644004Y-10235739D01*
X60644004Y-9957261D01*
X60537436Y-9699982D01*
X60340522Y-9503068D01*
X60083243Y-9396500D01*
X59804765Y-9396500D01*
X59549034Y-9502427D01*
X53410877Y-3364271D01*
X53382980Y-3322520D01*
X53217590Y-3212011D01*
X53071743Y-3183000D01*
X53071741Y-3183000D01*
X53022500Y-3173205D01*
X52973259Y-3183000D01*
X43641107Y-3183000D01*
X43399000Y-2940894D01*
X43399000Y-2928653D01*
X43307656Y-2708127D01*
X43138873Y-2539344D01*
X42918347Y-2448000D01*
X42679653Y-2448000D01*
X42459127Y-2539344D01*
X42450471Y-2548000D01*
X33664964Y-2548000D01*
X33615721Y-2538205D01*
X33566478Y-2548000D01*
X33420631Y-2577011D01*
X33255241Y-2687520D01*
X33227346Y-2729268D01*
X32256769Y-3699846D01*
X32256766Y-3699848D01*
X31984360Y-3972254D01*
X31503376Y-3491270D01*
X31475480Y-3449520D01*
X31310090Y-3339011D01*
X31164243Y-3310000D01*
X31164241Y-3310000D01*
X31115000Y-3300205D01*
X31065759Y-3310000D01*
X27290740Y-3310000D01*
X27241499Y-3300205D01*
X27194217Y-3309610D01*
X26867876Y-2983270D01*
X26839980Y-2941520D01*
X26674590Y-2831011D01*
X26528743Y-2802000D01*
X26528741Y-2802000D01*
X26479500Y-2792205D01*
X26430259Y-2802000D01*
X9447243Y-2802000D01*
X9398000Y-2792205D01*
X9202909Y-2831011D01*
X9133180Y-2877603D01*
X9037520Y-2941520D01*
X9009625Y-2983268D01*
X6798771Y-5194123D01*
X5500000Y-5194123D01*
X5382946Y-5217407D01*
X5283712Y-5283712D01*
X5217407Y-5382946D01*
X5194123Y-5500000D01*
X375000Y-5500000D01*
X375000Y-2520000D01*
X1120000Y-2520000D01*
X1220000Y-2420000D01*
X1220000Y-1320000D01*
X1320000Y-1320000D01*
X1320000Y-2420000D01*
X1420000Y-2520000D01*
X2199565Y-2520000D01*
X2346582Y-2459104D01*
X2459104Y-2346582D01*
X2520000Y-2199565D01*
X2520000Y-1420000D01*
X2420000Y-1320000D01*
X1320000Y-1320000D01*
X1220000Y-1320000D01*
X1200000Y-1320000D01*
X1200000Y-1220000D01*
X1220000Y-1220000D01*
X1220000Y-1200000D01*
X1320000Y-1200000D01*
X1320000Y-1220000D01*
X2420000Y-1220000D01*
X2520000Y-1120000D01*
X2520000Y-375000D01*
X3079519Y-375000D01*
X2980897Y-440897D01*
X2980897Y-440897D01*
G37*
X2980897Y-440897D02*
X2726724Y-821293D01*
X2637471Y-1270000D01*
X2726724Y-1718707D01*
X2980897Y-2099103D01*
X3361293Y-2353276D01*
X3696739Y-2420000D01*
X3923261Y-2420000D01*
X4258707Y-2353276D01*
X4639103Y-2099103D01*
X4893276Y-1718707D01*
X4982529Y-1270000D01*
X4893276Y-821293D01*
X4639103Y-440897D01*
X4540481Y-375000D01*
X5619519Y-375000D01*
X5520897Y-440897D01*
X5266724Y-821293D01*
X5177471Y-1270000D01*
X5266724Y-1718707D01*
X5520897Y-2099103D01*
X5901293Y-2353276D01*
X6236739Y-2420000D01*
X6463261Y-2420000D01*
X6798707Y-2353276D01*
X7179103Y-2099103D01*
X7433276Y-1718707D01*
X7522529Y-1270000D01*
X7433276Y-821293D01*
X7179103Y-440897D01*
X7080481Y-375000D01*
X8159519Y-375000D01*
X8060897Y-440897D01*
X7806724Y-821293D01*
X7717471Y-1270000D01*
X7806724Y-1718707D01*
X8060897Y-2099103D01*
X8441293Y-2353276D01*
X8776739Y-2420000D01*
X9003261Y-2420000D01*
X9338707Y-2353276D01*
X9719103Y-2099103D01*
X9973276Y-1718707D01*
X10062529Y-1270000D01*
X9973276Y-821293D01*
X9719103Y-440897D01*
X9620481Y-375000D01*
X10699519Y-375000D01*
X10600897Y-440897D01*
X10346724Y-821293D01*
X10257471Y-1270000D01*
X10346724Y-1718707D01*
X10600897Y-2099103D01*
X10981293Y-2353276D01*
X11316739Y-2420000D01*
X11543261Y-2420000D01*
X11878707Y-2353276D01*
X12259103Y-2099103D01*
X12513276Y-1718707D01*
X12602529Y-1270000D01*
X12513276Y-821293D01*
X12259103Y-440897D01*
X12160481Y-375000D01*
X13239519Y-375000D01*
X13140897Y-440897D01*
X12886724Y-821293D01*
X12797471Y-1270000D01*
X12886724Y-1718707D01*
X13140897Y-2099103D01*
X13521293Y-2353276D01*
X13856739Y-2420000D01*
X14083261Y-2420000D01*
X14418707Y-2353276D01*
X14799103Y-2099103D01*
X15053276Y-1718707D01*
X15142529Y-1270000D01*
X15053276Y-821293D01*
X14799103Y-440897D01*
X14700481Y-375000D01*
X15779519Y-375000D01*
X15680897Y-440897D01*
X15426724Y-821293D01*
X15337471Y-1270000D01*
X15426724Y-1718707D01*
X15680897Y-2099103D01*
X16061293Y-2353276D01*
X16396739Y-2420000D01*
X16623261Y-2420000D01*
X16958707Y-2353276D01*
X17339103Y-2099103D01*
X17593276Y-1718707D01*
X17682529Y-1270000D01*
X17593276Y-821293D01*
X17339103Y-440897D01*
X17240481Y-375000D01*
X18319519Y-375000D01*
X18220897Y-440897D01*
X17966724Y-821293D01*
X17877471Y-1270000D01*
X17966724Y-1718707D01*
X18220897Y-2099103D01*
X18601293Y-2353276D01*
X18936739Y-2420000D01*
X19163261Y-2420000D01*
X19498707Y-2353276D01*
X19879103Y-2099103D01*
X20133276Y-1718707D01*
X20222529Y-1270000D01*
X20133276Y-821293D01*
X19879103Y-440897D01*
X19780481Y-375000D01*
X20859519Y-375000D01*
X20760897Y-440897D01*
X20506724Y-821293D01*
X20417471Y-1270000D01*
X20506724Y-1718707D01*
X20760897Y-2099103D01*
X21141293Y-2353276D01*
X21476739Y-2420000D01*
X21703261Y-2420000D01*
X22038707Y-2353276D01*
X22419103Y-2099103D01*
X22673276Y-1718707D01*
X22762529Y-1270000D01*
X22673276Y-821293D01*
X22419103Y-440897D01*
X22320481Y-375000D01*
X23399519Y-375000D01*
X23300897Y-440897D01*
X23046724Y-821293D01*
X22957471Y-1270000D01*
X23046724Y-1718707D01*
X23300897Y-2099103D01*
X23681293Y-2353276D01*
X24016739Y-2420000D01*
X24243261Y-2420000D01*
X24578707Y-2353276D01*
X24959103Y-2099103D01*
X25213276Y-1718707D01*
X25302529Y-1270000D01*
X25213276Y-821293D01*
X24959103Y-440897D01*
X24860481Y-375000D01*
X25939519Y-375000D01*
X25840897Y-440897D01*
X25586724Y-821293D01*
X25497471Y-1270000D01*
X25586724Y-1718707D01*
X25840897Y-2099103D01*
X26221293Y-2353276D01*
X26556739Y-2420000D01*
X26783261Y-2420000D01*
X27118707Y-2353276D01*
X27499103Y-2099103D01*
X27753276Y-1718707D01*
X27842529Y-1270000D01*
X27753276Y-821293D01*
X27499103Y-440897D01*
X27400481Y-375000D01*
X28479519Y-375000D01*
X28380897Y-440897D01*
X28126724Y-821293D01*
X28037471Y-1270000D01*
X28126724Y-1718707D01*
X28380897Y-2099103D01*
X28761293Y-2353276D01*
X29096739Y-2420000D01*
X29323261Y-2420000D01*
X29658707Y-2353276D01*
X30039103Y-2099103D01*
X30293276Y-1718707D01*
X30382529Y-1270000D01*
X30293276Y-821293D01*
X30039103Y-440897D01*
X29940481Y-375000D01*
X31019519Y-375000D01*
X30920897Y-440897D01*
X30666724Y-821293D01*
X30577471Y-1270000D01*
X30666724Y-1718707D01*
X30920897Y-2099103D01*
X31301293Y-2353276D01*
X31636739Y-2420000D01*
X31863261Y-2420000D01*
X32198707Y-2353276D01*
X32579103Y-2099103D01*
X32833276Y-1718707D01*
X32922529Y-1270000D01*
X32833276Y-821293D01*
X32579103Y-440897D01*
X32480481Y-375000D01*
X33559519Y-375000D01*
X33460897Y-440897D01*
X33206724Y-821293D01*
X33117471Y-1270000D01*
X33206724Y-1718707D01*
X33460897Y-2099103D01*
X33841293Y-2353276D01*
X34176739Y-2420000D01*
X34403261Y-2420000D01*
X34738707Y-2353276D01*
X35119103Y-2099103D01*
X35373276Y-1718707D01*
X35462529Y-1270000D01*
X35373276Y-821293D01*
X35119103Y-440897D01*
X35020481Y-375000D01*
X36099519Y-375000D01*
X36000897Y-440897D01*
X35746724Y-821293D01*
X35657471Y-1270000D01*
X35746724Y-1718707D01*
X36000897Y-2099103D01*
X36381293Y-2353276D01*
X36716739Y-2420000D01*
X36943261Y-2420000D01*
X37278707Y-2353276D01*
X37659103Y-2099103D01*
X37913276Y-1718707D01*
X38002529Y-1270000D01*
X37913276Y-821293D01*
X37659103Y-440897D01*
X37560481Y-375000D01*
X38639519Y-375000D01*
X38540897Y-440897D01*
X38286724Y-821293D01*
X38197471Y-1270000D01*
X38286724Y-1718707D01*
X38540897Y-2099103D01*
X38921293Y-2353276D01*
X39256739Y-2420000D01*
X39483261Y-2420000D01*
X39818707Y-2353276D01*
X40199103Y-2099103D01*
X40453276Y-1718707D01*
X40542529Y-1270000D01*
X40453276Y-821293D01*
X40199103Y-440897D01*
X40100481Y-375000D01*
X41179519Y-375000D01*
X41080897Y-440897D01*
X40826724Y-821293D01*
X40737471Y-1270000D01*
X40826724Y-1718707D01*
X41080897Y-2099103D01*
X41461293Y-2353276D01*
X41796739Y-2420000D01*
X42023261Y-2420000D01*
X42358707Y-2353276D01*
X42739103Y-2099103D01*
X42993276Y-1718707D01*
X43082529Y-1270000D01*
X42993276Y-821293D01*
X42739103Y-440897D01*
X42640481Y-375000D01*
X43719519Y-375000D01*
X43620897Y-440897D01*
X43366724Y-821293D01*
X43277471Y-1270000D01*
X43366724Y-1718707D01*
X43620897Y-2099103D01*
X44001293Y-2353276D01*
X44336739Y-2420000D01*
X44563261Y-2420000D01*
X44898707Y-2353276D01*
X45279103Y-2099103D01*
X45533276Y-1718707D01*
X45622529Y-1270000D01*
X45533276Y-821293D01*
X45279103Y-440897D01*
X45180481Y-375000D01*
X46259519Y-375000D01*
X46160897Y-440897D01*
X45906724Y-821293D01*
X45817471Y-1270000D01*
X45906724Y-1718707D01*
X46160897Y-2099103D01*
X46541293Y-2353276D01*
X46876739Y-2420000D01*
X47103261Y-2420000D01*
X47438707Y-2353276D01*
X47819103Y-2099103D01*
X48073276Y-1718707D01*
X48162529Y-1270000D01*
X48073276Y-821293D01*
X47819103Y-440897D01*
X47720481Y-375000D01*
X48799519Y-375000D01*
X48700897Y-440897D01*
X48446724Y-821293D01*
X48357471Y-1270000D01*
X48446724Y-1718707D01*
X48700897Y-2099103D01*
X49081293Y-2353276D01*
X49416739Y-2420000D01*
X49643261Y-2420000D01*
X49978707Y-2353276D01*
X50359103Y-2099103D01*
X50613276Y-1718707D01*
X50702529Y-1270000D01*
X50613276Y-821293D01*
X50359103Y-440897D01*
X50260481Y-375000D01*
X51339519Y-375000D01*
X51240897Y-440897D01*
X50986724Y-821293D01*
X50897471Y-1270000D01*
X50986724Y-1718707D01*
X51240897Y-2099103D01*
X51621293Y-2353276D01*
X51956739Y-2420000D01*
X52183261Y-2420000D01*
X52518707Y-2353276D01*
X52899103Y-2099103D01*
X53153276Y-1718707D01*
X53242529Y-1270000D01*
X53153276Y-821293D01*
X52899103Y-440897D01*
X52800481Y-375000D01*
X53879519Y-375000D01*
X53780897Y-440897D01*
X53526724Y-821293D01*
X53437471Y-1270000D01*
X53526724Y-1718707D01*
X53780897Y-2099103D01*
X54161293Y-2353276D01*
X54496739Y-2420000D01*
X54723261Y-2420000D01*
X55058707Y-2353276D01*
X55439103Y-2099103D01*
X55693276Y-1718707D01*
X55782529Y-1270000D01*
X55693276Y-821293D01*
X55439103Y-440897D01*
X55340481Y-375000D01*
X56419519Y-375000D01*
X56320897Y-440897D01*
X56066724Y-821293D01*
X55977471Y-1270000D01*
X56066724Y-1718707D01*
X56320897Y-2099103D01*
X56701293Y-2353276D01*
X57036739Y-2420000D01*
X57263261Y-2420000D01*
X57598707Y-2353276D01*
X57979103Y-2099103D01*
X58233276Y-1718707D01*
X58322529Y-1270000D01*
X58233276Y-821293D01*
X57979103Y-440897D01*
X57880481Y-375000D01*
X58959519Y-375000D01*
X58860897Y-440897D01*
X58606724Y-821293D01*
X58517471Y-1270000D01*
X58606724Y-1718707D01*
X58860897Y-2099103D01*
X59241293Y-2353276D01*
X59576739Y-2420000D01*
X59803261Y-2420000D01*
X60138707Y-2353276D01*
X60519103Y-2099103D01*
X60773276Y-1718707D01*
X60862529Y-1270000D01*
X60773276Y-821293D01*
X60519103Y-440897D01*
X60420481Y-375000D01*
X61499519Y-375000D01*
X61400897Y-440897D01*
X61146724Y-821293D01*
X61057471Y-1270000D01*
X61146724Y-1718707D01*
X61400897Y-2099103D01*
X61781293Y-2353276D01*
X62116739Y-2420000D01*
X62343261Y-2420000D01*
X62678707Y-2353276D01*
X63059103Y-2099103D01*
X63313276Y-1718707D01*
X63402529Y-1270000D01*
X63313276Y-821293D01*
X63059103Y-440897D01*
X62960481Y-375000D01*
X64039519Y-375000D01*
X63940897Y-440897D01*
X63686724Y-821293D01*
X63597471Y-1270000D01*
X63686724Y-1718707D01*
X63940897Y-2099103D01*
X64321293Y-2353276D01*
X64394001Y-2367738D01*
X64394000Y-3836469D01*
X64386634Y-3873500D01*
X64400260Y-3942000D01*
X64415816Y-4020207D01*
X64498919Y-4144581D01*
X64530315Y-4165559D01*
X64584501Y-4219745D01*
X64584500Y-4797971D01*
X64451844Y-4930627D01*
X64360500Y-5151153D01*
X64360500Y-5389847D01*
X64451844Y-5610373D01*
X64620627Y-5779156D01*
X64841153Y-5870500D01*
X65079847Y-5870500D01*
X65300373Y-5779156D01*
X65469156Y-5610373D01*
X65560500Y-5389847D01*
X65560500Y-5151153D01*
X65469156Y-4930627D01*
X65336500Y-4797971D01*
X65336500Y-4101031D01*
X65343866Y-4064000D01*
X65314684Y-3917292D01*
X65285423Y-3873500D01*
X65231581Y-3792919D01*
X65200185Y-3771941D01*
X65146000Y-3717756D01*
X65146000Y-2367738D01*
X65218707Y-2353276D01*
X65599103Y-2099103D01*
X65853276Y-1718707D01*
X65942529Y-1270000D01*
X65853276Y-821293D01*
X65599103Y-440897D01*
X65500481Y-375000D01*
X66579519Y-375000D01*
X66480897Y-440897D01*
X66226724Y-821293D01*
X66137471Y-1270000D01*
X66226724Y-1718707D01*
X66480897Y-2099103D01*
X66861293Y-2353276D01*
X67196739Y-2420000D01*
X67423261Y-2420000D01*
X67758707Y-2353276D01*
X68139103Y-2099103D01*
X68393276Y-1718707D01*
X68482529Y-1270000D01*
X68393276Y-821293D01*
X68139103Y-440897D01*
X68040481Y-375000D01*
X69119519Y-375000D01*
X69020897Y-440897D01*
X68766724Y-821293D01*
X68677471Y-1270000D01*
X68754689Y-1658204D01*
X68681271Y-1731623D01*
X68639521Y-1759519D01*
X68529012Y-1924910D01*
X68520991Y-1965235D01*
X68490206Y-2119999D01*
X68500001Y-2169241D01*
X68500002Y-3373391D01*
X62613393Y-9260001D01*
X61917240Y-9260001D01*
X61867998Y-9250206D01*
X61818757Y-9260001D01*
X61818756Y-9260001D01*
X61672909Y-9289012D01*
X61507519Y-9399521D01*
X61479625Y-9441268D01*
X61460893Y-9460000D01*
X61328761Y-9460000D01*
X61071482Y-9566568D01*
X60874568Y-9763482D01*
X60768000Y-10020761D01*
X60768000Y-10299239D01*
X60874568Y-10556518D01*
X61071482Y-10753432D01*
X61328761Y-10860000D01*
X61607239Y-10860000D01*
X61864518Y-10753432D01*
X62061432Y-10556518D01*
X62072929Y-10528761D01*
X63371500Y-10528761D01*
X63371500Y-10807239D01*
X63478068Y-11064518D01*
X63571501Y-11157951D01*
X63571501Y-11380754D01*
X63561705Y-11430000D01*
X63590888Y-11576707D01*
X63600512Y-11625090D01*
X63711021Y-11790480D01*
X63752768Y-11818375D01*
X66731125Y-14796732D01*
X66759020Y-14838480D01*
X66823215Y-14881373D01*
X66924409Y-14948989D01*
X67119500Y-14987795D01*
X67168743Y-14978000D01*
X67836050Y-14978000D01*
X67929482Y-15071432D01*
X68186761Y-15178000D01*
X68465239Y-15178000D01*
X68533372Y-15149778D01*
X68533480Y-15174649D01*
X68701018Y-15579122D01*
X68882621Y-15650169D01*
X69586789Y-14946000D01*
X69728211Y-14946000D01*
X70432379Y-15650169D01*
X70613982Y-15579122D01*
X70783460Y-15164899D01*
X70781520Y-14717351D01*
X70613982Y-14312878D01*
X70432379Y-14241831D01*
X69728211Y-14946000D01*
X69586789Y-14946000D01*
X69572647Y-14931858D01*
X69643358Y-14861147D01*
X69657500Y-14875289D01*
X70361669Y-14171121D01*
X70290622Y-13989518D01*
X69876399Y-13820040D01*
X69428851Y-13821980D01*
X69024378Y-13989518D01*
X68954900Y-14167110D01*
X68919432Y-14081482D01*
X68722518Y-13884568D01*
X68465239Y-13778000D01*
X68186761Y-13778000D01*
X67929482Y-13884568D01*
X67836050Y-13978000D01*
X67326607Y-13978000D01*
X64571500Y-11222894D01*
X64571500Y-11157950D01*
X64664932Y-11064518D01*
X64771500Y-10807239D01*
X64771500Y-10720879D01*
X68953331Y-10720879D01*
X69024378Y-10902482D01*
X69438601Y-11071960D01*
X69886149Y-11070020D01*
X70290622Y-10902482D01*
X70361669Y-10720879D01*
X69657500Y-10016711D01*
X68953331Y-10720879D01*
X64771500Y-10720879D01*
X64771500Y-10528761D01*
X64664932Y-10271482D01*
X64468018Y-10074568D01*
X64210739Y-9968000D01*
X63932261Y-9968000D01*
X63674982Y-10074568D01*
X63478068Y-10271482D01*
X63371500Y-10528761D01*
X62072929Y-10528761D01*
X62168000Y-10299239D01*
X62168000Y-10260001D01*
X62771258Y-10260001D01*
X62820499Y-10269796D01*
X62869740Y-10260001D01*
X62869742Y-10260001D01*
X63015589Y-10230990D01*
X63180979Y-10120481D01*
X63208876Y-10078730D01*
X63560505Y-9727101D01*
X68531540Y-9727101D01*
X68533480Y-10174649D01*
X68701018Y-10579122D01*
X68882621Y-10650169D01*
X69586789Y-9946000D01*
X69728211Y-9946000D01*
X70432379Y-10650169D01*
X70613982Y-10579122D01*
X70783460Y-10164899D01*
X70781520Y-9717351D01*
X70613982Y-9312878D01*
X70432379Y-9241831D01*
X69728211Y-9946000D01*
X69586789Y-9946000D01*
X68882621Y-9241831D01*
X68701018Y-9312878D01*
X68531540Y-9727101D01*
X63560505Y-9727101D01*
X64116485Y-9171121D01*
X68953331Y-9171121D01*
X69657500Y-9875289D01*
X70361669Y-9171121D01*
X70354041Y-9151623D01*
X71028869Y-9151623D01*
X71064487Y-9282489D01*
X71265038Y-9617751D01*
X71578623Y-9850745D01*
X71957500Y-9946000D01*
X72307500Y-9946000D01*
X72307500Y-8996000D01*
X71108890Y-8996000D01*
X71028869Y-9151623D01*
X70354041Y-9151623D01*
X70290622Y-8989518D01*
X69876399Y-8820040D01*
X69428851Y-8821980D01*
X69024378Y-8989518D01*
X68953331Y-9171121D01*
X64116485Y-9171121D01*
X64547229Y-8740377D01*
X71028869Y-8740377D01*
X71108890Y-8896000D01*
X72307500Y-8896000D01*
X72307500Y-7946000D01*
X71957500Y-7946000D01*
X71578623Y-8041255D01*
X71265038Y-8274249D01*
X71064487Y-8609511D01*
X71028869Y-8740377D01*
X64547229Y-8740377D01*
X69318733Y-3968874D01*
X69360481Y-3940979D01*
X69470990Y-3775589D01*
X69477689Y-3741910D01*
X69509797Y-3580499D01*
X69500001Y-3531253D01*
X69500001Y-2372910D01*
X69736739Y-2420000D01*
X69963261Y-2420000D01*
X70298707Y-2353276D01*
X70679103Y-2099103D01*
X70933276Y-1718707D01*
X70973841Y-1514772D01*
X71164195Y-1514772D01*
X71351174Y-1965235D01*
X71696305Y-2309855D01*
X72145229Y-2495801D01*
X72340000Y-2418913D01*
X72340000Y-1320000D01*
X71240996Y-1320000D01*
X71164195Y-1514772D01*
X70973841Y-1514772D01*
X71022529Y-1270000D01*
X70933276Y-821293D01*
X70679103Y-440897D01*
X70580481Y-375000D01*
X71551235Y-375000D01*
X71351174Y-574765D01*
X71164195Y-1025228D01*
X71240996Y-1220000D01*
X72340000Y-1220000D01*
X72340000Y-1200000D01*
X72440000Y-1200000D01*
X72440000Y-1220000D01*
X72460000Y-1220000D01*
X72460000Y-1320000D01*
X72440000Y-1320000D01*
X72440000Y-2418913D01*
X72634771Y-2495801D01*
X73083695Y-2309855D01*
X73285000Y-2108848D01*
X73285000Y-8151682D01*
X73136377Y-8041255D01*
X72757500Y-7946000D01*
X72407500Y-7946000D01*
X72407500Y-8896000D01*
X72427500Y-8896000D01*
X72427500Y-8996000D01*
X72407500Y-8996000D01*
X72407500Y-9946000D01*
X72757500Y-9946000D01*
X73136377Y-9850745D01*
X73285000Y-9740318D01*
X73285001Y-15151683D01*
X73136377Y-15041255D01*
X72757500Y-14946000D01*
X72407500Y-14946000D01*
X72407500Y-15896000D01*
X72427500Y-15896000D01*
X72427500Y-15996000D01*
X72407500Y-15996000D01*
X72407500Y-16946000D01*
X72757500Y-16946000D01*
X73136377Y-16850745D01*
X73285001Y-16740317D01*
X73285001Y-18211153D01*
X73083695Y-18010145D01*
X72634771Y-17824199D01*
X72440000Y-17901087D01*
X72440000Y-19000000D01*
X72460000Y-19000000D01*
X72460000Y-19100000D01*
X72440000Y-19100000D01*
X72440000Y-19120000D01*
X72340000Y-19120000D01*
X72340000Y-19100000D01*
X71240996Y-19100000D01*
X71164195Y-19294772D01*
X71351174Y-19745235D01*
X71551235Y-19945000D01*
X70580481Y-19945000D01*
X70679103Y-19879103D01*
X70933276Y-19498707D01*
X71022529Y-19050000D01*
X70973842Y-18805228D01*
X71164195Y-18805228D01*
X71240996Y-19000000D01*
X72340000Y-19000000D01*
X72340000Y-17901087D01*
X72145229Y-17824199D01*
X71696305Y-18010145D01*
X71351174Y-18354765D01*
X71164195Y-18805228D01*
X70973842Y-18805228D01*
X70933276Y-18601293D01*
X70679103Y-18220897D01*
X70298707Y-17966724D01*
X69963261Y-17900000D01*
X69736739Y-17900000D01*
X69401293Y-17966724D01*
X69020897Y-18220897D01*
X68766724Y-18601293D01*
X68677471Y-19050000D01*
X68766724Y-19498707D01*
X69020897Y-19879103D01*
X69119519Y-19945000D01*
X68040481Y-19945000D01*
X68139103Y-19879103D01*
X68393276Y-19498707D01*
X68482529Y-19050000D01*
X68393276Y-18601293D01*
X68139103Y-18220897D01*
X67758707Y-17966724D01*
X67423261Y-17900000D01*
X67196739Y-17900000D01*
X66861293Y-17966724D01*
X66480897Y-18220897D01*
X66226724Y-18601293D01*
X66137471Y-19050000D01*
X66226724Y-19498707D01*
X66480897Y-19879103D01*
X66579519Y-19945000D01*
X65500481Y-19945000D01*
X65599103Y-19879103D01*
X65853276Y-19498707D01*
X65942529Y-19050000D01*
X65853276Y-18601293D01*
X65599103Y-18220897D01*
X65218707Y-17966724D01*
X64883261Y-17900000D01*
X64656739Y-17900000D01*
X64321293Y-17966724D01*
X63940897Y-18220897D01*
X63686724Y-18601293D01*
X63597471Y-19050000D01*
X63686724Y-19498707D01*
X63940897Y-19879103D01*
X64039519Y-19945000D01*
X62960481Y-19945000D01*
X63059103Y-19879103D01*
X63313276Y-19498707D01*
X63402529Y-19050000D01*
X63313276Y-18601293D01*
X63059103Y-18220897D01*
X62678707Y-17966724D01*
X62343261Y-17900000D01*
X62116739Y-17900000D01*
X61781293Y-17966724D01*
X61400897Y-18220897D01*
X61146724Y-18601293D01*
X61057471Y-19050000D01*
X61146724Y-19498707D01*
X61400897Y-19879103D01*
X61499519Y-19945000D01*
X60420481Y-19945000D01*
X60519103Y-19879103D01*
X60773276Y-19498707D01*
X60862529Y-19050000D01*
X60773276Y-18601293D01*
X60519103Y-18220897D01*
X60138707Y-17966724D01*
X59803261Y-17900000D01*
X59576739Y-17900000D01*
X59241293Y-17966724D01*
X58860897Y-18220897D01*
X58606724Y-18601293D01*
X58517471Y-19050000D01*
X58606724Y-19498707D01*
X58860897Y-19879103D01*
X58959519Y-19945000D01*
X57880481Y-19945000D01*
X57979103Y-19879103D01*
X58233276Y-19498707D01*
X58322529Y-19050000D01*
X58233276Y-18601293D01*
X57979103Y-18220897D01*
X57598707Y-17966724D01*
X57263261Y-17900000D01*
X57036739Y-17900000D01*
X56701293Y-17966724D01*
X56320897Y-18220897D01*
X56066724Y-18601293D01*
X55977471Y-19050000D01*
X56066724Y-19498707D01*
X56320897Y-19879103D01*
X56419519Y-19945000D01*
X55340481Y-19945000D01*
X55439103Y-19879103D01*
X55693276Y-19498707D01*
X55782529Y-19050000D01*
X55693276Y-18601293D01*
X55439103Y-18220897D01*
X55058707Y-17966724D01*
X54723261Y-17900000D01*
X54496739Y-17900000D01*
X54161293Y-17966724D01*
X53780897Y-18220897D01*
X53526724Y-18601293D01*
X53437471Y-19050000D01*
X53526724Y-19498707D01*
X53780897Y-19879103D01*
X53879519Y-19945000D01*
X52800481Y-19945000D01*
X52899103Y-19879103D01*
X53153276Y-19498707D01*
X53242529Y-19050000D01*
X53153276Y-18601293D01*
X52899103Y-18220897D01*
X52518707Y-17966724D01*
X52183261Y-17900000D01*
X51956739Y-17900000D01*
X51621293Y-17966724D01*
X51240897Y-18220897D01*
X50986724Y-18601293D01*
X50897471Y-19050000D01*
X50986724Y-19498707D01*
X51240897Y-19879103D01*
X51339519Y-19945000D01*
X50260481Y-19945000D01*
X50359103Y-19879103D01*
X50613276Y-19498707D01*
X50702529Y-19050000D01*
X50613276Y-18601293D01*
X50359103Y-18220897D01*
X49978707Y-17966724D01*
X49643261Y-17900000D01*
X49416739Y-17900000D01*
X49081293Y-17966724D01*
X48700897Y-18220897D01*
X48446724Y-18601293D01*
X48357471Y-19050000D01*
X48446724Y-19498707D01*
X48700897Y-19879103D01*
X48799519Y-19945000D01*
X47720481Y-19945000D01*
X47819103Y-19879103D01*
X48073276Y-19498707D01*
X48162529Y-19050000D01*
X48073276Y-18601293D01*
X47819103Y-18220897D01*
X47438707Y-17966724D01*
X47103261Y-17900000D01*
X46876739Y-17900000D01*
X46541293Y-17966724D01*
X46160897Y-18220897D01*
X45906724Y-18601293D01*
X45817471Y-19050000D01*
X45906724Y-19498707D01*
X46160897Y-19879103D01*
X46259519Y-19945000D01*
X45180481Y-19945000D01*
X45279103Y-19879103D01*
X45533276Y-19498707D01*
X45622529Y-19050000D01*
X45533276Y-18601293D01*
X45279103Y-18220897D01*
X44898707Y-17966724D01*
X44563261Y-17900000D01*
X44336739Y-17900000D01*
X44001293Y-17966724D01*
X43620897Y-18220897D01*
X43366724Y-18601293D01*
X43277471Y-19050000D01*
X43366724Y-19498707D01*
X43620897Y-19879103D01*
X43719519Y-19945000D01*
X42640481Y-19945000D01*
X42739103Y-19879103D01*
X42993276Y-19498707D01*
X43082529Y-19050000D01*
X42993276Y-18601293D01*
X42739103Y-18220897D01*
X42358707Y-17966724D01*
X42023261Y-17900000D01*
X41796739Y-17900000D01*
X41461293Y-17966724D01*
X41080897Y-18220897D01*
X40826724Y-18601293D01*
X40737471Y-19050000D01*
X40826724Y-19498707D01*
X41080897Y-19879103D01*
X41179519Y-19945000D01*
X40100481Y-19945000D01*
X40199103Y-19879103D01*
X40453276Y-19498707D01*
X40542529Y-19050000D01*
X40453276Y-18601293D01*
X40199103Y-18220897D01*
X39818707Y-17966724D01*
X39483261Y-17900000D01*
X39256739Y-17900000D01*
X38921293Y-17966724D01*
X38540897Y-18220897D01*
X38286724Y-18601293D01*
X38197471Y-19050000D01*
X38286724Y-19498707D01*
X38540897Y-19879103D01*
X38639519Y-19945000D01*
X37560481Y-19945000D01*
X37659103Y-19879103D01*
X37913276Y-19498707D01*
X38002529Y-19050000D01*
X37913276Y-18601293D01*
X37659103Y-18220897D01*
X37278707Y-17966724D01*
X36943261Y-17900000D01*
X36716739Y-17900000D01*
X36381293Y-17966724D01*
X36000897Y-18220897D01*
X35746724Y-18601293D01*
X35657471Y-19050000D01*
X35746724Y-19498707D01*
X36000897Y-19879103D01*
X36099519Y-19945000D01*
X35020481Y-19945000D01*
X35119103Y-19879103D01*
X35373276Y-19498707D01*
X35462529Y-19050000D01*
X35373276Y-18601293D01*
X35119103Y-18220897D01*
X34738707Y-17966724D01*
X34403261Y-17900000D01*
X34176739Y-17900000D01*
X33841293Y-17966724D01*
X33460897Y-18220897D01*
X33206724Y-18601293D01*
X33117471Y-19050000D01*
X33206724Y-19498707D01*
X33460897Y-19879103D01*
X33559519Y-19945000D01*
X32480481Y-19945000D01*
X32579103Y-19879103D01*
X32833276Y-19498707D01*
X32922529Y-19050000D01*
X32833276Y-18601293D01*
X32579103Y-18220897D01*
X32198707Y-17966724D01*
X31863261Y-17900000D01*
X31636739Y-17900000D01*
X31301293Y-17966724D01*
X30920897Y-18220897D01*
X30666724Y-18601293D01*
X30577471Y-19050000D01*
X30666724Y-19498707D01*
X30920897Y-19879103D01*
X31019519Y-19945000D01*
X29940481Y-19945000D01*
X30039103Y-19879103D01*
X30293276Y-19498707D01*
X30382529Y-19050000D01*
X30293276Y-18601293D01*
X30039103Y-18220897D01*
X29658707Y-17966724D01*
X29323261Y-17900000D01*
X29096739Y-17900000D01*
X28761293Y-17966724D01*
X28380897Y-18220897D01*
X28126724Y-18601293D01*
X28037471Y-19050000D01*
X28126724Y-19498707D01*
X28380897Y-19879103D01*
X28479519Y-19945000D01*
X27400481Y-19945000D01*
X27499103Y-19879103D01*
X27753276Y-19498707D01*
X27842529Y-19050000D01*
X27753276Y-18601293D01*
X27499103Y-18220897D01*
X27118707Y-17966724D01*
X26783261Y-17900000D01*
X26556739Y-17900000D01*
X26221293Y-17966724D01*
X25840897Y-18220897D01*
X25586724Y-18601293D01*
X25497471Y-19050000D01*
X25586724Y-19498707D01*
X25840897Y-19879103D01*
X25939519Y-19945000D01*
X24860481Y-19945000D01*
X24959103Y-19879103D01*
X25213276Y-19498707D01*
X25302529Y-19050000D01*
X25213276Y-18601293D01*
X24959103Y-18220897D01*
X24578707Y-17966724D01*
X24243261Y-17900000D01*
X24016739Y-17900000D01*
X23681293Y-17966724D01*
X23300897Y-18220897D01*
X23046724Y-18601293D01*
X22957471Y-19050000D01*
X23046724Y-19498707D01*
X23300897Y-19879103D01*
X23399519Y-19945000D01*
X22320481Y-19945000D01*
X22419103Y-19879103D01*
X22673276Y-19498707D01*
X22762529Y-19050000D01*
X22673276Y-18601293D01*
X22419103Y-18220897D01*
X22038707Y-17966724D01*
X21703261Y-17900000D01*
X21476739Y-17900000D01*
X21141293Y-17966724D01*
X20760897Y-18220897D01*
X20506724Y-18601293D01*
X20417471Y-19050000D01*
X20506724Y-19498707D01*
X20760897Y-19879103D01*
X20859519Y-19945000D01*
X19780481Y-19945000D01*
X19879103Y-19879103D01*
X20133276Y-19498707D01*
X20222529Y-19050000D01*
X20133276Y-18601293D01*
X19879103Y-18220897D01*
X19498707Y-17966724D01*
X19163261Y-17900000D01*
X18936739Y-17900000D01*
X18601293Y-17966724D01*
X18220897Y-18220897D01*
X17966724Y-18601293D01*
X17877471Y-19050000D01*
X17966724Y-19498707D01*
X18220897Y-19879103D01*
X18319519Y-19945000D01*
X17240481Y-19945000D01*
X17339103Y-19879103D01*
X17593276Y-19498707D01*
X17682529Y-19050000D01*
X17593276Y-18601293D01*
X17339103Y-18220897D01*
X16958707Y-17966724D01*
X16623261Y-17900000D01*
X16396739Y-17900000D01*
X16061293Y-17966724D01*
X15680897Y-18220897D01*
X15426724Y-18601293D01*
X15337471Y-19050000D01*
X15426724Y-19498707D01*
X15680897Y-19879103D01*
X15779519Y-19945000D01*
X14700481Y-19945000D01*
X14799103Y-19879103D01*
X15053276Y-19498707D01*
X15142529Y-19050000D01*
X15053276Y-18601293D01*
X14799103Y-18220897D01*
X14418707Y-17966724D01*
X14083261Y-17900000D01*
X13856739Y-17900000D01*
X13521293Y-17966724D01*
X13140897Y-18220897D01*
X12886724Y-18601293D01*
X12797471Y-19050000D01*
X12886724Y-19498707D01*
X13140897Y-19879103D01*
X13239519Y-19945000D01*
X12160481Y-19945000D01*
X12259103Y-19879103D01*
X12513276Y-19498707D01*
X12602529Y-19050000D01*
X12513276Y-18601293D01*
X12259103Y-18220897D01*
X11878707Y-17966724D01*
X11543261Y-17900000D01*
X11316739Y-17900000D01*
X10981293Y-17966724D01*
X10600897Y-18220897D01*
X10346724Y-18601293D01*
X10257471Y-19050000D01*
X10346724Y-19498707D01*
X10600897Y-19879103D01*
X10699519Y-19945000D01*
X9620481Y-19945000D01*
X9719103Y-19879103D01*
X9973276Y-19498707D01*
X10062529Y-19050000D01*
X9973276Y-18601293D01*
X9719103Y-18220897D01*
X9338707Y-17966724D01*
X9003261Y-17900000D01*
X8776739Y-17900000D01*
X8441293Y-17966724D01*
X8060897Y-18220897D01*
X7806724Y-18601293D01*
X7717471Y-19050000D01*
X7806724Y-19498707D01*
X8060897Y-19879103D01*
X8159519Y-19945000D01*
X7080481Y-19945000D01*
X7179103Y-19879103D01*
X7433276Y-19498707D01*
X7522529Y-19050000D01*
X7433276Y-18601293D01*
X7179103Y-18220897D01*
X6798707Y-17966724D01*
X6463261Y-17900000D01*
X6236739Y-17900000D01*
X5901293Y-17966724D01*
X5520897Y-18220897D01*
X5266724Y-18601293D01*
X5177471Y-19050000D01*
X5266724Y-19498707D01*
X5520897Y-19879103D01*
X5619519Y-19945000D01*
X4540481Y-19945000D01*
X4639103Y-19879103D01*
X4893276Y-19498707D01*
X4982529Y-19050000D01*
X4893276Y-18601293D01*
X4639103Y-18220897D01*
X4258707Y-17966724D01*
X3923261Y-17900000D01*
X3696739Y-17900000D01*
X3361293Y-17966724D01*
X2980897Y-18220897D01*
X2726724Y-18601293D01*
X2637471Y-19050000D01*
X2726724Y-19498707D01*
X2980897Y-19879103D01*
X3079519Y-19945000D01*
X2520000Y-19945000D01*
X2520000Y-19200000D01*
X2420000Y-19100000D01*
X1320000Y-19100000D01*
X1320000Y-19120000D01*
X1220000Y-19120000D01*
X1220000Y-19100000D01*
X1200000Y-19100000D01*
X1200000Y-19000000D01*
X1220000Y-19000000D01*
X1220000Y-17900000D01*
X1320000Y-17900000D01*
X1320000Y-19000000D01*
X2420000Y-19000000D01*
X2520000Y-18900000D01*
X2520000Y-18120435D01*
X2459104Y-17973418D01*
X2346582Y-17860896D01*
X2199565Y-17800000D01*
X1420000Y-17800000D01*
X1320000Y-17900000D01*
X1220000Y-17900000D01*
X1120000Y-17800000D01*
X375000Y-17800000D01*
X375000Y-16434261D01*
X2094000Y-16434261D01*
X2094000Y-16712739D01*
X2200568Y-16970018D01*
X2397482Y-17166932D01*
X2654761Y-17273500D01*
X2786893Y-17273500D01*
X2879137Y-17365744D01*
X2907032Y-17407492D01*
X3072422Y-17518001D01*
X3218269Y-17547012D01*
X3218270Y-17547012D01*
X3267511Y-17556807D01*
X3316752Y-17547012D01*
X58532247Y-17547012D01*
X58581488Y-17556807D01*
X58630729Y-17547012D01*
X58630731Y-17547012D01*
X58776578Y-17518001D01*
X58941968Y-17407492D01*
X58969865Y-17365742D01*
X60183984Y-16151623D01*
X71028869Y-16151623D01*
X71064487Y-16282489D01*
X71265038Y-16617751D01*
X71578623Y-16850745D01*
X71957500Y-16946000D01*
X72307500Y-16946000D01*
X72307500Y-15996000D01*
X71108890Y-15996000D01*
X71028869Y-16151623D01*
X60183984Y-16151623D01*
X60614728Y-15720879D01*
X68953331Y-15720879D01*
X69024378Y-15902482D01*
X69438601Y-16071960D01*
X69886149Y-16070020D01*
X70290622Y-15902482D01*
X70354040Y-15740377D01*
X71028869Y-15740377D01*
X71108890Y-15896000D01*
X72307500Y-15896000D01*
X72307500Y-14946000D01*
X71957500Y-14946000D01*
X71578623Y-15041255D01*
X71265038Y-15274249D01*
X71064487Y-15609511D01*
X71028869Y-15740377D01*
X70354040Y-15740377D01*
X70361669Y-15720879D01*
X69657500Y-15016711D01*
X68953331Y-15720879D01*
X60614728Y-15720879D01*
X61507233Y-14828374D01*
X61548980Y-14800480D01*
X61659489Y-14635090D01*
X61688500Y-14489243D01*
X61688500Y-14489242D01*
X61698295Y-14440000D01*
X61688500Y-14390757D01*
X61688500Y-14015450D01*
X61781932Y-13922018D01*
X61888500Y-13664739D01*
X61888500Y-13386261D01*
X61781932Y-13128982D01*
X61585018Y-12932068D01*
X61327739Y-12825500D01*
X61049261Y-12825500D01*
X60791982Y-12932068D01*
X60595068Y-13128982D01*
X60488500Y-13386261D01*
X60488500Y-13664739D01*
X60595068Y-13922018D01*
X60688500Y-14015450D01*
X60688500Y-14232893D01*
X58374382Y-16547012D01*
X3494000Y-16547012D01*
X3494000Y-16434261D01*
X3387432Y-16176982D01*
X3190518Y-15980068D01*
X2933239Y-15873500D01*
X2654761Y-15873500D01*
X2397482Y-15980068D01*
X2200568Y-16176982D01*
X2094000Y-16434261D01*
X375000Y-16434261D01*
X375000Y-14214771D01*
X5124199Y-14214771D01*
X5310145Y-14663695D01*
X5654765Y-15008826D01*
X6105228Y-15195805D01*
X6300000Y-15119004D01*
X6300000Y-14020000D01*
X6400000Y-14020000D01*
X6400000Y-15119004D01*
X6594772Y-15195805D01*
X7045235Y-15008826D01*
X7389855Y-14663695D01*
X7575801Y-14214771D01*
X7498913Y-14020000D01*
X6400000Y-14020000D01*
X6300000Y-14020000D01*
X5201087Y-14020000D01*
X5124199Y-14214771D01*
X375000Y-14214771D01*
X375000Y-13725229D01*
X5124199Y-13725229D01*
X5201087Y-13920000D01*
X6300000Y-13920000D01*
X6300000Y-12820996D01*
X6105228Y-12744195D01*
X5654765Y-12931174D01*
X5310145Y-13276305D01*
X5124199Y-13725229D01*
X375000Y-13725229D01*
X375000Y-8890000D01*
X5177471Y-8890000D01*
X5266724Y-9338707D01*
X5520897Y-9719103D01*
X5901293Y-9973276D01*
X6236739Y-10040000D01*
X6463261Y-10040000D01*
X6798707Y-9973276D01*
X6860346Y-9932090D01*
X7752001Y-10823746D01*
X7752000Y-12300256D01*
X7392090Y-11940346D01*
X7433276Y-11878707D01*
X7522529Y-11430000D01*
X7433276Y-10981293D01*
X7179103Y-10600897D01*
X6798707Y-10346724D01*
X6463261Y-10280000D01*
X6236739Y-10280000D01*
X5901293Y-10346724D01*
X5520897Y-10600897D01*
X5266724Y-10981293D01*
X5177471Y-11430000D01*
X5266724Y-11878707D01*
X5520897Y-12259103D01*
X5901293Y-12513276D01*
X6236739Y-12580000D01*
X6463261Y-12580000D01*
X6798707Y-12513276D01*
X6860346Y-12472090D01*
X7371001Y-12982745D01*
X7371000Y-13234468D01*
X7367193Y-13253609D01*
X7045235Y-12931174D01*
X6594772Y-12744195D01*
X6400000Y-12820996D01*
X6400000Y-13920000D01*
X7498913Y-13920000D01*
X7575801Y-13725229D01*
X7509913Y-13566157D01*
X8647950Y-14704194D01*
X8668928Y-14735590D01*
X8784154Y-14812581D01*
X8793301Y-14818693D01*
X8940009Y-14847875D01*
X8977040Y-14840509D01*
X26601248Y-14840509D01*
X26357258Y-15084500D01*
X26169655Y-15084500D01*
X25949129Y-15175844D01*
X25780346Y-15344627D01*
X25689002Y-15565153D01*
X25689002Y-15803847D01*
X25780346Y-16024373D01*
X25949129Y-16193156D01*
X26169655Y-16284500D01*
X26408349Y-16284500D01*
X26628875Y-16193156D01*
X26797658Y-16024373D01*
X26882662Y-15819153D01*
X32166000Y-15819153D01*
X32166000Y-16057847D01*
X32257344Y-16278373D01*
X32426127Y-16447156D01*
X32646653Y-16538500D01*
X32885347Y-16538500D01*
X33105873Y-16447156D01*
X33114529Y-16438500D01*
X54243259Y-16438500D01*
X54292500Y-16448295D01*
X54341741Y-16438500D01*
X54341743Y-16438500D01*
X54487590Y-16409489D01*
X54652980Y-16298980D01*
X54680877Y-16257230D01*
X56912607Y-14025500D01*
X58501550Y-14025500D01*
X58594982Y-14118932D01*
X58852261Y-14225500D01*
X59130739Y-14225500D01*
X59388018Y-14118932D01*
X59584932Y-13922018D01*
X59691500Y-13664739D01*
X59691500Y-13386261D01*
X59584932Y-13128982D01*
X59388018Y-12932068D01*
X59130739Y-12825500D01*
X58852261Y-12825500D01*
X58594982Y-12932068D01*
X58501550Y-13025500D01*
X56754740Y-13025500D01*
X56705499Y-13015705D01*
X56656258Y-13025500D01*
X56656257Y-13025500D01*
X56510410Y-13054511D01*
X56345020Y-13165020D01*
X56317125Y-13206768D01*
X54085394Y-15438500D01*
X33114529Y-15438500D01*
X33105873Y-15429844D01*
X32885347Y-15338500D01*
X32646653Y-15338500D01*
X32426127Y-15429844D01*
X32257344Y-15598627D01*
X32166000Y-15819153D01*
X26882662Y-15819153D01*
X26889002Y-15803847D01*
X26889002Y-15616244D01*
X27333747Y-15171500D01*
X33828709Y-15171500D01*
X33865740Y-15178866D01*
X33902771Y-15171500D01*
X34012448Y-15149684D01*
X34136821Y-15066581D01*
X34157799Y-15035185D01*
X34173480Y-15019505D01*
X34204131Y-15050156D01*
X34424657Y-15141500D01*
X34663351Y-15141500D01*
X34883877Y-15050156D01*
X35052660Y-14881373D01*
X35144004Y-14660847D01*
X35144004Y-14422153D01*
X35052660Y-14201627D01*
X34883877Y-14032844D01*
X34663351Y-13941500D01*
X34424657Y-13941500D01*
X34204131Y-14032844D01*
X34068686Y-14168289D01*
X33973032Y-14187316D01*
X33848659Y-14270419D01*
X33827681Y-14301815D01*
X33709996Y-14419500D01*
X33546744Y-14419500D01*
X34602745Y-13363500D01*
X34790347Y-13363500D01*
X35010873Y-13272156D01*
X35179656Y-13103373D01*
X35271000Y-12882847D01*
X35271000Y-12644153D01*
X35179656Y-12423627D01*
X35010873Y-12254844D01*
X34790347Y-12163500D01*
X34551653Y-12163500D01*
X34331127Y-12254844D01*
X34162344Y-12423627D01*
X34088334Y-12602305D01*
X33994873Y-12508844D01*
X33774347Y-12417500D01*
X33535653Y-12417500D01*
X33315127Y-12508844D01*
X33146344Y-12677627D01*
X33055000Y-12898153D01*
X33055000Y-13085756D01*
X32356256Y-13784500D01*
X9236244Y-13784500D01*
X8504000Y-13052256D01*
X8504000Y-12237142D01*
X19524000Y-12237142D01*
X19524000Y-12654858D01*
X19683853Y-13040777D01*
X19979223Y-13336147D01*
X20365142Y-13496000D01*
X20782858Y-13496000D01*
X21168777Y-13336147D01*
X21464147Y-13040777D01*
X21554767Y-12822000D01*
X24283467Y-12822000D01*
X24320498Y-12829366D01*
X24357529Y-12822000D01*
X24362577Y-12820996D01*
X24373900Y-12818744D01*
X24467206Y-12800184D01*
X24591579Y-12717081D01*
X24612557Y-12685685D01*
X25141244Y-12156998D01*
X25328847Y-12156998D01*
X25549373Y-12065654D01*
X25718156Y-11896871D01*
X25809500Y-11676345D01*
X25809500Y-11628153D01*
X27784500Y-11628153D01*
X27784500Y-11866847D01*
X27875844Y-12087373D01*
X28044627Y-12256156D01*
X28265153Y-12347500D01*
X28503847Y-12347500D01*
X28724373Y-12256156D01*
X28893156Y-12087373D01*
X28984500Y-11866847D01*
X28984500Y-11854606D01*
X29417107Y-11422000D01*
X47466971Y-11422000D01*
X47475627Y-11430656D01*
X47696153Y-11522000D01*
X47934847Y-11522000D01*
X48155373Y-11430656D01*
X48324156Y-11261873D01*
X48415500Y-11041347D01*
X48415500Y-11029106D01*
X48721107Y-10723500D01*
X55453550Y-10723500D01*
X55483482Y-10753432D01*
X55740761Y-10860000D01*
X56019239Y-10860000D01*
X56276518Y-10753432D01*
X56473432Y-10556518D01*
X56580000Y-10299239D01*
X56580000Y-10020761D01*
X56473432Y-9763482D01*
X56276518Y-9566568D01*
X56019239Y-9460000D01*
X55740761Y-9460000D01*
X55483482Y-9566568D01*
X55326550Y-9723500D01*
X48563240Y-9723500D01*
X48513999Y-9713705D01*
X48464758Y-9723500D01*
X48464757Y-9723500D01*
X48318910Y-9752511D01*
X48153520Y-9863020D01*
X48125626Y-9904767D01*
X47708394Y-10322000D01*
X47696153Y-10322000D01*
X47475627Y-10413344D01*
X47466971Y-10422000D01*
X29259240Y-10422000D01*
X29209999Y-10412205D01*
X29160758Y-10422000D01*
X29160757Y-10422000D01*
X29014910Y-10451011D01*
X28849520Y-10561520D01*
X28821626Y-10603267D01*
X28277394Y-11147500D01*
X28265153Y-11147500D01*
X28044627Y-11238844D01*
X27875844Y-11407627D01*
X27784500Y-11628153D01*
X25809500Y-11628153D01*
X25809500Y-11437651D01*
X25718156Y-11217125D01*
X25549373Y-11048342D01*
X25328847Y-10956998D01*
X25090153Y-10956998D01*
X24869627Y-11048342D01*
X24700844Y-11217125D01*
X24609500Y-11437651D01*
X24609500Y-11625254D01*
X24164754Y-12070000D01*
X21554767Y-12070000D01*
X21464147Y-11851223D01*
X21168777Y-11555853D01*
X20782858Y-11396000D01*
X20365142Y-11396000D01*
X19979223Y-11555853D01*
X19683853Y-11851223D01*
X19524000Y-12237142D01*
X8504000Y-12237142D01*
X8504000Y-10705031D01*
X8511366Y-10668000D01*
X8482184Y-10521292D01*
X8420057Y-10428312D01*
X8399081Y-10396919D01*
X8367688Y-10375943D01*
X8037031Y-10045286D01*
X8040000Y-10045877D01*
X9740000Y-10045877D01*
X9857054Y-10022593D01*
X9956288Y-9956288D01*
X10022593Y-9857054D01*
X10045877Y-9740000D01*
X10045877Y-8329367D01*
X10694686Y-7680558D01*
X10705031Y-7678500D01*
X10814708Y-7656684D01*
X10939081Y-7573581D01*
X11022184Y-7449208D01*
X11051366Y-7302500D01*
X11044000Y-7265469D01*
X11044000Y-6124744D01*
X12474744Y-4694000D01*
X12692473Y-4694000D01*
X12598500Y-4920870D01*
X12598500Y-5239130D01*
X12720293Y-5533164D01*
X12945336Y-5758207D01*
X13239370Y-5880000D01*
X13557630Y-5880000D01*
X13634793Y-5848038D01*
X13793812Y-6007057D01*
X13793815Y-6007059D01*
X14312941Y-6526185D01*
X14333919Y-6557581D01*
X14458292Y-6640684D01*
X14604999Y-6669866D01*
X14642030Y-6662500D01*
X20011460Y-6662500D01*
X19979223Y-6675853D01*
X19683853Y-6971223D01*
X19524000Y-7357142D01*
X19524000Y-7774858D01*
X19683853Y-8160777D01*
X19979223Y-8456147D01*
X20365142Y-8616000D01*
X20782858Y-8616000D01*
X21168777Y-8456147D01*
X21464147Y-8160777D01*
X21554767Y-7942000D01*
X24936971Y-7942000D01*
X25060127Y-8065156D01*
X25280653Y-8156500D01*
X25519347Y-8156500D01*
X25739873Y-8065156D01*
X25908656Y-7896373D01*
X26000000Y-7675847D01*
X26000000Y-7437153D01*
X25921096Y-7246659D01*
X32928000Y-7246659D01*
X32928000Y-7485353D01*
X33019344Y-7705879D01*
X33188127Y-7874662D01*
X33408653Y-7966006D01*
X33647347Y-7966006D01*
X33867873Y-7874662D01*
X34000529Y-7742006D01*
X50191463Y-7742006D01*
X50228494Y-7749372D01*
X50265525Y-7742006D01*
X50375202Y-7720190D01*
X50499575Y-7637087D01*
X50520553Y-7605691D01*
X51520245Y-6606000D01*
X51707847Y-6606000D01*
X51928373Y-6514656D01*
X52097156Y-6345873D01*
X52188500Y-6125347D01*
X52188500Y-5886653D01*
X52097156Y-5666127D01*
X51928373Y-5497344D01*
X51707847Y-5406000D01*
X51469153Y-5406000D01*
X51248627Y-5497344D01*
X51146000Y-5599971D01*
X51146000Y-5532153D01*
X51054656Y-5311627D01*
X50885873Y-5142844D01*
X50665347Y-5051500D01*
X50426653Y-5051500D01*
X50206127Y-5142844D01*
X50037344Y-5311627D01*
X49946000Y-5532153D01*
X49946000Y-5719756D01*
X48993256Y-6672500D01*
X39524409Y-6672500D01*
X39434156Y-6454609D01*
X39265373Y-6285826D01*
X39044847Y-6194482D01*
X38806153Y-6194482D01*
X38585627Y-6285826D01*
X38416844Y-6454609D01*
X38325500Y-6675135D01*
X38325500Y-6913829D01*
X38357053Y-6990006D01*
X34000529Y-6990006D01*
X33867873Y-6857350D01*
X33647347Y-6766006D01*
X33408653Y-6766006D01*
X33188127Y-6857350D01*
X33019344Y-7026133D01*
X32928000Y-7246659D01*
X25921096Y-7246659D01*
X25908656Y-7216627D01*
X25739873Y-7047844D01*
X25519347Y-6956500D01*
X25280653Y-6956500D01*
X25060127Y-7047844D01*
X24917971Y-7190000D01*
X21554767Y-7190000D01*
X21464147Y-6971223D01*
X21168777Y-6675853D01*
X21136540Y-6662500D01*
X35268969Y-6662500D01*
X35306000Y-6669866D01*
X35343031Y-6662500D01*
X35452708Y-6640684D01*
X35577081Y-6557581D01*
X35598059Y-6526185D01*
X35936244Y-6188000D01*
X36123847Y-6188000D01*
X36344373Y-6096656D01*
X36513156Y-5927873D01*
X36604500Y-5707347D01*
X36604500Y-5468653D01*
X36513156Y-5248127D01*
X36344373Y-5079344D01*
X36123847Y-4988000D01*
X35885153Y-4988000D01*
X35664627Y-5079344D01*
X35570561Y-5173410D01*
X35570561Y-5057911D01*
X35525035Y-4948000D01*
X36674256Y-4948000D01*
X37119000Y-5392745D01*
X37119000Y-5580347D01*
X37210344Y-5800873D01*
X37379127Y-5969656D01*
X37599653Y-6061000D01*
X37838347Y-6061000D01*
X38058873Y-5969656D01*
X38227656Y-5800873D01*
X38319000Y-5580347D01*
X38319000Y-5341653D01*
X38227656Y-5121127D01*
X38058873Y-4952344D01*
X37838347Y-4861000D01*
X37650745Y-4861000D01*
X37122059Y-4332315D01*
X37101081Y-4300919D01*
X36976708Y-4217816D01*
X36867031Y-4196000D01*
X36830000Y-4188634D01*
X36792969Y-4196000D01*
X34517529Y-4196000D01*
X34480499Y-4188634D01*
X34443469Y-4196000D01*
X34333792Y-4217816D01*
X34209419Y-4300919D01*
X34188441Y-4332315D01*
X33218278Y-5302478D01*
X17391222Y-5302478D01*
X16167059Y-4078315D01*
X16146081Y-4046919D01*
X16021708Y-3963816D01*
X15912031Y-3942000D01*
X15875000Y-3934634D01*
X15837969Y-3942000D01*
X12356031Y-3942000D01*
X12319000Y-3934634D01*
X12281969Y-3942000D01*
X12172292Y-3963816D01*
X12047919Y-4046919D01*
X12026941Y-4078315D01*
X10428315Y-5676941D01*
X10396919Y-5697919D01*
X10348191Y-5770847D01*
X10313816Y-5822293D01*
X10284634Y-5969000D01*
X10292000Y-6006031D01*
X10292001Y-7016665D01*
X10269919Y-7031419D01*
X10248941Y-7062815D01*
X9577633Y-7734123D01*
X8040000Y-7734123D01*
X7922946Y-7757407D01*
X7823712Y-7823712D01*
X7757407Y-7922946D01*
X7734123Y-8040000D01*
X7734123Y-9740000D01*
X7734714Y-9742969D01*
X7392090Y-9400346D01*
X7433276Y-9338707D01*
X7522529Y-8890000D01*
X7433276Y-8441293D01*
X7179103Y-8060897D01*
X6798707Y-7806724D01*
X6463261Y-7740000D01*
X6236739Y-7740000D01*
X5901293Y-7806724D01*
X5520897Y-8060897D01*
X5266724Y-8441293D01*
X5177471Y-8890000D01*
X375000Y-8890000D01*
X375000Y-5500000D01*
X5194123Y-5500000D01*
X5194123Y-7200000D01*
X5217407Y-7317054D01*
X5283712Y-7416288D01*
X5382946Y-7482593D01*
X5500000Y-7505877D01*
X7200000Y-7505877D01*
X7317054Y-7482593D01*
X7416288Y-7416288D01*
X7482593Y-7317054D01*
X7505877Y-7200000D01*
X7505877Y-6850000D01*
X7840997Y-6850000D01*
X8060897Y-7179103D01*
X8441293Y-7433276D01*
X8776739Y-7500000D01*
X9003261Y-7500000D01*
X9338707Y-7433276D01*
X9719103Y-7179103D01*
X9973276Y-6798707D01*
X10062529Y-6350000D01*
X9973276Y-5901293D01*
X9719103Y-5520897D01*
X9338707Y-5266724D01*
X9003261Y-5200000D01*
X8776739Y-5200000D01*
X8441293Y-5266724D01*
X8060897Y-5520897D01*
X7840997Y-5850000D01*
X7557106Y-5850000D01*
X9605107Y-3802000D01*
X26272394Y-3802000D01*
X26614501Y-4144107D01*
X26614501Y-4159970D01*
X26605844Y-4168627D01*
X26514500Y-4389153D01*
X26514500Y-4627847D01*
X26605844Y-4848373D01*
X26774627Y-5017156D01*
X26995153Y-5108500D01*
X27233847Y-5108500D01*
X27454373Y-5017156D01*
X27623156Y-4848373D01*
X27714500Y-4627847D01*
X27714500Y-4389153D01*
X27681714Y-4310000D01*
X30907894Y-4310000D01*
X31384731Y-4786838D01*
X31384731Y-4798337D01*
X31476075Y-5018863D01*
X31644858Y-5187646D01*
X31865384Y-5278990D01*
X32104078Y-5278990D01*
X32324604Y-5187646D01*
X32493387Y-5018863D01*
X32584731Y-4798337D01*
X32584731Y-4786096D01*
X32963873Y-4406955D01*
X32963875Y-4406952D01*
X33822828Y-3548000D01*
X42450471Y-3548000D01*
X42459127Y-3556656D01*
X42679653Y-3648000D01*
X42691894Y-3648000D01*
X43045625Y-4001732D01*
X43073520Y-4043480D01*
X43238910Y-4153989D01*
X43325903Y-4171293D01*
X43434000Y-4192795D01*
X43483243Y-4183000D01*
X52815394Y-4183000D01*
X59047625Y-10415232D01*
X59075520Y-10456980D01*
X59203113Y-10542234D01*
X59240910Y-10567489D01*
X59436000Y-10606295D01*
X59459229Y-10601675D01*
X59547486Y-10689932D01*
X59804765Y-10796500D01*
X60083243Y-10796500D01*
X60340522Y-10689932D01*
X60537436Y-10493018D01*
X60644004Y-10235739D01*
X60644004Y-9957261D01*
X60537436Y-9699982D01*
X60340522Y-9503068D01*
X60083243Y-9396500D01*
X59804765Y-9396500D01*
X59549034Y-9502427D01*
X53410877Y-3364271D01*
X53382980Y-3322520D01*
X53217590Y-3212011D01*
X53071743Y-3183000D01*
X53071741Y-3183000D01*
X53022500Y-3173205D01*
X52973259Y-3183000D01*
X43641107Y-3183000D01*
X43399000Y-2940894D01*
X43399000Y-2928653D01*
X43307656Y-2708127D01*
X43138873Y-2539344D01*
X42918347Y-2448000D01*
X42679653Y-2448000D01*
X42459127Y-2539344D01*
X42450471Y-2548000D01*
X33664964Y-2548000D01*
X33615721Y-2538205D01*
X33566478Y-2548000D01*
X33420631Y-2577011D01*
X33255241Y-2687520D01*
X33227346Y-2729268D01*
X32256769Y-3699846D01*
X32256766Y-3699848D01*
X31984360Y-3972254D01*
X31503376Y-3491270D01*
X31475480Y-3449520D01*
X31310090Y-3339011D01*
X31164243Y-3310000D01*
X31164241Y-3310000D01*
X31115000Y-3300205D01*
X31065759Y-3310000D01*
X27290740Y-3310000D01*
X27241499Y-3300205D01*
X27194217Y-3309610D01*
X26867876Y-2983270D01*
X26839980Y-2941520D01*
X26674590Y-2831011D01*
X26528743Y-2802000D01*
X26528741Y-2802000D01*
X26479500Y-2792205D01*
X26430259Y-2802000D01*
X9447243Y-2802000D01*
X9398000Y-2792205D01*
X9202909Y-2831011D01*
X9133180Y-2877603D01*
X9037520Y-2941520D01*
X9009625Y-2983268D01*
X6798771Y-5194123D01*
X5500000Y-5194123D01*
X5382946Y-5217407D01*
X5283712Y-5283712D01*
X5217407Y-5382946D01*
X5194123Y-5500000D01*
X375000Y-5500000D01*
X375000Y-2520000D01*
X1120000Y-2520000D01*
X1220000Y-2420000D01*
X1220000Y-1320000D01*
X1320000Y-1320000D01*
X1320000Y-2420000D01*
X1420000Y-2520000D01*
X2199565Y-2520000D01*
X2346582Y-2459104D01*
X2459104Y-2346582D01*
X2520000Y-2199565D01*
X2520000Y-1420000D01*
X2420000Y-1320000D01*
X1320000Y-1320000D01*
X1220000Y-1320000D01*
X1200000Y-1320000D01*
X1200000Y-1220000D01*
X1220000Y-1220000D01*
X1220000Y-1200000D01*
X1320000Y-1200000D01*
X1320000Y-1220000D01*
X2420000Y-1220000D01*
X2520000Y-1120000D01*
X2520000Y-375000D01*
X3079519Y-375000D01*
X2980897Y-440897D01*
G04 #@! TD*
M02*
