G04 #@! TF.GenerationSoftware,KiCad,Pcbnew,(5.0.2)-1*
G04 #@! TF.CreationDate,2019-03-28T08:34:28+01:00*
G04 #@! TF.ProjectId,mibo48_xmc4,6d69626f-3438-45f7-986d-63342e6b6963,rev?*
G04 #@! TF.SameCoordinates,PX7a53eb0PY5ad6650*
G04 #@! TF.FileFunction,Copper,L2,Bot*
G04 #@! TF.FilePolarity,Positive*
%FSLAX46Y46*%
G04 Gerber Fmt 4.6, Leading zero omitted, Abs format (unit mm)*
G04 Created by KiCad (PCBNEW (5.0.2)-1) date 2019-03-28 08:34:28*
%MOMM*%
%LPD*%
G01*
G04 APERTURE LIST*
G04 #@! TA.AperFunction,ComponentPad*
%ADD10O,1.700000X1.700000*%
G04 #@! TD*
G04 #@! TA.AperFunction,ComponentPad*
%ADD11R,1.700000X1.700000*%
G04 #@! TD*
G04 #@! TA.AperFunction,ComponentPad*
%ADD12C,1.450000*%
G04 #@! TD*
G04 #@! TA.AperFunction,ComponentPad*
%ADD13O,1.900000X1.200000*%
G04 #@! TD*
G04 #@! TA.AperFunction,ComponentPad*
%ADD14C,1.500000*%
G04 #@! TD*
G04 #@! TA.AperFunction,ComponentPad*
%ADD15C,1.000000*%
G04 #@! TD*
G04 #@! TA.AperFunction,ViaPad*
%ADD16C,0.600000*%
G04 #@! TD*
G04 #@! TA.AperFunction,ViaPad*
%ADD17C,0.800000*%
G04 #@! TD*
G04 #@! TA.AperFunction,Conductor*
%ADD18C,0.152000*%
G04 #@! TD*
G04 #@! TA.AperFunction,Conductor*
%ADD19C,0.500000*%
G04 #@! TD*
G04 #@! TA.AperFunction,Conductor*
%ADD20C,0.400000*%
G04 #@! TD*
G04 #@! TA.AperFunction,Conductor*
%ADD21C,0.300000*%
G04 #@! TD*
G04 #@! TA.AperFunction,Conductor*
%ADD22C,0.200000*%
G04 #@! TD*
G04 APERTURE END LIST*
D10*
G04 #@! TO.P,J2,20*
G04 #@! TO.N,GND*
X54610000Y-19050000D03*
G04 #@! TO.P,J2,19*
G04 #@! TO.N,/5V*
X52070000Y-19050000D03*
G04 #@! TO.P,J2,18*
G04 #@! TO.N,/HIB_IO*
X49530000Y-19050000D03*
G04 #@! TO.P,J2,17*
G04 #@! TO.N,/P0.0*
X46990000Y-19050000D03*
G04 #@! TO.P,J2,16*
G04 #@! TO.N,/P0.1*
X44450000Y-19050000D03*
G04 #@! TO.P,J2,15*
G04 #@! TO.N,/P0.2*
X41910000Y-19050000D03*
G04 #@! TO.P,J2,14*
G04 #@! TO.N,/P0.3*
X39370000Y-19050000D03*
G04 #@! TO.P,J2,13*
G04 #@! TO.N,/P0.4*
X36830000Y-19050000D03*
G04 #@! TO.P,J2,12*
G04 #@! TO.N,/P0.5*
X34290000Y-19050000D03*
G04 #@! TO.P,J2,11*
G04 #@! TO.N,/P0.6*
X31750000Y-19050000D03*
G04 #@! TO.P,J2,10*
G04 #@! TO.N,/P0.7*
X29210000Y-19050000D03*
G04 #@! TO.P,J2,9*
G04 #@! TO.N,/P0.8*
X26670000Y-19050000D03*
G04 #@! TO.P,J2,8*
G04 #@! TO.N,/P1.1*
X24130000Y-19050000D03*
G04 #@! TO.P,J2,7*
G04 #@! TO.N,/P1.2*
X21590000Y-19050000D03*
G04 #@! TO.P,J2,6*
G04 #@! TO.N,/P1.3*
X19050000Y-19050000D03*
G04 #@! TO.P,J2,5*
G04 #@! TO.N,/P1.4*
X16510000Y-19050000D03*
G04 #@! TO.P,J2,4*
G04 #@! TO.N,/P1.5*
X13970000Y-19050000D03*
G04 #@! TO.P,J2,3*
G04 #@! TO.N,/RESET*
X11430000Y-19050000D03*
G04 #@! TO.P,J2,2*
G04 #@! TO.N,+3V3*
X8890000Y-19050000D03*
D11*
G04 #@! TO.P,J2,1*
G04 #@! TO.N,GND*
X6350000Y-19050000D03*
G04 #@! TD*
D12*
G04 #@! TO.P,J4,6*
G04 #@! TO.N,GND*
X51877500Y-14946000D03*
X51877500Y-9946000D03*
D13*
X54577500Y-15946000D03*
X54577500Y-8946000D03*
G04 #@! TD*
D11*
G04 #@! TO.P,J5,1*
G04 #@! TO.N,+3V3*
X3810000Y-6350000D03*
D10*
G04 #@! TO.P,J5,2*
G04 #@! TO.N,/SWDIO*
X3810000Y-8890000D03*
G04 #@! TO.P,J5,3*
G04 #@! TO.N,/SWDCLK*
X3810000Y-11430000D03*
G04 #@! TO.P,J5,4*
G04 #@! TO.N,GND*
X3810000Y-13970000D03*
G04 #@! TD*
D14*
G04 #@! TO.P,Y1,1*
G04 #@! TO.N,/OSC_IN*
X10668000Y-13081000D03*
G04 #@! TO.P,Y1,2*
G04 #@! TO.N,/OSC_OUT*
X15548000Y-13081000D03*
G04 #@! TD*
D15*
G04 #@! TO.P,Y2,1*
G04 #@! TO.N,/OSC32_IN*
X15748000Y-5143500D03*
G04 #@! TO.P,Y2,2*
G04 #@! TO.N,/OSC32_OUT*
X15748000Y-7043500D03*
G04 #@! TD*
D11*
G04 #@! TO.P,J3,1*
G04 #@! TO.N,GND*
X6350000Y-1270000D03*
D10*
G04 #@! TO.P,J3,2*
G04 #@! TO.N,/5V*
X8890000Y-1270000D03*
G04 #@! TO.P,J3,3*
G04 #@! TO.N,/P2.0*
X11430000Y-1270000D03*
G04 #@! TO.P,J3,4*
G04 #@! TO.N,/P2.1*
X13970000Y-1270000D03*
G04 #@! TO.P,J3,5*
G04 #@! TO.N,/P2.2*
X16510000Y-1270000D03*
G04 #@! TO.P,J3,6*
G04 #@! TO.N,/P2.3*
X19050000Y-1270000D03*
G04 #@! TO.P,J3,7*
G04 #@! TO.N,/P2.4*
X21590000Y-1270000D03*
G04 #@! TO.P,J3,8*
G04 #@! TO.N,/P2.5*
X24130000Y-1270000D03*
G04 #@! TO.P,J3,9*
G04 #@! TO.N,/P14.8*
X26670000Y-1270000D03*
G04 #@! TO.P,J3,10*
G04 #@! TO.N,/P14.9*
X29210000Y-1270000D03*
G04 #@! TO.P,J3,11*
G04 #@! TO.N,/VDDA*
X31750000Y-1270000D03*
G04 #@! TO.P,J3,12*
G04 #@! TO.N,/P14.0*
X34290000Y-1270000D03*
G04 #@! TO.P,J3,13*
G04 #@! TO.N,/P14.3*
X36830000Y-1270000D03*
G04 #@! TO.P,J3,14*
G04 #@! TO.N,/P14.4*
X39370000Y-1270000D03*
G04 #@! TO.P,J3,15*
G04 #@! TO.N,/P14.5*
X41910000Y-1270000D03*
G04 #@! TO.P,J3,16*
G04 #@! TO.N,/P14.6*
X44450000Y-1270000D03*
G04 #@! TO.P,J3,17*
G04 #@! TO.N,/P14.7*
X46990000Y-1270000D03*
G04 #@! TO.P,J3,18*
G04 #@! TO.N,/LED1*
X49530000Y-1270000D03*
G04 #@! TO.P,J3,19*
G04 #@! TO.N,+3V3*
X52070000Y-1270000D03*
G04 #@! TO.P,J3,20*
G04 #@! TO.N,GND*
X54610000Y-1270000D03*
G04 #@! TD*
D16*
G04 #@! TO.N,GND*
X27178000Y-8953500D03*
X28384500Y-10160000D03*
X27178000Y-11366500D03*
X25971500Y-10160000D03*
X27178000Y-6921500D03*
X27178000Y-13398500D03*
X50545994Y-7810500D03*
X48632841Y-7103841D03*
X38036500Y-5588000D03*
X30734000Y-7683500D03*
X33147000Y-5207000D03*
X21082000Y-5016500D03*
X16700500Y-8826500D03*
X19075500Y-5842000D03*
X20701000Y-7683500D03*
X34440663Y-13317990D03*
X22098000Y-14922500D03*
X30416500Y-10160000D03*
X23939500Y-10160000D03*
X25409261Y-5888889D03*
X35593333Y-11923712D03*
X43561000Y-15000000D03*
X45974000Y-15116000D03*
X44831000Y-15000000D03*
X48644000Y-8255000D03*
G04 #@! TO.N,/OSC_IN*
X13589000Y-8826500D03*
G04 #@! TO.N,/OSC_OUT*
X19812000Y-8826500D03*
G04 #@! TO.N,/RESET*
X20701000Y-8699500D03*
X19748500Y-10731500D03*
X41084500Y-8699500D03*
G04 #@! TO.N,+3V3*
X37465000Y-8826500D03*
X23495000Y-14097000D03*
X24320500Y-5016500D03*
X36385500Y-12700000D03*
X36385500Y-13335000D03*
X36385500Y-13970000D03*
X32131000Y-14478002D03*
X11747500Y-16192498D03*
X32067498Y-4318002D03*
D17*
G04 #@! TO.N,/5V*
X44069000Y-9144000D03*
X48260000Y-15811500D03*
D16*
G04 #@! TO.N,/LED1*
X23241000Y-16002000D03*
X35877500Y-9080500D03*
G04 #@! TO.N,/OSC32_OUT*
X31369000Y-12255506D03*
G04 #@! TO.N,/OSC32_IN*
X30685167Y-12616490D03*
G04 #@! TO.N,/HIB_IO*
X41719500Y-15430528D03*
X41973500Y-16827508D03*
G04 #@! TO.N,/1V2*
X31945498Y-13495002D03*
X22224974Y-7468335D03*
G04 #@! TD*
D18*
G04 #@! TO.N,/OSC_IN*
X13589000Y-10160000D02*
X10668000Y-13081000D01*
X13589000Y-8826500D02*
X13589000Y-10160000D01*
G04 #@! TO.N,/OSC_OUT*
X15557500Y-13081000D02*
X15548000Y-13081000D01*
X19812000Y-8826500D02*
X15557500Y-13081000D01*
G04 #@! TO.N,/RESET*
X20701000Y-8699500D02*
X19748500Y-9652000D01*
X19748500Y-9652000D02*
X19748500Y-10731500D01*
X41084500Y-14033500D02*
X41084500Y-8699500D01*
X37973000Y-17145000D02*
X41084500Y-14033500D01*
X11430000Y-19050000D02*
X13335000Y-17145000D01*
X13335000Y-17145000D02*
X37973000Y-17145000D01*
D19*
G04 #@! TO.N,+3V3*
X32131000Y-14478002D02*
X23876002Y-14478002D01*
X23876002Y-14478002D02*
X23495000Y-14097000D01*
X32131002Y-14478000D02*
X32131000Y-14478002D01*
X36385500Y-13970000D02*
X35877500Y-14478000D01*
X35877500Y-14478000D02*
X32131002Y-14478000D01*
X12171764Y-16192498D02*
X11747500Y-16192498D01*
X12997262Y-15367000D02*
X12171764Y-16192498D01*
X16637000Y-15367000D02*
X12997262Y-15367000D01*
X23495000Y-14097000D02*
X17907000Y-14097000D01*
X17907000Y-14097000D02*
X16637000Y-15367000D01*
X24320500Y-5016500D02*
X31369000Y-5016500D01*
X31369000Y-5016500D02*
X31767499Y-4618001D01*
X31767499Y-4618001D02*
X32067498Y-4318002D01*
X32067500Y-4318000D02*
X32067498Y-4318002D01*
X33380764Y-4318000D02*
X32067500Y-4318000D01*
X37465000Y-8826500D02*
X37465000Y-8402236D01*
X37465000Y-8402236D02*
X33380764Y-4318000D01*
D20*
G04 #@! TO.N,/5V*
X44069000Y-9144000D02*
X38036500Y-3111500D01*
X10731500Y-3111500D02*
X8890000Y-1270000D01*
X38036500Y-3111500D02*
X10731500Y-3111500D01*
X48260000Y-15811500D02*
X48260000Y-11493500D01*
X45910500Y-9144000D02*
X44069000Y-9144000D01*
X48260000Y-11493500D02*
X45910500Y-9144000D01*
D18*
G04 #@! TO.N,/LED1*
X37084000Y-16002000D02*
X37655500Y-15430500D01*
X23241000Y-16002000D02*
X37084000Y-16002000D01*
X36177499Y-9380499D02*
X35877500Y-9080500D01*
X37655500Y-10858500D02*
X36177499Y-9380499D01*
X37655500Y-15430500D02*
X37655500Y-10858500D01*
G04 #@! TO.N,/OSC32_OUT*
X16314500Y-6477000D02*
X15748000Y-7043500D01*
X23939500Y-6477000D02*
X16314500Y-6477000D01*
X29418007Y-11955507D02*
X23939500Y-6477000D01*
X31369000Y-12255506D02*
X31069001Y-11955507D01*
X31069001Y-11955507D02*
X29418007Y-11955507D01*
G04 #@! TO.N,/OSC32_IN*
X15019999Y-5871501D02*
X15248001Y-5643499D01*
X15019999Y-7717499D02*
X15019999Y-5871501D01*
X15248001Y-5643499D02*
X15748000Y-5143500D01*
X29634490Y-12616490D02*
X23799011Y-6781011D01*
X30685167Y-12616490D02*
X29634490Y-12616490D01*
X23799011Y-6781011D02*
X17094989Y-6781011D01*
X17094989Y-6781011D02*
X16002000Y-7874000D01*
X16002000Y-7874000D02*
X15176500Y-7874000D01*
X15176500Y-7874000D02*
X15019999Y-7717499D01*
G04 #@! TO.N,/HIB_IO*
X41719500Y-16573508D02*
X41973500Y-16827508D01*
X41719500Y-15430528D02*
X41719500Y-16573508D01*
D21*
G04 #@! TO.N,/1V2*
X28536139Y-13779500D02*
X22224974Y-7468335D01*
X31945498Y-13495002D02*
X31661000Y-13779500D01*
X31661000Y-13779500D02*
X28536139Y-13779500D01*
G04 #@! TD*
D22*
G04 #@! TO.N,GND*
G36*
X5100000Y-1120000D02*
X5200000Y-1220000D01*
X6300000Y-1220000D01*
X6300000Y-1200000D01*
X6400000Y-1200000D01*
X6400000Y-1220000D01*
X7500000Y-1220000D01*
X7600000Y-1120000D01*
X7600000Y-375000D01*
X8159519Y-375000D01*
X8060897Y-440897D01*
X7806724Y-821293D01*
X7717471Y-1270000D01*
X7806724Y-1718707D01*
X8060897Y-2099103D01*
X8441293Y-2353276D01*
X8776739Y-2420000D01*
X9003261Y-2420000D01*
X9278204Y-2365311D01*
X10343125Y-3430232D01*
X10371020Y-3471980D01*
X10536410Y-3582489D01*
X10682257Y-3611500D01*
X10682258Y-3611500D01*
X10731499Y-3621295D01*
X10780740Y-3611500D01*
X37829394Y-3611500D01*
X43369000Y-9151107D01*
X43369000Y-9283239D01*
X43475568Y-9540518D01*
X43672482Y-9737432D01*
X43929761Y-9844000D01*
X44208239Y-9844000D01*
X44465518Y-9737432D01*
X44558950Y-9644000D01*
X45703394Y-9644000D01*
X47760001Y-11700608D01*
X47760000Y-15321550D01*
X47666568Y-15414982D01*
X47560000Y-15672261D01*
X47560000Y-15950739D01*
X47666568Y-16208018D01*
X47863482Y-16404932D01*
X48120761Y-16511500D01*
X48399239Y-16511500D01*
X48656518Y-16404932D01*
X48853432Y-16208018D01*
X48876791Y-16151623D01*
X53248869Y-16151623D01*
X53284487Y-16282489D01*
X53485038Y-16617751D01*
X53798623Y-16850745D01*
X54177500Y-16946000D01*
X54527500Y-16946000D01*
X54527500Y-15996000D01*
X53328890Y-15996000D01*
X53248869Y-16151623D01*
X48876791Y-16151623D01*
X48960000Y-15950739D01*
X48960000Y-15720879D01*
X51173331Y-15720879D01*
X51244378Y-15902482D01*
X51658601Y-16071960D01*
X52106149Y-16070020D01*
X52510622Y-15902482D01*
X52574040Y-15740377D01*
X53248869Y-15740377D01*
X53328890Y-15896000D01*
X54527500Y-15896000D01*
X54527500Y-14946000D01*
X54177500Y-14946000D01*
X53798623Y-15041255D01*
X53485038Y-15274249D01*
X53284487Y-15609511D01*
X53248869Y-15740377D01*
X52574040Y-15740377D01*
X52581669Y-15720879D01*
X51877500Y-15016711D01*
X51173331Y-15720879D01*
X48960000Y-15720879D01*
X48960000Y-15672261D01*
X48853432Y-15414982D01*
X48760000Y-15321550D01*
X48760000Y-14727101D01*
X50751540Y-14727101D01*
X50753480Y-15174649D01*
X50921018Y-15579122D01*
X51102621Y-15650169D01*
X51806789Y-14946000D01*
X51948211Y-14946000D01*
X52652379Y-15650169D01*
X52833982Y-15579122D01*
X53003460Y-15164899D01*
X53001520Y-14717351D01*
X52833982Y-14312878D01*
X52652379Y-14241831D01*
X51948211Y-14946000D01*
X51806789Y-14946000D01*
X51102621Y-14241831D01*
X50921018Y-14312878D01*
X50751540Y-14727101D01*
X48760000Y-14727101D01*
X48760000Y-14171121D01*
X51173331Y-14171121D01*
X51877500Y-14875289D01*
X52581669Y-14171121D01*
X52510622Y-13989518D01*
X52096399Y-13820040D01*
X51648851Y-13821980D01*
X51244378Y-13989518D01*
X51173331Y-14171121D01*
X48760000Y-14171121D01*
X48760000Y-11542743D01*
X48769795Y-11493500D01*
X48730989Y-11298410D01*
X48673709Y-11212684D01*
X48620480Y-11133020D01*
X48578732Y-11105125D01*
X48194486Y-10720879D01*
X51173331Y-10720879D01*
X51244378Y-10902482D01*
X51658601Y-11071960D01*
X52106149Y-11070020D01*
X52510622Y-10902482D01*
X52581669Y-10720879D01*
X51877500Y-10016711D01*
X51173331Y-10720879D01*
X48194486Y-10720879D01*
X47200708Y-9727101D01*
X50751540Y-9727101D01*
X50753480Y-10174649D01*
X50921018Y-10579122D01*
X51102621Y-10650169D01*
X51806789Y-9946000D01*
X51948211Y-9946000D01*
X52652379Y-10650169D01*
X52833982Y-10579122D01*
X53003460Y-10164899D01*
X53001520Y-9717351D01*
X52833982Y-9312878D01*
X52652379Y-9241831D01*
X51948211Y-9946000D01*
X51806789Y-9946000D01*
X51102621Y-9241831D01*
X50921018Y-9312878D01*
X50751540Y-9727101D01*
X47200708Y-9727101D01*
X46644728Y-9171121D01*
X51173331Y-9171121D01*
X51877500Y-9875289D01*
X52581669Y-9171121D01*
X52574041Y-9151623D01*
X53248869Y-9151623D01*
X53284487Y-9282489D01*
X53485038Y-9617751D01*
X53798623Y-9850745D01*
X54177500Y-9946000D01*
X54527500Y-9946000D01*
X54527500Y-8996000D01*
X53328890Y-8996000D01*
X53248869Y-9151623D01*
X52574041Y-9151623D01*
X52510622Y-8989518D01*
X52096399Y-8820040D01*
X51648851Y-8821980D01*
X51244378Y-8989518D01*
X51173331Y-9171121D01*
X46644728Y-9171121D01*
X46298877Y-8825270D01*
X46270980Y-8783520D01*
X46206412Y-8740377D01*
X53248869Y-8740377D01*
X53328890Y-8896000D01*
X54527500Y-8896000D01*
X54527500Y-7946000D01*
X54177500Y-7946000D01*
X53798623Y-8041255D01*
X53485038Y-8274249D01*
X53284487Y-8609511D01*
X53248869Y-8740377D01*
X46206412Y-8740377D01*
X46105590Y-8673011D01*
X45959743Y-8644000D01*
X45959741Y-8644000D01*
X45910500Y-8634205D01*
X45861259Y-8644000D01*
X44558950Y-8644000D01*
X44465518Y-8550568D01*
X44208239Y-8444000D01*
X44076107Y-8444000D01*
X38424877Y-2792771D01*
X38396980Y-2751020D01*
X38231590Y-2640511D01*
X38085743Y-2611500D01*
X38085741Y-2611500D01*
X38036500Y-2601705D01*
X37987259Y-2611500D01*
X10938607Y-2611500D01*
X9985311Y-1658204D01*
X10062529Y-1270000D01*
X9973276Y-821293D01*
X9719103Y-440897D01*
X9620481Y-375000D01*
X10699519Y-375000D01*
X10600897Y-440897D01*
X10346724Y-821293D01*
X10257471Y-1270000D01*
X10346724Y-1718707D01*
X10600897Y-2099103D01*
X10981293Y-2353276D01*
X11316739Y-2420000D01*
X11543261Y-2420000D01*
X11878707Y-2353276D01*
X12259103Y-2099103D01*
X12513276Y-1718707D01*
X12602529Y-1270000D01*
X12513276Y-821293D01*
X12259103Y-440897D01*
X12160481Y-375000D01*
X13239519Y-375000D01*
X13140897Y-440897D01*
X12886724Y-821293D01*
X12797471Y-1270000D01*
X12886724Y-1718707D01*
X13140897Y-2099103D01*
X13521293Y-2353276D01*
X13856739Y-2420000D01*
X14083261Y-2420000D01*
X14418707Y-2353276D01*
X14799103Y-2099103D01*
X15053276Y-1718707D01*
X15142529Y-1270000D01*
X15053276Y-821293D01*
X14799103Y-440897D01*
X14700481Y-375000D01*
X15779519Y-375000D01*
X15680897Y-440897D01*
X15426724Y-821293D01*
X15337471Y-1270000D01*
X15426724Y-1718707D01*
X15680897Y-2099103D01*
X16061293Y-2353276D01*
X16396739Y-2420000D01*
X16623261Y-2420000D01*
X16958707Y-2353276D01*
X17339103Y-2099103D01*
X17593276Y-1718707D01*
X17682529Y-1270000D01*
X17593276Y-821293D01*
X17339103Y-440897D01*
X17240481Y-375000D01*
X18319519Y-375000D01*
X18220897Y-440897D01*
X17966724Y-821293D01*
X17877471Y-1270000D01*
X17966724Y-1718707D01*
X18220897Y-2099103D01*
X18601293Y-2353276D01*
X18936739Y-2420000D01*
X19163261Y-2420000D01*
X19498707Y-2353276D01*
X19879103Y-2099103D01*
X20133276Y-1718707D01*
X20222529Y-1270000D01*
X20133276Y-821293D01*
X19879103Y-440897D01*
X19780481Y-375000D01*
X20859519Y-375000D01*
X20760897Y-440897D01*
X20506724Y-821293D01*
X20417471Y-1270000D01*
X20506724Y-1718707D01*
X20760897Y-2099103D01*
X21141293Y-2353276D01*
X21476739Y-2420000D01*
X21703261Y-2420000D01*
X22038707Y-2353276D01*
X22419103Y-2099103D01*
X22673276Y-1718707D01*
X22762529Y-1270000D01*
X22673276Y-821293D01*
X22419103Y-440897D01*
X22320481Y-375000D01*
X23399519Y-375000D01*
X23300897Y-440897D01*
X23046724Y-821293D01*
X22957471Y-1270000D01*
X23046724Y-1718707D01*
X23300897Y-2099103D01*
X23681293Y-2353276D01*
X24016739Y-2420000D01*
X24243261Y-2420000D01*
X24578707Y-2353276D01*
X24959103Y-2099103D01*
X25213276Y-1718707D01*
X25302529Y-1270000D01*
X25213276Y-821293D01*
X24959103Y-440897D01*
X24860481Y-375000D01*
X25939519Y-375000D01*
X25840897Y-440897D01*
X25586724Y-821293D01*
X25497471Y-1270000D01*
X25586724Y-1718707D01*
X25840897Y-2099103D01*
X26221293Y-2353276D01*
X26556739Y-2420000D01*
X26783261Y-2420000D01*
X27118707Y-2353276D01*
X27499103Y-2099103D01*
X27753276Y-1718707D01*
X27842529Y-1270000D01*
X27753276Y-821293D01*
X27499103Y-440897D01*
X27400481Y-375000D01*
X28479519Y-375000D01*
X28380897Y-440897D01*
X28126724Y-821293D01*
X28037471Y-1270000D01*
X28126724Y-1718707D01*
X28380897Y-2099103D01*
X28761293Y-2353276D01*
X29096739Y-2420000D01*
X29323261Y-2420000D01*
X29658707Y-2353276D01*
X30039103Y-2099103D01*
X30293276Y-1718707D01*
X30382529Y-1270000D01*
X30293276Y-821293D01*
X30039103Y-440897D01*
X29940481Y-375000D01*
X31019519Y-375000D01*
X30920897Y-440897D01*
X30666724Y-821293D01*
X30577471Y-1270000D01*
X30666724Y-1718707D01*
X30920897Y-2099103D01*
X31301293Y-2353276D01*
X31636739Y-2420000D01*
X31863261Y-2420000D01*
X32198707Y-2353276D01*
X32579103Y-2099103D01*
X32833276Y-1718707D01*
X32922529Y-1270000D01*
X32833276Y-821293D01*
X32579103Y-440897D01*
X32480481Y-375000D01*
X33559519Y-375000D01*
X33460897Y-440897D01*
X33206724Y-821293D01*
X33117471Y-1270000D01*
X33206724Y-1718707D01*
X33460897Y-2099103D01*
X33841293Y-2353276D01*
X34176739Y-2420000D01*
X34403261Y-2420000D01*
X34738707Y-2353276D01*
X35119103Y-2099103D01*
X35373276Y-1718707D01*
X35462529Y-1270000D01*
X35373276Y-821293D01*
X35119103Y-440897D01*
X35020481Y-375000D01*
X36099519Y-375000D01*
X36000897Y-440897D01*
X35746724Y-821293D01*
X35657471Y-1270000D01*
X35746724Y-1718707D01*
X36000897Y-2099103D01*
X36381293Y-2353276D01*
X36716739Y-2420000D01*
X36943261Y-2420000D01*
X37278707Y-2353276D01*
X37659103Y-2099103D01*
X37913276Y-1718707D01*
X38002529Y-1270000D01*
X37913276Y-821293D01*
X37659103Y-440897D01*
X37560481Y-375000D01*
X38639519Y-375000D01*
X38540897Y-440897D01*
X38286724Y-821293D01*
X38197471Y-1270000D01*
X38286724Y-1718707D01*
X38540897Y-2099103D01*
X38921293Y-2353276D01*
X39256739Y-2420000D01*
X39483261Y-2420000D01*
X39818707Y-2353276D01*
X40199103Y-2099103D01*
X40453276Y-1718707D01*
X40542529Y-1270000D01*
X40453276Y-821293D01*
X40199103Y-440897D01*
X40100481Y-375000D01*
X41179519Y-375000D01*
X41080897Y-440897D01*
X40826724Y-821293D01*
X40737471Y-1270000D01*
X40826724Y-1718707D01*
X41080897Y-2099103D01*
X41461293Y-2353276D01*
X41796739Y-2420000D01*
X42023261Y-2420000D01*
X42358707Y-2353276D01*
X42739103Y-2099103D01*
X42993276Y-1718707D01*
X43082529Y-1270000D01*
X42993276Y-821293D01*
X42739103Y-440897D01*
X42640481Y-375000D01*
X43719519Y-375000D01*
X43620897Y-440897D01*
X43366724Y-821293D01*
X43277471Y-1270000D01*
X43366724Y-1718707D01*
X43620897Y-2099103D01*
X44001293Y-2353276D01*
X44336739Y-2420000D01*
X44563261Y-2420000D01*
X44898707Y-2353276D01*
X45279103Y-2099103D01*
X45533276Y-1718707D01*
X45622529Y-1270000D01*
X45533276Y-821293D01*
X45279103Y-440897D01*
X45180481Y-375000D01*
X46259519Y-375000D01*
X46160897Y-440897D01*
X45906724Y-821293D01*
X45817471Y-1270000D01*
X45906724Y-1718707D01*
X46160897Y-2099103D01*
X46541293Y-2353276D01*
X46876739Y-2420000D01*
X47103261Y-2420000D01*
X47438707Y-2353276D01*
X47819103Y-2099103D01*
X48073276Y-1718707D01*
X48162529Y-1270000D01*
X48073276Y-821293D01*
X47819103Y-440897D01*
X47720481Y-375000D01*
X48799519Y-375000D01*
X48700897Y-440897D01*
X48446724Y-821293D01*
X48357471Y-1270000D01*
X48446724Y-1718707D01*
X48700897Y-2099103D01*
X49081293Y-2353276D01*
X49416739Y-2420000D01*
X49643261Y-2420000D01*
X49978707Y-2353276D01*
X50359103Y-2099103D01*
X50613276Y-1718707D01*
X50702529Y-1270000D01*
X50613276Y-821293D01*
X50359103Y-440897D01*
X50260481Y-375000D01*
X51339519Y-375000D01*
X51240897Y-440897D01*
X50986724Y-821293D01*
X50897471Y-1270000D01*
X50986724Y-1718707D01*
X51240897Y-2099103D01*
X51621293Y-2353276D01*
X51956739Y-2420000D01*
X52183261Y-2420000D01*
X52518707Y-2353276D01*
X52899103Y-2099103D01*
X53153276Y-1718707D01*
X53193841Y-1514772D01*
X53384195Y-1514772D01*
X53571174Y-1965235D01*
X53916305Y-2309855D01*
X54365229Y-2495801D01*
X54560000Y-2418913D01*
X54560000Y-1320000D01*
X53460996Y-1320000D01*
X53384195Y-1514772D01*
X53193841Y-1514772D01*
X53242529Y-1270000D01*
X53153276Y-821293D01*
X52899103Y-440897D01*
X52800481Y-375000D01*
X53771235Y-375000D01*
X53571174Y-574765D01*
X53384195Y-1025228D01*
X53460996Y-1220000D01*
X54560000Y-1220000D01*
X54560000Y-1200000D01*
X54660000Y-1200000D01*
X54660000Y-1220000D01*
X54680000Y-1220000D01*
X54680000Y-1320000D01*
X54660000Y-1320000D01*
X54660000Y-2418913D01*
X54854771Y-2495801D01*
X55303695Y-2309855D01*
X55505000Y-2108848D01*
X55505000Y-8151682D01*
X55356377Y-8041255D01*
X54977500Y-7946000D01*
X54627500Y-7946000D01*
X54627500Y-8896000D01*
X54647500Y-8896000D01*
X54647500Y-8996000D01*
X54627500Y-8996000D01*
X54627500Y-9946000D01*
X54977500Y-9946000D01*
X55356377Y-9850745D01*
X55505000Y-9740318D01*
X55505001Y-15151683D01*
X55356377Y-15041255D01*
X54977500Y-14946000D01*
X54627500Y-14946000D01*
X54627500Y-15896000D01*
X54647500Y-15896000D01*
X54647500Y-15996000D01*
X54627500Y-15996000D01*
X54627500Y-16946000D01*
X54977500Y-16946000D01*
X55356377Y-16850745D01*
X55505001Y-16740317D01*
X55505001Y-18211153D01*
X55303695Y-18010145D01*
X54854771Y-17824199D01*
X54660000Y-17901087D01*
X54660000Y-19000000D01*
X54680000Y-19000000D01*
X54680000Y-19100000D01*
X54660000Y-19100000D01*
X54660000Y-19120000D01*
X54560000Y-19120000D01*
X54560000Y-19100000D01*
X53460996Y-19100000D01*
X53384195Y-19294772D01*
X53571174Y-19745235D01*
X53771235Y-19945000D01*
X52800481Y-19945000D01*
X52899103Y-19879103D01*
X53153276Y-19498707D01*
X53242529Y-19050000D01*
X53193842Y-18805228D01*
X53384195Y-18805228D01*
X53460996Y-19000000D01*
X54560000Y-19000000D01*
X54560000Y-17901087D01*
X54365229Y-17824199D01*
X53916305Y-18010145D01*
X53571174Y-18354765D01*
X53384195Y-18805228D01*
X53193842Y-18805228D01*
X53153276Y-18601293D01*
X52899103Y-18220897D01*
X52518707Y-17966724D01*
X52183261Y-17900000D01*
X51956739Y-17900000D01*
X51621293Y-17966724D01*
X51240897Y-18220897D01*
X50986724Y-18601293D01*
X50897471Y-19050000D01*
X50986724Y-19498707D01*
X51240897Y-19879103D01*
X51339519Y-19945000D01*
X50260481Y-19945000D01*
X50359103Y-19879103D01*
X50613276Y-19498707D01*
X50702529Y-19050000D01*
X50613276Y-18601293D01*
X50359103Y-18220897D01*
X49978707Y-17966724D01*
X49643261Y-17900000D01*
X49416739Y-17900000D01*
X49081293Y-17966724D01*
X48700897Y-18220897D01*
X48446724Y-18601293D01*
X48357471Y-19050000D01*
X48446724Y-19498707D01*
X48700897Y-19879103D01*
X48799519Y-19945000D01*
X47720481Y-19945000D01*
X47819103Y-19879103D01*
X48073276Y-19498707D01*
X48162529Y-19050000D01*
X48073276Y-18601293D01*
X47819103Y-18220897D01*
X47438707Y-17966724D01*
X47103261Y-17900000D01*
X46876739Y-17900000D01*
X46541293Y-17966724D01*
X46160897Y-18220897D01*
X45906724Y-18601293D01*
X45817471Y-19050000D01*
X45906724Y-19498707D01*
X46160897Y-19879103D01*
X46259519Y-19945000D01*
X45180481Y-19945000D01*
X45279103Y-19879103D01*
X45533276Y-19498707D01*
X45622529Y-19050000D01*
X45533276Y-18601293D01*
X45279103Y-18220897D01*
X44898707Y-17966724D01*
X44563261Y-17900000D01*
X44336739Y-17900000D01*
X44001293Y-17966724D01*
X43620897Y-18220897D01*
X43366724Y-18601293D01*
X43277471Y-19050000D01*
X43366724Y-19498707D01*
X43620897Y-19879103D01*
X43719519Y-19945000D01*
X42640481Y-19945000D01*
X42739103Y-19879103D01*
X42993276Y-19498707D01*
X43082529Y-19050000D01*
X42993276Y-18601293D01*
X42739103Y-18220897D01*
X42358707Y-17966724D01*
X42023261Y-17900000D01*
X41796739Y-17900000D01*
X41461293Y-17966724D01*
X41080897Y-18220897D01*
X40826724Y-18601293D01*
X40737471Y-19050000D01*
X40826724Y-19498707D01*
X41080897Y-19879103D01*
X41179519Y-19945000D01*
X40100481Y-19945000D01*
X40199103Y-19879103D01*
X40453276Y-19498707D01*
X40542529Y-19050000D01*
X40453276Y-18601293D01*
X40199103Y-18220897D01*
X39818707Y-17966724D01*
X39483261Y-17900000D01*
X39256739Y-17900000D01*
X38921293Y-17966724D01*
X38540897Y-18220897D01*
X38286724Y-18601293D01*
X38197471Y-19050000D01*
X38286724Y-19498707D01*
X38540897Y-19879103D01*
X38639519Y-19945000D01*
X37560481Y-19945000D01*
X37659103Y-19879103D01*
X37913276Y-19498707D01*
X38002529Y-19050000D01*
X37913276Y-18601293D01*
X37659103Y-18220897D01*
X37278707Y-17966724D01*
X36943261Y-17900000D01*
X36716739Y-17900000D01*
X36381293Y-17966724D01*
X36000897Y-18220897D01*
X35746724Y-18601293D01*
X35657471Y-19050000D01*
X35746724Y-19498707D01*
X36000897Y-19879103D01*
X36099519Y-19945000D01*
X35020481Y-19945000D01*
X35119103Y-19879103D01*
X35373276Y-19498707D01*
X35462529Y-19050000D01*
X35373276Y-18601293D01*
X35119103Y-18220897D01*
X34738707Y-17966724D01*
X34403261Y-17900000D01*
X34176739Y-17900000D01*
X33841293Y-17966724D01*
X33460897Y-18220897D01*
X33206724Y-18601293D01*
X33117471Y-19050000D01*
X33206724Y-19498707D01*
X33460897Y-19879103D01*
X33559519Y-19945000D01*
X32480481Y-19945000D01*
X32579103Y-19879103D01*
X32833276Y-19498707D01*
X32922529Y-19050000D01*
X32833276Y-18601293D01*
X32579103Y-18220897D01*
X32198707Y-17966724D01*
X31863261Y-17900000D01*
X31636739Y-17900000D01*
X31301293Y-17966724D01*
X30920897Y-18220897D01*
X30666724Y-18601293D01*
X30577471Y-19050000D01*
X30666724Y-19498707D01*
X30920897Y-19879103D01*
X31019519Y-19945000D01*
X29940481Y-19945000D01*
X30039103Y-19879103D01*
X30293276Y-19498707D01*
X30382529Y-19050000D01*
X30293276Y-18601293D01*
X30039103Y-18220897D01*
X29658707Y-17966724D01*
X29323261Y-17900000D01*
X29096739Y-17900000D01*
X28761293Y-17966724D01*
X28380897Y-18220897D01*
X28126724Y-18601293D01*
X28037471Y-19050000D01*
X28126724Y-19498707D01*
X28380897Y-19879103D01*
X28479519Y-19945000D01*
X27400481Y-19945000D01*
X27499103Y-19879103D01*
X27753276Y-19498707D01*
X27842529Y-19050000D01*
X27753276Y-18601293D01*
X27499103Y-18220897D01*
X27118707Y-17966724D01*
X26783261Y-17900000D01*
X26556739Y-17900000D01*
X26221293Y-17966724D01*
X25840897Y-18220897D01*
X25586724Y-18601293D01*
X25497471Y-19050000D01*
X25586724Y-19498707D01*
X25840897Y-19879103D01*
X25939519Y-19945000D01*
X24860481Y-19945000D01*
X24959103Y-19879103D01*
X25213276Y-19498707D01*
X25302529Y-19050000D01*
X25213276Y-18601293D01*
X24959103Y-18220897D01*
X24578707Y-17966724D01*
X24243261Y-17900000D01*
X24016739Y-17900000D01*
X23681293Y-17966724D01*
X23300897Y-18220897D01*
X23046724Y-18601293D01*
X22957471Y-19050000D01*
X23046724Y-19498707D01*
X23300897Y-19879103D01*
X23399519Y-19945000D01*
X22320481Y-19945000D01*
X22419103Y-19879103D01*
X22673276Y-19498707D01*
X22762529Y-19050000D01*
X22673276Y-18601293D01*
X22419103Y-18220897D01*
X22038707Y-17966724D01*
X21703261Y-17900000D01*
X21476739Y-17900000D01*
X21141293Y-17966724D01*
X20760897Y-18220897D01*
X20506724Y-18601293D01*
X20417471Y-19050000D01*
X20506724Y-19498707D01*
X20760897Y-19879103D01*
X20859519Y-19945000D01*
X19780481Y-19945000D01*
X19879103Y-19879103D01*
X20133276Y-19498707D01*
X20222529Y-19050000D01*
X20133276Y-18601293D01*
X19879103Y-18220897D01*
X19498707Y-17966724D01*
X19163261Y-17900000D01*
X18936739Y-17900000D01*
X18601293Y-17966724D01*
X18220897Y-18220897D01*
X17966724Y-18601293D01*
X17877471Y-19050000D01*
X17966724Y-19498707D01*
X18220897Y-19879103D01*
X18319519Y-19945000D01*
X17240481Y-19945000D01*
X17339103Y-19879103D01*
X17593276Y-19498707D01*
X17682529Y-19050000D01*
X17593276Y-18601293D01*
X17339103Y-18220897D01*
X16958707Y-17966724D01*
X16623261Y-17900000D01*
X16396739Y-17900000D01*
X16061293Y-17966724D01*
X15680897Y-18220897D01*
X15426724Y-18601293D01*
X15337471Y-19050000D01*
X15426724Y-19498707D01*
X15680897Y-19879103D01*
X15779519Y-19945000D01*
X14700481Y-19945000D01*
X14799103Y-19879103D01*
X15053276Y-19498707D01*
X15142529Y-19050000D01*
X15053276Y-18601293D01*
X14799103Y-18220897D01*
X14418707Y-17966724D01*
X14083261Y-17900000D01*
X13856739Y-17900000D01*
X13521293Y-17966724D01*
X13140897Y-18220897D01*
X12886724Y-18601293D01*
X12797471Y-19050000D01*
X12886724Y-19498707D01*
X13140897Y-19879103D01*
X13239519Y-19945000D01*
X12160481Y-19945000D01*
X12259103Y-19879103D01*
X12513276Y-19498707D01*
X12602529Y-19050000D01*
X12513276Y-18601293D01*
X12472090Y-18539654D01*
X13490745Y-17521000D01*
X37935969Y-17521000D01*
X37973000Y-17528366D01*
X38010031Y-17521000D01*
X38119708Y-17499184D01*
X38244081Y-17416081D01*
X38265059Y-17384685D01*
X40338563Y-15311181D01*
X41119500Y-15311181D01*
X41119500Y-15549875D01*
X41210844Y-15770401D01*
X41343500Y-15903057D01*
X41343501Y-16536472D01*
X41336134Y-16573508D01*
X41365316Y-16720215D01*
X41365317Y-16720216D01*
X41373500Y-16732463D01*
X41373500Y-16946855D01*
X41464844Y-17167381D01*
X41633627Y-17336164D01*
X41854153Y-17427508D01*
X42092847Y-17427508D01*
X42313373Y-17336164D01*
X42482156Y-17167381D01*
X42573500Y-16946855D01*
X42573500Y-16708161D01*
X42482156Y-16487635D01*
X42313373Y-16318852D01*
X42095500Y-16228607D01*
X42095500Y-15903057D01*
X42228156Y-15770401D01*
X42319500Y-15549875D01*
X42319500Y-15311181D01*
X42228156Y-15090655D01*
X42059373Y-14921872D01*
X41838847Y-14830528D01*
X41600153Y-14830528D01*
X41379627Y-14921872D01*
X41210844Y-15090655D01*
X41119500Y-15311181D01*
X40338563Y-15311181D01*
X41324185Y-14325559D01*
X41355581Y-14304581D01*
X41438684Y-14180208D01*
X41460500Y-14070531D01*
X41460500Y-14070530D01*
X41467866Y-14033501D01*
X41460500Y-13996471D01*
X41460500Y-9172029D01*
X41593156Y-9039373D01*
X41684500Y-8818847D01*
X41684500Y-8580153D01*
X41593156Y-8359627D01*
X41424373Y-8190844D01*
X41203847Y-8099500D01*
X40965153Y-8099500D01*
X40744627Y-8190844D01*
X40575844Y-8359627D01*
X40484500Y-8580153D01*
X40484500Y-8818847D01*
X40575844Y-9039373D01*
X40708501Y-9172030D01*
X40708500Y-13877756D01*
X37817256Y-16769000D01*
X13372031Y-16769000D01*
X13335000Y-16761634D01*
X13297969Y-16769000D01*
X13188292Y-16790816D01*
X13063919Y-16873919D01*
X13042943Y-16905312D01*
X11940346Y-18007910D01*
X11878707Y-17966724D01*
X11543261Y-17900000D01*
X11316739Y-17900000D01*
X10981293Y-17966724D01*
X10600897Y-18220897D01*
X10346724Y-18601293D01*
X10257471Y-19050000D01*
X10346724Y-19498707D01*
X10600897Y-19879103D01*
X10699519Y-19945000D01*
X9620481Y-19945000D01*
X9719103Y-19879103D01*
X9973276Y-19498707D01*
X10062529Y-19050000D01*
X9973276Y-18601293D01*
X9719103Y-18220897D01*
X9338707Y-17966724D01*
X9003261Y-17900000D01*
X8776739Y-17900000D01*
X8441293Y-17966724D01*
X8060897Y-18220897D01*
X7806724Y-18601293D01*
X7717471Y-19050000D01*
X7806724Y-19498707D01*
X8060897Y-19879103D01*
X8159519Y-19945000D01*
X7600000Y-19945000D01*
X7600000Y-19200000D01*
X7500000Y-19100000D01*
X6400000Y-19100000D01*
X6400000Y-19120000D01*
X6300000Y-19120000D01*
X6300000Y-19100000D01*
X5200000Y-19100000D01*
X5100000Y-19200000D01*
X5100000Y-19945000D01*
X375000Y-19945000D01*
X375000Y-18120435D01*
X5100000Y-18120435D01*
X5100000Y-18900000D01*
X5200000Y-19000000D01*
X6300000Y-19000000D01*
X6300000Y-17900000D01*
X6400000Y-17900000D01*
X6400000Y-19000000D01*
X7500000Y-19000000D01*
X7600000Y-18900000D01*
X7600000Y-18120435D01*
X7539104Y-17973418D01*
X7426582Y-17860896D01*
X7279565Y-17800000D01*
X6500000Y-17800000D01*
X6400000Y-17900000D01*
X6300000Y-17900000D01*
X6200000Y-17800000D01*
X5420435Y-17800000D01*
X5273418Y-17860896D01*
X5160896Y-17973418D01*
X5100000Y-18120435D01*
X375000Y-18120435D01*
X375000Y-16073151D01*
X11147500Y-16073151D01*
X11147500Y-16311845D01*
X11238844Y-16532371D01*
X11407627Y-16701154D01*
X11628153Y-16792498D01*
X11866847Y-16792498D01*
X11987559Y-16742498D01*
X12117595Y-16742498D01*
X12171764Y-16753273D01*
X12225933Y-16742498D01*
X12225934Y-16742498D01*
X12386363Y-16710587D01*
X12568292Y-16589026D01*
X12598980Y-16543098D01*
X13225080Y-15917000D01*
X16582831Y-15917000D01*
X16637000Y-15927775D01*
X16691169Y-15917000D01*
X16691170Y-15917000D01*
X16851599Y-15885089D01*
X16855244Y-15882653D01*
X22641000Y-15882653D01*
X22641000Y-16121347D01*
X22732344Y-16341873D01*
X22901127Y-16510656D01*
X23121653Y-16602000D01*
X23360347Y-16602000D01*
X23580873Y-16510656D01*
X23713529Y-16378000D01*
X37046969Y-16378000D01*
X37084000Y-16385366D01*
X37121031Y-16378000D01*
X37230708Y-16356184D01*
X37355081Y-16273081D01*
X37376059Y-16241685D01*
X37895185Y-15722559D01*
X37926581Y-15701581D01*
X38009684Y-15577208D01*
X38031500Y-15467531D01*
X38031500Y-15467530D01*
X38038866Y-15430501D01*
X38031500Y-15393470D01*
X38031500Y-10895530D01*
X38038866Y-10858499D01*
X38009684Y-10711792D01*
X37926581Y-10587419D01*
X37895185Y-10566441D01*
X36477500Y-9148756D01*
X36477500Y-8961153D01*
X36386156Y-8740627D01*
X36217373Y-8571844D01*
X35996847Y-8480500D01*
X35758153Y-8480500D01*
X35537627Y-8571844D01*
X35368844Y-8740627D01*
X35277500Y-8961153D01*
X35277500Y-9199847D01*
X35368844Y-9420373D01*
X35537627Y-9589156D01*
X35758153Y-9680500D01*
X35945756Y-9680500D01*
X37279501Y-11014245D01*
X37279500Y-15274756D01*
X36928256Y-15626000D01*
X23713529Y-15626000D01*
X23580873Y-15493344D01*
X23360347Y-15402000D01*
X23121653Y-15402000D01*
X22901127Y-15493344D01*
X22732344Y-15662127D01*
X22641000Y-15882653D01*
X16855244Y-15882653D01*
X17033528Y-15763528D01*
X17064216Y-15717600D01*
X18134817Y-14647000D01*
X23254941Y-14647000D01*
X23275840Y-14655657D01*
X23448787Y-14828604D01*
X23479474Y-14874530D01*
X23661403Y-14996091D01*
X23821832Y-15028002D01*
X23876001Y-15038777D01*
X23930170Y-15028002D01*
X31890941Y-15028002D01*
X32011653Y-15078002D01*
X32250347Y-15078002D01*
X32371064Y-15028000D01*
X35823331Y-15028000D01*
X35877500Y-15038775D01*
X35931669Y-15028000D01*
X35931670Y-15028000D01*
X36092099Y-14996089D01*
X36274028Y-14874528D01*
X36304716Y-14828601D01*
X36604661Y-14528656D01*
X36725373Y-14478656D01*
X36894156Y-14309873D01*
X36985500Y-14089347D01*
X36985500Y-13850653D01*
X36903423Y-13652500D01*
X36985500Y-13454347D01*
X36985500Y-13215653D01*
X36903423Y-13017500D01*
X36985500Y-12819347D01*
X36985500Y-12580653D01*
X36894156Y-12360127D01*
X36725373Y-12191344D01*
X36504847Y-12100000D01*
X36266153Y-12100000D01*
X36045627Y-12191344D01*
X35876844Y-12360127D01*
X35785500Y-12580653D01*
X35785500Y-12819347D01*
X35867577Y-13017500D01*
X35785500Y-13215653D01*
X35785500Y-13454347D01*
X35867577Y-13652500D01*
X35826844Y-13750839D01*
X35649683Y-13928000D01*
X32371054Y-13928000D01*
X32363965Y-13925064D01*
X32454154Y-13834875D01*
X32545498Y-13614349D01*
X32545498Y-13375655D01*
X32454154Y-13155129D01*
X32285371Y-12986346D01*
X32064845Y-12895002D01*
X31826151Y-12895002D01*
X31605625Y-12986346D01*
X31436842Y-13155129D01*
X31364616Y-13329500D01*
X28722535Y-13329500D01*
X22824974Y-7431940D01*
X22824974Y-7348988D01*
X22745455Y-7157011D01*
X23643267Y-7157011D01*
X29342431Y-12856175D01*
X29363409Y-12887571D01*
X29433334Y-12934293D01*
X29487782Y-12970674D01*
X29634490Y-12999856D01*
X29671521Y-12992490D01*
X30212638Y-12992490D01*
X30345294Y-13125146D01*
X30565820Y-13216490D01*
X30804514Y-13216490D01*
X31025040Y-13125146D01*
X31193823Y-12956363D01*
X31237657Y-12850537D01*
X31249653Y-12855506D01*
X31488347Y-12855506D01*
X31708873Y-12764162D01*
X31877656Y-12595379D01*
X31969000Y-12374853D01*
X31969000Y-12136159D01*
X31877656Y-11915633D01*
X31708873Y-11746850D01*
X31488347Y-11655506D01*
X31296800Y-11655506D01*
X31215709Y-11601323D01*
X31106032Y-11579507D01*
X31069001Y-11572141D01*
X31031970Y-11579507D01*
X29573752Y-11579507D01*
X24231559Y-6237315D01*
X24210581Y-6205919D01*
X24086208Y-6122816D01*
X23976531Y-6101000D01*
X23939500Y-6093634D01*
X23902469Y-6101000D01*
X16351531Y-6101000D01*
X16314500Y-6093634D01*
X16277469Y-6101000D01*
X16167792Y-6122816D01*
X16043419Y-6205919D01*
X16022443Y-6237312D01*
X15984293Y-6275462D01*
X15907130Y-6243500D01*
X15588870Y-6243500D01*
X15395999Y-6323390D01*
X15395999Y-6027245D01*
X15511706Y-5911538D01*
X15588870Y-5943500D01*
X15907130Y-5943500D01*
X16201164Y-5821707D01*
X16426207Y-5596664D01*
X16548000Y-5302630D01*
X16548000Y-4984370D01*
X16511874Y-4897153D01*
X23720500Y-4897153D01*
X23720500Y-5135847D01*
X23811844Y-5356373D01*
X23980627Y-5525156D01*
X24201153Y-5616500D01*
X24439847Y-5616500D01*
X24560559Y-5566500D01*
X31314831Y-5566500D01*
X31369000Y-5577275D01*
X31423169Y-5566500D01*
X31423170Y-5566500D01*
X31583599Y-5534589D01*
X31765528Y-5413028D01*
X31796216Y-5367100D01*
X32194711Y-4968606D01*
X32194713Y-4968603D01*
X32286657Y-4876659D01*
X32307562Y-4868000D01*
X33152948Y-4868000D01*
X36902226Y-8617279D01*
X36865000Y-8707153D01*
X36865000Y-8945847D01*
X36956344Y-9166373D01*
X37125127Y-9335156D01*
X37345653Y-9426500D01*
X37584347Y-9426500D01*
X37804873Y-9335156D01*
X37973656Y-9166373D01*
X38065000Y-8945847D01*
X38065000Y-8707153D01*
X38015000Y-8586441D01*
X38015000Y-8456405D01*
X38025775Y-8402236D01*
X38000317Y-8274249D01*
X37983089Y-8187637D01*
X37861528Y-8005708D01*
X37815603Y-7975022D01*
X33807980Y-3967400D01*
X33777292Y-3921472D01*
X33595363Y-3799911D01*
X33434934Y-3768000D01*
X33434933Y-3768000D01*
X33380764Y-3757225D01*
X33326595Y-3768000D01*
X32307552Y-3768000D01*
X32186845Y-3718002D01*
X31948151Y-3718002D01*
X31727625Y-3809346D01*
X31558842Y-3978129D01*
X31508841Y-4098843D01*
X31416897Y-4190787D01*
X31416894Y-4190789D01*
X31141184Y-4466500D01*
X24560559Y-4466500D01*
X24439847Y-4416500D01*
X24201153Y-4416500D01*
X23980627Y-4507844D01*
X23811844Y-4676627D01*
X23720500Y-4897153D01*
X16511874Y-4897153D01*
X16426207Y-4690336D01*
X16201164Y-4465293D01*
X15907130Y-4343500D01*
X15588870Y-4343500D01*
X15294836Y-4465293D01*
X15069793Y-4690336D01*
X14948000Y-4984370D01*
X14948000Y-5302630D01*
X14979962Y-5379794D01*
X14955942Y-5403814D01*
X14780313Y-5579444D01*
X14748919Y-5600420D01*
X14727943Y-5631813D01*
X14727942Y-5631814D01*
X14665815Y-5724794D01*
X14636633Y-5871501D01*
X14644000Y-5908537D01*
X14643999Y-7680468D01*
X14636633Y-7717499D01*
X14643999Y-7754529D01*
X14665815Y-7864206D01*
X14748918Y-7988580D01*
X14780314Y-8009558D01*
X14884441Y-8113685D01*
X14905419Y-8145081D01*
X15027272Y-8226500D01*
X15029792Y-8228184D01*
X15176500Y-8257366D01*
X15213531Y-8250000D01*
X15964969Y-8250000D01*
X16002000Y-8257366D01*
X16039031Y-8250000D01*
X16148708Y-8228184D01*
X16273081Y-8145081D01*
X16294059Y-8113685D01*
X17250734Y-7157011D01*
X21704493Y-7157011D01*
X21624974Y-7348988D01*
X21624974Y-7587682D01*
X21716318Y-7808208D01*
X21885101Y-7976991D01*
X22105627Y-8068335D01*
X22188579Y-8068335D01*
X28048245Y-13928002D01*
X24103819Y-13928002D01*
X24053657Y-13877840D01*
X24003656Y-13757127D01*
X23834873Y-13588344D01*
X23614347Y-13497000D01*
X23375653Y-13497000D01*
X23254941Y-13547000D01*
X17961168Y-13547000D01*
X17906999Y-13536225D01*
X17852830Y-13547000D01*
X17692401Y-13578911D01*
X17510472Y-13700472D01*
X17479786Y-13746397D01*
X16409184Y-14817000D01*
X13051426Y-14817000D01*
X12997261Y-14806226D01*
X12943096Y-14817000D01*
X12943092Y-14817000D01*
X12782663Y-14848911D01*
X12782662Y-14848912D01*
X12782661Y-14848912D01*
X12673469Y-14921872D01*
X12600734Y-14970472D01*
X12570049Y-15016395D01*
X11956721Y-15629725D01*
X11866847Y-15592498D01*
X11628153Y-15592498D01*
X11407627Y-15683842D01*
X11238844Y-15852625D01*
X11147500Y-16073151D01*
X375000Y-16073151D01*
X375000Y-14214771D01*
X2584199Y-14214771D01*
X2770145Y-14663695D01*
X3114765Y-15008826D01*
X3565228Y-15195805D01*
X3760000Y-15119004D01*
X3760000Y-14020000D01*
X3860000Y-14020000D01*
X3860000Y-15119004D01*
X4054772Y-15195805D01*
X4505235Y-15008826D01*
X4849855Y-14663695D01*
X5035801Y-14214771D01*
X4958913Y-14020000D01*
X3860000Y-14020000D01*
X3760000Y-14020000D01*
X2661087Y-14020000D01*
X2584199Y-14214771D01*
X375000Y-14214771D01*
X375000Y-13725229D01*
X2584199Y-13725229D01*
X2661087Y-13920000D01*
X3760000Y-13920000D01*
X3760000Y-12820996D01*
X3860000Y-12820996D01*
X3860000Y-13920000D01*
X4958913Y-13920000D01*
X5035801Y-13725229D01*
X4849855Y-13276305D01*
X4505235Y-12931174D01*
X4363018Y-12872142D01*
X9618000Y-12872142D01*
X9618000Y-13289858D01*
X9777853Y-13675777D01*
X10073223Y-13971147D01*
X10459142Y-14131000D01*
X10876858Y-14131000D01*
X11262777Y-13971147D01*
X11558147Y-13675777D01*
X11718000Y-13289858D01*
X11718000Y-12872142D01*
X14498000Y-12872142D01*
X14498000Y-13289858D01*
X14657853Y-13675777D01*
X14953223Y-13971147D01*
X15339142Y-14131000D01*
X15756858Y-14131000D01*
X16142777Y-13971147D01*
X16438147Y-13675777D01*
X16598000Y-13289858D01*
X16598000Y-12872142D01*
X16510162Y-12660082D01*
X19372500Y-9797744D01*
X19372501Y-10258970D01*
X19239844Y-10391627D01*
X19148500Y-10612153D01*
X19148500Y-10850847D01*
X19239844Y-11071373D01*
X19408627Y-11240156D01*
X19629153Y-11331500D01*
X19867847Y-11331500D01*
X20088373Y-11240156D01*
X20257156Y-11071373D01*
X20348500Y-10850847D01*
X20348500Y-10612153D01*
X20257156Y-10391627D01*
X20124500Y-10258971D01*
X20124500Y-9807744D01*
X20632744Y-9299500D01*
X20820347Y-9299500D01*
X21040873Y-9208156D01*
X21209656Y-9039373D01*
X21301000Y-8818847D01*
X21301000Y-8580153D01*
X21209656Y-8359627D01*
X21040873Y-8190844D01*
X20820347Y-8099500D01*
X20581653Y-8099500D01*
X20361127Y-8190844D01*
X20193000Y-8358971D01*
X20151873Y-8317844D01*
X19931347Y-8226500D01*
X19692653Y-8226500D01*
X19472127Y-8317844D01*
X19303344Y-8486627D01*
X19212000Y-8707153D01*
X19212000Y-8894756D01*
X15982353Y-12124403D01*
X15756858Y-12031000D01*
X15339142Y-12031000D01*
X14953223Y-12190853D01*
X14657853Y-12486223D01*
X14498000Y-12872142D01*
X11718000Y-12872142D01*
X11627379Y-12653365D01*
X13828688Y-10452057D01*
X13860081Y-10431081D01*
X13943184Y-10306708D01*
X13965000Y-10197031D01*
X13972366Y-10160000D01*
X13965000Y-10122969D01*
X13965000Y-9299029D01*
X14097656Y-9166373D01*
X14189000Y-8945847D01*
X14189000Y-8707153D01*
X14097656Y-8486627D01*
X13928873Y-8317844D01*
X13708347Y-8226500D01*
X13469653Y-8226500D01*
X13249127Y-8317844D01*
X13080344Y-8486627D01*
X12989000Y-8707153D01*
X12989000Y-8945847D01*
X13080344Y-9166373D01*
X13213000Y-9299029D01*
X13213001Y-10004254D01*
X11095635Y-12121621D01*
X10876858Y-12031000D01*
X10459142Y-12031000D01*
X10073223Y-12190853D01*
X9777853Y-12486223D01*
X9618000Y-12872142D01*
X4363018Y-12872142D01*
X4054772Y-12744195D01*
X3860000Y-12820996D01*
X3760000Y-12820996D01*
X3565228Y-12744195D01*
X3114765Y-12931174D01*
X2770145Y-13276305D01*
X2584199Y-13725229D01*
X375000Y-13725229D01*
X375000Y-11430000D01*
X2637471Y-11430000D01*
X2726724Y-11878707D01*
X2980897Y-12259103D01*
X3361293Y-12513276D01*
X3696739Y-12580000D01*
X3923261Y-12580000D01*
X4258707Y-12513276D01*
X4639103Y-12259103D01*
X4893276Y-11878707D01*
X4982529Y-11430000D01*
X4893276Y-10981293D01*
X4639103Y-10600897D01*
X4258707Y-10346724D01*
X3923261Y-10280000D01*
X3696739Y-10280000D01*
X3361293Y-10346724D01*
X2980897Y-10600897D01*
X2726724Y-10981293D01*
X2637471Y-11430000D01*
X375000Y-11430000D01*
X375000Y-8890000D01*
X2637471Y-8890000D01*
X2726724Y-9338707D01*
X2980897Y-9719103D01*
X3361293Y-9973276D01*
X3696739Y-10040000D01*
X3923261Y-10040000D01*
X4258707Y-9973276D01*
X4639103Y-9719103D01*
X4893276Y-9338707D01*
X4982529Y-8890000D01*
X4893276Y-8441293D01*
X4639103Y-8060897D01*
X4258707Y-7806724D01*
X3923261Y-7740000D01*
X3696739Y-7740000D01*
X3361293Y-7806724D01*
X2980897Y-8060897D01*
X2726724Y-8441293D01*
X2637471Y-8890000D01*
X375000Y-8890000D01*
X375000Y-5500000D01*
X2654123Y-5500000D01*
X2654123Y-7200000D01*
X2677407Y-7317054D01*
X2743712Y-7416288D01*
X2842946Y-7482593D01*
X2960000Y-7505877D01*
X4660000Y-7505877D01*
X4777054Y-7482593D01*
X4876288Y-7416288D01*
X4942593Y-7317054D01*
X4965877Y-7200000D01*
X4965877Y-5500000D01*
X4942593Y-5382946D01*
X4876288Y-5283712D01*
X4777054Y-5217407D01*
X4660000Y-5194123D01*
X2960000Y-5194123D01*
X2842946Y-5217407D01*
X2743712Y-5283712D01*
X2677407Y-5382946D01*
X2654123Y-5500000D01*
X375000Y-5500000D01*
X375000Y-1420000D01*
X5100000Y-1420000D01*
X5100000Y-2199565D01*
X5160896Y-2346582D01*
X5273418Y-2459104D01*
X5420435Y-2520000D01*
X6200000Y-2520000D01*
X6300000Y-2420000D01*
X6300000Y-1320000D01*
X6400000Y-1320000D01*
X6400000Y-2420000D01*
X6500000Y-2520000D01*
X7279565Y-2520000D01*
X7426582Y-2459104D01*
X7539104Y-2346582D01*
X7600000Y-2199565D01*
X7600000Y-1420000D01*
X7500000Y-1320000D01*
X6400000Y-1320000D01*
X6300000Y-1320000D01*
X5200000Y-1320000D01*
X5100000Y-1420000D01*
X375000Y-1420000D01*
X375000Y-375000D01*
X5100000Y-375000D01*
X5100000Y-1120000D01*
X5100000Y-1120000D01*
G37*
X5100000Y-1120000D02*
X5200000Y-1220000D01*
X6300000Y-1220000D01*
X6300000Y-1200000D01*
X6400000Y-1200000D01*
X6400000Y-1220000D01*
X7500000Y-1220000D01*
X7600000Y-1120000D01*
X7600000Y-375000D01*
X8159519Y-375000D01*
X8060897Y-440897D01*
X7806724Y-821293D01*
X7717471Y-1270000D01*
X7806724Y-1718707D01*
X8060897Y-2099103D01*
X8441293Y-2353276D01*
X8776739Y-2420000D01*
X9003261Y-2420000D01*
X9278204Y-2365311D01*
X10343125Y-3430232D01*
X10371020Y-3471980D01*
X10536410Y-3582489D01*
X10682257Y-3611500D01*
X10682258Y-3611500D01*
X10731499Y-3621295D01*
X10780740Y-3611500D01*
X37829394Y-3611500D01*
X43369000Y-9151107D01*
X43369000Y-9283239D01*
X43475568Y-9540518D01*
X43672482Y-9737432D01*
X43929761Y-9844000D01*
X44208239Y-9844000D01*
X44465518Y-9737432D01*
X44558950Y-9644000D01*
X45703394Y-9644000D01*
X47760001Y-11700608D01*
X47760000Y-15321550D01*
X47666568Y-15414982D01*
X47560000Y-15672261D01*
X47560000Y-15950739D01*
X47666568Y-16208018D01*
X47863482Y-16404932D01*
X48120761Y-16511500D01*
X48399239Y-16511500D01*
X48656518Y-16404932D01*
X48853432Y-16208018D01*
X48876791Y-16151623D01*
X53248869Y-16151623D01*
X53284487Y-16282489D01*
X53485038Y-16617751D01*
X53798623Y-16850745D01*
X54177500Y-16946000D01*
X54527500Y-16946000D01*
X54527500Y-15996000D01*
X53328890Y-15996000D01*
X53248869Y-16151623D01*
X48876791Y-16151623D01*
X48960000Y-15950739D01*
X48960000Y-15720879D01*
X51173331Y-15720879D01*
X51244378Y-15902482D01*
X51658601Y-16071960D01*
X52106149Y-16070020D01*
X52510622Y-15902482D01*
X52574040Y-15740377D01*
X53248869Y-15740377D01*
X53328890Y-15896000D01*
X54527500Y-15896000D01*
X54527500Y-14946000D01*
X54177500Y-14946000D01*
X53798623Y-15041255D01*
X53485038Y-15274249D01*
X53284487Y-15609511D01*
X53248869Y-15740377D01*
X52574040Y-15740377D01*
X52581669Y-15720879D01*
X51877500Y-15016711D01*
X51173331Y-15720879D01*
X48960000Y-15720879D01*
X48960000Y-15672261D01*
X48853432Y-15414982D01*
X48760000Y-15321550D01*
X48760000Y-14727101D01*
X50751540Y-14727101D01*
X50753480Y-15174649D01*
X50921018Y-15579122D01*
X51102621Y-15650169D01*
X51806789Y-14946000D01*
X51948211Y-14946000D01*
X52652379Y-15650169D01*
X52833982Y-15579122D01*
X53003460Y-15164899D01*
X53001520Y-14717351D01*
X52833982Y-14312878D01*
X52652379Y-14241831D01*
X51948211Y-14946000D01*
X51806789Y-14946000D01*
X51102621Y-14241831D01*
X50921018Y-14312878D01*
X50751540Y-14727101D01*
X48760000Y-14727101D01*
X48760000Y-14171121D01*
X51173331Y-14171121D01*
X51877500Y-14875289D01*
X52581669Y-14171121D01*
X52510622Y-13989518D01*
X52096399Y-13820040D01*
X51648851Y-13821980D01*
X51244378Y-13989518D01*
X51173331Y-14171121D01*
X48760000Y-14171121D01*
X48760000Y-11542743D01*
X48769795Y-11493500D01*
X48730989Y-11298410D01*
X48673709Y-11212684D01*
X48620480Y-11133020D01*
X48578732Y-11105125D01*
X48194486Y-10720879D01*
X51173331Y-10720879D01*
X51244378Y-10902482D01*
X51658601Y-11071960D01*
X52106149Y-11070020D01*
X52510622Y-10902482D01*
X52581669Y-10720879D01*
X51877500Y-10016711D01*
X51173331Y-10720879D01*
X48194486Y-10720879D01*
X47200708Y-9727101D01*
X50751540Y-9727101D01*
X50753480Y-10174649D01*
X50921018Y-10579122D01*
X51102621Y-10650169D01*
X51806789Y-9946000D01*
X51948211Y-9946000D01*
X52652379Y-10650169D01*
X52833982Y-10579122D01*
X53003460Y-10164899D01*
X53001520Y-9717351D01*
X52833982Y-9312878D01*
X52652379Y-9241831D01*
X51948211Y-9946000D01*
X51806789Y-9946000D01*
X51102621Y-9241831D01*
X50921018Y-9312878D01*
X50751540Y-9727101D01*
X47200708Y-9727101D01*
X46644728Y-9171121D01*
X51173331Y-9171121D01*
X51877500Y-9875289D01*
X52581669Y-9171121D01*
X52574041Y-9151623D01*
X53248869Y-9151623D01*
X53284487Y-9282489D01*
X53485038Y-9617751D01*
X53798623Y-9850745D01*
X54177500Y-9946000D01*
X54527500Y-9946000D01*
X54527500Y-8996000D01*
X53328890Y-8996000D01*
X53248869Y-9151623D01*
X52574041Y-9151623D01*
X52510622Y-8989518D01*
X52096399Y-8820040D01*
X51648851Y-8821980D01*
X51244378Y-8989518D01*
X51173331Y-9171121D01*
X46644728Y-9171121D01*
X46298877Y-8825270D01*
X46270980Y-8783520D01*
X46206412Y-8740377D01*
X53248869Y-8740377D01*
X53328890Y-8896000D01*
X54527500Y-8896000D01*
X54527500Y-7946000D01*
X54177500Y-7946000D01*
X53798623Y-8041255D01*
X53485038Y-8274249D01*
X53284487Y-8609511D01*
X53248869Y-8740377D01*
X46206412Y-8740377D01*
X46105590Y-8673011D01*
X45959743Y-8644000D01*
X45959741Y-8644000D01*
X45910500Y-8634205D01*
X45861259Y-8644000D01*
X44558950Y-8644000D01*
X44465518Y-8550568D01*
X44208239Y-8444000D01*
X44076107Y-8444000D01*
X38424877Y-2792771D01*
X38396980Y-2751020D01*
X38231590Y-2640511D01*
X38085743Y-2611500D01*
X38085741Y-2611500D01*
X38036500Y-2601705D01*
X37987259Y-2611500D01*
X10938607Y-2611500D01*
X9985311Y-1658204D01*
X10062529Y-1270000D01*
X9973276Y-821293D01*
X9719103Y-440897D01*
X9620481Y-375000D01*
X10699519Y-375000D01*
X10600897Y-440897D01*
X10346724Y-821293D01*
X10257471Y-1270000D01*
X10346724Y-1718707D01*
X10600897Y-2099103D01*
X10981293Y-2353276D01*
X11316739Y-2420000D01*
X11543261Y-2420000D01*
X11878707Y-2353276D01*
X12259103Y-2099103D01*
X12513276Y-1718707D01*
X12602529Y-1270000D01*
X12513276Y-821293D01*
X12259103Y-440897D01*
X12160481Y-375000D01*
X13239519Y-375000D01*
X13140897Y-440897D01*
X12886724Y-821293D01*
X12797471Y-1270000D01*
X12886724Y-1718707D01*
X13140897Y-2099103D01*
X13521293Y-2353276D01*
X13856739Y-2420000D01*
X14083261Y-2420000D01*
X14418707Y-2353276D01*
X14799103Y-2099103D01*
X15053276Y-1718707D01*
X15142529Y-1270000D01*
X15053276Y-821293D01*
X14799103Y-440897D01*
X14700481Y-375000D01*
X15779519Y-375000D01*
X15680897Y-440897D01*
X15426724Y-821293D01*
X15337471Y-1270000D01*
X15426724Y-1718707D01*
X15680897Y-2099103D01*
X16061293Y-2353276D01*
X16396739Y-2420000D01*
X16623261Y-2420000D01*
X16958707Y-2353276D01*
X17339103Y-2099103D01*
X17593276Y-1718707D01*
X17682529Y-1270000D01*
X17593276Y-821293D01*
X17339103Y-440897D01*
X17240481Y-375000D01*
X18319519Y-375000D01*
X18220897Y-440897D01*
X17966724Y-821293D01*
X17877471Y-1270000D01*
X17966724Y-1718707D01*
X18220897Y-2099103D01*
X18601293Y-2353276D01*
X18936739Y-2420000D01*
X19163261Y-2420000D01*
X19498707Y-2353276D01*
X19879103Y-2099103D01*
X20133276Y-1718707D01*
X20222529Y-1270000D01*
X20133276Y-821293D01*
X19879103Y-440897D01*
X19780481Y-375000D01*
X20859519Y-375000D01*
X20760897Y-440897D01*
X20506724Y-821293D01*
X20417471Y-1270000D01*
X20506724Y-1718707D01*
X20760897Y-2099103D01*
X21141293Y-2353276D01*
X21476739Y-2420000D01*
X21703261Y-2420000D01*
X22038707Y-2353276D01*
X22419103Y-2099103D01*
X22673276Y-1718707D01*
X22762529Y-1270000D01*
X22673276Y-821293D01*
X22419103Y-440897D01*
X22320481Y-375000D01*
X23399519Y-375000D01*
X23300897Y-440897D01*
X23046724Y-821293D01*
X22957471Y-1270000D01*
X23046724Y-1718707D01*
X23300897Y-2099103D01*
X23681293Y-2353276D01*
X24016739Y-2420000D01*
X24243261Y-2420000D01*
X24578707Y-2353276D01*
X24959103Y-2099103D01*
X25213276Y-1718707D01*
X25302529Y-1270000D01*
X25213276Y-821293D01*
X24959103Y-440897D01*
X24860481Y-375000D01*
X25939519Y-375000D01*
X25840897Y-440897D01*
X25586724Y-821293D01*
X25497471Y-1270000D01*
X25586724Y-1718707D01*
X25840897Y-2099103D01*
X26221293Y-2353276D01*
X26556739Y-2420000D01*
X26783261Y-2420000D01*
X27118707Y-2353276D01*
X27499103Y-2099103D01*
X27753276Y-1718707D01*
X27842529Y-1270000D01*
X27753276Y-821293D01*
X27499103Y-440897D01*
X27400481Y-375000D01*
X28479519Y-375000D01*
X28380897Y-440897D01*
X28126724Y-821293D01*
X28037471Y-1270000D01*
X28126724Y-1718707D01*
X28380897Y-2099103D01*
X28761293Y-2353276D01*
X29096739Y-2420000D01*
X29323261Y-2420000D01*
X29658707Y-2353276D01*
X30039103Y-2099103D01*
X30293276Y-1718707D01*
X30382529Y-1270000D01*
X30293276Y-821293D01*
X30039103Y-440897D01*
X29940481Y-375000D01*
X31019519Y-375000D01*
X30920897Y-440897D01*
X30666724Y-821293D01*
X30577471Y-1270000D01*
X30666724Y-1718707D01*
X30920897Y-2099103D01*
X31301293Y-2353276D01*
X31636739Y-2420000D01*
X31863261Y-2420000D01*
X32198707Y-2353276D01*
X32579103Y-2099103D01*
X32833276Y-1718707D01*
X32922529Y-1270000D01*
X32833276Y-821293D01*
X32579103Y-440897D01*
X32480481Y-375000D01*
X33559519Y-375000D01*
X33460897Y-440897D01*
X33206724Y-821293D01*
X33117471Y-1270000D01*
X33206724Y-1718707D01*
X33460897Y-2099103D01*
X33841293Y-2353276D01*
X34176739Y-2420000D01*
X34403261Y-2420000D01*
X34738707Y-2353276D01*
X35119103Y-2099103D01*
X35373276Y-1718707D01*
X35462529Y-1270000D01*
X35373276Y-821293D01*
X35119103Y-440897D01*
X35020481Y-375000D01*
X36099519Y-375000D01*
X36000897Y-440897D01*
X35746724Y-821293D01*
X35657471Y-1270000D01*
X35746724Y-1718707D01*
X36000897Y-2099103D01*
X36381293Y-2353276D01*
X36716739Y-2420000D01*
X36943261Y-2420000D01*
X37278707Y-2353276D01*
X37659103Y-2099103D01*
X37913276Y-1718707D01*
X38002529Y-1270000D01*
X37913276Y-821293D01*
X37659103Y-440897D01*
X37560481Y-375000D01*
X38639519Y-375000D01*
X38540897Y-440897D01*
X38286724Y-821293D01*
X38197471Y-1270000D01*
X38286724Y-1718707D01*
X38540897Y-2099103D01*
X38921293Y-2353276D01*
X39256739Y-2420000D01*
X39483261Y-2420000D01*
X39818707Y-2353276D01*
X40199103Y-2099103D01*
X40453276Y-1718707D01*
X40542529Y-1270000D01*
X40453276Y-821293D01*
X40199103Y-440897D01*
X40100481Y-375000D01*
X41179519Y-375000D01*
X41080897Y-440897D01*
X40826724Y-821293D01*
X40737471Y-1270000D01*
X40826724Y-1718707D01*
X41080897Y-2099103D01*
X41461293Y-2353276D01*
X41796739Y-2420000D01*
X42023261Y-2420000D01*
X42358707Y-2353276D01*
X42739103Y-2099103D01*
X42993276Y-1718707D01*
X43082529Y-1270000D01*
X42993276Y-821293D01*
X42739103Y-440897D01*
X42640481Y-375000D01*
X43719519Y-375000D01*
X43620897Y-440897D01*
X43366724Y-821293D01*
X43277471Y-1270000D01*
X43366724Y-1718707D01*
X43620897Y-2099103D01*
X44001293Y-2353276D01*
X44336739Y-2420000D01*
X44563261Y-2420000D01*
X44898707Y-2353276D01*
X45279103Y-2099103D01*
X45533276Y-1718707D01*
X45622529Y-1270000D01*
X45533276Y-821293D01*
X45279103Y-440897D01*
X45180481Y-375000D01*
X46259519Y-375000D01*
X46160897Y-440897D01*
X45906724Y-821293D01*
X45817471Y-1270000D01*
X45906724Y-1718707D01*
X46160897Y-2099103D01*
X46541293Y-2353276D01*
X46876739Y-2420000D01*
X47103261Y-2420000D01*
X47438707Y-2353276D01*
X47819103Y-2099103D01*
X48073276Y-1718707D01*
X48162529Y-1270000D01*
X48073276Y-821293D01*
X47819103Y-440897D01*
X47720481Y-375000D01*
X48799519Y-375000D01*
X48700897Y-440897D01*
X48446724Y-821293D01*
X48357471Y-1270000D01*
X48446724Y-1718707D01*
X48700897Y-2099103D01*
X49081293Y-2353276D01*
X49416739Y-2420000D01*
X49643261Y-2420000D01*
X49978707Y-2353276D01*
X50359103Y-2099103D01*
X50613276Y-1718707D01*
X50702529Y-1270000D01*
X50613276Y-821293D01*
X50359103Y-440897D01*
X50260481Y-375000D01*
X51339519Y-375000D01*
X51240897Y-440897D01*
X50986724Y-821293D01*
X50897471Y-1270000D01*
X50986724Y-1718707D01*
X51240897Y-2099103D01*
X51621293Y-2353276D01*
X51956739Y-2420000D01*
X52183261Y-2420000D01*
X52518707Y-2353276D01*
X52899103Y-2099103D01*
X53153276Y-1718707D01*
X53193841Y-1514772D01*
X53384195Y-1514772D01*
X53571174Y-1965235D01*
X53916305Y-2309855D01*
X54365229Y-2495801D01*
X54560000Y-2418913D01*
X54560000Y-1320000D01*
X53460996Y-1320000D01*
X53384195Y-1514772D01*
X53193841Y-1514772D01*
X53242529Y-1270000D01*
X53153276Y-821293D01*
X52899103Y-440897D01*
X52800481Y-375000D01*
X53771235Y-375000D01*
X53571174Y-574765D01*
X53384195Y-1025228D01*
X53460996Y-1220000D01*
X54560000Y-1220000D01*
X54560000Y-1200000D01*
X54660000Y-1200000D01*
X54660000Y-1220000D01*
X54680000Y-1220000D01*
X54680000Y-1320000D01*
X54660000Y-1320000D01*
X54660000Y-2418913D01*
X54854771Y-2495801D01*
X55303695Y-2309855D01*
X55505000Y-2108848D01*
X55505000Y-8151682D01*
X55356377Y-8041255D01*
X54977500Y-7946000D01*
X54627500Y-7946000D01*
X54627500Y-8896000D01*
X54647500Y-8896000D01*
X54647500Y-8996000D01*
X54627500Y-8996000D01*
X54627500Y-9946000D01*
X54977500Y-9946000D01*
X55356377Y-9850745D01*
X55505000Y-9740318D01*
X55505001Y-15151683D01*
X55356377Y-15041255D01*
X54977500Y-14946000D01*
X54627500Y-14946000D01*
X54627500Y-15896000D01*
X54647500Y-15896000D01*
X54647500Y-15996000D01*
X54627500Y-15996000D01*
X54627500Y-16946000D01*
X54977500Y-16946000D01*
X55356377Y-16850745D01*
X55505001Y-16740317D01*
X55505001Y-18211153D01*
X55303695Y-18010145D01*
X54854771Y-17824199D01*
X54660000Y-17901087D01*
X54660000Y-19000000D01*
X54680000Y-19000000D01*
X54680000Y-19100000D01*
X54660000Y-19100000D01*
X54660000Y-19120000D01*
X54560000Y-19120000D01*
X54560000Y-19100000D01*
X53460996Y-19100000D01*
X53384195Y-19294772D01*
X53571174Y-19745235D01*
X53771235Y-19945000D01*
X52800481Y-19945000D01*
X52899103Y-19879103D01*
X53153276Y-19498707D01*
X53242529Y-19050000D01*
X53193842Y-18805228D01*
X53384195Y-18805228D01*
X53460996Y-19000000D01*
X54560000Y-19000000D01*
X54560000Y-17901087D01*
X54365229Y-17824199D01*
X53916305Y-18010145D01*
X53571174Y-18354765D01*
X53384195Y-18805228D01*
X53193842Y-18805228D01*
X53153276Y-18601293D01*
X52899103Y-18220897D01*
X52518707Y-17966724D01*
X52183261Y-17900000D01*
X51956739Y-17900000D01*
X51621293Y-17966724D01*
X51240897Y-18220897D01*
X50986724Y-18601293D01*
X50897471Y-19050000D01*
X50986724Y-19498707D01*
X51240897Y-19879103D01*
X51339519Y-19945000D01*
X50260481Y-19945000D01*
X50359103Y-19879103D01*
X50613276Y-19498707D01*
X50702529Y-19050000D01*
X50613276Y-18601293D01*
X50359103Y-18220897D01*
X49978707Y-17966724D01*
X49643261Y-17900000D01*
X49416739Y-17900000D01*
X49081293Y-17966724D01*
X48700897Y-18220897D01*
X48446724Y-18601293D01*
X48357471Y-19050000D01*
X48446724Y-19498707D01*
X48700897Y-19879103D01*
X48799519Y-19945000D01*
X47720481Y-19945000D01*
X47819103Y-19879103D01*
X48073276Y-19498707D01*
X48162529Y-19050000D01*
X48073276Y-18601293D01*
X47819103Y-18220897D01*
X47438707Y-17966724D01*
X47103261Y-17900000D01*
X46876739Y-17900000D01*
X46541293Y-17966724D01*
X46160897Y-18220897D01*
X45906724Y-18601293D01*
X45817471Y-19050000D01*
X45906724Y-19498707D01*
X46160897Y-19879103D01*
X46259519Y-19945000D01*
X45180481Y-19945000D01*
X45279103Y-19879103D01*
X45533276Y-19498707D01*
X45622529Y-19050000D01*
X45533276Y-18601293D01*
X45279103Y-18220897D01*
X44898707Y-17966724D01*
X44563261Y-17900000D01*
X44336739Y-17900000D01*
X44001293Y-17966724D01*
X43620897Y-18220897D01*
X43366724Y-18601293D01*
X43277471Y-19050000D01*
X43366724Y-19498707D01*
X43620897Y-19879103D01*
X43719519Y-19945000D01*
X42640481Y-19945000D01*
X42739103Y-19879103D01*
X42993276Y-19498707D01*
X43082529Y-19050000D01*
X42993276Y-18601293D01*
X42739103Y-18220897D01*
X42358707Y-17966724D01*
X42023261Y-17900000D01*
X41796739Y-17900000D01*
X41461293Y-17966724D01*
X41080897Y-18220897D01*
X40826724Y-18601293D01*
X40737471Y-19050000D01*
X40826724Y-19498707D01*
X41080897Y-19879103D01*
X41179519Y-19945000D01*
X40100481Y-19945000D01*
X40199103Y-19879103D01*
X40453276Y-19498707D01*
X40542529Y-19050000D01*
X40453276Y-18601293D01*
X40199103Y-18220897D01*
X39818707Y-17966724D01*
X39483261Y-17900000D01*
X39256739Y-17900000D01*
X38921293Y-17966724D01*
X38540897Y-18220897D01*
X38286724Y-18601293D01*
X38197471Y-19050000D01*
X38286724Y-19498707D01*
X38540897Y-19879103D01*
X38639519Y-19945000D01*
X37560481Y-19945000D01*
X37659103Y-19879103D01*
X37913276Y-19498707D01*
X38002529Y-19050000D01*
X37913276Y-18601293D01*
X37659103Y-18220897D01*
X37278707Y-17966724D01*
X36943261Y-17900000D01*
X36716739Y-17900000D01*
X36381293Y-17966724D01*
X36000897Y-18220897D01*
X35746724Y-18601293D01*
X35657471Y-19050000D01*
X35746724Y-19498707D01*
X36000897Y-19879103D01*
X36099519Y-19945000D01*
X35020481Y-19945000D01*
X35119103Y-19879103D01*
X35373276Y-19498707D01*
X35462529Y-19050000D01*
X35373276Y-18601293D01*
X35119103Y-18220897D01*
X34738707Y-17966724D01*
X34403261Y-17900000D01*
X34176739Y-17900000D01*
X33841293Y-17966724D01*
X33460897Y-18220897D01*
X33206724Y-18601293D01*
X33117471Y-19050000D01*
X33206724Y-19498707D01*
X33460897Y-19879103D01*
X33559519Y-19945000D01*
X32480481Y-19945000D01*
X32579103Y-19879103D01*
X32833276Y-19498707D01*
X32922529Y-19050000D01*
X32833276Y-18601293D01*
X32579103Y-18220897D01*
X32198707Y-17966724D01*
X31863261Y-17900000D01*
X31636739Y-17900000D01*
X31301293Y-17966724D01*
X30920897Y-18220897D01*
X30666724Y-18601293D01*
X30577471Y-19050000D01*
X30666724Y-19498707D01*
X30920897Y-19879103D01*
X31019519Y-19945000D01*
X29940481Y-19945000D01*
X30039103Y-19879103D01*
X30293276Y-19498707D01*
X30382529Y-19050000D01*
X30293276Y-18601293D01*
X30039103Y-18220897D01*
X29658707Y-17966724D01*
X29323261Y-17900000D01*
X29096739Y-17900000D01*
X28761293Y-17966724D01*
X28380897Y-18220897D01*
X28126724Y-18601293D01*
X28037471Y-19050000D01*
X28126724Y-19498707D01*
X28380897Y-19879103D01*
X28479519Y-19945000D01*
X27400481Y-19945000D01*
X27499103Y-19879103D01*
X27753276Y-19498707D01*
X27842529Y-19050000D01*
X27753276Y-18601293D01*
X27499103Y-18220897D01*
X27118707Y-17966724D01*
X26783261Y-17900000D01*
X26556739Y-17900000D01*
X26221293Y-17966724D01*
X25840897Y-18220897D01*
X25586724Y-18601293D01*
X25497471Y-19050000D01*
X25586724Y-19498707D01*
X25840897Y-19879103D01*
X25939519Y-19945000D01*
X24860481Y-19945000D01*
X24959103Y-19879103D01*
X25213276Y-19498707D01*
X25302529Y-19050000D01*
X25213276Y-18601293D01*
X24959103Y-18220897D01*
X24578707Y-17966724D01*
X24243261Y-17900000D01*
X24016739Y-17900000D01*
X23681293Y-17966724D01*
X23300897Y-18220897D01*
X23046724Y-18601293D01*
X22957471Y-19050000D01*
X23046724Y-19498707D01*
X23300897Y-19879103D01*
X23399519Y-19945000D01*
X22320481Y-19945000D01*
X22419103Y-19879103D01*
X22673276Y-19498707D01*
X22762529Y-19050000D01*
X22673276Y-18601293D01*
X22419103Y-18220897D01*
X22038707Y-17966724D01*
X21703261Y-17900000D01*
X21476739Y-17900000D01*
X21141293Y-17966724D01*
X20760897Y-18220897D01*
X20506724Y-18601293D01*
X20417471Y-19050000D01*
X20506724Y-19498707D01*
X20760897Y-19879103D01*
X20859519Y-19945000D01*
X19780481Y-19945000D01*
X19879103Y-19879103D01*
X20133276Y-19498707D01*
X20222529Y-19050000D01*
X20133276Y-18601293D01*
X19879103Y-18220897D01*
X19498707Y-17966724D01*
X19163261Y-17900000D01*
X18936739Y-17900000D01*
X18601293Y-17966724D01*
X18220897Y-18220897D01*
X17966724Y-18601293D01*
X17877471Y-19050000D01*
X17966724Y-19498707D01*
X18220897Y-19879103D01*
X18319519Y-19945000D01*
X17240481Y-19945000D01*
X17339103Y-19879103D01*
X17593276Y-19498707D01*
X17682529Y-19050000D01*
X17593276Y-18601293D01*
X17339103Y-18220897D01*
X16958707Y-17966724D01*
X16623261Y-17900000D01*
X16396739Y-17900000D01*
X16061293Y-17966724D01*
X15680897Y-18220897D01*
X15426724Y-18601293D01*
X15337471Y-19050000D01*
X15426724Y-19498707D01*
X15680897Y-19879103D01*
X15779519Y-19945000D01*
X14700481Y-19945000D01*
X14799103Y-19879103D01*
X15053276Y-19498707D01*
X15142529Y-19050000D01*
X15053276Y-18601293D01*
X14799103Y-18220897D01*
X14418707Y-17966724D01*
X14083261Y-17900000D01*
X13856739Y-17900000D01*
X13521293Y-17966724D01*
X13140897Y-18220897D01*
X12886724Y-18601293D01*
X12797471Y-19050000D01*
X12886724Y-19498707D01*
X13140897Y-19879103D01*
X13239519Y-19945000D01*
X12160481Y-19945000D01*
X12259103Y-19879103D01*
X12513276Y-19498707D01*
X12602529Y-19050000D01*
X12513276Y-18601293D01*
X12472090Y-18539654D01*
X13490745Y-17521000D01*
X37935969Y-17521000D01*
X37973000Y-17528366D01*
X38010031Y-17521000D01*
X38119708Y-17499184D01*
X38244081Y-17416081D01*
X38265059Y-17384685D01*
X40338563Y-15311181D01*
X41119500Y-15311181D01*
X41119500Y-15549875D01*
X41210844Y-15770401D01*
X41343500Y-15903057D01*
X41343501Y-16536472D01*
X41336134Y-16573508D01*
X41365316Y-16720215D01*
X41365317Y-16720216D01*
X41373500Y-16732463D01*
X41373500Y-16946855D01*
X41464844Y-17167381D01*
X41633627Y-17336164D01*
X41854153Y-17427508D01*
X42092847Y-17427508D01*
X42313373Y-17336164D01*
X42482156Y-17167381D01*
X42573500Y-16946855D01*
X42573500Y-16708161D01*
X42482156Y-16487635D01*
X42313373Y-16318852D01*
X42095500Y-16228607D01*
X42095500Y-15903057D01*
X42228156Y-15770401D01*
X42319500Y-15549875D01*
X42319500Y-15311181D01*
X42228156Y-15090655D01*
X42059373Y-14921872D01*
X41838847Y-14830528D01*
X41600153Y-14830528D01*
X41379627Y-14921872D01*
X41210844Y-15090655D01*
X41119500Y-15311181D01*
X40338563Y-15311181D01*
X41324185Y-14325559D01*
X41355581Y-14304581D01*
X41438684Y-14180208D01*
X41460500Y-14070531D01*
X41460500Y-14070530D01*
X41467866Y-14033501D01*
X41460500Y-13996471D01*
X41460500Y-9172029D01*
X41593156Y-9039373D01*
X41684500Y-8818847D01*
X41684500Y-8580153D01*
X41593156Y-8359627D01*
X41424373Y-8190844D01*
X41203847Y-8099500D01*
X40965153Y-8099500D01*
X40744627Y-8190844D01*
X40575844Y-8359627D01*
X40484500Y-8580153D01*
X40484500Y-8818847D01*
X40575844Y-9039373D01*
X40708501Y-9172030D01*
X40708500Y-13877756D01*
X37817256Y-16769000D01*
X13372031Y-16769000D01*
X13335000Y-16761634D01*
X13297969Y-16769000D01*
X13188292Y-16790816D01*
X13063919Y-16873919D01*
X13042943Y-16905312D01*
X11940346Y-18007910D01*
X11878707Y-17966724D01*
X11543261Y-17900000D01*
X11316739Y-17900000D01*
X10981293Y-17966724D01*
X10600897Y-18220897D01*
X10346724Y-18601293D01*
X10257471Y-19050000D01*
X10346724Y-19498707D01*
X10600897Y-19879103D01*
X10699519Y-19945000D01*
X9620481Y-19945000D01*
X9719103Y-19879103D01*
X9973276Y-19498707D01*
X10062529Y-19050000D01*
X9973276Y-18601293D01*
X9719103Y-18220897D01*
X9338707Y-17966724D01*
X9003261Y-17900000D01*
X8776739Y-17900000D01*
X8441293Y-17966724D01*
X8060897Y-18220897D01*
X7806724Y-18601293D01*
X7717471Y-19050000D01*
X7806724Y-19498707D01*
X8060897Y-19879103D01*
X8159519Y-19945000D01*
X7600000Y-19945000D01*
X7600000Y-19200000D01*
X7500000Y-19100000D01*
X6400000Y-19100000D01*
X6400000Y-19120000D01*
X6300000Y-19120000D01*
X6300000Y-19100000D01*
X5200000Y-19100000D01*
X5100000Y-19200000D01*
X5100000Y-19945000D01*
X375000Y-19945000D01*
X375000Y-18120435D01*
X5100000Y-18120435D01*
X5100000Y-18900000D01*
X5200000Y-19000000D01*
X6300000Y-19000000D01*
X6300000Y-17900000D01*
X6400000Y-17900000D01*
X6400000Y-19000000D01*
X7500000Y-19000000D01*
X7600000Y-18900000D01*
X7600000Y-18120435D01*
X7539104Y-17973418D01*
X7426582Y-17860896D01*
X7279565Y-17800000D01*
X6500000Y-17800000D01*
X6400000Y-17900000D01*
X6300000Y-17900000D01*
X6200000Y-17800000D01*
X5420435Y-17800000D01*
X5273418Y-17860896D01*
X5160896Y-17973418D01*
X5100000Y-18120435D01*
X375000Y-18120435D01*
X375000Y-16073151D01*
X11147500Y-16073151D01*
X11147500Y-16311845D01*
X11238844Y-16532371D01*
X11407627Y-16701154D01*
X11628153Y-16792498D01*
X11866847Y-16792498D01*
X11987559Y-16742498D01*
X12117595Y-16742498D01*
X12171764Y-16753273D01*
X12225933Y-16742498D01*
X12225934Y-16742498D01*
X12386363Y-16710587D01*
X12568292Y-16589026D01*
X12598980Y-16543098D01*
X13225080Y-15917000D01*
X16582831Y-15917000D01*
X16637000Y-15927775D01*
X16691169Y-15917000D01*
X16691170Y-15917000D01*
X16851599Y-15885089D01*
X16855244Y-15882653D01*
X22641000Y-15882653D01*
X22641000Y-16121347D01*
X22732344Y-16341873D01*
X22901127Y-16510656D01*
X23121653Y-16602000D01*
X23360347Y-16602000D01*
X23580873Y-16510656D01*
X23713529Y-16378000D01*
X37046969Y-16378000D01*
X37084000Y-16385366D01*
X37121031Y-16378000D01*
X37230708Y-16356184D01*
X37355081Y-16273081D01*
X37376059Y-16241685D01*
X37895185Y-15722559D01*
X37926581Y-15701581D01*
X38009684Y-15577208D01*
X38031500Y-15467531D01*
X38031500Y-15467530D01*
X38038866Y-15430501D01*
X38031500Y-15393470D01*
X38031500Y-10895530D01*
X38038866Y-10858499D01*
X38009684Y-10711792D01*
X37926581Y-10587419D01*
X37895185Y-10566441D01*
X36477500Y-9148756D01*
X36477500Y-8961153D01*
X36386156Y-8740627D01*
X36217373Y-8571844D01*
X35996847Y-8480500D01*
X35758153Y-8480500D01*
X35537627Y-8571844D01*
X35368844Y-8740627D01*
X35277500Y-8961153D01*
X35277500Y-9199847D01*
X35368844Y-9420373D01*
X35537627Y-9589156D01*
X35758153Y-9680500D01*
X35945756Y-9680500D01*
X37279501Y-11014245D01*
X37279500Y-15274756D01*
X36928256Y-15626000D01*
X23713529Y-15626000D01*
X23580873Y-15493344D01*
X23360347Y-15402000D01*
X23121653Y-15402000D01*
X22901127Y-15493344D01*
X22732344Y-15662127D01*
X22641000Y-15882653D01*
X16855244Y-15882653D01*
X17033528Y-15763528D01*
X17064216Y-15717600D01*
X18134817Y-14647000D01*
X23254941Y-14647000D01*
X23275840Y-14655657D01*
X23448787Y-14828604D01*
X23479474Y-14874530D01*
X23661403Y-14996091D01*
X23821832Y-15028002D01*
X23876001Y-15038777D01*
X23930170Y-15028002D01*
X31890941Y-15028002D01*
X32011653Y-15078002D01*
X32250347Y-15078002D01*
X32371064Y-15028000D01*
X35823331Y-15028000D01*
X35877500Y-15038775D01*
X35931669Y-15028000D01*
X35931670Y-15028000D01*
X36092099Y-14996089D01*
X36274028Y-14874528D01*
X36304716Y-14828601D01*
X36604661Y-14528656D01*
X36725373Y-14478656D01*
X36894156Y-14309873D01*
X36985500Y-14089347D01*
X36985500Y-13850653D01*
X36903423Y-13652500D01*
X36985500Y-13454347D01*
X36985500Y-13215653D01*
X36903423Y-13017500D01*
X36985500Y-12819347D01*
X36985500Y-12580653D01*
X36894156Y-12360127D01*
X36725373Y-12191344D01*
X36504847Y-12100000D01*
X36266153Y-12100000D01*
X36045627Y-12191344D01*
X35876844Y-12360127D01*
X35785500Y-12580653D01*
X35785500Y-12819347D01*
X35867577Y-13017500D01*
X35785500Y-13215653D01*
X35785500Y-13454347D01*
X35867577Y-13652500D01*
X35826844Y-13750839D01*
X35649683Y-13928000D01*
X32371054Y-13928000D01*
X32363965Y-13925064D01*
X32454154Y-13834875D01*
X32545498Y-13614349D01*
X32545498Y-13375655D01*
X32454154Y-13155129D01*
X32285371Y-12986346D01*
X32064845Y-12895002D01*
X31826151Y-12895002D01*
X31605625Y-12986346D01*
X31436842Y-13155129D01*
X31364616Y-13329500D01*
X28722535Y-13329500D01*
X22824974Y-7431940D01*
X22824974Y-7348988D01*
X22745455Y-7157011D01*
X23643267Y-7157011D01*
X29342431Y-12856175D01*
X29363409Y-12887571D01*
X29433334Y-12934293D01*
X29487782Y-12970674D01*
X29634490Y-12999856D01*
X29671521Y-12992490D01*
X30212638Y-12992490D01*
X30345294Y-13125146D01*
X30565820Y-13216490D01*
X30804514Y-13216490D01*
X31025040Y-13125146D01*
X31193823Y-12956363D01*
X31237657Y-12850537D01*
X31249653Y-12855506D01*
X31488347Y-12855506D01*
X31708873Y-12764162D01*
X31877656Y-12595379D01*
X31969000Y-12374853D01*
X31969000Y-12136159D01*
X31877656Y-11915633D01*
X31708873Y-11746850D01*
X31488347Y-11655506D01*
X31296800Y-11655506D01*
X31215709Y-11601323D01*
X31106032Y-11579507D01*
X31069001Y-11572141D01*
X31031970Y-11579507D01*
X29573752Y-11579507D01*
X24231559Y-6237315D01*
X24210581Y-6205919D01*
X24086208Y-6122816D01*
X23976531Y-6101000D01*
X23939500Y-6093634D01*
X23902469Y-6101000D01*
X16351531Y-6101000D01*
X16314500Y-6093634D01*
X16277469Y-6101000D01*
X16167792Y-6122816D01*
X16043419Y-6205919D01*
X16022443Y-6237312D01*
X15984293Y-6275462D01*
X15907130Y-6243500D01*
X15588870Y-6243500D01*
X15395999Y-6323390D01*
X15395999Y-6027245D01*
X15511706Y-5911538D01*
X15588870Y-5943500D01*
X15907130Y-5943500D01*
X16201164Y-5821707D01*
X16426207Y-5596664D01*
X16548000Y-5302630D01*
X16548000Y-4984370D01*
X16511874Y-4897153D01*
X23720500Y-4897153D01*
X23720500Y-5135847D01*
X23811844Y-5356373D01*
X23980627Y-5525156D01*
X24201153Y-5616500D01*
X24439847Y-5616500D01*
X24560559Y-5566500D01*
X31314831Y-5566500D01*
X31369000Y-5577275D01*
X31423169Y-5566500D01*
X31423170Y-5566500D01*
X31583599Y-5534589D01*
X31765528Y-5413028D01*
X31796216Y-5367100D01*
X32194711Y-4968606D01*
X32194713Y-4968603D01*
X32286657Y-4876659D01*
X32307562Y-4868000D01*
X33152948Y-4868000D01*
X36902226Y-8617279D01*
X36865000Y-8707153D01*
X36865000Y-8945847D01*
X36956344Y-9166373D01*
X37125127Y-9335156D01*
X37345653Y-9426500D01*
X37584347Y-9426500D01*
X37804873Y-9335156D01*
X37973656Y-9166373D01*
X38065000Y-8945847D01*
X38065000Y-8707153D01*
X38015000Y-8586441D01*
X38015000Y-8456405D01*
X38025775Y-8402236D01*
X38000317Y-8274249D01*
X37983089Y-8187637D01*
X37861528Y-8005708D01*
X37815603Y-7975022D01*
X33807980Y-3967400D01*
X33777292Y-3921472D01*
X33595363Y-3799911D01*
X33434934Y-3768000D01*
X33434933Y-3768000D01*
X33380764Y-3757225D01*
X33326595Y-3768000D01*
X32307552Y-3768000D01*
X32186845Y-3718002D01*
X31948151Y-3718002D01*
X31727625Y-3809346D01*
X31558842Y-3978129D01*
X31508841Y-4098843D01*
X31416897Y-4190787D01*
X31416894Y-4190789D01*
X31141184Y-4466500D01*
X24560559Y-4466500D01*
X24439847Y-4416500D01*
X24201153Y-4416500D01*
X23980627Y-4507844D01*
X23811844Y-4676627D01*
X23720500Y-4897153D01*
X16511874Y-4897153D01*
X16426207Y-4690336D01*
X16201164Y-4465293D01*
X15907130Y-4343500D01*
X15588870Y-4343500D01*
X15294836Y-4465293D01*
X15069793Y-4690336D01*
X14948000Y-4984370D01*
X14948000Y-5302630D01*
X14979962Y-5379794D01*
X14955942Y-5403814D01*
X14780313Y-5579444D01*
X14748919Y-5600420D01*
X14727943Y-5631813D01*
X14727942Y-5631814D01*
X14665815Y-5724794D01*
X14636633Y-5871501D01*
X14644000Y-5908537D01*
X14643999Y-7680468D01*
X14636633Y-7717499D01*
X14643999Y-7754529D01*
X14665815Y-7864206D01*
X14748918Y-7988580D01*
X14780314Y-8009558D01*
X14884441Y-8113685D01*
X14905419Y-8145081D01*
X15027272Y-8226500D01*
X15029792Y-8228184D01*
X15176500Y-8257366D01*
X15213531Y-8250000D01*
X15964969Y-8250000D01*
X16002000Y-8257366D01*
X16039031Y-8250000D01*
X16148708Y-8228184D01*
X16273081Y-8145081D01*
X16294059Y-8113685D01*
X17250734Y-7157011D01*
X21704493Y-7157011D01*
X21624974Y-7348988D01*
X21624974Y-7587682D01*
X21716318Y-7808208D01*
X21885101Y-7976991D01*
X22105627Y-8068335D01*
X22188579Y-8068335D01*
X28048245Y-13928002D01*
X24103819Y-13928002D01*
X24053657Y-13877840D01*
X24003656Y-13757127D01*
X23834873Y-13588344D01*
X23614347Y-13497000D01*
X23375653Y-13497000D01*
X23254941Y-13547000D01*
X17961168Y-13547000D01*
X17906999Y-13536225D01*
X17852830Y-13547000D01*
X17692401Y-13578911D01*
X17510472Y-13700472D01*
X17479786Y-13746397D01*
X16409184Y-14817000D01*
X13051426Y-14817000D01*
X12997261Y-14806226D01*
X12943096Y-14817000D01*
X12943092Y-14817000D01*
X12782663Y-14848911D01*
X12782662Y-14848912D01*
X12782661Y-14848912D01*
X12673469Y-14921872D01*
X12600734Y-14970472D01*
X12570049Y-15016395D01*
X11956721Y-15629725D01*
X11866847Y-15592498D01*
X11628153Y-15592498D01*
X11407627Y-15683842D01*
X11238844Y-15852625D01*
X11147500Y-16073151D01*
X375000Y-16073151D01*
X375000Y-14214771D01*
X2584199Y-14214771D01*
X2770145Y-14663695D01*
X3114765Y-15008826D01*
X3565228Y-15195805D01*
X3760000Y-15119004D01*
X3760000Y-14020000D01*
X3860000Y-14020000D01*
X3860000Y-15119004D01*
X4054772Y-15195805D01*
X4505235Y-15008826D01*
X4849855Y-14663695D01*
X5035801Y-14214771D01*
X4958913Y-14020000D01*
X3860000Y-14020000D01*
X3760000Y-14020000D01*
X2661087Y-14020000D01*
X2584199Y-14214771D01*
X375000Y-14214771D01*
X375000Y-13725229D01*
X2584199Y-13725229D01*
X2661087Y-13920000D01*
X3760000Y-13920000D01*
X3760000Y-12820996D01*
X3860000Y-12820996D01*
X3860000Y-13920000D01*
X4958913Y-13920000D01*
X5035801Y-13725229D01*
X4849855Y-13276305D01*
X4505235Y-12931174D01*
X4363018Y-12872142D01*
X9618000Y-12872142D01*
X9618000Y-13289858D01*
X9777853Y-13675777D01*
X10073223Y-13971147D01*
X10459142Y-14131000D01*
X10876858Y-14131000D01*
X11262777Y-13971147D01*
X11558147Y-13675777D01*
X11718000Y-13289858D01*
X11718000Y-12872142D01*
X14498000Y-12872142D01*
X14498000Y-13289858D01*
X14657853Y-13675777D01*
X14953223Y-13971147D01*
X15339142Y-14131000D01*
X15756858Y-14131000D01*
X16142777Y-13971147D01*
X16438147Y-13675777D01*
X16598000Y-13289858D01*
X16598000Y-12872142D01*
X16510162Y-12660082D01*
X19372500Y-9797744D01*
X19372501Y-10258970D01*
X19239844Y-10391627D01*
X19148500Y-10612153D01*
X19148500Y-10850847D01*
X19239844Y-11071373D01*
X19408627Y-11240156D01*
X19629153Y-11331500D01*
X19867847Y-11331500D01*
X20088373Y-11240156D01*
X20257156Y-11071373D01*
X20348500Y-10850847D01*
X20348500Y-10612153D01*
X20257156Y-10391627D01*
X20124500Y-10258971D01*
X20124500Y-9807744D01*
X20632744Y-9299500D01*
X20820347Y-9299500D01*
X21040873Y-9208156D01*
X21209656Y-9039373D01*
X21301000Y-8818847D01*
X21301000Y-8580153D01*
X21209656Y-8359627D01*
X21040873Y-8190844D01*
X20820347Y-8099500D01*
X20581653Y-8099500D01*
X20361127Y-8190844D01*
X20193000Y-8358971D01*
X20151873Y-8317844D01*
X19931347Y-8226500D01*
X19692653Y-8226500D01*
X19472127Y-8317844D01*
X19303344Y-8486627D01*
X19212000Y-8707153D01*
X19212000Y-8894756D01*
X15982353Y-12124403D01*
X15756858Y-12031000D01*
X15339142Y-12031000D01*
X14953223Y-12190853D01*
X14657853Y-12486223D01*
X14498000Y-12872142D01*
X11718000Y-12872142D01*
X11627379Y-12653365D01*
X13828688Y-10452057D01*
X13860081Y-10431081D01*
X13943184Y-10306708D01*
X13965000Y-10197031D01*
X13972366Y-10160000D01*
X13965000Y-10122969D01*
X13965000Y-9299029D01*
X14097656Y-9166373D01*
X14189000Y-8945847D01*
X14189000Y-8707153D01*
X14097656Y-8486627D01*
X13928873Y-8317844D01*
X13708347Y-8226500D01*
X13469653Y-8226500D01*
X13249127Y-8317844D01*
X13080344Y-8486627D01*
X12989000Y-8707153D01*
X12989000Y-8945847D01*
X13080344Y-9166373D01*
X13213000Y-9299029D01*
X13213001Y-10004254D01*
X11095635Y-12121621D01*
X10876858Y-12031000D01*
X10459142Y-12031000D01*
X10073223Y-12190853D01*
X9777853Y-12486223D01*
X9618000Y-12872142D01*
X4363018Y-12872142D01*
X4054772Y-12744195D01*
X3860000Y-12820996D01*
X3760000Y-12820996D01*
X3565228Y-12744195D01*
X3114765Y-12931174D01*
X2770145Y-13276305D01*
X2584199Y-13725229D01*
X375000Y-13725229D01*
X375000Y-11430000D01*
X2637471Y-11430000D01*
X2726724Y-11878707D01*
X2980897Y-12259103D01*
X3361293Y-12513276D01*
X3696739Y-12580000D01*
X3923261Y-12580000D01*
X4258707Y-12513276D01*
X4639103Y-12259103D01*
X4893276Y-11878707D01*
X4982529Y-11430000D01*
X4893276Y-10981293D01*
X4639103Y-10600897D01*
X4258707Y-10346724D01*
X3923261Y-10280000D01*
X3696739Y-10280000D01*
X3361293Y-10346724D01*
X2980897Y-10600897D01*
X2726724Y-10981293D01*
X2637471Y-11430000D01*
X375000Y-11430000D01*
X375000Y-8890000D01*
X2637471Y-8890000D01*
X2726724Y-9338707D01*
X2980897Y-9719103D01*
X3361293Y-9973276D01*
X3696739Y-10040000D01*
X3923261Y-10040000D01*
X4258707Y-9973276D01*
X4639103Y-9719103D01*
X4893276Y-9338707D01*
X4982529Y-8890000D01*
X4893276Y-8441293D01*
X4639103Y-8060897D01*
X4258707Y-7806724D01*
X3923261Y-7740000D01*
X3696739Y-7740000D01*
X3361293Y-7806724D01*
X2980897Y-8060897D01*
X2726724Y-8441293D01*
X2637471Y-8890000D01*
X375000Y-8890000D01*
X375000Y-5500000D01*
X2654123Y-5500000D01*
X2654123Y-7200000D01*
X2677407Y-7317054D01*
X2743712Y-7416288D01*
X2842946Y-7482593D01*
X2960000Y-7505877D01*
X4660000Y-7505877D01*
X4777054Y-7482593D01*
X4876288Y-7416288D01*
X4942593Y-7317054D01*
X4965877Y-7200000D01*
X4965877Y-5500000D01*
X4942593Y-5382946D01*
X4876288Y-5283712D01*
X4777054Y-5217407D01*
X4660000Y-5194123D01*
X2960000Y-5194123D01*
X2842946Y-5217407D01*
X2743712Y-5283712D01*
X2677407Y-5382946D01*
X2654123Y-5500000D01*
X375000Y-5500000D01*
X375000Y-1420000D01*
X5100000Y-1420000D01*
X5100000Y-2199565D01*
X5160896Y-2346582D01*
X5273418Y-2459104D01*
X5420435Y-2520000D01*
X6200000Y-2520000D01*
X6300000Y-2420000D01*
X6300000Y-1320000D01*
X6400000Y-1320000D01*
X6400000Y-2420000D01*
X6500000Y-2520000D01*
X7279565Y-2520000D01*
X7426582Y-2459104D01*
X7539104Y-2346582D01*
X7600000Y-2199565D01*
X7600000Y-1420000D01*
X7500000Y-1320000D01*
X6400000Y-1320000D01*
X6300000Y-1320000D01*
X5200000Y-1320000D01*
X5100000Y-1420000D01*
X375000Y-1420000D01*
X375000Y-375000D01*
X5100000Y-375000D01*
X5100000Y-1120000D01*
G04 #@! TD*
M02*
