G04 #@! TF.GenerationSoftware,KiCad,Pcbnew,(5.0.2)-1*
G04 #@! TF.CreationDate,2019-03-28T08:34:28+01:00*
G04 #@! TF.ProjectId,mibo48_xmc4,6d69626f-3438-45f7-986d-63342e6b6963,rev?*
G04 #@! TF.SameCoordinates,PX7a53eb0PY5ad6650*
G04 #@! TF.FileFunction,Legend,Top*
G04 #@! TF.FilePolarity,Positive*
%FSLAX46Y46*%
G04 Gerber Fmt 4.6, Leading zero omitted, Abs format (unit mm)*
G04 Created by KiCad (PCBNEW (5.0.2)-1) date 2019-03-28 08:34:28*
%MOMM*%
%LPD*%
G01*
G04 APERTURE LIST*
%ADD10C,0.250000*%
%ADD11C,0.200000*%
%ADD12C,0.120000*%
G04 APERTURE END LIST*
D10*
X1722380Y-19668476D02*
X722380Y-19668476D01*
X1436666Y-19335142D01*
X722380Y-19001809D01*
X1722380Y-19001809D01*
X1722380Y-18525619D02*
X722380Y-18525619D01*
X1198571Y-17716095D02*
X1246190Y-17573238D01*
X1293809Y-17525619D01*
X1389047Y-17478000D01*
X1531904Y-17478000D01*
X1627142Y-17525619D01*
X1674761Y-17573238D01*
X1722380Y-17668476D01*
X1722380Y-18049428D01*
X722380Y-18049428D01*
X722380Y-17716095D01*
X770000Y-17620857D01*
X817619Y-17573238D01*
X912857Y-17525619D01*
X1008095Y-17525619D01*
X1103333Y-17573238D01*
X1150952Y-17620857D01*
X1198571Y-17716095D01*
X1198571Y-18049428D01*
X722380Y-16858952D02*
X722380Y-16668476D01*
X770000Y-16573238D01*
X865238Y-16478000D01*
X1055714Y-16430380D01*
X1389047Y-16430380D01*
X1579523Y-16478000D01*
X1674761Y-16573238D01*
X1722380Y-16668476D01*
X1722380Y-16858952D01*
X1674761Y-16954190D01*
X1579523Y-17049428D01*
X1389047Y-17097047D01*
X1055714Y-17097047D01*
X865238Y-17049428D01*
X770000Y-16954190D01*
X722380Y-16858952D01*
X1055714Y-15573238D02*
X1722380Y-15573238D01*
X674761Y-15811333D02*
X1389047Y-16049428D01*
X1389047Y-15430380D01*
X1150952Y-14906571D02*
X1103333Y-15001809D01*
X1055714Y-15049428D01*
X960476Y-15097047D01*
X912857Y-15097047D01*
X817619Y-15049428D01*
X770000Y-15001809D01*
X722380Y-14906571D01*
X722380Y-14716095D01*
X770000Y-14620857D01*
X817619Y-14573238D01*
X912857Y-14525619D01*
X960476Y-14525619D01*
X1055714Y-14573238D01*
X1103333Y-14620857D01*
X1150952Y-14716095D01*
X1150952Y-14906571D01*
X1198571Y-15001809D01*
X1246190Y-15049428D01*
X1341428Y-15097047D01*
X1531904Y-15097047D01*
X1627142Y-15049428D01*
X1674761Y-15001809D01*
X1722380Y-14906571D01*
X1722380Y-14716095D01*
X1674761Y-14620857D01*
X1627142Y-14573238D01*
X1531904Y-14525619D01*
X1341428Y-14525619D01*
X1246190Y-14573238D01*
X1198571Y-14620857D01*
X1150952Y-14716095D01*
X1341428Y-14097047D02*
X1341428Y-13335142D01*
X722380Y-12954190D02*
X1722380Y-12287523D01*
X722380Y-12287523D02*
X1722380Y-12954190D01*
X1722380Y-11906571D02*
X722380Y-11906571D01*
X1436666Y-11573238D01*
X722380Y-11239904D01*
X1722380Y-11239904D01*
X1627142Y-10192285D02*
X1674761Y-10239904D01*
X1722380Y-10382761D01*
X1722380Y-10478000D01*
X1674761Y-10620857D01*
X1579523Y-10716095D01*
X1484285Y-10763714D01*
X1293809Y-10811333D01*
X1150952Y-10811333D01*
X960476Y-10763714D01*
X865238Y-10716095D01*
X770000Y-10620857D01*
X722380Y-10478000D01*
X722380Y-10382761D01*
X770000Y-10239904D01*
X817619Y-10192285D01*
X1055714Y-9335142D02*
X1722380Y-9335142D01*
X674761Y-9573238D02*
X1389047Y-9811333D01*
X1389047Y-9192285D01*
D11*
X49022000Y-4826000D02*
X49784000Y-4826000D01*
X49022000Y-4064000D02*
X49022000Y-4826000D01*
X15710000Y-2432095D02*
X15748095Y-2394000D01*
X15824285Y-2355904D01*
X16014761Y-2355904D01*
X16090952Y-2394000D01*
X16129047Y-2432095D01*
X16167142Y-2508285D01*
X16167142Y-2584476D01*
X16129047Y-2698761D01*
X15671904Y-3155904D01*
X16167142Y-3155904D01*
X16510000Y-3079714D02*
X16548095Y-3117809D01*
X16510000Y-3155904D01*
X16471904Y-3117809D01*
X16510000Y-3079714D01*
X16510000Y-3155904D01*
X16852857Y-2432095D02*
X16890952Y-2394000D01*
X16967142Y-2355904D01*
X17157619Y-2355904D01*
X17233809Y-2394000D01*
X17271904Y-2432095D01*
X17310000Y-2508285D01*
X17310000Y-2584476D01*
X17271904Y-2698761D01*
X16814761Y-3155904D01*
X17310000Y-3155904D01*
X23330000Y-2940095D02*
X23368095Y-2902000D01*
X23444285Y-2863904D01*
X23634761Y-2863904D01*
X23710952Y-2902000D01*
X23749047Y-2940095D01*
X23787142Y-3016285D01*
X23787142Y-3092476D01*
X23749047Y-3206761D01*
X23291904Y-3663904D01*
X23787142Y-3663904D01*
X24130000Y-3587714D02*
X24168095Y-3625809D01*
X24130000Y-3663904D01*
X24091904Y-3625809D01*
X24130000Y-3587714D01*
X24130000Y-3663904D01*
X24891904Y-2863904D02*
X24510952Y-2863904D01*
X24472857Y-3244857D01*
X24510952Y-3206761D01*
X24587142Y-3168666D01*
X24777619Y-3168666D01*
X24853809Y-3206761D01*
X24891904Y-3244857D01*
X24930000Y-3321047D01*
X24930000Y-3511523D01*
X24891904Y-3587714D01*
X24853809Y-3625809D01*
X24777619Y-3663904D01*
X24587142Y-3663904D01*
X24510952Y-3625809D01*
X24472857Y-3587714D01*
X25927142Y-2736857D02*
X26193809Y-2736857D01*
X26308095Y-3155904D02*
X25927142Y-3155904D01*
X25927142Y-2355904D01*
X26308095Y-2355904D01*
X26650952Y-3079714D02*
X26689047Y-3117809D01*
X26650952Y-3155904D01*
X26612857Y-3117809D01*
X26650952Y-3079714D01*
X26650952Y-3155904D01*
X27146190Y-2698761D02*
X27070000Y-2660666D01*
X27031904Y-2622571D01*
X26993809Y-2546380D01*
X26993809Y-2508285D01*
X27031904Y-2432095D01*
X27070000Y-2394000D01*
X27146190Y-2355904D01*
X27298571Y-2355904D01*
X27374761Y-2394000D01*
X27412857Y-2432095D01*
X27450952Y-2508285D01*
X27450952Y-2546380D01*
X27412857Y-2622571D01*
X27374761Y-2660666D01*
X27298571Y-2698761D01*
X27146190Y-2698761D01*
X27070000Y-2736857D01*
X27031904Y-2774952D01*
X26993809Y-2851142D01*
X26993809Y-3003523D01*
X27031904Y-3079714D01*
X27070000Y-3117809D01*
X27146190Y-3155904D01*
X27298571Y-3155904D01*
X27374761Y-3117809D01*
X27412857Y-3079714D01*
X27450952Y-3003523D01*
X27450952Y-2851142D01*
X27412857Y-2774952D01*
X27374761Y-2736857D01*
X27298571Y-2698761D01*
X18250000Y-2940095D02*
X18288095Y-2902000D01*
X18364285Y-2863904D01*
X18554761Y-2863904D01*
X18630952Y-2902000D01*
X18669047Y-2940095D01*
X18707142Y-3016285D01*
X18707142Y-3092476D01*
X18669047Y-3206761D01*
X18211904Y-3663904D01*
X18707142Y-3663904D01*
X19050000Y-3587714D02*
X19088095Y-3625809D01*
X19050000Y-3663904D01*
X19011904Y-3625809D01*
X19050000Y-3587714D01*
X19050000Y-3663904D01*
X19354761Y-2863904D02*
X19850000Y-2863904D01*
X19583333Y-3168666D01*
X19697619Y-3168666D01*
X19773809Y-3206761D01*
X19811904Y-3244857D01*
X19850000Y-3321047D01*
X19850000Y-3511523D01*
X19811904Y-3587714D01*
X19773809Y-3625809D01*
X19697619Y-3663904D01*
X19469047Y-3663904D01*
X19392857Y-3625809D01*
X19354761Y-3587714D01*
X28467142Y-3244857D02*
X28733809Y-3244857D01*
X28848095Y-3663904D02*
X28467142Y-3663904D01*
X28467142Y-2863904D01*
X28848095Y-2863904D01*
X29190952Y-3587714D02*
X29229047Y-3625809D01*
X29190952Y-3663904D01*
X29152857Y-3625809D01*
X29190952Y-3587714D01*
X29190952Y-3663904D01*
X29610000Y-3663904D02*
X29762380Y-3663904D01*
X29838571Y-3625809D01*
X29876666Y-3587714D01*
X29952857Y-3473428D01*
X29990952Y-3321047D01*
X29990952Y-3016285D01*
X29952857Y-2940095D01*
X29914761Y-2902000D01*
X29838571Y-2863904D01*
X29686190Y-2863904D01*
X29610000Y-2902000D01*
X29571904Y-2940095D01*
X29533809Y-3016285D01*
X29533809Y-3206761D01*
X29571904Y-3282952D01*
X29610000Y-3321047D01*
X29686190Y-3359142D01*
X29838571Y-3359142D01*
X29914761Y-3321047D01*
X29952857Y-3282952D01*
X29990952Y-3206761D01*
X20790000Y-2432095D02*
X20828095Y-2394000D01*
X20904285Y-2355904D01*
X21094761Y-2355904D01*
X21170952Y-2394000D01*
X21209047Y-2432095D01*
X21247142Y-2508285D01*
X21247142Y-2584476D01*
X21209047Y-2698761D01*
X20751904Y-3155904D01*
X21247142Y-3155904D01*
X21590000Y-3079714D02*
X21628095Y-3117809D01*
X21590000Y-3155904D01*
X21551904Y-3117809D01*
X21590000Y-3079714D01*
X21590000Y-3155904D01*
X22313809Y-2622571D02*
X22313809Y-3155904D01*
X22123333Y-2317809D02*
X21932857Y-2889238D01*
X22428095Y-2889238D01*
X13170000Y-2940095D02*
X13208095Y-2902000D01*
X13284285Y-2863904D01*
X13474761Y-2863904D01*
X13550952Y-2902000D01*
X13589047Y-2940095D01*
X13627142Y-3016285D01*
X13627142Y-3092476D01*
X13589047Y-3206761D01*
X13131904Y-3663904D01*
X13627142Y-3663904D01*
X13970000Y-3587714D02*
X14008095Y-3625809D01*
X13970000Y-3663904D01*
X13931904Y-3625809D01*
X13970000Y-3587714D01*
X13970000Y-3663904D01*
X14770000Y-3663904D02*
X14312857Y-3663904D01*
X14541428Y-3663904D02*
X14541428Y-2863904D01*
X14465238Y-2978190D01*
X14389047Y-3054380D01*
X14312857Y-3092476D01*
X10630000Y-2432095D02*
X10668095Y-2394000D01*
X10744285Y-2355904D01*
X10934761Y-2355904D01*
X11010952Y-2394000D01*
X11049047Y-2432095D01*
X11087142Y-2508285D01*
X11087142Y-2584476D01*
X11049047Y-2698761D01*
X10591904Y-3155904D01*
X11087142Y-3155904D01*
X11430000Y-3079714D02*
X11468095Y-3117809D01*
X11430000Y-3155904D01*
X11391904Y-3117809D01*
X11430000Y-3079714D01*
X11430000Y-3155904D01*
X11963333Y-2355904D02*
X12039523Y-2355904D01*
X12115714Y-2394000D01*
X12153809Y-2432095D01*
X12191904Y-2508285D01*
X12230000Y-2660666D01*
X12230000Y-2851142D01*
X12191904Y-3003523D01*
X12153809Y-3079714D01*
X12115714Y-3117809D01*
X12039523Y-3155904D01*
X11963333Y-3155904D01*
X11887142Y-3117809D01*
X11849047Y-3079714D01*
X11810952Y-3003523D01*
X11772857Y-2851142D01*
X11772857Y-2660666D01*
X11810952Y-2508285D01*
X11849047Y-2432095D01*
X11887142Y-2394000D01*
X11963333Y-2355904D01*
X46247142Y-2736857D02*
X46513809Y-2736857D01*
X46628095Y-3155904D02*
X46247142Y-3155904D01*
X46247142Y-2355904D01*
X46628095Y-2355904D01*
X46970952Y-3079714D02*
X47009047Y-3117809D01*
X46970952Y-3155904D01*
X46932857Y-3117809D01*
X46970952Y-3079714D01*
X46970952Y-3155904D01*
X47275714Y-2355904D02*
X47809047Y-2355904D01*
X47466190Y-3155904D01*
X49187142Y-3663904D02*
X48730000Y-3663904D01*
X48958571Y-3663904D02*
X48958571Y-2863904D01*
X48882380Y-2978190D01*
X48806190Y-3054380D01*
X48730000Y-3092476D01*
X49530000Y-3587714D02*
X49568095Y-3625809D01*
X49530000Y-3663904D01*
X49491904Y-3625809D01*
X49530000Y-3587714D01*
X49530000Y-3663904D01*
X50063333Y-2863904D02*
X50139523Y-2863904D01*
X50215714Y-2902000D01*
X50253809Y-2940095D01*
X50291904Y-3016285D01*
X50330000Y-3168666D01*
X50330000Y-3359142D01*
X50291904Y-3511523D01*
X50253809Y-3587714D01*
X50215714Y-3625809D01*
X50139523Y-3663904D01*
X50063333Y-3663904D01*
X49987142Y-3625809D01*
X49949047Y-3587714D01*
X49910952Y-3511523D01*
X49872857Y-3359142D01*
X49872857Y-3168666D01*
X49910952Y-3016285D01*
X49949047Y-2940095D01*
X49987142Y-2902000D01*
X50063333Y-2863904D01*
X38627142Y-3244857D02*
X38893809Y-3244857D01*
X39008095Y-3663904D02*
X38627142Y-3663904D01*
X38627142Y-2863904D01*
X39008095Y-2863904D01*
X39350952Y-3587714D02*
X39389047Y-3625809D01*
X39350952Y-3663904D01*
X39312857Y-3625809D01*
X39350952Y-3587714D01*
X39350952Y-3663904D01*
X40074761Y-3130571D02*
X40074761Y-3663904D01*
X39884285Y-2825809D02*
X39693809Y-3397238D01*
X40189047Y-3397238D01*
X43707142Y-3244857D02*
X43973809Y-3244857D01*
X44088095Y-3663904D02*
X43707142Y-3663904D01*
X43707142Y-2863904D01*
X44088095Y-2863904D01*
X44430952Y-3587714D02*
X44469047Y-3625809D01*
X44430952Y-3663904D01*
X44392857Y-3625809D01*
X44430952Y-3587714D01*
X44430952Y-3663904D01*
X45154761Y-2863904D02*
X45002380Y-2863904D01*
X44926190Y-2902000D01*
X44888095Y-2940095D01*
X44811904Y-3054380D01*
X44773809Y-3206761D01*
X44773809Y-3511523D01*
X44811904Y-3587714D01*
X44850000Y-3625809D01*
X44926190Y-3663904D01*
X45078571Y-3663904D01*
X45154761Y-3625809D01*
X45192857Y-3587714D01*
X45230952Y-3511523D01*
X45230952Y-3321047D01*
X45192857Y-3244857D01*
X45154761Y-3206761D01*
X45078571Y-3168666D01*
X44926190Y-3168666D01*
X44850000Y-3206761D01*
X44811904Y-3244857D01*
X44773809Y-3321047D01*
X41167142Y-2736857D02*
X41433809Y-2736857D01*
X41548095Y-3155904D02*
X41167142Y-3155904D01*
X41167142Y-2355904D01*
X41548095Y-2355904D01*
X41890952Y-3079714D02*
X41929047Y-3117809D01*
X41890952Y-3155904D01*
X41852857Y-3117809D01*
X41890952Y-3079714D01*
X41890952Y-3155904D01*
X42652857Y-2355904D02*
X42271904Y-2355904D01*
X42233809Y-2736857D01*
X42271904Y-2698761D01*
X42348095Y-2660666D01*
X42538571Y-2660666D01*
X42614761Y-2698761D01*
X42652857Y-2736857D01*
X42690952Y-2813047D01*
X42690952Y-3003523D01*
X42652857Y-3079714D01*
X42614761Y-3117809D01*
X42538571Y-3155904D01*
X42348095Y-3155904D01*
X42271904Y-3117809D01*
X42233809Y-3079714D01*
X36087142Y-2736857D02*
X36353809Y-2736857D01*
X36468095Y-3155904D02*
X36087142Y-3155904D01*
X36087142Y-2355904D01*
X36468095Y-2355904D01*
X36810952Y-3079714D02*
X36849047Y-3117809D01*
X36810952Y-3155904D01*
X36772857Y-3117809D01*
X36810952Y-3079714D01*
X36810952Y-3155904D01*
X37115714Y-2355904D02*
X37610952Y-2355904D01*
X37344285Y-2660666D01*
X37458571Y-2660666D01*
X37534761Y-2698761D01*
X37572857Y-2736857D01*
X37610952Y-2813047D01*
X37610952Y-3003523D01*
X37572857Y-3079714D01*
X37534761Y-3117809D01*
X37458571Y-3155904D01*
X37230000Y-3155904D01*
X37153809Y-3117809D01*
X37115714Y-3079714D01*
X30340476Y-2355904D02*
X30607142Y-3155904D01*
X30873809Y-2355904D01*
X31140476Y-3155904D02*
X31140476Y-2355904D01*
X31330952Y-2355904D01*
X31445238Y-2394000D01*
X31521428Y-2470190D01*
X31559523Y-2546380D01*
X31597619Y-2698761D01*
X31597619Y-2813047D01*
X31559523Y-2965428D01*
X31521428Y-3041619D01*
X31445238Y-3117809D01*
X31330952Y-3155904D01*
X31140476Y-3155904D01*
X31940476Y-3155904D02*
X31940476Y-2355904D01*
X32130952Y-2355904D01*
X32245238Y-2394000D01*
X32321428Y-2470190D01*
X32359523Y-2546380D01*
X32397619Y-2698761D01*
X32397619Y-2813047D01*
X32359523Y-2965428D01*
X32321428Y-3041619D01*
X32245238Y-3117809D01*
X32130952Y-3155904D01*
X31940476Y-3155904D01*
X32702380Y-2927333D02*
X33083333Y-2927333D01*
X32626190Y-3155904D02*
X32892857Y-2355904D01*
X33159523Y-3155904D01*
X33801142Y-3244857D02*
X34067809Y-3244857D01*
X34182095Y-3663904D02*
X33801142Y-3663904D01*
X33801142Y-2863904D01*
X34182095Y-2863904D01*
X34524952Y-3587714D02*
X34563047Y-3625809D01*
X34524952Y-3663904D01*
X34486857Y-3625809D01*
X34524952Y-3587714D01*
X34524952Y-3663904D01*
X35058285Y-2863904D02*
X35134476Y-2863904D01*
X35210666Y-2902000D01*
X35248761Y-2940095D01*
X35286857Y-3016285D01*
X35324952Y-3168666D01*
X35324952Y-3359142D01*
X35286857Y-3511523D01*
X35248761Y-3587714D01*
X35210666Y-3625809D01*
X35134476Y-3663904D01*
X35058285Y-3663904D01*
X34982095Y-3625809D01*
X34944000Y-3587714D01*
X34905904Y-3511523D01*
X34867809Y-3359142D01*
X34867809Y-3168666D01*
X34905904Y-3016285D01*
X34944000Y-2940095D01*
X34982095Y-2902000D01*
X35058285Y-2863904D01*
X48710952Y-17379904D02*
X48710952Y-16579904D01*
X48710952Y-16960857D02*
X49168095Y-16960857D01*
X49168095Y-17379904D02*
X49168095Y-16579904D01*
X49549047Y-17379904D02*
X49549047Y-16579904D01*
X50196666Y-16960857D02*
X50310952Y-16998952D01*
X50349047Y-17037047D01*
X50387142Y-17113238D01*
X50387142Y-17227523D01*
X50349047Y-17303714D01*
X50310952Y-17341809D01*
X50234761Y-17379904D01*
X49930000Y-17379904D01*
X49930000Y-16579904D01*
X50196666Y-16579904D01*
X50272857Y-16618000D01*
X50310952Y-16656095D01*
X50349047Y-16732285D01*
X50349047Y-16808476D01*
X50310952Y-16884666D01*
X50272857Y-16922761D01*
X50196666Y-16960857D01*
X49930000Y-16960857D01*
X46380476Y-17087904D02*
X46456666Y-17087904D01*
X46532857Y-17126000D01*
X46570952Y-17164095D01*
X46609047Y-17240285D01*
X46647142Y-17392666D01*
X46647142Y-17583142D01*
X46609047Y-17735523D01*
X46570952Y-17811714D01*
X46532857Y-17849809D01*
X46456666Y-17887904D01*
X46380476Y-17887904D01*
X46304285Y-17849809D01*
X46266190Y-17811714D01*
X46228095Y-17735523D01*
X46190000Y-17583142D01*
X46190000Y-17392666D01*
X46228095Y-17240285D01*
X46266190Y-17164095D01*
X46304285Y-17126000D01*
X46380476Y-17087904D01*
X46990000Y-17811714D02*
X47028095Y-17849809D01*
X46990000Y-17887904D01*
X46951904Y-17849809D01*
X46990000Y-17811714D01*
X46990000Y-17887904D01*
X47523333Y-17087904D02*
X47599523Y-17087904D01*
X47675714Y-17126000D01*
X47713809Y-17164095D01*
X47751904Y-17240285D01*
X47790000Y-17392666D01*
X47790000Y-17583142D01*
X47751904Y-17735523D01*
X47713809Y-17811714D01*
X47675714Y-17849809D01*
X47599523Y-17887904D01*
X47523333Y-17887904D01*
X47447142Y-17849809D01*
X47409047Y-17811714D01*
X47370952Y-17735523D01*
X47332857Y-17583142D01*
X47332857Y-17392666D01*
X47370952Y-17240285D01*
X47409047Y-17164095D01*
X47447142Y-17126000D01*
X47523333Y-17087904D01*
X43840476Y-16579904D02*
X43916666Y-16579904D01*
X43992857Y-16618000D01*
X44030952Y-16656095D01*
X44069047Y-16732285D01*
X44107142Y-16884666D01*
X44107142Y-17075142D01*
X44069047Y-17227523D01*
X44030952Y-17303714D01*
X43992857Y-17341809D01*
X43916666Y-17379904D01*
X43840476Y-17379904D01*
X43764285Y-17341809D01*
X43726190Y-17303714D01*
X43688095Y-17227523D01*
X43650000Y-17075142D01*
X43650000Y-16884666D01*
X43688095Y-16732285D01*
X43726190Y-16656095D01*
X43764285Y-16618000D01*
X43840476Y-16579904D01*
X44450000Y-17303714D02*
X44488095Y-17341809D01*
X44450000Y-17379904D01*
X44411904Y-17341809D01*
X44450000Y-17303714D01*
X44450000Y-17379904D01*
X45250000Y-17379904D02*
X44792857Y-17379904D01*
X45021428Y-17379904D02*
X45021428Y-16579904D01*
X44945238Y-16694190D01*
X44869047Y-16770380D01*
X44792857Y-16808476D01*
X41300476Y-17087904D02*
X41376666Y-17087904D01*
X41452857Y-17126000D01*
X41490952Y-17164095D01*
X41529047Y-17240285D01*
X41567142Y-17392666D01*
X41567142Y-17583142D01*
X41529047Y-17735523D01*
X41490952Y-17811714D01*
X41452857Y-17849809D01*
X41376666Y-17887904D01*
X41300476Y-17887904D01*
X41224285Y-17849809D01*
X41186190Y-17811714D01*
X41148095Y-17735523D01*
X41110000Y-17583142D01*
X41110000Y-17392666D01*
X41148095Y-17240285D01*
X41186190Y-17164095D01*
X41224285Y-17126000D01*
X41300476Y-17087904D01*
X41910000Y-17811714D02*
X41948095Y-17849809D01*
X41910000Y-17887904D01*
X41871904Y-17849809D01*
X41910000Y-17811714D01*
X41910000Y-17887904D01*
X42252857Y-17164095D02*
X42290952Y-17126000D01*
X42367142Y-17087904D01*
X42557619Y-17087904D01*
X42633809Y-17126000D01*
X42671904Y-17164095D01*
X42710000Y-17240285D01*
X42710000Y-17316476D01*
X42671904Y-17430761D01*
X42214761Y-17887904D01*
X42710000Y-17887904D01*
X38760476Y-16579904D02*
X38836666Y-16579904D01*
X38912857Y-16618000D01*
X38950952Y-16656095D01*
X38989047Y-16732285D01*
X39027142Y-16884666D01*
X39027142Y-17075142D01*
X38989047Y-17227523D01*
X38950952Y-17303714D01*
X38912857Y-17341809D01*
X38836666Y-17379904D01*
X38760476Y-17379904D01*
X38684285Y-17341809D01*
X38646190Y-17303714D01*
X38608095Y-17227523D01*
X38570000Y-17075142D01*
X38570000Y-16884666D01*
X38608095Y-16732285D01*
X38646190Y-16656095D01*
X38684285Y-16618000D01*
X38760476Y-16579904D01*
X39370000Y-17303714D02*
X39408095Y-17341809D01*
X39370000Y-17379904D01*
X39331904Y-17341809D01*
X39370000Y-17303714D01*
X39370000Y-17379904D01*
X39674761Y-16579904D02*
X40170000Y-16579904D01*
X39903333Y-16884666D01*
X40017619Y-16884666D01*
X40093809Y-16922761D01*
X40131904Y-16960857D01*
X40170000Y-17037047D01*
X40170000Y-17227523D01*
X40131904Y-17303714D01*
X40093809Y-17341809D01*
X40017619Y-17379904D01*
X39789047Y-17379904D01*
X39712857Y-17341809D01*
X39674761Y-17303714D01*
X33680476Y-16579904D02*
X33756666Y-16579904D01*
X33832857Y-16618000D01*
X33870952Y-16656095D01*
X33909047Y-16732285D01*
X33947142Y-16884666D01*
X33947142Y-17075142D01*
X33909047Y-17227523D01*
X33870952Y-17303714D01*
X33832857Y-17341809D01*
X33756666Y-17379904D01*
X33680476Y-17379904D01*
X33604285Y-17341809D01*
X33566190Y-17303714D01*
X33528095Y-17227523D01*
X33490000Y-17075142D01*
X33490000Y-16884666D01*
X33528095Y-16732285D01*
X33566190Y-16656095D01*
X33604285Y-16618000D01*
X33680476Y-16579904D01*
X34290000Y-17303714D02*
X34328095Y-17341809D01*
X34290000Y-17379904D01*
X34251904Y-17341809D01*
X34290000Y-17303714D01*
X34290000Y-17379904D01*
X35051904Y-16579904D02*
X34670952Y-16579904D01*
X34632857Y-16960857D01*
X34670952Y-16922761D01*
X34747142Y-16884666D01*
X34937619Y-16884666D01*
X35013809Y-16922761D01*
X35051904Y-16960857D01*
X35090000Y-17037047D01*
X35090000Y-17227523D01*
X35051904Y-17303714D01*
X35013809Y-17341809D01*
X34937619Y-17379904D01*
X34747142Y-17379904D01*
X34670952Y-17341809D01*
X34632857Y-17303714D01*
X36220476Y-17087904D02*
X36296666Y-17087904D01*
X36372857Y-17126000D01*
X36410952Y-17164095D01*
X36449047Y-17240285D01*
X36487142Y-17392666D01*
X36487142Y-17583142D01*
X36449047Y-17735523D01*
X36410952Y-17811714D01*
X36372857Y-17849809D01*
X36296666Y-17887904D01*
X36220476Y-17887904D01*
X36144285Y-17849809D01*
X36106190Y-17811714D01*
X36068095Y-17735523D01*
X36030000Y-17583142D01*
X36030000Y-17392666D01*
X36068095Y-17240285D01*
X36106190Y-17164095D01*
X36144285Y-17126000D01*
X36220476Y-17087904D01*
X36830000Y-17811714D02*
X36868095Y-17849809D01*
X36830000Y-17887904D01*
X36791904Y-17849809D01*
X36830000Y-17811714D01*
X36830000Y-17887904D01*
X37553809Y-17354571D02*
X37553809Y-17887904D01*
X37363333Y-17049809D02*
X37172857Y-17621238D01*
X37668095Y-17621238D01*
X26060476Y-17087904D02*
X26136666Y-17087904D01*
X26212857Y-17126000D01*
X26250952Y-17164095D01*
X26289047Y-17240285D01*
X26327142Y-17392666D01*
X26327142Y-17583142D01*
X26289047Y-17735523D01*
X26250952Y-17811714D01*
X26212857Y-17849809D01*
X26136666Y-17887904D01*
X26060476Y-17887904D01*
X25984285Y-17849809D01*
X25946190Y-17811714D01*
X25908095Y-17735523D01*
X25870000Y-17583142D01*
X25870000Y-17392666D01*
X25908095Y-17240285D01*
X25946190Y-17164095D01*
X25984285Y-17126000D01*
X26060476Y-17087904D01*
X26670000Y-17811714D02*
X26708095Y-17849809D01*
X26670000Y-17887904D01*
X26631904Y-17849809D01*
X26670000Y-17811714D01*
X26670000Y-17887904D01*
X27165238Y-17430761D02*
X27089047Y-17392666D01*
X27050952Y-17354571D01*
X27012857Y-17278380D01*
X27012857Y-17240285D01*
X27050952Y-17164095D01*
X27089047Y-17126000D01*
X27165238Y-17087904D01*
X27317619Y-17087904D01*
X27393809Y-17126000D01*
X27431904Y-17164095D01*
X27470000Y-17240285D01*
X27470000Y-17278380D01*
X27431904Y-17354571D01*
X27393809Y-17392666D01*
X27317619Y-17430761D01*
X27165238Y-17430761D01*
X27089047Y-17468857D01*
X27050952Y-17506952D01*
X27012857Y-17583142D01*
X27012857Y-17735523D01*
X27050952Y-17811714D01*
X27089047Y-17849809D01*
X27165238Y-17887904D01*
X27317619Y-17887904D01*
X27393809Y-17849809D01*
X27431904Y-17811714D01*
X27470000Y-17735523D01*
X27470000Y-17583142D01*
X27431904Y-17506952D01*
X27393809Y-17468857D01*
X27317619Y-17430761D01*
X31140476Y-17087904D02*
X31216666Y-17087904D01*
X31292857Y-17126000D01*
X31330952Y-17164095D01*
X31369047Y-17240285D01*
X31407142Y-17392666D01*
X31407142Y-17583142D01*
X31369047Y-17735523D01*
X31330952Y-17811714D01*
X31292857Y-17849809D01*
X31216666Y-17887904D01*
X31140476Y-17887904D01*
X31064285Y-17849809D01*
X31026190Y-17811714D01*
X30988095Y-17735523D01*
X30950000Y-17583142D01*
X30950000Y-17392666D01*
X30988095Y-17240285D01*
X31026190Y-17164095D01*
X31064285Y-17126000D01*
X31140476Y-17087904D01*
X31750000Y-17811714D02*
X31788095Y-17849809D01*
X31750000Y-17887904D01*
X31711904Y-17849809D01*
X31750000Y-17811714D01*
X31750000Y-17887904D01*
X32473809Y-17087904D02*
X32321428Y-17087904D01*
X32245238Y-17126000D01*
X32207142Y-17164095D01*
X32130952Y-17278380D01*
X32092857Y-17430761D01*
X32092857Y-17735523D01*
X32130952Y-17811714D01*
X32169047Y-17849809D01*
X32245238Y-17887904D01*
X32397619Y-17887904D01*
X32473809Y-17849809D01*
X32511904Y-17811714D01*
X32550000Y-17735523D01*
X32550000Y-17545047D01*
X32511904Y-17468857D01*
X32473809Y-17430761D01*
X32397619Y-17392666D01*
X32245238Y-17392666D01*
X32169047Y-17430761D01*
X32130952Y-17468857D01*
X32092857Y-17545047D01*
X28600476Y-16579904D02*
X28676666Y-16579904D01*
X28752857Y-16618000D01*
X28790952Y-16656095D01*
X28829047Y-16732285D01*
X28867142Y-16884666D01*
X28867142Y-17075142D01*
X28829047Y-17227523D01*
X28790952Y-17303714D01*
X28752857Y-17341809D01*
X28676666Y-17379904D01*
X28600476Y-17379904D01*
X28524285Y-17341809D01*
X28486190Y-17303714D01*
X28448095Y-17227523D01*
X28410000Y-17075142D01*
X28410000Y-16884666D01*
X28448095Y-16732285D01*
X28486190Y-16656095D01*
X28524285Y-16618000D01*
X28600476Y-16579904D01*
X29210000Y-17303714D02*
X29248095Y-17341809D01*
X29210000Y-17379904D01*
X29171904Y-17341809D01*
X29210000Y-17303714D01*
X29210000Y-17379904D01*
X29514761Y-16579904D02*
X30048095Y-16579904D01*
X29705238Y-17379904D01*
X18707142Y-17379904D02*
X18250000Y-17379904D01*
X18478571Y-17379904D02*
X18478571Y-16579904D01*
X18402380Y-16694190D01*
X18326190Y-16770380D01*
X18250000Y-16808476D01*
X19050000Y-17303714D02*
X19088095Y-17341809D01*
X19050000Y-17379904D01*
X19011904Y-17341809D01*
X19050000Y-17303714D01*
X19050000Y-17379904D01*
X19354761Y-16579904D02*
X19850000Y-16579904D01*
X19583333Y-16884666D01*
X19697619Y-16884666D01*
X19773809Y-16922761D01*
X19811904Y-16960857D01*
X19850000Y-17037047D01*
X19850000Y-17227523D01*
X19811904Y-17303714D01*
X19773809Y-17341809D01*
X19697619Y-17379904D01*
X19469047Y-17379904D01*
X19392857Y-17341809D01*
X19354761Y-17303714D01*
X23787142Y-17379904D02*
X23330000Y-17379904D01*
X23558571Y-17379904D02*
X23558571Y-16579904D01*
X23482380Y-16694190D01*
X23406190Y-16770380D01*
X23330000Y-16808476D01*
X24130000Y-17303714D02*
X24168095Y-17341809D01*
X24130000Y-17379904D01*
X24091904Y-17341809D01*
X24130000Y-17303714D01*
X24130000Y-17379904D01*
X24930000Y-17379904D02*
X24472857Y-17379904D01*
X24701428Y-17379904D02*
X24701428Y-16579904D01*
X24625238Y-16694190D01*
X24549047Y-16770380D01*
X24472857Y-16808476D01*
X21247142Y-17887904D02*
X20790000Y-17887904D01*
X21018571Y-17887904D02*
X21018571Y-17087904D01*
X20942380Y-17202190D01*
X20866190Y-17278380D01*
X20790000Y-17316476D01*
X21590000Y-17811714D02*
X21628095Y-17849809D01*
X21590000Y-17887904D01*
X21551904Y-17849809D01*
X21590000Y-17811714D01*
X21590000Y-17887904D01*
X21932857Y-17164095D02*
X21970952Y-17126000D01*
X22047142Y-17087904D01*
X22237619Y-17087904D01*
X22313809Y-17126000D01*
X22351904Y-17164095D01*
X22390000Y-17240285D01*
X22390000Y-17316476D01*
X22351904Y-17430761D01*
X21894761Y-17887904D01*
X22390000Y-17887904D01*
X16167142Y-17887904D02*
X15710000Y-17887904D01*
X15938571Y-17887904D02*
X15938571Y-17087904D01*
X15862380Y-17202190D01*
X15786190Y-17278380D01*
X15710000Y-17316476D01*
X16510000Y-17811714D02*
X16548095Y-17849809D01*
X16510000Y-17887904D01*
X16471904Y-17849809D01*
X16510000Y-17811714D01*
X16510000Y-17887904D01*
X17233809Y-17354571D02*
X17233809Y-17887904D01*
X17043333Y-17049809D02*
X16852857Y-17621238D01*
X17348095Y-17621238D01*
X13627142Y-17125904D02*
X13170000Y-17125904D01*
X13398571Y-17125904D02*
X13398571Y-16325904D01*
X13322380Y-16440190D01*
X13246190Y-16516380D01*
X13170000Y-16554476D01*
X13970000Y-17049714D02*
X14008095Y-17087809D01*
X13970000Y-17125904D01*
X13931904Y-17087809D01*
X13970000Y-17049714D01*
X13970000Y-17125904D01*
X14731904Y-16325904D02*
X14350952Y-16325904D01*
X14312857Y-16706857D01*
X14350952Y-16668761D01*
X14427142Y-16630666D01*
X14617619Y-16630666D01*
X14693809Y-16668761D01*
X14731904Y-16706857D01*
X14770000Y-16783047D01*
X14770000Y-16973523D01*
X14731904Y-17049714D01*
X14693809Y-17087809D01*
X14617619Y-17125904D01*
X14427142Y-17125904D01*
X14350952Y-17087809D01*
X14312857Y-17049714D01*
X10991904Y-17887904D02*
X10725238Y-17506952D01*
X10534761Y-17887904D02*
X10534761Y-17087904D01*
X10839523Y-17087904D01*
X10915714Y-17126000D01*
X10953809Y-17164095D01*
X10991904Y-17240285D01*
X10991904Y-17354571D01*
X10953809Y-17430761D01*
X10915714Y-17468857D01*
X10839523Y-17506952D01*
X10534761Y-17506952D01*
X11296666Y-17849809D02*
X11410952Y-17887904D01*
X11601428Y-17887904D01*
X11677619Y-17849809D01*
X11715714Y-17811714D01*
X11753809Y-17735523D01*
X11753809Y-17659333D01*
X11715714Y-17583142D01*
X11677619Y-17545047D01*
X11601428Y-17506952D01*
X11449047Y-17468857D01*
X11372857Y-17430761D01*
X11334761Y-17392666D01*
X11296666Y-17316476D01*
X11296666Y-17240285D01*
X11334761Y-17164095D01*
X11372857Y-17126000D01*
X11449047Y-17087904D01*
X11639523Y-17087904D01*
X11753809Y-17126000D01*
X11982380Y-17087904D02*
X12439523Y-17087904D01*
X12210952Y-17887904D02*
X12210952Y-17087904D01*
X5518285Y-10483809D02*
X5632571Y-10521904D01*
X5823047Y-10521904D01*
X5899238Y-10483809D01*
X5937333Y-10445714D01*
X5975428Y-10369523D01*
X5975428Y-10293333D01*
X5937333Y-10217142D01*
X5899238Y-10179047D01*
X5823047Y-10140952D01*
X5670666Y-10102857D01*
X5594476Y-10064761D01*
X5556380Y-10026666D01*
X5518285Y-9950476D01*
X5518285Y-9874285D01*
X5556380Y-9798095D01*
X5594476Y-9760000D01*
X5670666Y-9721904D01*
X5861142Y-9721904D01*
X5975428Y-9760000D01*
X6242095Y-9721904D02*
X6432571Y-10521904D01*
X6584952Y-9950476D01*
X6737333Y-10521904D01*
X6927809Y-9721904D01*
X7232571Y-10521904D02*
X7232571Y-9721904D01*
X7423047Y-9721904D01*
X7537333Y-9760000D01*
X7613523Y-9836190D01*
X7651619Y-9912380D01*
X7689714Y-10064761D01*
X7689714Y-10179047D01*
X7651619Y-10331428D01*
X7613523Y-10407619D01*
X7537333Y-10483809D01*
X7423047Y-10521904D01*
X7232571Y-10521904D01*
X5676952Y-9251904D02*
X5676952Y-8451904D01*
X6210285Y-8451904D02*
X6362666Y-8451904D01*
X6438857Y-8490000D01*
X6515047Y-8566190D01*
X6553142Y-8718571D01*
X6553142Y-8985238D01*
X6515047Y-9137619D01*
X6438857Y-9213809D01*
X6362666Y-9251904D01*
X6210285Y-9251904D01*
X6134095Y-9213809D01*
X6057904Y-9137619D01*
X6019809Y-8985238D01*
X6019809Y-8718571D01*
X6057904Y-8566190D01*
X6134095Y-8490000D01*
X6210285Y-8451904D01*
X5873809Y-11715714D02*
X5835714Y-11753809D01*
X5721428Y-11791904D01*
X5645238Y-11791904D01*
X5530952Y-11753809D01*
X5454761Y-11677619D01*
X5416666Y-11601428D01*
X5378571Y-11449047D01*
X5378571Y-11334761D01*
X5416666Y-11182380D01*
X5454761Y-11106190D01*
X5530952Y-11030000D01*
X5645238Y-10991904D01*
X5721428Y-10991904D01*
X5835714Y-11030000D01*
X5873809Y-11068095D01*
X6597619Y-11791904D02*
X6216666Y-11791904D01*
X6216666Y-10991904D01*
X6864285Y-11791904D02*
X6864285Y-10991904D01*
X7321428Y-11791904D02*
X6978571Y-11334761D01*
X7321428Y-10991904D02*
X6864285Y-11449047D01*
X5442000Y-14579523D02*
X5403904Y-14655714D01*
X5403904Y-14770000D01*
X5442000Y-14884285D01*
X5518190Y-14960476D01*
X5594380Y-14998571D01*
X5746761Y-15036666D01*
X5861047Y-15036666D01*
X6013428Y-14998571D01*
X6089619Y-14960476D01*
X6165809Y-14884285D01*
X6203904Y-14770000D01*
X6203904Y-14693809D01*
X6165809Y-14579523D01*
X6127714Y-14541428D01*
X5861047Y-14541428D01*
X5861047Y-14693809D01*
X6203904Y-14198571D02*
X5403904Y-14198571D01*
X6203904Y-13741428D01*
X5403904Y-13741428D01*
X6203904Y-13360476D02*
X5403904Y-13360476D01*
X5403904Y-13170000D01*
X5442000Y-13055714D01*
X5518190Y-12979523D01*
X5594380Y-12941428D01*
X5746761Y-12903333D01*
X5861047Y-12903333D01*
X6013428Y-12941428D01*
X6089619Y-12979523D01*
X6165809Y-13055714D01*
X6203904Y-13170000D01*
X6203904Y-13360476D01*
X5403904Y-7340476D02*
X5403904Y-6845238D01*
X5708666Y-7111904D01*
X5708666Y-6997619D01*
X5746761Y-6921428D01*
X5784857Y-6883333D01*
X5861047Y-6845238D01*
X6051523Y-6845238D01*
X6127714Y-6883333D01*
X6165809Y-6921428D01*
X6203904Y-6997619D01*
X6203904Y-7226190D01*
X6165809Y-7302380D01*
X6127714Y-7340476D01*
X5403904Y-6616666D02*
X6203904Y-6350000D01*
X5403904Y-6083333D01*
X5403904Y-5892857D02*
X5403904Y-5397619D01*
X5708666Y-5664285D01*
X5708666Y-5550000D01*
X5746761Y-5473809D01*
X5784857Y-5435714D01*
X5861047Y-5397619D01*
X6051523Y-5397619D01*
X6127714Y-5435714D01*
X6165809Y-5473809D01*
X6203904Y-5550000D01*
X6203904Y-5778571D01*
X6165809Y-5854761D01*
X6127714Y-5892857D01*
X51917619Y-17087904D02*
X51536666Y-17087904D01*
X51498571Y-17468857D01*
X51536666Y-17430761D01*
X51612857Y-17392666D01*
X51803333Y-17392666D01*
X51879523Y-17430761D01*
X51917619Y-17468857D01*
X51955714Y-17545047D01*
X51955714Y-17735523D01*
X51917619Y-17811714D01*
X51879523Y-17849809D01*
X51803333Y-17887904D01*
X51612857Y-17887904D01*
X51536666Y-17849809D01*
X51498571Y-17811714D01*
X52184285Y-17087904D02*
X52450952Y-17887904D01*
X52717619Y-17087904D01*
X7899523Y-16325904D02*
X8394761Y-16325904D01*
X8128095Y-16630666D01*
X8242380Y-16630666D01*
X8318571Y-16668761D01*
X8356666Y-16706857D01*
X8394761Y-16783047D01*
X8394761Y-16973523D01*
X8356666Y-17049714D01*
X8318571Y-17087809D01*
X8242380Y-17125904D01*
X8013809Y-17125904D01*
X7937619Y-17087809D01*
X7899523Y-17049714D01*
X8623333Y-16325904D02*
X8890000Y-17125904D01*
X9156666Y-16325904D01*
X9347142Y-16325904D02*
X9842380Y-16325904D01*
X9575714Y-16630666D01*
X9690000Y-16630666D01*
X9766190Y-16668761D01*
X9804285Y-16706857D01*
X9842380Y-16783047D01*
X9842380Y-16973523D01*
X9804285Y-17049714D01*
X9766190Y-17087809D01*
X9690000Y-17125904D01*
X9461428Y-17125904D01*
X9385238Y-17087809D01*
X9347142Y-17049714D01*
X51079523Y-2355904D02*
X51574761Y-2355904D01*
X51308095Y-2660666D01*
X51422380Y-2660666D01*
X51498571Y-2698761D01*
X51536666Y-2736857D01*
X51574761Y-2813047D01*
X51574761Y-3003523D01*
X51536666Y-3079714D01*
X51498571Y-3117809D01*
X51422380Y-3155904D01*
X51193809Y-3155904D01*
X51117619Y-3117809D01*
X51079523Y-3079714D01*
X51803333Y-2355904D02*
X52070000Y-3155904D01*
X52336666Y-2355904D01*
X52527142Y-2355904D02*
X53022380Y-2355904D01*
X52755714Y-2660666D01*
X52870000Y-2660666D01*
X52946190Y-2698761D01*
X52984285Y-2736857D01*
X53022380Y-2813047D01*
X53022380Y-3003523D01*
X52984285Y-3079714D01*
X52946190Y-3117809D01*
X52870000Y-3155904D01*
X52641428Y-3155904D01*
X52565238Y-3117809D01*
X52527142Y-3079714D01*
X8737619Y-3117904D02*
X8356666Y-3117904D01*
X8318571Y-3498857D01*
X8356666Y-3460761D01*
X8432857Y-3422666D01*
X8623333Y-3422666D01*
X8699523Y-3460761D01*
X8737619Y-3498857D01*
X8775714Y-3575047D01*
X8775714Y-3765523D01*
X8737619Y-3841714D01*
X8699523Y-3879809D01*
X8623333Y-3917904D01*
X8432857Y-3917904D01*
X8356666Y-3879809D01*
X8318571Y-3841714D01*
X9004285Y-3117904D02*
X9270952Y-3917904D01*
X9537619Y-3117904D01*
X5740476Y-17126000D02*
X5664285Y-17087904D01*
X5550000Y-17087904D01*
X5435714Y-17126000D01*
X5359523Y-17202190D01*
X5321428Y-17278380D01*
X5283333Y-17430761D01*
X5283333Y-17545047D01*
X5321428Y-17697428D01*
X5359523Y-17773619D01*
X5435714Y-17849809D01*
X5550000Y-17887904D01*
X5626190Y-17887904D01*
X5740476Y-17849809D01*
X5778571Y-17811714D01*
X5778571Y-17545047D01*
X5626190Y-17545047D01*
X6121428Y-17887904D02*
X6121428Y-17087904D01*
X6578571Y-17887904D01*
X6578571Y-17087904D01*
X6959523Y-17887904D02*
X6959523Y-17087904D01*
X7150000Y-17087904D01*
X7264285Y-17126000D01*
X7340476Y-17202190D01*
X7378571Y-17278380D01*
X7416666Y-17430761D01*
X7416666Y-17545047D01*
X7378571Y-17697428D01*
X7340476Y-17773619D01*
X7264285Y-17849809D01*
X7150000Y-17887904D01*
X6959523Y-17887904D01*
X5740476Y-2648000D02*
X5664285Y-2609904D01*
X5550000Y-2609904D01*
X5435714Y-2648000D01*
X5359523Y-2724190D01*
X5321428Y-2800380D01*
X5283333Y-2952761D01*
X5283333Y-3067047D01*
X5321428Y-3219428D01*
X5359523Y-3295619D01*
X5435714Y-3371809D01*
X5550000Y-3409904D01*
X5626190Y-3409904D01*
X5740476Y-3371809D01*
X5778571Y-3333714D01*
X5778571Y-3067047D01*
X5626190Y-3067047D01*
X6121428Y-3409904D02*
X6121428Y-2609904D01*
X6578571Y-3409904D01*
X6578571Y-2609904D01*
X6959523Y-3409904D02*
X6959523Y-2609904D01*
X7150000Y-2609904D01*
X7264285Y-2648000D01*
X7340476Y-2724190D01*
X7378571Y-2800380D01*
X7416666Y-2952761D01*
X7416666Y-3067047D01*
X7378571Y-3219428D01*
X7340476Y-3295619D01*
X7264285Y-3371809D01*
X7150000Y-3409904D01*
X6959523Y-3409904D01*
X53746476Y-17126000D02*
X53670285Y-17087904D01*
X53556000Y-17087904D01*
X53441714Y-17126000D01*
X53365523Y-17202190D01*
X53327428Y-17278380D01*
X53289333Y-17430761D01*
X53289333Y-17545047D01*
X53327428Y-17697428D01*
X53365523Y-17773619D01*
X53441714Y-17849809D01*
X53556000Y-17887904D01*
X53632190Y-17887904D01*
X53746476Y-17849809D01*
X53784571Y-17811714D01*
X53784571Y-17545047D01*
X53632190Y-17545047D01*
X54127428Y-17887904D02*
X54127428Y-17087904D01*
X54584571Y-17887904D01*
X54584571Y-17087904D01*
X54965523Y-17887904D02*
X54965523Y-17087904D01*
X55156000Y-17087904D01*
X55270285Y-17126000D01*
X55346476Y-17202190D01*
X55384571Y-17278380D01*
X55422666Y-17430761D01*
X55422666Y-17545047D01*
X55384571Y-17697428D01*
X55346476Y-17773619D01*
X55270285Y-17849809D01*
X55156000Y-17887904D01*
X54965523Y-17887904D01*
X53746476Y-2902000D02*
X53670285Y-2863904D01*
X53556000Y-2863904D01*
X53441714Y-2902000D01*
X53365523Y-2978190D01*
X53327428Y-3054380D01*
X53289333Y-3206761D01*
X53289333Y-3321047D01*
X53327428Y-3473428D01*
X53365523Y-3549619D01*
X53441714Y-3625809D01*
X53556000Y-3663904D01*
X53632190Y-3663904D01*
X53746476Y-3625809D01*
X53784571Y-3587714D01*
X53784571Y-3321047D01*
X53632190Y-3321047D01*
X54127428Y-3663904D02*
X54127428Y-2863904D01*
X54584571Y-3663904D01*
X54584571Y-2863904D01*
X54965523Y-3663904D02*
X54965523Y-2863904D01*
X55156000Y-2863904D01*
X55270285Y-2902000D01*
X55346476Y-2978190D01*
X55384571Y-3054380D01*
X55422666Y-3206761D01*
X55422666Y-3321047D01*
X55384571Y-3473428D01*
X55346476Y-3549619D01*
X55270285Y-3625809D01*
X55156000Y-3663904D01*
X54965523Y-3663904D01*
D12*
G04 #@! TO.C,C8*
X46641936Y-10562000D02*
X47846064Y-10562000D01*
X46641936Y-8742000D02*
X47846064Y-8742000D01*
G04 #@! TO.C,C11*
X46884000Y-13113936D02*
X46884000Y-14318064D01*
X45064000Y-13113936D02*
X45064000Y-14318064D01*
G04 #@! TO.C,FB2*
X49184779Y-14476000D02*
X48859221Y-14476000D01*
X49184779Y-15496000D02*
X48859221Y-15496000D01*
G04 #@! TO.C,SW1*
X41644000Y-4119000D02*
X47764000Y-4119000D01*
X47764000Y-4119000D02*
X47764000Y-7819000D01*
X47764000Y-7819000D02*
X41644000Y-7819000D01*
X41644000Y-7819000D02*
X41644000Y-4119000D01*
G04 #@! TO.C,C12*
X31528273Y-6104478D02*
X31758478Y-5874273D01*
X32249522Y-6825727D02*
X32479727Y-6595522D01*
G04 #@! TO.C,C14*
X33492221Y-13083000D02*
X33817779Y-13083000D01*
X33492221Y-12063000D02*
X33817779Y-12063000D01*
G04 #@! TO.C,C15*
X22197279Y-7368000D02*
X21871721Y-7368000D01*
X22197279Y-6348000D02*
X21871721Y-6348000D01*
G04 #@! TO.C,C16*
X22832280Y-4506500D02*
X22506720Y-4506500D01*
X22832280Y-5526500D02*
X22506720Y-5526500D01*
G04 #@! TO.C,FB1*
X31463727Y-5579522D02*
X31233522Y-5809727D01*
X30742478Y-4858273D02*
X30512273Y-5088478D01*
G04 #@! TO.C,C5*
X33492221Y-14607000D02*
X33817779Y-14607000D01*
X33492221Y-13587000D02*
X33817779Y-13587000D01*
G04 #@! TO.C,C1*
X15013721Y-9336500D02*
X15339279Y-9336500D01*
X15013721Y-8316500D02*
X15339279Y-8316500D01*
G04 #@! TO.C,C2*
X18450779Y-9336500D02*
X18125221Y-9336500D01*
X18450779Y-8316500D02*
X18125221Y-8316500D01*
G04 #@! TO.C,C3*
X38389779Y-6987000D02*
X38064221Y-6987000D01*
X38389779Y-5967000D02*
X38064221Y-5967000D01*
G04 #@! TO.C,C6*
X34571721Y-10539000D02*
X34897279Y-10539000D01*
X34571721Y-11559000D02*
X34897279Y-11559000D01*
G04 #@! TO.C,C7*
X23433500Y-13997721D02*
X23433500Y-14323279D01*
X22413500Y-13997721D02*
X22413500Y-14323279D01*
G04 #@! TO.C,C9*
X18125221Y-4570000D02*
X18450779Y-4570000D01*
X18125221Y-5590000D02*
X18450779Y-5590000D01*
G04 #@! TO.C,C10*
X18125221Y-7114000D02*
X18450779Y-7114000D01*
X18125221Y-6094000D02*
X18450779Y-6094000D01*
G04 #@! TO.C,J4*
X51577500Y-16346000D02*
X51577500Y-15896000D01*
X53427500Y-16346000D02*
X51577500Y-16346000D01*
X55977500Y-8546000D02*
X55727500Y-8546000D01*
X55977500Y-16346000D02*
X55727500Y-16346000D01*
X53427500Y-8546000D02*
X51577500Y-8546000D01*
X51577500Y-8546000D02*
X51577500Y-8996000D01*
X51027500Y-14146000D02*
X51027500Y-13696000D01*
X51027500Y-14146000D02*
X51477500Y-14146000D01*
G04 #@! TO.C,J5*
X2480000Y-15300000D02*
X5140000Y-15300000D01*
X2480000Y-7620000D02*
X2480000Y-15300000D01*
X5140000Y-7620000D02*
X5140000Y-15300000D01*
X2480000Y-7620000D02*
X5140000Y-7620000D01*
X2480000Y-6350000D02*
X2480000Y-5020000D01*
X2480000Y-5020000D02*
X3810000Y-5020000D01*
G04 #@! TO.C,R2*
X38389779Y-7491000D02*
X38064221Y-7491000D01*
X38389779Y-8511000D02*
X38064221Y-8511000D01*
G04 #@! TO.C,R3*
X51145221Y-5336000D02*
X51470779Y-5336000D01*
X51145221Y-4316000D02*
X51470779Y-4316000D01*
G04 #@! TO.C,R8*
X48859221Y-11428000D02*
X49184779Y-11428000D01*
X48859221Y-12448000D02*
X49184779Y-12448000D01*
G04 #@! TO.C,R9*
X48859221Y-13972000D02*
X49184779Y-13972000D01*
X48859221Y-12952000D02*
X49184779Y-12952000D01*
G04 #@! TO.C,R10*
X51145221Y-7368000D02*
X51470779Y-7368000D01*
X51145221Y-6348000D02*
X51470779Y-6348000D01*
G04 #@! TO.C,Y1*
X9908000Y-10556000D02*
X16308000Y-10556000D01*
X9908000Y-15606000D02*
X16308000Y-15606000D01*
X9908000Y-15606000D02*
G75*
G02X9908000Y-10556000I0J2525000D01*
G01*
X16308000Y-15606000D02*
G75*
G03X16308000Y-10556000I0J2525000D01*
G01*
G04 #@! TO.C,Y2*
X13948000Y-4863500D02*
X7048000Y-4863500D01*
X7048000Y-4863500D02*
X7048000Y-7323500D01*
X7048000Y-7323500D02*
X13948000Y-7323500D01*
X13948000Y-7323500D02*
X13948000Y-4863500D01*
X13948000Y-5743500D02*
X14848000Y-5143500D01*
X14848000Y-5143500D02*
X15048000Y-5143500D01*
X13948000Y-6443500D02*
X14848000Y-7043500D01*
X14848000Y-7043500D02*
X15048000Y-7043500D01*
G04 #@! TO.C,D1*
X55156000Y-4091000D02*
X52871000Y-4091000D01*
X52871000Y-4091000D02*
X52871000Y-5561000D01*
X52871000Y-5561000D02*
X55156000Y-5561000D01*
G04 #@! TO.C,D2*
X52871000Y-7593000D02*
X55156000Y-7593000D01*
X52871000Y-6123000D02*
X52871000Y-7593000D01*
X55156000Y-6123000D02*
X52871000Y-6123000D01*
G04 #@! TO.C,U1*
X22408565Y-10495876D02*
X22072689Y-10160000D01*
X22072689Y-10160000D02*
X22408565Y-9824124D01*
X31947435Y-9824124D02*
X32283311Y-10160000D01*
X32283311Y-10160000D02*
X31947435Y-10495876D01*
X27513876Y-5390565D02*
X27178000Y-5054689D01*
X27178000Y-5054689D02*
X26842124Y-5390565D01*
X26842124Y-14929435D02*
X27178000Y-15265311D01*
G04 #@! TO.C,U2*
X38476000Y-9290000D02*
X38476000Y-10550000D01*
X38476000Y-16110000D02*
X38476000Y-14850000D01*
X42236000Y-9290000D02*
X38476000Y-9290000D01*
X44486000Y-16110000D02*
X38476000Y-16110000D01*
G04 #@! TD*
M02*
