G04 #@! TF.GenerationSoftware,KiCad,Pcbnew,(5.0.2)-1*
G04 #@! TF.CreationDate,2019-03-28T08:34:28+01:00*
G04 #@! TF.ProjectId,mibo48_xmc4,6d69626f-3438-45f7-986d-63342e6b6963,rev?*
G04 #@! TF.SameCoordinates,PX7a53eb0PY5ad6650*
G04 #@! TF.FileFunction,Legend,Bot*
G04 #@! TF.FilePolarity,Positive*
%FSLAX46Y46*%
G04 Gerber Fmt 4.6, Leading zero omitted, Abs format (unit mm)*
G04 Created by KiCad (PCBNEW (5.0.2)-1) date 2019-03-28 08:34:28*
%MOMM*%
%LPD*%
G01*
G04 APERTURE LIST*
%ADD10C,0.200000*%
%ADD11C,0.300000*%
%ADD12C,0.120000*%
G04 APERTURE END LIST*
D10*
X9759904Y-6610666D02*
X8959904Y-6610666D01*
X9264666Y-6610666D02*
X9226571Y-6686857D01*
X9226571Y-6839238D01*
X9264666Y-6915428D01*
X9302761Y-6953523D01*
X9378952Y-6991619D01*
X9607523Y-6991619D01*
X9683714Y-6953523D01*
X9721809Y-6915428D01*
X9759904Y-6839238D01*
X9759904Y-6686857D01*
X9721809Y-6610666D01*
X9226571Y-7258285D02*
X9759904Y-7448761D01*
X9226571Y-7639238D02*
X9759904Y-7448761D01*
X9950380Y-7372571D01*
X9988476Y-7334476D01*
X10026571Y-7258285D01*
X9226571Y-8553523D02*
X9759904Y-8553523D01*
X9302761Y-8553523D02*
X9264666Y-8591619D01*
X9226571Y-8667809D01*
X9226571Y-8782095D01*
X9264666Y-8858285D01*
X9340857Y-8896380D01*
X9759904Y-8896380D01*
X9226571Y-9201142D02*
X9759904Y-9391619D01*
X9226571Y-9582095D01*
X9759904Y-9886857D02*
X9226571Y-9886857D01*
X8959904Y-9886857D02*
X8998000Y-9848761D01*
X9036095Y-9886857D01*
X8998000Y-9924952D01*
X8959904Y-9886857D01*
X9036095Y-9886857D01*
X9226571Y-10153523D02*
X9226571Y-10458285D01*
X8959904Y-10267809D02*
X9645619Y-10267809D01*
X9721809Y-10305904D01*
X9759904Y-10382095D01*
X9759904Y-10458285D01*
X9226571Y-10648761D02*
X9759904Y-10839238D01*
X9226571Y-11029714D02*
X9759904Y-10839238D01*
X9950380Y-10763047D01*
X9988476Y-10724952D01*
X10026571Y-10648761D01*
X9759904Y-11677333D02*
X9340857Y-11677333D01*
X9264666Y-11639238D01*
X9226571Y-11563047D01*
X9226571Y-11410666D01*
X9264666Y-11334476D01*
X9721809Y-11677333D02*
X9759904Y-11601142D01*
X9759904Y-11410666D01*
X9721809Y-11334476D01*
X9645619Y-11296380D01*
X9569428Y-11296380D01*
X9493238Y-11334476D01*
X9455142Y-11410666D01*
X9455142Y-11601142D01*
X9417047Y-11677333D01*
D11*
X7908857Y-4185428D02*
X6708857Y-4185428D01*
X7566000Y-4585428D01*
X6708857Y-4985428D01*
X7908857Y-4985428D01*
X7908857Y-5556857D02*
X6708857Y-5556857D01*
X7280285Y-6528285D02*
X7337428Y-6699714D01*
X7394571Y-6756857D01*
X7508857Y-6814000D01*
X7680285Y-6814000D01*
X7794571Y-6756857D01*
X7851714Y-6699714D01*
X7908857Y-6585428D01*
X7908857Y-6128285D01*
X6708857Y-6128285D01*
X6708857Y-6528285D01*
X6766000Y-6642571D01*
X6823142Y-6699714D01*
X6937428Y-6756857D01*
X7051714Y-6756857D01*
X7166000Y-6699714D01*
X7223142Y-6642571D01*
X7280285Y-6528285D01*
X7280285Y-6128285D01*
X6708857Y-7556857D02*
X6708857Y-7785428D01*
X6766000Y-7899714D01*
X6880285Y-8014000D01*
X7108857Y-8071142D01*
X7508857Y-8071142D01*
X7737428Y-8014000D01*
X7851714Y-7899714D01*
X7908857Y-7785428D01*
X7908857Y-7556857D01*
X7851714Y-7442571D01*
X7737428Y-7328285D01*
X7508857Y-7271142D01*
X7108857Y-7271142D01*
X6880285Y-7328285D01*
X6766000Y-7442571D01*
X6708857Y-7556857D01*
X7108857Y-9099714D02*
X7908857Y-9099714D01*
X6651714Y-8814000D02*
X7508857Y-8528285D01*
X7508857Y-9271142D01*
X7223142Y-9899714D02*
X7166000Y-9785428D01*
X7108857Y-9728285D01*
X6994571Y-9671142D01*
X6937428Y-9671142D01*
X6823142Y-9728285D01*
X6766000Y-9785428D01*
X6708857Y-9899714D01*
X6708857Y-10128285D01*
X6766000Y-10242571D01*
X6823142Y-10299714D01*
X6937428Y-10356857D01*
X6994571Y-10356857D01*
X7108857Y-10299714D01*
X7166000Y-10242571D01*
X7223142Y-10128285D01*
X7223142Y-9899714D01*
X7280285Y-9785428D01*
X7337428Y-9728285D01*
X7451714Y-9671142D01*
X7680285Y-9671142D01*
X7794571Y-9728285D01*
X7851714Y-9785428D01*
X7908857Y-9899714D01*
X7908857Y-10128285D01*
X7851714Y-10242571D01*
X7794571Y-10299714D01*
X7680285Y-10356857D01*
X7451714Y-10356857D01*
X7337428Y-10299714D01*
X7280285Y-10242571D01*
X7223142Y-10128285D01*
X7451714Y-10871142D02*
X7451714Y-11785428D01*
X6708857Y-12242571D02*
X7908857Y-13042571D01*
X6708857Y-13042571D02*
X7908857Y-12242571D01*
X7908857Y-13499714D02*
X6708857Y-13499714D01*
X7566000Y-13899714D01*
X6708857Y-14299714D01*
X7908857Y-14299714D01*
X7794571Y-15556857D02*
X7851714Y-15499714D01*
X7908857Y-15328285D01*
X7908857Y-15214000D01*
X7851714Y-15042571D01*
X7737428Y-14928285D01*
X7623142Y-14871142D01*
X7394571Y-14814000D01*
X7223142Y-14814000D01*
X6994571Y-14871142D01*
X6880285Y-14928285D01*
X6766000Y-15042571D01*
X6708857Y-15214000D01*
X6708857Y-15328285D01*
X6766000Y-15499714D01*
X6823142Y-15556857D01*
X7108857Y-16585428D02*
X7908857Y-16585428D01*
X6651714Y-16299714D02*
X7508857Y-16014000D01*
X7508857Y-16756857D01*
D12*
G04 #@! TO.C,J2*
X5020000Y-17720000D02*
X5020000Y-19050000D01*
X6350000Y-17720000D02*
X5020000Y-17720000D01*
X7620000Y-17720000D02*
X7620000Y-20380000D01*
X7620000Y-20380000D02*
X55940000Y-20380000D01*
X7620000Y-17720000D02*
X55940000Y-17720000D01*
X55940000Y-17720000D02*
X55940000Y-20380000D01*
G04 #@! TO.C,J3*
X55940000Y60000D02*
X55940000Y-2600000D01*
X7620000Y60000D02*
X55940000Y60000D01*
X7620000Y-2600000D02*
X55940000Y-2600000D01*
X7620000Y60000D02*
X7620000Y-2600000D01*
X6350000Y60000D02*
X5020000Y60000D01*
X5020000Y60000D02*
X5020000Y-1270000D01*
G04 #@! TD*
M02*
