M48
;DRILL file {KiCad (5.0.2)-1} date 2019-03-28 08:34:46
;FORMAT={3:3/ absolute / metric / suppress leading zeros}
FMAT,2
METRIC,TZ
T1C0.300
T2C0.500
T3C0.600
T4C0.800
T5C0.850
T6C1.000
%
G90
G05
T1
X11748Y-16192
X13589Y-8826
X16701Y-8826
X19076Y-5842
X19749Y-10731
X19812Y-8826
X20701Y-7683
X20701Y-8700
X21082Y-5017
X22098Y-14923
X22225Y-7468
X23241Y-16002
X23495Y-14097
X23940Y-10160
X24320Y-5017
X25409Y-5889
X25971Y-10160
X27178Y-6922
X27178Y-8954
X27178Y-11367
X27178Y-13399
X28385Y-10160
X30416Y-10160
X30685Y-12616
X30734Y-7683
X31369Y-12256
X31945Y-13495
X32067Y-4318
X32131Y-14478
X33147Y-5207
X34441Y-13318
X35593Y-11924
X35878Y-9081
X36386Y-12700
X36386Y-13335
X36386Y-13970
X37465Y-8826
X38037Y-5588
X41085Y-8700
X41719Y-15431
X41974Y-16828
X43561Y-15000
X44831Y-15000
X45974Y-15116
X48633Y-7104
X48644Y-8255
X50546Y-7811
T2
X44069Y-9144
X48260Y-15811
X15748Y-5143
X15748Y-7044
T4
X10668Y-13081
X15548Y-13081
T5
X51878Y-9946
X51878Y-14946
T6
X3810Y-6350
X3810Y-8890
X3810Y-11430
X3810Y-13970
X6350Y-1270
X8890Y-1270
X11430Y-1270
X13970Y-1270
X16510Y-1270
X19050Y-1270
X21590Y-1270
X24130Y-1270
X26670Y-1270
X29210Y-1270
X31750Y-1270
X34290Y-1270
X36830Y-1270
X39370Y-1270
X41910Y-1270
X44450Y-1270
X46990Y-1270
X49530Y-1270
X52070Y-1270
X54610Y-1270
X6350Y-19050
X8890Y-19050
X11430Y-19050
X13970Y-19050
X16510Y-19050
X19050Y-19050
X21590Y-19050
X24130Y-19050
X26670Y-19050
X29210Y-19050
X31750Y-19050
X34290Y-19050
X36830Y-19050
X39370Y-19050
X41910Y-19050
X44450Y-19050
X46990Y-19050
X49530Y-19050
X52070Y-19050
X54610Y-19050
T3
X54228Y-8946G85X54928Y-8946
G05
X54928Y-15946G85X54228Y-15946
G05
T0
M30
