G04 #@! TF.GenerationSoftware,KiCad,Pcbnew,(5.0.2)-1*
G04 #@! TF.CreationDate,2019-03-28T08:34:28+01:00*
G04 #@! TF.ProjectId,mibo48_xmc4,6d69626f-3438-45f7-986d-63342e6b6963,rev?*
G04 #@! TF.SameCoordinates,PX7a53eb0PY5ad6650*
G04 #@! TF.FileFunction,Copper,L1,Top*
G04 #@! TF.FilePolarity,Positive*
%FSLAX46Y46*%
G04 Gerber Fmt 4.6, Leading zero omitted, Abs format (unit mm)*
G04 Created by KiCad (PCBNEW (5.0.2)-1) date 2019-03-28 08:34:28*
%MOMM*%
%LPD*%
G01*
G04 APERTURE LIST*
G04 #@! TA.AperFunction,Conductor*
%ADD10C,0.100000*%
G04 #@! TD*
G04 #@! TA.AperFunction,SMDPad,CuDef*
%ADD11C,1.250000*%
G04 #@! TD*
G04 #@! TA.AperFunction,SMDPad,CuDef*
%ADD12C,0.875000*%
G04 #@! TD*
G04 #@! TA.AperFunction,SMDPad,CuDef*
%ADD13R,1.500000X1.500000*%
G04 #@! TD*
G04 #@! TA.AperFunction,ComponentPad*
%ADD14O,1.700000X1.700000*%
G04 #@! TD*
G04 #@! TA.AperFunction,ComponentPad*
%ADD15R,1.700000X1.700000*%
G04 #@! TD*
G04 #@! TA.AperFunction,SMDPad,CuDef*
%ADD16R,1.900000X1.500000*%
G04 #@! TD*
G04 #@! TA.AperFunction,ComponentPad*
%ADD17C,1.450000*%
G04 #@! TD*
G04 #@! TA.AperFunction,SMDPad,CuDef*
%ADD18R,1.350000X0.400000*%
G04 #@! TD*
G04 #@! TA.AperFunction,ComponentPad*
%ADD19O,1.900000X1.200000*%
G04 #@! TD*
G04 #@! TA.AperFunction,SMDPad,CuDef*
%ADD20R,1.900000X1.200000*%
G04 #@! TD*
G04 #@! TA.AperFunction,ComponentPad*
%ADD21C,1.500000*%
G04 #@! TD*
G04 #@! TA.AperFunction,ComponentPad*
%ADD22C,1.000000*%
G04 #@! TD*
G04 #@! TA.AperFunction,SMDPad,CuDef*
%ADD23C,5.300000*%
G04 #@! TD*
G04 #@! TA.AperFunction,SMDPad,CuDef*
%ADD24C,0.250000*%
G04 #@! TD*
G04 #@! TA.AperFunction,SMDPad,CuDef*
%ADD25R,2.000000X3.800000*%
G04 #@! TD*
G04 #@! TA.AperFunction,SMDPad,CuDef*
%ADD26R,2.000000X1.500000*%
G04 #@! TD*
G04 #@! TA.AperFunction,ViaPad*
%ADD27C,0.600000*%
G04 #@! TD*
G04 #@! TA.AperFunction,ViaPad*
%ADD28C,0.800000*%
G04 #@! TD*
G04 #@! TA.AperFunction,Conductor*
%ADD29C,0.152000*%
G04 #@! TD*
G04 #@! TA.AperFunction,Conductor*
%ADD30C,0.500000*%
G04 #@! TD*
G04 #@! TA.AperFunction,Conductor*
%ADD31C,1.000000*%
G04 #@! TD*
G04 #@! TA.AperFunction,Conductor*
%ADD32C,0.400000*%
G04 #@! TD*
G04 #@! TA.AperFunction,Conductor*
%ADD33C,0.300000*%
G04 #@! TD*
G04 APERTURE END LIST*
D10*
G04 #@! TO.N,GND*
G04 #@! TO.C,C8*
G36*
X49043504Y-8778204D02*
X49067773Y-8781804D01*
X49091571Y-8787765D01*
X49114671Y-8796030D01*
X49136849Y-8806520D01*
X49157893Y-8819133D01*
X49177598Y-8833747D01*
X49195777Y-8850223D01*
X49212253Y-8868402D01*
X49226867Y-8888107D01*
X49239480Y-8909151D01*
X49249970Y-8931329D01*
X49258235Y-8954429D01*
X49264196Y-8978227D01*
X49267796Y-9002496D01*
X49269000Y-9027000D01*
X49269000Y-10277000D01*
X49267796Y-10301504D01*
X49264196Y-10325773D01*
X49258235Y-10349571D01*
X49249970Y-10372671D01*
X49239480Y-10394849D01*
X49226867Y-10415893D01*
X49212253Y-10435598D01*
X49195777Y-10453777D01*
X49177598Y-10470253D01*
X49157893Y-10484867D01*
X49136849Y-10497480D01*
X49114671Y-10507970D01*
X49091571Y-10516235D01*
X49067773Y-10522196D01*
X49043504Y-10525796D01*
X49019000Y-10527000D01*
X48269000Y-10527000D01*
X48244496Y-10525796D01*
X48220227Y-10522196D01*
X48196429Y-10516235D01*
X48173329Y-10507970D01*
X48151151Y-10497480D01*
X48130107Y-10484867D01*
X48110402Y-10470253D01*
X48092223Y-10453777D01*
X48075747Y-10435598D01*
X48061133Y-10415893D01*
X48048520Y-10394849D01*
X48038030Y-10372671D01*
X48029765Y-10349571D01*
X48023804Y-10325773D01*
X48020204Y-10301504D01*
X48019000Y-10277000D01*
X48019000Y-9027000D01*
X48020204Y-9002496D01*
X48023804Y-8978227D01*
X48029765Y-8954429D01*
X48038030Y-8931329D01*
X48048520Y-8909151D01*
X48061133Y-8888107D01*
X48075747Y-8868402D01*
X48092223Y-8850223D01*
X48110402Y-8833747D01*
X48130107Y-8819133D01*
X48151151Y-8806520D01*
X48173329Y-8796030D01*
X48196429Y-8787765D01*
X48220227Y-8781804D01*
X48244496Y-8778204D01*
X48269000Y-8777000D01*
X49019000Y-8777000D01*
X49043504Y-8778204D01*
X49043504Y-8778204D01*
G37*
D11*
G04 #@! TD*
G04 #@! TO.P,C8,2*
G04 #@! TO.N,GND*
X48644000Y-9652000D03*
D10*
G04 #@! TO.N,/5V*
G04 #@! TO.C,C8*
G36*
X46243504Y-8778204D02*
X46267773Y-8781804D01*
X46291571Y-8787765D01*
X46314671Y-8796030D01*
X46336849Y-8806520D01*
X46357893Y-8819133D01*
X46377598Y-8833747D01*
X46395777Y-8850223D01*
X46412253Y-8868402D01*
X46426867Y-8888107D01*
X46439480Y-8909151D01*
X46449970Y-8931329D01*
X46458235Y-8954429D01*
X46464196Y-8978227D01*
X46467796Y-9002496D01*
X46469000Y-9027000D01*
X46469000Y-10277000D01*
X46467796Y-10301504D01*
X46464196Y-10325773D01*
X46458235Y-10349571D01*
X46449970Y-10372671D01*
X46439480Y-10394849D01*
X46426867Y-10415893D01*
X46412253Y-10435598D01*
X46395777Y-10453777D01*
X46377598Y-10470253D01*
X46357893Y-10484867D01*
X46336849Y-10497480D01*
X46314671Y-10507970D01*
X46291571Y-10516235D01*
X46267773Y-10522196D01*
X46243504Y-10525796D01*
X46219000Y-10527000D01*
X45469000Y-10527000D01*
X45444496Y-10525796D01*
X45420227Y-10522196D01*
X45396429Y-10516235D01*
X45373329Y-10507970D01*
X45351151Y-10497480D01*
X45330107Y-10484867D01*
X45310402Y-10470253D01*
X45292223Y-10453777D01*
X45275747Y-10435598D01*
X45261133Y-10415893D01*
X45248520Y-10394849D01*
X45238030Y-10372671D01*
X45229765Y-10349571D01*
X45223804Y-10325773D01*
X45220204Y-10301504D01*
X45219000Y-10277000D01*
X45219000Y-9027000D01*
X45220204Y-9002496D01*
X45223804Y-8978227D01*
X45229765Y-8954429D01*
X45238030Y-8931329D01*
X45248520Y-8909151D01*
X45261133Y-8888107D01*
X45275747Y-8868402D01*
X45292223Y-8850223D01*
X45310402Y-8833747D01*
X45330107Y-8819133D01*
X45351151Y-8806520D01*
X45373329Y-8796030D01*
X45396429Y-8787765D01*
X45420227Y-8781804D01*
X45444496Y-8778204D01*
X45469000Y-8777000D01*
X46219000Y-8777000D01*
X46243504Y-8778204D01*
X46243504Y-8778204D01*
G37*
D11*
G04 #@! TD*
G04 #@! TO.P,C8,1*
G04 #@! TO.N,/5V*
X45844000Y-9652000D03*
D10*
G04 #@! TO.N,+3V3*
G04 #@! TO.C,C11*
G36*
X46623504Y-11692204D02*
X46647773Y-11695804D01*
X46671571Y-11701765D01*
X46694671Y-11710030D01*
X46716849Y-11720520D01*
X46737893Y-11733133D01*
X46757598Y-11747747D01*
X46775777Y-11764223D01*
X46792253Y-11782402D01*
X46806867Y-11802107D01*
X46819480Y-11823151D01*
X46829970Y-11845329D01*
X46838235Y-11868429D01*
X46844196Y-11892227D01*
X46847796Y-11916496D01*
X46849000Y-11941000D01*
X46849000Y-12691000D01*
X46847796Y-12715504D01*
X46844196Y-12739773D01*
X46838235Y-12763571D01*
X46829970Y-12786671D01*
X46819480Y-12808849D01*
X46806867Y-12829893D01*
X46792253Y-12849598D01*
X46775777Y-12867777D01*
X46757598Y-12884253D01*
X46737893Y-12898867D01*
X46716849Y-12911480D01*
X46694671Y-12921970D01*
X46671571Y-12930235D01*
X46647773Y-12936196D01*
X46623504Y-12939796D01*
X46599000Y-12941000D01*
X45349000Y-12941000D01*
X45324496Y-12939796D01*
X45300227Y-12936196D01*
X45276429Y-12930235D01*
X45253329Y-12921970D01*
X45231151Y-12911480D01*
X45210107Y-12898867D01*
X45190402Y-12884253D01*
X45172223Y-12867777D01*
X45155747Y-12849598D01*
X45141133Y-12829893D01*
X45128520Y-12808849D01*
X45118030Y-12786671D01*
X45109765Y-12763571D01*
X45103804Y-12739773D01*
X45100204Y-12715504D01*
X45099000Y-12691000D01*
X45099000Y-11941000D01*
X45100204Y-11916496D01*
X45103804Y-11892227D01*
X45109765Y-11868429D01*
X45118030Y-11845329D01*
X45128520Y-11823151D01*
X45141133Y-11802107D01*
X45155747Y-11782402D01*
X45172223Y-11764223D01*
X45190402Y-11747747D01*
X45210107Y-11733133D01*
X45231151Y-11720520D01*
X45253329Y-11710030D01*
X45276429Y-11701765D01*
X45300227Y-11695804D01*
X45324496Y-11692204D01*
X45349000Y-11691000D01*
X46599000Y-11691000D01*
X46623504Y-11692204D01*
X46623504Y-11692204D01*
G37*
D11*
G04 #@! TD*
G04 #@! TO.P,C11,1*
G04 #@! TO.N,+3V3*
X45974000Y-12316000D03*
D10*
G04 #@! TO.N,GND*
G04 #@! TO.C,C11*
G36*
X46623504Y-14492204D02*
X46647773Y-14495804D01*
X46671571Y-14501765D01*
X46694671Y-14510030D01*
X46716849Y-14520520D01*
X46737893Y-14533133D01*
X46757598Y-14547747D01*
X46775777Y-14564223D01*
X46792253Y-14582402D01*
X46806867Y-14602107D01*
X46819480Y-14623151D01*
X46829970Y-14645329D01*
X46838235Y-14668429D01*
X46844196Y-14692227D01*
X46847796Y-14716496D01*
X46849000Y-14741000D01*
X46849000Y-15491000D01*
X46847796Y-15515504D01*
X46844196Y-15539773D01*
X46838235Y-15563571D01*
X46829970Y-15586671D01*
X46819480Y-15608849D01*
X46806867Y-15629893D01*
X46792253Y-15649598D01*
X46775777Y-15667777D01*
X46757598Y-15684253D01*
X46737893Y-15698867D01*
X46716849Y-15711480D01*
X46694671Y-15721970D01*
X46671571Y-15730235D01*
X46647773Y-15736196D01*
X46623504Y-15739796D01*
X46599000Y-15741000D01*
X45349000Y-15741000D01*
X45324496Y-15739796D01*
X45300227Y-15736196D01*
X45276429Y-15730235D01*
X45253329Y-15721970D01*
X45231151Y-15711480D01*
X45210107Y-15698867D01*
X45190402Y-15684253D01*
X45172223Y-15667777D01*
X45155747Y-15649598D01*
X45141133Y-15629893D01*
X45128520Y-15608849D01*
X45118030Y-15586671D01*
X45109765Y-15563571D01*
X45103804Y-15539773D01*
X45100204Y-15515504D01*
X45099000Y-15491000D01*
X45099000Y-14741000D01*
X45100204Y-14716496D01*
X45103804Y-14692227D01*
X45109765Y-14668429D01*
X45118030Y-14645329D01*
X45128520Y-14623151D01*
X45141133Y-14602107D01*
X45155747Y-14582402D01*
X45172223Y-14564223D01*
X45190402Y-14547747D01*
X45210107Y-14533133D01*
X45231151Y-14520520D01*
X45253329Y-14510030D01*
X45276429Y-14501765D01*
X45300227Y-14495804D01*
X45324496Y-14492204D01*
X45349000Y-14491000D01*
X46599000Y-14491000D01*
X46623504Y-14492204D01*
X46623504Y-14492204D01*
G37*
D11*
G04 #@! TD*
G04 #@! TO.P,C11,2*
G04 #@! TO.N,GND*
X45974000Y-15116000D03*
D10*
G04 #@! TO.N,/5V*
G04 #@! TO.C,FB2*
G36*
X48474691Y-14512053D02*
X48495926Y-14515203D01*
X48516750Y-14520419D01*
X48536962Y-14527651D01*
X48556368Y-14536830D01*
X48574781Y-14547866D01*
X48592024Y-14560654D01*
X48607930Y-14575070D01*
X48622346Y-14590976D01*
X48635134Y-14608219D01*
X48646170Y-14626632D01*
X48655349Y-14646038D01*
X48662581Y-14666250D01*
X48667797Y-14687074D01*
X48670947Y-14708309D01*
X48672000Y-14729750D01*
X48672000Y-15242250D01*
X48670947Y-15263691D01*
X48667797Y-15284926D01*
X48662581Y-15305750D01*
X48655349Y-15325962D01*
X48646170Y-15345368D01*
X48635134Y-15363781D01*
X48622346Y-15381024D01*
X48607930Y-15396930D01*
X48592024Y-15411346D01*
X48574781Y-15424134D01*
X48556368Y-15435170D01*
X48536962Y-15444349D01*
X48516750Y-15451581D01*
X48495926Y-15456797D01*
X48474691Y-15459947D01*
X48453250Y-15461000D01*
X48015750Y-15461000D01*
X47994309Y-15459947D01*
X47973074Y-15456797D01*
X47952250Y-15451581D01*
X47932038Y-15444349D01*
X47912632Y-15435170D01*
X47894219Y-15424134D01*
X47876976Y-15411346D01*
X47861070Y-15396930D01*
X47846654Y-15381024D01*
X47833866Y-15363781D01*
X47822830Y-15345368D01*
X47813651Y-15325962D01*
X47806419Y-15305750D01*
X47801203Y-15284926D01*
X47798053Y-15263691D01*
X47797000Y-15242250D01*
X47797000Y-14729750D01*
X47798053Y-14708309D01*
X47801203Y-14687074D01*
X47806419Y-14666250D01*
X47813651Y-14646038D01*
X47822830Y-14626632D01*
X47833866Y-14608219D01*
X47846654Y-14590976D01*
X47861070Y-14575070D01*
X47876976Y-14560654D01*
X47894219Y-14547866D01*
X47912632Y-14536830D01*
X47932038Y-14527651D01*
X47952250Y-14520419D01*
X47973074Y-14515203D01*
X47994309Y-14512053D01*
X48015750Y-14511000D01*
X48453250Y-14511000D01*
X48474691Y-14512053D01*
X48474691Y-14512053D01*
G37*
D12*
G04 #@! TD*
G04 #@! TO.P,FB2,2*
G04 #@! TO.N,/5V*
X48234500Y-14986000D03*
D10*
G04 #@! TO.N,Net-(FB2-Pad1)*
G04 #@! TO.C,FB2*
G36*
X50049691Y-14512053D02*
X50070926Y-14515203D01*
X50091750Y-14520419D01*
X50111962Y-14527651D01*
X50131368Y-14536830D01*
X50149781Y-14547866D01*
X50167024Y-14560654D01*
X50182930Y-14575070D01*
X50197346Y-14590976D01*
X50210134Y-14608219D01*
X50221170Y-14626632D01*
X50230349Y-14646038D01*
X50237581Y-14666250D01*
X50242797Y-14687074D01*
X50245947Y-14708309D01*
X50247000Y-14729750D01*
X50247000Y-15242250D01*
X50245947Y-15263691D01*
X50242797Y-15284926D01*
X50237581Y-15305750D01*
X50230349Y-15325962D01*
X50221170Y-15345368D01*
X50210134Y-15363781D01*
X50197346Y-15381024D01*
X50182930Y-15396930D01*
X50167024Y-15411346D01*
X50149781Y-15424134D01*
X50131368Y-15435170D01*
X50111962Y-15444349D01*
X50091750Y-15451581D01*
X50070926Y-15456797D01*
X50049691Y-15459947D01*
X50028250Y-15461000D01*
X49590750Y-15461000D01*
X49569309Y-15459947D01*
X49548074Y-15456797D01*
X49527250Y-15451581D01*
X49507038Y-15444349D01*
X49487632Y-15435170D01*
X49469219Y-15424134D01*
X49451976Y-15411346D01*
X49436070Y-15396930D01*
X49421654Y-15381024D01*
X49408866Y-15363781D01*
X49397830Y-15345368D01*
X49388651Y-15325962D01*
X49381419Y-15305750D01*
X49376203Y-15284926D01*
X49373053Y-15263691D01*
X49372000Y-15242250D01*
X49372000Y-14729750D01*
X49373053Y-14708309D01*
X49376203Y-14687074D01*
X49381419Y-14666250D01*
X49388651Y-14646038D01*
X49397830Y-14626632D01*
X49408866Y-14608219D01*
X49421654Y-14590976D01*
X49436070Y-14575070D01*
X49451976Y-14560654D01*
X49469219Y-14547866D01*
X49487632Y-14536830D01*
X49507038Y-14527651D01*
X49527250Y-14520419D01*
X49548074Y-14515203D01*
X49569309Y-14512053D01*
X49590750Y-14511000D01*
X50028250Y-14511000D01*
X50049691Y-14512053D01*
X50049691Y-14512053D01*
G37*
D12*
G04 #@! TD*
G04 #@! TO.P,FB2,1*
G04 #@! TO.N,Net-(FB2-Pad1)*
X49809500Y-14986000D03*
D13*
G04 #@! TO.P,SW1,1*
G04 #@! TO.N,/RESET*
X40804000Y-5969000D03*
G04 #@! TO.P,SW1,2*
G04 #@! TO.N,GND*
X48604000Y-5969000D03*
G04 #@! TD*
D14*
G04 #@! TO.P,J2,20*
G04 #@! TO.N,GND*
X54610000Y-19050000D03*
G04 #@! TO.P,J2,19*
G04 #@! TO.N,/5V*
X52070000Y-19050000D03*
G04 #@! TO.P,J2,18*
G04 #@! TO.N,/HIB_IO*
X49530000Y-19050000D03*
G04 #@! TO.P,J2,17*
G04 #@! TO.N,/P0.0*
X46990000Y-19050000D03*
G04 #@! TO.P,J2,16*
G04 #@! TO.N,/P0.1*
X44450000Y-19050000D03*
G04 #@! TO.P,J2,15*
G04 #@! TO.N,/P0.2*
X41910000Y-19050000D03*
G04 #@! TO.P,J2,14*
G04 #@! TO.N,/P0.3*
X39370000Y-19050000D03*
G04 #@! TO.P,J2,13*
G04 #@! TO.N,/P0.4*
X36830000Y-19050000D03*
G04 #@! TO.P,J2,12*
G04 #@! TO.N,/P0.5*
X34290000Y-19050000D03*
G04 #@! TO.P,J2,11*
G04 #@! TO.N,/P0.6*
X31750000Y-19050000D03*
G04 #@! TO.P,J2,10*
G04 #@! TO.N,/P0.7*
X29210000Y-19050000D03*
G04 #@! TO.P,J2,9*
G04 #@! TO.N,/P0.8*
X26670000Y-19050000D03*
G04 #@! TO.P,J2,8*
G04 #@! TO.N,/P1.1*
X24130000Y-19050000D03*
G04 #@! TO.P,J2,7*
G04 #@! TO.N,/P1.2*
X21590000Y-19050000D03*
G04 #@! TO.P,J2,6*
G04 #@! TO.N,/P1.3*
X19050000Y-19050000D03*
G04 #@! TO.P,J2,5*
G04 #@! TO.N,/P1.4*
X16510000Y-19050000D03*
G04 #@! TO.P,J2,4*
G04 #@! TO.N,/P1.5*
X13970000Y-19050000D03*
G04 #@! TO.P,J2,3*
G04 #@! TO.N,/RESET*
X11430000Y-19050000D03*
G04 #@! TO.P,J2,2*
G04 #@! TO.N,+3V3*
X8890000Y-19050000D03*
D15*
G04 #@! TO.P,J2,1*
G04 #@! TO.N,GND*
X6350000Y-19050000D03*
G04 #@! TD*
D10*
G04 #@! TO.N,/VDDA*
G04 #@! TO.C,C12*
G36*
X31442077Y-6353274D02*
X31463312Y-6356424D01*
X31484136Y-6361640D01*
X31504348Y-6368872D01*
X31523754Y-6378051D01*
X31542167Y-6389087D01*
X31559410Y-6401875D01*
X31575316Y-6416291D01*
X31937709Y-6778684D01*
X31952125Y-6794590D01*
X31964913Y-6811833D01*
X31975949Y-6830246D01*
X31985128Y-6849652D01*
X31992360Y-6869864D01*
X31997576Y-6890688D01*
X32000726Y-6911923D01*
X32001779Y-6933364D01*
X32000726Y-6954805D01*
X31997576Y-6976040D01*
X31992360Y-6996864D01*
X31985128Y-7017076D01*
X31975949Y-7036482D01*
X31964913Y-7054895D01*
X31952125Y-7072138D01*
X31937709Y-7088044D01*
X31628350Y-7397403D01*
X31612444Y-7411819D01*
X31595201Y-7424607D01*
X31576788Y-7435643D01*
X31557382Y-7444822D01*
X31537170Y-7452054D01*
X31516346Y-7457270D01*
X31495111Y-7460420D01*
X31473670Y-7461473D01*
X31452229Y-7460420D01*
X31430994Y-7457270D01*
X31410170Y-7452054D01*
X31389958Y-7444822D01*
X31370552Y-7435643D01*
X31352139Y-7424607D01*
X31334896Y-7411819D01*
X31318990Y-7397403D01*
X30956597Y-7035010D01*
X30942181Y-7019104D01*
X30929393Y-7001861D01*
X30918357Y-6983448D01*
X30909178Y-6964042D01*
X30901946Y-6943830D01*
X30896730Y-6923006D01*
X30893580Y-6901771D01*
X30892527Y-6880330D01*
X30893580Y-6858889D01*
X30896730Y-6837654D01*
X30901946Y-6816830D01*
X30909178Y-6796618D01*
X30918357Y-6777212D01*
X30929393Y-6758799D01*
X30942181Y-6741556D01*
X30956597Y-6725650D01*
X31265956Y-6416291D01*
X31281862Y-6401875D01*
X31299105Y-6389087D01*
X31317518Y-6378051D01*
X31336924Y-6368872D01*
X31357136Y-6361640D01*
X31377960Y-6356424D01*
X31399195Y-6353274D01*
X31420636Y-6352221D01*
X31442077Y-6353274D01*
X31442077Y-6353274D01*
G37*
D12*
G04 #@! TD*
G04 #@! TO.P,C12,1*
G04 #@! TO.N,/VDDA*
X31447153Y-6906847D03*
D10*
G04 #@! TO.N,GND*
G04 #@! TO.C,C12*
G36*
X32555771Y-5239580D02*
X32577006Y-5242730D01*
X32597830Y-5247946D01*
X32618042Y-5255178D01*
X32637448Y-5264357D01*
X32655861Y-5275393D01*
X32673104Y-5288181D01*
X32689010Y-5302597D01*
X33051403Y-5664990D01*
X33065819Y-5680896D01*
X33078607Y-5698139D01*
X33089643Y-5716552D01*
X33098822Y-5735958D01*
X33106054Y-5756170D01*
X33111270Y-5776994D01*
X33114420Y-5798229D01*
X33115473Y-5819670D01*
X33114420Y-5841111D01*
X33111270Y-5862346D01*
X33106054Y-5883170D01*
X33098822Y-5903382D01*
X33089643Y-5922788D01*
X33078607Y-5941201D01*
X33065819Y-5958444D01*
X33051403Y-5974350D01*
X32742044Y-6283709D01*
X32726138Y-6298125D01*
X32708895Y-6310913D01*
X32690482Y-6321949D01*
X32671076Y-6331128D01*
X32650864Y-6338360D01*
X32630040Y-6343576D01*
X32608805Y-6346726D01*
X32587364Y-6347779D01*
X32565923Y-6346726D01*
X32544688Y-6343576D01*
X32523864Y-6338360D01*
X32503652Y-6331128D01*
X32484246Y-6321949D01*
X32465833Y-6310913D01*
X32448590Y-6298125D01*
X32432684Y-6283709D01*
X32070291Y-5921316D01*
X32055875Y-5905410D01*
X32043087Y-5888167D01*
X32032051Y-5869754D01*
X32022872Y-5850348D01*
X32015640Y-5830136D01*
X32010424Y-5809312D01*
X32007274Y-5788077D01*
X32006221Y-5766636D01*
X32007274Y-5745195D01*
X32010424Y-5723960D01*
X32015640Y-5703136D01*
X32022872Y-5682924D01*
X32032051Y-5663518D01*
X32043087Y-5645105D01*
X32055875Y-5627862D01*
X32070291Y-5611956D01*
X32379650Y-5302597D01*
X32395556Y-5288181D01*
X32412799Y-5275393D01*
X32431212Y-5264357D01*
X32450618Y-5255178D01*
X32470830Y-5247946D01*
X32491654Y-5242730D01*
X32512889Y-5239580D01*
X32534330Y-5238527D01*
X32555771Y-5239580D01*
X32555771Y-5239580D01*
G37*
D12*
G04 #@! TD*
G04 #@! TO.P,C12,2*
G04 #@! TO.N,GND*
X32560847Y-5793153D03*
D10*
G04 #@! TO.N,GND*
G04 #@! TO.C,C14*
G36*
X34682691Y-12099053D02*
X34703926Y-12102203D01*
X34724750Y-12107419D01*
X34744962Y-12114651D01*
X34764368Y-12123830D01*
X34782781Y-12134866D01*
X34800024Y-12147654D01*
X34815930Y-12162070D01*
X34830346Y-12177976D01*
X34843134Y-12195219D01*
X34854170Y-12213632D01*
X34863349Y-12233038D01*
X34870581Y-12253250D01*
X34875797Y-12274074D01*
X34878947Y-12295309D01*
X34880000Y-12316750D01*
X34880000Y-12829250D01*
X34878947Y-12850691D01*
X34875797Y-12871926D01*
X34870581Y-12892750D01*
X34863349Y-12912962D01*
X34854170Y-12932368D01*
X34843134Y-12950781D01*
X34830346Y-12968024D01*
X34815930Y-12983930D01*
X34800024Y-12998346D01*
X34782781Y-13011134D01*
X34764368Y-13022170D01*
X34744962Y-13031349D01*
X34724750Y-13038581D01*
X34703926Y-13043797D01*
X34682691Y-13046947D01*
X34661250Y-13048000D01*
X34223750Y-13048000D01*
X34202309Y-13046947D01*
X34181074Y-13043797D01*
X34160250Y-13038581D01*
X34140038Y-13031349D01*
X34120632Y-13022170D01*
X34102219Y-13011134D01*
X34084976Y-12998346D01*
X34069070Y-12983930D01*
X34054654Y-12968024D01*
X34041866Y-12950781D01*
X34030830Y-12932368D01*
X34021651Y-12912962D01*
X34014419Y-12892750D01*
X34009203Y-12871926D01*
X34006053Y-12850691D01*
X34005000Y-12829250D01*
X34005000Y-12316750D01*
X34006053Y-12295309D01*
X34009203Y-12274074D01*
X34014419Y-12253250D01*
X34021651Y-12233038D01*
X34030830Y-12213632D01*
X34041866Y-12195219D01*
X34054654Y-12177976D01*
X34069070Y-12162070D01*
X34084976Y-12147654D01*
X34102219Y-12134866D01*
X34120632Y-12123830D01*
X34140038Y-12114651D01*
X34160250Y-12107419D01*
X34181074Y-12102203D01*
X34202309Y-12099053D01*
X34223750Y-12098000D01*
X34661250Y-12098000D01*
X34682691Y-12099053D01*
X34682691Y-12099053D01*
G37*
D12*
G04 #@! TD*
G04 #@! TO.P,C14,2*
G04 #@! TO.N,GND*
X34442500Y-12573000D03*
D10*
G04 #@! TO.N,/1V2*
G04 #@! TO.C,C14*
G36*
X33107691Y-12099053D02*
X33128926Y-12102203D01*
X33149750Y-12107419D01*
X33169962Y-12114651D01*
X33189368Y-12123830D01*
X33207781Y-12134866D01*
X33225024Y-12147654D01*
X33240930Y-12162070D01*
X33255346Y-12177976D01*
X33268134Y-12195219D01*
X33279170Y-12213632D01*
X33288349Y-12233038D01*
X33295581Y-12253250D01*
X33300797Y-12274074D01*
X33303947Y-12295309D01*
X33305000Y-12316750D01*
X33305000Y-12829250D01*
X33303947Y-12850691D01*
X33300797Y-12871926D01*
X33295581Y-12892750D01*
X33288349Y-12912962D01*
X33279170Y-12932368D01*
X33268134Y-12950781D01*
X33255346Y-12968024D01*
X33240930Y-12983930D01*
X33225024Y-12998346D01*
X33207781Y-13011134D01*
X33189368Y-13022170D01*
X33169962Y-13031349D01*
X33149750Y-13038581D01*
X33128926Y-13043797D01*
X33107691Y-13046947D01*
X33086250Y-13048000D01*
X32648750Y-13048000D01*
X32627309Y-13046947D01*
X32606074Y-13043797D01*
X32585250Y-13038581D01*
X32565038Y-13031349D01*
X32545632Y-13022170D01*
X32527219Y-13011134D01*
X32509976Y-12998346D01*
X32494070Y-12983930D01*
X32479654Y-12968024D01*
X32466866Y-12950781D01*
X32455830Y-12932368D01*
X32446651Y-12912962D01*
X32439419Y-12892750D01*
X32434203Y-12871926D01*
X32431053Y-12850691D01*
X32430000Y-12829250D01*
X32430000Y-12316750D01*
X32431053Y-12295309D01*
X32434203Y-12274074D01*
X32439419Y-12253250D01*
X32446651Y-12233038D01*
X32455830Y-12213632D01*
X32466866Y-12195219D01*
X32479654Y-12177976D01*
X32494070Y-12162070D01*
X32509976Y-12147654D01*
X32527219Y-12134866D01*
X32545632Y-12123830D01*
X32565038Y-12114651D01*
X32585250Y-12107419D01*
X32606074Y-12102203D01*
X32627309Y-12099053D01*
X32648750Y-12098000D01*
X33086250Y-12098000D01*
X33107691Y-12099053D01*
X33107691Y-12099053D01*
G37*
D12*
G04 #@! TD*
G04 #@! TO.P,C14,1*
G04 #@! TO.N,/1V2*
X32867500Y-12573000D03*
D10*
G04 #@! TO.N,/1V2*
G04 #@! TO.C,C15*
G36*
X23062191Y-6384053D02*
X23083426Y-6387203D01*
X23104250Y-6392419D01*
X23124462Y-6399651D01*
X23143868Y-6408830D01*
X23162281Y-6419866D01*
X23179524Y-6432654D01*
X23195430Y-6447070D01*
X23209846Y-6462976D01*
X23222634Y-6480219D01*
X23233670Y-6498632D01*
X23242849Y-6518038D01*
X23250081Y-6538250D01*
X23255297Y-6559074D01*
X23258447Y-6580309D01*
X23259500Y-6601750D01*
X23259500Y-7114250D01*
X23258447Y-7135691D01*
X23255297Y-7156926D01*
X23250081Y-7177750D01*
X23242849Y-7197962D01*
X23233670Y-7217368D01*
X23222634Y-7235781D01*
X23209846Y-7253024D01*
X23195430Y-7268930D01*
X23179524Y-7283346D01*
X23162281Y-7296134D01*
X23143868Y-7307170D01*
X23124462Y-7316349D01*
X23104250Y-7323581D01*
X23083426Y-7328797D01*
X23062191Y-7331947D01*
X23040750Y-7333000D01*
X22603250Y-7333000D01*
X22581809Y-7331947D01*
X22560574Y-7328797D01*
X22539750Y-7323581D01*
X22519538Y-7316349D01*
X22500132Y-7307170D01*
X22481719Y-7296134D01*
X22464476Y-7283346D01*
X22448570Y-7268930D01*
X22434154Y-7253024D01*
X22421366Y-7235781D01*
X22410330Y-7217368D01*
X22401151Y-7197962D01*
X22393919Y-7177750D01*
X22388703Y-7156926D01*
X22385553Y-7135691D01*
X22384500Y-7114250D01*
X22384500Y-6601750D01*
X22385553Y-6580309D01*
X22388703Y-6559074D01*
X22393919Y-6538250D01*
X22401151Y-6518038D01*
X22410330Y-6498632D01*
X22421366Y-6480219D01*
X22434154Y-6462976D01*
X22448570Y-6447070D01*
X22464476Y-6432654D01*
X22481719Y-6419866D01*
X22500132Y-6408830D01*
X22519538Y-6399651D01*
X22539750Y-6392419D01*
X22560574Y-6387203D01*
X22581809Y-6384053D01*
X22603250Y-6383000D01*
X23040750Y-6383000D01*
X23062191Y-6384053D01*
X23062191Y-6384053D01*
G37*
D12*
G04 #@! TD*
G04 #@! TO.P,C15,1*
G04 #@! TO.N,/1V2*
X22822000Y-6858000D03*
D10*
G04 #@! TO.N,GND*
G04 #@! TO.C,C15*
G36*
X21487191Y-6384053D02*
X21508426Y-6387203D01*
X21529250Y-6392419D01*
X21549462Y-6399651D01*
X21568868Y-6408830D01*
X21587281Y-6419866D01*
X21604524Y-6432654D01*
X21620430Y-6447070D01*
X21634846Y-6462976D01*
X21647634Y-6480219D01*
X21658670Y-6498632D01*
X21667849Y-6518038D01*
X21675081Y-6538250D01*
X21680297Y-6559074D01*
X21683447Y-6580309D01*
X21684500Y-6601750D01*
X21684500Y-7114250D01*
X21683447Y-7135691D01*
X21680297Y-7156926D01*
X21675081Y-7177750D01*
X21667849Y-7197962D01*
X21658670Y-7217368D01*
X21647634Y-7235781D01*
X21634846Y-7253024D01*
X21620430Y-7268930D01*
X21604524Y-7283346D01*
X21587281Y-7296134D01*
X21568868Y-7307170D01*
X21549462Y-7316349D01*
X21529250Y-7323581D01*
X21508426Y-7328797D01*
X21487191Y-7331947D01*
X21465750Y-7333000D01*
X21028250Y-7333000D01*
X21006809Y-7331947D01*
X20985574Y-7328797D01*
X20964750Y-7323581D01*
X20944538Y-7316349D01*
X20925132Y-7307170D01*
X20906719Y-7296134D01*
X20889476Y-7283346D01*
X20873570Y-7268930D01*
X20859154Y-7253024D01*
X20846366Y-7235781D01*
X20835330Y-7217368D01*
X20826151Y-7197962D01*
X20818919Y-7177750D01*
X20813703Y-7156926D01*
X20810553Y-7135691D01*
X20809500Y-7114250D01*
X20809500Y-6601750D01*
X20810553Y-6580309D01*
X20813703Y-6559074D01*
X20818919Y-6538250D01*
X20826151Y-6518038D01*
X20835330Y-6498632D01*
X20846366Y-6480219D01*
X20859154Y-6462976D01*
X20873570Y-6447070D01*
X20889476Y-6432654D01*
X20906719Y-6419866D01*
X20925132Y-6408830D01*
X20944538Y-6399651D01*
X20964750Y-6392419D01*
X20985574Y-6387203D01*
X21006809Y-6384053D01*
X21028250Y-6383000D01*
X21465750Y-6383000D01*
X21487191Y-6384053D01*
X21487191Y-6384053D01*
G37*
D12*
G04 #@! TD*
G04 #@! TO.P,C15,2*
G04 #@! TO.N,GND*
X21247000Y-6858000D03*
D10*
G04 #@! TO.N,GND*
G04 #@! TO.C,C16*
G36*
X22122190Y-4542553D02*
X22143425Y-4545703D01*
X22164249Y-4550919D01*
X22184461Y-4558151D01*
X22203867Y-4567330D01*
X22222280Y-4578366D01*
X22239523Y-4591154D01*
X22255429Y-4605570D01*
X22269845Y-4621476D01*
X22282633Y-4638719D01*
X22293669Y-4657132D01*
X22302848Y-4676538D01*
X22310080Y-4696750D01*
X22315296Y-4717574D01*
X22318446Y-4738809D01*
X22319499Y-4760250D01*
X22319499Y-5272750D01*
X22318446Y-5294191D01*
X22315296Y-5315426D01*
X22310080Y-5336250D01*
X22302848Y-5356462D01*
X22293669Y-5375868D01*
X22282633Y-5394281D01*
X22269845Y-5411524D01*
X22255429Y-5427430D01*
X22239523Y-5441846D01*
X22222280Y-5454634D01*
X22203867Y-5465670D01*
X22184461Y-5474849D01*
X22164249Y-5482081D01*
X22143425Y-5487297D01*
X22122190Y-5490447D01*
X22100749Y-5491500D01*
X21663249Y-5491500D01*
X21641808Y-5490447D01*
X21620573Y-5487297D01*
X21599749Y-5482081D01*
X21579537Y-5474849D01*
X21560131Y-5465670D01*
X21541718Y-5454634D01*
X21524475Y-5441846D01*
X21508569Y-5427430D01*
X21494153Y-5411524D01*
X21481365Y-5394281D01*
X21470329Y-5375868D01*
X21461150Y-5356462D01*
X21453918Y-5336250D01*
X21448702Y-5315426D01*
X21445552Y-5294191D01*
X21444499Y-5272750D01*
X21444499Y-4760250D01*
X21445552Y-4738809D01*
X21448702Y-4717574D01*
X21453918Y-4696750D01*
X21461150Y-4676538D01*
X21470329Y-4657132D01*
X21481365Y-4638719D01*
X21494153Y-4621476D01*
X21508569Y-4605570D01*
X21524475Y-4591154D01*
X21541718Y-4578366D01*
X21560131Y-4567330D01*
X21579537Y-4558151D01*
X21599749Y-4550919D01*
X21620573Y-4545703D01*
X21641808Y-4542553D01*
X21663249Y-4541500D01*
X22100749Y-4541500D01*
X22122190Y-4542553D01*
X22122190Y-4542553D01*
G37*
D12*
G04 #@! TD*
G04 #@! TO.P,C16,2*
G04 #@! TO.N,GND*
X21881999Y-5016500D03*
D10*
G04 #@! TO.N,+3V3*
G04 #@! TO.C,C16*
G36*
X23697192Y-4542553D02*
X23718427Y-4545703D01*
X23739251Y-4550919D01*
X23759463Y-4558151D01*
X23778869Y-4567330D01*
X23797282Y-4578366D01*
X23814525Y-4591154D01*
X23830431Y-4605570D01*
X23844847Y-4621476D01*
X23857635Y-4638719D01*
X23868671Y-4657132D01*
X23877850Y-4676538D01*
X23885082Y-4696750D01*
X23890298Y-4717574D01*
X23893448Y-4738809D01*
X23894501Y-4760250D01*
X23894501Y-5272750D01*
X23893448Y-5294191D01*
X23890298Y-5315426D01*
X23885082Y-5336250D01*
X23877850Y-5356462D01*
X23868671Y-5375868D01*
X23857635Y-5394281D01*
X23844847Y-5411524D01*
X23830431Y-5427430D01*
X23814525Y-5441846D01*
X23797282Y-5454634D01*
X23778869Y-5465670D01*
X23759463Y-5474849D01*
X23739251Y-5482081D01*
X23718427Y-5487297D01*
X23697192Y-5490447D01*
X23675751Y-5491500D01*
X23238251Y-5491500D01*
X23216810Y-5490447D01*
X23195575Y-5487297D01*
X23174751Y-5482081D01*
X23154539Y-5474849D01*
X23135133Y-5465670D01*
X23116720Y-5454634D01*
X23099477Y-5441846D01*
X23083571Y-5427430D01*
X23069155Y-5411524D01*
X23056367Y-5394281D01*
X23045331Y-5375868D01*
X23036152Y-5356462D01*
X23028920Y-5336250D01*
X23023704Y-5315426D01*
X23020554Y-5294191D01*
X23019501Y-5272750D01*
X23019501Y-4760250D01*
X23020554Y-4738809D01*
X23023704Y-4717574D01*
X23028920Y-4696750D01*
X23036152Y-4676538D01*
X23045331Y-4657132D01*
X23056367Y-4638719D01*
X23069155Y-4621476D01*
X23083571Y-4605570D01*
X23099477Y-4591154D01*
X23116720Y-4578366D01*
X23135133Y-4567330D01*
X23154539Y-4558151D01*
X23174751Y-4550919D01*
X23195575Y-4545703D01*
X23216810Y-4542553D01*
X23238251Y-4541500D01*
X23675751Y-4541500D01*
X23697192Y-4542553D01*
X23697192Y-4542553D01*
G37*
D12*
G04 #@! TD*
G04 #@! TO.P,C16,1*
G04 #@! TO.N,+3V3*
X23457001Y-5016500D03*
D10*
G04 #@! TO.N,+3V3*
G04 #@! TO.C,FB1*
G36*
X31539771Y-4223580D02*
X31561006Y-4226730D01*
X31581830Y-4231946D01*
X31602042Y-4239178D01*
X31621448Y-4248357D01*
X31639861Y-4259393D01*
X31657104Y-4272181D01*
X31673010Y-4286597D01*
X32035403Y-4648990D01*
X32049819Y-4664896D01*
X32062607Y-4682139D01*
X32073643Y-4700552D01*
X32082822Y-4719958D01*
X32090054Y-4740170D01*
X32095270Y-4760994D01*
X32098420Y-4782229D01*
X32099473Y-4803670D01*
X32098420Y-4825111D01*
X32095270Y-4846346D01*
X32090054Y-4867170D01*
X32082822Y-4887382D01*
X32073643Y-4906788D01*
X32062607Y-4925201D01*
X32049819Y-4942444D01*
X32035403Y-4958350D01*
X31726044Y-5267709D01*
X31710138Y-5282125D01*
X31692895Y-5294913D01*
X31674482Y-5305949D01*
X31655076Y-5315128D01*
X31634864Y-5322360D01*
X31614040Y-5327576D01*
X31592805Y-5330726D01*
X31571364Y-5331779D01*
X31549923Y-5330726D01*
X31528688Y-5327576D01*
X31507864Y-5322360D01*
X31487652Y-5315128D01*
X31468246Y-5305949D01*
X31449833Y-5294913D01*
X31432590Y-5282125D01*
X31416684Y-5267709D01*
X31054291Y-4905316D01*
X31039875Y-4889410D01*
X31027087Y-4872167D01*
X31016051Y-4853754D01*
X31006872Y-4834348D01*
X30999640Y-4814136D01*
X30994424Y-4793312D01*
X30991274Y-4772077D01*
X30990221Y-4750636D01*
X30991274Y-4729195D01*
X30994424Y-4707960D01*
X30999640Y-4687136D01*
X31006872Y-4666924D01*
X31016051Y-4647518D01*
X31027087Y-4629105D01*
X31039875Y-4611862D01*
X31054291Y-4595956D01*
X31363650Y-4286597D01*
X31379556Y-4272181D01*
X31396799Y-4259393D01*
X31415212Y-4248357D01*
X31434618Y-4239178D01*
X31454830Y-4231946D01*
X31475654Y-4226730D01*
X31496889Y-4223580D01*
X31518330Y-4222527D01*
X31539771Y-4223580D01*
X31539771Y-4223580D01*
G37*
D12*
G04 #@! TD*
G04 #@! TO.P,FB1,1*
G04 #@! TO.N,+3V3*
X31544847Y-4777153D03*
D10*
G04 #@! TO.N,/VDDA*
G04 #@! TO.C,FB1*
G36*
X30426077Y-5337274D02*
X30447312Y-5340424D01*
X30468136Y-5345640D01*
X30488348Y-5352872D01*
X30507754Y-5362051D01*
X30526167Y-5373087D01*
X30543410Y-5385875D01*
X30559316Y-5400291D01*
X30921709Y-5762684D01*
X30936125Y-5778590D01*
X30948913Y-5795833D01*
X30959949Y-5814246D01*
X30969128Y-5833652D01*
X30976360Y-5853864D01*
X30981576Y-5874688D01*
X30984726Y-5895923D01*
X30985779Y-5917364D01*
X30984726Y-5938805D01*
X30981576Y-5960040D01*
X30976360Y-5980864D01*
X30969128Y-6001076D01*
X30959949Y-6020482D01*
X30948913Y-6038895D01*
X30936125Y-6056138D01*
X30921709Y-6072044D01*
X30612350Y-6381403D01*
X30596444Y-6395819D01*
X30579201Y-6408607D01*
X30560788Y-6419643D01*
X30541382Y-6428822D01*
X30521170Y-6436054D01*
X30500346Y-6441270D01*
X30479111Y-6444420D01*
X30457670Y-6445473D01*
X30436229Y-6444420D01*
X30414994Y-6441270D01*
X30394170Y-6436054D01*
X30373958Y-6428822D01*
X30354552Y-6419643D01*
X30336139Y-6408607D01*
X30318896Y-6395819D01*
X30302990Y-6381403D01*
X29940597Y-6019010D01*
X29926181Y-6003104D01*
X29913393Y-5985861D01*
X29902357Y-5967448D01*
X29893178Y-5948042D01*
X29885946Y-5927830D01*
X29880730Y-5907006D01*
X29877580Y-5885771D01*
X29876527Y-5864330D01*
X29877580Y-5842889D01*
X29880730Y-5821654D01*
X29885946Y-5800830D01*
X29893178Y-5780618D01*
X29902357Y-5761212D01*
X29913393Y-5742799D01*
X29926181Y-5725556D01*
X29940597Y-5709650D01*
X30249956Y-5400291D01*
X30265862Y-5385875D01*
X30283105Y-5373087D01*
X30301518Y-5362051D01*
X30320924Y-5352872D01*
X30341136Y-5345640D01*
X30361960Y-5340424D01*
X30383195Y-5337274D01*
X30404636Y-5336221D01*
X30426077Y-5337274D01*
X30426077Y-5337274D01*
G37*
D12*
G04 #@! TD*
G04 #@! TO.P,FB1,2*
G04 #@! TO.N,/VDDA*
X30431153Y-5890847D03*
D10*
G04 #@! TO.N,GND*
G04 #@! TO.C,C5*
G36*
X34682691Y-13623053D02*
X34703926Y-13626203D01*
X34724750Y-13631419D01*
X34744962Y-13638651D01*
X34764368Y-13647830D01*
X34782781Y-13658866D01*
X34800024Y-13671654D01*
X34815930Y-13686070D01*
X34830346Y-13701976D01*
X34843134Y-13719219D01*
X34854170Y-13737632D01*
X34863349Y-13757038D01*
X34870581Y-13777250D01*
X34875797Y-13798074D01*
X34878947Y-13819309D01*
X34880000Y-13840750D01*
X34880000Y-14353250D01*
X34878947Y-14374691D01*
X34875797Y-14395926D01*
X34870581Y-14416750D01*
X34863349Y-14436962D01*
X34854170Y-14456368D01*
X34843134Y-14474781D01*
X34830346Y-14492024D01*
X34815930Y-14507930D01*
X34800024Y-14522346D01*
X34782781Y-14535134D01*
X34764368Y-14546170D01*
X34744962Y-14555349D01*
X34724750Y-14562581D01*
X34703926Y-14567797D01*
X34682691Y-14570947D01*
X34661250Y-14572000D01*
X34223750Y-14572000D01*
X34202309Y-14570947D01*
X34181074Y-14567797D01*
X34160250Y-14562581D01*
X34140038Y-14555349D01*
X34120632Y-14546170D01*
X34102219Y-14535134D01*
X34084976Y-14522346D01*
X34069070Y-14507930D01*
X34054654Y-14492024D01*
X34041866Y-14474781D01*
X34030830Y-14456368D01*
X34021651Y-14436962D01*
X34014419Y-14416750D01*
X34009203Y-14395926D01*
X34006053Y-14374691D01*
X34005000Y-14353250D01*
X34005000Y-13840750D01*
X34006053Y-13819309D01*
X34009203Y-13798074D01*
X34014419Y-13777250D01*
X34021651Y-13757038D01*
X34030830Y-13737632D01*
X34041866Y-13719219D01*
X34054654Y-13701976D01*
X34069070Y-13686070D01*
X34084976Y-13671654D01*
X34102219Y-13658866D01*
X34120632Y-13647830D01*
X34140038Y-13638651D01*
X34160250Y-13631419D01*
X34181074Y-13626203D01*
X34202309Y-13623053D01*
X34223750Y-13622000D01*
X34661250Y-13622000D01*
X34682691Y-13623053D01*
X34682691Y-13623053D01*
G37*
D12*
G04 #@! TD*
G04 #@! TO.P,C5,2*
G04 #@! TO.N,GND*
X34442500Y-14097000D03*
D10*
G04 #@! TO.N,+3V3*
G04 #@! TO.C,C5*
G36*
X33107691Y-13623053D02*
X33128926Y-13626203D01*
X33149750Y-13631419D01*
X33169962Y-13638651D01*
X33189368Y-13647830D01*
X33207781Y-13658866D01*
X33225024Y-13671654D01*
X33240930Y-13686070D01*
X33255346Y-13701976D01*
X33268134Y-13719219D01*
X33279170Y-13737632D01*
X33288349Y-13757038D01*
X33295581Y-13777250D01*
X33300797Y-13798074D01*
X33303947Y-13819309D01*
X33305000Y-13840750D01*
X33305000Y-14353250D01*
X33303947Y-14374691D01*
X33300797Y-14395926D01*
X33295581Y-14416750D01*
X33288349Y-14436962D01*
X33279170Y-14456368D01*
X33268134Y-14474781D01*
X33255346Y-14492024D01*
X33240930Y-14507930D01*
X33225024Y-14522346D01*
X33207781Y-14535134D01*
X33189368Y-14546170D01*
X33169962Y-14555349D01*
X33149750Y-14562581D01*
X33128926Y-14567797D01*
X33107691Y-14570947D01*
X33086250Y-14572000D01*
X32648750Y-14572000D01*
X32627309Y-14570947D01*
X32606074Y-14567797D01*
X32585250Y-14562581D01*
X32565038Y-14555349D01*
X32545632Y-14546170D01*
X32527219Y-14535134D01*
X32509976Y-14522346D01*
X32494070Y-14507930D01*
X32479654Y-14492024D01*
X32466866Y-14474781D01*
X32455830Y-14456368D01*
X32446651Y-14436962D01*
X32439419Y-14416750D01*
X32434203Y-14395926D01*
X32431053Y-14374691D01*
X32430000Y-14353250D01*
X32430000Y-13840750D01*
X32431053Y-13819309D01*
X32434203Y-13798074D01*
X32439419Y-13777250D01*
X32446651Y-13757038D01*
X32455830Y-13737632D01*
X32466866Y-13719219D01*
X32479654Y-13701976D01*
X32494070Y-13686070D01*
X32509976Y-13671654D01*
X32527219Y-13658866D01*
X32545632Y-13647830D01*
X32565038Y-13638651D01*
X32585250Y-13631419D01*
X32606074Y-13626203D01*
X32627309Y-13623053D01*
X32648750Y-13622000D01*
X33086250Y-13622000D01*
X33107691Y-13623053D01*
X33107691Y-13623053D01*
G37*
D12*
G04 #@! TD*
G04 #@! TO.P,C5,1*
G04 #@! TO.N,+3V3*
X32867500Y-14097000D03*
D10*
G04 #@! TO.N,GND*
G04 #@! TO.C,C1*
G36*
X16204191Y-8352553D02*
X16225426Y-8355703D01*
X16246250Y-8360919D01*
X16266462Y-8368151D01*
X16285868Y-8377330D01*
X16304281Y-8388366D01*
X16321524Y-8401154D01*
X16337430Y-8415570D01*
X16351846Y-8431476D01*
X16364634Y-8448719D01*
X16375670Y-8467132D01*
X16384849Y-8486538D01*
X16392081Y-8506750D01*
X16397297Y-8527574D01*
X16400447Y-8548809D01*
X16401500Y-8570250D01*
X16401500Y-9082750D01*
X16400447Y-9104191D01*
X16397297Y-9125426D01*
X16392081Y-9146250D01*
X16384849Y-9166462D01*
X16375670Y-9185868D01*
X16364634Y-9204281D01*
X16351846Y-9221524D01*
X16337430Y-9237430D01*
X16321524Y-9251846D01*
X16304281Y-9264634D01*
X16285868Y-9275670D01*
X16266462Y-9284849D01*
X16246250Y-9292081D01*
X16225426Y-9297297D01*
X16204191Y-9300447D01*
X16182750Y-9301500D01*
X15745250Y-9301500D01*
X15723809Y-9300447D01*
X15702574Y-9297297D01*
X15681750Y-9292081D01*
X15661538Y-9284849D01*
X15642132Y-9275670D01*
X15623719Y-9264634D01*
X15606476Y-9251846D01*
X15590570Y-9237430D01*
X15576154Y-9221524D01*
X15563366Y-9204281D01*
X15552330Y-9185868D01*
X15543151Y-9166462D01*
X15535919Y-9146250D01*
X15530703Y-9125426D01*
X15527553Y-9104191D01*
X15526500Y-9082750D01*
X15526500Y-8570250D01*
X15527553Y-8548809D01*
X15530703Y-8527574D01*
X15535919Y-8506750D01*
X15543151Y-8486538D01*
X15552330Y-8467132D01*
X15563366Y-8448719D01*
X15576154Y-8431476D01*
X15590570Y-8415570D01*
X15606476Y-8401154D01*
X15623719Y-8388366D01*
X15642132Y-8377330D01*
X15661538Y-8368151D01*
X15681750Y-8360919D01*
X15702574Y-8355703D01*
X15723809Y-8352553D01*
X15745250Y-8351500D01*
X16182750Y-8351500D01*
X16204191Y-8352553D01*
X16204191Y-8352553D01*
G37*
D12*
G04 #@! TD*
G04 #@! TO.P,C1,2*
G04 #@! TO.N,GND*
X15964000Y-8826500D03*
D10*
G04 #@! TO.N,/OSC_IN*
G04 #@! TO.C,C1*
G36*
X14629191Y-8352553D02*
X14650426Y-8355703D01*
X14671250Y-8360919D01*
X14691462Y-8368151D01*
X14710868Y-8377330D01*
X14729281Y-8388366D01*
X14746524Y-8401154D01*
X14762430Y-8415570D01*
X14776846Y-8431476D01*
X14789634Y-8448719D01*
X14800670Y-8467132D01*
X14809849Y-8486538D01*
X14817081Y-8506750D01*
X14822297Y-8527574D01*
X14825447Y-8548809D01*
X14826500Y-8570250D01*
X14826500Y-9082750D01*
X14825447Y-9104191D01*
X14822297Y-9125426D01*
X14817081Y-9146250D01*
X14809849Y-9166462D01*
X14800670Y-9185868D01*
X14789634Y-9204281D01*
X14776846Y-9221524D01*
X14762430Y-9237430D01*
X14746524Y-9251846D01*
X14729281Y-9264634D01*
X14710868Y-9275670D01*
X14691462Y-9284849D01*
X14671250Y-9292081D01*
X14650426Y-9297297D01*
X14629191Y-9300447D01*
X14607750Y-9301500D01*
X14170250Y-9301500D01*
X14148809Y-9300447D01*
X14127574Y-9297297D01*
X14106750Y-9292081D01*
X14086538Y-9284849D01*
X14067132Y-9275670D01*
X14048719Y-9264634D01*
X14031476Y-9251846D01*
X14015570Y-9237430D01*
X14001154Y-9221524D01*
X13988366Y-9204281D01*
X13977330Y-9185868D01*
X13968151Y-9166462D01*
X13960919Y-9146250D01*
X13955703Y-9125426D01*
X13952553Y-9104191D01*
X13951500Y-9082750D01*
X13951500Y-8570250D01*
X13952553Y-8548809D01*
X13955703Y-8527574D01*
X13960919Y-8506750D01*
X13968151Y-8486538D01*
X13977330Y-8467132D01*
X13988366Y-8448719D01*
X14001154Y-8431476D01*
X14015570Y-8415570D01*
X14031476Y-8401154D01*
X14048719Y-8388366D01*
X14067132Y-8377330D01*
X14086538Y-8368151D01*
X14106750Y-8360919D01*
X14127574Y-8355703D01*
X14148809Y-8352553D01*
X14170250Y-8351500D01*
X14607750Y-8351500D01*
X14629191Y-8352553D01*
X14629191Y-8352553D01*
G37*
D12*
G04 #@! TD*
G04 #@! TO.P,C1,1*
G04 #@! TO.N,/OSC_IN*
X14389000Y-8826500D03*
D10*
G04 #@! TO.N,/OSC_OUT*
G04 #@! TO.C,C2*
G36*
X19315691Y-8352553D02*
X19336926Y-8355703D01*
X19357750Y-8360919D01*
X19377962Y-8368151D01*
X19397368Y-8377330D01*
X19415781Y-8388366D01*
X19433024Y-8401154D01*
X19448930Y-8415570D01*
X19463346Y-8431476D01*
X19476134Y-8448719D01*
X19487170Y-8467132D01*
X19496349Y-8486538D01*
X19503581Y-8506750D01*
X19508797Y-8527574D01*
X19511947Y-8548809D01*
X19513000Y-8570250D01*
X19513000Y-9082750D01*
X19511947Y-9104191D01*
X19508797Y-9125426D01*
X19503581Y-9146250D01*
X19496349Y-9166462D01*
X19487170Y-9185868D01*
X19476134Y-9204281D01*
X19463346Y-9221524D01*
X19448930Y-9237430D01*
X19433024Y-9251846D01*
X19415781Y-9264634D01*
X19397368Y-9275670D01*
X19377962Y-9284849D01*
X19357750Y-9292081D01*
X19336926Y-9297297D01*
X19315691Y-9300447D01*
X19294250Y-9301500D01*
X18856750Y-9301500D01*
X18835309Y-9300447D01*
X18814074Y-9297297D01*
X18793250Y-9292081D01*
X18773038Y-9284849D01*
X18753632Y-9275670D01*
X18735219Y-9264634D01*
X18717976Y-9251846D01*
X18702070Y-9237430D01*
X18687654Y-9221524D01*
X18674866Y-9204281D01*
X18663830Y-9185868D01*
X18654651Y-9166462D01*
X18647419Y-9146250D01*
X18642203Y-9125426D01*
X18639053Y-9104191D01*
X18638000Y-9082750D01*
X18638000Y-8570250D01*
X18639053Y-8548809D01*
X18642203Y-8527574D01*
X18647419Y-8506750D01*
X18654651Y-8486538D01*
X18663830Y-8467132D01*
X18674866Y-8448719D01*
X18687654Y-8431476D01*
X18702070Y-8415570D01*
X18717976Y-8401154D01*
X18735219Y-8388366D01*
X18753632Y-8377330D01*
X18773038Y-8368151D01*
X18793250Y-8360919D01*
X18814074Y-8355703D01*
X18835309Y-8352553D01*
X18856750Y-8351500D01*
X19294250Y-8351500D01*
X19315691Y-8352553D01*
X19315691Y-8352553D01*
G37*
D12*
G04 #@! TD*
G04 #@! TO.P,C2,1*
G04 #@! TO.N,/OSC_OUT*
X19075500Y-8826500D03*
D10*
G04 #@! TO.N,GND*
G04 #@! TO.C,C2*
G36*
X17740691Y-8352553D02*
X17761926Y-8355703D01*
X17782750Y-8360919D01*
X17802962Y-8368151D01*
X17822368Y-8377330D01*
X17840781Y-8388366D01*
X17858024Y-8401154D01*
X17873930Y-8415570D01*
X17888346Y-8431476D01*
X17901134Y-8448719D01*
X17912170Y-8467132D01*
X17921349Y-8486538D01*
X17928581Y-8506750D01*
X17933797Y-8527574D01*
X17936947Y-8548809D01*
X17938000Y-8570250D01*
X17938000Y-9082750D01*
X17936947Y-9104191D01*
X17933797Y-9125426D01*
X17928581Y-9146250D01*
X17921349Y-9166462D01*
X17912170Y-9185868D01*
X17901134Y-9204281D01*
X17888346Y-9221524D01*
X17873930Y-9237430D01*
X17858024Y-9251846D01*
X17840781Y-9264634D01*
X17822368Y-9275670D01*
X17802962Y-9284849D01*
X17782750Y-9292081D01*
X17761926Y-9297297D01*
X17740691Y-9300447D01*
X17719250Y-9301500D01*
X17281750Y-9301500D01*
X17260309Y-9300447D01*
X17239074Y-9297297D01*
X17218250Y-9292081D01*
X17198038Y-9284849D01*
X17178632Y-9275670D01*
X17160219Y-9264634D01*
X17142976Y-9251846D01*
X17127070Y-9237430D01*
X17112654Y-9221524D01*
X17099866Y-9204281D01*
X17088830Y-9185868D01*
X17079651Y-9166462D01*
X17072419Y-9146250D01*
X17067203Y-9125426D01*
X17064053Y-9104191D01*
X17063000Y-9082750D01*
X17063000Y-8570250D01*
X17064053Y-8548809D01*
X17067203Y-8527574D01*
X17072419Y-8506750D01*
X17079651Y-8486538D01*
X17088830Y-8467132D01*
X17099866Y-8448719D01*
X17112654Y-8431476D01*
X17127070Y-8415570D01*
X17142976Y-8401154D01*
X17160219Y-8388366D01*
X17178632Y-8377330D01*
X17198038Y-8368151D01*
X17218250Y-8360919D01*
X17239074Y-8355703D01*
X17260309Y-8352553D01*
X17281750Y-8351500D01*
X17719250Y-8351500D01*
X17740691Y-8352553D01*
X17740691Y-8352553D01*
G37*
D12*
G04 #@! TD*
G04 #@! TO.P,C2,2*
G04 #@! TO.N,GND*
X17500500Y-8826500D03*
D10*
G04 #@! TO.N,/RESET*
G04 #@! TO.C,C3*
G36*
X39254691Y-6003053D02*
X39275926Y-6006203D01*
X39296750Y-6011419D01*
X39316962Y-6018651D01*
X39336368Y-6027830D01*
X39354781Y-6038866D01*
X39372024Y-6051654D01*
X39387930Y-6066070D01*
X39402346Y-6081976D01*
X39415134Y-6099219D01*
X39426170Y-6117632D01*
X39435349Y-6137038D01*
X39442581Y-6157250D01*
X39447797Y-6178074D01*
X39450947Y-6199309D01*
X39452000Y-6220750D01*
X39452000Y-6733250D01*
X39450947Y-6754691D01*
X39447797Y-6775926D01*
X39442581Y-6796750D01*
X39435349Y-6816962D01*
X39426170Y-6836368D01*
X39415134Y-6854781D01*
X39402346Y-6872024D01*
X39387930Y-6887930D01*
X39372024Y-6902346D01*
X39354781Y-6915134D01*
X39336368Y-6926170D01*
X39316962Y-6935349D01*
X39296750Y-6942581D01*
X39275926Y-6947797D01*
X39254691Y-6950947D01*
X39233250Y-6952000D01*
X38795750Y-6952000D01*
X38774309Y-6950947D01*
X38753074Y-6947797D01*
X38732250Y-6942581D01*
X38712038Y-6935349D01*
X38692632Y-6926170D01*
X38674219Y-6915134D01*
X38656976Y-6902346D01*
X38641070Y-6887930D01*
X38626654Y-6872024D01*
X38613866Y-6854781D01*
X38602830Y-6836368D01*
X38593651Y-6816962D01*
X38586419Y-6796750D01*
X38581203Y-6775926D01*
X38578053Y-6754691D01*
X38577000Y-6733250D01*
X38577000Y-6220750D01*
X38578053Y-6199309D01*
X38581203Y-6178074D01*
X38586419Y-6157250D01*
X38593651Y-6137038D01*
X38602830Y-6117632D01*
X38613866Y-6099219D01*
X38626654Y-6081976D01*
X38641070Y-6066070D01*
X38656976Y-6051654D01*
X38674219Y-6038866D01*
X38692632Y-6027830D01*
X38712038Y-6018651D01*
X38732250Y-6011419D01*
X38753074Y-6006203D01*
X38774309Y-6003053D01*
X38795750Y-6002000D01*
X39233250Y-6002000D01*
X39254691Y-6003053D01*
X39254691Y-6003053D01*
G37*
D12*
G04 #@! TD*
G04 #@! TO.P,C3,1*
G04 #@! TO.N,/RESET*
X39014500Y-6477000D03*
D10*
G04 #@! TO.N,GND*
G04 #@! TO.C,C3*
G36*
X37679691Y-6003053D02*
X37700926Y-6006203D01*
X37721750Y-6011419D01*
X37741962Y-6018651D01*
X37761368Y-6027830D01*
X37779781Y-6038866D01*
X37797024Y-6051654D01*
X37812930Y-6066070D01*
X37827346Y-6081976D01*
X37840134Y-6099219D01*
X37851170Y-6117632D01*
X37860349Y-6137038D01*
X37867581Y-6157250D01*
X37872797Y-6178074D01*
X37875947Y-6199309D01*
X37877000Y-6220750D01*
X37877000Y-6733250D01*
X37875947Y-6754691D01*
X37872797Y-6775926D01*
X37867581Y-6796750D01*
X37860349Y-6816962D01*
X37851170Y-6836368D01*
X37840134Y-6854781D01*
X37827346Y-6872024D01*
X37812930Y-6887930D01*
X37797024Y-6902346D01*
X37779781Y-6915134D01*
X37761368Y-6926170D01*
X37741962Y-6935349D01*
X37721750Y-6942581D01*
X37700926Y-6947797D01*
X37679691Y-6950947D01*
X37658250Y-6952000D01*
X37220750Y-6952000D01*
X37199309Y-6950947D01*
X37178074Y-6947797D01*
X37157250Y-6942581D01*
X37137038Y-6935349D01*
X37117632Y-6926170D01*
X37099219Y-6915134D01*
X37081976Y-6902346D01*
X37066070Y-6887930D01*
X37051654Y-6872024D01*
X37038866Y-6854781D01*
X37027830Y-6836368D01*
X37018651Y-6816962D01*
X37011419Y-6796750D01*
X37006203Y-6775926D01*
X37003053Y-6754691D01*
X37002000Y-6733250D01*
X37002000Y-6220750D01*
X37003053Y-6199309D01*
X37006203Y-6178074D01*
X37011419Y-6157250D01*
X37018651Y-6137038D01*
X37027830Y-6117632D01*
X37038866Y-6099219D01*
X37051654Y-6081976D01*
X37066070Y-6066070D01*
X37081976Y-6051654D01*
X37099219Y-6038866D01*
X37117632Y-6027830D01*
X37137038Y-6018651D01*
X37157250Y-6011419D01*
X37178074Y-6006203D01*
X37199309Y-6003053D01*
X37220750Y-6002000D01*
X37658250Y-6002000D01*
X37679691Y-6003053D01*
X37679691Y-6003053D01*
G37*
D12*
G04 #@! TD*
G04 #@! TO.P,C3,2*
G04 #@! TO.N,GND*
X37439500Y-6477000D03*
D10*
G04 #@! TO.N,+3V3*
G04 #@! TO.C,C6*
G36*
X34187191Y-10575053D02*
X34208426Y-10578203D01*
X34229250Y-10583419D01*
X34249462Y-10590651D01*
X34268868Y-10599830D01*
X34287281Y-10610866D01*
X34304524Y-10623654D01*
X34320430Y-10638070D01*
X34334846Y-10653976D01*
X34347634Y-10671219D01*
X34358670Y-10689632D01*
X34367849Y-10709038D01*
X34375081Y-10729250D01*
X34380297Y-10750074D01*
X34383447Y-10771309D01*
X34384500Y-10792750D01*
X34384500Y-11305250D01*
X34383447Y-11326691D01*
X34380297Y-11347926D01*
X34375081Y-11368750D01*
X34367849Y-11388962D01*
X34358670Y-11408368D01*
X34347634Y-11426781D01*
X34334846Y-11444024D01*
X34320430Y-11459930D01*
X34304524Y-11474346D01*
X34287281Y-11487134D01*
X34268868Y-11498170D01*
X34249462Y-11507349D01*
X34229250Y-11514581D01*
X34208426Y-11519797D01*
X34187191Y-11522947D01*
X34165750Y-11524000D01*
X33728250Y-11524000D01*
X33706809Y-11522947D01*
X33685574Y-11519797D01*
X33664750Y-11514581D01*
X33644538Y-11507349D01*
X33625132Y-11498170D01*
X33606719Y-11487134D01*
X33589476Y-11474346D01*
X33573570Y-11459930D01*
X33559154Y-11444024D01*
X33546366Y-11426781D01*
X33535330Y-11408368D01*
X33526151Y-11388962D01*
X33518919Y-11368750D01*
X33513703Y-11347926D01*
X33510553Y-11326691D01*
X33509500Y-11305250D01*
X33509500Y-10792750D01*
X33510553Y-10771309D01*
X33513703Y-10750074D01*
X33518919Y-10729250D01*
X33526151Y-10709038D01*
X33535330Y-10689632D01*
X33546366Y-10671219D01*
X33559154Y-10653976D01*
X33573570Y-10638070D01*
X33589476Y-10623654D01*
X33606719Y-10610866D01*
X33625132Y-10599830D01*
X33644538Y-10590651D01*
X33664750Y-10583419D01*
X33685574Y-10578203D01*
X33706809Y-10575053D01*
X33728250Y-10574000D01*
X34165750Y-10574000D01*
X34187191Y-10575053D01*
X34187191Y-10575053D01*
G37*
D12*
G04 #@! TD*
G04 #@! TO.P,C6,1*
G04 #@! TO.N,+3V3*
X33947000Y-11049000D03*
D10*
G04 #@! TO.N,GND*
G04 #@! TO.C,C6*
G36*
X35762191Y-10575053D02*
X35783426Y-10578203D01*
X35804250Y-10583419D01*
X35824462Y-10590651D01*
X35843868Y-10599830D01*
X35862281Y-10610866D01*
X35879524Y-10623654D01*
X35895430Y-10638070D01*
X35909846Y-10653976D01*
X35922634Y-10671219D01*
X35933670Y-10689632D01*
X35942849Y-10709038D01*
X35950081Y-10729250D01*
X35955297Y-10750074D01*
X35958447Y-10771309D01*
X35959500Y-10792750D01*
X35959500Y-11305250D01*
X35958447Y-11326691D01*
X35955297Y-11347926D01*
X35950081Y-11368750D01*
X35942849Y-11388962D01*
X35933670Y-11408368D01*
X35922634Y-11426781D01*
X35909846Y-11444024D01*
X35895430Y-11459930D01*
X35879524Y-11474346D01*
X35862281Y-11487134D01*
X35843868Y-11498170D01*
X35824462Y-11507349D01*
X35804250Y-11514581D01*
X35783426Y-11519797D01*
X35762191Y-11522947D01*
X35740750Y-11524000D01*
X35303250Y-11524000D01*
X35281809Y-11522947D01*
X35260574Y-11519797D01*
X35239750Y-11514581D01*
X35219538Y-11507349D01*
X35200132Y-11498170D01*
X35181719Y-11487134D01*
X35164476Y-11474346D01*
X35148570Y-11459930D01*
X35134154Y-11444024D01*
X35121366Y-11426781D01*
X35110330Y-11408368D01*
X35101151Y-11388962D01*
X35093919Y-11368750D01*
X35088703Y-11347926D01*
X35085553Y-11326691D01*
X35084500Y-11305250D01*
X35084500Y-10792750D01*
X35085553Y-10771309D01*
X35088703Y-10750074D01*
X35093919Y-10729250D01*
X35101151Y-10709038D01*
X35110330Y-10689632D01*
X35121366Y-10671219D01*
X35134154Y-10653976D01*
X35148570Y-10638070D01*
X35164476Y-10623654D01*
X35181719Y-10610866D01*
X35200132Y-10599830D01*
X35219538Y-10590651D01*
X35239750Y-10583419D01*
X35260574Y-10578203D01*
X35281809Y-10575053D01*
X35303250Y-10574000D01*
X35740750Y-10574000D01*
X35762191Y-10575053D01*
X35762191Y-10575053D01*
G37*
D12*
G04 #@! TD*
G04 #@! TO.P,C6,2*
G04 #@! TO.N,GND*
X35522000Y-11049000D03*
D10*
G04 #@! TO.N,+3V3*
G04 #@! TO.C,C7*
G36*
X23201191Y-12936553D02*
X23222426Y-12939703D01*
X23243250Y-12944919D01*
X23263462Y-12952151D01*
X23282868Y-12961330D01*
X23301281Y-12972366D01*
X23318524Y-12985154D01*
X23334430Y-12999570D01*
X23348846Y-13015476D01*
X23361634Y-13032719D01*
X23372670Y-13051132D01*
X23381849Y-13070538D01*
X23389081Y-13090750D01*
X23394297Y-13111574D01*
X23397447Y-13132809D01*
X23398500Y-13154250D01*
X23398500Y-13591750D01*
X23397447Y-13613191D01*
X23394297Y-13634426D01*
X23389081Y-13655250D01*
X23381849Y-13675462D01*
X23372670Y-13694868D01*
X23361634Y-13713281D01*
X23348846Y-13730524D01*
X23334430Y-13746430D01*
X23318524Y-13760846D01*
X23301281Y-13773634D01*
X23282868Y-13784670D01*
X23263462Y-13793849D01*
X23243250Y-13801081D01*
X23222426Y-13806297D01*
X23201191Y-13809447D01*
X23179750Y-13810500D01*
X22667250Y-13810500D01*
X22645809Y-13809447D01*
X22624574Y-13806297D01*
X22603750Y-13801081D01*
X22583538Y-13793849D01*
X22564132Y-13784670D01*
X22545719Y-13773634D01*
X22528476Y-13760846D01*
X22512570Y-13746430D01*
X22498154Y-13730524D01*
X22485366Y-13713281D01*
X22474330Y-13694868D01*
X22465151Y-13675462D01*
X22457919Y-13655250D01*
X22452703Y-13634426D01*
X22449553Y-13613191D01*
X22448500Y-13591750D01*
X22448500Y-13154250D01*
X22449553Y-13132809D01*
X22452703Y-13111574D01*
X22457919Y-13090750D01*
X22465151Y-13070538D01*
X22474330Y-13051132D01*
X22485366Y-13032719D01*
X22498154Y-13015476D01*
X22512570Y-12999570D01*
X22528476Y-12985154D01*
X22545719Y-12972366D01*
X22564132Y-12961330D01*
X22583538Y-12952151D01*
X22603750Y-12944919D01*
X22624574Y-12939703D01*
X22645809Y-12936553D01*
X22667250Y-12935500D01*
X23179750Y-12935500D01*
X23201191Y-12936553D01*
X23201191Y-12936553D01*
G37*
D12*
G04 #@! TD*
G04 #@! TO.P,C7,1*
G04 #@! TO.N,+3V3*
X22923500Y-13373000D03*
D10*
G04 #@! TO.N,GND*
G04 #@! TO.C,C7*
G36*
X23201191Y-14511553D02*
X23222426Y-14514703D01*
X23243250Y-14519919D01*
X23263462Y-14527151D01*
X23282868Y-14536330D01*
X23301281Y-14547366D01*
X23318524Y-14560154D01*
X23334430Y-14574570D01*
X23348846Y-14590476D01*
X23361634Y-14607719D01*
X23372670Y-14626132D01*
X23381849Y-14645538D01*
X23389081Y-14665750D01*
X23394297Y-14686574D01*
X23397447Y-14707809D01*
X23398500Y-14729250D01*
X23398500Y-15166750D01*
X23397447Y-15188191D01*
X23394297Y-15209426D01*
X23389081Y-15230250D01*
X23381849Y-15250462D01*
X23372670Y-15269868D01*
X23361634Y-15288281D01*
X23348846Y-15305524D01*
X23334430Y-15321430D01*
X23318524Y-15335846D01*
X23301281Y-15348634D01*
X23282868Y-15359670D01*
X23263462Y-15368849D01*
X23243250Y-15376081D01*
X23222426Y-15381297D01*
X23201191Y-15384447D01*
X23179750Y-15385500D01*
X22667250Y-15385500D01*
X22645809Y-15384447D01*
X22624574Y-15381297D01*
X22603750Y-15376081D01*
X22583538Y-15368849D01*
X22564132Y-15359670D01*
X22545719Y-15348634D01*
X22528476Y-15335846D01*
X22512570Y-15321430D01*
X22498154Y-15305524D01*
X22485366Y-15288281D01*
X22474330Y-15269868D01*
X22465151Y-15250462D01*
X22457919Y-15230250D01*
X22452703Y-15209426D01*
X22449553Y-15188191D01*
X22448500Y-15166750D01*
X22448500Y-14729250D01*
X22449553Y-14707809D01*
X22452703Y-14686574D01*
X22457919Y-14665750D01*
X22465151Y-14645538D01*
X22474330Y-14626132D01*
X22485366Y-14607719D01*
X22498154Y-14590476D01*
X22512570Y-14574570D01*
X22528476Y-14560154D01*
X22545719Y-14547366D01*
X22564132Y-14536330D01*
X22583538Y-14527151D01*
X22603750Y-14519919D01*
X22624574Y-14514703D01*
X22645809Y-14511553D01*
X22667250Y-14510500D01*
X23179750Y-14510500D01*
X23201191Y-14511553D01*
X23201191Y-14511553D01*
G37*
D12*
G04 #@! TD*
G04 #@! TO.P,C7,2*
G04 #@! TO.N,GND*
X22923500Y-14948000D03*
D10*
G04 #@! TO.N,/OSC32_IN*
G04 #@! TO.C,C9*
G36*
X17740691Y-4606053D02*
X17761926Y-4609203D01*
X17782750Y-4614419D01*
X17802962Y-4621651D01*
X17822368Y-4630830D01*
X17840781Y-4641866D01*
X17858024Y-4654654D01*
X17873930Y-4669070D01*
X17888346Y-4684976D01*
X17901134Y-4702219D01*
X17912170Y-4720632D01*
X17921349Y-4740038D01*
X17928581Y-4760250D01*
X17933797Y-4781074D01*
X17936947Y-4802309D01*
X17938000Y-4823750D01*
X17938000Y-5336250D01*
X17936947Y-5357691D01*
X17933797Y-5378926D01*
X17928581Y-5399750D01*
X17921349Y-5419962D01*
X17912170Y-5439368D01*
X17901134Y-5457781D01*
X17888346Y-5475024D01*
X17873930Y-5490930D01*
X17858024Y-5505346D01*
X17840781Y-5518134D01*
X17822368Y-5529170D01*
X17802962Y-5538349D01*
X17782750Y-5545581D01*
X17761926Y-5550797D01*
X17740691Y-5553947D01*
X17719250Y-5555000D01*
X17281750Y-5555000D01*
X17260309Y-5553947D01*
X17239074Y-5550797D01*
X17218250Y-5545581D01*
X17198038Y-5538349D01*
X17178632Y-5529170D01*
X17160219Y-5518134D01*
X17142976Y-5505346D01*
X17127070Y-5490930D01*
X17112654Y-5475024D01*
X17099866Y-5457781D01*
X17088830Y-5439368D01*
X17079651Y-5419962D01*
X17072419Y-5399750D01*
X17067203Y-5378926D01*
X17064053Y-5357691D01*
X17063000Y-5336250D01*
X17063000Y-4823750D01*
X17064053Y-4802309D01*
X17067203Y-4781074D01*
X17072419Y-4760250D01*
X17079651Y-4740038D01*
X17088830Y-4720632D01*
X17099866Y-4702219D01*
X17112654Y-4684976D01*
X17127070Y-4669070D01*
X17142976Y-4654654D01*
X17160219Y-4641866D01*
X17178632Y-4630830D01*
X17198038Y-4621651D01*
X17218250Y-4614419D01*
X17239074Y-4609203D01*
X17260309Y-4606053D01*
X17281750Y-4605000D01*
X17719250Y-4605000D01*
X17740691Y-4606053D01*
X17740691Y-4606053D01*
G37*
D12*
G04 #@! TD*
G04 #@! TO.P,C9,1*
G04 #@! TO.N,/OSC32_IN*
X17500500Y-5080000D03*
D10*
G04 #@! TO.N,GND*
G04 #@! TO.C,C9*
G36*
X19315691Y-4606053D02*
X19336926Y-4609203D01*
X19357750Y-4614419D01*
X19377962Y-4621651D01*
X19397368Y-4630830D01*
X19415781Y-4641866D01*
X19433024Y-4654654D01*
X19448930Y-4669070D01*
X19463346Y-4684976D01*
X19476134Y-4702219D01*
X19487170Y-4720632D01*
X19496349Y-4740038D01*
X19503581Y-4760250D01*
X19508797Y-4781074D01*
X19511947Y-4802309D01*
X19513000Y-4823750D01*
X19513000Y-5336250D01*
X19511947Y-5357691D01*
X19508797Y-5378926D01*
X19503581Y-5399750D01*
X19496349Y-5419962D01*
X19487170Y-5439368D01*
X19476134Y-5457781D01*
X19463346Y-5475024D01*
X19448930Y-5490930D01*
X19433024Y-5505346D01*
X19415781Y-5518134D01*
X19397368Y-5529170D01*
X19377962Y-5538349D01*
X19357750Y-5545581D01*
X19336926Y-5550797D01*
X19315691Y-5553947D01*
X19294250Y-5555000D01*
X18856750Y-5555000D01*
X18835309Y-5553947D01*
X18814074Y-5550797D01*
X18793250Y-5545581D01*
X18773038Y-5538349D01*
X18753632Y-5529170D01*
X18735219Y-5518134D01*
X18717976Y-5505346D01*
X18702070Y-5490930D01*
X18687654Y-5475024D01*
X18674866Y-5457781D01*
X18663830Y-5439368D01*
X18654651Y-5419962D01*
X18647419Y-5399750D01*
X18642203Y-5378926D01*
X18639053Y-5357691D01*
X18638000Y-5336250D01*
X18638000Y-4823750D01*
X18639053Y-4802309D01*
X18642203Y-4781074D01*
X18647419Y-4760250D01*
X18654651Y-4740038D01*
X18663830Y-4720632D01*
X18674866Y-4702219D01*
X18687654Y-4684976D01*
X18702070Y-4669070D01*
X18717976Y-4654654D01*
X18735219Y-4641866D01*
X18753632Y-4630830D01*
X18773038Y-4621651D01*
X18793250Y-4614419D01*
X18814074Y-4609203D01*
X18835309Y-4606053D01*
X18856750Y-4605000D01*
X19294250Y-4605000D01*
X19315691Y-4606053D01*
X19315691Y-4606053D01*
G37*
D12*
G04 #@! TD*
G04 #@! TO.P,C9,2*
G04 #@! TO.N,GND*
X19075500Y-5080000D03*
D10*
G04 #@! TO.N,GND*
G04 #@! TO.C,C10*
G36*
X19315691Y-6130053D02*
X19336926Y-6133203D01*
X19357750Y-6138419D01*
X19377962Y-6145651D01*
X19397368Y-6154830D01*
X19415781Y-6165866D01*
X19433024Y-6178654D01*
X19448930Y-6193070D01*
X19463346Y-6208976D01*
X19476134Y-6226219D01*
X19487170Y-6244632D01*
X19496349Y-6264038D01*
X19503581Y-6284250D01*
X19508797Y-6305074D01*
X19511947Y-6326309D01*
X19513000Y-6347750D01*
X19513000Y-6860250D01*
X19511947Y-6881691D01*
X19508797Y-6902926D01*
X19503581Y-6923750D01*
X19496349Y-6943962D01*
X19487170Y-6963368D01*
X19476134Y-6981781D01*
X19463346Y-6999024D01*
X19448930Y-7014930D01*
X19433024Y-7029346D01*
X19415781Y-7042134D01*
X19397368Y-7053170D01*
X19377962Y-7062349D01*
X19357750Y-7069581D01*
X19336926Y-7074797D01*
X19315691Y-7077947D01*
X19294250Y-7079000D01*
X18856750Y-7079000D01*
X18835309Y-7077947D01*
X18814074Y-7074797D01*
X18793250Y-7069581D01*
X18773038Y-7062349D01*
X18753632Y-7053170D01*
X18735219Y-7042134D01*
X18717976Y-7029346D01*
X18702070Y-7014930D01*
X18687654Y-6999024D01*
X18674866Y-6981781D01*
X18663830Y-6963368D01*
X18654651Y-6943962D01*
X18647419Y-6923750D01*
X18642203Y-6902926D01*
X18639053Y-6881691D01*
X18638000Y-6860250D01*
X18638000Y-6347750D01*
X18639053Y-6326309D01*
X18642203Y-6305074D01*
X18647419Y-6284250D01*
X18654651Y-6264038D01*
X18663830Y-6244632D01*
X18674866Y-6226219D01*
X18687654Y-6208976D01*
X18702070Y-6193070D01*
X18717976Y-6178654D01*
X18735219Y-6165866D01*
X18753632Y-6154830D01*
X18773038Y-6145651D01*
X18793250Y-6138419D01*
X18814074Y-6133203D01*
X18835309Y-6130053D01*
X18856750Y-6129000D01*
X19294250Y-6129000D01*
X19315691Y-6130053D01*
X19315691Y-6130053D01*
G37*
D12*
G04 #@! TD*
G04 #@! TO.P,C10,2*
G04 #@! TO.N,GND*
X19075500Y-6604000D03*
D10*
G04 #@! TO.N,/OSC32_OUT*
G04 #@! TO.C,C10*
G36*
X17740691Y-6130053D02*
X17761926Y-6133203D01*
X17782750Y-6138419D01*
X17802962Y-6145651D01*
X17822368Y-6154830D01*
X17840781Y-6165866D01*
X17858024Y-6178654D01*
X17873930Y-6193070D01*
X17888346Y-6208976D01*
X17901134Y-6226219D01*
X17912170Y-6244632D01*
X17921349Y-6264038D01*
X17928581Y-6284250D01*
X17933797Y-6305074D01*
X17936947Y-6326309D01*
X17938000Y-6347750D01*
X17938000Y-6860250D01*
X17936947Y-6881691D01*
X17933797Y-6902926D01*
X17928581Y-6923750D01*
X17921349Y-6943962D01*
X17912170Y-6963368D01*
X17901134Y-6981781D01*
X17888346Y-6999024D01*
X17873930Y-7014930D01*
X17858024Y-7029346D01*
X17840781Y-7042134D01*
X17822368Y-7053170D01*
X17802962Y-7062349D01*
X17782750Y-7069581D01*
X17761926Y-7074797D01*
X17740691Y-7077947D01*
X17719250Y-7079000D01*
X17281750Y-7079000D01*
X17260309Y-7077947D01*
X17239074Y-7074797D01*
X17218250Y-7069581D01*
X17198038Y-7062349D01*
X17178632Y-7053170D01*
X17160219Y-7042134D01*
X17142976Y-7029346D01*
X17127070Y-7014930D01*
X17112654Y-6999024D01*
X17099866Y-6981781D01*
X17088830Y-6963368D01*
X17079651Y-6943962D01*
X17072419Y-6923750D01*
X17067203Y-6902926D01*
X17064053Y-6881691D01*
X17063000Y-6860250D01*
X17063000Y-6347750D01*
X17064053Y-6326309D01*
X17067203Y-6305074D01*
X17072419Y-6284250D01*
X17079651Y-6264038D01*
X17088830Y-6244632D01*
X17099866Y-6226219D01*
X17112654Y-6208976D01*
X17127070Y-6193070D01*
X17142976Y-6178654D01*
X17160219Y-6165866D01*
X17178632Y-6154830D01*
X17198038Y-6145651D01*
X17218250Y-6138419D01*
X17239074Y-6133203D01*
X17260309Y-6130053D01*
X17281750Y-6129000D01*
X17719250Y-6129000D01*
X17740691Y-6130053D01*
X17740691Y-6130053D01*
G37*
D12*
G04 #@! TD*
G04 #@! TO.P,C10,1*
G04 #@! TO.N,/OSC32_OUT*
X17500500Y-6604000D03*
D16*
G04 #@! TO.P,J4,6*
G04 #@! TO.N,GND*
X54577500Y-11446000D03*
D17*
X51877500Y-14946000D03*
D18*
G04 #@! TO.P,J4,2*
G04 #@! TO.N,Net-(J4-Pad2)*
X51877500Y-13096000D03*
G04 #@! TO.P,J4,1*
G04 #@! TO.N,Net-(FB2-Pad1)*
X51877500Y-13746000D03*
G04 #@! TO.P,J4,5*
G04 #@! TO.N,GND*
X51877500Y-11146000D03*
G04 #@! TO.P,J4,4*
G04 #@! TO.N,Net-(J4-Pad4)*
X51877500Y-11796000D03*
G04 #@! TO.P,J4,3*
G04 #@! TO.N,Net-(J4-Pad3)*
X51877500Y-12446000D03*
D17*
G04 #@! TO.P,J4,6*
G04 #@! TO.N,GND*
X51877500Y-9946000D03*
D16*
X54577500Y-13446000D03*
D19*
X54577500Y-15946000D03*
X54577500Y-8946000D03*
D20*
X54577500Y-9546000D03*
X54577500Y-15346000D03*
G04 #@! TD*
D15*
G04 #@! TO.P,J5,1*
G04 #@! TO.N,+3V3*
X3810000Y-6350000D03*
D14*
G04 #@! TO.P,J5,2*
G04 #@! TO.N,/SWDIO*
X3810000Y-8890000D03*
G04 #@! TO.P,J5,3*
G04 #@! TO.N,/SWDCLK*
X3810000Y-11430000D03*
G04 #@! TO.P,J5,4*
G04 #@! TO.N,GND*
X3810000Y-13970000D03*
G04 #@! TD*
D10*
G04 #@! TO.N,+3V3*
G04 #@! TO.C,R2*
G36*
X37679691Y-7527053D02*
X37700926Y-7530203D01*
X37721750Y-7535419D01*
X37741962Y-7542651D01*
X37761368Y-7551830D01*
X37779781Y-7562866D01*
X37797024Y-7575654D01*
X37812930Y-7590070D01*
X37827346Y-7605976D01*
X37840134Y-7623219D01*
X37851170Y-7641632D01*
X37860349Y-7661038D01*
X37867581Y-7681250D01*
X37872797Y-7702074D01*
X37875947Y-7723309D01*
X37877000Y-7744750D01*
X37877000Y-8257250D01*
X37875947Y-8278691D01*
X37872797Y-8299926D01*
X37867581Y-8320750D01*
X37860349Y-8340962D01*
X37851170Y-8360368D01*
X37840134Y-8378781D01*
X37827346Y-8396024D01*
X37812930Y-8411930D01*
X37797024Y-8426346D01*
X37779781Y-8439134D01*
X37761368Y-8450170D01*
X37741962Y-8459349D01*
X37721750Y-8466581D01*
X37700926Y-8471797D01*
X37679691Y-8474947D01*
X37658250Y-8476000D01*
X37220750Y-8476000D01*
X37199309Y-8474947D01*
X37178074Y-8471797D01*
X37157250Y-8466581D01*
X37137038Y-8459349D01*
X37117632Y-8450170D01*
X37099219Y-8439134D01*
X37081976Y-8426346D01*
X37066070Y-8411930D01*
X37051654Y-8396024D01*
X37038866Y-8378781D01*
X37027830Y-8360368D01*
X37018651Y-8340962D01*
X37011419Y-8320750D01*
X37006203Y-8299926D01*
X37003053Y-8278691D01*
X37002000Y-8257250D01*
X37002000Y-7744750D01*
X37003053Y-7723309D01*
X37006203Y-7702074D01*
X37011419Y-7681250D01*
X37018651Y-7661038D01*
X37027830Y-7641632D01*
X37038866Y-7623219D01*
X37051654Y-7605976D01*
X37066070Y-7590070D01*
X37081976Y-7575654D01*
X37099219Y-7562866D01*
X37117632Y-7551830D01*
X37137038Y-7542651D01*
X37157250Y-7535419D01*
X37178074Y-7530203D01*
X37199309Y-7527053D01*
X37220750Y-7526000D01*
X37658250Y-7526000D01*
X37679691Y-7527053D01*
X37679691Y-7527053D01*
G37*
D12*
G04 #@! TD*
G04 #@! TO.P,R2,2*
G04 #@! TO.N,+3V3*
X37439500Y-8001000D03*
D10*
G04 #@! TO.N,/RESET*
G04 #@! TO.C,R2*
G36*
X39254691Y-7527053D02*
X39275926Y-7530203D01*
X39296750Y-7535419D01*
X39316962Y-7542651D01*
X39336368Y-7551830D01*
X39354781Y-7562866D01*
X39372024Y-7575654D01*
X39387930Y-7590070D01*
X39402346Y-7605976D01*
X39415134Y-7623219D01*
X39426170Y-7641632D01*
X39435349Y-7661038D01*
X39442581Y-7681250D01*
X39447797Y-7702074D01*
X39450947Y-7723309D01*
X39452000Y-7744750D01*
X39452000Y-8257250D01*
X39450947Y-8278691D01*
X39447797Y-8299926D01*
X39442581Y-8320750D01*
X39435349Y-8340962D01*
X39426170Y-8360368D01*
X39415134Y-8378781D01*
X39402346Y-8396024D01*
X39387930Y-8411930D01*
X39372024Y-8426346D01*
X39354781Y-8439134D01*
X39336368Y-8450170D01*
X39316962Y-8459349D01*
X39296750Y-8466581D01*
X39275926Y-8471797D01*
X39254691Y-8474947D01*
X39233250Y-8476000D01*
X38795750Y-8476000D01*
X38774309Y-8474947D01*
X38753074Y-8471797D01*
X38732250Y-8466581D01*
X38712038Y-8459349D01*
X38692632Y-8450170D01*
X38674219Y-8439134D01*
X38656976Y-8426346D01*
X38641070Y-8411930D01*
X38626654Y-8396024D01*
X38613866Y-8378781D01*
X38602830Y-8360368D01*
X38593651Y-8340962D01*
X38586419Y-8320750D01*
X38581203Y-8299926D01*
X38578053Y-8278691D01*
X38577000Y-8257250D01*
X38577000Y-7744750D01*
X38578053Y-7723309D01*
X38581203Y-7702074D01*
X38586419Y-7681250D01*
X38593651Y-7661038D01*
X38602830Y-7641632D01*
X38613866Y-7623219D01*
X38626654Y-7605976D01*
X38641070Y-7590070D01*
X38656976Y-7575654D01*
X38674219Y-7562866D01*
X38692632Y-7551830D01*
X38712038Y-7542651D01*
X38732250Y-7535419D01*
X38753074Y-7530203D01*
X38774309Y-7527053D01*
X38795750Y-7526000D01*
X39233250Y-7526000D01*
X39254691Y-7527053D01*
X39254691Y-7527053D01*
G37*
D12*
G04 #@! TD*
G04 #@! TO.P,R2,1*
G04 #@! TO.N,/RESET*
X39014500Y-8001000D03*
D10*
G04 #@! TO.N,Net-(D1-Pad1)*
G04 #@! TO.C,R3*
G36*
X52335691Y-4352053D02*
X52356926Y-4355203D01*
X52377750Y-4360419D01*
X52397962Y-4367651D01*
X52417368Y-4376830D01*
X52435781Y-4387866D01*
X52453024Y-4400654D01*
X52468930Y-4415070D01*
X52483346Y-4430976D01*
X52496134Y-4448219D01*
X52507170Y-4466632D01*
X52516349Y-4486038D01*
X52523581Y-4506250D01*
X52528797Y-4527074D01*
X52531947Y-4548309D01*
X52533000Y-4569750D01*
X52533000Y-5082250D01*
X52531947Y-5103691D01*
X52528797Y-5124926D01*
X52523581Y-5145750D01*
X52516349Y-5165962D01*
X52507170Y-5185368D01*
X52496134Y-5203781D01*
X52483346Y-5221024D01*
X52468930Y-5236930D01*
X52453024Y-5251346D01*
X52435781Y-5264134D01*
X52417368Y-5275170D01*
X52397962Y-5284349D01*
X52377750Y-5291581D01*
X52356926Y-5296797D01*
X52335691Y-5299947D01*
X52314250Y-5301000D01*
X51876750Y-5301000D01*
X51855309Y-5299947D01*
X51834074Y-5296797D01*
X51813250Y-5291581D01*
X51793038Y-5284349D01*
X51773632Y-5275170D01*
X51755219Y-5264134D01*
X51737976Y-5251346D01*
X51722070Y-5236930D01*
X51707654Y-5221024D01*
X51694866Y-5203781D01*
X51683830Y-5185368D01*
X51674651Y-5165962D01*
X51667419Y-5145750D01*
X51662203Y-5124926D01*
X51659053Y-5103691D01*
X51658000Y-5082250D01*
X51658000Y-4569750D01*
X51659053Y-4548309D01*
X51662203Y-4527074D01*
X51667419Y-4506250D01*
X51674651Y-4486038D01*
X51683830Y-4466632D01*
X51694866Y-4448219D01*
X51707654Y-4430976D01*
X51722070Y-4415070D01*
X51737976Y-4400654D01*
X51755219Y-4387866D01*
X51773632Y-4376830D01*
X51793038Y-4367651D01*
X51813250Y-4360419D01*
X51834074Y-4355203D01*
X51855309Y-4352053D01*
X51876750Y-4351000D01*
X52314250Y-4351000D01*
X52335691Y-4352053D01*
X52335691Y-4352053D01*
G37*
D12*
G04 #@! TD*
G04 #@! TO.P,R3,2*
G04 #@! TO.N,Net-(D1-Pad1)*
X52095500Y-4826000D03*
D10*
G04 #@! TO.N,/LED1*
G04 #@! TO.C,R3*
G36*
X50760691Y-4352053D02*
X50781926Y-4355203D01*
X50802750Y-4360419D01*
X50822962Y-4367651D01*
X50842368Y-4376830D01*
X50860781Y-4387866D01*
X50878024Y-4400654D01*
X50893930Y-4415070D01*
X50908346Y-4430976D01*
X50921134Y-4448219D01*
X50932170Y-4466632D01*
X50941349Y-4486038D01*
X50948581Y-4506250D01*
X50953797Y-4527074D01*
X50956947Y-4548309D01*
X50958000Y-4569750D01*
X50958000Y-5082250D01*
X50956947Y-5103691D01*
X50953797Y-5124926D01*
X50948581Y-5145750D01*
X50941349Y-5165962D01*
X50932170Y-5185368D01*
X50921134Y-5203781D01*
X50908346Y-5221024D01*
X50893930Y-5236930D01*
X50878024Y-5251346D01*
X50860781Y-5264134D01*
X50842368Y-5275170D01*
X50822962Y-5284349D01*
X50802750Y-5291581D01*
X50781926Y-5296797D01*
X50760691Y-5299947D01*
X50739250Y-5301000D01*
X50301750Y-5301000D01*
X50280309Y-5299947D01*
X50259074Y-5296797D01*
X50238250Y-5291581D01*
X50218038Y-5284349D01*
X50198632Y-5275170D01*
X50180219Y-5264134D01*
X50162976Y-5251346D01*
X50147070Y-5236930D01*
X50132654Y-5221024D01*
X50119866Y-5203781D01*
X50108830Y-5185368D01*
X50099651Y-5165962D01*
X50092419Y-5145750D01*
X50087203Y-5124926D01*
X50084053Y-5103691D01*
X50083000Y-5082250D01*
X50083000Y-4569750D01*
X50084053Y-4548309D01*
X50087203Y-4527074D01*
X50092419Y-4506250D01*
X50099651Y-4486038D01*
X50108830Y-4466632D01*
X50119866Y-4448219D01*
X50132654Y-4430976D01*
X50147070Y-4415070D01*
X50162976Y-4400654D01*
X50180219Y-4387866D01*
X50198632Y-4376830D01*
X50218038Y-4367651D01*
X50238250Y-4360419D01*
X50259074Y-4355203D01*
X50280309Y-4352053D01*
X50301750Y-4351000D01*
X50739250Y-4351000D01*
X50760691Y-4352053D01*
X50760691Y-4352053D01*
G37*
D12*
G04 #@! TD*
G04 #@! TO.P,R3,1*
G04 #@! TO.N,/LED1*
X50520500Y-4826000D03*
D10*
G04 #@! TO.N,/USB_D+*
G04 #@! TO.C,R8*
G36*
X48474691Y-11464053D02*
X48495926Y-11467203D01*
X48516750Y-11472419D01*
X48536962Y-11479651D01*
X48556368Y-11488830D01*
X48574781Y-11499866D01*
X48592024Y-11512654D01*
X48607930Y-11527070D01*
X48622346Y-11542976D01*
X48635134Y-11560219D01*
X48646170Y-11578632D01*
X48655349Y-11598038D01*
X48662581Y-11618250D01*
X48667797Y-11639074D01*
X48670947Y-11660309D01*
X48672000Y-11681750D01*
X48672000Y-12194250D01*
X48670947Y-12215691D01*
X48667797Y-12236926D01*
X48662581Y-12257750D01*
X48655349Y-12277962D01*
X48646170Y-12297368D01*
X48635134Y-12315781D01*
X48622346Y-12333024D01*
X48607930Y-12348930D01*
X48592024Y-12363346D01*
X48574781Y-12376134D01*
X48556368Y-12387170D01*
X48536962Y-12396349D01*
X48516750Y-12403581D01*
X48495926Y-12408797D01*
X48474691Y-12411947D01*
X48453250Y-12413000D01*
X48015750Y-12413000D01*
X47994309Y-12411947D01*
X47973074Y-12408797D01*
X47952250Y-12403581D01*
X47932038Y-12396349D01*
X47912632Y-12387170D01*
X47894219Y-12376134D01*
X47876976Y-12363346D01*
X47861070Y-12348930D01*
X47846654Y-12333024D01*
X47833866Y-12315781D01*
X47822830Y-12297368D01*
X47813651Y-12277962D01*
X47806419Y-12257750D01*
X47801203Y-12236926D01*
X47798053Y-12215691D01*
X47797000Y-12194250D01*
X47797000Y-11681750D01*
X47798053Y-11660309D01*
X47801203Y-11639074D01*
X47806419Y-11618250D01*
X47813651Y-11598038D01*
X47822830Y-11578632D01*
X47833866Y-11560219D01*
X47846654Y-11542976D01*
X47861070Y-11527070D01*
X47876976Y-11512654D01*
X47894219Y-11499866D01*
X47912632Y-11488830D01*
X47932038Y-11479651D01*
X47952250Y-11472419D01*
X47973074Y-11467203D01*
X47994309Y-11464053D01*
X48015750Y-11463000D01*
X48453250Y-11463000D01*
X48474691Y-11464053D01*
X48474691Y-11464053D01*
G37*
D12*
G04 #@! TD*
G04 #@! TO.P,R8,1*
G04 #@! TO.N,/USB_D+*
X48234500Y-11938000D03*
D10*
G04 #@! TO.N,Net-(J4-Pad3)*
G04 #@! TO.C,R8*
G36*
X50049691Y-11464053D02*
X50070926Y-11467203D01*
X50091750Y-11472419D01*
X50111962Y-11479651D01*
X50131368Y-11488830D01*
X50149781Y-11499866D01*
X50167024Y-11512654D01*
X50182930Y-11527070D01*
X50197346Y-11542976D01*
X50210134Y-11560219D01*
X50221170Y-11578632D01*
X50230349Y-11598038D01*
X50237581Y-11618250D01*
X50242797Y-11639074D01*
X50245947Y-11660309D01*
X50247000Y-11681750D01*
X50247000Y-12194250D01*
X50245947Y-12215691D01*
X50242797Y-12236926D01*
X50237581Y-12257750D01*
X50230349Y-12277962D01*
X50221170Y-12297368D01*
X50210134Y-12315781D01*
X50197346Y-12333024D01*
X50182930Y-12348930D01*
X50167024Y-12363346D01*
X50149781Y-12376134D01*
X50131368Y-12387170D01*
X50111962Y-12396349D01*
X50091750Y-12403581D01*
X50070926Y-12408797D01*
X50049691Y-12411947D01*
X50028250Y-12413000D01*
X49590750Y-12413000D01*
X49569309Y-12411947D01*
X49548074Y-12408797D01*
X49527250Y-12403581D01*
X49507038Y-12396349D01*
X49487632Y-12387170D01*
X49469219Y-12376134D01*
X49451976Y-12363346D01*
X49436070Y-12348930D01*
X49421654Y-12333024D01*
X49408866Y-12315781D01*
X49397830Y-12297368D01*
X49388651Y-12277962D01*
X49381419Y-12257750D01*
X49376203Y-12236926D01*
X49373053Y-12215691D01*
X49372000Y-12194250D01*
X49372000Y-11681750D01*
X49373053Y-11660309D01*
X49376203Y-11639074D01*
X49381419Y-11618250D01*
X49388651Y-11598038D01*
X49397830Y-11578632D01*
X49408866Y-11560219D01*
X49421654Y-11542976D01*
X49436070Y-11527070D01*
X49451976Y-11512654D01*
X49469219Y-11499866D01*
X49487632Y-11488830D01*
X49507038Y-11479651D01*
X49527250Y-11472419D01*
X49548074Y-11467203D01*
X49569309Y-11464053D01*
X49590750Y-11463000D01*
X50028250Y-11463000D01*
X50049691Y-11464053D01*
X50049691Y-11464053D01*
G37*
D12*
G04 #@! TD*
G04 #@! TO.P,R8,2*
G04 #@! TO.N,Net-(J4-Pad3)*
X49809500Y-11938000D03*
D10*
G04 #@! TO.N,Net-(J4-Pad2)*
G04 #@! TO.C,R9*
G36*
X50049691Y-12988053D02*
X50070926Y-12991203D01*
X50091750Y-12996419D01*
X50111962Y-13003651D01*
X50131368Y-13012830D01*
X50149781Y-13023866D01*
X50167024Y-13036654D01*
X50182930Y-13051070D01*
X50197346Y-13066976D01*
X50210134Y-13084219D01*
X50221170Y-13102632D01*
X50230349Y-13122038D01*
X50237581Y-13142250D01*
X50242797Y-13163074D01*
X50245947Y-13184309D01*
X50247000Y-13205750D01*
X50247000Y-13718250D01*
X50245947Y-13739691D01*
X50242797Y-13760926D01*
X50237581Y-13781750D01*
X50230349Y-13801962D01*
X50221170Y-13821368D01*
X50210134Y-13839781D01*
X50197346Y-13857024D01*
X50182930Y-13872930D01*
X50167024Y-13887346D01*
X50149781Y-13900134D01*
X50131368Y-13911170D01*
X50111962Y-13920349D01*
X50091750Y-13927581D01*
X50070926Y-13932797D01*
X50049691Y-13935947D01*
X50028250Y-13937000D01*
X49590750Y-13937000D01*
X49569309Y-13935947D01*
X49548074Y-13932797D01*
X49527250Y-13927581D01*
X49507038Y-13920349D01*
X49487632Y-13911170D01*
X49469219Y-13900134D01*
X49451976Y-13887346D01*
X49436070Y-13872930D01*
X49421654Y-13857024D01*
X49408866Y-13839781D01*
X49397830Y-13821368D01*
X49388651Y-13801962D01*
X49381419Y-13781750D01*
X49376203Y-13760926D01*
X49373053Y-13739691D01*
X49372000Y-13718250D01*
X49372000Y-13205750D01*
X49373053Y-13184309D01*
X49376203Y-13163074D01*
X49381419Y-13142250D01*
X49388651Y-13122038D01*
X49397830Y-13102632D01*
X49408866Y-13084219D01*
X49421654Y-13066976D01*
X49436070Y-13051070D01*
X49451976Y-13036654D01*
X49469219Y-13023866D01*
X49487632Y-13012830D01*
X49507038Y-13003651D01*
X49527250Y-12996419D01*
X49548074Y-12991203D01*
X49569309Y-12988053D01*
X49590750Y-12987000D01*
X50028250Y-12987000D01*
X50049691Y-12988053D01*
X50049691Y-12988053D01*
G37*
D12*
G04 #@! TD*
G04 #@! TO.P,R9,2*
G04 #@! TO.N,Net-(J4-Pad2)*
X49809500Y-13462000D03*
D10*
G04 #@! TO.N,/USB_D-*
G04 #@! TO.C,R9*
G36*
X48474691Y-12988053D02*
X48495926Y-12991203D01*
X48516750Y-12996419D01*
X48536962Y-13003651D01*
X48556368Y-13012830D01*
X48574781Y-13023866D01*
X48592024Y-13036654D01*
X48607930Y-13051070D01*
X48622346Y-13066976D01*
X48635134Y-13084219D01*
X48646170Y-13102632D01*
X48655349Y-13122038D01*
X48662581Y-13142250D01*
X48667797Y-13163074D01*
X48670947Y-13184309D01*
X48672000Y-13205750D01*
X48672000Y-13718250D01*
X48670947Y-13739691D01*
X48667797Y-13760926D01*
X48662581Y-13781750D01*
X48655349Y-13801962D01*
X48646170Y-13821368D01*
X48635134Y-13839781D01*
X48622346Y-13857024D01*
X48607930Y-13872930D01*
X48592024Y-13887346D01*
X48574781Y-13900134D01*
X48556368Y-13911170D01*
X48536962Y-13920349D01*
X48516750Y-13927581D01*
X48495926Y-13932797D01*
X48474691Y-13935947D01*
X48453250Y-13937000D01*
X48015750Y-13937000D01*
X47994309Y-13935947D01*
X47973074Y-13932797D01*
X47952250Y-13927581D01*
X47932038Y-13920349D01*
X47912632Y-13911170D01*
X47894219Y-13900134D01*
X47876976Y-13887346D01*
X47861070Y-13872930D01*
X47846654Y-13857024D01*
X47833866Y-13839781D01*
X47822830Y-13821368D01*
X47813651Y-13801962D01*
X47806419Y-13781750D01*
X47801203Y-13760926D01*
X47798053Y-13739691D01*
X47797000Y-13718250D01*
X47797000Y-13205750D01*
X47798053Y-13184309D01*
X47801203Y-13163074D01*
X47806419Y-13142250D01*
X47813651Y-13122038D01*
X47822830Y-13102632D01*
X47833866Y-13084219D01*
X47846654Y-13066976D01*
X47861070Y-13051070D01*
X47876976Y-13036654D01*
X47894219Y-13023866D01*
X47912632Y-13012830D01*
X47932038Y-13003651D01*
X47952250Y-12996419D01*
X47973074Y-12991203D01*
X47994309Y-12988053D01*
X48015750Y-12987000D01*
X48453250Y-12987000D01*
X48474691Y-12988053D01*
X48474691Y-12988053D01*
G37*
D12*
G04 #@! TD*
G04 #@! TO.P,R9,1*
G04 #@! TO.N,/USB_D-*
X48234500Y-13462000D03*
D10*
G04 #@! TO.N,Net-(D2-Pad1)*
G04 #@! TO.C,R10*
G36*
X52335691Y-6384053D02*
X52356926Y-6387203D01*
X52377750Y-6392419D01*
X52397962Y-6399651D01*
X52417368Y-6408830D01*
X52435781Y-6419866D01*
X52453024Y-6432654D01*
X52468930Y-6447070D01*
X52483346Y-6462976D01*
X52496134Y-6480219D01*
X52507170Y-6498632D01*
X52516349Y-6518038D01*
X52523581Y-6538250D01*
X52528797Y-6559074D01*
X52531947Y-6580309D01*
X52533000Y-6601750D01*
X52533000Y-7114250D01*
X52531947Y-7135691D01*
X52528797Y-7156926D01*
X52523581Y-7177750D01*
X52516349Y-7197962D01*
X52507170Y-7217368D01*
X52496134Y-7235781D01*
X52483346Y-7253024D01*
X52468930Y-7268930D01*
X52453024Y-7283346D01*
X52435781Y-7296134D01*
X52417368Y-7307170D01*
X52397962Y-7316349D01*
X52377750Y-7323581D01*
X52356926Y-7328797D01*
X52335691Y-7331947D01*
X52314250Y-7333000D01*
X51876750Y-7333000D01*
X51855309Y-7331947D01*
X51834074Y-7328797D01*
X51813250Y-7323581D01*
X51793038Y-7316349D01*
X51773632Y-7307170D01*
X51755219Y-7296134D01*
X51737976Y-7283346D01*
X51722070Y-7268930D01*
X51707654Y-7253024D01*
X51694866Y-7235781D01*
X51683830Y-7217368D01*
X51674651Y-7197962D01*
X51667419Y-7177750D01*
X51662203Y-7156926D01*
X51659053Y-7135691D01*
X51658000Y-7114250D01*
X51658000Y-6601750D01*
X51659053Y-6580309D01*
X51662203Y-6559074D01*
X51667419Y-6538250D01*
X51674651Y-6518038D01*
X51683830Y-6498632D01*
X51694866Y-6480219D01*
X51707654Y-6462976D01*
X51722070Y-6447070D01*
X51737976Y-6432654D01*
X51755219Y-6419866D01*
X51773632Y-6408830D01*
X51793038Y-6399651D01*
X51813250Y-6392419D01*
X51834074Y-6387203D01*
X51855309Y-6384053D01*
X51876750Y-6383000D01*
X52314250Y-6383000D01*
X52335691Y-6384053D01*
X52335691Y-6384053D01*
G37*
D12*
G04 #@! TD*
G04 #@! TO.P,R10,2*
G04 #@! TO.N,Net-(D2-Pad1)*
X52095500Y-6858000D03*
D10*
G04 #@! TO.N,GND*
G04 #@! TO.C,R10*
G36*
X50760691Y-6384053D02*
X50781926Y-6387203D01*
X50802750Y-6392419D01*
X50822962Y-6399651D01*
X50842368Y-6408830D01*
X50860781Y-6419866D01*
X50878024Y-6432654D01*
X50893930Y-6447070D01*
X50908346Y-6462976D01*
X50921134Y-6480219D01*
X50932170Y-6498632D01*
X50941349Y-6518038D01*
X50948581Y-6538250D01*
X50953797Y-6559074D01*
X50956947Y-6580309D01*
X50958000Y-6601750D01*
X50958000Y-7114250D01*
X50956947Y-7135691D01*
X50953797Y-7156926D01*
X50948581Y-7177750D01*
X50941349Y-7197962D01*
X50932170Y-7217368D01*
X50921134Y-7235781D01*
X50908346Y-7253024D01*
X50893930Y-7268930D01*
X50878024Y-7283346D01*
X50860781Y-7296134D01*
X50842368Y-7307170D01*
X50822962Y-7316349D01*
X50802750Y-7323581D01*
X50781926Y-7328797D01*
X50760691Y-7331947D01*
X50739250Y-7333000D01*
X50301750Y-7333000D01*
X50280309Y-7331947D01*
X50259074Y-7328797D01*
X50238250Y-7323581D01*
X50218038Y-7316349D01*
X50198632Y-7307170D01*
X50180219Y-7296134D01*
X50162976Y-7283346D01*
X50147070Y-7268930D01*
X50132654Y-7253024D01*
X50119866Y-7235781D01*
X50108830Y-7217368D01*
X50099651Y-7197962D01*
X50092419Y-7177750D01*
X50087203Y-7156926D01*
X50084053Y-7135691D01*
X50083000Y-7114250D01*
X50083000Y-6601750D01*
X50084053Y-6580309D01*
X50087203Y-6559074D01*
X50092419Y-6538250D01*
X50099651Y-6518038D01*
X50108830Y-6498632D01*
X50119866Y-6480219D01*
X50132654Y-6462976D01*
X50147070Y-6447070D01*
X50162976Y-6432654D01*
X50180219Y-6419866D01*
X50198632Y-6408830D01*
X50218038Y-6399651D01*
X50238250Y-6392419D01*
X50259074Y-6387203D01*
X50280309Y-6384053D01*
X50301750Y-6383000D01*
X50739250Y-6383000D01*
X50760691Y-6384053D01*
X50760691Y-6384053D01*
G37*
D12*
G04 #@! TD*
G04 #@! TO.P,R10,1*
G04 #@! TO.N,GND*
X50520500Y-6858000D03*
D21*
G04 #@! TO.P,Y1,1*
G04 #@! TO.N,/OSC_IN*
X10668000Y-13081000D03*
G04 #@! TO.P,Y1,2*
G04 #@! TO.N,/OSC_OUT*
X15548000Y-13081000D03*
G04 #@! TD*
D22*
G04 #@! TO.P,Y2,1*
G04 #@! TO.N,/OSC32_IN*
X15748000Y-5143500D03*
G04 #@! TO.P,Y2,2*
G04 #@! TO.N,/OSC32_OUT*
X15748000Y-7043500D03*
G04 #@! TD*
D10*
G04 #@! TO.N,Net-(D1-Pad1)*
G04 #@! TO.C,D1*
G36*
X53808691Y-4352053D02*
X53829926Y-4355203D01*
X53850750Y-4360419D01*
X53870962Y-4367651D01*
X53890368Y-4376830D01*
X53908781Y-4387866D01*
X53926024Y-4400654D01*
X53941930Y-4415070D01*
X53956346Y-4430976D01*
X53969134Y-4448219D01*
X53980170Y-4466632D01*
X53989349Y-4486038D01*
X53996581Y-4506250D01*
X54001797Y-4527074D01*
X54004947Y-4548309D01*
X54006000Y-4569750D01*
X54006000Y-5082250D01*
X54004947Y-5103691D01*
X54001797Y-5124926D01*
X53996581Y-5145750D01*
X53989349Y-5165962D01*
X53980170Y-5185368D01*
X53969134Y-5203781D01*
X53956346Y-5221024D01*
X53941930Y-5236930D01*
X53926024Y-5251346D01*
X53908781Y-5264134D01*
X53890368Y-5275170D01*
X53870962Y-5284349D01*
X53850750Y-5291581D01*
X53829926Y-5296797D01*
X53808691Y-5299947D01*
X53787250Y-5301000D01*
X53349750Y-5301000D01*
X53328309Y-5299947D01*
X53307074Y-5296797D01*
X53286250Y-5291581D01*
X53266038Y-5284349D01*
X53246632Y-5275170D01*
X53228219Y-5264134D01*
X53210976Y-5251346D01*
X53195070Y-5236930D01*
X53180654Y-5221024D01*
X53167866Y-5203781D01*
X53156830Y-5185368D01*
X53147651Y-5165962D01*
X53140419Y-5145750D01*
X53135203Y-5124926D01*
X53132053Y-5103691D01*
X53131000Y-5082250D01*
X53131000Y-4569750D01*
X53132053Y-4548309D01*
X53135203Y-4527074D01*
X53140419Y-4506250D01*
X53147651Y-4486038D01*
X53156830Y-4466632D01*
X53167866Y-4448219D01*
X53180654Y-4430976D01*
X53195070Y-4415070D01*
X53210976Y-4400654D01*
X53228219Y-4387866D01*
X53246632Y-4376830D01*
X53266038Y-4367651D01*
X53286250Y-4360419D01*
X53307074Y-4355203D01*
X53328309Y-4352053D01*
X53349750Y-4351000D01*
X53787250Y-4351000D01*
X53808691Y-4352053D01*
X53808691Y-4352053D01*
G37*
D12*
G04 #@! TD*
G04 #@! TO.P,D1,1*
G04 #@! TO.N,Net-(D1-Pad1)*
X53568500Y-4826000D03*
D10*
G04 #@! TO.N,+3V3*
G04 #@! TO.C,D1*
G36*
X55383691Y-4352053D02*
X55404926Y-4355203D01*
X55425750Y-4360419D01*
X55445962Y-4367651D01*
X55465368Y-4376830D01*
X55483781Y-4387866D01*
X55501024Y-4400654D01*
X55516930Y-4415070D01*
X55531346Y-4430976D01*
X55544134Y-4448219D01*
X55555170Y-4466632D01*
X55564349Y-4486038D01*
X55571581Y-4506250D01*
X55576797Y-4527074D01*
X55579947Y-4548309D01*
X55581000Y-4569750D01*
X55581000Y-5082250D01*
X55579947Y-5103691D01*
X55576797Y-5124926D01*
X55571581Y-5145750D01*
X55564349Y-5165962D01*
X55555170Y-5185368D01*
X55544134Y-5203781D01*
X55531346Y-5221024D01*
X55516930Y-5236930D01*
X55501024Y-5251346D01*
X55483781Y-5264134D01*
X55465368Y-5275170D01*
X55445962Y-5284349D01*
X55425750Y-5291581D01*
X55404926Y-5296797D01*
X55383691Y-5299947D01*
X55362250Y-5301000D01*
X54924750Y-5301000D01*
X54903309Y-5299947D01*
X54882074Y-5296797D01*
X54861250Y-5291581D01*
X54841038Y-5284349D01*
X54821632Y-5275170D01*
X54803219Y-5264134D01*
X54785976Y-5251346D01*
X54770070Y-5236930D01*
X54755654Y-5221024D01*
X54742866Y-5203781D01*
X54731830Y-5185368D01*
X54722651Y-5165962D01*
X54715419Y-5145750D01*
X54710203Y-5124926D01*
X54707053Y-5103691D01*
X54706000Y-5082250D01*
X54706000Y-4569750D01*
X54707053Y-4548309D01*
X54710203Y-4527074D01*
X54715419Y-4506250D01*
X54722651Y-4486038D01*
X54731830Y-4466632D01*
X54742866Y-4448219D01*
X54755654Y-4430976D01*
X54770070Y-4415070D01*
X54785976Y-4400654D01*
X54803219Y-4387866D01*
X54821632Y-4376830D01*
X54841038Y-4367651D01*
X54861250Y-4360419D01*
X54882074Y-4355203D01*
X54903309Y-4352053D01*
X54924750Y-4351000D01*
X55362250Y-4351000D01*
X55383691Y-4352053D01*
X55383691Y-4352053D01*
G37*
D12*
G04 #@! TD*
G04 #@! TO.P,D1,2*
G04 #@! TO.N,+3V3*
X55143500Y-4826000D03*
D10*
G04 #@! TO.N,+3V3*
G04 #@! TO.C,D2*
G36*
X55383691Y-6384053D02*
X55404926Y-6387203D01*
X55425750Y-6392419D01*
X55445962Y-6399651D01*
X55465368Y-6408830D01*
X55483781Y-6419866D01*
X55501024Y-6432654D01*
X55516930Y-6447070D01*
X55531346Y-6462976D01*
X55544134Y-6480219D01*
X55555170Y-6498632D01*
X55564349Y-6518038D01*
X55571581Y-6538250D01*
X55576797Y-6559074D01*
X55579947Y-6580309D01*
X55581000Y-6601750D01*
X55581000Y-7114250D01*
X55579947Y-7135691D01*
X55576797Y-7156926D01*
X55571581Y-7177750D01*
X55564349Y-7197962D01*
X55555170Y-7217368D01*
X55544134Y-7235781D01*
X55531346Y-7253024D01*
X55516930Y-7268930D01*
X55501024Y-7283346D01*
X55483781Y-7296134D01*
X55465368Y-7307170D01*
X55445962Y-7316349D01*
X55425750Y-7323581D01*
X55404926Y-7328797D01*
X55383691Y-7331947D01*
X55362250Y-7333000D01*
X54924750Y-7333000D01*
X54903309Y-7331947D01*
X54882074Y-7328797D01*
X54861250Y-7323581D01*
X54841038Y-7316349D01*
X54821632Y-7307170D01*
X54803219Y-7296134D01*
X54785976Y-7283346D01*
X54770070Y-7268930D01*
X54755654Y-7253024D01*
X54742866Y-7235781D01*
X54731830Y-7217368D01*
X54722651Y-7197962D01*
X54715419Y-7177750D01*
X54710203Y-7156926D01*
X54707053Y-7135691D01*
X54706000Y-7114250D01*
X54706000Y-6601750D01*
X54707053Y-6580309D01*
X54710203Y-6559074D01*
X54715419Y-6538250D01*
X54722651Y-6518038D01*
X54731830Y-6498632D01*
X54742866Y-6480219D01*
X54755654Y-6462976D01*
X54770070Y-6447070D01*
X54785976Y-6432654D01*
X54803219Y-6419866D01*
X54821632Y-6408830D01*
X54841038Y-6399651D01*
X54861250Y-6392419D01*
X54882074Y-6387203D01*
X54903309Y-6384053D01*
X54924750Y-6383000D01*
X55362250Y-6383000D01*
X55383691Y-6384053D01*
X55383691Y-6384053D01*
G37*
D12*
G04 #@! TD*
G04 #@! TO.P,D2,2*
G04 #@! TO.N,+3V3*
X55143500Y-6858000D03*
D10*
G04 #@! TO.N,Net-(D2-Pad1)*
G04 #@! TO.C,D2*
G36*
X53808691Y-6384053D02*
X53829926Y-6387203D01*
X53850750Y-6392419D01*
X53870962Y-6399651D01*
X53890368Y-6408830D01*
X53908781Y-6419866D01*
X53926024Y-6432654D01*
X53941930Y-6447070D01*
X53956346Y-6462976D01*
X53969134Y-6480219D01*
X53980170Y-6498632D01*
X53989349Y-6518038D01*
X53996581Y-6538250D01*
X54001797Y-6559074D01*
X54004947Y-6580309D01*
X54006000Y-6601750D01*
X54006000Y-7114250D01*
X54004947Y-7135691D01*
X54001797Y-7156926D01*
X53996581Y-7177750D01*
X53989349Y-7197962D01*
X53980170Y-7217368D01*
X53969134Y-7235781D01*
X53956346Y-7253024D01*
X53941930Y-7268930D01*
X53926024Y-7283346D01*
X53908781Y-7296134D01*
X53890368Y-7307170D01*
X53870962Y-7316349D01*
X53850750Y-7323581D01*
X53829926Y-7328797D01*
X53808691Y-7331947D01*
X53787250Y-7333000D01*
X53349750Y-7333000D01*
X53328309Y-7331947D01*
X53307074Y-7328797D01*
X53286250Y-7323581D01*
X53266038Y-7316349D01*
X53246632Y-7307170D01*
X53228219Y-7296134D01*
X53210976Y-7283346D01*
X53195070Y-7268930D01*
X53180654Y-7253024D01*
X53167866Y-7235781D01*
X53156830Y-7217368D01*
X53147651Y-7197962D01*
X53140419Y-7177750D01*
X53135203Y-7156926D01*
X53132053Y-7135691D01*
X53131000Y-7114250D01*
X53131000Y-6601750D01*
X53132053Y-6580309D01*
X53135203Y-6559074D01*
X53140419Y-6538250D01*
X53147651Y-6518038D01*
X53156830Y-6498632D01*
X53167866Y-6480219D01*
X53180654Y-6462976D01*
X53195070Y-6447070D01*
X53210976Y-6432654D01*
X53228219Y-6419866D01*
X53246632Y-6408830D01*
X53266038Y-6399651D01*
X53286250Y-6392419D01*
X53307074Y-6387203D01*
X53328309Y-6384053D01*
X53349750Y-6383000D01*
X53787250Y-6383000D01*
X53808691Y-6384053D01*
X53808691Y-6384053D01*
G37*
D12*
G04 #@! TD*
G04 #@! TO.P,D2,1*
G04 #@! TO.N,Net-(D2-Pad1)*
X53568500Y-6858000D03*
D15*
G04 #@! TO.P,J3,1*
G04 #@! TO.N,GND*
X6350000Y-1270000D03*
D14*
G04 #@! TO.P,J3,2*
G04 #@! TO.N,/5V*
X8890000Y-1270000D03*
G04 #@! TO.P,J3,3*
G04 #@! TO.N,/P2.0*
X11430000Y-1270000D03*
G04 #@! TO.P,J3,4*
G04 #@! TO.N,/P2.1*
X13970000Y-1270000D03*
G04 #@! TO.P,J3,5*
G04 #@! TO.N,/P2.2*
X16510000Y-1270000D03*
G04 #@! TO.P,J3,6*
G04 #@! TO.N,/P2.3*
X19050000Y-1270000D03*
G04 #@! TO.P,J3,7*
G04 #@! TO.N,/P2.4*
X21590000Y-1270000D03*
G04 #@! TO.P,J3,8*
G04 #@! TO.N,/P2.5*
X24130000Y-1270000D03*
G04 #@! TO.P,J3,9*
G04 #@! TO.N,/P14.8*
X26670000Y-1270000D03*
G04 #@! TO.P,J3,10*
G04 #@! TO.N,/P14.9*
X29210000Y-1270000D03*
G04 #@! TO.P,J3,11*
G04 #@! TO.N,/VDDA*
X31750000Y-1270000D03*
G04 #@! TO.P,J3,12*
G04 #@! TO.N,/P14.0*
X34290000Y-1270000D03*
G04 #@! TO.P,J3,13*
G04 #@! TO.N,/P14.3*
X36830000Y-1270000D03*
G04 #@! TO.P,J3,14*
G04 #@! TO.N,/P14.4*
X39370000Y-1270000D03*
G04 #@! TO.P,J3,15*
G04 #@! TO.N,/P14.5*
X41910000Y-1270000D03*
G04 #@! TO.P,J3,16*
G04 #@! TO.N,/P14.6*
X44450000Y-1270000D03*
G04 #@! TO.P,J3,17*
G04 #@! TO.N,/P14.7*
X46990000Y-1270000D03*
G04 #@! TO.P,J3,18*
G04 #@! TO.N,/LED1*
X49530000Y-1270000D03*
G04 #@! TO.P,J3,19*
G04 #@! TO.N,+3V3*
X52070000Y-1270000D03*
G04 #@! TO.P,J3,20*
G04 #@! TO.N,GND*
X54610000Y-1270000D03*
G04 #@! TD*
D10*
G04 #@! TO.N,GND*
G04 #@! TO.C,U1*
G36*
X27202504Y-6517091D02*
X27226773Y-6520691D01*
X27250571Y-6526652D01*
X27273671Y-6534917D01*
X27295849Y-6545407D01*
X27316893Y-6558020D01*
X27336598Y-6572634D01*
X27354777Y-6589110D01*
X30748890Y-9983223D01*
X30765366Y-10001402D01*
X30779980Y-10021107D01*
X30792593Y-10042151D01*
X30803083Y-10064329D01*
X30811348Y-10087429D01*
X30817309Y-10111227D01*
X30820909Y-10135496D01*
X30822113Y-10160000D01*
X30820909Y-10184504D01*
X30817309Y-10208773D01*
X30811348Y-10232571D01*
X30803083Y-10255671D01*
X30792593Y-10277849D01*
X30779980Y-10298893D01*
X30765366Y-10318598D01*
X30748890Y-10336777D01*
X27354777Y-13730890D01*
X27336598Y-13747366D01*
X27316893Y-13761980D01*
X27295849Y-13774593D01*
X27273671Y-13785083D01*
X27250571Y-13793348D01*
X27226773Y-13799309D01*
X27202504Y-13802909D01*
X27178000Y-13804113D01*
X27153496Y-13802909D01*
X27129227Y-13799309D01*
X27105429Y-13793348D01*
X27082329Y-13785083D01*
X27060151Y-13774593D01*
X27039107Y-13761980D01*
X27019402Y-13747366D01*
X27001223Y-13730890D01*
X23607110Y-10336777D01*
X23590634Y-10318598D01*
X23576020Y-10298893D01*
X23563407Y-10277849D01*
X23552917Y-10255671D01*
X23544652Y-10232571D01*
X23538691Y-10208773D01*
X23535091Y-10184504D01*
X23533887Y-10160000D01*
X23535091Y-10135496D01*
X23538691Y-10111227D01*
X23544652Y-10087429D01*
X23552917Y-10064329D01*
X23563407Y-10042151D01*
X23576020Y-10021107D01*
X23590634Y-10001402D01*
X23607110Y-9983223D01*
X27001223Y-6589110D01*
X27019402Y-6572634D01*
X27039107Y-6558020D01*
X27060151Y-6545407D01*
X27082329Y-6534917D01*
X27105429Y-6526652D01*
X27129227Y-6520691D01*
X27153496Y-6517091D01*
X27178000Y-6515887D01*
X27202504Y-6517091D01*
X27202504Y-6517091D01*
G37*
D23*
G04 #@! TD*
G04 #@! TO.P,U1,49*
G04 #@! TO.N,GND*
X27178000Y-10160000D03*
D10*
G04 #@! TO.N,/P0.1*
G04 #@! TO.C,U1*
G36*
X27484647Y-14199020D02*
X27490714Y-14199920D01*
X27496664Y-14201410D01*
X27502439Y-14203477D01*
X27507983Y-14206099D01*
X27513244Y-14209252D01*
X27518171Y-14212906D01*
X27522715Y-14217025D01*
X28000012Y-14694322D01*
X28004131Y-14698866D01*
X28007785Y-14703793D01*
X28010938Y-14709054D01*
X28013560Y-14714598D01*
X28015627Y-14720373D01*
X28017117Y-14726323D01*
X28018017Y-14732390D01*
X28018318Y-14738516D01*
X28018017Y-14744642D01*
X28017117Y-14750709D01*
X28015627Y-14756659D01*
X28013560Y-14762434D01*
X28010938Y-14767978D01*
X28007785Y-14773239D01*
X28004131Y-14778166D01*
X28000012Y-14782710D01*
X27911623Y-14871099D01*
X27907079Y-14875218D01*
X27902152Y-14878872D01*
X27896891Y-14882025D01*
X27891347Y-14884647D01*
X27885572Y-14886714D01*
X27879622Y-14888204D01*
X27873555Y-14889104D01*
X27867429Y-14889405D01*
X27861303Y-14889104D01*
X27855236Y-14888204D01*
X27849286Y-14886714D01*
X27843511Y-14884647D01*
X27837967Y-14882025D01*
X27832706Y-14878872D01*
X27827779Y-14875218D01*
X27823235Y-14871099D01*
X27345938Y-14393802D01*
X27341819Y-14389258D01*
X27338165Y-14384331D01*
X27335012Y-14379070D01*
X27332390Y-14373526D01*
X27330323Y-14367751D01*
X27328833Y-14361801D01*
X27327933Y-14355734D01*
X27327632Y-14349608D01*
X27327933Y-14343482D01*
X27328833Y-14337415D01*
X27330323Y-14331465D01*
X27332390Y-14325690D01*
X27335012Y-14320146D01*
X27338165Y-14314885D01*
X27341819Y-14309958D01*
X27345938Y-14305414D01*
X27434327Y-14217025D01*
X27438871Y-14212906D01*
X27443798Y-14209252D01*
X27449059Y-14206099D01*
X27454603Y-14203477D01*
X27460378Y-14201410D01*
X27466328Y-14199920D01*
X27472395Y-14199020D01*
X27478521Y-14198719D01*
X27484647Y-14199020D01*
X27484647Y-14199020D01*
G37*
D24*
G04 #@! TD*
G04 #@! TO.P,U1,1*
G04 #@! TO.N,/P0.1*
X27672975Y-14544062D03*
D10*
G04 #@! TO.N,/P0.0*
G04 #@! TO.C,U1*
G36*
X27838200Y-13845467D02*
X27844267Y-13846367D01*
X27850217Y-13847857D01*
X27855992Y-13849924D01*
X27861536Y-13852546D01*
X27866797Y-13855699D01*
X27871724Y-13859353D01*
X27876268Y-13863472D01*
X28353565Y-14340769D01*
X28357684Y-14345313D01*
X28361338Y-14350240D01*
X28364491Y-14355501D01*
X28367113Y-14361045D01*
X28369180Y-14366820D01*
X28370670Y-14372770D01*
X28371570Y-14378837D01*
X28371871Y-14384963D01*
X28371570Y-14391089D01*
X28370670Y-14397156D01*
X28369180Y-14403106D01*
X28367113Y-14408881D01*
X28364491Y-14414425D01*
X28361338Y-14419686D01*
X28357684Y-14424613D01*
X28353565Y-14429157D01*
X28265176Y-14517546D01*
X28260632Y-14521665D01*
X28255705Y-14525319D01*
X28250444Y-14528472D01*
X28244900Y-14531094D01*
X28239125Y-14533161D01*
X28233175Y-14534651D01*
X28227108Y-14535551D01*
X28220982Y-14535852D01*
X28214856Y-14535551D01*
X28208789Y-14534651D01*
X28202839Y-14533161D01*
X28197064Y-14531094D01*
X28191520Y-14528472D01*
X28186259Y-14525319D01*
X28181332Y-14521665D01*
X28176788Y-14517546D01*
X27699491Y-14040249D01*
X27695372Y-14035705D01*
X27691718Y-14030778D01*
X27688565Y-14025517D01*
X27685943Y-14019973D01*
X27683876Y-14014198D01*
X27682386Y-14008248D01*
X27681486Y-14002181D01*
X27681185Y-13996055D01*
X27681486Y-13989929D01*
X27682386Y-13983862D01*
X27683876Y-13977912D01*
X27685943Y-13972137D01*
X27688565Y-13966593D01*
X27691718Y-13961332D01*
X27695372Y-13956405D01*
X27699491Y-13951861D01*
X27787880Y-13863472D01*
X27792424Y-13859353D01*
X27797351Y-13855699D01*
X27802612Y-13852546D01*
X27808156Y-13849924D01*
X27813931Y-13847857D01*
X27819881Y-13846367D01*
X27825948Y-13845467D01*
X27832074Y-13845166D01*
X27838200Y-13845467D01*
X27838200Y-13845467D01*
G37*
D24*
G04 #@! TD*
G04 #@! TO.P,U1,2*
G04 #@! TO.N,/P0.0*
X28026528Y-14190509D03*
D10*
G04 #@! TO.N,/USB_D-*
G04 #@! TO.C,U1*
G36*
X28191754Y-13491913D02*
X28197821Y-13492813D01*
X28203771Y-13494303D01*
X28209546Y-13496370D01*
X28215090Y-13498992D01*
X28220351Y-13502145D01*
X28225278Y-13505799D01*
X28229822Y-13509918D01*
X28707119Y-13987215D01*
X28711238Y-13991759D01*
X28714892Y-13996686D01*
X28718045Y-14001947D01*
X28720667Y-14007491D01*
X28722734Y-14013266D01*
X28724224Y-14019216D01*
X28725124Y-14025283D01*
X28725425Y-14031409D01*
X28725124Y-14037535D01*
X28724224Y-14043602D01*
X28722734Y-14049552D01*
X28720667Y-14055327D01*
X28718045Y-14060871D01*
X28714892Y-14066132D01*
X28711238Y-14071059D01*
X28707119Y-14075603D01*
X28618730Y-14163992D01*
X28614186Y-14168111D01*
X28609259Y-14171765D01*
X28603998Y-14174918D01*
X28598454Y-14177540D01*
X28592679Y-14179607D01*
X28586729Y-14181097D01*
X28580662Y-14181997D01*
X28574536Y-14182298D01*
X28568410Y-14181997D01*
X28562343Y-14181097D01*
X28556393Y-14179607D01*
X28550618Y-14177540D01*
X28545074Y-14174918D01*
X28539813Y-14171765D01*
X28534886Y-14168111D01*
X28530342Y-14163992D01*
X28053045Y-13686695D01*
X28048926Y-13682151D01*
X28045272Y-13677224D01*
X28042119Y-13671963D01*
X28039497Y-13666419D01*
X28037430Y-13660644D01*
X28035940Y-13654694D01*
X28035040Y-13648627D01*
X28034739Y-13642501D01*
X28035040Y-13636375D01*
X28035940Y-13630308D01*
X28037430Y-13624358D01*
X28039497Y-13618583D01*
X28042119Y-13613039D01*
X28045272Y-13607778D01*
X28048926Y-13602851D01*
X28053045Y-13598307D01*
X28141434Y-13509918D01*
X28145978Y-13505799D01*
X28150905Y-13502145D01*
X28156166Y-13498992D01*
X28161710Y-13496370D01*
X28167485Y-13494303D01*
X28173435Y-13492813D01*
X28179502Y-13491913D01*
X28185628Y-13491612D01*
X28191754Y-13491913D01*
X28191754Y-13491913D01*
G37*
D24*
G04 #@! TD*
G04 #@! TO.P,U1,3*
G04 #@! TO.N,/USB_D-*
X28380082Y-13836955D03*
D10*
G04 #@! TO.N,/USB_D+*
G04 #@! TO.C,U1*
G36*
X28545307Y-13138360D02*
X28551374Y-13139260D01*
X28557324Y-13140750D01*
X28563099Y-13142817D01*
X28568643Y-13145439D01*
X28573904Y-13148592D01*
X28578831Y-13152246D01*
X28583375Y-13156365D01*
X29060672Y-13633662D01*
X29064791Y-13638206D01*
X29068445Y-13643133D01*
X29071598Y-13648394D01*
X29074220Y-13653938D01*
X29076287Y-13659713D01*
X29077777Y-13665663D01*
X29078677Y-13671730D01*
X29078978Y-13677856D01*
X29078677Y-13683982D01*
X29077777Y-13690049D01*
X29076287Y-13695999D01*
X29074220Y-13701774D01*
X29071598Y-13707318D01*
X29068445Y-13712579D01*
X29064791Y-13717506D01*
X29060672Y-13722050D01*
X28972283Y-13810439D01*
X28967739Y-13814558D01*
X28962812Y-13818212D01*
X28957551Y-13821365D01*
X28952007Y-13823987D01*
X28946232Y-13826054D01*
X28940282Y-13827544D01*
X28934215Y-13828444D01*
X28928089Y-13828745D01*
X28921963Y-13828444D01*
X28915896Y-13827544D01*
X28909946Y-13826054D01*
X28904171Y-13823987D01*
X28898627Y-13821365D01*
X28893366Y-13818212D01*
X28888439Y-13814558D01*
X28883895Y-13810439D01*
X28406598Y-13333142D01*
X28402479Y-13328598D01*
X28398825Y-13323671D01*
X28395672Y-13318410D01*
X28393050Y-13312866D01*
X28390983Y-13307091D01*
X28389493Y-13301141D01*
X28388593Y-13295074D01*
X28388292Y-13288948D01*
X28388593Y-13282822D01*
X28389493Y-13276755D01*
X28390983Y-13270805D01*
X28393050Y-13265030D01*
X28395672Y-13259486D01*
X28398825Y-13254225D01*
X28402479Y-13249298D01*
X28406598Y-13244754D01*
X28494987Y-13156365D01*
X28499531Y-13152246D01*
X28504458Y-13148592D01*
X28509719Y-13145439D01*
X28515263Y-13142817D01*
X28521038Y-13140750D01*
X28526988Y-13139260D01*
X28533055Y-13138360D01*
X28539181Y-13138059D01*
X28545307Y-13138360D01*
X28545307Y-13138360D01*
G37*
D24*
G04 #@! TD*
G04 #@! TO.P,U1,4*
G04 #@! TO.N,/USB_D+*
X28733635Y-13483402D03*
D10*
G04 #@! TO.N,+3V3*
G04 #@! TO.C,U1*
G36*
X28898860Y-12784806D02*
X28904927Y-12785706D01*
X28910877Y-12787196D01*
X28916652Y-12789263D01*
X28922196Y-12791885D01*
X28927457Y-12795038D01*
X28932384Y-12798692D01*
X28936928Y-12802811D01*
X29414225Y-13280108D01*
X29418344Y-13284652D01*
X29421998Y-13289579D01*
X29425151Y-13294840D01*
X29427773Y-13300384D01*
X29429840Y-13306159D01*
X29431330Y-13312109D01*
X29432230Y-13318176D01*
X29432531Y-13324302D01*
X29432230Y-13330428D01*
X29431330Y-13336495D01*
X29429840Y-13342445D01*
X29427773Y-13348220D01*
X29425151Y-13353764D01*
X29421998Y-13359025D01*
X29418344Y-13363952D01*
X29414225Y-13368496D01*
X29325836Y-13456885D01*
X29321292Y-13461004D01*
X29316365Y-13464658D01*
X29311104Y-13467811D01*
X29305560Y-13470433D01*
X29299785Y-13472500D01*
X29293835Y-13473990D01*
X29287768Y-13474890D01*
X29281642Y-13475191D01*
X29275516Y-13474890D01*
X29269449Y-13473990D01*
X29263499Y-13472500D01*
X29257724Y-13470433D01*
X29252180Y-13467811D01*
X29246919Y-13464658D01*
X29241992Y-13461004D01*
X29237448Y-13456885D01*
X28760151Y-12979588D01*
X28756032Y-12975044D01*
X28752378Y-12970117D01*
X28749225Y-12964856D01*
X28746603Y-12959312D01*
X28744536Y-12953537D01*
X28743046Y-12947587D01*
X28742146Y-12941520D01*
X28741845Y-12935394D01*
X28742146Y-12929268D01*
X28743046Y-12923201D01*
X28744536Y-12917251D01*
X28746603Y-12911476D01*
X28749225Y-12905932D01*
X28752378Y-12900671D01*
X28756032Y-12895744D01*
X28760151Y-12891200D01*
X28848540Y-12802811D01*
X28853084Y-12798692D01*
X28858011Y-12795038D01*
X28863272Y-12791885D01*
X28868816Y-12789263D01*
X28874591Y-12787196D01*
X28880541Y-12785706D01*
X28886608Y-12784806D01*
X28892734Y-12784505D01*
X28898860Y-12784806D01*
X28898860Y-12784806D01*
G37*
D24*
G04 #@! TD*
G04 #@! TO.P,U1,5*
G04 #@! TO.N,+3V3*
X29087188Y-13129848D03*
D10*
G04 #@! TO.N,/1V2*
G04 #@! TO.C,U1*
G36*
X29252414Y-12431253D02*
X29258481Y-12432153D01*
X29264431Y-12433643D01*
X29270206Y-12435710D01*
X29275750Y-12438332D01*
X29281011Y-12441485D01*
X29285938Y-12445139D01*
X29290482Y-12449258D01*
X29767779Y-12926555D01*
X29771898Y-12931099D01*
X29775552Y-12936026D01*
X29778705Y-12941287D01*
X29781327Y-12946831D01*
X29783394Y-12952606D01*
X29784884Y-12958556D01*
X29785784Y-12964623D01*
X29786085Y-12970749D01*
X29785784Y-12976875D01*
X29784884Y-12982942D01*
X29783394Y-12988892D01*
X29781327Y-12994667D01*
X29778705Y-13000211D01*
X29775552Y-13005472D01*
X29771898Y-13010399D01*
X29767779Y-13014943D01*
X29679390Y-13103332D01*
X29674846Y-13107451D01*
X29669919Y-13111105D01*
X29664658Y-13114258D01*
X29659114Y-13116880D01*
X29653339Y-13118947D01*
X29647389Y-13120437D01*
X29641322Y-13121337D01*
X29635196Y-13121638D01*
X29629070Y-13121337D01*
X29623003Y-13120437D01*
X29617053Y-13118947D01*
X29611278Y-13116880D01*
X29605734Y-13114258D01*
X29600473Y-13111105D01*
X29595546Y-13107451D01*
X29591002Y-13103332D01*
X29113705Y-12626035D01*
X29109586Y-12621491D01*
X29105932Y-12616564D01*
X29102779Y-12611303D01*
X29100157Y-12605759D01*
X29098090Y-12599984D01*
X29096600Y-12594034D01*
X29095700Y-12587967D01*
X29095399Y-12581841D01*
X29095700Y-12575715D01*
X29096600Y-12569648D01*
X29098090Y-12563698D01*
X29100157Y-12557923D01*
X29102779Y-12552379D01*
X29105932Y-12547118D01*
X29109586Y-12542191D01*
X29113705Y-12537647D01*
X29202094Y-12449258D01*
X29206638Y-12445139D01*
X29211565Y-12441485D01*
X29216826Y-12438332D01*
X29222370Y-12435710D01*
X29228145Y-12433643D01*
X29234095Y-12432153D01*
X29240162Y-12431253D01*
X29246288Y-12430952D01*
X29252414Y-12431253D01*
X29252414Y-12431253D01*
G37*
D24*
G04 #@! TD*
G04 #@! TO.P,U1,6*
G04 #@! TO.N,/1V2*
X29440742Y-12776295D03*
D10*
G04 #@! TO.N,/HIB_IO*
G04 #@! TO.C,U1*
G36*
X29605967Y-12077700D02*
X29612034Y-12078600D01*
X29617984Y-12080090D01*
X29623759Y-12082157D01*
X29629303Y-12084779D01*
X29634564Y-12087932D01*
X29639491Y-12091586D01*
X29644035Y-12095705D01*
X30121332Y-12573002D01*
X30125451Y-12577546D01*
X30129105Y-12582473D01*
X30132258Y-12587734D01*
X30134880Y-12593278D01*
X30136947Y-12599053D01*
X30138437Y-12605003D01*
X30139337Y-12611070D01*
X30139638Y-12617196D01*
X30139337Y-12623322D01*
X30138437Y-12629389D01*
X30136947Y-12635339D01*
X30134880Y-12641114D01*
X30132258Y-12646658D01*
X30129105Y-12651919D01*
X30125451Y-12656846D01*
X30121332Y-12661390D01*
X30032943Y-12749779D01*
X30028399Y-12753898D01*
X30023472Y-12757552D01*
X30018211Y-12760705D01*
X30012667Y-12763327D01*
X30006892Y-12765394D01*
X30000942Y-12766884D01*
X29994875Y-12767784D01*
X29988749Y-12768085D01*
X29982623Y-12767784D01*
X29976556Y-12766884D01*
X29970606Y-12765394D01*
X29964831Y-12763327D01*
X29959287Y-12760705D01*
X29954026Y-12757552D01*
X29949099Y-12753898D01*
X29944555Y-12749779D01*
X29467258Y-12272482D01*
X29463139Y-12267938D01*
X29459485Y-12263011D01*
X29456332Y-12257750D01*
X29453710Y-12252206D01*
X29451643Y-12246431D01*
X29450153Y-12240481D01*
X29449253Y-12234414D01*
X29448952Y-12228288D01*
X29449253Y-12222162D01*
X29450153Y-12216095D01*
X29451643Y-12210145D01*
X29453710Y-12204370D01*
X29456332Y-12198826D01*
X29459485Y-12193565D01*
X29463139Y-12188638D01*
X29467258Y-12184094D01*
X29555647Y-12095705D01*
X29560191Y-12091586D01*
X29565118Y-12087932D01*
X29570379Y-12084779D01*
X29575923Y-12082157D01*
X29581698Y-12080090D01*
X29587648Y-12078600D01*
X29593715Y-12077700D01*
X29599841Y-12077399D01*
X29605967Y-12077700D01*
X29605967Y-12077700D01*
G37*
D24*
G04 #@! TD*
G04 #@! TO.P,U1,7*
G04 #@! TO.N,/HIB_IO*
X29794295Y-12422742D03*
D10*
G04 #@! TO.N,/OSC32_IN*
G04 #@! TO.C,U1*
G36*
X29959520Y-11724146D02*
X29965587Y-11725046D01*
X29971537Y-11726536D01*
X29977312Y-11728603D01*
X29982856Y-11731225D01*
X29988117Y-11734378D01*
X29993044Y-11738032D01*
X29997588Y-11742151D01*
X30474885Y-12219448D01*
X30479004Y-12223992D01*
X30482658Y-12228919D01*
X30485811Y-12234180D01*
X30488433Y-12239724D01*
X30490500Y-12245499D01*
X30491990Y-12251449D01*
X30492890Y-12257516D01*
X30493191Y-12263642D01*
X30492890Y-12269768D01*
X30491990Y-12275835D01*
X30490500Y-12281785D01*
X30488433Y-12287560D01*
X30485811Y-12293104D01*
X30482658Y-12298365D01*
X30479004Y-12303292D01*
X30474885Y-12307836D01*
X30386496Y-12396225D01*
X30381952Y-12400344D01*
X30377025Y-12403998D01*
X30371764Y-12407151D01*
X30366220Y-12409773D01*
X30360445Y-12411840D01*
X30354495Y-12413330D01*
X30348428Y-12414230D01*
X30342302Y-12414531D01*
X30336176Y-12414230D01*
X30330109Y-12413330D01*
X30324159Y-12411840D01*
X30318384Y-12409773D01*
X30312840Y-12407151D01*
X30307579Y-12403998D01*
X30302652Y-12400344D01*
X30298108Y-12396225D01*
X29820811Y-11918928D01*
X29816692Y-11914384D01*
X29813038Y-11909457D01*
X29809885Y-11904196D01*
X29807263Y-11898652D01*
X29805196Y-11892877D01*
X29803706Y-11886927D01*
X29802806Y-11880860D01*
X29802505Y-11874734D01*
X29802806Y-11868608D01*
X29803706Y-11862541D01*
X29805196Y-11856591D01*
X29807263Y-11850816D01*
X29809885Y-11845272D01*
X29813038Y-11840011D01*
X29816692Y-11835084D01*
X29820811Y-11830540D01*
X29909200Y-11742151D01*
X29913744Y-11738032D01*
X29918671Y-11734378D01*
X29923932Y-11731225D01*
X29929476Y-11728603D01*
X29935251Y-11726536D01*
X29941201Y-11725046D01*
X29947268Y-11724146D01*
X29953394Y-11723845D01*
X29959520Y-11724146D01*
X29959520Y-11724146D01*
G37*
D24*
G04 #@! TD*
G04 #@! TO.P,U1,8*
G04 #@! TO.N,/OSC32_IN*
X30147848Y-12069188D03*
D10*
G04 #@! TO.N,/OSC32_OUT*
G04 #@! TO.C,U1*
G36*
X30313074Y-11370593D02*
X30319141Y-11371493D01*
X30325091Y-11372983D01*
X30330866Y-11375050D01*
X30336410Y-11377672D01*
X30341671Y-11380825D01*
X30346598Y-11384479D01*
X30351142Y-11388598D01*
X30828439Y-11865895D01*
X30832558Y-11870439D01*
X30836212Y-11875366D01*
X30839365Y-11880627D01*
X30841987Y-11886171D01*
X30844054Y-11891946D01*
X30845544Y-11897896D01*
X30846444Y-11903963D01*
X30846745Y-11910089D01*
X30846444Y-11916215D01*
X30845544Y-11922282D01*
X30844054Y-11928232D01*
X30841987Y-11934007D01*
X30839365Y-11939551D01*
X30836212Y-11944812D01*
X30832558Y-11949739D01*
X30828439Y-11954283D01*
X30740050Y-12042672D01*
X30735506Y-12046791D01*
X30730579Y-12050445D01*
X30725318Y-12053598D01*
X30719774Y-12056220D01*
X30713999Y-12058287D01*
X30708049Y-12059777D01*
X30701982Y-12060677D01*
X30695856Y-12060978D01*
X30689730Y-12060677D01*
X30683663Y-12059777D01*
X30677713Y-12058287D01*
X30671938Y-12056220D01*
X30666394Y-12053598D01*
X30661133Y-12050445D01*
X30656206Y-12046791D01*
X30651662Y-12042672D01*
X30174365Y-11565375D01*
X30170246Y-11560831D01*
X30166592Y-11555904D01*
X30163439Y-11550643D01*
X30160817Y-11545099D01*
X30158750Y-11539324D01*
X30157260Y-11533374D01*
X30156360Y-11527307D01*
X30156059Y-11521181D01*
X30156360Y-11515055D01*
X30157260Y-11508988D01*
X30158750Y-11503038D01*
X30160817Y-11497263D01*
X30163439Y-11491719D01*
X30166592Y-11486458D01*
X30170246Y-11481531D01*
X30174365Y-11476987D01*
X30262754Y-11388598D01*
X30267298Y-11384479D01*
X30272225Y-11380825D01*
X30277486Y-11377672D01*
X30283030Y-11375050D01*
X30288805Y-11372983D01*
X30294755Y-11371493D01*
X30300822Y-11370593D01*
X30306948Y-11370292D01*
X30313074Y-11370593D01*
X30313074Y-11370593D01*
G37*
D24*
G04 #@! TD*
G04 #@! TO.P,U1,9*
G04 #@! TO.N,/OSC32_OUT*
X30501402Y-11715635D03*
D10*
G04 #@! TO.N,+3V3*
G04 #@! TO.C,U1*
G36*
X30666627Y-11017040D02*
X30672694Y-11017940D01*
X30678644Y-11019430D01*
X30684419Y-11021497D01*
X30689963Y-11024119D01*
X30695224Y-11027272D01*
X30700151Y-11030926D01*
X30704695Y-11035045D01*
X31181992Y-11512342D01*
X31186111Y-11516886D01*
X31189765Y-11521813D01*
X31192918Y-11527074D01*
X31195540Y-11532618D01*
X31197607Y-11538393D01*
X31199097Y-11544343D01*
X31199997Y-11550410D01*
X31200298Y-11556536D01*
X31199997Y-11562662D01*
X31199097Y-11568729D01*
X31197607Y-11574679D01*
X31195540Y-11580454D01*
X31192918Y-11585998D01*
X31189765Y-11591259D01*
X31186111Y-11596186D01*
X31181992Y-11600730D01*
X31093603Y-11689119D01*
X31089059Y-11693238D01*
X31084132Y-11696892D01*
X31078871Y-11700045D01*
X31073327Y-11702667D01*
X31067552Y-11704734D01*
X31061602Y-11706224D01*
X31055535Y-11707124D01*
X31049409Y-11707425D01*
X31043283Y-11707124D01*
X31037216Y-11706224D01*
X31031266Y-11704734D01*
X31025491Y-11702667D01*
X31019947Y-11700045D01*
X31014686Y-11696892D01*
X31009759Y-11693238D01*
X31005215Y-11689119D01*
X30527918Y-11211822D01*
X30523799Y-11207278D01*
X30520145Y-11202351D01*
X30516992Y-11197090D01*
X30514370Y-11191546D01*
X30512303Y-11185771D01*
X30510813Y-11179821D01*
X30509913Y-11173754D01*
X30509612Y-11167628D01*
X30509913Y-11161502D01*
X30510813Y-11155435D01*
X30512303Y-11149485D01*
X30514370Y-11143710D01*
X30516992Y-11138166D01*
X30520145Y-11132905D01*
X30523799Y-11127978D01*
X30527918Y-11123434D01*
X30616307Y-11035045D01*
X30620851Y-11030926D01*
X30625778Y-11027272D01*
X30631039Y-11024119D01*
X30636583Y-11021497D01*
X30642358Y-11019430D01*
X30648308Y-11017940D01*
X30654375Y-11017040D01*
X30660501Y-11016739D01*
X30666627Y-11017040D01*
X30666627Y-11017040D01*
G37*
D24*
G04 #@! TD*
G04 #@! TO.P,U1,10*
G04 #@! TO.N,+3V3*
X30854955Y-11362082D03*
D10*
G04 #@! TO.N,/P14.7*
G04 #@! TO.C,U1*
G36*
X31020181Y-10663486D02*
X31026248Y-10664386D01*
X31032198Y-10665876D01*
X31037973Y-10667943D01*
X31043517Y-10670565D01*
X31048778Y-10673718D01*
X31053705Y-10677372D01*
X31058249Y-10681491D01*
X31535546Y-11158788D01*
X31539665Y-11163332D01*
X31543319Y-11168259D01*
X31546472Y-11173520D01*
X31549094Y-11179064D01*
X31551161Y-11184839D01*
X31552651Y-11190789D01*
X31553551Y-11196856D01*
X31553852Y-11202982D01*
X31553551Y-11209108D01*
X31552651Y-11215175D01*
X31551161Y-11221125D01*
X31549094Y-11226900D01*
X31546472Y-11232444D01*
X31543319Y-11237705D01*
X31539665Y-11242632D01*
X31535546Y-11247176D01*
X31447157Y-11335565D01*
X31442613Y-11339684D01*
X31437686Y-11343338D01*
X31432425Y-11346491D01*
X31426881Y-11349113D01*
X31421106Y-11351180D01*
X31415156Y-11352670D01*
X31409089Y-11353570D01*
X31402963Y-11353871D01*
X31396837Y-11353570D01*
X31390770Y-11352670D01*
X31384820Y-11351180D01*
X31379045Y-11349113D01*
X31373501Y-11346491D01*
X31368240Y-11343338D01*
X31363313Y-11339684D01*
X31358769Y-11335565D01*
X30881472Y-10858268D01*
X30877353Y-10853724D01*
X30873699Y-10848797D01*
X30870546Y-10843536D01*
X30867924Y-10837992D01*
X30865857Y-10832217D01*
X30864367Y-10826267D01*
X30863467Y-10820200D01*
X30863166Y-10814074D01*
X30863467Y-10807948D01*
X30864367Y-10801881D01*
X30865857Y-10795931D01*
X30867924Y-10790156D01*
X30870546Y-10784612D01*
X30873699Y-10779351D01*
X30877353Y-10774424D01*
X30881472Y-10769880D01*
X30969861Y-10681491D01*
X30974405Y-10677372D01*
X30979332Y-10673718D01*
X30984593Y-10670565D01*
X30990137Y-10667943D01*
X30995912Y-10665876D01*
X31001862Y-10664386D01*
X31007929Y-10663486D01*
X31014055Y-10663185D01*
X31020181Y-10663486D01*
X31020181Y-10663486D01*
G37*
D24*
G04 #@! TD*
G04 #@! TO.P,U1,11*
G04 #@! TO.N,/P14.7*
X31208509Y-11008528D03*
D10*
G04 #@! TO.N,/P14.6*
G04 #@! TO.C,U1*
G36*
X31373734Y-10309933D02*
X31379801Y-10310833D01*
X31385751Y-10312323D01*
X31391526Y-10314390D01*
X31397070Y-10317012D01*
X31402331Y-10320165D01*
X31407258Y-10323819D01*
X31411802Y-10327938D01*
X31889099Y-10805235D01*
X31893218Y-10809779D01*
X31896872Y-10814706D01*
X31900025Y-10819967D01*
X31902647Y-10825511D01*
X31904714Y-10831286D01*
X31906204Y-10837236D01*
X31907104Y-10843303D01*
X31907405Y-10849429D01*
X31907104Y-10855555D01*
X31906204Y-10861622D01*
X31904714Y-10867572D01*
X31902647Y-10873347D01*
X31900025Y-10878891D01*
X31896872Y-10884152D01*
X31893218Y-10889079D01*
X31889099Y-10893623D01*
X31800710Y-10982012D01*
X31796166Y-10986131D01*
X31791239Y-10989785D01*
X31785978Y-10992938D01*
X31780434Y-10995560D01*
X31774659Y-10997627D01*
X31768709Y-10999117D01*
X31762642Y-11000017D01*
X31756516Y-11000318D01*
X31750390Y-11000017D01*
X31744323Y-10999117D01*
X31738373Y-10997627D01*
X31732598Y-10995560D01*
X31727054Y-10992938D01*
X31721793Y-10989785D01*
X31716866Y-10986131D01*
X31712322Y-10982012D01*
X31235025Y-10504715D01*
X31230906Y-10500171D01*
X31227252Y-10495244D01*
X31224099Y-10489983D01*
X31221477Y-10484439D01*
X31219410Y-10478664D01*
X31217920Y-10472714D01*
X31217020Y-10466647D01*
X31216719Y-10460521D01*
X31217020Y-10454395D01*
X31217920Y-10448328D01*
X31219410Y-10442378D01*
X31221477Y-10436603D01*
X31224099Y-10431059D01*
X31227252Y-10425798D01*
X31230906Y-10420871D01*
X31235025Y-10416327D01*
X31323414Y-10327938D01*
X31327958Y-10323819D01*
X31332885Y-10320165D01*
X31338146Y-10317012D01*
X31343690Y-10314390D01*
X31349465Y-10312323D01*
X31355415Y-10310833D01*
X31361482Y-10309933D01*
X31367608Y-10309632D01*
X31373734Y-10309933D01*
X31373734Y-10309933D01*
G37*
D24*
G04 #@! TD*
G04 #@! TO.P,U1,12*
G04 #@! TO.N,/P14.6*
X31562062Y-10654975D03*
D10*
G04 #@! TO.N,/P14.5*
G04 #@! TO.C,U1*
G36*
X31762642Y-9319983D02*
X31768709Y-9320883D01*
X31774659Y-9322373D01*
X31780434Y-9324440D01*
X31785978Y-9327062D01*
X31791239Y-9330215D01*
X31796166Y-9333869D01*
X31800710Y-9337988D01*
X31889099Y-9426377D01*
X31893218Y-9430921D01*
X31896872Y-9435848D01*
X31900025Y-9441109D01*
X31902647Y-9446653D01*
X31904714Y-9452428D01*
X31906204Y-9458378D01*
X31907104Y-9464445D01*
X31907405Y-9470571D01*
X31907104Y-9476697D01*
X31906204Y-9482764D01*
X31904714Y-9488714D01*
X31902647Y-9494489D01*
X31900025Y-9500033D01*
X31896872Y-9505294D01*
X31893218Y-9510221D01*
X31889099Y-9514765D01*
X31411802Y-9992062D01*
X31407258Y-9996181D01*
X31402331Y-9999835D01*
X31397070Y-10002988D01*
X31391526Y-10005610D01*
X31385751Y-10007677D01*
X31379801Y-10009167D01*
X31373734Y-10010067D01*
X31367608Y-10010368D01*
X31361482Y-10010067D01*
X31355415Y-10009167D01*
X31349465Y-10007677D01*
X31343690Y-10005610D01*
X31338146Y-10002988D01*
X31332885Y-9999835D01*
X31327958Y-9996181D01*
X31323414Y-9992062D01*
X31235025Y-9903673D01*
X31230906Y-9899129D01*
X31227252Y-9894202D01*
X31224099Y-9888941D01*
X31221477Y-9883397D01*
X31219410Y-9877622D01*
X31217920Y-9871672D01*
X31217020Y-9865605D01*
X31216719Y-9859479D01*
X31217020Y-9853353D01*
X31217920Y-9847286D01*
X31219410Y-9841336D01*
X31221477Y-9835561D01*
X31224099Y-9830017D01*
X31227252Y-9824756D01*
X31230906Y-9819829D01*
X31235025Y-9815285D01*
X31712322Y-9337988D01*
X31716866Y-9333869D01*
X31721793Y-9330215D01*
X31727054Y-9327062D01*
X31732598Y-9324440D01*
X31738373Y-9322373D01*
X31744323Y-9320883D01*
X31750390Y-9319983D01*
X31756516Y-9319682D01*
X31762642Y-9319983D01*
X31762642Y-9319983D01*
G37*
D24*
G04 #@! TD*
G04 #@! TO.P,U1,13*
G04 #@! TO.N,/P14.5*
X31562062Y-9665025D03*
D10*
G04 #@! TO.N,/P14.4*
G04 #@! TO.C,U1*
G36*
X31409089Y-8966430D02*
X31415156Y-8967330D01*
X31421106Y-8968820D01*
X31426881Y-8970887D01*
X31432425Y-8973509D01*
X31437686Y-8976662D01*
X31442613Y-8980316D01*
X31447157Y-8984435D01*
X31535546Y-9072824D01*
X31539665Y-9077368D01*
X31543319Y-9082295D01*
X31546472Y-9087556D01*
X31549094Y-9093100D01*
X31551161Y-9098875D01*
X31552651Y-9104825D01*
X31553551Y-9110892D01*
X31553852Y-9117018D01*
X31553551Y-9123144D01*
X31552651Y-9129211D01*
X31551161Y-9135161D01*
X31549094Y-9140936D01*
X31546472Y-9146480D01*
X31543319Y-9151741D01*
X31539665Y-9156668D01*
X31535546Y-9161212D01*
X31058249Y-9638509D01*
X31053705Y-9642628D01*
X31048778Y-9646282D01*
X31043517Y-9649435D01*
X31037973Y-9652057D01*
X31032198Y-9654124D01*
X31026248Y-9655614D01*
X31020181Y-9656514D01*
X31014055Y-9656815D01*
X31007929Y-9656514D01*
X31001862Y-9655614D01*
X30995912Y-9654124D01*
X30990137Y-9652057D01*
X30984593Y-9649435D01*
X30979332Y-9646282D01*
X30974405Y-9642628D01*
X30969861Y-9638509D01*
X30881472Y-9550120D01*
X30877353Y-9545576D01*
X30873699Y-9540649D01*
X30870546Y-9535388D01*
X30867924Y-9529844D01*
X30865857Y-9524069D01*
X30864367Y-9518119D01*
X30863467Y-9512052D01*
X30863166Y-9505926D01*
X30863467Y-9499800D01*
X30864367Y-9493733D01*
X30865857Y-9487783D01*
X30867924Y-9482008D01*
X30870546Y-9476464D01*
X30873699Y-9471203D01*
X30877353Y-9466276D01*
X30881472Y-9461732D01*
X31358769Y-8984435D01*
X31363313Y-8980316D01*
X31368240Y-8976662D01*
X31373501Y-8973509D01*
X31379045Y-8970887D01*
X31384820Y-8968820D01*
X31390770Y-8967330D01*
X31396837Y-8966430D01*
X31402963Y-8966129D01*
X31409089Y-8966430D01*
X31409089Y-8966430D01*
G37*
D24*
G04 #@! TD*
G04 #@! TO.P,U1,14*
G04 #@! TO.N,/P14.4*
X31208509Y-9311472D03*
D10*
G04 #@! TO.N,/P14.3*
G04 #@! TO.C,U1*
G36*
X31055535Y-8612876D02*
X31061602Y-8613776D01*
X31067552Y-8615266D01*
X31073327Y-8617333D01*
X31078871Y-8619955D01*
X31084132Y-8623108D01*
X31089059Y-8626762D01*
X31093603Y-8630881D01*
X31181992Y-8719270D01*
X31186111Y-8723814D01*
X31189765Y-8728741D01*
X31192918Y-8734002D01*
X31195540Y-8739546D01*
X31197607Y-8745321D01*
X31199097Y-8751271D01*
X31199997Y-8757338D01*
X31200298Y-8763464D01*
X31199997Y-8769590D01*
X31199097Y-8775657D01*
X31197607Y-8781607D01*
X31195540Y-8787382D01*
X31192918Y-8792926D01*
X31189765Y-8798187D01*
X31186111Y-8803114D01*
X31181992Y-8807658D01*
X30704695Y-9284955D01*
X30700151Y-9289074D01*
X30695224Y-9292728D01*
X30689963Y-9295881D01*
X30684419Y-9298503D01*
X30678644Y-9300570D01*
X30672694Y-9302060D01*
X30666627Y-9302960D01*
X30660501Y-9303261D01*
X30654375Y-9302960D01*
X30648308Y-9302060D01*
X30642358Y-9300570D01*
X30636583Y-9298503D01*
X30631039Y-9295881D01*
X30625778Y-9292728D01*
X30620851Y-9289074D01*
X30616307Y-9284955D01*
X30527918Y-9196566D01*
X30523799Y-9192022D01*
X30520145Y-9187095D01*
X30516992Y-9181834D01*
X30514370Y-9176290D01*
X30512303Y-9170515D01*
X30510813Y-9164565D01*
X30509913Y-9158498D01*
X30509612Y-9152372D01*
X30509913Y-9146246D01*
X30510813Y-9140179D01*
X30512303Y-9134229D01*
X30514370Y-9128454D01*
X30516992Y-9122910D01*
X30520145Y-9117649D01*
X30523799Y-9112722D01*
X30527918Y-9108178D01*
X31005215Y-8630881D01*
X31009759Y-8626762D01*
X31014686Y-8623108D01*
X31019947Y-8619955D01*
X31025491Y-8617333D01*
X31031266Y-8615266D01*
X31037216Y-8613776D01*
X31043283Y-8612876D01*
X31049409Y-8612575D01*
X31055535Y-8612876D01*
X31055535Y-8612876D01*
G37*
D24*
G04 #@! TD*
G04 #@! TO.P,U1,15*
G04 #@! TO.N,/P14.3*
X30854955Y-8957918D03*
D10*
G04 #@! TO.N,/P14.0*
G04 #@! TO.C,U1*
G36*
X30701982Y-8259323D02*
X30708049Y-8260223D01*
X30713999Y-8261713D01*
X30719774Y-8263780D01*
X30725318Y-8266402D01*
X30730579Y-8269555D01*
X30735506Y-8273209D01*
X30740050Y-8277328D01*
X30828439Y-8365717D01*
X30832558Y-8370261D01*
X30836212Y-8375188D01*
X30839365Y-8380449D01*
X30841987Y-8385993D01*
X30844054Y-8391768D01*
X30845544Y-8397718D01*
X30846444Y-8403785D01*
X30846745Y-8409911D01*
X30846444Y-8416037D01*
X30845544Y-8422104D01*
X30844054Y-8428054D01*
X30841987Y-8433829D01*
X30839365Y-8439373D01*
X30836212Y-8444634D01*
X30832558Y-8449561D01*
X30828439Y-8454105D01*
X30351142Y-8931402D01*
X30346598Y-8935521D01*
X30341671Y-8939175D01*
X30336410Y-8942328D01*
X30330866Y-8944950D01*
X30325091Y-8947017D01*
X30319141Y-8948507D01*
X30313074Y-8949407D01*
X30306948Y-8949708D01*
X30300822Y-8949407D01*
X30294755Y-8948507D01*
X30288805Y-8947017D01*
X30283030Y-8944950D01*
X30277486Y-8942328D01*
X30272225Y-8939175D01*
X30267298Y-8935521D01*
X30262754Y-8931402D01*
X30174365Y-8843013D01*
X30170246Y-8838469D01*
X30166592Y-8833542D01*
X30163439Y-8828281D01*
X30160817Y-8822737D01*
X30158750Y-8816962D01*
X30157260Y-8811012D01*
X30156360Y-8804945D01*
X30156059Y-8798819D01*
X30156360Y-8792693D01*
X30157260Y-8786626D01*
X30158750Y-8780676D01*
X30160817Y-8774901D01*
X30163439Y-8769357D01*
X30166592Y-8764096D01*
X30170246Y-8759169D01*
X30174365Y-8754625D01*
X30651662Y-8277328D01*
X30656206Y-8273209D01*
X30661133Y-8269555D01*
X30666394Y-8266402D01*
X30671938Y-8263780D01*
X30677713Y-8261713D01*
X30683663Y-8260223D01*
X30689730Y-8259323D01*
X30695856Y-8259022D01*
X30701982Y-8259323D01*
X30701982Y-8259323D01*
G37*
D24*
G04 #@! TD*
G04 #@! TO.P,U1,16*
G04 #@! TO.N,/P14.0*
X30501402Y-8604365D03*
D10*
G04 #@! TO.N,GND*
G04 #@! TO.C,U1*
G36*
X30348428Y-7905770D02*
X30354495Y-7906670D01*
X30360445Y-7908160D01*
X30366220Y-7910227D01*
X30371764Y-7912849D01*
X30377025Y-7916002D01*
X30381952Y-7919656D01*
X30386496Y-7923775D01*
X30474885Y-8012164D01*
X30479004Y-8016708D01*
X30482658Y-8021635D01*
X30485811Y-8026896D01*
X30488433Y-8032440D01*
X30490500Y-8038215D01*
X30491990Y-8044165D01*
X30492890Y-8050232D01*
X30493191Y-8056358D01*
X30492890Y-8062484D01*
X30491990Y-8068551D01*
X30490500Y-8074501D01*
X30488433Y-8080276D01*
X30485811Y-8085820D01*
X30482658Y-8091081D01*
X30479004Y-8096008D01*
X30474885Y-8100552D01*
X29997588Y-8577849D01*
X29993044Y-8581968D01*
X29988117Y-8585622D01*
X29982856Y-8588775D01*
X29977312Y-8591397D01*
X29971537Y-8593464D01*
X29965587Y-8594954D01*
X29959520Y-8595854D01*
X29953394Y-8596155D01*
X29947268Y-8595854D01*
X29941201Y-8594954D01*
X29935251Y-8593464D01*
X29929476Y-8591397D01*
X29923932Y-8588775D01*
X29918671Y-8585622D01*
X29913744Y-8581968D01*
X29909200Y-8577849D01*
X29820811Y-8489460D01*
X29816692Y-8484916D01*
X29813038Y-8479989D01*
X29809885Y-8474728D01*
X29807263Y-8469184D01*
X29805196Y-8463409D01*
X29803706Y-8457459D01*
X29802806Y-8451392D01*
X29802505Y-8445266D01*
X29802806Y-8439140D01*
X29803706Y-8433073D01*
X29805196Y-8427123D01*
X29807263Y-8421348D01*
X29809885Y-8415804D01*
X29813038Y-8410543D01*
X29816692Y-8405616D01*
X29820811Y-8401072D01*
X30298108Y-7923775D01*
X30302652Y-7919656D01*
X30307579Y-7916002D01*
X30312840Y-7912849D01*
X30318384Y-7910227D01*
X30324159Y-7908160D01*
X30330109Y-7906670D01*
X30336176Y-7905770D01*
X30342302Y-7905469D01*
X30348428Y-7905770D01*
X30348428Y-7905770D01*
G37*
D24*
G04 #@! TD*
G04 #@! TO.P,U1,17*
G04 #@! TO.N,GND*
X30147848Y-8250812D03*
D10*
G04 #@! TO.N,/VDDA*
G04 #@! TO.C,U1*
G36*
X29994875Y-7552216D02*
X30000942Y-7553116D01*
X30006892Y-7554606D01*
X30012667Y-7556673D01*
X30018211Y-7559295D01*
X30023472Y-7562448D01*
X30028399Y-7566102D01*
X30032943Y-7570221D01*
X30121332Y-7658610D01*
X30125451Y-7663154D01*
X30129105Y-7668081D01*
X30132258Y-7673342D01*
X30134880Y-7678886D01*
X30136947Y-7684661D01*
X30138437Y-7690611D01*
X30139337Y-7696678D01*
X30139638Y-7702804D01*
X30139337Y-7708930D01*
X30138437Y-7714997D01*
X30136947Y-7720947D01*
X30134880Y-7726722D01*
X30132258Y-7732266D01*
X30129105Y-7737527D01*
X30125451Y-7742454D01*
X30121332Y-7746998D01*
X29644035Y-8224295D01*
X29639491Y-8228414D01*
X29634564Y-8232068D01*
X29629303Y-8235221D01*
X29623759Y-8237843D01*
X29617984Y-8239910D01*
X29612034Y-8241400D01*
X29605967Y-8242300D01*
X29599841Y-8242601D01*
X29593715Y-8242300D01*
X29587648Y-8241400D01*
X29581698Y-8239910D01*
X29575923Y-8237843D01*
X29570379Y-8235221D01*
X29565118Y-8232068D01*
X29560191Y-8228414D01*
X29555647Y-8224295D01*
X29467258Y-8135906D01*
X29463139Y-8131362D01*
X29459485Y-8126435D01*
X29456332Y-8121174D01*
X29453710Y-8115630D01*
X29451643Y-8109855D01*
X29450153Y-8103905D01*
X29449253Y-8097838D01*
X29448952Y-8091712D01*
X29449253Y-8085586D01*
X29450153Y-8079519D01*
X29451643Y-8073569D01*
X29453710Y-8067794D01*
X29456332Y-8062250D01*
X29459485Y-8056989D01*
X29463139Y-8052062D01*
X29467258Y-8047518D01*
X29944555Y-7570221D01*
X29949099Y-7566102D01*
X29954026Y-7562448D01*
X29959287Y-7559295D01*
X29964831Y-7556673D01*
X29970606Y-7554606D01*
X29976556Y-7553116D01*
X29982623Y-7552216D01*
X29988749Y-7551915D01*
X29994875Y-7552216D01*
X29994875Y-7552216D01*
G37*
D24*
G04 #@! TD*
G04 #@! TO.P,U1,18*
G04 #@! TO.N,/VDDA*
X29794295Y-7897258D03*
D10*
G04 #@! TO.N,/P14.9*
G04 #@! TO.C,U1*
G36*
X29641322Y-7198663D02*
X29647389Y-7199563D01*
X29653339Y-7201053D01*
X29659114Y-7203120D01*
X29664658Y-7205742D01*
X29669919Y-7208895D01*
X29674846Y-7212549D01*
X29679390Y-7216668D01*
X29767779Y-7305057D01*
X29771898Y-7309601D01*
X29775552Y-7314528D01*
X29778705Y-7319789D01*
X29781327Y-7325333D01*
X29783394Y-7331108D01*
X29784884Y-7337058D01*
X29785784Y-7343125D01*
X29786085Y-7349251D01*
X29785784Y-7355377D01*
X29784884Y-7361444D01*
X29783394Y-7367394D01*
X29781327Y-7373169D01*
X29778705Y-7378713D01*
X29775552Y-7383974D01*
X29771898Y-7388901D01*
X29767779Y-7393445D01*
X29290482Y-7870742D01*
X29285938Y-7874861D01*
X29281011Y-7878515D01*
X29275750Y-7881668D01*
X29270206Y-7884290D01*
X29264431Y-7886357D01*
X29258481Y-7887847D01*
X29252414Y-7888747D01*
X29246288Y-7889048D01*
X29240162Y-7888747D01*
X29234095Y-7887847D01*
X29228145Y-7886357D01*
X29222370Y-7884290D01*
X29216826Y-7881668D01*
X29211565Y-7878515D01*
X29206638Y-7874861D01*
X29202094Y-7870742D01*
X29113705Y-7782353D01*
X29109586Y-7777809D01*
X29105932Y-7772882D01*
X29102779Y-7767621D01*
X29100157Y-7762077D01*
X29098090Y-7756302D01*
X29096600Y-7750352D01*
X29095700Y-7744285D01*
X29095399Y-7738159D01*
X29095700Y-7732033D01*
X29096600Y-7725966D01*
X29098090Y-7720016D01*
X29100157Y-7714241D01*
X29102779Y-7708697D01*
X29105932Y-7703436D01*
X29109586Y-7698509D01*
X29113705Y-7693965D01*
X29591002Y-7216668D01*
X29595546Y-7212549D01*
X29600473Y-7208895D01*
X29605734Y-7205742D01*
X29611278Y-7203120D01*
X29617053Y-7201053D01*
X29623003Y-7199563D01*
X29629070Y-7198663D01*
X29635196Y-7198362D01*
X29641322Y-7198663D01*
X29641322Y-7198663D01*
G37*
D24*
G04 #@! TD*
G04 #@! TO.P,U1,19*
G04 #@! TO.N,/P14.9*
X29440742Y-7543705D03*
D10*
G04 #@! TO.N,/P14.8*
G04 #@! TO.C,U1*
G36*
X29287768Y-6845110D02*
X29293835Y-6846010D01*
X29299785Y-6847500D01*
X29305560Y-6849567D01*
X29311104Y-6852189D01*
X29316365Y-6855342D01*
X29321292Y-6858996D01*
X29325836Y-6863115D01*
X29414225Y-6951504D01*
X29418344Y-6956048D01*
X29421998Y-6960975D01*
X29425151Y-6966236D01*
X29427773Y-6971780D01*
X29429840Y-6977555D01*
X29431330Y-6983505D01*
X29432230Y-6989572D01*
X29432531Y-6995698D01*
X29432230Y-7001824D01*
X29431330Y-7007891D01*
X29429840Y-7013841D01*
X29427773Y-7019616D01*
X29425151Y-7025160D01*
X29421998Y-7030421D01*
X29418344Y-7035348D01*
X29414225Y-7039892D01*
X28936928Y-7517189D01*
X28932384Y-7521308D01*
X28927457Y-7524962D01*
X28922196Y-7528115D01*
X28916652Y-7530737D01*
X28910877Y-7532804D01*
X28904927Y-7534294D01*
X28898860Y-7535194D01*
X28892734Y-7535495D01*
X28886608Y-7535194D01*
X28880541Y-7534294D01*
X28874591Y-7532804D01*
X28868816Y-7530737D01*
X28863272Y-7528115D01*
X28858011Y-7524962D01*
X28853084Y-7521308D01*
X28848540Y-7517189D01*
X28760151Y-7428800D01*
X28756032Y-7424256D01*
X28752378Y-7419329D01*
X28749225Y-7414068D01*
X28746603Y-7408524D01*
X28744536Y-7402749D01*
X28743046Y-7396799D01*
X28742146Y-7390732D01*
X28741845Y-7384606D01*
X28742146Y-7378480D01*
X28743046Y-7372413D01*
X28744536Y-7366463D01*
X28746603Y-7360688D01*
X28749225Y-7355144D01*
X28752378Y-7349883D01*
X28756032Y-7344956D01*
X28760151Y-7340412D01*
X29237448Y-6863115D01*
X29241992Y-6858996D01*
X29246919Y-6855342D01*
X29252180Y-6852189D01*
X29257724Y-6849567D01*
X29263499Y-6847500D01*
X29269449Y-6846010D01*
X29275516Y-6845110D01*
X29281642Y-6844809D01*
X29287768Y-6845110D01*
X29287768Y-6845110D01*
G37*
D24*
G04 #@! TD*
G04 #@! TO.P,U1,20*
G04 #@! TO.N,/P14.8*
X29087188Y-7190152D03*
D10*
G04 #@! TO.N,/P2.5*
G04 #@! TO.C,U1*
G36*
X28934215Y-6491556D02*
X28940282Y-6492456D01*
X28946232Y-6493946D01*
X28952007Y-6496013D01*
X28957551Y-6498635D01*
X28962812Y-6501788D01*
X28967739Y-6505442D01*
X28972283Y-6509561D01*
X29060672Y-6597950D01*
X29064791Y-6602494D01*
X29068445Y-6607421D01*
X29071598Y-6612682D01*
X29074220Y-6618226D01*
X29076287Y-6624001D01*
X29077777Y-6629951D01*
X29078677Y-6636018D01*
X29078978Y-6642144D01*
X29078677Y-6648270D01*
X29077777Y-6654337D01*
X29076287Y-6660287D01*
X29074220Y-6666062D01*
X29071598Y-6671606D01*
X29068445Y-6676867D01*
X29064791Y-6681794D01*
X29060672Y-6686338D01*
X28583375Y-7163635D01*
X28578831Y-7167754D01*
X28573904Y-7171408D01*
X28568643Y-7174561D01*
X28563099Y-7177183D01*
X28557324Y-7179250D01*
X28551374Y-7180740D01*
X28545307Y-7181640D01*
X28539181Y-7181941D01*
X28533055Y-7181640D01*
X28526988Y-7180740D01*
X28521038Y-7179250D01*
X28515263Y-7177183D01*
X28509719Y-7174561D01*
X28504458Y-7171408D01*
X28499531Y-7167754D01*
X28494987Y-7163635D01*
X28406598Y-7075246D01*
X28402479Y-7070702D01*
X28398825Y-7065775D01*
X28395672Y-7060514D01*
X28393050Y-7054970D01*
X28390983Y-7049195D01*
X28389493Y-7043245D01*
X28388593Y-7037178D01*
X28388292Y-7031052D01*
X28388593Y-7024926D01*
X28389493Y-7018859D01*
X28390983Y-7012909D01*
X28393050Y-7007134D01*
X28395672Y-7001590D01*
X28398825Y-6996329D01*
X28402479Y-6991402D01*
X28406598Y-6986858D01*
X28883895Y-6509561D01*
X28888439Y-6505442D01*
X28893366Y-6501788D01*
X28898627Y-6498635D01*
X28904171Y-6496013D01*
X28909946Y-6493946D01*
X28915896Y-6492456D01*
X28921963Y-6491556D01*
X28928089Y-6491255D01*
X28934215Y-6491556D01*
X28934215Y-6491556D01*
G37*
D24*
G04 #@! TD*
G04 #@! TO.P,U1,21*
G04 #@! TO.N,/P2.5*
X28733635Y-6836598D03*
D10*
G04 #@! TO.N,/P2.4*
G04 #@! TO.C,U1*
G36*
X28580662Y-6138003D02*
X28586729Y-6138903D01*
X28592679Y-6140393D01*
X28598454Y-6142460D01*
X28603998Y-6145082D01*
X28609259Y-6148235D01*
X28614186Y-6151889D01*
X28618730Y-6156008D01*
X28707119Y-6244397D01*
X28711238Y-6248941D01*
X28714892Y-6253868D01*
X28718045Y-6259129D01*
X28720667Y-6264673D01*
X28722734Y-6270448D01*
X28724224Y-6276398D01*
X28725124Y-6282465D01*
X28725425Y-6288591D01*
X28725124Y-6294717D01*
X28724224Y-6300784D01*
X28722734Y-6306734D01*
X28720667Y-6312509D01*
X28718045Y-6318053D01*
X28714892Y-6323314D01*
X28711238Y-6328241D01*
X28707119Y-6332785D01*
X28229822Y-6810082D01*
X28225278Y-6814201D01*
X28220351Y-6817855D01*
X28215090Y-6821008D01*
X28209546Y-6823630D01*
X28203771Y-6825697D01*
X28197821Y-6827187D01*
X28191754Y-6828087D01*
X28185628Y-6828388D01*
X28179502Y-6828087D01*
X28173435Y-6827187D01*
X28167485Y-6825697D01*
X28161710Y-6823630D01*
X28156166Y-6821008D01*
X28150905Y-6817855D01*
X28145978Y-6814201D01*
X28141434Y-6810082D01*
X28053045Y-6721693D01*
X28048926Y-6717149D01*
X28045272Y-6712222D01*
X28042119Y-6706961D01*
X28039497Y-6701417D01*
X28037430Y-6695642D01*
X28035940Y-6689692D01*
X28035040Y-6683625D01*
X28034739Y-6677499D01*
X28035040Y-6671373D01*
X28035940Y-6665306D01*
X28037430Y-6659356D01*
X28039497Y-6653581D01*
X28042119Y-6648037D01*
X28045272Y-6642776D01*
X28048926Y-6637849D01*
X28053045Y-6633305D01*
X28530342Y-6156008D01*
X28534886Y-6151889D01*
X28539813Y-6148235D01*
X28545074Y-6145082D01*
X28550618Y-6142460D01*
X28556393Y-6140393D01*
X28562343Y-6138903D01*
X28568410Y-6138003D01*
X28574536Y-6137702D01*
X28580662Y-6138003D01*
X28580662Y-6138003D01*
G37*
D24*
G04 #@! TD*
G04 #@! TO.P,U1,22*
G04 #@! TO.N,/P2.4*
X28380082Y-6483045D03*
D10*
G04 #@! TO.N,/P2.3*
G04 #@! TO.C,U1*
G36*
X28227108Y-5784449D02*
X28233175Y-5785349D01*
X28239125Y-5786839D01*
X28244900Y-5788906D01*
X28250444Y-5791528D01*
X28255705Y-5794681D01*
X28260632Y-5798335D01*
X28265176Y-5802454D01*
X28353565Y-5890843D01*
X28357684Y-5895387D01*
X28361338Y-5900314D01*
X28364491Y-5905575D01*
X28367113Y-5911119D01*
X28369180Y-5916894D01*
X28370670Y-5922844D01*
X28371570Y-5928911D01*
X28371871Y-5935037D01*
X28371570Y-5941163D01*
X28370670Y-5947230D01*
X28369180Y-5953180D01*
X28367113Y-5958955D01*
X28364491Y-5964499D01*
X28361338Y-5969760D01*
X28357684Y-5974687D01*
X28353565Y-5979231D01*
X27876268Y-6456528D01*
X27871724Y-6460647D01*
X27866797Y-6464301D01*
X27861536Y-6467454D01*
X27855992Y-6470076D01*
X27850217Y-6472143D01*
X27844267Y-6473633D01*
X27838200Y-6474533D01*
X27832074Y-6474834D01*
X27825948Y-6474533D01*
X27819881Y-6473633D01*
X27813931Y-6472143D01*
X27808156Y-6470076D01*
X27802612Y-6467454D01*
X27797351Y-6464301D01*
X27792424Y-6460647D01*
X27787880Y-6456528D01*
X27699491Y-6368139D01*
X27695372Y-6363595D01*
X27691718Y-6358668D01*
X27688565Y-6353407D01*
X27685943Y-6347863D01*
X27683876Y-6342088D01*
X27682386Y-6336138D01*
X27681486Y-6330071D01*
X27681185Y-6323945D01*
X27681486Y-6317819D01*
X27682386Y-6311752D01*
X27683876Y-6305802D01*
X27685943Y-6300027D01*
X27688565Y-6294483D01*
X27691718Y-6289222D01*
X27695372Y-6284295D01*
X27699491Y-6279751D01*
X28176788Y-5802454D01*
X28181332Y-5798335D01*
X28186259Y-5794681D01*
X28191520Y-5791528D01*
X28197064Y-5788906D01*
X28202839Y-5786839D01*
X28208789Y-5785349D01*
X28214856Y-5784449D01*
X28220982Y-5784148D01*
X28227108Y-5784449D01*
X28227108Y-5784449D01*
G37*
D24*
G04 #@! TD*
G04 #@! TO.P,U1,23*
G04 #@! TO.N,/P2.3*
X28026528Y-6129491D03*
D10*
G04 #@! TO.N,/P2.2*
G04 #@! TO.C,U1*
G36*
X27873555Y-5430896D02*
X27879622Y-5431796D01*
X27885572Y-5433286D01*
X27891347Y-5435353D01*
X27896891Y-5437975D01*
X27902152Y-5441128D01*
X27907079Y-5444782D01*
X27911623Y-5448901D01*
X28000012Y-5537290D01*
X28004131Y-5541834D01*
X28007785Y-5546761D01*
X28010938Y-5552022D01*
X28013560Y-5557566D01*
X28015627Y-5563341D01*
X28017117Y-5569291D01*
X28018017Y-5575358D01*
X28018318Y-5581484D01*
X28018017Y-5587610D01*
X28017117Y-5593677D01*
X28015627Y-5599627D01*
X28013560Y-5605402D01*
X28010938Y-5610946D01*
X28007785Y-5616207D01*
X28004131Y-5621134D01*
X28000012Y-5625678D01*
X27522715Y-6102975D01*
X27518171Y-6107094D01*
X27513244Y-6110748D01*
X27507983Y-6113901D01*
X27502439Y-6116523D01*
X27496664Y-6118590D01*
X27490714Y-6120080D01*
X27484647Y-6120980D01*
X27478521Y-6121281D01*
X27472395Y-6120980D01*
X27466328Y-6120080D01*
X27460378Y-6118590D01*
X27454603Y-6116523D01*
X27449059Y-6113901D01*
X27443798Y-6110748D01*
X27438871Y-6107094D01*
X27434327Y-6102975D01*
X27345938Y-6014586D01*
X27341819Y-6010042D01*
X27338165Y-6005115D01*
X27335012Y-5999854D01*
X27332390Y-5994310D01*
X27330323Y-5988535D01*
X27328833Y-5982585D01*
X27327933Y-5976518D01*
X27327632Y-5970392D01*
X27327933Y-5964266D01*
X27328833Y-5958199D01*
X27330323Y-5952249D01*
X27332390Y-5946474D01*
X27335012Y-5940930D01*
X27338165Y-5935669D01*
X27341819Y-5930742D01*
X27345938Y-5926198D01*
X27823235Y-5448901D01*
X27827779Y-5444782D01*
X27832706Y-5441128D01*
X27837967Y-5437975D01*
X27843511Y-5435353D01*
X27849286Y-5433286D01*
X27855236Y-5431796D01*
X27861303Y-5430896D01*
X27867429Y-5430595D01*
X27873555Y-5430896D01*
X27873555Y-5430896D01*
G37*
D24*
G04 #@! TD*
G04 #@! TO.P,U1,24*
G04 #@! TO.N,/P2.2*
X27672975Y-5775938D03*
D10*
G04 #@! TO.N,/P2.1*
G04 #@! TO.C,U1*
G36*
X26494697Y-5430896D02*
X26500764Y-5431796D01*
X26506714Y-5433286D01*
X26512489Y-5435353D01*
X26518033Y-5437975D01*
X26523294Y-5441128D01*
X26528221Y-5444782D01*
X26532765Y-5448901D01*
X27010062Y-5926198D01*
X27014181Y-5930742D01*
X27017835Y-5935669D01*
X27020988Y-5940930D01*
X27023610Y-5946474D01*
X27025677Y-5952249D01*
X27027167Y-5958199D01*
X27028067Y-5964266D01*
X27028368Y-5970392D01*
X27028067Y-5976518D01*
X27027167Y-5982585D01*
X27025677Y-5988535D01*
X27023610Y-5994310D01*
X27020988Y-5999854D01*
X27017835Y-6005115D01*
X27014181Y-6010042D01*
X27010062Y-6014586D01*
X26921673Y-6102975D01*
X26917129Y-6107094D01*
X26912202Y-6110748D01*
X26906941Y-6113901D01*
X26901397Y-6116523D01*
X26895622Y-6118590D01*
X26889672Y-6120080D01*
X26883605Y-6120980D01*
X26877479Y-6121281D01*
X26871353Y-6120980D01*
X26865286Y-6120080D01*
X26859336Y-6118590D01*
X26853561Y-6116523D01*
X26848017Y-6113901D01*
X26842756Y-6110748D01*
X26837829Y-6107094D01*
X26833285Y-6102975D01*
X26355988Y-5625678D01*
X26351869Y-5621134D01*
X26348215Y-5616207D01*
X26345062Y-5610946D01*
X26342440Y-5605402D01*
X26340373Y-5599627D01*
X26338883Y-5593677D01*
X26337983Y-5587610D01*
X26337682Y-5581484D01*
X26337983Y-5575358D01*
X26338883Y-5569291D01*
X26340373Y-5563341D01*
X26342440Y-5557566D01*
X26345062Y-5552022D01*
X26348215Y-5546761D01*
X26351869Y-5541834D01*
X26355988Y-5537290D01*
X26444377Y-5448901D01*
X26448921Y-5444782D01*
X26453848Y-5441128D01*
X26459109Y-5437975D01*
X26464653Y-5435353D01*
X26470428Y-5433286D01*
X26476378Y-5431796D01*
X26482445Y-5430896D01*
X26488571Y-5430595D01*
X26494697Y-5430896D01*
X26494697Y-5430896D01*
G37*
D24*
G04 #@! TD*
G04 #@! TO.P,U1,25*
G04 #@! TO.N,/P2.1*
X26683025Y-5775938D03*
D10*
G04 #@! TO.N,/P2.0*
G04 #@! TO.C,U1*
G36*
X26141144Y-5784449D02*
X26147211Y-5785349D01*
X26153161Y-5786839D01*
X26158936Y-5788906D01*
X26164480Y-5791528D01*
X26169741Y-5794681D01*
X26174668Y-5798335D01*
X26179212Y-5802454D01*
X26656509Y-6279751D01*
X26660628Y-6284295D01*
X26664282Y-6289222D01*
X26667435Y-6294483D01*
X26670057Y-6300027D01*
X26672124Y-6305802D01*
X26673614Y-6311752D01*
X26674514Y-6317819D01*
X26674815Y-6323945D01*
X26674514Y-6330071D01*
X26673614Y-6336138D01*
X26672124Y-6342088D01*
X26670057Y-6347863D01*
X26667435Y-6353407D01*
X26664282Y-6358668D01*
X26660628Y-6363595D01*
X26656509Y-6368139D01*
X26568120Y-6456528D01*
X26563576Y-6460647D01*
X26558649Y-6464301D01*
X26553388Y-6467454D01*
X26547844Y-6470076D01*
X26542069Y-6472143D01*
X26536119Y-6473633D01*
X26530052Y-6474533D01*
X26523926Y-6474834D01*
X26517800Y-6474533D01*
X26511733Y-6473633D01*
X26505783Y-6472143D01*
X26500008Y-6470076D01*
X26494464Y-6467454D01*
X26489203Y-6464301D01*
X26484276Y-6460647D01*
X26479732Y-6456528D01*
X26002435Y-5979231D01*
X25998316Y-5974687D01*
X25994662Y-5969760D01*
X25991509Y-5964499D01*
X25988887Y-5958955D01*
X25986820Y-5953180D01*
X25985330Y-5947230D01*
X25984430Y-5941163D01*
X25984129Y-5935037D01*
X25984430Y-5928911D01*
X25985330Y-5922844D01*
X25986820Y-5916894D01*
X25988887Y-5911119D01*
X25991509Y-5905575D01*
X25994662Y-5900314D01*
X25998316Y-5895387D01*
X26002435Y-5890843D01*
X26090824Y-5802454D01*
X26095368Y-5798335D01*
X26100295Y-5794681D01*
X26105556Y-5791528D01*
X26111100Y-5788906D01*
X26116875Y-5786839D01*
X26122825Y-5785349D01*
X26128892Y-5784449D01*
X26135018Y-5784148D01*
X26141144Y-5784449D01*
X26141144Y-5784449D01*
G37*
D24*
G04 #@! TD*
G04 #@! TO.P,U1,26*
G04 #@! TO.N,/P2.0*
X26329472Y-6129491D03*
D10*
G04 #@! TO.N,GND*
G04 #@! TO.C,U1*
G36*
X25787590Y-6138003D02*
X25793657Y-6138903D01*
X25799607Y-6140393D01*
X25805382Y-6142460D01*
X25810926Y-6145082D01*
X25816187Y-6148235D01*
X25821114Y-6151889D01*
X25825658Y-6156008D01*
X26302955Y-6633305D01*
X26307074Y-6637849D01*
X26310728Y-6642776D01*
X26313881Y-6648037D01*
X26316503Y-6653581D01*
X26318570Y-6659356D01*
X26320060Y-6665306D01*
X26320960Y-6671373D01*
X26321261Y-6677499D01*
X26320960Y-6683625D01*
X26320060Y-6689692D01*
X26318570Y-6695642D01*
X26316503Y-6701417D01*
X26313881Y-6706961D01*
X26310728Y-6712222D01*
X26307074Y-6717149D01*
X26302955Y-6721693D01*
X26214566Y-6810082D01*
X26210022Y-6814201D01*
X26205095Y-6817855D01*
X26199834Y-6821008D01*
X26194290Y-6823630D01*
X26188515Y-6825697D01*
X26182565Y-6827187D01*
X26176498Y-6828087D01*
X26170372Y-6828388D01*
X26164246Y-6828087D01*
X26158179Y-6827187D01*
X26152229Y-6825697D01*
X26146454Y-6823630D01*
X26140910Y-6821008D01*
X26135649Y-6817855D01*
X26130722Y-6814201D01*
X26126178Y-6810082D01*
X25648881Y-6332785D01*
X25644762Y-6328241D01*
X25641108Y-6323314D01*
X25637955Y-6318053D01*
X25635333Y-6312509D01*
X25633266Y-6306734D01*
X25631776Y-6300784D01*
X25630876Y-6294717D01*
X25630575Y-6288591D01*
X25630876Y-6282465D01*
X25631776Y-6276398D01*
X25633266Y-6270448D01*
X25635333Y-6264673D01*
X25637955Y-6259129D01*
X25641108Y-6253868D01*
X25644762Y-6248941D01*
X25648881Y-6244397D01*
X25737270Y-6156008D01*
X25741814Y-6151889D01*
X25746741Y-6148235D01*
X25752002Y-6145082D01*
X25757546Y-6142460D01*
X25763321Y-6140393D01*
X25769271Y-6138903D01*
X25775338Y-6138003D01*
X25781464Y-6137702D01*
X25787590Y-6138003D01*
X25787590Y-6138003D01*
G37*
D24*
G04 #@! TD*
G04 #@! TO.P,U1,27*
G04 #@! TO.N,GND*
X25975918Y-6483045D03*
D10*
G04 #@! TO.N,+3V3*
G04 #@! TO.C,U1*
G36*
X25434037Y-6491556D02*
X25440104Y-6492456D01*
X25446054Y-6493946D01*
X25451829Y-6496013D01*
X25457373Y-6498635D01*
X25462634Y-6501788D01*
X25467561Y-6505442D01*
X25472105Y-6509561D01*
X25949402Y-6986858D01*
X25953521Y-6991402D01*
X25957175Y-6996329D01*
X25960328Y-7001590D01*
X25962950Y-7007134D01*
X25965017Y-7012909D01*
X25966507Y-7018859D01*
X25967407Y-7024926D01*
X25967708Y-7031052D01*
X25967407Y-7037178D01*
X25966507Y-7043245D01*
X25965017Y-7049195D01*
X25962950Y-7054970D01*
X25960328Y-7060514D01*
X25957175Y-7065775D01*
X25953521Y-7070702D01*
X25949402Y-7075246D01*
X25861013Y-7163635D01*
X25856469Y-7167754D01*
X25851542Y-7171408D01*
X25846281Y-7174561D01*
X25840737Y-7177183D01*
X25834962Y-7179250D01*
X25829012Y-7180740D01*
X25822945Y-7181640D01*
X25816819Y-7181941D01*
X25810693Y-7181640D01*
X25804626Y-7180740D01*
X25798676Y-7179250D01*
X25792901Y-7177183D01*
X25787357Y-7174561D01*
X25782096Y-7171408D01*
X25777169Y-7167754D01*
X25772625Y-7163635D01*
X25295328Y-6686338D01*
X25291209Y-6681794D01*
X25287555Y-6676867D01*
X25284402Y-6671606D01*
X25281780Y-6666062D01*
X25279713Y-6660287D01*
X25278223Y-6654337D01*
X25277323Y-6648270D01*
X25277022Y-6642144D01*
X25277323Y-6636018D01*
X25278223Y-6629951D01*
X25279713Y-6624001D01*
X25281780Y-6618226D01*
X25284402Y-6612682D01*
X25287555Y-6607421D01*
X25291209Y-6602494D01*
X25295328Y-6597950D01*
X25383717Y-6509561D01*
X25388261Y-6505442D01*
X25393188Y-6501788D01*
X25398449Y-6498635D01*
X25403993Y-6496013D01*
X25409768Y-6493946D01*
X25415718Y-6492456D01*
X25421785Y-6491556D01*
X25427911Y-6491255D01*
X25434037Y-6491556D01*
X25434037Y-6491556D01*
G37*
D24*
G04 #@! TD*
G04 #@! TO.P,U1,28*
G04 #@! TO.N,+3V3*
X25622365Y-6836598D03*
D10*
G04 #@! TO.N,/OSC_IN*
G04 #@! TO.C,U1*
G36*
X25080484Y-6845110D02*
X25086551Y-6846010D01*
X25092501Y-6847500D01*
X25098276Y-6849567D01*
X25103820Y-6852189D01*
X25109081Y-6855342D01*
X25114008Y-6858996D01*
X25118552Y-6863115D01*
X25595849Y-7340412D01*
X25599968Y-7344956D01*
X25603622Y-7349883D01*
X25606775Y-7355144D01*
X25609397Y-7360688D01*
X25611464Y-7366463D01*
X25612954Y-7372413D01*
X25613854Y-7378480D01*
X25614155Y-7384606D01*
X25613854Y-7390732D01*
X25612954Y-7396799D01*
X25611464Y-7402749D01*
X25609397Y-7408524D01*
X25606775Y-7414068D01*
X25603622Y-7419329D01*
X25599968Y-7424256D01*
X25595849Y-7428800D01*
X25507460Y-7517189D01*
X25502916Y-7521308D01*
X25497989Y-7524962D01*
X25492728Y-7528115D01*
X25487184Y-7530737D01*
X25481409Y-7532804D01*
X25475459Y-7534294D01*
X25469392Y-7535194D01*
X25463266Y-7535495D01*
X25457140Y-7535194D01*
X25451073Y-7534294D01*
X25445123Y-7532804D01*
X25439348Y-7530737D01*
X25433804Y-7528115D01*
X25428543Y-7524962D01*
X25423616Y-7521308D01*
X25419072Y-7517189D01*
X24941775Y-7039892D01*
X24937656Y-7035348D01*
X24934002Y-7030421D01*
X24930849Y-7025160D01*
X24928227Y-7019616D01*
X24926160Y-7013841D01*
X24924670Y-7007891D01*
X24923770Y-7001824D01*
X24923469Y-6995698D01*
X24923770Y-6989572D01*
X24924670Y-6983505D01*
X24926160Y-6977555D01*
X24928227Y-6971780D01*
X24930849Y-6966236D01*
X24934002Y-6960975D01*
X24937656Y-6956048D01*
X24941775Y-6951504D01*
X25030164Y-6863115D01*
X25034708Y-6858996D01*
X25039635Y-6855342D01*
X25044896Y-6852189D01*
X25050440Y-6849567D01*
X25056215Y-6847500D01*
X25062165Y-6846010D01*
X25068232Y-6845110D01*
X25074358Y-6844809D01*
X25080484Y-6845110D01*
X25080484Y-6845110D01*
G37*
D24*
G04 #@! TD*
G04 #@! TO.P,U1,29*
G04 #@! TO.N,/OSC_IN*
X25268812Y-7190152D03*
D10*
G04 #@! TO.N,/OSC_OUT*
G04 #@! TO.C,U1*
G36*
X24726930Y-7198663D02*
X24732997Y-7199563D01*
X24738947Y-7201053D01*
X24744722Y-7203120D01*
X24750266Y-7205742D01*
X24755527Y-7208895D01*
X24760454Y-7212549D01*
X24764998Y-7216668D01*
X25242295Y-7693965D01*
X25246414Y-7698509D01*
X25250068Y-7703436D01*
X25253221Y-7708697D01*
X25255843Y-7714241D01*
X25257910Y-7720016D01*
X25259400Y-7725966D01*
X25260300Y-7732033D01*
X25260601Y-7738159D01*
X25260300Y-7744285D01*
X25259400Y-7750352D01*
X25257910Y-7756302D01*
X25255843Y-7762077D01*
X25253221Y-7767621D01*
X25250068Y-7772882D01*
X25246414Y-7777809D01*
X25242295Y-7782353D01*
X25153906Y-7870742D01*
X25149362Y-7874861D01*
X25144435Y-7878515D01*
X25139174Y-7881668D01*
X25133630Y-7884290D01*
X25127855Y-7886357D01*
X25121905Y-7887847D01*
X25115838Y-7888747D01*
X25109712Y-7889048D01*
X25103586Y-7888747D01*
X25097519Y-7887847D01*
X25091569Y-7886357D01*
X25085794Y-7884290D01*
X25080250Y-7881668D01*
X25074989Y-7878515D01*
X25070062Y-7874861D01*
X25065518Y-7870742D01*
X24588221Y-7393445D01*
X24584102Y-7388901D01*
X24580448Y-7383974D01*
X24577295Y-7378713D01*
X24574673Y-7373169D01*
X24572606Y-7367394D01*
X24571116Y-7361444D01*
X24570216Y-7355377D01*
X24569915Y-7349251D01*
X24570216Y-7343125D01*
X24571116Y-7337058D01*
X24572606Y-7331108D01*
X24574673Y-7325333D01*
X24577295Y-7319789D01*
X24580448Y-7314528D01*
X24584102Y-7309601D01*
X24588221Y-7305057D01*
X24676610Y-7216668D01*
X24681154Y-7212549D01*
X24686081Y-7208895D01*
X24691342Y-7205742D01*
X24696886Y-7203120D01*
X24702661Y-7201053D01*
X24708611Y-7199563D01*
X24714678Y-7198663D01*
X24720804Y-7198362D01*
X24726930Y-7198663D01*
X24726930Y-7198663D01*
G37*
D24*
G04 #@! TD*
G04 #@! TO.P,U1,30*
G04 #@! TO.N,/OSC_OUT*
X24915258Y-7543705D03*
D10*
G04 #@! TO.N,/1V2*
G04 #@! TO.C,U1*
G36*
X24373377Y-7552216D02*
X24379444Y-7553116D01*
X24385394Y-7554606D01*
X24391169Y-7556673D01*
X24396713Y-7559295D01*
X24401974Y-7562448D01*
X24406901Y-7566102D01*
X24411445Y-7570221D01*
X24888742Y-8047518D01*
X24892861Y-8052062D01*
X24896515Y-8056989D01*
X24899668Y-8062250D01*
X24902290Y-8067794D01*
X24904357Y-8073569D01*
X24905847Y-8079519D01*
X24906747Y-8085586D01*
X24907048Y-8091712D01*
X24906747Y-8097838D01*
X24905847Y-8103905D01*
X24904357Y-8109855D01*
X24902290Y-8115630D01*
X24899668Y-8121174D01*
X24896515Y-8126435D01*
X24892861Y-8131362D01*
X24888742Y-8135906D01*
X24800353Y-8224295D01*
X24795809Y-8228414D01*
X24790882Y-8232068D01*
X24785621Y-8235221D01*
X24780077Y-8237843D01*
X24774302Y-8239910D01*
X24768352Y-8241400D01*
X24762285Y-8242300D01*
X24756159Y-8242601D01*
X24750033Y-8242300D01*
X24743966Y-8241400D01*
X24738016Y-8239910D01*
X24732241Y-8237843D01*
X24726697Y-8235221D01*
X24721436Y-8232068D01*
X24716509Y-8228414D01*
X24711965Y-8224295D01*
X24234668Y-7746998D01*
X24230549Y-7742454D01*
X24226895Y-7737527D01*
X24223742Y-7732266D01*
X24221120Y-7726722D01*
X24219053Y-7720947D01*
X24217563Y-7714997D01*
X24216663Y-7708930D01*
X24216362Y-7702804D01*
X24216663Y-7696678D01*
X24217563Y-7690611D01*
X24219053Y-7684661D01*
X24221120Y-7678886D01*
X24223742Y-7673342D01*
X24226895Y-7668081D01*
X24230549Y-7663154D01*
X24234668Y-7658610D01*
X24323057Y-7570221D01*
X24327601Y-7566102D01*
X24332528Y-7562448D01*
X24337789Y-7559295D01*
X24343333Y-7556673D01*
X24349108Y-7554606D01*
X24355058Y-7553116D01*
X24361125Y-7552216D01*
X24367251Y-7551915D01*
X24373377Y-7552216D01*
X24373377Y-7552216D01*
G37*
D24*
G04 #@! TD*
G04 #@! TO.P,U1,31*
G04 #@! TO.N,/1V2*
X24561705Y-7897258D03*
D10*
G04 #@! TO.N,/RESET*
G04 #@! TO.C,U1*
G36*
X24019824Y-7905770D02*
X24025891Y-7906670D01*
X24031841Y-7908160D01*
X24037616Y-7910227D01*
X24043160Y-7912849D01*
X24048421Y-7916002D01*
X24053348Y-7919656D01*
X24057892Y-7923775D01*
X24535189Y-8401072D01*
X24539308Y-8405616D01*
X24542962Y-8410543D01*
X24546115Y-8415804D01*
X24548737Y-8421348D01*
X24550804Y-8427123D01*
X24552294Y-8433073D01*
X24553194Y-8439140D01*
X24553495Y-8445266D01*
X24553194Y-8451392D01*
X24552294Y-8457459D01*
X24550804Y-8463409D01*
X24548737Y-8469184D01*
X24546115Y-8474728D01*
X24542962Y-8479989D01*
X24539308Y-8484916D01*
X24535189Y-8489460D01*
X24446800Y-8577849D01*
X24442256Y-8581968D01*
X24437329Y-8585622D01*
X24432068Y-8588775D01*
X24426524Y-8591397D01*
X24420749Y-8593464D01*
X24414799Y-8594954D01*
X24408732Y-8595854D01*
X24402606Y-8596155D01*
X24396480Y-8595854D01*
X24390413Y-8594954D01*
X24384463Y-8593464D01*
X24378688Y-8591397D01*
X24373144Y-8588775D01*
X24367883Y-8585622D01*
X24362956Y-8581968D01*
X24358412Y-8577849D01*
X23881115Y-8100552D01*
X23876996Y-8096008D01*
X23873342Y-8091081D01*
X23870189Y-8085820D01*
X23867567Y-8080276D01*
X23865500Y-8074501D01*
X23864010Y-8068551D01*
X23863110Y-8062484D01*
X23862809Y-8056358D01*
X23863110Y-8050232D01*
X23864010Y-8044165D01*
X23865500Y-8038215D01*
X23867567Y-8032440D01*
X23870189Y-8026896D01*
X23873342Y-8021635D01*
X23876996Y-8016708D01*
X23881115Y-8012164D01*
X23969504Y-7923775D01*
X23974048Y-7919656D01*
X23978975Y-7916002D01*
X23984236Y-7912849D01*
X23989780Y-7910227D01*
X23995555Y-7908160D01*
X24001505Y-7906670D01*
X24007572Y-7905770D01*
X24013698Y-7905469D01*
X24019824Y-7905770D01*
X24019824Y-7905770D01*
G37*
D24*
G04 #@! TD*
G04 #@! TO.P,U1,32*
G04 #@! TO.N,/RESET*
X24208152Y-8250812D03*
D10*
G04 #@! TO.N,/SWDIO*
G04 #@! TO.C,U1*
G36*
X23666270Y-8259323D02*
X23672337Y-8260223D01*
X23678287Y-8261713D01*
X23684062Y-8263780D01*
X23689606Y-8266402D01*
X23694867Y-8269555D01*
X23699794Y-8273209D01*
X23704338Y-8277328D01*
X24181635Y-8754625D01*
X24185754Y-8759169D01*
X24189408Y-8764096D01*
X24192561Y-8769357D01*
X24195183Y-8774901D01*
X24197250Y-8780676D01*
X24198740Y-8786626D01*
X24199640Y-8792693D01*
X24199941Y-8798819D01*
X24199640Y-8804945D01*
X24198740Y-8811012D01*
X24197250Y-8816962D01*
X24195183Y-8822737D01*
X24192561Y-8828281D01*
X24189408Y-8833542D01*
X24185754Y-8838469D01*
X24181635Y-8843013D01*
X24093246Y-8931402D01*
X24088702Y-8935521D01*
X24083775Y-8939175D01*
X24078514Y-8942328D01*
X24072970Y-8944950D01*
X24067195Y-8947017D01*
X24061245Y-8948507D01*
X24055178Y-8949407D01*
X24049052Y-8949708D01*
X24042926Y-8949407D01*
X24036859Y-8948507D01*
X24030909Y-8947017D01*
X24025134Y-8944950D01*
X24019590Y-8942328D01*
X24014329Y-8939175D01*
X24009402Y-8935521D01*
X24004858Y-8931402D01*
X23527561Y-8454105D01*
X23523442Y-8449561D01*
X23519788Y-8444634D01*
X23516635Y-8439373D01*
X23514013Y-8433829D01*
X23511946Y-8428054D01*
X23510456Y-8422104D01*
X23509556Y-8416037D01*
X23509255Y-8409911D01*
X23509556Y-8403785D01*
X23510456Y-8397718D01*
X23511946Y-8391768D01*
X23514013Y-8385993D01*
X23516635Y-8380449D01*
X23519788Y-8375188D01*
X23523442Y-8370261D01*
X23527561Y-8365717D01*
X23615950Y-8277328D01*
X23620494Y-8273209D01*
X23625421Y-8269555D01*
X23630682Y-8266402D01*
X23636226Y-8263780D01*
X23642001Y-8261713D01*
X23647951Y-8260223D01*
X23654018Y-8259323D01*
X23660144Y-8259022D01*
X23666270Y-8259323D01*
X23666270Y-8259323D01*
G37*
D24*
G04 #@! TD*
G04 #@! TO.P,U1,33*
G04 #@! TO.N,/SWDIO*
X23854598Y-8604365D03*
D10*
G04 #@! TO.N,/SWDCLK*
G04 #@! TO.C,U1*
G36*
X23312717Y-8612876D02*
X23318784Y-8613776D01*
X23324734Y-8615266D01*
X23330509Y-8617333D01*
X23336053Y-8619955D01*
X23341314Y-8623108D01*
X23346241Y-8626762D01*
X23350785Y-8630881D01*
X23828082Y-9108178D01*
X23832201Y-9112722D01*
X23835855Y-9117649D01*
X23839008Y-9122910D01*
X23841630Y-9128454D01*
X23843697Y-9134229D01*
X23845187Y-9140179D01*
X23846087Y-9146246D01*
X23846388Y-9152372D01*
X23846087Y-9158498D01*
X23845187Y-9164565D01*
X23843697Y-9170515D01*
X23841630Y-9176290D01*
X23839008Y-9181834D01*
X23835855Y-9187095D01*
X23832201Y-9192022D01*
X23828082Y-9196566D01*
X23739693Y-9284955D01*
X23735149Y-9289074D01*
X23730222Y-9292728D01*
X23724961Y-9295881D01*
X23719417Y-9298503D01*
X23713642Y-9300570D01*
X23707692Y-9302060D01*
X23701625Y-9302960D01*
X23695499Y-9303261D01*
X23689373Y-9302960D01*
X23683306Y-9302060D01*
X23677356Y-9300570D01*
X23671581Y-9298503D01*
X23666037Y-9295881D01*
X23660776Y-9292728D01*
X23655849Y-9289074D01*
X23651305Y-9284955D01*
X23174008Y-8807658D01*
X23169889Y-8803114D01*
X23166235Y-8798187D01*
X23163082Y-8792926D01*
X23160460Y-8787382D01*
X23158393Y-8781607D01*
X23156903Y-8775657D01*
X23156003Y-8769590D01*
X23155702Y-8763464D01*
X23156003Y-8757338D01*
X23156903Y-8751271D01*
X23158393Y-8745321D01*
X23160460Y-8739546D01*
X23163082Y-8734002D01*
X23166235Y-8728741D01*
X23169889Y-8723814D01*
X23174008Y-8719270D01*
X23262397Y-8630881D01*
X23266941Y-8626762D01*
X23271868Y-8623108D01*
X23277129Y-8619955D01*
X23282673Y-8617333D01*
X23288448Y-8615266D01*
X23294398Y-8613776D01*
X23300465Y-8612876D01*
X23306591Y-8612575D01*
X23312717Y-8612876D01*
X23312717Y-8612876D01*
G37*
D24*
G04 #@! TD*
G04 #@! TO.P,U1,34*
G04 #@! TO.N,/SWDCLK*
X23501045Y-8957918D03*
D10*
G04 #@! TO.N,/P1.5*
G04 #@! TO.C,U1*
G36*
X22959163Y-8966430D02*
X22965230Y-8967330D01*
X22971180Y-8968820D01*
X22976955Y-8970887D01*
X22982499Y-8973509D01*
X22987760Y-8976662D01*
X22992687Y-8980316D01*
X22997231Y-8984435D01*
X23474528Y-9461732D01*
X23478647Y-9466276D01*
X23482301Y-9471203D01*
X23485454Y-9476464D01*
X23488076Y-9482008D01*
X23490143Y-9487783D01*
X23491633Y-9493733D01*
X23492533Y-9499800D01*
X23492834Y-9505926D01*
X23492533Y-9512052D01*
X23491633Y-9518119D01*
X23490143Y-9524069D01*
X23488076Y-9529844D01*
X23485454Y-9535388D01*
X23482301Y-9540649D01*
X23478647Y-9545576D01*
X23474528Y-9550120D01*
X23386139Y-9638509D01*
X23381595Y-9642628D01*
X23376668Y-9646282D01*
X23371407Y-9649435D01*
X23365863Y-9652057D01*
X23360088Y-9654124D01*
X23354138Y-9655614D01*
X23348071Y-9656514D01*
X23341945Y-9656815D01*
X23335819Y-9656514D01*
X23329752Y-9655614D01*
X23323802Y-9654124D01*
X23318027Y-9652057D01*
X23312483Y-9649435D01*
X23307222Y-9646282D01*
X23302295Y-9642628D01*
X23297751Y-9638509D01*
X22820454Y-9161212D01*
X22816335Y-9156668D01*
X22812681Y-9151741D01*
X22809528Y-9146480D01*
X22806906Y-9140936D01*
X22804839Y-9135161D01*
X22803349Y-9129211D01*
X22802449Y-9123144D01*
X22802148Y-9117018D01*
X22802449Y-9110892D01*
X22803349Y-9104825D01*
X22804839Y-9098875D01*
X22806906Y-9093100D01*
X22809528Y-9087556D01*
X22812681Y-9082295D01*
X22816335Y-9077368D01*
X22820454Y-9072824D01*
X22908843Y-8984435D01*
X22913387Y-8980316D01*
X22918314Y-8976662D01*
X22923575Y-8973509D01*
X22929119Y-8970887D01*
X22934894Y-8968820D01*
X22940844Y-8967330D01*
X22946911Y-8966430D01*
X22953037Y-8966129D01*
X22959163Y-8966430D01*
X22959163Y-8966430D01*
G37*
D24*
G04 #@! TD*
G04 #@! TO.P,U1,35*
G04 #@! TO.N,/P1.5*
X23147491Y-9311472D03*
D10*
G04 #@! TO.N,/P1.4*
G04 #@! TO.C,U1*
G36*
X22605610Y-9319983D02*
X22611677Y-9320883D01*
X22617627Y-9322373D01*
X22623402Y-9324440D01*
X22628946Y-9327062D01*
X22634207Y-9330215D01*
X22639134Y-9333869D01*
X22643678Y-9337988D01*
X23120975Y-9815285D01*
X23125094Y-9819829D01*
X23128748Y-9824756D01*
X23131901Y-9830017D01*
X23134523Y-9835561D01*
X23136590Y-9841336D01*
X23138080Y-9847286D01*
X23138980Y-9853353D01*
X23139281Y-9859479D01*
X23138980Y-9865605D01*
X23138080Y-9871672D01*
X23136590Y-9877622D01*
X23134523Y-9883397D01*
X23131901Y-9888941D01*
X23128748Y-9894202D01*
X23125094Y-9899129D01*
X23120975Y-9903673D01*
X23032586Y-9992062D01*
X23028042Y-9996181D01*
X23023115Y-9999835D01*
X23017854Y-10002988D01*
X23012310Y-10005610D01*
X23006535Y-10007677D01*
X23000585Y-10009167D01*
X22994518Y-10010067D01*
X22988392Y-10010368D01*
X22982266Y-10010067D01*
X22976199Y-10009167D01*
X22970249Y-10007677D01*
X22964474Y-10005610D01*
X22958930Y-10002988D01*
X22953669Y-9999835D01*
X22948742Y-9996181D01*
X22944198Y-9992062D01*
X22466901Y-9514765D01*
X22462782Y-9510221D01*
X22459128Y-9505294D01*
X22455975Y-9500033D01*
X22453353Y-9494489D01*
X22451286Y-9488714D01*
X22449796Y-9482764D01*
X22448896Y-9476697D01*
X22448595Y-9470571D01*
X22448896Y-9464445D01*
X22449796Y-9458378D01*
X22451286Y-9452428D01*
X22453353Y-9446653D01*
X22455975Y-9441109D01*
X22459128Y-9435848D01*
X22462782Y-9430921D01*
X22466901Y-9426377D01*
X22555290Y-9337988D01*
X22559834Y-9333869D01*
X22564761Y-9330215D01*
X22570022Y-9327062D01*
X22575566Y-9324440D01*
X22581341Y-9322373D01*
X22587291Y-9320883D01*
X22593358Y-9319983D01*
X22599484Y-9319682D01*
X22605610Y-9319983D01*
X22605610Y-9319983D01*
G37*
D24*
G04 #@! TD*
G04 #@! TO.P,U1,36*
G04 #@! TO.N,/P1.4*
X22793938Y-9665025D03*
D10*
G04 #@! TO.N,/P1.3*
G04 #@! TO.C,U1*
G36*
X22994518Y-10309933D02*
X23000585Y-10310833D01*
X23006535Y-10312323D01*
X23012310Y-10314390D01*
X23017854Y-10317012D01*
X23023115Y-10320165D01*
X23028042Y-10323819D01*
X23032586Y-10327938D01*
X23120975Y-10416327D01*
X23125094Y-10420871D01*
X23128748Y-10425798D01*
X23131901Y-10431059D01*
X23134523Y-10436603D01*
X23136590Y-10442378D01*
X23138080Y-10448328D01*
X23138980Y-10454395D01*
X23139281Y-10460521D01*
X23138980Y-10466647D01*
X23138080Y-10472714D01*
X23136590Y-10478664D01*
X23134523Y-10484439D01*
X23131901Y-10489983D01*
X23128748Y-10495244D01*
X23125094Y-10500171D01*
X23120975Y-10504715D01*
X22643678Y-10982012D01*
X22639134Y-10986131D01*
X22634207Y-10989785D01*
X22628946Y-10992938D01*
X22623402Y-10995560D01*
X22617627Y-10997627D01*
X22611677Y-10999117D01*
X22605610Y-11000017D01*
X22599484Y-11000318D01*
X22593358Y-11000017D01*
X22587291Y-10999117D01*
X22581341Y-10997627D01*
X22575566Y-10995560D01*
X22570022Y-10992938D01*
X22564761Y-10989785D01*
X22559834Y-10986131D01*
X22555290Y-10982012D01*
X22466901Y-10893623D01*
X22462782Y-10889079D01*
X22459128Y-10884152D01*
X22455975Y-10878891D01*
X22453353Y-10873347D01*
X22451286Y-10867572D01*
X22449796Y-10861622D01*
X22448896Y-10855555D01*
X22448595Y-10849429D01*
X22448896Y-10843303D01*
X22449796Y-10837236D01*
X22451286Y-10831286D01*
X22453353Y-10825511D01*
X22455975Y-10819967D01*
X22459128Y-10814706D01*
X22462782Y-10809779D01*
X22466901Y-10805235D01*
X22944198Y-10327938D01*
X22948742Y-10323819D01*
X22953669Y-10320165D01*
X22958930Y-10317012D01*
X22964474Y-10314390D01*
X22970249Y-10312323D01*
X22976199Y-10310833D01*
X22982266Y-10309933D01*
X22988392Y-10309632D01*
X22994518Y-10309933D01*
X22994518Y-10309933D01*
G37*
D24*
G04 #@! TD*
G04 #@! TO.P,U1,37*
G04 #@! TO.N,/P1.3*
X22793938Y-10654975D03*
D10*
G04 #@! TO.N,/P1.2*
G04 #@! TO.C,U1*
G36*
X23348071Y-10663486D02*
X23354138Y-10664386D01*
X23360088Y-10665876D01*
X23365863Y-10667943D01*
X23371407Y-10670565D01*
X23376668Y-10673718D01*
X23381595Y-10677372D01*
X23386139Y-10681491D01*
X23474528Y-10769880D01*
X23478647Y-10774424D01*
X23482301Y-10779351D01*
X23485454Y-10784612D01*
X23488076Y-10790156D01*
X23490143Y-10795931D01*
X23491633Y-10801881D01*
X23492533Y-10807948D01*
X23492834Y-10814074D01*
X23492533Y-10820200D01*
X23491633Y-10826267D01*
X23490143Y-10832217D01*
X23488076Y-10837992D01*
X23485454Y-10843536D01*
X23482301Y-10848797D01*
X23478647Y-10853724D01*
X23474528Y-10858268D01*
X22997231Y-11335565D01*
X22992687Y-11339684D01*
X22987760Y-11343338D01*
X22982499Y-11346491D01*
X22976955Y-11349113D01*
X22971180Y-11351180D01*
X22965230Y-11352670D01*
X22959163Y-11353570D01*
X22953037Y-11353871D01*
X22946911Y-11353570D01*
X22940844Y-11352670D01*
X22934894Y-11351180D01*
X22929119Y-11349113D01*
X22923575Y-11346491D01*
X22918314Y-11343338D01*
X22913387Y-11339684D01*
X22908843Y-11335565D01*
X22820454Y-11247176D01*
X22816335Y-11242632D01*
X22812681Y-11237705D01*
X22809528Y-11232444D01*
X22806906Y-11226900D01*
X22804839Y-11221125D01*
X22803349Y-11215175D01*
X22802449Y-11209108D01*
X22802148Y-11202982D01*
X22802449Y-11196856D01*
X22803349Y-11190789D01*
X22804839Y-11184839D01*
X22806906Y-11179064D01*
X22809528Y-11173520D01*
X22812681Y-11168259D01*
X22816335Y-11163332D01*
X22820454Y-11158788D01*
X23297751Y-10681491D01*
X23302295Y-10677372D01*
X23307222Y-10673718D01*
X23312483Y-10670565D01*
X23318027Y-10667943D01*
X23323802Y-10665876D01*
X23329752Y-10664386D01*
X23335819Y-10663486D01*
X23341945Y-10663185D01*
X23348071Y-10663486D01*
X23348071Y-10663486D01*
G37*
D24*
G04 #@! TD*
G04 #@! TO.P,U1,38*
G04 #@! TO.N,/P1.2*
X23147491Y-11008528D03*
D10*
G04 #@! TO.N,/P1.1*
G04 #@! TO.C,U1*
G36*
X23701625Y-11017040D02*
X23707692Y-11017940D01*
X23713642Y-11019430D01*
X23719417Y-11021497D01*
X23724961Y-11024119D01*
X23730222Y-11027272D01*
X23735149Y-11030926D01*
X23739693Y-11035045D01*
X23828082Y-11123434D01*
X23832201Y-11127978D01*
X23835855Y-11132905D01*
X23839008Y-11138166D01*
X23841630Y-11143710D01*
X23843697Y-11149485D01*
X23845187Y-11155435D01*
X23846087Y-11161502D01*
X23846388Y-11167628D01*
X23846087Y-11173754D01*
X23845187Y-11179821D01*
X23843697Y-11185771D01*
X23841630Y-11191546D01*
X23839008Y-11197090D01*
X23835855Y-11202351D01*
X23832201Y-11207278D01*
X23828082Y-11211822D01*
X23350785Y-11689119D01*
X23346241Y-11693238D01*
X23341314Y-11696892D01*
X23336053Y-11700045D01*
X23330509Y-11702667D01*
X23324734Y-11704734D01*
X23318784Y-11706224D01*
X23312717Y-11707124D01*
X23306591Y-11707425D01*
X23300465Y-11707124D01*
X23294398Y-11706224D01*
X23288448Y-11704734D01*
X23282673Y-11702667D01*
X23277129Y-11700045D01*
X23271868Y-11696892D01*
X23266941Y-11693238D01*
X23262397Y-11689119D01*
X23174008Y-11600730D01*
X23169889Y-11596186D01*
X23166235Y-11591259D01*
X23163082Y-11585998D01*
X23160460Y-11580454D01*
X23158393Y-11574679D01*
X23156903Y-11568729D01*
X23156003Y-11562662D01*
X23155702Y-11556536D01*
X23156003Y-11550410D01*
X23156903Y-11544343D01*
X23158393Y-11538393D01*
X23160460Y-11532618D01*
X23163082Y-11527074D01*
X23166235Y-11521813D01*
X23169889Y-11516886D01*
X23174008Y-11512342D01*
X23651305Y-11035045D01*
X23655849Y-11030926D01*
X23660776Y-11027272D01*
X23666037Y-11024119D01*
X23671581Y-11021497D01*
X23677356Y-11019430D01*
X23683306Y-11017940D01*
X23689373Y-11017040D01*
X23695499Y-11016739D01*
X23701625Y-11017040D01*
X23701625Y-11017040D01*
G37*
D24*
G04 #@! TD*
G04 #@! TO.P,U1,39*
G04 #@! TO.N,/P1.1*
X23501045Y-11362082D03*
D10*
G04 #@! TO.N,/LED1*
G04 #@! TO.C,U1*
G36*
X24055178Y-11370593D02*
X24061245Y-11371493D01*
X24067195Y-11372983D01*
X24072970Y-11375050D01*
X24078514Y-11377672D01*
X24083775Y-11380825D01*
X24088702Y-11384479D01*
X24093246Y-11388598D01*
X24181635Y-11476987D01*
X24185754Y-11481531D01*
X24189408Y-11486458D01*
X24192561Y-11491719D01*
X24195183Y-11497263D01*
X24197250Y-11503038D01*
X24198740Y-11508988D01*
X24199640Y-11515055D01*
X24199941Y-11521181D01*
X24199640Y-11527307D01*
X24198740Y-11533374D01*
X24197250Y-11539324D01*
X24195183Y-11545099D01*
X24192561Y-11550643D01*
X24189408Y-11555904D01*
X24185754Y-11560831D01*
X24181635Y-11565375D01*
X23704338Y-12042672D01*
X23699794Y-12046791D01*
X23694867Y-12050445D01*
X23689606Y-12053598D01*
X23684062Y-12056220D01*
X23678287Y-12058287D01*
X23672337Y-12059777D01*
X23666270Y-12060677D01*
X23660144Y-12060978D01*
X23654018Y-12060677D01*
X23647951Y-12059777D01*
X23642001Y-12058287D01*
X23636226Y-12056220D01*
X23630682Y-12053598D01*
X23625421Y-12050445D01*
X23620494Y-12046791D01*
X23615950Y-12042672D01*
X23527561Y-11954283D01*
X23523442Y-11949739D01*
X23519788Y-11944812D01*
X23516635Y-11939551D01*
X23514013Y-11934007D01*
X23511946Y-11928232D01*
X23510456Y-11922282D01*
X23509556Y-11916215D01*
X23509255Y-11910089D01*
X23509556Y-11903963D01*
X23510456Y-11897896D01*
X23511946Y-11891946D01*
X23514013Y-11886171D01*
X23516635Y-11880627D01*
X23519788Y-11875366D01*
X23523442Y-11870439D01*
X23527561Y-11865895D01*
X24004858Y-11388598D01*
X24009402Y-11384479D01*
X24014329Y-11380825D01*
X24019590Y-11377672D01*
X24025134Y-11375050D01*
X24030909Y-11372983D01*
X24036859Y-11371493D01*
X24042926Y-11370593D01*
X24049052Y-11370292D01*
X24055178Y-11370593D01*
X24055178Y-11370593D01*
G37*
D24*
G04 #@! TD*
G04 #@! TO.P,U1,40*
G04 #@! TO.N,/LED1*
X23854598Y-11715635D03*
D10*
G04 #@! TO.N,+3V3*
G04 #@! TO.C,U1*
G36*
X24408732Y-11724146D02*
X24414799Y-11725046D01*
X24420749Y-11726536D01*
X24426524Y-11728603D01*
X24432068Y-11731225D01*
X24437329Y-11734378D01*
X24442256Y-11738032D01*
X24446800Y-11742151D01*
X24535189Y-11830540D01*
X24539308Y-11835084D01*
X24542962Y-11840011D01*
X24546115Y-11845272D01*
X24548737Y-11850816D01*
X24550804Y-11856591D01*
X24552294Y-11862541D01*
X24553194Y-11868608D01*
X24553495Y-11874734D01*
X24553194Y-11880860D01*
X24552294Y-11886927D01*
X24550804Y-11892877D01*
X24548737Y-11898652D01*
X24546115Y-11904196D01*
X24542962Y-11909457D01*
X24539308Y-11914384D01*
X24535189Y-11918928D01*
X24057892Y-12396225D01*
X24053348Y-12400344D01*
X24048421Y-12403998D01*
X24043160Y-12407151D01*
X24037616Y-12409773D01*
X24031841Y-12411840D01*
X24025891Y-12413330D01*
X24019824Y-12414230D01*
X24013698Y-12414531D01*
X24007572Y-12414230D01*
X24001505Y-12413330D01*
X23995555Y-12411840D01*
X23989780Y-12409773D01*
X23984236Y-12407151D01*
X23978975Y-12403998D01*
X23974048Y-12400344D01*
X23969504Y-12396225D01*
X23881115Y-12307836D01*
X23876996Y-12303292D01*
X23873342Y-12298365D01*
X23870189Y-12293104D01*
X23867567Y-12287560D01*
X23865500Y-12281785D01*
X23864010Y-12275835D01*
X23863110Y-12269768D01*
X23862809Y-12263642D01*
X23863110Y-12257516D01*
X23864010Y-12251449D01*
X23865500Y-12245499D01*
X23867567Y-12239724D01*
X23870189Y-12234180D01*
X23873342Y-12228919D01*
X23876996Y-12223992D01*
X23881115Y-12219448D01*
X24358412Y-11742151D01*
X24362956Y-11738032D01*
X24367883Y-11734378D01*
X24373144Y-11731225D01*
X24378688Y-11728603D01*
X24384463Y-11726536D01*
X24390413Y-11725046D01*
X24396480Y-11724146D01*
X24402606Y-11723845D01*
X24408732Y-11724146D01*
X24408732Y-11724146D01*
G37*
D24*
G04 #@! TD*
G04 #@! TO.P,U1,41*
G04 #@! TO.N,+3V3*
X24208152Y-12069188D03*
D10*
G04 #@! TO.N,/P0.8*
G04 #@! TO.C,U1*
G36*
X24762285Y-12077700D02*
X24768352Y-12078600D01*
X24774302Y-12080090D01*
X24780077Y-12082157D01*
X24785621Y-12084779D01*
X24790882Y-12087932D01*
X24795809Y-12091586D01*
X24800353Y-12095705D01*
X24888742Y-12184094D01*
X24892861Y-12188638D01*
X24896515Y-12193565D01*
X24899668Y-12198826D01*
X24902290Y-12204370D01*
X24904357Y-12210145D01*
X24905847Y-12216095D01*
X24906747Y-12222162D01*
X24907048Y-12228288D01*
X24906747Y-12234414D01*
X24905847Y-12240481D01*
X24904357Y-12246431D01*
X24902290Y-12252206D01*
X24899668Y-12257750D01*
X24896515Y-12263011D01*
X24892861Y-12267938D01*
X24888742Y-12272482D01*
X24411445Y-12749779D01*
X24406901Y-12753898D01*
X24401974Y-12757552D01*
X24396713Y-12760705D01*
X24391169Y-12763327D01*
X24385394Y-12765394D01*
X24379444Y-12766884D01*
X24373377Y-12767784D01*
X24367251Y-12768085D01*
X24361125Y-12767784D01*
X24355058Y-12766884D01*
X24349108Y-12765394D01*
X24343333Y-12763327D01*
X24337789Y-12760705D01*
X24332528Y-12757552D01*
X24327601Y-12753898D01*
X24323057Y-12749779D01*
X24234668Y-12661390D01*
X24230549Y-12656846D01*
X24226895Y-12651919D01*
X24223742Y-12646658D01*
X24221120Y-12641114D01*
X24219053Y-12635339D01*
X24217563Y-12629389D01*
X24216663Y-12623322D01*
X24216362Y-12617196D01*
X24216663Y-12611070D01*
X24217563Y-12605003D01*
X24219053Y-12599053D01*
X24221120Y-12593278D01*
X24223742Y-12587734D01*
X24226895Y-12582473D01*
X24230549Y-12577546D01*
X24234668Y-12573002D01*
X24711965Y-12095705D01*
X24716509Y-12091586D01*
X24721436Y-12087932D01*
X24726697Y-12084779D01*
X24732241Y-12082157D01*
X24738016Y-12080090D01*
X24743966Y-12078600D01*
X24750033Y-12077700D01*
X24756159Y-12077399D01*
X24762285Y-12077700D01*
X24762285Y-12077700D01*
G37*
D24*
G04 #@! TD*
G04 #@! TO.P,U1,42*
G04 #@! TO.N,/P0.8*
X24561705Y-12422742D03*
D10*
G04 #@! TO.N,/P0.7*
G04 #@! TO.C,U1*
G36*
X25115838Y-12431253D02*
X25121905Y-12432153D01*
X25127855Y-12433643D01*
X25133630Y-12435710D01*
X25139174Y-12438332D01*
X25144435Y-12441485D01*
X25149362Y-12445139D01*
X25153906Y-12449258D01*
X25242295Y-12537647D01*
X25246414Y-12542191D01*
X25250068Y-12547118D01*
X25253221Y-12552379D01*
X25255843Y-12557923D01*
X25257910Y-12563698D01*
X25259400Y-12569648D01*
X25260300Y-12575715D01*
X25260601Y-12581841D01*
X25260300Y-12587967D01*
X25259400Y-12594034D01*
X25257910Y-12599984D01*
X25255843Y-12605759D01*
X25253221Y-12611303D01*
X25250068Y-12616564D01*
X25246414Y-12621491D01*
X25242295Y-12626035D01*
X24764998Y-13103332D01*
X24760454Y-13107451D01*
X24755527Y-13111105D01*
X24750266Y-13114258D01*
X24744722Y-13116880D01*
X24738947Y-13118947D01*
X24732997Y-13120437D01*
X24726930Y-13121337D01*
X24720804Y-13121638D01*
X24714678Y-13121337D01*
X24708611Y-13120437D01*
X24702661Y-13118947D01*
X24696886Y-13116880D01*
X24691342Y-13114258D01*
X24686081Y-13111105D01*
X24681154Y-13107451D01*
X24676610Y-13103332D01*
X24588221Y-13014943D01*
X24584102Y-13010399D01*
X24580448Y-13005472D01*
X24577295Y-13000211D01*
X24574673Y-12994667D01*
X24572606Y-12988892D01*
X24571116Y-12982942D01*
X24570216Y-12976875D01*
X24569915Y-12970749D01*
X24570216Y-12964623D01*
X24571116Y-12958556D01*
X24572606Y-12952606D01*
X24574673Y-12946831D01*
X24577295Y-12941287D01*
X24580448Y-12936026D01*
X24584102Y-12931099D01*
X24588221Y-12926555D01*
X25065518Y-12449258D01*
X25070062Y-12445139D01*
X25074989Y-12441485D01*
X25080250Y-12438332D01*
X25085794Y-12435710D01*
X25091569Y-12433643D01*
X25097519Y-12432153D01*
X25103586Y-12431253D01*
X25109712Y-12430952D01*
X25115838Y-12431253D01*
X25115838Y-12431253D01*
G37*
D24*
G04 #@! TD*
G04 #@! TO.P,U1,43*
G04 #@! TO.N,/P0.7*
X24915258Y-12776295D03*
D10*
G04 #@! TO.N,/P0.6*
G04 #@! TO.C,U1*
G36*
X25469392Y-12784806D02*
X25475459Y-12785706D01*
X25481409Y-12787196D01*
X25487184Y-12789263D01*
X25492728Y-12791885D01*
X25497989Y-12795038D01*
X25502916Y-12798692D01*
X25507460Y-12802811D01*
X25595849Y-12891200D01*
X25599968Y-12895744D01*
X25603622Y-12900671D01*
X25606775Y-12905932D01*
X25609397Y-12911476D01*
X25611464Y-12917251D01*
X25612954Y-12923201D01*
X25613854Y-12929268D01*
X25614155Y-12935394D01*
X25613854Y-12941520D01*
X25612954Y-12947587D01*
X25611464Y-12953537D01*
X25609397Y-12959312D01*
X25606775Y-12964856D01*
X25603622Y-12970117D01*
X25599968Y-12975044D01*
X25595849Y-12979588D01*
X25118552Y-13456885D01*
X25114008Y-13461004D01*
X25109081Y-13464658D01*
X25103820Y-13467811D01*
X25098276Y-13470433D01*
X25092501Y-13472500D01*
X25086551Y-13473990D01*
X25080484Y-13474890D01*
X25074358Y-13475191D01*
X25068232Y-13474890D01*
X25062165Y-13473990D01*
X25056215Y-13472500D01*
X25050440Y-13470433D01*
X25044896Y-13467811D01*
X25039635Y-13464658D01*
X25034708Y-13461004D01*
X25030164Y-13456885D01*
X24941775Y-13368496D01*
X24937656Y-13363952D01*
X24934002Y-13359025D01*
X24930849Y-13353764D01*
X24928227Y-13348220D01*
X24926160Y-13342445D01*
X24924670Y-13336495D01*
X24923770Y-13330428D01*
X24923469Y-13324302D01*
X24923770Y-13318176D01*
X24924670Y-13312109D01*
X24926160Y-13306159D01*
X24928227Y-13300384D01*
X24930849Y-13294840D01*
X24934002Y-13289579D01*
X24937656Y-13284652D01*
X24941775Y-13280108D01*
X25419072Y-12802811D01*
X25423616Y-12798692D01*
X25428543Y-12795038D01*
X25433804Y-12791885D01*
X25439348Y-12789263D01*
X25445123Y-12787196D01*
X25451073Y-12785706D01*
X25457140Y-12784806D01*
X25463266Y-12784505D01*
X25469392Y-12784806D01*
X25469392Y-12784806D01*
G37*
D24*
G04 #@! TD*
G04 #@! TO.P,U1,44*
G04 #@! TO.N,/P0.6*
X25268812Y-13129848D03*
D10*
G04 #@! TO.N,/P0.5*
G04 #@! TO.C,U1*
G36*
X25822945Y-13138360D02*
X25829012Y-13139260D01*
X25834962Y-13140750D01*
X25840737Y-13142817D01*
X25846281Y-13145439D01*
X25851542Y-13148592D01*
X25856469Y-13152246D01*
X25861013Y-13156365D01*
X25949402Y-13244754D01*
X25953521Y-13249298D01*
X25957175Y-13254225D01*
X25960328Y-13259486D01*
X25962950Y-13265030D01*
X25965017Y-13270805D01*
X25966507Y-13276755D01*
X25967407Y-13282822D01*
X25967708Y-13288948D01*
X25967407Y-13295074D01*
X25966507Y-13301141D01*
X25965017Y-13307091D01*
X25962950Y-13312866D01*
X25960328Y-13318410D01*
X25957175Y-13323671D01*
X25953521Y-13328598D01*
X25949402Y-13333142D01*
X25472105Y-13810439D01*
X25467561Y-13814558D01*
X25462634Y-13818212D01*
X25457373Y-13821365D01*
X25451829Y-13823987D01*
X25446054Y-13826054D01*
X25440104Y-13827544D01*
X25434037Y-13828444D01*
X25427911Y-13828745D01*
X25421785Y-13828444D01*
X25415718Y-13827544D01*
X25409768Y-13826054D01*
X25403993Y-13823987D01*
X25398449Y-13821365D01*
X25393188Y-13818212D01*
X25388261Y-13814558D01*
X25383717Y-13810439D01*
X25295328Y-13722050D01*
X25291209Y-13717506D01*
X25287555Y-13712579D01*
X25284402Y-13707318D01*
X25281780Y-13701774D01*
X25279713Y-13695999D01*
X25278223Y-13690049D01*
X25277323Y-13683982D01*
X25277022Y-13677856D01*
X25277323Y-13671730D01*
X25278223Y-13665663D01*
X25279713Y-13659713D01*
X25281780Y-13653938D01*
X25284402Y-13648394D01*
X25287555Y-13643133D01*
X25291209Y-13638206D01*
X25295328Y-13633662D01*
X25772625Y-13156365D01*
X25777169Y-13152246D01*
X25782096Y-13148592D01*
X25787357Y-13145439D01*
X25792901Y-13142817D01*
X25798676Y-13140750D01*
X25804626Y-13139260D01*
X25810693Y-13138360D01*
X25816819Y-13138059D01*
X25822945Y-13138360D01*
X25822945Y-13138360D01*
G37*
D24*
G04 #@! TD*
G04 #@! TO.P,U1,45*
G04 #@! TO.N,/P0.5*
X25622365Y-13483402D03*
D10*
G04 #@! TO.N,/P0.4*
G04 #@! TO.C,U1*
G36*
X26176498Y-13491913D02*
X26182565Y-13492813D01*
X26188515Y-13494303D01*
X26194290Y-13496370D01*
X26199834Y-13498992D01*
X26205095Y-13502145D01*
X26210022Y-13505799D01*
X26214566Y-13509918D01*
X26302955Y-13598307D01*
X26307074Y-13602851D01*
X26310728Y-13607778D01*
X26313881Y-13613039D01*
X26316503Y-13618583D01*
X26318570Y-13624358D01*
X26320060Y-13630308D01*
X26320960Y-13636375D01*
X26321261Y-13642501D01*
X26320960Y-13648627D01*
X26320060Y-13654694D01*
X26318570Y-13660644D01*
X26316503Y-13666419D01*
X26313881Y-13671963D01*
X26310728Y-13677224D01*
X26307074Y-13682151D01*
X26302955Y-13686695D01*
X25825658Y-14163992D01*
X25821114Y-14168111D01*
X25816187Y-14171765D01*
X25810926Y-14174918D01*
X25805382Y-14177540D01*
X25799607Y-14179607D01*
X25793657Y-14181097D01*
X25787590Y-14181997D01*
X25781464Y-14182298D01*
X25775338Y-14181997D01*
X25769271Y-14181097D01*
X25763321Y-14179607D01*
X25757546Y-14177540D01*
X25752002Y-14174918D01*
X25746741Y-14171765D01*
X25741814Y-14168111D01*
X25737270Y-14163992D01*
X25648881Y-14075603D01*
X25644762Y-14071059D01*
X25641108Y-14066132D01*
X25637955Y-14060871D01*
X25635333Y-14055327D01*
X25633266Y-14049552D01*
X25631776Y-14043602D01*
X25630876Y-14037535D01*
X25630575Y-14031409D01*
X25630876Y-14025283D01*
X25631776Y-14019216D01*
X25633266Y-14013266D01*
X25635333Y-14007491D01*
X25637955Y-14001947D01*
X25641108Y-13996686D01*
X25644762Y-13991759D01*
X25648881Y-13987215D01*
X26126178Y-13509918D01*
X26130722Y-13505799D01*
X26135649Y-13502145D01*
X26140910Y-13498992D01*
X26146454Y-13496370D01*
X26152229Y-13494303D01*
X26158179Y-13492813D01*
X26164246Y-13491913D01*
X26170372Y-13491612D01*
X26176498Y-13491913D01*
X26176498Y-13491913D01*
G37*
D24*
G04 #@! TD*
G04 #@! TO.P,U1,46*
G04 #@! TO.N,/P0.4*
X25975918Y-13836955D03*
D10*
G04 #@! TO.N,/P0.3*
G04 #@! TO.C,U1*
G36*
X26530052Y-13845467D02*
X26536119Y-13846367D01*
X26542069Y-13847857D01*
X26547844Y-13849924D01*
X26553388Y-13852546D01*
X26558649Y-13855699D01*
X26563576Y-13859353D01*
X26568120Y-13863472D01*
X26656509Y-13951861D01*
X26660628Y-13956405D01*
X26664282Y-13961332D01*
X26667435Y-13966593D01*
X26670057Y-13972137D01*
X26672124Y-13977912D01*
X26673614Y-13983862D01*
X26674514Y-13989929D01*
X26674815Y-13996055D01*
X26674514Y-14002181D01*
X26673614Y-14008248D01*
X26672124Y-14014198D01*
X26670057Y-14019973D01*
X26667435Y-14025517D01*
X26664282Y-14030778D01*
X26660628Y-14035705D01*
X26656509Y-14040249D01*
X26179212Y-14517546D01*
X26174668Y-14521665D01*
X26169741Y-14525319D01*
X26164480Y-14528472D01*
X26158936Y-14531094D01*
X26153161Y-14533161D01*
X26147211Y-14534651D01*
X26141144Y-14535551D01*
X26135018Y-14535852D01*
X26128892Y-14535551D01*
X26122825Y-14534651D01*
X26116875Y-14533161D01*
X26111100Y-14531094D01*
X26105556Y-14528472D01*
X26100295Y-14525319D01*
X26095368Y-14521665D01*
X26090824Y-14517546D01*
X26002435Y-14429157D01*
X25998316Y-14424613D01*
X25994662Y-14419686D01*
X25991509Y-14414425D01*
X25988887Y-14408881D01*
X25986820Y-14403106D01*
X25985330Y-14397156D01*
X25984430Y-14391089D01*
X25984129Y-14384963D01*
X25984430Y-14378837D01*
X25985330Y-14372770D01*
X25986820Y-14366820D01*
X25988887Y-14361045D01*
X25991509Y-14355501D01*
X25994662Y-14350240D01*
X25998316Y-14345313D01*
X26002435Y-14340769D01*
X26479732Y-13863472D01*
X26484276Y-13859353D01*
X26489203Y-13855699D01*
X26494464Y-13852546D01*
X26500008Y-13849924D01*
X26505783Y-13847857D01*
X26511733Y-13846367D01*
X26517800Y-13845467D01*
X26523926Y-13845166D01*
X26530052Y-13845467D01*
X26530052Y-13845467D01*
G37*
D24*
G04 #@! TD*
G04 #@! TO.P,U1,47*
G04 #@! TO.N,/P0.3*
X26329472Y-14190509D03*
D10*
G04 #@! TO.N,/P0.2*
G04 #@! TO.C,U1*
G36*
X26883605Y-14199020D02*
X26889672Y-14199920D01*
X26895622Y-14201410D01*
X26901397Y-14203477D01*
X26906941Y-14206099D01*
X26912202Y-14209252D01*
X26917129Y-14212906D01*
X26921673Y-14217025D01*
X27010062Y-14305414D01*
X27014181Y-14309958D01*
X27017835Y-14314885D01*
X27020988Y-14320146D01*
X27023610Y-14325690D01*
X27025677Y-14331465D01*
X27027167Y-14337415D01*
X27028067Y-14343482D01*
X27028368Y-14349608D01*
X27028067Y-14355734D01*
X27027167Y-14361801D01*
X27025677Y-14367751D01*
X27023610Y-14373526D01*
X27020988Y-14379070D01*
X27017835Y-14384331D01*
X27014181Y-14389258D01*
X27010062Y-14393802D01*
X26532765Y-14871099D01*
X26528221Y-14875218D01*
X26523294Y-14878872D01*
X26518033Y-14882025D01*
X26512489Y-14884647D01*
X26506714Y-14886714D01*
X26500764Y-14888204D01*
X26494697Y-14889104D01*
X26488571Y-14889405D01*
X26482445Y-14889104D01*
X26476378Y-14888204D01*
X26470428Y-14886714D01*
X26464653Y-14884647D01*
X26459109Y-14882025D01*
X26453848Y-14878872D01*
X26448921Y-14875218D01*
X26444377Y-14871099D01*
X26355988Y-14782710D01*
X26351869Y-14778166D01*
X26348215Y-14773239D01*
X26345062Y-14767978D01*
X26342440Y-14762434D01*
X26340373Y-14756659D01*
X26338883Y-14750709D01*
X26337983Y-14744642D01*
X26337682Y-14738516D01*
X26337983Y-14732390D01*
X26338883Y-14726323D01*
X26340373Y-14720373D01*
X26342440Y-14714598D01*
X26345062Y-14709054D01*
X26348215Y-14703793D01*
X26351869Y-14698866D01*
X26355988Y-14694322D01*
X26833285Y-14217025D01*
X26837829Y-14212906D01*
X26842756Y-14209252D01*
X26848017Y-14206099D01*
X26853561Y-14203477D01*
X26859336Y-14201410D01*
X26865286Y-14199920D01*
X26871353Y-14199020D01*
X26877479Y-14198719D01*
X26883605Y-14199020D01*
X26883605Y-14199020D01*
G37*
D24*
G04 #@! TD*
G04 #@! TO.P,U1,48*
G04 #@! TO.N,/P0.2*
X26683025Y-14544062D03*
D25*
G04 #@! TO.P,U2,2*
G04 #@! TO.N,+3V3*
X37236000Y-12700000D03*
D26*
X43536000Y-12700000D03*
G04 #@! TO.P,U2,3*
G04 #@! TO.N,/5V*
X43536000Y-10400000D03*
G04 #@! TO.P,U2,1*
G04 #@! TO.N,GND*
X43536000Y-15000000D03*
G04 #@! TD*
D27*
G04 #@! TO.N,GND*
X27178000Y-8953500D03*
X28384500Y-10160000D03*
X27178000Y-11366500D03*
X25971500Y-10160000D03*
X27178000Y-6921500D03*
X27178000Y-13398500D03*
X50545994Y-7810500D03*
X48632841Y-7103841D03*
X38036500Y-5588000D03*
X30734000Y-7683500D03*
X33147000Y-5207000D03*
X21082000Y-5016500D03*
X16700500Y-8826500D03*
X19075500Y-5842000D03*
X20701000Y-7683500D03*
X34440663Y-13317990D03*
X22098000Y-14922500D03*
X30416500Y-10160000D03*
X23939500Y-10160000D03*
X25409261Y-5888889D03*
X35593333Y-11923712D03*
X43561000Y-15000000D03*
X45974000Y-15116000D03*
X44831000Y-15000000D03*
X48644000Y-8255000D03*
G04 #@! TO.N,/OSC_IN*
X13589000Y-8826500D03*
G04 #@! TO.N,/OSC_OUT*
X19812000Y-8826500D03*
G04 #@! TO.N,/RESET*
X20701000Y-8699500D03*
X19748500Y-10731500D03*
X41084500Y-8699500D03*
G04 #@! TO.N,+3V3*
X37465000Y-8826500D03*
X23495000Y-14097000D03*
X24320500Y-5016500D03*
X36385500Y-12700000D03*
X36385500Y-13335000D03*
X36385500Y-13970000D03*
X32131000Y-14478002D03*
X11747500Y-16192498D03*
X32067498Y-4318002D03*
D28*
G04 #@! TO.N,/5V*
X44069000Y-9144000D03*
X48260000Y-15811500D03*
D27*
G04 #@! TO.N,/LED1*
X23241000Y-16002000D03*
X35877500Y-9080500D03*
G04 #@! TO.N,/OSC32_OUT*
X31369000Y-12255506D03*
G04 #@! TO.N,/OSC32_IN*
X30685167Y-12616490D03*
G04 #@! TO.N,/HIB_IO*
X41719500Y-15430528D03*
X41973500Y-16827508D03*
G04 #@! TO.N,/1V2*
X31945498Y-13495002D03*
X22224974Y-7468335D03*
G04 #@! TD*
D29*
G04 #@! TO.N,GND*
X54577500Y-9546000D02*
X54577500Y-11446000D01*
X54577500Y-14348000D02*
X54577500Y-15346000D01*
X54577500Y-13446000D02*
X54577500Y-14348000D01*
X51877500Y-11146000D02*
X51877500Y-9946000D01*
X50520500Y-7785006D02*
X50545994Y-7810500D01*
X50520500Y-6858000D02*
X50520500Y-7785006D01*
D30*
X48604000Y-7075000D02*
X48632841Y-7103841D01*
X48644000Y-9652000D02*
X48644000Y-8255000D01*
X48644000Y-7115000D02*
X48632841Y-7103841D01*
X48604000Y-5969000D02*
X48604000Y-7075000D01*
D29*
X37439500Y-6477000D02*
X37439500Y-6185000D01*
X37439500Y-6185000D02*
X38036500Y-5588000D01*
X30147848Y-8250812D02*
X30166688Y-8250812D01*
X30166688Y-8250812D02*
X30734000Y-7683500D01*
X32560847Y-5793153D02*
X33147000Y-5207000D01*
X21881999Y-5016500D02*
X21082000Y-5016500D01*
X17500500Y-8826500D02*
X16700500Y-8826500D01*
X15964000Y-8826500D02*
X16700500Y-8826500D01*
X19075500Y-5080000D02*
X19075500Y-5655000D01*
X19075500Y-6604000D02*
X19075500Y-5842000D01*
X19075500Y-5655000D02*
X19075500Y-5842000D01*
X20701000Y-7404000D02*
X20701000Y-7683500D01*
X21247000Y-6858000D02*
X20701000Y-7404000D01*
X34442500Y-13319827D02*
X34440663Y-13317990D01*
X34442500Y-12573000D02*
X34442500Y-13316153D01*
X34442500Y-13316153D02*
X34440663Y-13317990D01*
X34442500Y-14097000D02*
X34442500Y-13319827D01*
X22923500Y-14948000D02*
X22123500Y-14948000D01*
X22123500Y-14948000D02*
X22098000Y-14922500D01*
X25409261Y-5916388D02*
X25409261Y-5888889D01*
X25975918Y-6483045D02*
X25409261Y-5916388D01*
X35522000Y-11049000D02*
X35522000Y-11852379D01*
X35522000Y-11852379D02*
X35593333Y-11923712D01*
D31*
X45858000Y-15000000D02*
X45974000Y-15116000D01*
X43536000Y-15000000D02*
X43561000Y-15000000D01*
X43561000Y-15000000D02*
X44831000Y-15000000D01*
X45974000Y-15116000D02*
X45974000Y-15116000D01*
X44831000Y-15000000D02*
X45858000Y-15000000D01*
D30*
X48644000Y-8255000D02*
X48644000Y-7115000D01*
D29*
G04 #@! TO.N,/OSC_IN*
X14389000Y-8826500D02*
X13589000Y-8826500D01*
X14850612Y-8364888D02*
X14389000Y-8826500D01*
X15278000Y-7937500D02*
X14850612Y-8364888D01*
X19868987Y-7309013D02*
X19240500Y-7937500D01*
X24746160Y-6667500D02*
X24638000Y-6667500D01*
X19240500Y-7937500D02*
X15278000Y-7937500D01*
X25268812Y-7190152D02*
X24746160Y-6667500D01*
X24638000Y-6667500D02*
X23812500Y-5842000D01*
X23812500Y-5842000D02*
X20637500Y-5842000D01*
X20637500Y-5842000D02*
X19868987Y-6610513D01*
X19868987Y-6610513D02*
X19868987Y-7309013D01*
G04 #@! TO.N,/OSC_OUT*
X19537112Y-8364888D02*
X19075500Y-8826500D01*
X20172998Y-6814502D02*
X20172998Y-7729002D01*
X24915258Y-7543705D02*
X23526543Y-6154990D01*
X20832510Y-6154990D02*
X20172998Y-6814502D01*
X23526543Y-6154990D02*
X20832510Y-6154990D01*
X20172998Y-7729002D02*
X19537112Y-8364888D01*
X19075500Y-8826500D02*
X19812000Y-8826500D01*
G04 #@! TO.N,/RESET*
X40296000Y-6477000D02*
X40804000Y-5969000D01*
X39014500Y-6477000D02*
X40296000Y-6477000D01*
X39014500Y-8001000D02*
X39014500Y-6477000D01*
X19448501Y-11031499D02*
X19448501Y-14650999D01*
X19748500Y-10731500D02*
X19448501Y-11031499D01*
X19448501Y-14650999D02*
X17589500Y-16510000D01*
X13970000Y-16510000D02*
X11430000Y-19050000D01*
X17589500Y-16510000D02*
X13970000Y-16510000D01*
X24208152Y-8250812D02*
X23971826Y-8014487D01*
X21000999Y-8399501D02*
X20701000Y-8699500D01*
X21386006Y-8014494D02*
X21000999Y-8399501D01*
X23971826Y-8014487D02*
X21386006Y-8014494D01*
X39713000Y-8699500D02*
X39014500Y-8001000D01*
X41084500Y-8699500D02*
X39713000Y-8699500D01*
G04 #@! TO.N,+3V3*
X55143500Y-6629500D02*
X55143500Y-6858000D01*
D30*
X55143500Y-5401000D02*
X55143500Y-6858000D01*
X55143500Y-4826000D02*
X55143500Y-5401000D01*
X55143500Y-4343500D02*
X55143500Y-4826000D01*
X52070000Y-1270000D02*
X55143500Y-4343500D01*
D32*
X37439500Y-8001000D02*
X37439500Y-8801000D01*
X37439500Y-8801000D02*
X37465000Y-8826500D01*
D29*
X32243436Y-11430000D02*
X33566000Y-11430000D01*
X33566000Y-11430000D02*
X33947000Y-11049000D01*
X31208507Y-11715634D02*
X31957802Y-11715634D01*
X30854955Y-11362082D02*
X31208507Y-11715634D01*
X31957802Y-11715634D02*
X32243436Y-11430000D01*
D30*
X23457001Y-5016500D02*
X24320500Y-5016500D01*
D31*
X42892000Y-12700000D02*
X37744000Y-12700000D01*
X44044000Y-12700000D02*
X42892000Y-12700000D01*
D30*
X37465000Y-12421000D02*
X37744000Y-12700000D01*
X37465000Y-8826500D02*
X37465000Y-12421000D01*
X37744000Y-10400000D02*
X37250000Y-9906000D01*
X37250000Y-9906000D02*
X35090000Y-9906000D01*
X35090000Y-9906000D02*
X33947000Y-11049000D01*
X37744000Y-12700000D02*
X37744000Y-10400000D01*
D32*
X37744000Y-12700000D02*
X36385500Y-12700000D01*
X36385500Y-12700000D02*
X36385500Y-13335000D01*
X36385500Y-13335000D02*
X36385500Y-13970000D01*
X37109000Y-13335000D02*
X37744000Y-12700000D01*
X36474000Y-13970000D02*
X37744000Y-12700000D01*
X36385500Y-13970000D02*
X36474000Y-13970000D01*
X36685499Y-13317499D02*
X36703000Y-13335000D01*
X36685499Y-12999999D02*
X36685499Y-13317499D01*
X36385500Y-12700000D02*
X36685499Y-12999999D01*
X36385500Y-13335000D02*
X36703000Y-13335000D01*
X36703000Y-13335000D02*
X37109000Y-13335000D01*
D33*
X29087188Y-13129848D02*
X30435342Y-14478002D01*
D29*
X32211610Y-14558612D02*
X32131000Y-14478002D01*
X32405888Y-14558612D02*
X32211610Y-14558612D01*
D33*
X31706736Y-14478002D02*
X32131000Y-14478002D01*
X30435342Y-14478002D02*
X31706736Y-14478002D01*
D29*
X32867500Y-14097000D02*
X32405888Y-14558612D01*
D30*
X23495000Y-13944500D02*
X22923500Y-13373000D01*
X23495000Y-14097000D02*
X23495000Y-13944500D01*
D33*
X22923500Y-13353840D02*
X22923500Y-13373000D01*
X24208152Y-12069188D02*
X22923500Y-13353840D01*
D30*
X3746500Y-6350000D02*
X3810000Y-6350000D01*
X1270000Y-8826500D02*
X3746500Y-6350000D01*
X1270000Y-15621000D02*
X1270000Y-8826500D01*
X2603500Y-16954500D02*
X1270000Y-15621000D01*
X8890000Y-19050000D02*
X6794500Y-16954500D01*
X6794500Y-16954500D02*
X2603500Y-16954500D01*
X9739999Y-18199999D02*
X11747500Y-16192498D01*
X8890000Y-19050000D02*
X9739999Y-18199999D01*
D33*
X24320500Y-5651500D02*
X24320500Y-5016500D01*
X25152046Y-6483046D02*
X24320500Y-5651500D01*
X25622365Y-6836598D02*
X25268813Y-6483046D01*
X25268813Y-6483046D02*
X25152046Y-6483046D01*
D30*
X31544847Y-4777153D02*
X32003998Y-4318002D01*
X32003998Y-4318002D02*
X32067498Y-4318002D01*
D31*
X45590000Y-12700000D02*
X45974000Y-12316000D01*
X43536000Y-12700000D02*
X45590000Y-12700000D01*
D30*
X49708510Y-11060990D02*
X47229010Y-11060990D01*
X47229010Y-11060990D02*
X46669710Y-11620290D01*
X55143500Y-6896000D02*
X54165500Y-7874000D01*
X54165500Y-7874000D02*
X51816000Y-7874000D01*
X51816000Y-7874000D02*
X50165000Y-9525000D01*
X50165000Y-9525000D02*
X50165000Y-10604500D01*
X46669710Y-11620290D02*
X45974000Y-12316000D01*
X55143500Y-6858000D02*
X55143500Y-6896000D01*
X50165000Y-10604500D02*
X49708510Y-11060990D01*
D32*
G04 #@! TO.N,/5V*
X52070000Y-19050000D02*
X48234500Y-15214500D01*
X44044000Y-10400000D02*
X44044000Y-9169000D01*
X44044000Y-9169000D02*
X44069000Y-9144000D01*
X45096000Y-10400000D02*
X45844000Y-9652000D01*
X43536000Y-10400000D02*
X45096000Y-10400000D01*
X48234500Y-14986000D02*
X48234500Y-15786000D01*
X48234500Y-15786000D02*
X48260000Y-15811500D01*
D29*
G04 #@! TO.N,/LED1*
X49530000Y-1397000D02*
X49530000Y-1270000D01*
X49530000Y-1714500D02*
X49530000Y-1397000D01*
X50520500Y-4826000D02*
X50520500Y-2705000D01*
X50520500Y-2705000D02*
X49530000Y-1714500D01*
X21399500Y-15430500D02*
X21971000Y-16002000D01*
X21971000Y-16002000D02*
X22816736Y-16002000D01*
X21399500Y-13790184D02*
X21399500Y-15430500D01*
X22816736Y-16002000D02*
X23241000Y-16002000D01*
X23501046Y-12069187D02*
X23120497Y-12069187D01*
X23854598Y-11715635D02*
X23501046Y-12069187D01*
X23120497Y-12069187D02*
X21399500Y-13790184D01*
X35877500Y-6223000D02*
X35877500Y-8656236D01*
X35877500Y-8656236D02*
X35877500Y-9080500D01*
X38417500Y-3683000D02*
X35877500Y-6223000D01*
X47117000Y-3683000D02*
X38417500Y-3683000D01*
X49530000Y-1270000D02*
X47117000Y-3683000D01*
G04 #@! TO.N,/OSC32_OUT*
X16187500Y-6604000D02*
X15748000Y-7043500D01*
X17500500Y-6604000D02*
X16187500Y-6604000D01*
X30501402Y-11715635D02*
X30874255Y-12088488D01*
X30874255Y-12088488D02*
X30938609Y-12088488D01*
X31105627Y-12255506D02*
X31369000Y-12255506D01*
X30938609Y-12088488D02*
X31105627Y-12255506D01*
G04 #@! TO.N,/OSC32_IN*
X15811500Y-5080000D02*
X15748000Y-5143500D01*
X17500500Y-5080000D02*
X15811500Y-5080000D01*
X30685167Y-12606507D02*
X30685167Y-12616490D01*
X30147848Y-12069188D02*
X30685167Y-12606507D01*
G04 #@! TO.N,Net-(J4-Pad3)*
X50317500Y-12446000D02*
X49809500Y-11938000D01*
X51877500Y-12446000D02*
X50317500Y-12446000D01*
G04 #@! TO.N,Net-(J4-Pad2)*
X50175500Y-13096000D02*
X49809500Y-13462000D01*
X51877500Y-13096000D02*
X50175500Y-13096000D01*
G04 #@! TO.N,/SWDCLK*
X4659999Y-10580001D02*
X3810000Y-11430000D01*
X22168505Y-8692521D02*
X20764500Y-10096500D01*
X5143500Y-10096500D02*
X4659999Y-10580001D01*
X23235650Y-8692523D02*
X22168505Y-8692521D01*
X20764500Y-10096500D02*
X5143500Y-10096500D01*
X23501045Y-8957918D02*
X23235650Y-8692523D01*
G04 #@! TO.N,/SWDIO*
X4659999Y-9739999D02*
X3810000Y-8890000D01*
X20691066Y-9739999D02*
X4659999Y-9739999D01*
X22916979Y-8325021D02*
X22106044Y-8325021D01*
X22923500Y-8318500D02*
X22916979Y-8325021D01*
X22106044Y-8325021D02*
X20691066Y-9739999D01*
X23854598Y-8604365D02*
X23568733Y-8318500D01*
X23568733Y-8318500D02*
X22923500Y-8318500D01*
G04 #@! TO.N,Net-(D1-Pad1)*
X53568500Y-4826000D02*
X52095500Y-4826000D01*
G04 #@! TO.N,Net-(D2-Pad1)*
X53568500Y-6858000D02*
X52095500Y-6858000D01*
G04 #@! TO.N,/VDDA*
X31447153Y-6906847D02*
X30431153Y-5890847D01*
X29794295Y-7897258D02*
X30212511Y-7479042D01*
X30212511Y-7479042D02*
X30212511Y-7188989D01*
X30212511Y-7188989D02*
X30494653Y-6906847D01*
X30795139Y-6906847D02*
X31447153Y-6906847D01*
X30494653Y-6906847D02*
X30795139Y-6906847D01*
X30431153Y-2588847D02*
X31750000Y-1270000D01*
X30431153Y-5890847D02*
X30431153Y-2588847D01*
D32*
G04 #@! TO.N,Net-(FB2-Pad1)*
X51877500Y-13746000D02*
X51877500Y-13760939D01*
X51049500Y-13746000D02*
X49809500Y-14986000D01*
X51877500Y-13746000D02*
X51049500Y-13746000D01*
D29*
G04 #@! TO.N,/P1.5*
X18209936Y-16954500D02*
X16065500Y-16954500D01*
X22832552Y-8996533D02*
X22372468Y-8996533D01*
X19785021Y-11583979D02*
X19785019Y-15379417D01*
X22372468Y-8996533D02*
X19785021Y-11583979D01*
X16065500Y-16954500D02*
X14819999Y-18200001D01*
X23147491Y-9311472D02*
X22832552Y-8996533D01*
X14819999Y-18200001D02*
X13970000Y-19050000D01*
X19785019Y-15379417D02*
X18209936Y-16954500D01*
G04 #@! TO.N,/P1.4*
X17907000Y-17653000D02*
X16510000Y-19050000D01*
X18034000Y-17526000D02*
X17907000Y-17653000D01*
X18415000Y-17526000D02*
X18034000Y-17526000D01*
X20089029Y-15851971D02*
X18415000Y-17526000D01*
X22793938Y-9665025D02*
X20089031Y-12369932D01*
X20089031Y-12369932D02*
X20089029Y-15851971D01*
G04 #@! TO.N,/P1.3*
X19050000Y-17847919D02*
X19050000Y-19050000D01*
X19304000Y-17593919D02*
X19050000Y-17847919D01*
X19304000Y-17589500D02*
X19304000Y-17593919D01*
X20393041Y-16500459D02*
X19304000Y-17589500D01*
X22793938Y-10654975D02*
X20393041Y-13055872D01*
X20393041Y-13055872D02*
X20393041Y-16500459D01*
G04 #@! TO.N,/P1.2*
X22694852Y-11461167D02*
X22667461Y-11461167D01*
X20740001Y-18200001D02*
X21590000Y-19050000D01*
X23147491Y-11008528D02*
X22694852Y-11461167D01*
X22667461Y-11461167D02*
X20740001Y-13388627D01*
X20740001Y-13388627D02*
X20740001Y-18200001D01*
G04 #@! TO.N,/P1.1*
X21095489Y-16015489D02*
X23280001Y-18200001D01*
X23280001Y-18200001D02*
X24130000Y-19050000D01*
X21095489Y-13664259D02*
X21095489Y-16015489D01*
X22994571Y-11765177D02*
X21095489Y-13664259D01*
X23097953Y-11765174D02*
X22994571Y-11765177D01*
X23501045Y-11362082D02*
X23097953Y-11765174D01*
G04 #@! TO.N,/P0.8*
X25781000Y-18161000D02*
X26670000Y-19050000D01*
X24208153Y-16588153D02*
X25781000Y-18161000D01*
X24561705Y-12422742D02*
X24208153Y-12776294D01*
X24208153Y-12776294D02*
X24208153Y-16588153D01*
G04 #@! TO.N,/P0.7*
X28257500Y-18097500D02*
X29210000Y-19050000D01*
X28067000Y-17907000D02*
X28257500Y-18097500D01*
X26924000Y-17907000D02*
X28067000Y-17907000D01*
X24561706Y-15544706D02*
X26924000Y-17907000D01*
X24915258Y-12776295D02*
X24561706Y-13129847D01*
X24561706Y-13129847D02*
X24561706Y-15544706D01*
G04 #@! TO.N,/P0.6*
X31369000Y-18669000D02*
X31750000Y-19050000D01*
X30289500Y-17589500D02*
X31369000Y-18669000D01*
X27241500Y-17589500D02*
X30289500Y-17589500D01*
X24915260Y-15263260D02*
X27241500Y-17589500D01*
X25268812Y-13129848D02*
X24915260Y-13483400D01*
X24915260Y-13483400D02*
X24915260Y-15263260D01*
G04 #@! TO.N,/P0.5*
X33337500Y-18097500D02*
X34290000Y-19050000D01*
X32512000Y-17272000D02*
X33337500Y-18097500D01*
X27368500Y-17272000D02*
X32512000Y-17272000D01*
X25268813Y-15172313D02*
X27368500Y-17272000D01*
X25622365Y-13483402D02*
X25268813Y-13836954D01*
X25268813Y-13836954D02*
X25268813Y-15172313D01*
G04 #@! TO.N,/P0.4*
X35687000Y-17907000D02*
X36830000Y-19050000D01*
X34734500Y-16954500D02*
X35687000Y-17907000D01*
X27480936Y-16954500D02*
X34734500Y-16954500D01*
X25622366Y-15095930D02*
X27480936Y-16954500D01*
X25975918Y-13836955D02*
X25622366Y-14190507D01*
X25622366Y-14190507D02*
X25622366Y-15095930D01*
G04 #@! TO.N,/P0.3*
X26329472Y-14190509D02*
X25975920Y-14544061D01*
X25975920Y-14544061D02*
X25975920Y-14990420D01*
X35279883Y-16650499D02*
X36010950Y-17381566D01*
X36010950Y-17381566D02*
X37701566Y-17381566D01*
X37701566Y-17381566D02*
X38520001Y-18200001D01*
X38520001Y-18200001D02*
X39370000Y-19050000D01*
X27635989Y-16650489D02*
X35279883Y-16650499D01*
X25975920Y-14990420D02*
X27635989Y-16650489D01*
G04 #@! TO.N,/P0.2*
X38749980Y-17492045D02*
X40352045Y-17492045D01*
X38335490Y-17077555D02*
X38749980Y-17492045D01*
X26683025Y-14544062D02*
X28485442Y-16346479D01*
X28485442Y-16346479D02*
X35405808Y-16346488D01*
X35405808Y-16346488D02*
X36136875Y-17077555D01*
X36136875Y-17077555D02*
X38335490Y-17077555D01*
X40352045Y-17492045D02*
X41060001Y-18200001D01*
X41060001Y-18200001D02*
X41910000Y-19050000D01*
G04 #@! TO.N,/P0.1*
X27672975Y-14544062D02*
X29171382Y-16042469D01*
X29171382Y-16042469D02*
X35531732Y-16042476D01*
X35531732Y-16042476D02*
X36262800Y-16773544D01*
X36262800Y-16773544D02*
X38461415Y-16773544D01*
X38875905Y-17188034D02*
X40834284Y-17188034D01*
X40834284Y-17188034D02*
X41489750Y-17843500D01*
X38461415Y-16773544D02*
X38875905Y-17188034D01*
X43600001Y-18200001D02*
X44450000Y-19050000D01*
X43243500Y-17843500D02*
X43600001Y-18200001D01*
X41489750Y-17843500D02*
X43243500Y-17843500D01*
G04 #@! TO.N,/P0.0*
X46140001Y-18200001D02*
X46990000Y-19050000D01*
X45429025Y-17489025D02*
X46140001Y-18200001D01*
X41565211Y-17489025D02*
X45429025Y-17489025D01*
X40960209Y-16884023D02*
X41565211Y-17489025D01*
X39001830Y-16884023D02*
X40960209Y-16884023D01*
X38587340Y-16469533D02*
X39001830Y-16884023D01*
X36388725Y-16469533D02*
X38587340Y-16469533D01*
X35657654Y-15738462D02*
X36388725Y-16469533D01*
X29574478Y-15738459D02*
X35657654Y-15738462D01*
X28026528Y-14190509D02*
X29574478Y-15738459D01*
G04 #@! TO.N,/P2.0*
X14120031Y-3960031D02*
X11430000Y-1270000D01*
X24470531Y-3960031D02*
X14120031Y-3960031D01*
X25975920Y-5465420D02*
X24470531Y-3960031D01*
X26329472Y-6129491D02*
X25975920Y-5775939D01*
X25975920Y-5775939D02*
X25975920Y-5465420D01*
G04 #@! TO.N,/P2.1*
X14478000Y-1778000D02*
X13970000Y-1270000D01*
X16356021Y-3656021D02*
X14478000Y-1778000D01*
X24839885Y-3656021D02*
X16356021Y-3656021D01*
X26683025Y-5775938D02*
X26683025Y-5499161D01*
X26683025Y-5499161D02*
X24839885Y-3656021D01*
G04 #@! TO.N,/P2.2*
X16954500Y-1714500D02*
X16510000Y-1270000D01*
X18592011Y-3352011D02*
X16954500Y-1714500D01*
X27672975Y-5775938D02*
X25249048Y-3352011D01*
X25249048Y-3352011D02*
X18592011Y-3352011D01*
G04 #@! TO.N,/P2.3*
X19621500Y-1841500D02*
X19050000Y-1270000D01*
X20828000Y-3048000D02*
X19621500Y-1841500D01*
X25971500Y-3048000D02*
X20828000Y-3048000D01*
X28380080Y-5456580D02*
X25971500Y-3048000D01*
X28026528Y-6129491D02*
X28380080Y-5775939D01*
X28380080Y-5775939D02*
X28380080Y-5456580D01*
G04 #@! TO.N,/P2.4*
X21590000Y-1841500D02*
X21590000Y-1270000D01*
X22415500Y-2667000D02*
X21590000Y-1841500D01*
X26035000Y-2667000D02*
X22415500Y-2667000D01*
X28715489Y-5347489D02*
X26035000Y-2667000D01*
X28380082Y-6483045D02*
X28715489Y-6147638D01*
X28715489Y-6147638D02*
X28715489Y-5347489D01*
G04 #@! TO.N,/P2.5*
X29040496Y-6529737D02*
X29040498Y-5376502D01*
X28733635Y-6836598D02*
X29040496Y-6529737D01*
X29040498Y-5376502D02*
X29019500Y-5355504D01*
X29019500Y-5355504D02*
X29019500Y-5207000D01*
X29019500Y-5207000D02*
X26162000Y-2349500D01*
X24892000Y-2032000D02*
X24130000Y-1270000D01*
X25209500Y-2349500D02*
X24892000Y-2032000D01*
X26162000Y-2349500D02*
X25209500Y-2349500D01*
G04 #@! TO.N,/HIB_IO*
X49530000Y-19050000D02*
X47307508Y-16827508D01*
X47307508Y-16827508D02*
X41973500Y-16827508D01*
X32004000Y-12192000D02*
X32326010Y-11869990D01*
X29794295Y-12422742D02*
X30147847Y-12776294D01*
X30147847Y-12776294D02*
X30147847Y-12875847D01*
X30147847Y-12875847D02*
X30416500Y-13144500D01*
X30416500Y-13144500D02*
X31514556Y-13144500D01*
X31514556Y-13144500D02*
X32004000Y-12655056D01*
X35108010Y-13899010D02*
X36639528Y-15430528D01*
X32004000Y-12655056D02*
X32004000Y-12192000D01*
X41295236Y-15430528D02*
X41719500Y-15430528D01*
X36639528Y-15430528D02*
X41295236Y-15430528D01*
X35108010Y-12131694D02*
X35108010Y-13899010D01*
X32326010Y-11869990D02*
X34846306Y-11869990D01*
X34846306Y-11869990D02*
X35108010Y-12131694D01*
G04 #@! TO.N,/P14.0*
X34417000Y-1397000D02*
X34290000Y-1270000D01*
X30501402Y-8604365D02*
X30854954Y-8250813D01*
X31246187Y-8250813D02*
X33718500Y-5778500D01*
X33718500Y-5778500D02*
X33718500Y-4381500D01*
X33718500Y-4381500D02*
X34417000Y-3683000D01*
X30854954Y-8250813D02*
X31246187Y-8250813D01*
X34417000Y-3683000D02*
X34417000Y-1397000D01*
G04 #@! TO.N,/P14.3*
X36766500Y-1333500D02*
X36830000Y-1270000D01*
X31258049Y-8554824D02*
X31372113Y-8554823D01*
X30854955Y-8957918D02*
X31258049Y-8554824D01*
X31372113Y-8554823D02*
X34022511Y-5904425D01*
X34022511Y-5904425D02*
X34022511Y-5474489D01*
X34022511Y-5474489D02*
X36766500Y-2730500D01*
X36766500Y-2730500D02*
X36766500Y-1333500D01*
G04 #@! TO.N,/P14.4*
X38354000Y-2286000D02*
X39370000Y-1270000D01*
X37782500Y-2286000D02*
X38354000Y-2286000D01*
X34326522Y-5741978D02*
X37782500Y-2286000D01*
X31208509Y-9311472D02*
X34326522Y-6193459D01*
X34326522Y-6193459D02*
X34326522Y-5741978D01*
G04 #@! TO.N,/P14.5*
X41910000Y-1651000D02*
X41910000Y-1270000D01*
X40907489Y-2653511D02*
X41910000Y-1651000D01*
X37859489Y-2653511D02*
X40907489Y-2653511D01*
X34630533Y-5882467D02*
X37859489Y-2653511D01*
X31562062Y-9665025D02*
X34630533Y-6596554D01*
X34630533Y-6596554D02*
X34630533Y-5882467D01*
G04 #@! TO.N,/P14.6*
X44450000Y-1778000D02*
X44450000Y-1270000D01*
X43270488Y-2957512D02*
X44450000Y-1778000D01*
X38063478Y-2957522D02*
X43270488Y-2957512D01*
X34978037Y-6042963D02*
X38063478Y-2957522D01*
X31562062Y-10654975D02*
X34978037Y-7239000D01*
X34978037Y-7239000D02*
X34978037Y-6042963D01*
G04 #@! TO.N,/P14.7*
X38267469Y-3261531D02*
X45950969Y-3261531D01*
X31562061Y-11362080D02*
X31881420Y-11362080D01*
X31208509Y-11008528D02*
X31562061Y-11362080D01*
X45950969Y-3261531D02*
X46990000Y-2222500D01*
X31881420Y-11362080D02*
X32258000Y-10985500D01*
X32258000Y-10985500D02*
X32258000Y-10731500D01*
X46990000Y-2222500D02*
X46990000Y-1270000D01*
X35433000Y-6096000D02*
X38267469Y-3261531D01*
X32258000Y-10731500D02*
X35433000Y-7556500D01*
X35433000Y-7556500D02*
X35433000Y-6096000D01*
G04 #@! TO.N,/P14.8*
X29344506Y-3944506D02*
X26670000Y-1270000D01*
X29344506Y-5553346D02*
X29344506Y-3944506D01*
X29087188Y-7190152D02*
X29344506Y-6932834D01*
X29344506Y-6932834D02*
X29344506Y-5553346D01*
G04 #@! TO.N,/P14.9*
X30035500Y-3048000D02*
X29400500Y-2413000D01*
X29908500Y-7075947D02*
X29908500Y-6540500D01*
X29440742Y-7543705D02*
X29908500Y-7075947D01*
X29908500Y-6540500D02*
X29648517Y-6280517D01*
X29648517Y-6280517D02*
X29648517Y-5679273D01*
X29648517Y-5679273D02*
X30035500Y-5292290D01*
X30035500Y-5292290D02*
X30035500Y-3048000D01*
X29400500Y-1460500D02*
X29210000Y-1270000D01*
X29400500Y-2413000D02*
X29400500Y-1460500D01*
G04 #@! TO.N,/USB_D+*
X28733635Y-13483402D02*
X30380671Y-15130438D01*
X30380671Y-15130438D02*
X35909505Y-15130441D01*
X35909505Y-15130441D02*
X36640575Y-15861511D01*
X36640575Y-15861511D02*
X40924567Y-15861511D01*
X47117000Y-13055500D02*
X47772888Y-12399612D01*
X47772888Y-12399612D02*
X48234500Y-11938000D01*
X47117000Y-15875000D02*
X47117000Y-13055500D01*
X46996513Y-15995487D02*
X47117000Y-15875000D01*
X41058543Y-15995487D02*
X46996513Y-15995487D01*
X40924567Y-15861511D02*
X41058543Y-15995487D01*
G04 #@! TO.N,/USB_D-*
X38847239Y-16299495D02*
X38713265Y-16165522D01*
X47122441Y-16299495D02*
X38847239Y-16299495D01*
X38713265Y-16165522D02*
X36514650Y-16165522D01*
X36514650Y-16165522D02*
X35783579Y-15434451D01*
X35783579Y-15434451D02*
X29977575Y-15434448D01*
X29977575Y-15434448D02*
X28733634Y-14190507D01*
X28733634Y-14190507D02*
X28380082Y-13836955D01*
X47434500Y-15987436D02*
X47122441Y-16299495D01*
X47434500Y-14262000D02*
X47434500Y-15987436D01*
X48234500Y-13462000D02*
X47434500Y-14262000D01*
D33*
G04 #@! TO.N,/1V2*
X22224974Y-7455026D02*
X22224974Y-7468335D01*
X22822000Y-6858000D02*
X22224974Y-7455026D01*
X32867500Y-12573000D02*
X31945498Y-13495002D01*
X29440742Y-12776295D02*
X30459448Y-13795001D01*
X30459448Y-13795001D02*
X31645499Y-13795001D01*
X31645499Y-13795001D02*
X31945498Y-13495002D01*
X23522447Y-6858000D02*
X22822000Y-6858000D01*
X24561705Y-7897258D02*
X23522447Y-6858000D01*
G04 #@! TD*
M02*
