G04 #@! TF.GenerationSoftware,KiCad,Pcbnew,(5.0.2)-1*
G04 #@! TF.CreationDate,2019-03-28T08:34:28+01:00*
G04 #@! TF.ProjectId,mibo48_xmc4,6d69626f-3438-45f7-986d-63342e6b6963,rev?*
G04 #@! TF.SameCoordinates,PX7a53eb0PY5ad6650*
G04 #@! TF.FileFunction,Soldermask,Bot*
G04 #@! TF.FilePolarity,Negative*
%FSLAX46Y46*%
G04 Gerber Fmt 4.6, Leading zero omitted, Abs format (unit mm)*
G04 Created by KiCad (PCBNEW (5.0.2)-1) date 2019-03-28 08:34:28*
%MOMM*%
%LPD*%
G01*
G04 APERTURE LIST*
%ADD10C,0.100000*%
G04 APERTURE END LIST*
D10*
G36*
X21718707Y-18007596D02*
X21795836Y-18015193D01*
X21927787Y-18055220D01*
X21993763Y-18075233D01*
X22176172Y-18172733D01*
X22336054Y-18303946D01*
X22467267Y-18463828D01*
X22564767Y-18646237D01*
X22564767Y-18646238D01*
X22624807Y-18844164D01*
X22645080Y-19050000D01*
X22624807Y-19255836D01*
X22584780Y-19387787D01*
X22564767Y-19453763D01*
X22467267Y-19636172D01*
X22336054Y-19796054D01*
X22176172Y-19927267D01*
X21993763Y-20024767D01*
X21927787Y-20044780D01*
X21795836Y-20084807D01*
X21718707Y-20092403D01*
X21641580Y-20100000D01*
X21538420Y-20100000D01*
X21461293Y-20092403D01*
X21384164Y-20084807D01*
X21252213Y-20044780D01*
X21186237Y-20024767D01*
X21003828Y-19927267D01*
X20843946Y-19796054D01*
X20712733Y-19636172D01*
X20615233Y-19453763D01*
X20595220Y-19387787D01*
X20555193Y-19255836D01*
X20534920Y-19050000D01*
X20555193Y-18844164D01*
X20615233Y-18646238D01*
X20615233Y-18646237D01*
X20712733Y-18463828D01*
X20843946Y-18303946D01*
X21003828Y-18172733D01*
X21186237Y-18075233D01*
X21252213Y-18055220D01*
X21384164Y-18015193D01*
X21461293Y-18007596D01*
X21538420Y-18000000D01*
X21641580Y-18000000D01*
X21718707Y-18007596D01*
X21718707Y-18007596D01*
G37*
G36*
X29338707Y-18007596D02*
X29415836Y-18015193D01*
X29547787Y-18055220D01*
X29613763Y-18075233D01*
X29796172Y-18172733D01*
X29956054Y-18303946D01*
X30087267Y-18463828D01*
X30184767Y-18646237D01*
X30184767Y-18646238D01*
X30244807Y-18844164D01*
X30265080Y-19050000D01*
X30244807Y-19255836D01*
X30204780Y-19387787D01*
X30184767Y-19453763D01*
X30087267Y-19636172D01*
X29956054Y-19796054D01*
X29796172Y-19927267D01*
X29613763Y-20024767D01*
X29547787Y-20044780D01*
X29415836Y-20084807D01*
X29338707Y-20092403D01*
X29261580Y-20100000D01*
X29158420Y-20100000D01*
X29081293Y-20092403D01*
X29004164Y-20084807D01*
X28872213Y-20044780D01*
X28806237Y-20024767D01*
X28623828Y-19927267D01*
X28463946Y-19796054D01*
X28332733Y-19636172D01*
X28235233Y-19453763D01*
X28215220Y-19387787D01*
X28175193Y-19255836D01*
X28154920Y-19050000D01*
X28175193Y-18844164D01*
X28235233Y-18646238D01*
X28235233Y-18646237D01*
X28332733Y-18463828D01*
X28463946Y-18303946D01*
X28623828Y-18172733D01*
X28806237Y-18075233D01*
X28872213Y-18055220D01*
X29004164Y-18015193D01*
X29081293Y-18007596D01*
X29158420Y-18000000D01*
X29261580Y-18000000D01*
X29338707Y-18007596D01*
X29338707Y-18007596D01*
G37*
G36*
X7400000Y-20100000D02*
X5300000Y-20100000D01*
X5300000Y-18000000D01*
X7400000Y-18000000D01*
X7400000Y-20100000D01*
X7400000Y-20100000D01*
G37*
G36*
X9018707Y-18007596D02*
X9095836Y-18015193D01*
X9227787Y-18055220D01*
X9293763Y-18075233D01*
X9476172Y-18172733D01*
X9636054Y-18303946D01*
X9767267Y-18463828D01*
X9864767Y-18646237D01*
X9864767Y-18646238D01*
X9924807Y-18844164D01*
X9945080Y-19050000D01*
X9924807Y-19255836D01*
X9884780Y-19387787D01*
X9864767Y-19453763D01*
X9767267Y-19636172D01*
X9636054Y-19796054D01*
X9476172Y-19927267D01*
X9293763Y-20024767D01*
X9227787Y-20044780D01*
X9095836Y-20084807D01*
X9018707Y-20092403D01*
X8941580Y-20100000D01*
X8838420Y-20100000D01*
X8761293Y-20092403D01*
X8684164Y-20084807D01*
X8552213Y-20044780D01*
X8486237Y-20024767D01*
X8303828Y-19927267D01*
X8143946Y-19796054D01*
X8012733Y-19636172D01*
X7915233Y-19453763D01*
X7895220Y-19387787D01*
X7855193Y-19255836D01*
X7834920Y-19050000D01*
X7855193Y-18844164D01*
X7915233Y-18646238D01*
X7915233Y-18646237D01*
X8012733Y-18463828D01*
X8143946Y-18303946D01*
X8303828Y-18172733D01*
X8486237Y-18075233D01*
X8552213Y-18055220D01*
X8684164Y-18015193D01*
X8761293Y-18007596D01*
X8838420Y-18000000D01*
X8941580Y-18000000D01*
X9018707Y-18007596D01*
X9018707Y-18007596D01*
G37*
G36*
X11558707Y-18007596D02*
X11635836Y-18015193D01*
X11767787Y-18055220D01*
X11833763Y-18075233D01*
X12016172Y-18172733D01*
X12176054Y-18303946D01*
X12307267Y-18463828D01*
X12404767Y-18646237D01*
X12404767Y-18646238D01*
X12464807Y-18844164D01*
X12485080Y-19050000D01*
X12464807Y-19255836D01*
X12424780Y-19387787D01*
X12404767Y-19453763D01*
X12307267Y-19636172D01*
X12176054Y-19796054D01*
X12016172Y-19927267D01*
X11833763Y-20024767D01*
X11767787Y-20044780D01*
X11635836Y-20084807D01*
X11558707Y-20092403D01*
X11481580Y-20100000D01*
X11378420Y-20100000D01*
X11301293Y-20092403D01*
X11224164Y-20084807D01*
X11092213Y-20044780D01*
X11026237Y-20024767D01*
X10843828Y-19927267D01*
X10683946Y-19796054D01*
X10552733Y-19636172D01*
X10455233Y-19453763D01*
X10435220Y-19387787D01*
X10395193Y-19255836D01*
X10374920Y-19050000D01*
X10395193Y-18844164D01*
X10455233Y-18646238D01*
X10455233Y-18646237D01*
X10552733Y-18463828D01*
X10683946Y-18303946D01*
X10843828Y-18172733D01*
X11026237Y-18075233D01*
X11092213Y-18055220D01*
X11224164Y-18015193D01*
X11301293Y-18007596D01*
X11378420Y-18000000D01*
X11481580Y-18000000D01*
X11558707Y-18007596D01*
X11558707Y-18007596D01*
G37*
G36*
X14098707Y-18007596D02*
X14175836Y-18015193D01*
X14307787Y-18055220D01*
X14373763Y-18075233D01*
X14556172Y-18172733D01*
X14716054Y-18303946D01*
X14847267Y-18463828D01*
X14944767Y-18646237D01*
X14944767Y-18646238D01*
X15004807Y-18844164D01*
X15025080Y-19050000D01*
X15004807Y-19255836D01*
X14964780Y-19387787D01*
X14944767Y-19453763D01*
X14847267Y-19636172D01*
X14716054Y-19796054D01*
X14556172Y-19927267D01*
X14373763Y-20024767D01*
X14307787Y-20044780D01*
X14175836Y-20084807D01*
X14098707Y-20092403D01*
X14021580Y-20100000D01*
X13918420Y-20100000D01*
X13841293Y-20092403D01*
X13764164Y-20084807D01*
X13632213Y-20044780D01*
X13566237Y-20024767D01*
X13383828Y-19927267D01*
X13223946Y-19796054D01*
X13092733Y-19636172D01*
X12995233Y-19453763D01*
X12975220Y-19387787D01*
X12935193Y-19255836D01*
X12914920Y-19050000D01*
X12935193Y-18844164D01*
X12995233Y-18646238D01*
X12995233Y-18646237D01*
X13092733Y-18463828D01*
X13223946Y-18303946D01*
X13383828Y-18172733D01*
X13566237Y-18075233D01*
X13632213Y-18055220D01*
X13764164Y-18015193D01*
X13841293Y-18007596D01*
X13918420Y-18000000D01*
X14021580Y-18000000D01*
X14098707Y-18007596D01*
X14098707Y-18007596D01*
G37*
G36*
X16638707Y-18007596D02*
X16715836Y-18015193D01*
X16847787Y-18055220D01*
X16913763Y-18075233D01*
X17096172Y-18172733D01*
X17256054Y-18303946D01*
X17387267Y-18463828D01*
X17484767Y-18646237D01*
X17484767Y-18646238D01*
X17544807Y-18844164D01*
X17565080Y-19050000D01*
X17544807Y-19255836D01*
X17504780Y-19387787D01*
X17484767Y-19453763D01*
X17387267Y-19636172D01*
X17256054Y-19796054D01*
X17096172Y-19927267D01*
X16913763Y-20024767D01*
X16847787Y-20044780D01*
X16715836Y-20084807D01*
X16638707Y-20092403D01*
X16561580Y-20100000D01*
X16458420Y-20100000D01*
X16381293Y-20092403D01*
X16304164Y-20084807D01*
X16172213Y-20044780D01*
X16106237Y-20024767D01*
X15923828Y-19927267D01*
X15763946Y-19796054D01*
X15632733Y-19636172D01*
X15535233Y-19453763D01*
X15515220Y-19387787D01*
X15475193Y-19255836D01*
X15454920Y-19050000D01*
X15475193Y-18844164D01*
X15535233Y-18646238D01*
X15535233Y-18646237D01*
X15632733Y-18463828D01*
X15763946Y-18303946D01*
X15923828Y-18172733D01*
X16106237Y-18075233D01*
X16172213Y-18055220D01*
X16304164Y-18015193D01*
X16381293Y-18007596D01*
X16458420Y-18000000D01*
X16561580Y-18000000D01*
X16638707Y-18007596D01*
X16638707Y-18007596D01*
G37*
G36*
X19178707Y-18007596D02*
X19255836Y-18015193D01*
X19387787Y-18055220D01*
X19453763Y-18075233D01*
X19636172Y-18172733D01*
X19796054Y-18303946D01*
X19927267Y-18463828D01*
X20024767Y-18646237D01*
X20024767Y-18646238D01*
X20084807Y-18844164D01*
X20105080Y-19050000D01*
X20084807Y-19255836D01*
X20044780Y-19387787D01*
X20024767Y-19453763D01*
X19927267Y-19636172D01*
X19796054Y-19796054D01*
X19636172Y-19927267D01*
X19453763Y-20024767D01*
X19387787Y-20044780D01*
X19255836Y-20084807D01*
X19178707Y-20092403D01*
X19101580Y-20100000D01*
X18998420Y-20100000D01*
X18921293Y-20092403D01*
X18844164Y-20084807D01*
X18712213Y-20044780D01*
X18646237Y-20024767D01*
X18463828Y-19927267D01*
X18303946Y-19796054D01*
X18172733Y-19636172D01*
X18075233Y-19453763D01*
X18055220Y-19387787D01*
X18015193Y-19255836D01*
X17994920Y-19050000D01*
X18015193Y-18844164D01*
X18075233Y-18646238D01*
X18075233Y-18646237D01*
X18172733Y-18463828D01*
X18303946Y-18303946D01*
X18463828Y-18172733D01*
X18646237Y-18075233D01*
X18712213Y-18055220D01*
X18844164Y-18015193D01*
X18921293Y-18007596D01*
X18998420Y-18000000D01*
X19101580Y-18000000D01*
X19178707Y-18007596D01*
X19178707Y-18007596D01*
G37*
G36*
X24258707Y-18007596D02*
X24335836Y-18015193D01*
X24467787Y-18055220D01*
X24533763Y-18075233D01*
X24716172Y-18172733D01*
X24876054Y-18303946D01*
X25007267Y-18463828D01*
X25104767Y-18646237D01*
X25104767Y-18646238D01*
X25164807Y-18844164D01*
X25185080Y-19050000D01*
X25164807Y-19255836D01*
X25124780Y-19387787D01*
X25104767Y-19453763D01*
X25007267Y-19636172D01*
X24876054Y-19796054D01*
X24716172Y-19927267D01*
X24533763Y-20024767D01*
X24467787Y-20044780D01*
X24335836Y-20084807D01*
X24258707Y-20092403D01*
X24181580Y-20100000D01*
X24078420Y-20100000D01*
X24001293Y-20092403D01*
X23924164Y-20084807D01*
X23792213Y-20044780D01*
X23726237Y-20024767D01*
X23543828Y-19927267D01*
X23383946Y-19796054D01*
X23252733Y-19636172D01*
X23155233Y-19453763D01*
X23135220Y-19387787D01*
X23095193Y-19255836D01*
X23074920Y-19050000D01*
X23095193Y-18844164D01*
X23155233Y-18646238D01*
X23155233Y-18646237D01*
X23252733Y-18463828D01*
X23383946Y-18303946D01*
X23543828Y-18172733D01*
X23726237Y-18075233D01*
X23792213Y-18055220D01*
X23924164Y-18015193D01*
X24001293Y-18007596D01*
X24078420Y-18000000D01*
X24181580Y-18000000D01*
X24258707Y-18007596D01*
X24258707Y-18007596D01*
G37*
G36*
X26798707Y-18007596D02*
X26875836Y-18015193D01*
X27007787Y-18055220D01*
X27073763Y-18075233D01*
X27256172Y-18172733D01*
X27416054Y-18303946D01*
X27547267Y-18463828D01*
X27644767Y-18646237D01*
X27644767Y-18646238D01*
X27704807Y-18844164D01*
X27725080Y-19050000D01*
X27704807Y-19255836D01*
X27664780Y-19387787D01*
X27644767Y-19453763D01*
X27547267Y-19636172D01*
X27416054Y-19796054D01*
X27256172Y-19927267D01*
X27073763Y-20024767D01*
X27007787Y-20044780D01*
X26875836Y-20084807D01*
X26798707Y-20092403D01*
X26721580Y-20100000D01*
X26618420Y-20100000D01*
X26541293Y-20092403D01*
X26464164Y-20084807D01*
X26332213Y-20044780D01*
X26266237Y-20024767D01*
X26083828Y-19927267D01*
X25923946Y-19796054D01*
X25792733Y-19636172D01*
X25695233Y-19453763D01*
X25675220Y-19387787D01*
X25635193Y-19255836D01*
X25614920Y-19050000D01*
X25635193Y-18844164D01*
X25695233Y-18646238D01*
X25695233Y-18646237D01*
X25792733Y-18463828D01*
X25923946Y-18303946D01*
X26083828Y-18172733D01*
X26266237Y-18075233D01*
X26332213Y-18055220D01*
X26464164Y-18015193D01*
X26541293Y-18007596D01*
X26618420Y-18000000D01*
X26721580Y-18000000D01*
X26798707Y-18007596D01*
X26798707Y-18007596D01*
G37*
G36*
X49658707Y-18007596D02*
X49735836Y-18015193D01*
X49867787Y-18055220D01*
X49933763Y-18075233D01*
X50116172Y-18172733D01*
X50276054Y-18303946D01*
X50407267Y-18463828D01*
X50504767Y-18646237D01*
X50504767Y-18646238D01*
X50564807Y-18844164D01*
X50585080Y-19050000D01*
X50564807Y-19255836D01*
X50524780Y-19387787D01*
X50504767Y-19453763D01*
X50407267Y-19636172D01*
X50276054Y-19796054D01*
X50116172Y-19927267D01*
X49933763Y-20024767D01*
X49867787Y-20044780D01*
X49735836Y-20084807D01*
X49658707Y-20092403D01*
X49581580Y-20100000D01*
X49478420Y-20100000D01*
X49401293Y-20092403D01*
X49324164Y-20084807D01*
X49192213Y-20044780D01*
X49126237Y-20024767D01*
X48943828Y-19927267D01*
X48783946Y-19796054D01*
X48652733Y-19636172D01*
X48555233Y-19453763D01*
X48535220Y-19387787D01*
X48495193Y-19255836D01*
X48474920Y-19050000D01*
X48495193Y-18844164D01*
X48555233Y-18646238D01*
X48555233Y-18646237D01*
X48652733Y-18463828D01*
X48783946Y-18303946D01*
X48943828Y-18172733D01*
X49126237Y-18075233D01*
X49192213Y-18055220D01*
X49324164Y-18015193D01*
X49401293Y-18007596D01*
X49478420Y-18000000D01*
X49581580Y-18000000D01*
X49658707Y-18007596D01*
X49658707Y-18007596D01*
G37*
G36*
X54738707Y-18007596D02*
X54815836Y-18015193D01*
X54947787Y-18055220D01*
X55013763Y-18075233D01*
X55196172Y-18172733D01*
X55356054Y-18303946D01*
X55487267Y-18463828D01*
X55584767Y-18646237D01*
X55584767Y-18646238D01*
X55644807Y-18844164D01*
X55665080Y-19050000D01*
X55644807Y-19255836D01*
X55604780Y-19387787D01*
X55584767Y-19453763D01*
X55487267Y-19636172D01*
X55356054Y-19796054D01*
X55196172Y-19927267D01*
X55013763Y-20024767D01*
X54947787Y-20044780D01*
X54815836Y-20084807D01*
X54738707Y-20092403D01*
X54661580Y-20100000D01*
X54558420Y-20100000D01*
X54481293Y-20092403D01*
X54404164Y-20084807D01*
X54272213Y-20044780D01*
X54206237Y-20024767D01*
X54023828Y-19927267D01*
X53863946Y-19796054D01*
X53732733Y-19636172D01*
X53635233Y-19453763D01*
X53615220Y-19387787D01*
X53575193Y-19255836D01*
X53554920Y-19050000D01*
X53575193Y-18844164D01*
X53635233Y-18646238D01*
X53635233Y-18646237D01*
X53732733Y-18463828D01*
X53863946Y-18303946D01*
X54023828Y-18172733D01*
X54206237Y-18075233D01*
X54272213Y-18055220D01*
X54404164Y-18015193D01*
X54481293Y-18007596D01*
X54558420Y-18000000D01*
X54661580Y-18000000D01*
X54738707Y-18007596D01*
X54738707Y-18007596D01*
G37*
G36*
X52198707Y-18007596D02*
X52275836Y-18015193D01*
X52407787Y-18055220D01*
X52473763Y-18075233D01*
X52656172Y-18172733D01*
X52816054Y-18303946D01*
X52947267Y-18463828D01*
X53044767Y-18646237D01*
X53044767Y-18646238D01*
X53104807Y-18844164D01*
X53125080Y-19050000D01*
X53104807Y-19255836D01*
X53064780Y-19387787D01*
X53044767Y-19453763D01*
X52947267Y-19636172D01*
X52816054Y-19796054D01*
X52656172Y-19927267D01*
X52473763Y-20024767D01*
X52407787Y-20044780D01*
X52275836Y-20084807D01*
X52198707Y-20092403D01*
X52121580Y-20100000D01*
X52018420Y-20100000D01*
X51941293Y-20092403D01*
X51864164Y-20084807D01*
X51732213Y-20044780D01*
X51666237Y-20024767D01*
X51483828Y-19927267D01*
X51323946Y-19796054D01*
X51192733Y-19636172D01*
X51095233Y-19453763D01*
X51075220Y-19387787D01*
X51035193Y-19255836D01*
X51014920Y-19050000D01*
X51035193Y-18844164D01*
X51095233Y-18646238D01*
X51095233Y-18646237D01*
X51192733Y-18463828D01*
X51323946Y-18303946D01*
X51483828Y-18172733D01*
X51666237Y-18075233D01*
X51732213Y-18055220D01*
X51864164Y-18015193D01*
X51941293Y-18007596D01*
X52018420Y-18000000D01*
X52121580Y-18000000D01*
X52198707Y-18007596D01*
X52198707Y-18007596D01*
G37*
G36*
X31878707Y-18007596D02*
X31955836Y-18015193D01*
X32087787Y-18055220D01*
X32153763Y-18075233D01*
X32336172Y-18172733D01*
X32496054Y-18303946D01*
X32627267Y-18463828D01*
X32724767Y-18646237D01*
X32724767Y-18646238D01*
X32784807Y-18844164D01*
X32805080Y-19050000D01*
X32784807Y-19255836D01*
X32744780Y-19387787D01*
X32724767Y-19453763D01*
X32627267Y-19636172D01*
X32496054Y-19796054D01*
X32336172Y-19927267D01*
X32153763Y-20024767D01*
X32087787Y-20044780D01*
X31955836Y-20084807D01*
X31878707Y-20092403D01*
X31801580Y-20100000D01*
X31698420Y-20100000D01*
X31621293Y-20092403D01*
X31544164Y-20084807D01*
X31412213Y-20044780D01*
X31346237Y-20024767D01*
X31163828Y-19927267D01*
X31003946Y-19796054D01*
X30872733Y-19636172D01*
X30775233Y-19453763D01*
X30755220Y-19387787D01*
X30715193Y-19255836D01*
X30694920Y-19050000D01*
X30715193Y-18844164D01*
X30775233Y-18646238D01*
X30775233Y-18646237D01*
X30872733Y-18463828D01*
X31003946Y-18303946D01*
X31163828Y-18172733D01*
X31346237Y-18075233D01*
X31412213Y-18055220D01*
X31544164Y-18015193D01*
X31621293Y-18007596D01*
X31698420Y-18000000D01*
X31801580Y-18000000D01*
X31878707Y-18007596D01*
X31878707Y-18007596D01*
G37*
G36*
X47118707Y-18007596D02*
X47195836Y-18015193D01*
X47327787Y-18055220D01*
X47393763Y-18075233D01*
X47576172Y-18172733D01*
X47736054Y-18303946D01*
X47867267Y-18463828D01*
X47964767Y-18646237D01*
X47964767Y-18646238D01*
X48024807Y-18844164D01*
X48045080Y-19050000D01*
X48024807Y-19255836D01*
X47984780Y-19387787D01*
X47964767Y-19453763D01*
X47867267Y-19636172D01*
X47736054Y-19796054D01*
X47576172Y-19927267D01*
X47393763Y-20024767D01*
X47327787Y-20044780D01*
X47195836Y-20084807D01*
X47118707Y-20092403D01*
X47041580Y-20100000D01*
X46938420Y-20100000D01*
X46861293Y-20092403D01*
X46784164Y-20084807D01*
X46652213Y-20044780D01*
X46586237Y-20024767D01*
X46403828Y-19927267D01*
X46243946Y-19796054D01*
X46112733Y-19636172D01*
X46015233Y-19453763D01*
X45995220Y-19387787D01*
X45955193Y-19255836D01*
X45934920Y-19050000D01*
X45955193Y-18844164D01*
X46015233Y-18646238D01*
X46015233Y-18646237D01*
X46112733Y-18463828D01*
X46243946Y-18303946D01*
X46403828Y-18172733D01*
X46586237Y-18075233D01*
X46652213Y-18055220D01*
X46784164Y-18015193D01*
X46861293Y-18007596D01*
X46938420Y-18000000D01*
X47041580Y-18000000D01*
X47118707Y-18007596D01*
X47118707Y-18007596D01*
G37*
G36*
X44578707Y-18007596D02*
X44655836Y-18015193D01*
X44787787Y-18055220D01*
X44853763Y-18075233D01*
X45036172Y-18172733D01*
X45196054Y-18303946D01*
X45327267Y-18463828D01*
X45424767Y-18646237D01*
X45424767Y-18646238D01*
X45484807Y-18844164D01*
X45505080Y-19050000D01*
X45484807Y-19255836D01*
X45444780Y-19387787D01*
X45424767Y-19453763D01*
X45327267Y-19636172D01*
X45196054Y-19796054D01*
X45036172Y-19927267D01*
X44853763Y-20024767D01*
X44787787Y-20044780D01*
X44655836Y-20084807D01*
X44578707Y-20092403D01*
X44501580Y-20100000D01*
X44398420Y-20100000D01*
X44321293Y-20092403D01*
X44244164Y-20084807D01*
X44112213Y-20044780D01*
X44046237Y-20024767D01*
X43863828Y-19927267D01*
X43703946Y-19796054D01*
X43572733Y-19636172D01*
X43475233Y-19453763D01*
X43455220Y-19387787D01*
X43415193Y-19255836D01*
X43394920Y-19050000D01*
X43415193Y-18844164D01*
X43475233Y-18646238D01*
X43475233Y-18646237D01*
X43572733Y-18463828D01*
X43703946Y-18303946D01*
X43863828Y-18172733D01*
X44046237Y-18075233D01*
X44112213Y-18055220D01*
X44244164Y-18015193D01*
X44321293Y-18007596D01*
X44398420Y-18000000D01*
X44501580Y-18000000D01*
X44578707Y-18007596D01*
X44578707Y-18007596D01*
G37*
G36*
X42038707Y-18007596D02*
X42115836Y-18015193D01*
X42247787Y-18055220D01*
X42313763Y-18075233D01*
X42496172Y-18172733D01*
X42656054Y-18303946D01*
X42787267Y-18463828D01*
X42884767Y-18646237D01*
X42884767Y-18646238D01*
X42944807Y-18844164D01*
X42965080Y-19050000D01*
X42944807Y-19255836D01*
X42904780Y-19387787D01*
X42884767Y-19453763D01*
X42787267Y-19636172D01*
X42656054Y-19796054D01*
X42496172Y-19927267D01*
X42313763Y-20024767D01*
X42247787Y-20044780D01*
X42115836Y-20084807D01*
X42038707Y-20092403D01*
X41961580Y-20100000D01*
X41858420Y-20100000D01*
X41781293Y-20092403D01*
X41704164Y-20084807D01*
X41572213Y-20044780D01*
X41506237Y-20024767D01*
X41323828Y-19927267D01*
X41163946Y-19796054D01*
X41032733Y-19636172D01*
X40935233Y-19453763D01*
X40915220Y-19387787D01*
X40875193Y-19255836D01*
X40854920Y-19050000D01*
X40875193Y-18844164D01*
X40935233Y-18646238D01*
X40935233Y-18646237D01*
X41032733Y-18463828D01*
X41163946Y-18303946D01*
X41323828Y-18172733D01*
X41506237Y-18075233D01*
X41572213Y-18055220D01*
X41704164Y-18015193D01*
X41781293Y-18007596D01*
X41858420Y-18000000D01*
X41961580Y-18000000D01*
X42038707Y-18007596D01*
X42038707Y-18007596D01*
G37*
G36*
X39498707Y-18007596D02*
X39575836Y-18015193D01*
X39707787Y-18055220D01*
X39773763Y-18075233D01*
X39956172Y-18172733D01*
X40116054Y-18303946D01*
X40247267Y-18463828D01*
X40344767Y-18646237D01*
X40344767Y-18646238D01*
X40404807Y-18844164D01*
X40425080Y-19050000D01*
X40404807Y-19255836D01*
X40364780Y-19387787D01*
X40344767Y-19453763D01*
X40247267Y-19636172D01*
X40116054Y-19796054D01*
X39956172Y-19927267D01*
X39773763Y-20024767D01*
X39707787Y-20044780D01*
X39575836Y-20084807D01*
X39498707Y-20092403D01*
X39421580Y-20100000D01*
X39318420Y-20100000D01*
X39241293Y-20092403D01*
X39164164Y-20084807D01*
X39032213Y-20044780D01*
X38966237Y-20024767D01*
X38783828Y-19927267D01*
X38623946Y-19796054D01*
X38492733Y-19636172D01*
X38395233Y-19453763D01*
X38375220Y-19387787D01*
X38335193Y-19255836D01*
X38314920Y-19050000D01*
X38335193Y-18844164D01*
X38395233Y-18646238D01*
X38395233Y-18646237D01*
X38492733Y-18463828D01*
X38623946Y-18303946D01*
X38783828Y-18172733D01*
X38966237Y-18075233D01*
X39032213Y-18055220D01*
X39164164Y-18015193D01*
X39241293Y-18007596D01*
X39318420Y-18000000D01*
X39421580Y-18000000D01*
X39498707Y-18007596D01*
X39498707Y-18007596D01*
G37*
G36*
X36958707Y-18007596D02*
X37035836Y-18015193D01*
X37167787Y-18055220D01*
X37233763Y-18075233D01*
X37416172Y-18172733D01*
X37576054Y-18303946D01*
X37707267Y-18463828D01*
X37804767Y-18646237D01*
X37804767Y-18646238D01*
X37864807Y-18844164D01*
X37885080Y-19050000D01*
X37864807Y-19255836D01*
X37824780Y-19387787D01*
X37804767Y-19453763D01*
X37707267Y-19636172D01*
X37576054Y-19796054D01*
X37416172Y-19927267D01*
X37233763Y-20024767D01*
X37167787Y-20044780D01*
X37035836Y-20084807D01*
X36958707Y-20092403D01*
X36881580Y-20100000D01*
X36778420Y-20100000D01*
X36701293Y-20092403D01*
X36624164Y-20084807D01*
X36492213Y-20044780D01*
X36426237Y-20024767D01*
X36243828Y-19927267D01*
X36083946Y-19796054D01*
X35952733Y-19636172D01*
X35855233Y-19453763D01*
X35835220Y-19387787D01*
X35795193Y-19255836D01*
X35774920Y-19050000D01*
X35795193Y-18844164D01*
X35855233Y-18646238D01*
X35855233Y-18646237D01*
X35952733Y-18463828D01*
X36083946Y-18303946D01*
X36243828Y-18172733D01*
X36426237Y-18075233D01*
X36492213Y-18055220D01*
X36624164Y-18015193D01*
X36701293Y-18007596D01*
X36778420Y-18000000D01*
X36881580Y-18000000D01*
X36958707Y-18007596D01*
X36958707Y-18007596D01*
G37*
G36*
X34418707Y-18007596D02*
X34495836Y-18015193D01*
X34627787Y-18055220D01*
X34693763Y-18075233D01*
X34876172Y-18172733D01*
X35036054Y-18303946D01*
X35167267Y-18463828D01*
X35264767Y-18646237D01*
X35264767Y-18646238D01*
X35324807Y-18844164D01*
X35345080Y-19050000D01*
X35324807Y-19255836D01*
X35284780Y-19387787D01*
X35264767Y-19453763D01*
X35167267Y-19636172D01*
X35036054Y-19796054D01*
X34876172Y-19927267D01*
X34693763Y-20024767D01*
X34627787Y-20044780D01*
X34495836Y-20084807D01*
X34418707Y-20092403D01*
X34341580Y-20100000D01*
X34238420Y-20100000D01*
X34161293Y-20092403D01*
X34084164Y-20084807D01*
X33952213Y-20044780D01*
X33886237Y-20024767D01*
X33703828Y-19927267D01*
X33543946Y-19796054D01*
X33412733Y-19636172D01*
X33315233Y-19453763D01*
X33295220Y-19387787D01*
X33255193Y-19255836D01*
X33234920Y-19050000D01*
X33255193Y-18844164D01*
X33315233Y-18646238D01*
X33315233Y-18646237D01*
X33412733Y-18463828D01*
X33543946Y-18303946D01*
X33703828Y-18172733D01*
X33886237Y-18075233D01*
X33952213Y-18055220D01*
X34084164Y-18015193D01*
X34161293Y-18007596D01*
X34238420Y-18000000D01*
X34341580Y-18000000D01*
X34418707Y-18007596D01*
X34418707Y-18007596D01*
G37*
G36*
X55045149Y-15153717D02*
X55084327Y-15157576D01*
X55159727Y-15180448D01*
X55235129Y-15203321D01*
X55374108Y-15277608D01*
X55495922Y-15377578D01*
X55595892Y-15499392D01*
X55670179Y-15638371D01*
X55715924Y-15789174D01*
X55731370Y-15946000D01*
X55715924Y-16102826D01*
X55670179Y-16253629D01*
X55595892Y-16392608D01*
X55495922Y-16514422D01*
X55374108Y-16614392D01*
X55235129Y-16688679D01*
X55159728Y-16711551D01*
X55084327Y-16734424D01*
X55045149Y-16738283D01*
X54966795Y-16746000D01*
X54188205Y-16746000D01*
X54109851Y-16738283D01*
X54070673Y-16734424D01*
X53995272Y-16711551D01*
X53919871Y-16688679D01*
X53780892Y-16614392D01*
X53659078Y-16514422D01*
X53559108Y-16392608D01*
X53484821Y-16253629D01*
X53439076Y-16102826D01*
X53423630Y-15946000D01*
X53439076Y-15789174D01*
X53484821Y-15638371D01*
X53559108Y-15499392D01*
X53659078Y-15377578D01*
X53780892Y-15277608D01*
X53919871Y-15203321D01*
X53995273Y-15180448D01*
X54070673Y-15157576D01*
X54109851Y-15153717D01*
X54188205Y-15146000D01*
X54966795Y-15146000D01*
X55045149Y-15153717D01*
X55045149Y-15153717D01*
G37*
G36*
X52147311Y-14056546D02*
X52147314Y-14056547D01*
X52147313Y-14056547D01*
X52315652Y-14126275D01*
X52315653Y-14126276D01*
X52467156Y-14227507D01*
X52595993Y-14356344D01*
X52595995Y-14356347D01*
X52697225Y-14507848D01*
X52717241Y-14556171D01*
X52766954Y-14676189D01*
X52802500Y-14854894D01*
X52802500Y-15037106D01*
X52766954Y-15215811D01*
X52766953Y-15215813D01*
X52697225Y-15384152D01*
X52597360Y-15533611D01*
X52595993Y-15535656D01*
X52467156Y-15664493D01*
X52467153Y-15664495D01*
X52315652Y-15765725D01*
X52185448Y-15819657D01*
X52147311Y-15835454D01*
X51968606Y-15871000D01*
X51786394Y-15871000D01*
X51607689Y-15835454D01*
X51569552Y-15819657D01*
X51439348Y-15765725D01*
X51287847Y-15664495D01*
X51287844Y-15664493D01*
X51159007Y-15535656D01*
X51157640Y-15533611D01*
X51057775Y-15384152D01*
X50988047Y-15215813D01*
X50988046Y-15215811D01*
X50952500Y-15037106D01*
X50952500Y-14854894D01*
X50988046Y-14676189D01*
X51037759Y-14556171D01*
X51057775Y-14507848D01*
X51159005Y-14356347D01*
X51159007Y-14356344D01*
X51287844Y-14227507D01*
X51439347Y-14126276D01*
X51439348Y-14126275D01*
X51607687Y-14056547D01*
X51607686Y-14056547D01*
X51607689Y-14056546D01*
X51786394Y-14021000D01*
X51968606Y-14021000D01*
X52147311Y-14056546D01*
X52147311Y-14056546D01*
G37*
G36*
X3938707Y-12927597D02*
X4015836Y-12935193D01*
X4147787Y-12975220D01*
X4213763Y-12995233D01*
X4396172Y-13092733D01*
X4556054Y-13223946D01*
X4687267Y-13383828D01*
X4784767Y-13566237D01*
X4784767Y-13566238D01*
X4844807Y-13764164D01*
X4865080Y-13970000D01*
X4844807Y-14175836D01*
X4804780Y-14307787D01*
X4784767Y-14373763D01*
X4687267Y-14556172D01*
X4556054Y-14716054D01*
X4396172Y-14847267D01*
X4213763Y-14944767D01*
X4147787Y-14964780D01*
X4015836Y-15004807D01*
X3938707Y-15012404D01*
X3861580Y-15020000D01*
X3758420Y-15020000D01*
X3681293Y-15012404D01*
X3604164Y-15004807D01*
X3472213Y-14964780D01*
X3406237Y-14944767D01*
X3223828Y-14847267D01*
X3063946Y-14716054D01*
X2932733Y-14556172D01*
X2835233Y-14373763D01*
X2815220Y-14307787D01*
X2775193Y-14175836D01*
X2754920Y-13970000D01*
X2775193Y-13764164D01*
X2835233Y-13566238D01*
X2835233Y-13566237D01*
X2932733Y-13383828D01*
X3063946Y-13223946D01*
X3223828Y-13092733D01*
X3406237Y-12995233D01*
X3472213Y-12975220D01*
X3604164Y-12935193D01*
X3681293Y-12927597D01*
X3758420Y-12920000D01*
X3861580Y-12920000D01*
X3938707Y-12927597D01*
X3938707Y-12927597D01*
G37*
G36*
X15687451Y-12140127D02*
X15825105Y-12167508D01*
X15997994Y-12239121D01*
X16153590Y-12343087D01*
X16285913Y-12475410D01*
X16389879Y-12631006D01*
X16461492Y-12803895D01*
X16498000Y-12987433D01*
X16498000Y-13174567D01*
X16461492Y-13358105D01*
X16389879Y-13530994D01*
X16285913Y-13686590D01*
X16153590Y-13818913D01*
X15997994Y-13922879D01*
X15825105Y-13994492D01*
X15691840Y-14021000D01*
X15641568Y-14031000D01*
X15454432Y-14031000D01*
X15404160Y-14021000D01*
X15270895Y-13994492D01*
X15098006Y-13922879D01*
X14942410Y-13818913D01*
X14810087Y-13686590D01*
X14706121Y-13530994D01*
X14634508Y-13358105D01*
X14598000Y-13174567D01*
X14598000Y-12987433D01*
X14634508Y-12803895D01*
X14706121Y-12631006D01*
X14810087Y-12475410D01*
X14942410Y-12343087D01*
X15098006Y-12239121D01*
X15270895Y-12167508D01*
X15408549Y-12140127D01*
X15454432Y-12131000D01*
X15641568Y-12131000D01*
X15687451Y-12140127D01*
X15687451Y-12140127D01*
G37*
G36*
X10807451Y-12140127D02*
X10945105Y-12167508D01*
X11117994Y-12239121D01*
X11273590Y-12343087D01*
X11405913Y-12475410D01*
X11509879Y-12631006D01*
X11581492Y-12803895D01*
X11618000Y-12987433D01*
X11618000Y-13174567D01*
X11581492Y-13358105D01*
X11509879Y-13530994D01*
X11405913Y-13686590D01*
X11273590Y-13818913D01*
X11117994Y-13922879D01*
X10945105Y-13994492D01*
X10811840Y-14021000D01*
X10761568Y-14031000D01*
X10574432Y-14031000D01*
X10524160Y-14021000D01*
X10390895Y-13994492D01*
X10218006Y-13922879D01*
X10062410Y-13818913D01*
X9930087Y-13686590D01*
X9826121Y-13530994D01*
X9754508Y-13358105D01*
X9718000Y-13174567D01*
X9718000Y-12987433D01*
X9754508Y-12803895D01*
X9826121Y-12631006D01*
X9930087Y-12475410D01*
X10062410Y-12343087D01*
X10218006Y-12239121D01*
X10390895Y-12167508D01*
X10528549Y-12140127D01*
X10574432Y-12131000D01*
X10761568Y-12131000D01*
X10807451Y-12140127D01*
X10807451Y-12140127D01*
G37*
G36*
X3938707Y-10387596D02*
X4015836Y-10395193D01*
X4147787Y-10435220D01*
X4213763Y-10455233D01*
X4396172Y-10552733D01*
X4556054Y-10683946D01*
X4687267Y-10843828D01*
X4784767Y-11026237D01*
X4784767Y-11026238D01*
X4844807Y-11224164D01*
X4865080Y-11430000D01*
X4844807Y-11635836D01*
X4804780Y-11767787D01*
X4784767Y-11833763D01*
X4687267Y-12016172D01*
X4556054Y-12176054D01*
X4396172Y-12307267D01*
X4213763Y-12404767D01*
X4147787Y-12424780D01*
X4015836Y-12464807D01*
X3938707Y-12472404D01*
X3861580Y-12480000D01*
X3758420Y-12480000D01*
X3681293Y-12472404D01*
X3604164Y-12464807D01*
X3472213Y-12424780D01*
X3406237Y-12404767D01*
X3223828Y-12307267D01*
X3063946Y-12176054D01*
X2932733Y-12016172D01*
X2835233Y-11833763D01*
X2815220Y-11767787D01*
X2775193Y-11635836D01*
X2754920Y-11430000D01*
X2775193Y-11224164D01*
X2835233Y-11026238D01*
X2835233Y-11026237D01*
X2932733Y-10843828D01*
X3063946Y-10683946D01*
X3223828Y-10552733D01*
X3406237Y-10455233D01*
X3472213Y-10435220D01*
X3604164Y-10395193D01*
X3681293Y-10387596D01*
X3758420Y-10380000D01*
X3861580Y-10380000D01*
X3938707Y-10387596D01*
X3938707Y-10387596D01*
G37*
G36*
X52147311Y-9056546D02*
X52147314Y-9056547D01*
X52147313Y-9056547D01*
X52315652Y-9126275D01*
X52315653Y-9126276D01*
X52467156Y-9227507D01*
X52595993Y-9356344D01*
X52595995Y-9356347D01*
X52697225Y-9507848D01*
X52741357Y-9614392D01*
X52766954Y-9676189D01*
X52802500Y-9854894D01*
X52802500Y-10037106D01*
X52766954Y-10215811D01*
X52766953Y-10215813D01*
X52697225Y-10384152D01*
X52649730Y-10455233D01*
X52595993Y-10535656D01*
X52467156Y-10664493D01*
X52467153Y-10664495D01*
X52315652Y-10765725D01*
X52185448Y-10819657D01*
X52147311Y-10835454D01*
X51968606Y-10871000D01*
X51786394Y-10871000D01*
X51607689Y-10835454D01*
X51569552Y-10819657D01*
X51439348Y-10765725D01*
X51287847Y-10664495D01*
X51287844Y-10664493D01*
X51159007Y-10535656D01*
X51105270Y-10455233D01*
X51057775Y-10384152D01*
X50988047Y-10215813D01*
X50988046Y-10215811D01*
X50952500Y-10037106D01*
X50952500Y-9854894D01*
X50988046Y-9676189D01*
X51013643Y-9614392D01*
X51057775Y-9507848D01*
X51159005Y-9356347D01*
X51159007Y-9356344D01*
X51287844Y-9227507D01*
X51439347Y-9126276D01*
X51439348Y-9126275D01*
X51607687Y-9056547D01*
X51607686Y-9056547D01*
X51607689Y-9056546D01*
X51786394Y-9021000D01*
X51968606Y-9021000D01*
X52147311Y-9056546D01*
X52147311Y-9056546D01*
G37*
G36*
X3938707Y-7847596D02*
X4015836Y-7855193D01*
X4147787Y-7895220D01*
X4213763Y-7915233D01*
X4396172Y-8012733D01*
X4556054Y-8143946D01*
X4687267Y-8303828D01*
X4784767Y-8486237D01*
X4784767Y-8486238D01*
X4844807Y-8684164D01*
X4865080Y-8890000D01*
X4844807Y-9095836D01*
X4842686Y-9102827D01*
X4784767Y-9293763D01*
X4687267Y-9476172D01*
X4556054Y-9636054D01*
X4396172Y-9767267D01*
X4213763Y-9864767D01*
X4147787Y-9884780D01*
X4015836Y-9924807D01*
X3938707Y-9932403D01*
X3861580Y-9940000D01*
X3758420Y-9940000D01*
X3681293Y-9932404D01*
X3604164Y-9924807D01*
X3472213Y-9884780D01*
X3406237Y-9864767D01*
X3223828Y-9767267D01*
X3063946Y-9636054D01*
X2932733Y-9476172D01*
X2835233Y-9293763D01*
X2777314Y-9102827D01*
X2775193Y-9095836D01*
X2754920Y-8890000D01*
X2775193Y-8684164D01*
X2835233Y-8486238D01*
X2835233Y-8486237D01*
X2932733Y-8303828D01*
X3063946Y-8143946D01*
X3223828Y-8012733D01*
X3406237Y-7915233D01*
X3472213Y-7895220D01*
X3604164Y-7855193D01*
X3681293Y-7847596D01*
X3758420Y-7840000D01*
X3861580Y-7840000D01*
X3938707Y-7847596D01*
X3938707Y-7847596D01*
G37*
G36*
X55045149Y-8153717D02*
X55084327Y-8157576D01*
X55159727Y-8180448D01*
X55235129Y-8203321D01*
X55374108Y-8277608D01*
X55495922Y-8377578D01*
X55595892Y-8499392D01*
X55670179Y-8638371D01*
X55693052Y-8713773D01*
X55715924Y-8789173D01*
X55731370Y-8946000D01*
X55716613Y-9095836D01*
X55715924Y-9102826D01*
X55670179Y-9253629D01*
X55595892Y-9392608D01*
X55495922Y-9514422D01*
X55374108Y-9614392D01*
X55235129Y-9688679D01*
X55159728Y-9711551D01*
X55084327Y-9734424D01*
X55045149Y-9738283D01*
X54966795Y-9746000D01*
X54188205Y-9746000D01*
X54109851Y-9738283D01*
X54070673Y-9734424D01*
X53995272Y-9711551D01*
X53919871Y-9688679D01*
X53780892Y-9614392D01*
X53659078Y-9514422D01*
X53559108Y-9392608D01*
X53484821Y-9253629D01*
X53439076Y-9102826D01*
X53438388Y-9095836D01*
X53423630Y-8946000D01*
X53439076Y-8789173D01*
X53461948Y-8713773D01*
X53484821Y-8638371D01*
X53559108Y-8499392D01*
X53659078Y-8377578D01*
X53780892Y-8277608D01*
X53919871Y-8203321D01*
X53995273Y-8180448D01*
X54070673Y-8157576D01*
X54109851Y-8153717D01*
X54188205Y-8146000D01*
X54966795Y-8146000D01*
X55045149Y-8153717D01*
X55045149Y-8153717D01*
G37*
G36*
X15952183Y-6370400D02*
X16079574Y-6423168D01*
X16194225Y-6499775D01*
X16291725Y-6597275D01*
X16368332Y-6711926D01*
X16421100Y-6839317D01*
X16448000Y-6974555D01*
X16448000Y-7112445D01*
X16421100Y-7247683D01*
X16368332Y-7375074D01*
X16291725Y-7489725D01*
X16194225Y-7587225D01*
X16079574Y-7663832D01*
X15952183Y-7716600D01*
X15816945Y-7743500D01*
X15679055Y-7743500D01*
X15543817Y-7716600D01*
X15416426Y-7663832D01*
X15301775Y-7587225D01*
X15204275Y-7489725D01*
X15127668Y-7375074D01*
X15074900Y-7247683D01*
X15048000Y-7112445D01*
X15048000Y-6974555D01*
X15074900Y-6839317D01*
X15127668Y-6711926D01*
X15204275Y-6597275D01*
X15301775Y-6499775D01*
X15416426Y-6423168D01*
X15543817Y-6370400D01*
X15679055Y-6343500D01*
X15816945Y-6343500D01*
X15952183Y-6370400D01*
X15952183Y-6370400D01*
G37*
G36*
X4860000Y-7400000D02*
X2760000Y-7400000D01*
X2760000Y-5300000D01*
X4860000Y-5300000D01*
X4860000Y-7400000D01*
X4860000Y-7400000D01*
G37*
G36*
X15952183Y-4470400D02*
X16079574Y-4523168D01*
X16194225Y-4599775D01*
X16291725Y-4697275D01*
X16368332Y-4811926D01*
X16421100Y-4939317D01*
X16448000Y-5074555D01*
X16448000Y-5212445D01*
X16421100Y-5347683D01*
X16368332Y-5475074D01*
X16291725Y-5589725D01*
X16194225Y-5687225D01*
X16079574Y-5763832D01*
X15952183Y-5816600D01*
X15816945Y-5843500D01*
X15679055Y-5843500D01*
X15543817Y-5816600D01*
X15416426Y-5763832D01*
X15301775Y-5687225D01*
X15204275Y-5589725D01*
X15127668Y-5475074D01*
X15074900Y-5347683D01*
X15048000Y-5212445D01*
X15048000Y-5074555D01*
X15074900Y-4939317D01*
X15127668Y-4811926D01*
X15204275Y-4697275D01*
X15301775Y-4599775D01*
X15416426Y-4523168D01*
X15543817Y-4470400D01*
X15679055Y-4443500D01*
X15816945Y-4443500D01*
X15952183Y-4470400D01*
X15952183Y-4470400D01*
G37*
G36*
X7400000Y-2320000D02*
X5300000Y-2320000D01*
X5300000Y-220000D01*
X7400000Y-220000D01*
X7400000Y-2320000D01*
X7400000Y-2320000D01*
G37*
G36*
X11558707Y-227597D02*
X11635836Y-235193D01*
X11767787Y-275220D01*
X11833763Y-295233D01*
X12016172Y-392733D01*
X12176054Y-523946D01*
X12307267Y-683828D01*
X12404767Y-866237D01*
X12404767Y-866238D01*
X12464807Y-1064164D01*
X12485080Y-1270000D01*
X12464807Y-1475836D01*
X12424780Y-1607787D01*
X12404767Y-1673763D01*
X12307267Y-1856172D01*
X12176054Y-2016054D01*
X12016172Y-2147267D01*
X11833763Y-2244767D01*
X11767787Y-2264780D01*
X11635836Y-2304807D01*
X11558707Y-2312403D01*
X11481580Y-2320000D01*
X11378420Y-2320000D01*
X11301293Y-2312403D01*
X11224164Y-2304807D01*
X11092213Y-2264780D01*
X11026237Y-2244767D01*
X10843828Y-2147267D01*
X10683946Y-2016054D01*
X10552733Y-1856172D01*
X10455233Y-1673763D01*
X10435220Y-1607787D01*
X10395193Y-1475836D01*
X10374920Y-1270000D01*
X10395193Y-1064164D01*
X10455233Y-866238D01*
X10455233Y-866237D01*
X10552733Y-683828D01*
X10683946Y-523946D01*
X10843828Y-392733D01*
X11026237Y-295233D01*
X11092213Y-275220D01*
X11224164Y-235193D01*
X11301293Y-227597D01*
X11378420Y-220000D01*
X11481580Y-220000D01*
X11558707Y-227597D01*
X11558707Y-227597D01*
G37*
G36*
X14098707Y-227597D02*
X14175836Y-235193D01*
X14307787Y-275220D01*
X14373763Y-295233D01*
X14556172Y-392733D01*
X14716054Y-523946D01*
X14847267Y-683828D01*
X14944767Y-866237D01*
X14944767Y-866238D01*
X15004807Y-1064164D01*
X15025080Y-1270000D01*
X15004807Y-1475836D01*
X14964780Y-1607787D01*
X14944767Y-1673763D01*
X14847267Y-1856172D01*
X14716054Y-2016054D01*
X14556172Y-2147267D01*
X14373763Y-2244767D01*
X14307787Y-2264780D01*
X14175836Y-2304807D01*
X14098707Y-2312403D01*
X14021580Y-2320000D01*
X13918420Y-2320000D01*
X13841293Y-2312403D01*
X13764164Y-2304807D01*
X13632213Y-2264780D01*
X13566237Y-2244767D01*
X13383828Y-2147267D01*
X13223946Y-2016054D01*
X13092733Y-1856172D01*
X12995233Y-1673763D01*
X12975220Y-1607787D01*
X12935193Y-1475836D01*
X12914920Y-1270000D01*
X12935193Y-1064164D01*
X12995233Y-866238D01*
X12995233Y-866237D01*
X13092733Y-683828D01*
X13223946Y-523946D01*
X13383828Y-392733D01*
X13566237Y-295233D01*
X13632213Y-275220D01*
X13764164Y-235193D01*
X13841293Y-227597D01*
X13918420Y-220000D01*
X14021580Y-220000D01*
X14098707Y-227597D01*
X14098707Y-227597D01*
G37*
G36*
X16638707Y-227597D02*
X16715836Y-235193D01*
X16847787Y-275220D01*
X16913763Y-295233D01*
X17096172Y-392733D01*
X17256054Y-523946D01*
X17387267Y-683828D01*
X17484767Y-866237D01*
X17484767Y-866238D01*
X17544807Y-1064164D01*
X17565080Y-1270000D01*
X17544807Y-1475836D01*
X17504780Y-1607787D01*
X17484767Y-1673763D01*
X17387267Y-1856172D01*
X17256054Y-2016054D01*
X17096172Y-2147267D01*
X16913763Y-2244767D01*
X16847787Y-2264780D01*
X16715836Y-2304807D01*
X16638707Y-2312403D01*
X16561580Y-2320000D01*
X16458420Y-2320000D01*
X16381293Y-2312403D01*
X16304164Y-2304807D01*
X16172213Y-2264780D01*
X16106237Y-2244767D01*
X15923828Y-2147267D01*
X15763946Y-2016054D01*
X15632733Y-1856172D01*
X15535233Y-1673763D01*
X15515220Y-1607787D01*
X15475193Y-1475836D01*
X15454920Y-1270000D01*
X15475193Y-1064164D01*
X15535233Y-866238D01*
X15535233Y-866237D01*
X15632733Y-683828D01*
X15763946Y-523946D01*
X15923828Y-392733D01*
X16106237Y-295233D01*
X16172213Y-275220D01*
X16304164Y-235193D01*
X16381293Y-227597D01*
X16458420Y-220000D01*
X16561580Y-220000D01*
X16638707Y-227597D01*
X16638707Y-227597D01*
G37*
G36*
X21718707Y-227597D02*
X21795836Y-235193D01*
X21927787Y-275220D01*
X21993763Y-295233D01*
X22176172Y-392733D01*
X22336054Y-523946D01*
X22467267Y-683828D01*
X22564767Y-866237D01*
X22564767Y-866238D01*
X22624807Y-1064164D01*
X22645080Y-1270000D01*
X22624807Y-1475836D01*
X22584780Y-1607787D01*
X22564767Y-1673763D01*
X22467267Y-1856172D01*
X22336054Y-2016054D01*
X22176172Y-2147267D01*
X21993763Y-2244767D01*
X21927787Y-2264780D01*
X21795836Y-2304807D01*
X21718707Y-2312403D01*
X21641580Y-2320000D01*
X21538420Y-2320000D01*
X21461293Y-2312403D01*
X21384164Y-2304807D01*
X21252213Y-2264780D01*
X21186237Y-2244767D01*
X21003828Y-2147267D01*
X20843946Y-2016054D01*
X20712733Y-1856172D01*
X20615233Y-1673763D01*
X20595220Y-1607787D01*
X20555193Y-1475836D01*
X20534920Y-1270000D01*
X20555193Y-1064164D01*
X20615233Y-866238D01*
X20615233Y-866237D01*
X20712733Y-683828D01*
X20843946Y-523946D01*
X21003828Y-392733D01*
X21186237Y-295233D01*
X21252213Y-275220D01*
X21384164Y-235193D01*
X21461293Y-227597D01*
X21538420Y-220000D01*
X21641580Y-220000D01*
X21718707Y-227597D01*
X21718707Y-227597D01*
G37*
G36*
X24258707Y-227597D02*
X24335836Y-235193D01*
X24467787Y-275220D01*
X24533763Y-295233D01*
X24716172Y-392733D01*
X24876054Y-523946D01*
X25007267Y-683828D01*
X25104767Y-866237D01*
X25104767Y-866238D01*
X25164807Y-1064164D01*
X25185080Y-1270000D01*
X25164807Y-1475836D01*
X25124780Y-1607787D01*
X25104767Y-1673763D01*
X25007267Y-1856172D01*
X24876054Y-2016054D01*
X24716172Y-2147267D01*
X24533763Y-2244767D01*
X24467787Y-2264780D01*
X24335836Y-2304807D01*
X24258707Y-2312403D01*
X24181580Y-2320000D01*
X24078420Y-2320000D01*
X24001293Y-2312403D01*
X23924164Y-2304807D01*
X23792213Y-2264780D01*
X23726237Y-2244767D01*
X23543828Y-2147267D01*
X23383946Y-2016054D01*
X23252733Y-1856172D01*
X23155233Y-1673763D01*
X23135220Y-1607787D01*
X23095193Y-1475836D01*
X23074920Y-1270000D01*
X23095193Y-1064164D01*
X23155233Y-866238D01*
X23155233Y-866237D01*
X23252733Y-683828D01*
X23383946Y-523946D01*
X23543828Y-392733D01*
X23726237Y-295233D01*
X23792213Y-275220D01*
X23924164Y-235193D01*
X24001293Y-227597D01*
X24078420Y-220000D01*
X24181580Y-220000D01*
X24258707Y-227597D01*
X24258707Y-227597D01*
G37*
G36*
X26798707Y-227597D02*
X26875836Y-235193D01*
X27007787Y-275220D01*
X27073763Y-295233D01*
X27256172Y-392733D01*
X27416054Y-523946D01*
X27547267Y-683828D01*
X27644767Y-866237D01*
X27644767Y-866238D01*
X27704807Y-1064164D01*
X27725080Y-1270000D01*
X27704807Y-1475836D01*
X27664780Y-1607787D01*
X27644767Y-1673763D01*
X27547267Y-1856172D01*
X27416054Y-2016054D01*
X27256172Y-2147267D01*
X27073763Y-2244767D01*
X27007787Y-2264780D01*
X26875836Y-2304807D01*
X26798707Y-2312403D01*
X26721580Y-2320000D01*
X26618420Y-2320000D01*
X26541293Y-2312403D01*
X26464164Y-2304807D01*
X26332213Y-2264780D01*
X26266237Y-2244767D01*
X26083828Y-2147267D01*
X25923946Y-2016054D01*
X25792733Y-1856172D01*
X25695233Y-1673763D01*
X25675220Y-1607787D01*
X25635193Y-1475836D01*
X25614920Y-1270000D01*
X25635193Y-1064164D01*
X25695233Y-866238D01*
X25695233Y-866237D01*
X25792733Y-683828D01*
X25923946Y-523946D01*
X26083828Y-392733D01*
X26266237Y-295233D01*
X26332213Y-275220D01*
X26464164Y-235193D01*
X26541293Y-227597D01*
X26618420Y-220000D01*
X26721580Y-220000D01*
X26798707Y-227597D01*
X26798707Y-227597D01*
G37*
G36*
X29338707Y-227597D02*
X29415836Y-235193D01*
X29547787Y-275220D01*
X29613763Y-295233D01*
X29796172Y-392733D01*
X29956054Y-523946D01*
X30087267Y-683828D01*
X30184767Y-866237D01*
X30184767Y-866238D01*
X30244807Y-1064164D01*
X30265080Y-1270000D01*
X30244807Y-1475836D01*
X30204780Y-1607787D01*
X30184767Y-1673763D01*
X30087267Y-1856172D01*
X29956054Y-2016054D01*
X29796172Y-2147267D01*
X29613763Y-2244767D01*
X29547787Y-2264780D01*
X29415836Y-2304807D01*
X29338707Y-2312403D01*
X29261580Y-2320000D01*
X29158420Y-2320000D01*
X29081293Y-2312403D01*
X29004164Y-2304807D01*
X28872213Y-2264780D01*
X28806237Y-2244767D01*
X28623828Y-2147267D01*
X28463946Y-2016054D01*
X28332733Y-1856172D01*
X28235233Y-1673763D01*
X28215220Y-1607787D01*
X28175193Y-1475836D01*
X28154920Y-1270000D01*
X28175193Y-1064164D01*
X28235233Y-866238D01*
X28235233Y-866237D01*
X28332733Y-683828D01*
X28463946Y-523946D01*
X28623828Y-392733D01*
X28806237Y-295233D01*
X28872213Y-275220D01*
X29004164Y-235193D01*
X29081293Y-227597D01*
X29158420Y-220000D01*
X29261580Y-220000D01*
X29338707Y-227597D01*
X29338707Y-227597D01*
G37*
G36*
X54738707Y-227597D02*
X54815836Y-235193D01*
X54947787Y-275220D01*
X55013763Y-295233D01*
X55196172Y-392733D01*
X55356054Y-523946D01*
X55487267Y-683828D01*
X55584767Y-866237D01*
X55584767Y-866238D01*
X55644807Y-1064164D01*
X55665080Y-1270000D01*
X55644807Y-1475836D01*
X55604780Y-1607787D01*
X55584767Y-1673763D01*
X55487267Y-1856172D01*
X55356054Y-2016054D01*
X55196172Y-2147267D01*
X55013763Y-2244767D01*
X54947787Y-2264780D01*
X54815836Y-2304807D01*
X54738707Y-2312403D01*
X54661580Y-2320000D01*
X54558420Y-2320000D01*
X54481293Y-2312403D01*
X54404164Y-2304807D01*
X54272213Y-2264780D01*
X54206237Y-2244767D01*
X54023828Y-2147267D01*
X53863946Y-2016054D01*
X53732733Y-1856172D01*
X53635233Y-1673763D01*
X53615220Y-1607787D01*
X53575193Y-1475836D01*
X53554920Y-1270000D01*
X53575193Y-1064164D01*
X53635233Y-866238D01*
X53635233Y-866237D01*
X53732733Y-683828D01*
X53863946Y-523946D01*
X54023828Y-392733D01*
X54206237Y-295233D01*
X54272213Y-275220D01*
X54404164Y-235193D01*
X54481293Y-227597D01*
X54558420Y-220000D01*
X54661580Y-220000D01*
X54738707Y-227597D01*
X54738707Y-227597D01*
G37*
G36*
X34418707Y-227597D02*
X34495836Y-235193D01*
X34627787Y-275220D01*
X34693763Y-295233D01*
X34876172Y-392733D01*
X35036054Y-523946D01*
X35167267Y-683828D01*
X35264767Y-866237D01*
X35264767Y-866238D01*
X35324807Y-1064164D01*
X35345080Y-1270000D01*
X35324807Y-1475836D01*
X35284780Y-1607787D01*
X35264767Y-1673763D01*
X35167267Y-1856172D01*
X35036054Y-2016054D01*
X34876172Y-2147267D01*
X34693763Y-2244767D01*
X34627787Y-2264780D01*
X34495836Y-2304807D01*
X34418707Y-2312403D01*
X34341580Y-2320000D01*
X34238420Y-2320000D01*
X34161293Y-2312403D01*
X34084164Y-2304807D01*
X33952213Y-2264780D01*
X33886237Y-2244767D01*
X33703828Y-2147267D01*
X33543946Y-2016054D01*
X33412733Y-1856172D01*
X33315233Y-1673763D01*
X33295220Y-1607787D01*
X33255193Y-1475836D01*
X33234920Y-1270000D01*
X33255193Y-1064164D01*
X33315233Y-866238D01*
X33315233Y-866237D01*
X33412733Y-683828D01*
X33543946Y-523946D01*
X33703828Y-392733D01*
X33886237Y-295233D01*
X33952213Y-275220D01*
X34084164Y-235193D01*
X34161293Y-227597D01*
X34238420Y-220000D01*
X34341580Y-220000D01*
X34418707Y-227597D01*
X34418707Y-227597D01*
G37*
G36*
X36958707Y-227597D02*
X37035836Y-235193D01*
X37167787Y-275220D01*
X37233763Y-295233D01*
X37416172Y-392733D01*
X37576054Y-523946D01*
X37707267Y-683828D01*
X37804767Y-866237D01*
X37804767Y-866238D01*
X37864807Y-1064164D01*
X37885080Y-1270000D01*
X37864807Y-1475836D01*
X37824780Y-1607787D01*
X37804767Y-1673763D01*
X37707267Y-1856172D01*
X37576054Y-2016054D01*
X37416172Y-2147267D01*
X37233763Y-2244767D01*
X37167787Y-2264780D01*
X37035836Y-2304807D01*
X36958707Y-2312403D01*
X36881580Y-2320000D01*
X36778420Y-2320000D01*
X36701293Y-2312403D01*
X36624164Y-2304807D01*
X36492213Y-2264780D01*
X36426237Y-2244767D01*
X36243828Y-2147267D01*
X36083946Y-2016054D01*
X35952733Y-1856172D01*
X35855233Y-1673763D01*
X35835220Y-1607787D01*
X35795193Y-1475836D01*
X35774920Y-1270000D01*
X35795193Y-1064164D01*
X35855233Y-866238D01*
X35855233Y-866237D01*
X35952733Y-683828D01*
X36083946Y-523946D01*
X36243828Y-392733D01*
X36426237Y-295233D01*
X36492213Y-275220D01*
X36624164Y-235193D01*
X36701293Y-227597D01*
X36778420Y-220000D01*
X36881580Y-220000D01*
X36958707Y-227597D01*
X36958707Y-227597D01*
G37*
G36*
X39498707Y-227597D02*
X39575836Y-235193D01*
X39707787Y-275220D01*
X39773763Y-295233D01*
X39956172Y-392733D01*
X40116054Y-523946D01*
X40247267Y-683828D01*
X40344767Y-866237D01*
X40344767Y-866238D01*
X40404807Y-1064164D01*
X40425080Y-1270000D01*
X40404807Y-1475836D01*
X40364780Y-1607787D01*
X40344767Y-1673763D01*
X40247267Y-1856172D01*
X40116054Y-2016054D01*
X39956172Y-2147267D01*
X39773763Y-2244767D01*
X39707787Y-2264780D01*
X39575836Y-2304807D01*
X39498707Y-2312403D01*
X39421580Y-2320000D01*
X39318420Y-2320000D01*
X39241293Y-2312403D01*
X39164164Y-2304807D01*
X39032213Y-2264780D01*
X38966237Y-2244767D01*
X38783828Y-2147267D01*
X38623946Y-2016054D01*
X38492733Y-1856172D01*
X38395233Y-1673763D01*
X38375220Y-1607787D01*
X38335193Y-1475836D01*
X38314920Y-1270000D01*
X38335193Y-1064164D01*
X38395233Y-866238D01*
X38395233Y-866237D01*
X38492733Y-683828D01*
X38623946Y-523946D01*
X38783828Y-392733D01*
X38966237Y-295233D01*
X39032213Y-275220D01*
X39164164Y-235193D01*
X39241293Y-227597D01*
X39318420Y-220000D01*
X39421580Y-220000D01*
X39498707Y-227597D01*
X39498707Y-227597D01*
G37*
G36*
X42038707Y-227597D02*
X42115836Y-235193D01*
X42247787Y-275220D01*
X42313763Y-295233D01*
X42496172Y-392733D01*
X42656054Y-523946D01*
X42787267Y-683828D01*
X42884767Y-866237D01*
X42884767Y-866238D01*
X42944807Y-1064164D01*
X42965080Y-1270000D01*
X42944807Y-1475836D01*
X42904780Y-1607787D01*
X42884767Y-1673763D01*
X42787267Y-1856172D01*
X42656054Y-2016054D01*
X42496172Y-2147267D01*
X42313763Y-2244767D01*
X42247787Y-2264780D01*
X42115836Y-2304807D01*
X42038707Y-2312403D01*
X41961580Y-2320000D01*
X41858420Y-2320000D01*
X41781293Y-2312403D01*
X41704164Y-2304807D01*
X41572213Y-2264780D01*
X41506237Y-2244767D01*
X41323828Y-2147267D01*
X41163946Y-2016054D01*
X41032733Y-1856172D01*
X40935233Y-1673763D01*
X40915220Y-1607787D01*
X40875193Y-1475836D01*
X40854920Y-1270000D01*
X40875193Y-1064164D01*
X40935233Y-866238D01*
X40935233Y-866237D01*
X41032733Y-683828D01*
X41163946Y-523946D01*
X41323828Y-392733D01*
X41506237Y-295233D01*
X41572213Y-275220D01*
X41704164Y-235193D01*
X41781293Y-227597D01*
X41858420Y-220000D01*
X41961580Y-220000D01*
X42038707Y-227597D01*
X42038707Y-227597D01*
G37*
G36*
X44578707Y-227597D02*
X44655836Y-235193D01*
X44787787Y-275220D01*
X44853763Y-295233D01*
X45036172Y-392733D01*
X45196054Y-523946D01*
X45327267Y-683828D01*
X45424767Y-866237D01*
X45424767Y-866238D01*
X45484807Y-1064164D01*
X45505080Y-1270000D01*
X45484807Y-1475836D01*
X45444780Y-1607787D01*
X45424767Y-1673763D01*
X45327267Y-1856172D01*
X45196054Y-2016054D01*
X45036172Y-2147267D01*
X44853763Y-2244767D01*
X44787787Y-2264780D01*
X44655836Y-2304807D01*
X44578707Y-2312403D01*
X44501580Y-2320000D01*
X44398420Y-2320000D01*
X44321293Y-2312403D01*
X44244164Y-2304807D01*
X44112213Y-2264780D01*
X44046237Y-2244767D01*
X43863828Y-2147267D01*
X43703946Y-2016054D01*
X43572733Y-1856172D01*
X43475233Y-1673763D01*
X43455220Y-1607787D01*
X43415193Y-1475836D01*
X43394920Y-1270000D01*
X43415193Y-1064164D01*
X43475233Y-866238D01*
X43475233Y-866237D01*
X43572733Y-683828D01*
X43703946Y-523946D01*
X43863828Y-392733D01*
X44046237Y-295233D01*
X44112213Y-275220D01*
X44244164Y-235193D01*
X44321293Y-227597D01*
X44398420Y-220000D01*
X44501580Y-220000D01*
X44578707Y-227597D01*
X44578707Y-227597D01*
G37*
G36*
X47118707Y-227597D02*
X47195836Y-235193D01*
X47327787Y-275220D01*
X47393763Y-295233D01*
X47576172Y-392733D01*
X47736054Y-523946D01*
X47867267Y-683828D01*
X47964767Y-866237D01*
X47964767Y-866238D01*
X48024807Y-1064164D01*
X48045080Y-1270000D01*
X48024807Y-1475836D01*
X47984780Y-1607787D01*
X47964767Y-1673763D01*
X47867267Y-1856172D01*
X47736054Y-2016054D01*
X47576172Y-2147267D01*
X47393763Y-2244767D01*
X47327787Y-2264780D01*
X47195836Y-2304807D01*
X47118707Y-2312403D01*
X47041580Y-2320000D01*
X46938420Y-2320000D01*
X46861293Y-2312403D01*
X46784164Y-2304807D01*
X46652213Y-2264780D01*
X46586237Y-2244767D01*
X46403828Y-2147267D01*
X46243946Y-2016054D01*
X46112733Y-1856172D01*
X46015233Y-1673763D01*
X45995220Y-1607787D01*
X45955193Y-1475836D01*
X45934920Y-1270000D01*
X45955193Y-1064164D01*
X46015233Y-866238D01*
X46015233Y-866237D01*
X46112733Y-683828D01*
X46243946Y-523946D01*
X46403828Y-392733D01*
X46586237Y-295233D01*
X46652213Y-275220D01*
X46784164Y-235193D01*
X46861293Y-227597D01*
X46938420Y-220000D01*
X47041580Y-220000D01*
X47118707Y-227597D01*
X47118707Y-227597D01*
G37*
G36*
X49658707Y-227597D02*
X49735836Y-235193D01*
X49867787Y-275220D01*
X49933763Y-295233D01*
X50116172Y-392733D01*
X50276054Y-523946D01*
X50407267Y-683828D01*
X50504767Y-866237D01*
X50504767Y-866238D01*
X50564807Y-1064164D01*
X50585080Y-1270000D01*
X50564807Y-1475836D01*
X50524780Y-1607787D01*
X50504767Y-1673763D01*
X50407267Y-1856172D01*
X50276054Y-2016054D01*
X50116172Y-2147267D01*
X49933763Y-2244767D01*
X49867787Y-2264780D01*
X49735836Y-2304807D01*
X49658707Y-2312403D01*
X49581580Y-2320000D01*
X49478420Y-2320000D01*
X49401293Y-2312403D01*
X49324164Y-2304807D01*
X49192213Y-2264780D01*
X49126237Y-2244767D01*
X48943828Y-2147267D01*
X48783946Y-2016054D01*
X48652733Y-1856172D01*
X48555233Y-1673763D01*
X48535220Y-1607787D01*
X48495193Y-1475836D01*
X48474920Y-1270000D01*
X48495193Y-1064164D01*
X48555233Y-866238D01*
X48555233Y-866237D01*
X48652733Y-683828D01*
X48783946Y-523946D01*
X48943828Y-392733D01*
X49126237Y-295233D01*
X49192213Y-275220D01*
X49324164Y-235193D01*
X49401293Y-227597D01*
X49478420Y-220000D01*
X49581580Y-220000D01*
X49658707Y-227597D01*
X49658707Y-227597D01*
G37*
G36*
X52198707Y-227597D02*
X52275836Y-235193D01*
X52407787Y-275220D01*
X52473763Y-295233D01*
X52656172Y-392733D01*
X52816054Y-523946D01*
X52947267Y-683828D01*
X53044767Y-866237D01*
X53044767Y-866238D01*
X53104807Y-1064164D01*
X53125080Y-1270000D01*
X53104807Y-1475836D01*
X53064780Y-1607787D01*
X53044767Y-1673763D01*
X52947267Y-1856172D01*
X52816054Y-2016054D01*
X52656172Y-2147267D01*
X52473763Y-2244767D01*
X52407787Y-2264780D01*
X52275836Y-2304807D01*
X52198707Y-2312403D01*
X52121580Y-2320000D01*
X52018420Y-2320000D01*
X51941293Y-2312403D01*
X51864164Y-2304807D01*
X51732213Y-2264780D01*
X51666237Y-2244767D01*
X51483828Y-2147267D01*
X51323946Y-2016054D01*
X51192733Y-1856172D01*
X51095233Y-1673763D01*
X51075220Y-1607787D01*
X51035193Y-1475836D01*
X51014920Y-1270000D01*
X51035193Y-1064164D01*
X51095233Y-866238D01*
X51095233Y-866237D01*
X51192733Y-683828D01*
X51323946Y-523946D01*
X51483828Y-392733D01*
X51666237Y-295233D01*
X51732213Y-275220D01*
X51864164Y-235193D01*
X51941293Y-227597D01*
X52018420Y-220000D01*
X52121580Y-220000D01*
X52198707Y-227597D01*
X52198707Y-227597D01*
G37*
G36*
X19178707Y-227597D02*
X19255836Y-235193D01*
X19387787Y-275220D01*
X19453763Y-295233D01*
X19636172Y-392733D01*
X19796054Y-523946D01*
X19927267Y-683828D01*
X20024767Y-866237D01*
X20024767Y-866238D01*
X20084807Y-1064164D01*
X20105080Y-1270000D01*
X20084807Y-1475836D01*
X20044780Y-1607787D01*
X20024767Y-1673763D01*
X19927267Y-1856172D01*
X19796054Y-2016054D01*
X19636172Y-2147267D01*
X19453763Y-2244767D01*
X19387787Y-2264780D01*
X19255836Y-2304807D01*
X19178707Y-2312403D01*
X19101580Y-2320000D01*
X18998420Y-2320000D01*
X18921293Y-2312403D01*
X18844164Y-2304807D01*
X18712213Y-2264780D01*
X18646237Y-2244767D01*
X18463828Y-2147267D01*
X18303946Y-2016054D01*
X18172733Y-1856172D01*
X18075233Y-1673763D01*
X18055220Y-1607787D01*
X18015193Y-1475836D01*
X17994920Y-1270000D01*
X18015193Y-1064164D01*
X18075233Y-866238D01*
X18075233Y-866237D01*
X18172733Y-683828D01*
X18303946Y-523946D01*
X18463828Y-392733D01*
X18646237Y-295233D01*
X18712213Y-275220D01*
X18844164Y-235193D01*
X18921293Y-227597D01*
X18998420Y-220000D01*
X19101580Y-220000D01*
X19178707Y-227597D01*
X19178707Y-227597D01*
G37*
G36*
X31878707Y-227597D02*
X31955836Y-235193D01*
X32087787Y-275220D01*
X32153763Y-295233D01*
X32336172Y-392733D01*
X32496054Y-523946D01*
X32627267Y-683828D01*
X32724767Y-866237D01*
X32724767Y-866238D01*
X32784807Y-1064164D01*
X32805080Y-1270000D01*
X32784807Y-1475836D01*
X32744780Y-1607787D01*
X32724767Y-1673763D01*
X32627267Y-1856172D01*
X32496054Y-2016054D01*
X32336172Y-2147267D01*
X32153763Y-2244767D01*
X32087787Y-2264780D01*
X31955836Y-2304807D01*
X31878707Y-2312403D01*
X31801580Y-2320000D01*
X31698420Y-2320000D01*
X31621293Y-2312403D01*
X31544164Y-2304807D01*
X31412213Y-2264780D01*
X31346237Y-2244767D01*
X31163828Y-2147267D01*
X31003946Y-2016054D01*
X30872733Y-1856172D01*
X30775233Y-1673763D01*
X30755220Y-1607787D01*
X30715193Y-1475836D01*
X30694920Y-1270000D01*
X30715193Y-1064164D01*
X30775233Y-866238D01*
X30775233Y-866237D01*
X30872733Y-683828D01*
X31003946Y-523946D01*
X31163828Y-392733D01*
X31346237Y-295233D01*
X31412213Y-275220D01*
X31544164Y-235193D01*
X31621293Y-227597D01*
X31698420Y-220000D01*
X31801580Y-220000D01*
X31878707Y-227597D01*
X31878707Y-227597D01*
G37*
G36*
X9018707Y-227597D02*
X9095836Y-235193D01*
X9227787Y-275220D01*
X9293763Y-295233D01*
X9476172Y-392733D01*
X9636054Y-523946D01*
X9767267Y-683828D01*
X9864767Y-866237D01*
X9864767Y-866238D01*
X9924807Y-1064164D01*
X9945080Y-1270000D01*
X9924807Y-1475836D01*
X9884780Y-1607787D01*
X9864767Y-1673763D01*
X9767267Y-1856172D01*
X9636054Y-2016054D01*
X9476172Y-2147267D01*
X9293763Y-2244767D01*
X9227787Y-2264780D01*
X9095836Y-2304807D01*
X9018707Y-2312403D01*
X8941580Y-2320000D01*
X8838420Y-2320000D01*
X8761293Y-2312403D01*
X8684164Y-2304807D01*
X8552213Y-2264780D01*
X8486237Y-2244767D01*
X8303828Y-2147267D01*
X8143946Y-2016054D01*
X8012733Y-1856172D01*
X7915233Y-1673763D01*
X7895220Y-1607787D01*
X7855193Y-1475836D01*
X7834920Y-1270000D01*
X7855193Y-1064164D01*
X7915233Y-866238D01*
X7915233Y-866237D01*
X8012733Y-683828D01*
X8143946Y-523946D01*
X8303828Y-392733D01*
X8486237Y-295233D01*
X8552213Y-275220D01*
X8684164Y-235193D01*
X8761293Y-227597D01*
X8838420Y-220000D01*
X8941580Y-220000D01*
X9018707Y-227597D01*
X9018707Y-227597D01*
G37*
M02*
