G04 #@! TF.GenerationSoftware,KiCad,Pcbnew,(5.1.2)-2*
G04 #@! TF.CreationDate,2020-02-28T11:19:54+01:00*
G04 #@! TF.ProjectId,mibo48_stm32g4,6d69626f-3438-45f7-9374-6d333267342e,rev?*
G04 #@! TF.SameCoordinates,PX7a53eb0PY5ad6650*
G04 #@! TF.FileFunction,Soldermask,Bot*
G04 #@! TF.FilePolarity,Negative*
%FSLAX46Y46*%
G04 Gerber Fmt 4.6, Leading zero omitted, Abs format (unit mm)*
G04 Created by KiCad (PCBNEW (5.1.2)-2) date 2020-02-28 11:19:54*
%MOMM*%
%LPD*%
G04 APERTURE LIST*
%ADD10R,2.100000X2.100000*%
%ADD11O,2.100000X2.100000*%
%ADD12C,1.850000*%
%ADD13O,2.300000X1.600000*%
%ADD14C,1.900000*%
%ADD15C,1.400000*%
G04 APERTURE END LIST*
D10*
X1270000Y-19050000D03*
D11*
X3810000Y-19050000D03*
X6350000Y-19050000D03*
X8890000Y-19050000D03*
X11430000Y-19050000D03*
X13970000Y-19050000D03*
X16510000Y-19050000D03*
X19050000Y-19050000D03*
X21590000Y-19050000D03*
X24130000Y-19050000D03*
X26670000Y-19050000D03*
X29210000Y-19050000D03*
X31750000Y-19050000D03*
X34290000Y-19050000D03*
X36830000Y-19050000D03*
X39370000Y-19050000D03*
X41910000Y-19050000D03*
X44450000Y-19050000D03*
X46990000Y-19050000D03*
X49530000Y-19050000D03*
X52070000Y-19050000D03*
X54610000Y-19050000D03*
X54610000Y-1270000D03*
X52070000Y-1270000D03*
X49530000Y-1270000D03*
X46990000Y-1270000D03*
X44450000Y-1270000D03*
X41910000Y-1270000D03*
X39370000Y-1270000D03*
X36830000Y-1270000D03*
X34290000Y-1270000D03*
X31750000Y-1270000D03*
X29210000Y-1270000D03*
X26670000Y-1270000D03*
X24130000Y-1270000D03*
X21590000Y-1270000D03*
X19050000Y-1270000D03*
X16510000Y-1270000D03*
X13970000Y-1270000D03*
X11430000Y-1270000D03*
X8890000Y-1270000D03*
X6350000Y-1270000D03*
X3810000Y-1270000D03*
D10*
X1270000Y-1270000D03*
D12*
X51877500Y-14946000D03*
X51877500Y-9946000D03*
D13*
X54577500Y-15946000D03*
X54577500Y-8946000D03*
D10*
X3810000Y-6350000D03*
D11*
X3810000Y-8890000D03*
X3810000Y-11430000D03*
X3810000Y-13970000D03*
D14*
X14224000Y-12192000D03*
X19104000Y-12192000D03*
D15*
X19113500Y-4889500D03*
X19113500Y-6789500D03*
D10*
X6350000Y-8890000D03*
D11*
X6350000Y-6350000D03*
M02*
