G04 #@! TF.GenerationSoftware,KiCad,Pcbnew,(5.1.2)-2*
G04 #@! TF.CreationDate,2020-02-28T11:19:54+01:00*
G04 #@! TF.ProjectId,mibo48_stm32g4,6d69626f-3438-45f7-9374-6d333267342e,rev?*
G04 #@! TF.SameCoordinates,PX7a53eb0PY5ad6650*
G04 #@! TF.FileFunction,Copper,L2,Bot*
G04 #@! TF.FilePolarity,Positive*
%FSLAX46Y46*%
G04 Gerber Fmt 4.6, Leading zero omitted, Abs format (unit mm)*
G04 Created by KiCad (PCBNEW (5.1.2)-2) date 2020-02-28 11:19:54*
%MOMM*%
%LPD*%
G04 APERTURE LIST*
%ADD10R,1.700000X1.700000*%
%ADD11O,1.700000X1.700000*%
%ADD12C,1.450000*%
%ADD13O,1.900000X1.200000*%
%ADD14C,1.500000*%
%ADD15C,1.000000*%
%ADD16C,0.600000*%
%ADD17C,0.800000*%
%ADD18C,0.152000*%
%ADD19C,0.400000*%
%ADD20C,0.200000*%
G04 APERTURE END LIST*
D10*
X1270000Y-19050000D03*
D11*
X3810000Y-19050000D03*
X6350000Y-19050000D03*
X8890000Y-19050000D03*
X11430000Y-19050000D03*
X13970000Y-19050000D03*
X16510000Y-19050000D03*
X19050000Y-19050000D03*
X21590000Y-19050000D03*
X24130000Y-19050000D03*
X26670000Y-19050000D03*
X29210000Y-19050000D03*
X31750000Y-19050000D03*
X34290000Y-19050000D03*
X36830000Y-19050000D03*
X39370000Y-19050000D03*
X41910000Y-19050000D03*
X44450000Y-19050000D03*
X46990000Y-19050000D03*
X49530000Y-19050000D03*
X52070000Y-19050000D03*
X54610000Y-19050000D03*
X54610000Y-1270000D03*
X52070000Y-1270000D03*
X49530000Y-1270000D03*
X46990000Y-1270000D03*
X44450000Y-1270000D03*
X41910000Y-1270000D03*
X39370000Y-1270000D03*
X36830000Y-1270000D03*
X34290000Y-1270000D03*
X31750000Y-1270000D03*
X29210000Y-1270000D03*
X26670000Y-1270000D03*
X24130000Y-1270000D03*
X21590000Y-1270000D03*
X19050000Y-1270000D03*
X16510000Y-1270000D03*
X13970000Y-1270000D03*
X11430000Y-1270000D03*
X8890000Y-1270000D03*
X6350000Y-1270000D03*
X3810000Y-1270000D03*
D10*
X1270000Y-1270000D03*
D12*
X51877500Y-14946000D03*
X51877500Y-9946000D03*
D13*
X54577500Y-15946000D03*
X54577500Y-8946000D03*
D10*
X3810000Y-6350000D03*
D11*
X3810000Y-8890000D03*
X3810000Y-11430000D03*
X3810000Y-13970000D03*
D14*
X14224000Y-12192000D03*
X19104000Y-12192000D03*
D15*
X19113500Y-4889500D03*
X19113500Y-6789500D03*
D10*
X6350000Y-8890000D03*
D11*
X6350000Y-6350000D03*
D16*
X46228000Y-16129000D03*
X42608500Y-14986000D03*
X50545994Y-7810500D03*
X45402500Y-9270996D03*
X48632841Y-7103841D03*
X33782000Y-4889500D03*
X38036500Y-5588000D03*
X24955500Y-17017998D03*
X12763500Y-8509000D03*
X26485435Y-8511538D03*
X9525000Y-9398000D03*
X20002500Y-8509000D03*
X9144002Y-11684000D03*
X36449000Y-15049488D03*
X27368500Y-12636500D03*
X11874500Y-8509000D03*
X28326744Y-8772536D03*
X15938500Y-8509000D03*
X27622500Y-8445498D03*
X25971500Y-4508500D03*
X31432500Y-3683000D03*
X37465000Y-8826500D03*
X37465000Y-10223500D03*
X35750500Y-10858500D03*
X36385500Y-10223500D03*
X47180506Y-11620500D03*
D17*
X42545000Y-10414000D03*
X50673000Y-16065518D03*
X1403990Y-16256000D03*
D16*
X30924500Y-7620000D03*
X30924500Y-7620000D03*
X27931763Y-6982007D03*
X28638500Y-7239000D03*
X32131008Y-8699500D03*
X32787853Y-9320438D03*
D18*
X11874500Y-9842500D02*
X14224000Y-12192000D01*
X11874500Y-8509000D02*
X11874500Y-9842500D01*
X28026745Y-9072535D02*
X28326744Y-8772536D01*
X28026745Y-9374755D02*
X28026745Y-9072535D01*
X24193500Y-13208000D02*
X28026745Y-9374755D01*
X14224000Y-12192000D02*
X15240000Y-13208000D01*
X15240000Y-13208000D02*
X24193500Y-13208000D01*
X15938500Y-9017000D02*
X15938500Y-8509000D01*
X19104000Y-12192000D02*
X19104000Y-12182500D01*
X19104000Y-12182500D02*
X15938500Y-9017000D01*
X19739000Y-12827000D02*
X19104000Y-12192000D01*
X24003000Y-12827000D02*
X19739000Y-12827000D01*
X27622500Y-8445498D02*
X27622500Y-9207500D01*
X27622500Y-9207500D02*
X24003000Y-12827000D01*
D19*
X3810000Y-6350000D02*
X6350000Y-6350000D01*
X37465000Y-8826500D02*
X37465000Y-10223500D01*
X36385500Y-10223500D02*
X30670500Y-4508500D01*
X30670500Y-4508500D02*
X25971500Y-4508500D01*
X52070000Y-1270000D02*
X52070000Y-7409264D01*
X52070000Y-7409264D02*
X47858764Y-11620500D01*
X47858764Y-11620500D02*
X47604770Y-11620500D01*
X47604770Y-11620500D02*
X47180506Y-11620500D01*
X25971500Y-4508500D02*
X24257000Y-4508500D01*
X23177500Y-3429000D02*
X9271000Y-3429000D01*
X9271000Y-3429000D02*
X6350000Y-6350000D01*
X24257000Y-4508500D02*
X23177500Y-3429000D01*
X31432500Y-4191000D02*
X31432500Y-3683000D01*
X37465000Y-8826500D02*
X36068000Y-8826500D01*
X36068000Y-8826500D02*
X31432500Y-4191000D01*
X42545000Y-10414000D02*
X48196518Y-16065518D01*
X48196518Y-16065518D02*
X50673000Y-16065518D01*
X42545000Y-10414000D02*
X36703000Y-16256000D01*
X1969675Y-16256000D02*
X1403990Y-16256000D01*
X36703000Y-16256000D02*
X1969675Y-16256000D01*
D18*
X11987500Y-13525500D02*
X7352000Y-8890000D01*
X24320500Y-13525500D02*
X11987500Y-13525500D01*
X30226000Y-7620000D02*
X24320500Y-13525500D01*
X30924500Y-7620000D02*
X30226000Y-7620000D01*
X7352000Y-8890000D02*
X6350000Y-8890000D01*
X27507499Y-6982007D02*
X27931763Y-6982007D01*
X26531429Y-6982007D02*
X27507499Y-6982007D01*
X25335425Y-8178011D02*
X26531429Y-6982007D01*
X19113500Y-6789500D02*
X20502011Y-8178011D01*
X20502011Y-8178011D02*
X25335425Y-8178011D01*
X26733500Y-6350000D02*
X28173764Y-6350000D01*
X28638500Y-6814736D02*
X28638500Y-7239000D01*
X28173764Y-6350000D02*
X28638500Y-6814736D01*
X25209500Y-7874000D02*
X26733500Y-6350000D01*
X19113500Y-4889500D02*
X22098000Y-7874000D01*
X22098000Y-7874000D02*
X25209500Y-7874000D01*
X31831009Y-8999499D02*
X32131008Y-8699500D01*
X31831009Y-9824991D02*
X31831009Y-8999499D01*
X27037511Y-14618489D02*
X31831009Y-9824991D01*
X8952425Y-14618489D02*
X27037511Y-14618489D01*
X3810000Y-11430000D02*
X5763936Y-11430000D01*
X5763936Y-11430000D02*
X8952425Y-14618489D01*
X8826500Y-14922500D02*
X27185791Y-14922500D01*
X27185791Y-14922500D02*
X32487854Y-9620437D01*
X32487854Y-9620437D02*
X32787853Y-9320438D01*
X3238500Y-12700000D02*
X6604000Y-12700000D01*
X6604000Y-12700000D02*
X8826500Y-14922500D01*
X2413000Y-10287000D02*
X2413000Y-11874500D01*
X3810000Y-8890000D02*
X2413000Y-10287000D01*
X2413000Y-11874500D02*
X3238500Y-12700000D01*
D20*
G36*
X2992893Y-452893D02*
G01*
X2849184Y-628003D01*
X2742398Y-827785D01*
X2676640Y-1044561D01*
X2654436Y-1270000D01*
X2676640Y-1495439D01*
X2742398Y-1712215D01*
X2849184Y-1911997D01*
X2992893Y-2087107D01*
X3168003Y-2230816D01*
X3367785Y-2337602D01*
X3584561Y-2403360D01*
X3753508Y-2420000D01*
X3866492Y-2420000D01*
X4035439Y-2403360D01*
X4252215Y-2337602D01*
X4451997Y-2230816D01*
X4627107Y-2087107D01*
X4770816Y-1911997D01*
X4877602Y-1712215D01*
X4937495Y-1514771D01*
X5124197Y-1514771D01*
X5195503Y-1749210D01*
X5311176Y-1965233D01*
X5466770Y-2154539D01*
X5656306Y-2309852D01*
X5872500Y-2425205D01*
X6105229Y-2495801D01*
X6300000Y-2418913D01*
X6300000Y-1320000D01*
X6400000Y-1320000D01*
X6400000Y-2418913D01*
X6594771Y-2495801D01*
X6827500Y-2425205D01*
X7043694Y-2309852D01*
X7233230Y-2154539D01*
X7388824Y-1965233D01*
X7504497Y-1749210D01*
X7575803Y-1514771D01*
X7499002Y-1320000D01*
X6400000Y-1320000D01*
X6300000Y-1320000D01*
X5200998Y-1320000D01*
X5124197Y-1514771D01*
X4937495Y-1514771D01*
X4943360Y-1495439D01*
X4965564Y-1270000D01*
X4943360Y-1044561D01*
X4877602Y-827785D01*
X4770816Y-628003D01*
X4627107Y-452893D01*
X4532194Y-375000D01*
X5479536Y-375000D01*
X5466770Y-385461D01*
X5311176Y-574767D01*
X5195503Y-790790D01*
X5124197Y-1025229D01*
X5200998Y-1220000D01*
X6300000Y-1220000D01*
X6300000Y-1200000D01*
X6400000Y-1200000D01*
X6400000Y-1220000D01*
X7499002Y-1220000D01*
X7575803Y-1025229D01*
X7504497Y-790790D01*
X7388824Y-574767D01*
X7233230Y-385461D01*
X7220464Y-375000D01*
X8167806Y-375000D01*
X8072893Y-452893D01*
X7929184Y-628003D01*
X7822398Y-827785D01*
X7756640Y-1044561D01*
X7734436Y-1270000D01*
X7756640Y-1495439D01*
X7822398Y-1712215D01*
X7929184Y-1911997D01*
X8072893Y-2087107D01*
X8248003Y-2230816D01*
X8447785Y-2337602D01*
X8664561Y-2403360D01*
X8833508Y-2420000D01*
X8946492Y-2420000D01*
X9115439Y-2403360D01*
X9332215Y-2337602D01*
X9531997Y-2230816D01*
X9707107Y-2087107D01*
X9850816Y-1911997D01*
X9957602Y-1712215D01*
X10023360Y-1495439D01*
X10045564Y-1270000D01*
X10023360Y-1044561D01*
X9957602Y-827785D01*
X9850816Y-628003D01*
X9707107Y-452893D01*
X9612194Y-375000D01*
X10707806Y-375000D01*
X10612893Y-452893D01*
X10469184Y-628003D01*
X10362398Y-827785D01*
X10296640Y-1044561D01*
X10274436Y-1270000D01*
X10296640Y-1495439D01*
X10362398Y-1712215D01*
X10469184Y-1911997D01*
X10612893Y-2087107D01*
X10788003Y-2230816D01*
X10987785Y-2337602D01*
X11204561Y-2403360D01*
X11373508Y-2420000D01*
X11486492Y-2420000D01*
X11655439Y-2403360D01*
X11872215Y-2337602D01*
X12071997Y-2230816D01*
X12247107Y-2087107D01*
X12390816Y-1911997D01*
X12497602Y-1712215D01*
X12563360Y-1495439D01*
X12585564Y-1270000D01*
X12563360Y-1044561D01*
X12497602Y-827785D01*
X12390816Y-628003D01*
X12247107Y-452893D01*
X12152194Y-375000D01*
X13247806Y-375000D01*
X13152893Y-452893D01*
X13009184Y-628003D01*
X12902398Y-827785D01*
X12836640Y-1044561D01*
X12814436Y-1270000D01*
X12836640Y-1495439D01*
X12902398Y-1712215D01*
X13009184Y-1911997D01*
X13152893Y-2087107D01*
X13328003Y-2230816D01*
X13527785Y-2337602D01*
X13744561Y-2403360D01*
X13913508Y-2420000D01*
X14026492Y-2420000D01*
X14195439Y-2403360D01*
X14412215Y-2337602D01*
X14611997Y-2230816D01*
X14787107Y-2087107D01*
X14930816Y-1911997D01*
X15037602Y-1712215D01*
X15103360Y-1495439D01*
X15125564Y-1270000D01*
X15103360Y-1044561D01*
X15037602Y-827785D01*
X14930816Y-628003D01*
X14787107Y-452893D01*
X14692194Y-375000D01*
X15787806Y-375000D01*
X15692893Y-452893D01*
X15549184Y-628003D01*
X15442398Y-827785D01*
X15376640Y-1044561D01*
X15354436Y-1270000D01*
X15376640Y-1495439D01*
X15442398Y-1712215D01*
X15549184Y-1911997D01*
X15692893Y-2087107D01*
X15868003Y-2230816D01*
X16067785Y-2337602D01*
X16284561Y-2403360D01*
X16453508Y-2420000D01*
X16566492Y-2420000D01*
X16735439Y-2403360D01*
X16952215Y-2337602D01*
X17151997Y-2230816D01*
X17327107Y-2087107D01*
X17470816Y-1911997D01*
X17577602Y-1712215D01*
X17643360Y-1495439D01*
X17665564Y-1270000D01*
X17643360Y-1044561D01*
X17577602Y-827785D01*
X17470816Y-628003D01*
X17327107Y-452893D01*
X17232194Y-375000D01*
X18327806Y-375000D01*
X18232893Y-452893D01*
X18089184Y-628003D01*
X17982398Y-827785D01*
X17916640Y-1044561D01*
X17894436Y-1270000D01*
X17916640Y-1495439D01*
X17982398Y-1712215D01*
X18089184Y-1911997D01*
X18232893Y-2087107D01*
X18408003Y-2230816D01*
X18607785Y-2337602D01*
X18824561Y-2403360D01*
X18993508Y-2420000D01*
X19106492Y-2420000D01*
X19275439Y-2403360D01*
X19492215Y-2337602D01*
X19691997Y-2230816D01*
X19867107Y-2087107D01*
X20010816Y-1911997D01*
X20117602Y-1712215D01*
X20183360Y-1495439D01*
X20205564Y-1270000D01*
X20183360Y-1044561D01*
X20117602Y-827785D01*
X20010816Y-628003D01*
X19867107Y-452893D01*
X19772194Y-375000D01*
X20867806Y-375000D01*
X20772893Y-452893D01*
X20629184Y-628003D01*
X20522398Y-827785D01*
X20456640Y-1044561D01*
X20434436Y-1270000D01*
X20456640Y-1495439D01*
X20522398Y-1712215D01*
X20629184Y-1911997D01*
X20772893Y-2087107D01*
X20948003Y-2230816D01*
X21147785Y-2337602D01*
X21364561Y-2403360D01*
X21533508Y-2420000D01*
X21646492Y-2420000D01*
X21815439Y-2403360D01*
X22032215Y-2337602D01*
X22231997Y-2230816D01*
X22407107Y-2087107D01*
X22550816Y-1911997D01*
X22657602Y-1712215D01*
X22723360Y-1495439D01*
X22745564Y-1270000D01*
X22723360Y-1044561D01*
X22657602Y-827785D01*
X22550816Y-628003D01*
X22407107Y-452893D01*
X22312194Y-375000D01*
X23407806Y-375000D01*
X23312893Y-452893D01*
X23169184Y-628003D01*
X23062398Y-827785D01*
X22996640Y-1044561D01*
X22974436Y-1270000D01*
X22996640Y-1495439D01*
X23062398Y-1712215D01*
X23169184Y-1911997D01*
X23312893Y-2087107D01*
X23488003Y-2230816D01*
X23687785Y-2337602D01*
X23904561Y-2403360D01*
X24073508Y-2420000D01*
X24186492Y-2420000D01*
X24355439Y-2403360D01*
X24572215Y-2337602D01*
X24771997Y-2230816D01*
X24947107Y-2087107D01*
X25090816Y-1911997D01*
X25197602Y-1712215D01*
X25263360Y-1495439D01*
X25285564Y-1270000D01*
X25263360Y-1044561D01*
X25197602Y-827785D01*
X25090816Y-628003D01*
X24947107Y-452893D01*
X24852194Y-375000D01*
X25947806Y-375000D01*
X25852893Y-452893D01*
X25709184Y-628003D01*
X25602398Y-827785D01*
X25536640Y-1044561D01*
X25514436Y-1270000D01*
X25536640Y-1495439D01*
X25602398Y-1712215D01*
X25709184Y-1911997D01*
X25852893Y-2087107D01*
X26028003Y-2230816D01*
X26227785Y-2337602D01*
X26444561Y-2403360D01*
X26613508Y-2420000D01*
X26726492Y-2420000D01*
X26895439Y-2403360D01*
X27112215Y-2337602D01*
X27311997Y-2230816D01*
X27487107Y-2087107D01*
X27630816Y-1911997D01*
X27737602Y-1712215D01*
X27803360Y-1495439D01*
X27825564Y-1270000D01*
X27803360Y-1044561D01*
X27737602Y-827785D01*
X27630816Y-628003D01*
X27487107Y-452893D01*
X27392194Y-375000D01*
X28487806Y-375000D01*
X28392893Y-452893D01*
X28249184Y-628003D01*
X28142398Y-827785D01*
X28076640Y-1044561D01*
X28054436Y-1270000D01*
X28076640Y-1495439D01*
X28142398Y-1712215D01*
X28249184Y-1911997D01*
X28392893Y-2087107D01*
X28568003Y-2230816D01*
X28767785Y-2337602D01*
X28984561Y-2403360D01*
X29153508Y-2420000D01*
X29266492Y-2420000D01*
X29435439Y-2403360D01*
X29652215Y-2337602D01*
X29851997Y-2230816D01*
X30027107Y-2087107D01*
X30170816Y-1911997D01*
X30277602Y-1712215D01*
X30343360Y-1495439D01*
X30365564Y-1270000D01*
X30343360Y-1044561D01*
X30277602Y-827785D01*
X30170816Y-628003D01*
X30027107Y-452893D01*
X29932194Y-375000D01*
X31027806Y-375000D01*
X30932893Y-452893D01*
X30789184Y-628003D01*
X30682398Y-827785D01*
X30616640Y-1044561D01*
X30594436Y-1270000D01*
X30616640Y-1495439D01*
X30682398Y-1712215D01*
X30789184Y-1911997D01*
X30932893Y-2087107D01*
X31108003Y-2230816D01*
X31307785Y-2337602D01*
X31524561Y-2403360D01*
X31693508Y-2420000D01*
X31806492Y-2420000D01*
X31975439Y-2403360D01*
X32192215Y-2337602D01*
X32391997Y-2230816D01*
X32567107Y-2087107D01*
X32710816Y-1911997D01*
X32817602Y-1712215D01*
X32883360Y-1495439D01*
X32905564Y-1270000D01*
X32883360Y-1044561D01*
X32817602Y-827785D01*
X32710816Y-628003D01*
X32567107Y-452893D01*
X32472194Y-375000D01*
X33567806Y-375000D01*
X33472893Y-452893D01*
X33329184Y-628003D01*
X33222398Y-827785D01*
X33156640Y-1044561D01*
X33134436Y-1270000D01*
X33156640Y-1495439D01*
X33222398Y-1712215D01*
X33329184Y-1911997D01*
X33472893Y-2087107D01*
X33648003Y-2230816D01*
X33847785Y-2337602D01*
X34064561Y-2403360D01*
X34233508Y-2420000D01*
X34346492Y-2420000D01*
X34515439Y-2403360D01*
X34732215Y-2337602D01*
X34931997Y-2230816D01*
X35107107Y-2087107D01*
X35250816Y-1911997D01*
X35357602Y-1712215D01*
X35423360Y-1495439D01*
X35445564Y-1270000D01*
X35423360Y-1044561D01*
X35357602Y-827785D01*
X35250816Y-628003D01*
X35107107Y-452893D01*
X35012194Y-375000D01*
X36107806Y-375000D01*
X36012893Y-452893D01*
X35869184Y-628003D01*
X35762398Y-827785D01*
X35696640Y-1044561D01*
X35674436Y-1270000D01*
X35696640Y-1495439D01*
X35762398Y-1712215D01*
X35869184Y-1911997D01*
X36012893Y-2087107D01*
X36188003Y-2230816D01*
X36387785Y-2337602D01*
X36604561Y-2403360D01*
X36773508Y-2420000D01*
X36886492Y-2420000D01*
X37055439Y-2403360D01*
X37272215Y-2337602D01*
X37471997Y-2230816D01*
X37647107Y-2087107D01*
X37790816Y-1911997D01*
X37897602Y-1712215D01*
X37963360Y-1495439D01*
X37985564Y-1270000D01*
X37963360Y-1044561D01*
X37897602Y-827785D01*
X37790816Y-628003D01*
X37647107Y-452893D01*
X37552194Y-375000D01*
X38647806Y-375000D01*
X38552893Y-452893D01*
X38409184Y-628003D01*
X38302398Y-827785D01*
X38236640Y-1044561D01*
X38214436Y-1270000D01*
X38236640Y-1495439D01*
X38302398Y-1712215D01*
X38409184Y-1911997D01*
X38552893Y-2087107D01*
X38728003Y-2230816D01*
X38927785Y-2337602D01*
X39144561Y-2403360D01*
X39313508Y-2420000D01*
X39426492Y-2420000D01*
X39595439Y-2403360D01*
X39812215Y-2337602D01*
X40011997Y-2230816D01*
X40187107Y-2087107D01*
X40330816Y-1911997D01*
X40437602Y-1712215D01*
X40503360Y-1495439D01*
X40525564Y-1270000D01*
X40503360Y-1044561D01*
X40437602Y-827785D01*
X40330816Y-628003D01*
X40187107Y-452893D01*
X40092194Y-375000D01*
X41187806Y-375000D01*
X41092893Y-452893D01*
X40949184Y-628003D01*
X40842398Y-827785D01*
X40776640Y-1044561D01*
X40754436Y-1270000D01*
X40776640Y-1495439D01*
X40842398Y-1712215D01*
X40949184Y-1911997D01*
X41092893Y-2087107D01*
X41268003Y-2230816D01*
X41467785Y-2337602D01*
X41684561Y-2403360D01*
X41853508Y-2420000D01*
X41966492Y-2420000D01*
X42135439Y-2403360D01*
X42352215Y-2337602D01*
X42551997Y-2230816D01*
X42727107Y-2087107D01*
X42870816Y-1911997D01*
X42977602Y-1712215D01*
X43043360Y-1495439D01*
X43065564Y-1270000D01*
X43043360Y-1044561D01*
X42977602Y-827785D01*
X42870816Y-628003D01*
X42727107Y-452893D01*
X42632194Y-375000D01*
X43727806Y-375000D01*
X43632893Y-452893D01*
X43489184Y-628003D01*
X43382398Y-827785D01*
X43316640Y-1044561D01*
X43294436Y-1270000D01*
X43316640Y-1495439D01*
X43382398Y-1712215D01*
X43489184Y-1911997D01*
X43632893Y-2087107D01*
X43808003Y-2230816D01*
X44007785Y-2337602D01*
X44224561Y-2403360D01*
X44393508Y-2420000D01*
X44506492Y-2420000D01*
X44675439Y-2403360D01*
X44892215Y-2337602D01*
X45091997Y-2230816D01*
X45267107Y-2087107D01*
X45410816Y-1911997D01*
X45517602Y-1712215D01*
X45583360Y-1495439D01*
X45605564Y-1270000D01*
X45583360Y-1044561D01*
X45517602Y-827785D01*
X45410816Y-628003D01*
X45267107Y-452893D01*
X45172194Y-375000D01*
X46267806Y-375000D01*
X46172893Y-452893D01*
X46029184Y-628003D01*
X45922398Y-827785D01*
X45856640Y-1044561D01*
X45834436Y-1270000D01*
X45856640Y-1495439D01*
X45922398Y-1712215D01*
X46029184Y-1911997D01*
X46172893Y-2087107D01*
X46348003Y-2230816D01*
X46547785Y-2337602D01*
X46764561Y-2403360D01*
X46933508Y-2420000D01*
X47046492Y-2420000D01*
X47215439Y-2403360D01*
X47432215Y-2337602D01*
X47631997Y-2230816D01*
X47807107Y-2087107D01*
X47950816Y-1911997D01*
X48057602Y-1712215D01*
X48123360Y-1495439D01*
X48145564Y-1270000D01*
X48123360Y-1044561D01*
X48057602Y-827785D01*
X47950816Y-628003D01*
X47807107Y-452893D01*
X47712194Y-375000D01*
X48807806Y-375000D01*
X48712893Y-452893D01*
X48569184Y-628003D01*
X48462398Y-827785D01*
X48396640Y-1044561D01*
X48374436Y-1270000D01*
X48396640Y-1495439D01*
X48462398Y-1712215D01*
X48569184Y-1911997D01*
X48712893Y-2087107D01*
X48888003Y-2230816D01*
X49087785Y-2337602D01*
X49304561Y-2403360D01*
X49473508Y-2420000D01*
X49586492Y-2420000D01*
X49755439Y-2403360D01*
X49972215Y-2337602D01*
X50171997Y-2230816D01*
X50347107Y-2087107D01*
X50490816Y-1911997D01*
X50597602Y-1712215D01*
X50663360Y-1495439D01*
X50685564Y-1270000D01*
X50663360Y-1044561D01*
X50597602Y-827785D01*
X50490816Y-628003D01*
X50347107Y-452893D01*
X50252194Y-375000D01*
X51347806Y-375000D01*
X51252893Y-452893D01*
X51109184Y-628003D01*
X51002398Y-827785D01*
X50936640Y-1044561D01*
X50914436Y-1270000D01*
X50936640Y-1495439D01*
X51002398Y-1712215D01*
X51109184Y-1911997D01*
X51252893Y-2087107D01*
X51428003Y-2230816D01*
X51570000Y-2306715D01*
X51570001Y-7202157D01*
X47651659Y-11120500D01*
X47512175Y-11120500D01*
X47464713Y-11088787D01*
X47355520Y-11043558D01*
X47239601Y-11020500D01*
X47121411Y-11020500D01*
X47005492Y-11043558D01*
X46896299Y-11088787D01*
X46798028Y-11154450D01*
X46714456Y-11238022D01*
X46648793Y-11336293D01*
X46603564Y-11445486D01*
X46580506Y-11561405D01*
X46580506Y-11679595D01*
X46603564Y-11795514D01*
X46648793Y-11904707D01*
X46714456Y-12002978D01*
X46798028Y-12086550D01*
X46896299Y-12152213D01*
X47005492Y-12197442D01*
X47121411Y-12220500D01*
X47239601Y-12220500D01*
X47355520Y-12197442D01*
X47464713Y-12152213D01*
X47512175Y-12120500D01*
X47834204Y-12120500D01*
X47858764Y-12122919D01*
X47883324Y-12120500D01*
X47956781Y-12113265D01*
X48051031Y-12084675D01*
X48137893Y-12038246D01*
X48214028Y-11975764D01*
X48229693Y-11956676D01*
X49477239Y-10709130D01*
X51185081Y-10709130D01*
X51254144Y-10889042D01*
X51450100Y-10992533D01*
X51662481Y-11055806D01*
X51883125Y-11076430D01*
X52103553Y-11053611D01*
X52315293Y-10988228D01*
X52500856Y-10889042D01*
X52569919Y-10709130D01*
X51877500Y-10016711D01*
X51185081Y-10709130D01*
X49477239Y-10709130D01*
X50234744Y-9951625D01*
X50747070Y-9951625D01*
X50769889Y-10172053D01*
X50835272Y-10383793D01*
X50934458Y-10569356D01*
X51114370Y-10638419D01*
X51806789Y-9946000D01*
X51948211Y-9946000D01*
X52640630Y-10638419D01*
X52820542Y-10569356D01*
X52924033Y-10373400D01*
X52987306Y-10161019D01*
X53007930Y-9940375D01*
X52985111Y-9719947D01*
X52919728Y-9508207D01*
X52820542Y-9322644D01*
X52640630Y-9253581D01*
X51948211Y-9946000D01*
X51806789Y-9946000D01*
X51114370Y-9253581D01*
X50934458Y-9322644D01*
X50830967Y-9518600D01*
X50767694Y-9730981D01*
X50747070Y-9951625D01*
X50234744Y-9951625D01*
X51003499Y-9182870D01*
X51185081Y-9182870D01*
X51877500Y-9875289D01*
X52569919Y-9182870D01*
X52557925Y-9151623D01*
X53248869Y-9151623D01*
X53284485Y-9282490D01*
X53368251Y-9459997D01*
X53485037Y-9617752D01*
X53630356Y-9749692D01*
X53798622Y-9850746D01*
X53983370Y-9917031D01*
X54177500Y-9946000D01*
X54527500Y-9946000D01*
X54527500Y-8996000D01*
X53328890Y-8996000D01*
X53248869Y-9151623D01*
X52557925Y-9151623D01*
X52500856Y-9002958D01*
X52304900Y-8899467D01*
X52092519Y-8836194D01*
X51871875Y-8815570D01*
X51651447Y-8838389D01*
X51439707Y-8903772D01*
X51254144Y-9002958D01*
X51185081Y-9182870D01*
X51003499Y-9182870D01*
X51445992Y-8740377D01*
X53248869Y-8740377D01*
X53328890Y-8896000D01*
X54527500Y-8896000D01*
X54527500Y-7946000D01*
X54177500Y-7946000D01*
X53983370Y-7974969D01*
X53798622Y-8041254D01*
X53630356Y-8142308D01*
X53485037Y-8274248D01*
X53368251Y-8432003D01*
X53284485Y-8609510D01*
X53248869Y-8740377D01*
X51445992Y-8740377D01*
X52406181Y-7780189D01*
X52425264Y-7764528D01*
X52487746Y-7688393D01*
X52534175Y-7601531D01*
X52562765Y-7507281D01*
X52570000Y-7433824D01*
X52570000Y-7433823D01*
X52572419Y-7409265D01*
X52570000Y-7384707D01*
X52570000Y-2306715D01*
X52711997Y-2230816D01*
X52887107Y-2087107D01*
X53030816Y-1911997D01*
X53137602Y-1712215D01*
X53197495Y-1514771D01*
X53384197Y-1514771D01*
X53455503Y-1749210D01*
X53571176Y-1965233D01*
X53726770Y-2154539D01*
X53916306Y-2309852D01*
X54132500Y-2425205D01*
X54365229Y-2495801D01*
X54560000Y-2418913D01*
X54560000Y-1320000D01*
X53460998Y-1320000D01*
X53384197Y-1514771D01*
X53197495Y-1514771D01*
X53203360Y-1495439D01*
X53225564Y-1270000D01*
X53203360Y-1044561D01*
X53137602Y-827785D01*
X53030816Y-628003D01*
X52887107Y-452893D01*
X52792194Y-375000D01*
X53739536Y-375000D01*
X53726770Y-385461D01*
X53571176Y-574767D01*
X53455503Y-790790D01*
X53384197Y-1025229D01*
X53460998Y-1220000D01*
X54560000Y-1220000D01*
X54560000Y-1200000D01*
X54660000Y-1200000D01*
X54660000Y-1220000D01*
X54680000Y-1220000D01*
X54680000Y-1320000D01*
X54660000Y-1320000D01*
X54660000Y-2418913D01*
X54854771Y-2495801D01*
X55087500Y-2425205D01*
X55303694Y-2309852D01*
X55493230Y-2154539D01*
X55505000Y-2140219D01*
X55505000Y-8130511D01*
X55356378Y-8041254D01*
X55171630Y-7974969D01*
X54977500Y-7946000D01*
X54627500Y-7946000D01*
X54627500Y-8896000D01*
X54647500Y-8896000D01*
X54647500Y-8996000D01*
X54627500Y-8996000D01*
X54627500Y-9946000D01*
X54977500Y-9946000D01*
X55171630Y-9917031D01*
X55356378Y-9850746D01*
X55505000Y-9761489D01*
X55505001Y-15130511D01*
X55356378Y-15041254D01*
X55171630Y-14974969D01*
X54977500Y-14946000D01*
X54627500Y-14946000D01*
X54627500Y-15896000D01*
X54647500Y-15896000D01*
X54647500Y-15996000D01*
X54627500Y-15996000D01*
X54627500Y-16946000D01*
X54977500Y-16946000D01*
X55171630Y-16917031D01*
X55356378Y-16850746D01*
X55505001Y-16761489D01*
X55505001Y-18179782D01*
X55493230Y-18165461D01*
X55303694Y-18010148D01*
X55087500Y-17894795D01*
X54854771Y-17824199D01*
X54660000Y-17901087D01*
X54660000Y-19000000D01*
X54680000Y-19000000D01*
X54680000Y-19100000D01*
X54660000Y-19100000D01*
X54660000Y-19120000D01*
X54560000Y-19120000D01*
X54560000Y-19100000D01*
X53460998Y-19100000D01*
X53384197Y-19294771D01*
X53455503Y-19529210D01*
X53571176Y-19745233D01*
X53726770Y-19934539D01*
X53739536Y-19945000D01*
X52792194Y-19945000D01*
X52887107Y-19867107D01*
X53030816Y-19691997D01*
X53137602Y-19492215D01*
X53203360Y-19275439D01*
X53225564Y-19050000D01*
X53203360Y-18824561D01*
X53197496Y-18805229D01*
X53384197Y-18805229D01*
X53460998Y-19000000D01*
X54560000Y-19000000D01*
X54560000Y-17901087D01*
X54365229Y-17824199D01*
X54132500Y-17894795D01*
X53916306Y-18010148D01*
X53726770Y-18165461D01*
X53571176Y-18354767D01*
X53455503Y-18570790D01*
X53384197Y-18805229D01*
X53197496Y-18805229D01*
X53137602Y-18607785D01*
X53030816Y-18408003D01*
X52887107Y-18232893D01*
X52711997Y-18089184D01*
X52512215Y-17982398D01*
X52295439Y-17916640D01*
X52126492Y-17900000D01*
X52013508Y-17900000D01*
X51844561Y-17916640D01*
X51627785Y-17982398D01*
X51428003Y-18089184D01*
X51252893Y-18232893D01*
X51109184Y-18408003D01*
X51002398Y-18607785D01*
X50936640Y-18824561D01*
X50914436Y-19050000D01*
X50936640Y-19275439D01*
X51002398Y-19492215D01*
X51109184Y-19691997D01*
X51252893Y-19867107D01*
X51347806Y-19945000D01*
X50252194Y-19945000D01*
X50347107Y-19867107D01*
X50490816Y-19691997D01*
X50597602Y-19492215D01*
X50663360Y-19275439D01*
X50685564Y-19050000D01*
X50663360Y-18824561D01*
X50597602Y-18607785D01*
X50490816Y-18408003D01*
X50347107Y-18232893D01*
X50171997Y-18089184D01*
X49972215Y-17982398D01*
X49755439Y-17916640D01*
X49586492Y-17900000D01*
X49473508Y-17900000D01*
X49304561Y-17916640D01*
X49087785Y-17982398D01*
X48888003Y-18089184D01*
X48712893Y-18232893D01*
X48569184Y-18408003D01*
X48462398Y-18607785D01*
X48396640Y-18824561D01*
X48374436Y-19050000D01*
X48396640Y-19275439D01*
X48462398Y-19492215D01*
X48569184Y-19691997D01*
X48712893Y-19867107D01*
X48807806Y-19945000D01*
X47712194Y-19945000D01*
X47807107Y-19867107D01*
X47950816Y-19691997D01*
X48057602Y-19492215D01*
X48123360Y-19275439D01*
X48145564Y-19050000D01*
X48123360Y-18824561D01*
X48057602Y-18607785D01*
X47950816Y-18408003D01*
X47807107Y-18232893D01*
X47631997Y-18089184D01*
X47432215Y-17982398D01*
X47215439Y-17916640D01*
X47046492Y-17900000D01*
X46933508Y-17900000D01*
X46764561Y-17916640D01*
X46547785Y-17982398D01*
X46348003Y-18089184D01*
X46172893Y-18232893D01*
X46029184Y-18408003D01*
X45922398Y-18607785D01*
X45856640Y-18824561D01*
X45834436Y-19050000D01*
X45856640Y-19275439D01*
X45922398Y-19492215D01*
X46029184Y-19691997D01*
X46172893Y-19867107D01*
X46267806Y-19945000D01*
X45172194Y-19945000D01*
X45267107Y-19867107D01*
X45410816Y-19691997D01*
X45517602Y-19492215D01*
X45583360Y-19275439D01*
X45605564Y-19050000D01*
X45583360Y-18824561D01*
X45517602Y-18607785D01*
X45410816Y-18408003D01*
X45267107Y-18232893D01*
X45091997Y-18089184D01*
X44892215Y-17982398D01*
X44675439Y-17916640D01*
X44506492Y-17900000D01*
X44393508Y-17900000D01*
X44224561Y-17916640D01*
X44007785Y-17982398D01*
X43808003Y-18089184D01*
X43632893Y-18232893D01*
X43489184Y-18408003D01*
X43382398Y-18607785D01*
X43316640Y-18824561D01*
X43294436Y-19050000D01*
X43316640Y-19275439D01*
X43382398Y-19492215D01*
X43489184Y-19691997D01*
X43632893Y-19867107D01*
X43727806Y-19945000D01*
X42632194Y-19945000D01*
X42727107Y-19867107D01*
X42870816Y-19691997D01*
X42977602Y-19492215D01*
X43043360Y-19275439D01*
X43065564Y-19050000D01*
X43043360Y-18824561D01*
X42977602Y-18607785D01*
X42870816Y-18408003D01*
X42727107Y-18232893D01*
X42551997Y-18089184D01*
X42352215Y-17982398D01*
X42135439Y-17916640D01*
X41966492Y-17900000D01*
X41853508Y-17900000D01*
X41684561Y-17916640D01*
X41467785Y-17982398D01*
X41268003Y-18089184D01*
X41092893Y-18232893D01*
X40949184Y-18408003D01*
X40842398Y-18607785D01*
X40776640Y-18824561D01*
X40754436Y-19050000D01*
X40776640Y-19275439D01*
X40842398Y-19492215D01*
X40949184Y-19691997D01*
X41092893Y-19867107D01*
X41187806Y-19945000D01*
X40092194Y-19945000D01*
X40187107Y-19867107D01*
X40330816Y-19691997D01*
X40437602Y-19492215D01*
X40503360Y-19275439D01*
X40525564Y-19050000D01*
X40503360Y-18824561D01*
X40437602Y-18607785D01*
X40330816Y-18408003D01*
X40187107Y-18232893D01*
X40011997Y-18089184D01*
X39812215Y-17982398D01*
X39595439Y-17916640D01*
X39426492Y-17900000D01*
X39313508Y-17900000D01*
X39144561Y-17916640D01*
X38927785Y-17982398D01*
X38728003Y-18089184D01*
X38552893Y-18232893D01*
X38409184Y-18408003D01*
X38302398Y-18607785D01*
X38236640Y-18824561D01*
X38214436Y-19050000D01*
X38236640Y-19275439D01*
X38302398Y-19492215D01*
X38409184Y-19691997D01*
X38552893Y-19867107D01*
X38647806Y-19945000D01*
X37552194Y-19945000D01*
X37647107Y-19867107D01*
X37790816Y-19691997D01*
X37897602Y-19492215D01*
X37963360Y-19275439D01*
X37985564Y-19050000D01*
X37963360Y-18824561D01*
X37897602Y-18607785D01*
X37790816Y-18408003D01*
X37647107Y-18232893D01*
X37471997Y-18089184D01*
X37272215Y-17982398D01*
X37055439Y-17916640D01*
X36886492Y-17900000D01*
X36773508Y-17900000D01*
X36604561Y-17916640D01*
X36387785Y-17982398D01*
X36188003Y-18089184D01*
X36012893Y-18232893D01*
X35869184Y-18408003D01*
X35762398Y-18607785D01*
X35696640Y-18824561D01*
X35674436Y-19050000D01*
X35696640Y-19275439D01*
X35762398Y-19492215D01*
X35869184Y-19691997D01*
X36012893Y-19867107D01*
X36107806Y-19945000D01*
X35012194Y-19945000D01*
X35107107Y-19867107D01*
X35250816Y-19691997D01*
X35357602Y-19492215D01*
X35423360Y-19275439D01*
X35445564Y-19050000D01*
X35423360Y-18824561D01*
X35357602Y-18607785D01*
X35250816Y-18408003D01*
X35107107Y-18232893D01*
X34931997Y-18089184D01*
X34732215Y-17982398D01*
X34515439Y-17916640D01*
X34346492Y-17900000D01*
X34233508Y-17900000D01*
X34064561Y-17916640D01*
X33847785Y-17982398D01*
X33648003Y-18089184D01*
X33472893Y-18232893D01*
X33329184Y-18408003D01*
X33222398Y-18607785D01*
X33156640Y-18824561D01*
X33134436Y-19050000D01*
X33156640Y-19275439D01*
X33222398Y-19492215D01*
X33329184Y-19691997D01*
X33472893Y-19867107D01*
X33567806Y-19945000D01*
X32472194Y-19945000D01*
X32567107Y-19867107D01*
X32710816Y-19691997D01*
X32817602Y-19492215D01*
X32883360Y-19275439D01*
X32905564Y-19050000D01*
X32883360Y-18824561D01*
X32817602Y-18607785D01*
X32710816Y-18408003D01*
X32567107Y-18232893D01*
X32391997Y-18089184D01*
X32192215Y-17982398D01*
X31975439Y-17916640D01*
X31806492Y-17900000D01*
X31693508Y-17900000D01*
X31524561Y-17916640D01*
X31307785Y-17982398D01*
X31108003Y-18089184D01*
X30932893Y-18232893D01*
X30789184Y-18408003D01*
X30682398Y-18607785D01*
X30616640Y-18824561D01*
X30594436Y-19050000D01*
X30616640Y-19275439D01*
X30682398Y-19492215D01*
X30789184Y-19691997D01*
X30932893Y-19867107D01*
X31027806Y-19945000D01*
X29932194Y-19945000D01*
X30027107Y-19867107D01*
X30170816Y-19691997D01*
X30277602Y-19492215D01*
X30343360Y-19275439D01*
X30365564Y-19050000D01*
X30343360Y-18824561D01*
X30277602Y-18607785D01*
X30170816Y-18408003D01*
X30027107Y-18232893D01*
X29851997Y-18089184D01*
X29652215Y-17982398D01*
X29435439Y-17916640D01*
X29266492Y-17900000D01*
X29153508Y-17900000D01*
X28984561Y-17916640D01*
X28767785Y-17982398D01*
X28568003Y-18089184D01*
X28392893Y-18232893D01*
X28249184Y-18408003D01*
X28142398Y-18607785D01*
X28076640Y-18824561D01*
X28054436Y-19050000D01*
X28076640Y-19275439D01*
X28142398Y-19492215D01*
X28249184Y-19691997D01*
X28392893Y-19867107D01*
X28487806Y-19945000D01*
X27392194Y-19945000D01*
X27487107Y-19867107D01*
X27630816Y-19691997D01*
X27737602Y-19492215D01*
X27803360Y-19275439D01*
X27825564Y-19050000D01*
X27803360Y-18824561D01*
X27737602Y-18607785D01*
X27630816Y-18408003D01*
X27487107Y-18232893D01*
X27311997Y-18089184D01*
X27112215Y-17982398D01*
X26895439Y-17916640D01*
X26726492Y-17900000D01*
X26613508Y-17900000D01*
X26444561Y-17916640D01*
X26227785Y-17982398D01*
X26028003Y-18089184D01*
X25852893Y-18232893D01*
X25709184Y-18408003D01*
X25602398Y-18607785D01*
X25536640Y-18824561D01*
X25514436Y-19050000D01*
X25536640Y-19275439D01*
X25602398Y-19492215D01*
X25709184Y-19691997D01*
X25852893Y-19867107D01*
X25947806Y-19945000D01*
X24852194Y-19945000D01*
X24947107Y-19867107D01*
X25090816Y-19691997D01*
X25197602Y-19492215D01*
X25263360Y-19275439D01*
X25285564Y-19050000D01*
X25263360Y-18824561D01*
X25197602Y-18607785D01*
X25090816Y-18408003D01*
X24947107Y-18232893D01*
X24771997Y-18089184D01*
X24572215Y-17982398D01*
X24355439Y-17916640D01*
X24186492Y-17900000D01*
X24073508Y-17900000D01*
X23904561Y-17916640D01*
X23687785Y-17982398D01*
X23488003Y-18089184D01*
X23312893Y-18232893D01*
X23169184Y-18408003D01*
X23062398Y-18607785D01*
X22996640Y-18824561D01*
X22974436Y-19050000D01*
X22996640Y-19275439D01*
X23062398Y-19492215D01*
X23169184Y-19691997D01*
X23312893Y-19867107D01*
X23407806Y-19945000D01*
X22312194Y-19945000D01*
X22407107Y-19867107D01*
X22550816Y-19691997D01*
X22657602Y-19492215D01*
X22723360Y-19275439D01*
X22745564Y-19050000D01*
X22723360Y-18824561D01*
X22657602Y-18607785D01*
X22550816Y-18408003D01*
X22407107Y-18232893D01*
X22231997Y-18089184D01*
X22032215Y-17982398D01*
X21815439Y-17916640D01*
X21646492Y-17900000D01*
X21533508Y-17900000D01*
X21364561Y-17916640D01*
X21147785Y-17982398D01*
X20948003Y-18089184D01*
X20772893Y-18232893D01*
X20629184Y-18408003D01*
X20522398Y-18607785D01*
X20456640Y-18824561D01*
X20434436Y-19050000D01*
X20456640Y-19275439D01*
X20522398Y-19492215D01*
X20629184Y-19691997D01*
X20772893Y-19867107D01*
X20867806Y-19945000D01*
X19772194Y-19945000D01*
X19867107Y-19867107D01*
X20010816Y-19691997D01*
X20117602Y-19492215D01*
X20183360Y-19275439D01*
X20205564Y-19050000D01*
X20183360Y-18824561D01*
X20117602Y-18607785D01*
X20010816Y-18408003D01*
X19867107Y-18232893D01*
X19691997Y-18089184D01*
X19492215Y-17982398D01*
X19275439Y-17916640D01*
X19106492Y-17900000D01*
X18993508Y-17900000D01*
X18824561Y-17916640D01*
X18607785Y-17982398D01*
X18408003Y-18089184D01*
X18232893Y-18232893D01*
X18089184Y-18408003D01*
X17982398Y-18607785D01*
X17916640Y-18824561D01*
X17894436Y-19050000D01*
X17916640Y-19275439D01*
X17982398Y-19492215D01*
X18089184Y-19691997D01*
X18232893Y-19867107D01*
X18327806Y-19945000D01*
X17232194Y-19945000D01*
X17327107Y-19867107D01*
X17470816Y-19691997D01*
X17577602Y-19492215D01*
X17643360Y-19275439D01*
X17665564Y-19050000D01*
X17643360Y-18824561D01*
X17577602Y-18607785D01*
X17470816Y-18408003D01*
X17327107Y-18232893D01*
X17151997Y-18089184D01*
X16952215Y-17982398D01*
X16735439Y-17916640D01*
X16566492Y-17900000D01*
X16453508Y-17900000D01*
X16284561Y-17916640D01*
X16067785Y-17982398D01*
X15868003Y-18089184D01*
X15692893Y-18232893D01*
X15549184Y-18408003D01*
X15442398Y-18607785D01*
X15376640Y-18824561D01*
X15354436Y-19050000D01*
X15376640Y-19275439D01*
X15442398Y-19492215D01*
X15549184Y-19691997D01*
X15692893Y-19867107D01*
X15787806Y-19945000D01*
X14692194Y-19945000D01*
X14787107Y-19867107D01*
X14930816Y-19691997D01*
X15037602Y-19492215D01*
X15103360Y-19275439D01*
X15125564Y-19050000D01*
X15103360Y-18824561D01*
X15037602Y-18607785D01*
X14930816Y-18408003D01*
X14787107Y-18232893D01*
X14611997Y-18089184D01*
X14412215Y-17982398D01*
X14195439Y-17916640D01*
X14026492Y-17900000D01*
X13913508Y-17900000D01*
X13744561Y-17916640D01*
X13527785Y-17982398D01*
X13328003Y-18089184D01*
X13152893Y-18232893D01*
X13009184Y-18408003D01*
X12902398Y-18607785D01*
X12836640Y-18824561D01*
X12814436Y-19050000D01*
X12836640Y-19275439D01*
X12902398Y-19492215D01*
X13009184Y-19691997D01*
X13152893Y-19867107D01*
X13247806Y-19945000D01*
X12152194Y-19945000D01*
X12247107Y-19867107D01*
X12390816Y-19691997D01*
X12497602Y-19492215D01*
X12563360Y-19275439D01*
X12585564Y-19050000D01*
X12563360Y-18824561D01*
X12497602Y-18607785D01*
X12390816Y-18408003D01*
X12247107Y-18232893D01*
X12071997Y-18089184D01*
X11872215Y-17982398D01*
X11655439Y-17916640D01*
X11486492Y-17900000D01*
X11373508Y-17900000D01*
X11204561Y-17916640D01*
X10987785Y-17982398D01*
X10788003Y-18089184D01*
X10612893Y-18232893D01*
X10469184Y-18408003D01*
X10362398Y-18607785D01*
X10296640Y-18824561D01*
X10274436Y-19050000D01*
X10296640Y-19275439D01*
X10362398Y-19492215D01*
X10469184Y-19691997D01*
X10612893Y-19867107D01*
X10707806Y-19945000D01*
X9612194Y-19945000D01*
X9707107Y-19867107D01*
X9850816Y-19691997D01*
X9957602Y-19492215D01*
X10023360Y-19275439D01*
X10045564Y-19050000D01*
X10023360Y-18824561D01*
X9957602Y-18607785D01*
X9850816Y-18408003D01*
X9707107Y-18232893D01*
X9531997Y-18089184D01*
X9332215Y-17982398D01*
X9115439Y-17916640D01*
X8946492Y-17900000D01*
X8833508Y-17900000D01*
X8664561Y-17916640D01*
X8447785Y-17982398D01*
X8248003Y-18089184D01*
X8072893Y-18232893D01*
X7929184Y-18408003D01*
X7822398Y-18607785D01*
X7756640Y-18824561D01*
X7734436Y-19050000D01*
X7756640Y-19275439D01*
X7822398Y-19492215D01*
X7929184Y-19691997D01*
X8072893Y-19867107D01*
X8167806Y-19945000D01*
X7072194Y-19945000D01*
X7167107Y-19867107D01*
X7310816Y-19691997D01*
X7417602Y-19492215D01*
X7483360Y-19275439D01*
X7505564Y-19050000D01*
X7483360Y-18824561D01*
X7417602Y-18607785D01*
X7310816Y-18408003D01*
X7167107Y-18232893D01*
X6991997Y-18089184D01*
X6792215Y-17982398D01*
X6575439Y-17916640D01*
X6406492Y-17900000D01*
X6293508Y-17900000D01*
X6124561Y-17916640D01*
X5907785Y-17982398D01*
X5708003Y-18089184D01*
X5532893Y-18232893D01*
X5389184Y-18408003D01*
X5282398Y-18607785D01*
X5216640Y-18824561D01*
X5194436Y-19050000D01*
X5216640Y-19275439D01*
X5282398Y-19492215D01*
X5389184Y-19691997D01*
X5532893Y-19867107D01*
X5627806Y-19945000D01*
X4532194Y-19945000D01*
X4627107Y-19867107D01*
X4770816Y-19691997D01*
X4877602Y-19492215D01*
X4943360Y-19275439D01*
X4965564Y-19050000D01*
X4943360Y-18824561D01*
X4877602Y-18607785D01*
X4770816Y-18408003D01*
X4627107Y-18232893D01*
X4451997Y-18089184D01*
X4252215Y-17982398D01*
X4035439Y-17916640D01*
X3866492Y-17900000D01*
X3753508Y-17900000D01*
X3584561Y-17916640D01*
X3367785Y-17982398D01*
X3168003Y-18089184D01*
X2992893Y-18232893D01*
X2849184Y-18408003D01*
X2742398Y-18607785D01*
X2676640Y-18824561D01*
X2654436Y-19050000D01*
X2676640Y-19275439D01*
X2742398Y-19492215D01*
X2849184Y-19691997D01*
X2992893Y-19867107D01*
X3087806Y-19945000D01*
X2517503Y-19945000D01*
X2521935Y-19900000D01*
X2520000Y-19200000D01*
X2420000Y-19100000D01*
X1320000Y-19100000D01*
X1320000Y-19120000D01*
X1220000Y-19120000D01*
X1220000Y-19100000D01*
X1200000Y-19100000D01*
X1200000Y-19000000D01*
X1220000Y-19000000D01*
X1220000Y-17900000D01*
X1320000Y-17900000D01*
X1320000Y-19000000D01*
X2420000Y-19000000D01*
X2520000Y-18900000D01*
X2521935Y-18200000D01*
X2514212Y-18121586D01*
X2491340Y-18046186D01*
X2454197Y-17976697D01*
X2404211Y-17915789D01*
X2343303Y-17865803D01*
X2273814Y-17828660D01*
X2198414Y-17805788D01*
X2120000Y-17798065D01*
X1420000Y-17800000D01*
X1320000Y-17900000D01*
X1220000Y-17900000D01*
X1120000Y-17800000D01*
X420000Y-17798065D01*
X375000Y-17802497D01*
X375000Y-16187056D01*
X703990Y-16187056D01*
X703990Y-16324944D01*
X730891Y-16460182D01*
X783658Y-16587574D01*
X860264Y-16702224D01*
X957766Y-16799726D01*
X1072416Y-16876332D01*
X1199808Y-16929099D01*
X1335046Y-16956000D01*
X1472934Y-16956000D01*
X1608172Y-16929099D01*
X1735564Y-16876332D01*
X1850214Y-16799726D01*
X1893940Y-16756000D01*
X36678440Y-16756000D01*
X36703000Y-16758419D01*
X36727560Y-16756000D01*
X36801017Y-16748765D01*
X36895267Y-16720175D01*
X36982129Y-16673746D01*
X37058264Y-16611264D01*
X37073929Y-16592176D01*
X42545001Y-11121106D01*
X47825598Y-16401705D01*
X47841254Y-16420782D01*
X47917389Y-16483264D01*
X48004251Y-16529693D01*
X48098501Y-16558283D01*
X48171958Y-16565518D01*
X48171967Y-16565518D01*
X48196517Y-16567936D01*
X48221067Y-16565518D01*
X50183050Y-16565518D01*
X50226776Y-16609244D01*
X50341426Y-16685850D01*
X50468818Y-16738617D01*
X50604056Y-16765518D01*
X50741944Y-16765518D01*
X50877182Y-16738617D01*
X51004574Y-16685850D01*
X51119224Y-16609244D01*
X51216726Y-16511742D01*
X51293332Y-16397092D01*
X51346099Y-16269700D01*
X51369586Y-16151623D01*
X53248869Y-16151623D01*
X53284485Y-16282490D01*
X53368251Y-16459997D01*
X53485037Y-16617752D01*
X53630356Y-16749692D01*
X53798622Y-16850746D01*
X53983370Y-16917031D01*
X54177500Y-16946000D01*
X54527500Y-16946000D01*
X54527500Y-15996000D01*
X53328890Y-15996000D01*
X53248869Y-16151623D01*
X51369586Y-16151623D01*
X51373000Y-16134462D01*
X51373000Y-15996574D01*
X51363051Y-15946560D01*
X51450100Y-15992533D01*
X51662481Y-16055806D01*
X51883125Y-16076430D01*
X52103553Y-16053611D01*
X52315293Y-15988228D01*
X52500856Y-15889042D01*
X52557924Y-15740377D01*
X53248869Y-15740377D01*
X53328890Y-15896000D01*
X54527500Y-15896000D01*
X54527500Y-14946000D01*
X54177500Y-14946000D01*
X53983370Y-14974969D01*
X53798622Y-15041254D01*
X53630356Y-15142308D01*
X53485037Y-15274248D01*
X53368251Y-15432003D01*
X53284485Y-15609510D01*
X53248869Y-15740377D01*
X52557924Y-15740377D01*
X52569919Y-15709130D01*
X51877500Y-15016711D01*
X51863358Y-15030853D01*
X51792647Y-14960142D01*
X51806789Y-14946000D01*
X51948211Y-14946000D01*
X52640630Y-15638419D01*
X52820542Y-15569356D01*
X52924033Y-15373400D01*
X52987306Y-15161019D01*
X53007930Y-14940375D01*
X52985111Y-14719947D01*
X52919728Y-14508207D01*
X52820542Y-14322644D01*
X52640630Y-14253581D01*
X51948211Y-14946000D01*
X51806789Y-14946000D01*
X51114370Y-14253581D01*
X50934458Y-14322644D01*
X50830967Y-14518600D01*
X50767694Y-14730981D01*
X50747070Y-14951625D01*
X50769889Y-15172053D01*
X50835272Y-15383793D01*
X50835445Y-15384117D01*
X50741944Y-15365518D01*
X50604056Y-15365518D01*
X50468818Y-15392419D01*
X50341426Y-15445186D01*
X50226776Y-15521792D01*
X50183050Y-15565518D01*
X48403625Y-15565518D01*
X47020977Y-14182870D01*
X51185081Y-14182870D01*
X51877500Y-14875289D01*
X52569919Y-14182870D01*
X52500856Y-14002958D01*
X52304900Y-13899467D01*
X52092519Y-13836194D01*
X51871875Y-13815570D01*
X51651447Y-13838389D01*
X51439707Y-13903772D01*
X51254144Y-14002958D01*
X51185081Y-14182870D01*
X47020977Y-14182870D01*
X43245000Y-10406895D01*
X43245000Y-10345056D01*
X43218099Y-10209818D01*
X43165332Y-10082426D01*
X43088726Y-9967776D01*
X42991224Y-9870274D01*
X42876574Y-9793668D01*
X42749182Y-9740901D01*
X42613944Y-9714000D01*
X42476056Y-9714000D01*
X42340818Y-9740901D01*
X42213426Y-9793668D01*
X42098776Y-9870274D01*
X42001274Y-9967776D01*
X41924668Y-10082426D01*
X41871901Y-10209818D01*
X41845000Y-10345056D01*
X41845000Y-10406893D01*
X36495895Y-15756000D01*
X1893940Y-15756000D01*
X1850214Y-15712274D01*
X1735564Y-15635668D01*
X1608172Y-15582901D01*
X1472934Y-15556000D01*
X1335046Y-15556000D01*
X1199808Y-15582901D01*
X1072416Y-15635668D01*
X957766Y-15712274D01*
X860264Y-15809776D01*
X783658Y-15924426D01*
X730891Y-16051818D01*
X703990Y-16187056D01*
X375000Y-16187056D01*
X375000Y-14214771D01*
X2584199Y-14214771D01*
X2654795Y-14447500D01*
X2770148Y-14663694D01*
X2925461Y-14853230D01*
X3114767Y-15008824D01*
X3330790Y-15124497D01*
X3565229Y-15195803D01*
X3760000Y-15119002D01*
X3760000Y-14020000D01*
X3860000Y-14020000D01*
X3860000Y-15119002D01*
X4054771Y-15195803D01*
X4289210Y-15124497D01*
X4505233Y-15008824D01*
X4694539Y-14853230D01*
X4849852Y-14663694D01*
X4965205Y-14447500D01*
X5035801Y-14214771D01*
X4958913Y-14020000D01*
X3860000Y-14020000D01*
X3760000Y-14020000D01*
X2661087Y-14020000D01*
X2584199Y-14214771D01*
X375000Y-14214771D01*
X375000Y-10287000D01*
X2035182Y-10287000D01*
X2037000Y-10305460D01*
X2037001Y-11856030D01*
X2035182Y-11874500D01*
X2042441Y-11948208D01*
X2063941Y-12019084D01*
X2063942Y-12019085D01*
X2098856Y-12084405D01*
X2145843Y-12141658D01*
X2160187Y-12153430D01*
X2959569Y-12952813D01*
X2971342Y-12967158D01*
X3021203Y-13008078D01*
X2925461Y-13086770D01*
X2770148Y-13276306D01*
X2654795Y-13492500D01*
X2584199Y-13725229D01*
X2661087Y-13920000D01*
X3760000Y-13920000D01*
X3760000Y-13900000D01*
X3860000Y-13900000D01*
X3860000Y-13920000D01*
X4958913Y-13920000D01*
X5035801Y-13725229D01*
X4965205Y-13492500D01*
X4849852Y-13276306D01*
X4694539Y-13086770D01*
X4681436Y-13076000D01*
X6448257Y-13076000D01*
X8547575Y-15175320D01*
X8559342Y-15189658D01*
X8573680Y-15201425D01*
X8573686Y-15201431D01*
X8616594Y-15236644D01*
X8616595Y-15236645D01*
X8681915Y-15271559D01*
X8752791Y-15293059D01*
X8808032Y-15298500D01*
X8808040Y-15298500D01*
X8826500Y-15300318D01*
X8844960Y-15298500D01*
X27167331Y-15298500D01*
X27185791Y-15300318D01*
X27204251Y-15298500D01*
X27204259Y-15298500D01*
X27259500Y-15293059D01*
X27330376Y-15271559D01*
X27395696Y-15236645D01*
X27452949Y-15189658D01*
X27464725Y-15175309D01*
X32721117Y-9918918D01*
X32728758Y-9920438D01*
X32846948Y-9920438D01*
X32962867Y-9897380D01*
X33072060Y-9852151D01*
X33170331Y-9786488D01*
X33253903Y-9702916D01*
X33319566Y-9604645D01*
X33364795Y-9495452D01*
X33387853Y-9379533D01*
X33387853Y-9261343D01*
X33364795Y-9145424D01*
X33319566Y-9036231D01*
X33253903Y-8937960D01*
X33170331Y-8854388D01*
X33072060Y-8788725D01*
X32962867Y-8743496D01*
X32846948Y-8720438D01*
X32731008Y-8720438D01*
X32731008Y-8640405D01*
X32707950Y-8524486D01*
X32662721Y-8415293D01*
X32597058Y-8317022D01*
X32513486Y-8233450D01*
X32415215Y-8167787D01*
X32306022Y-8122558D01*
X32190103Y-8099500D01*
X32071913Y-8099500D01*
X31955994Y-8122558D01*
X31846801Y-8167787D01*
X31748530Y-8233450D01*
X31664958Y-8317022D01*
X31599295Y-8415293D01*
X31554066Y-8524486D01*
X31531008Y-8640405D01*
X31531008Y-8758595D01*
X31533212Y-8769675D01*
X31516865Y-8789594D01*
X31508429Y-8805377D01*
X31481950Y-8854915D01*
X31460450Y-8925791D01*
X31453191Y-8999499D01*
X31455010Y-9017969D01*
X31455009Y-9669246D01*
X26881768Y-14242489D01*
X9108169Y-14242489D01*
X6042870Y-11177191D01*
X6031094Y-11162842D01*
X5973841Y-11115855D01*
X5908521Y-11080941D01*
X5837645Y-11059441D01*
X5782404Y-11054000D01*
X5782396Y-11054000D01*
X5763936Y-11052182D01*
X5745476Y-11054000D01*
X4897688Y-11054000D01*
X4877602Y-10987785D01*
X4770816Y-10788003D01*
X4627107Y-10612893D01*
X4451997Y-10469184D01*
X4252215Y-10362398D01*
X4035439Y-10296640D01*
X3866492Y-10280000D01*
X3753508Y-10280000D01*
X3584561Y-10296640D01*
X3367785Y-10362398D01*
X3168003Y-10469184D01*
X2992893Y-10612893D01*
X2849184Y-10788003D01*
X2789000Y-10900599D01*
X2789000Y-10442743D01*
X3306760Y-9924983D01*
X3367785Y-9957602D01*
X3584561Y-10023360D01*
X3753508Y-10040000D01*
X3866492Y-10040000D01*
X4035439Y-10023360D01*
X4252215Y-9957602D01*
X4451997Y-9850816D01*
X4627107Y-9707107D01*
X4770816Y-9531997D01*
X4877602Y-9332215D01*
X4943360Y-9115439D01*
X4965564Y-8890000D01*
X4943360Y-8664561D01*
X4877602Y-8447785D01*
X4770816Y-8248003D01*
X4627107Y-8072893D01*
X4587027Y-8040000D01*
X5198549Y-8040000D01*
X5198549Y-9740000D01*
X5204341Y-9798810D01*
X5221496Y-9855360D01*
X5249353Y-9907477D01*
X5286842Y-9953158D01*
X5332523Y-9990647D01*
X5384640Y-10018504D01*
X5441190Y-10035659D01*
X5500000Y-10041451D01*
X7200000Y-10041451D01*
X7258810Y-10035659D01*
X7315360Y-10018504D01*
X7367477Y-9990647D01*
X7413158Y-9953158D01*
X7450647Y-9907477D01*
X7478504Y-9855360D01*
X7495659Y-9798810D01*
X7501451Y-9740000D01*
X7501451Y-9571194D01*
X11708575Y-13778320D01*
X11720342Y-13792658D01*
X11734680Y-13804425D01*
X11734686Y-13804431D01*
X11756287Y-13822158D01*
X11777595Y-13839645D01*
X11842915Y-13874559D01*
X11913791Y-13896059D01*
X11969032Y-13901500D01*
X11969040Y-13901500D01*
X11987500Y-13903318D01*
X12005960Y-13901500D01*
X24302040Y-13901500D01*
X24320500Y-13903318D01*
X24338960Y-13901500D01*
X24338968Y-13901500D01*
X24394209Y-13896059D01*
X24465085Y-13874559D01*
X24530405Y-13839645D01*
X24587658Y-13792658D01*
X24599434Y-13778309D01*
X30381744Y-7996000D01*
X30454122Y-7996000D01*
X30458450Y-8002478D01*
X30542022Y-8086050D01*
X30640293Y-8151713D01*
X30749486Y-8196942D01*
X30865405Y-8220000D01*
X30983595Y-8220000D01*
X31099514Y-8196942D01*
X31208707Y-8151713D01*
X31306978Y-8086050D01*
X31390550Y-8002478D01*
X31456213Y-7904207D01*
X31501442Y-7795014D01*
X31524500Y-7679095D01*
X31524500Y-7560905D01*
X31501442Y-7444986D01*
X31456213Y-7335793D01*
X31390550Y-7237522D01*
X31306978Y-7153950D01*
X31208707Y-7088287D01*
X31099514Y-7043058D01*
X30983595Y-7020000D01*
X30865405Y-7020000D01*
X30749486Y-7043058D01*
X30640293Y-7088287D01*
X30542022Y-7153950D01*
X30458450Y-7237522D01*
X30454122Y-7244000D01*
X30244459Y-7244000D01*
X30225999Y-7242182D01*
X30207539Y-7244000D01*
X30207532Y-7244000D01*
X30152291Y-7249441D01*
X30081415Y-7270941D01*
X30016095Y-7305855D01*
X29958842Y-7352842D01*
X29947070Y-7367186D01*
X28845427Y-8468829D01*
X28792794Y-8390058D01*
X28709222Y-8306486D01*
X28610951Y-8240823D01*
X28501758Y-8195594D01*
X28385839Y-8172536D01*
X28267649Y-8172536D01*
X28167151Y-8192527D01*
X28154213Y-8161291D01*
X28088550Y-8063020D01*
X28004978Y-7979448D01*
X27906707Y-7913785D01*
X27797514Y-7868556D01*
X27681595Y-7845498D01*
X27563405Y-7845498D01*
X27447486Y-7868556D01*
X27338293Y-7913785D01*
X27240022Y-7979448D01*
X27156450Y-8063020D01*
X27090787Y-8161291D01*
X27045558Y-8270484D01*
X27042140Y-8287667D01*
X27017148Y-8227331D01*
X26951485Y-8129060D01*
X26867913Y-8045488D01*
X26769642Y-7979825D01*
X26660449Y-7934596D01*
X26544530Y-7911538D01*
X26426340Y-7911538D01*
X26310421Y-7934596D01*
X26201228Y-7979825D01*
X26102957Y-8045488D01*
X26019385Y-8129060D01*
X25953722Y-8227331D01*
X25908493Y-8336524D01*
X25885435Y-8452443D01*
X25885435Y-8570633D01*
X25908493Y-8686552D01*
X25953722Y-8795745D01*
X26019385Y-8894016D01*
X26102957Y-8977588D01*
X26201228Y-9043251D01*
X26310421Y-9088480D01*
X26426340Y-9111538D01*
X26544530Y-9111538D01*
X26660449Y-9088480D01*
X26769642Y-9043251D01*
X26867913Y-8977588D01*
X26951485Y-8894016D01*
X27017148Y-8795745D01*
X27062377Y-8686552D01*
X27065795Y-8669369D01*
X27090787Y-8729705D01*
X27156450Y-8827976D01*
X27240022Y-8911548D01*
X27246501Y-8915877D01*
X27246501Y-9051754D01*
X23847257Y-12451000D01*
X20123053Y-12451000D01*
X20154000Y-12295416D01*
X20154000Y-12088584D01*
X20113650Y-11885726D01*
X20034498Y-11694638D01*
X19919589Y-11522664D01*
X19773336Y-11376411D01*
X19601362Y-11261502D01*
X19410274Y-11182350D01*
X19207416Y-11142000D01*
X19000584Y-11142000D01*
X18797726Y-11182350D01*
X18683082Y-11229838D01*
X16374636Y-8921392D01*
X16404550Y-8891478D01*
X16470213Y-8793207D01*
X16515442Y-8684014D01*
X16538500Y-8568095D01*
X16538500Y-8449905D01*
X16515442Y-8333986D01*
X16470213Y-8224793D01*
X16404550Y-8126522D01*
X16320978Y-8042950D01*
X16222707Y-7977287D01*
X16113514Y-7932058D01*
X15997595Y-7909000D01*
X15879405Y-7909000D01*
X15763486Y-7932058D01*
X15654293Y-7977287D01*
X15556022Y-8042950D01*
X15472450Y-8126522D01*
X15406787Y-8224793D01*
X15361558Y-8333986D01*
X15338500Y-8449905D01*
X15338500Y-8568095D01*
X15361558Y-8684014D01*
X15406787Y-8793207D01*
X15472450Y-8891478D01*
X15556022Y-8975050D01*
X15562500Y-8979379D01*
X15562500Y-8998539D01*
X15560682Y-9017000D01*
X15562500Y-9035460D01*
X15562500Y-9035467D01*
X15567941Y-9090708D01*
X15589441Y-9161584D01*
X15624355Y-9226904D01*
X15671342Y-9284158D01*
X15685691Y-9295934D01*
X18147403Y-11757647D01*
X18094350Y-11885726D01*
X18054000Y-12088584D01*
X18054000Y-12295416D01*
X18094350Y-12498274D01*
X18173502Y-12689362D01*
X18268809Y-12832000D01*
X15395745Y-12832000D01*
X15183380Y-12619636D01*
X15233650Y-12498274D01*
X15274000Y-12295416D01*
X15274000Y-12088584D01*
X15233650Y-11885726D01*
X15154498Y-11694638D01*
X15039589Y-11522664D01*
X14893336Y-11376411D01*
X14721362Y-11261502D01*
X14530274Y-11182350D01*
X14327416Y-11142000D01*
X14120584Y-11142000D01*
X13917726Y-11182350D01*
X13796364Y-11232620D01*
X12250500Y-9686757D01*
X12250500Y-8979378D01*
X12256978Y-8975050D01*
X12340550Y-8891478D01*
X12406213Y-8793207D01*
X12451442Y-8684014D01*
X12474500Y-8568095D01*
X12474500Y-8449905D01*
X12451442Y-8333986D01*
X12406213Y-8224793D01*
X12340550Y-8126522D01*
X12256978Y-8042950D01*
X12158707Y-7977287D01*
X12049514Y-7932058D01*
X11933595Y-7909000D01*
X11815405Y-7909000D01*
X11699486Y-7932058D01*
X11590293Y-7977287D01*
X11492022Y-8042950D01*
X11408450Y-8126522D01*
X11342787Y-8224793D01*
X11297558Y-8333986D01*
X11274500Y-8449905D01*
X11274500Y-8568095D01*
X11297558Y-8684014D01*
X11342787Y-8793207D01*
X11408450Y-8891478D01*
X11492022Y-8975050D01*
X11498500Y-8979379D01*
X11498501Y-9824030D01*
X11496682Y-9842500D01*
X11503941Y-9916208D01*
X11525441Y-9987084D01*
X11525442Y-9987085D01*
X11560356Y-10052405D01*
X11565552Y-10058736D01*
X11592974Y-10092149D01*
X11607343Y-10109658D01*
X11621687Y-10121430D01*
X13264620Y-11764364D01*
X13214350Y-11885726D01*
X13174000Y-12088584D01*
X13174000Y-12295416D01*
X13214350Y-12498274D01*
X13293502Y-12689362D01*
X13408411Y-12861336D01*
X13554664Y-13007589D01*
X13726638Y-13122498D01*
X13791826Y-13149500D01*
X12143245Y-13149500D01*
X7630934Y-8637191D01*
X7619158Y-8622842D01*
X7561905Y-8575855D01*
X7501451Y-8543542D01*
X7501451Y-8040000D01*
X7495659Y-7981190D01*
X7478504Y-7924640D01*
X7450647Y-7872523D01*
X7413158Y-7826842D01*
X7367477Y-7789353D01*
X7315360Y-7761496D01*
X7258810Y-7744341D01*
X7200000Y-7738549D01*
X5500000Y-7738549D01*
X5441190Y-7744341D01*
X5384640Y-7761496D01*
X5332523Y-7789353D01*
X5286842Y-7826842D01*
X5249353Y-7872523D01*
X5221496Y-7924640D01*
X5204341Y-7981190D01*
X5198549Y-8040000D01*
X4587027Y-8040000D01*
X4451997Y-7929184D01*
X4252215Y-7822398D01*
X4035439Y-7756640D01*
X3866492Y-7740000D01*
X3753508Y-7740000D01*
X3584561Y-7756640D01*
X3367785Y-7822398D01*
X3168003Y-7929184D01*
X2992893Y-8072893D01*
X2849184Y-8248003D01*
X2742398Y-8447785D01*
X2676640Y-8664561D01*
X2654436Y-8890000D01*
X2676640Y-9115439D01*
X2742398Y-9332215D01*
X2775017Y-9393240D01*
X2160191Y-10008066D01*
X2145842Y-10019842D01*
X2098855Y-10077096D01*
X2063941Y-10142416D01*
X2042441Y-10213292D01*
X2037000Y-10268533D01*
X2037000Y-10268540D01*
X2035182Y-10287000D01*
X375000Y-10287000D01*
X375000Y-5500000D01*
X2658549Y-5500000D01*
X2658549Y-7200000D01*
X2664341Y-7258810D01*
X2681496Y-7315360D01*
X2709353Y-7367477D01*
X2746842Y-7413158D01*
X2792523Y-7450647D01*
X2844640Y-7478504D01*
X2901190Y-7495659D01*
X2960000Y-7501451D01*
X4660000Y-7501451D01*
X4718810Y-7495659D01*
X4775360Y-7478504D01*
X4827477Y-7450647D01*
X4873158Y-7413158D01*
X4910647Y-7367477D01*
X4938504Y-7315360D01*
X4955659Y-7258810D01*
X4961451Y-7200000D01*
X4961451Y-6850000D01*
X5313285Y-6850000D01*
X5389184Y-6991997D01*
X5532893Y-7167107D01*
X5708003Y-7310816D01*
X5907785Y-7417602D01*
X6124561Y-7483360D01*
X6293508Y-7500000D01*
X6406492Y-7500000D01*
X6575439Y-7483360D01*
X6792215Y-7417602D01*
X6991997Y-7310816D01*
X7167107Y-7167107D01*
X7310816Y-6991997D01*
X7417602Y-6792215D01*
X7483360Y-6575439D01*
X7505564Y-6350000D01*
X7483360Y-6124561D01*
X7436621Y-5970484D01*
X8596399Y-4810707D01*
X18313500Y-4810707D01*
X18313500Y-4968293D01*
X18344243Y-5122851D01*
X18404549Y-5268442D01*
X18492099Y-5399470D01*
X18603530Y-5510901D01*
X18734558Y-5598451D01*
X18880149Y-5658757D01*
X19034707Y-5689500D01*
X19192293Y-5689500D01*
X19346851Y-5658757D01*
X19349795Y-5657538D01*
X21494267Y-7802011D01*
X20657755Y-7802011D01*
X19881538Y-7025794D01*
X19882757Y-7022851D01*
X19913500Y-6868293D01*
X19913500Y-6710707D01*
X19882757Y-6556149D01*
X19822451Y-6410558D01*
X19734901Y-6279530D01*
X19623470Y-6168099D01*
X19492442Y-6080549D01*
X19346851Y-6020243D01*
X19192293Y-5989500D01*
X19034707Y-5989500D01*
X18880149Y-6020243D01*
X18734558Y-6080549D01*
X18603530Y-6168099D01*
X18492099Y-6279530D01*
X18404549Y-6410558D01*
X18344243Y-6556149D01*
X18313500Y-6710707D01*
X18313500Y-6868293D01*
X18344243Y-7022851D01*
X18404549Y-7168442D01*
X18492099Y-7299470D01*
X18603530Y-7410901D01*
X18734558Y-7498451D01*
X18880149Y-7558757D01*
X19034707Y-7589500D01*
X19192293Y-7589500D01*
X19346851Y-7558757D01*
X19349794Y-7557538D01*
X20223081Y-8430825D01*
X20234853Y-8445169D01*
X20292106Y-8492156D01*
X20357426Y-8527070D01*
X20428302Y-8548570D01*
X20483543Y-8554011D01*
X20483550Y-8554011D01*
X20502010Y-8555829D01*
X20520470Y-8554011D01*
X25316965Y-8554011D01*
X25335425Y-8555829D01*
X25353885Y-8554011D01*
X25353893Y-8554011D01*
X25409134Y-8548570D01*
X25480010Y-8527070D01*
X25545330Y-8492156D01*
X25602583Y-8445169D01*
X25614359Y-8430820D01*
X26687173Y-7358007D01*
X27461385Y-7358007D01*
X27465713Y-7364485D01*
X27549285Y-7448057D01*
X27647556Y-7513720D01*
X27756749Y-7558949D01*
X27872668Y-7582007D01*
X27990858Y-7582007D01*
X28106777Y-7558949D01*
X28125490Y-7551198D01*
X28172450Y-7621478D01*
X28256022Y-7705050D01*
X28354293Y-7770713D01*
X28463486Y-7815942D01*
X28579405Y-7839000D01*
X28697595Y-7839000D01*
X28813514Y-7815942D01*
X28922707Y-7770713D01*
X29020978Y-7705050D01*
X29104550Y-7621478D01*
X29170213Y-7523207D01*
X29215442Y-7414014D01*
X29238500Y-7298095D01*
X29238500Y-7179905D01*
X29215442Y-7063986D01*
X29170213Y-6954793D01*
X29104550Y-6856522D01*
X29020978Y-6772950D01*
X29011585Y-6766674D01*
X29009059Y-6741027D01*
X28987559Y-6670151D01*
X28952645Y-6604831D01*
X28931935Y-6579596D01*
X28917431Y-6561922D01*
X28917425Y-6561916D01*
X28905658Y-6547578D01*
X28891320Y-6535811D01*
X28452698Y-6097191D01*
X28440922Y-6082842D01*
X28383669Y-6035855D01*
X28318349Y-6000941D01*
X28247473Y-5979441D01*
X28192232Y-5974000D01*
X28192224Y-5974000D01*
X28173764Y-5972182D01*
X28155304Y-5974000D01*
X26751957Y-5974000D01*
X26733499Y-5972182D01*
X26715041Y-5974000D01*
X26715032Y-5974000D01*
X26659791Y-5979441D01*
X26588915Y-6000941D01*
X26523595Y-6035855D01*
X26466342Y-6082842D01*
X26454570Y-6097186D01*
X25053757Y-7498000D01*
X22253744Y-7498000D01*
X19881538Y-5125795D01*
X19882757Y-5122851D01*
X19913500Y-4968293D01*
X19913500Y-4810707D01*
X19882757Y-4656149D01*
X19822451Y-4510558D01*
X19734901Y-4379530D01*
X19623470Y-4268099D01*
X19492442Y-4180549D01*
X19346851Y-4120243D01*
X19192293Y-4089500D01*
X19034707Y-4089500D01*
X18880149Y-4120243D01*
X18734558Y-4180549D01*
X18603530Y-4268099D01*
X18492099Y-4379530D01*
X18404549Y-4510558D01*
X18344243Y-4656149D01*
X18313500Y-4810707D01*
X8596399Y-4810707D01*
X9478107Y-3929000D01*
X22970395Y-3929000D01*
X23886079Y-4844686D01*
X23901736Y-4863764D01*
X23977871Y-4926246D01*
X24064733Y-4972675D01*
X24158983Y-5001265D01*
X24257000Y-5010919D01*
X24281560Y-5008500D01*
X25639831Y-5008500D01*
X25687293Y-5040213D01*
X25796486Y-5085442D01*
X25912405Y-5108500D01*
X26030595Y-5108500D01*
X26146514Y-5085442D01*
X26255707Y-5040213D01*
X26303169Y-5008500D01*
X30463395Y-5008500D01*
X35713393Y-10258500D01*
X35691405Y-10258500D01*
X35575486Y-10281558D01*
X35466293Y-10326787D01*
X35368022Y-10392450D01*
X35284450Y-10476022D01*
X35218787Y-10574293D01*
X35173558Y-10683486D01*
X35150500Y-10799405D01*
X35150500Y-10917595D01*
X35173558Y-11033514D01*
X35218787Y-11142707D01*
X35284450Y-11240978D01*
X35368022Y-11324550D01*
X35466293Y-11390213D01*
X35575486Y-11435442D01*
X35691405Y-11458500D01*
X35809595Y-11458500D01*
X35925514Y-11435442D01*
X36034707Y-11390213D01*
X36132978Y-11324550D01*
X36216550Y-11240978D01*
X36282213Y-11142707D01*
X36327442Y-11033514D01*
X36350500Y-10917595D01*
X36350500Y-10823500D01*
X36444595Y-10823500D01*
X36560514Y-10800442D01*
X36669707Y-10755213D01*
X36767978Y-10689550D01*
X36851550Y-10605978D01*
X36917213Y-10507707D01*
X36925250Y-10488304D01*
X36933287Y-10507707D01*
X36998950Y-10605978D01*
X37082522Y-10689550D01*
X37180793Y-10755213D01*
X37289986Y-10800442D01*
X37405905Y-10823500D01*
X37524095Y-10823500D01*
X37640014Y-10800442D01*
X37749207Y-10755213D01*
X37847478Y-10689550D01*
X37931050Y-10605978D01*
X37996713Y-10507707D01*
X38041942Y-10398514D01*
X38065000Y-10282595D01*
X38065000Y-10164405D01*
X38041942Y-10048486D01*
X37996713Y-9939293D01*
X37965000Y-9891831D01*
X37965000Y-9158169D01*
X37996713Y-9110707D01*
X38041942Y-9001514D01*
X38065000Y-8885595D01*
X38065000Y-8767405D01*
X38041942Y-8651486D01*
X37996713Y-8542293D01*
X37931050Y-8444022D01*
X37847478Y-8360450D01*
X37749207Y-8294787D01*
X37640014Y-8249558D01*
X37524095Y-8226500D01*
X37405905Y-8226500D01*
X37289986Y-8249558D01*
X37180793Y-8294787D01*
X37133331Y-8326500D01*
X36275106Y-8326500D01*
X31944826Y-3996221D01*
X31964213Y-3967207D01*
X32009442Y-3858014D01*
X32032500Y-3742095D01*
X32032500Y-3623905D01*
X32009442Y-3507986D01*
X31964213Y-3398793D01*
X31898550Y-3300522D01*
X31814978Y-3216950D01*
X31716707Y-3151287D01*
X31607514Y-3106058D01*
X31491595Y-3083000D01*
X31373405Y-3083000D01*
X31257486Y-3106058D01*
X31148293Y-3151287D01*
X31050022Y-3216950D01*
X30966450Y-3300522D01*
X30900787Y-3398793D01*
X30855558Y-3507986D01*
X30832500Y-3623905D01*
X30832500Y-3742095D01*
X30855558Y-3858014D01*
X30900787Y-3967207D01*
X30932500Y-4014669D01*
X30932500Y-4081598D01*
X30862767Y-4044325D01*
X30768517Y-4015735D01*
X30695060Y-4008500D01*
X30670500Y-4006081D01*
X30645940Y-4008500D01*
X26303169Y-4008500D01*
X26255707Y-3976787D01*
X26146514Y-3931558D01*
X26030595Y-3908500D01*
X25912405Y-3908500D01*
X25796486Y-3931558D01*
X25687293Y-3976787D01*
X25639831Y-4008500D01*
X24464107Y-4008500D01*
X23548429Y-3092824D01*
X23532764Y-3073736D01*
X23456629Y-3011254D01*
X23369767Y-2964825D01*
X23275517Y-2936235D01*
X23202060Y-2929000D01*
X23177500Y-2926581D01*
X23152940Y-2929000D01*
X9295560Y-2929000D01*
X9271000Y-2926581D01*
X9246440Y-2929000D01*
X9172983Y-2936235D01*
X9078733Y-2964825D01*
X8991871Y-3011254D01*
X8915736Y-3073736D01*
X8900080Y-3092813D01*
X6729516Y-5263379D01*
X6575439Y-5216640D01*
X6406492Y-5200000D01*
X6293508Y-5200000D01*
X6124561Y-5216640D01*
X5907785Y-5282398D01*
X5708003Y-5389184D01*
X5532893Y-5532893D01*
X5389184Y-5708003D01*
X5313285Y-5850000D01*
X4961451Y-5850000D01*
X4961451Y-5500000D01*
X4955659Y-5441190D01*
X4938504Y-5384640D01*
X4910647Y-5332523D01*
X4873158Y-5286842D01*
X4827477Y-5249353D01*
X4775360Y-5221496D01*
X4718810Y-5204341D01*
X4660000Y-5198549D01*
X2960000Y-5198549D01*
X2901190Y-5204341D01*
X2844640Y-5221496D01*
X2792523Y-5249353D01*
X2746842Y-5286842D01*
X2709353Y-5332523D01*
X2681496Y-5384640D01*
X2664341Y-5441190D01*
X2658549Y-5500000D01*
X375000Y-5500000D01*
X375000Y-2517503D01*
X420000Y-2521935D01*
X1120000Y-2520000D01*
X1220000Y-2420000D01*
X1220000Y-1320000D01*
X1320000Y-1320000D01*
X1320000Y-2420000D01*
X1420000Y-2520000D01*
X2120000Y-2521935D01*
X2198414Y-2514212D01*
X2273814Y-2491340D01*
X2343303Y-2454197D01*
X2404211Y-2404211D01*
X2454197Y-2343303D01*
X2491340Y-2273814D01*
X2514212Y-2198414D01*
X2521935Y-2120000D01*
X2520000Y-1420000D01*
X2420000Y-1320000D01*
X1320000Y-1320000D01*
X1220000Y-1320000D01*
X1200000Y-1320000D01*
X1200000Y-1220000D01*
X1220000Y-1220000D01*
X1220000Y-1200000D01*
X1320000Y-1200000D01*
X1320000Y-1220000D01*
X2420000Y-1220000D01*
X2520000Y-1120000D01*
X2521935Y-420000D01*
X2517503Y-375000D01*
X3087806Y-375000D01*
X2992893Y-452893D01*
X2992893Y-452893D01*
G37*
X2992893Y-452893D02*
X2849184Y-628003D01*
X2742398Y-827785D01*
X2676640Y-1044561D01*
X2654436Y-1270000D01*
X2676640Y-1495439D01*
X2742398Y-1712215D01*
X2849184Y-1911997D01*
X2992893Y-2087107D01*
X3168003Y-2230816D01*
X3367785Y-2337602D01*
X3584561Y-2403360D01*
X3753508Y-2420000D01*
X3866492Y-2420000D01*
X4035439Y-2403360D01*
X4252215Y-2337602D01*
X4451997Y-2230816D01*
X4627107Y-2087107D01*
X4770816Y-1911997D01*
X4877602Y-1712215D01*
X4937495Y-1514771D01*
X5124197Y-1514771D01*
X5195503Y-1749210D01*
X5311176Y-1965233D01*
X5466770Y-2154539D01*
X5656306Y-2309852D01*
X5872500Y-2425205D01*
X6105229Y-2495801D01*
X6300000Y-2418913D01*
X6300000Y-1320000D01*
X6400000Y-1320000D01*
X6400000Y-2418913D01*
X6594771Y-2495801D01*
X6827500Y-2425205D01*
X7043694Y-2309852D01*
X7233230Y-2154539D01*
X7388824Y-1965233D01*
X7504497Y-1749210D01*
X7575803Y-1514771D01*
X7499002Y-1320000D01*
X6400000Y-1320000D01*
X6300000Y-1320000D01*
X5200998Y-1320000D01*
X5124197Y-1514771D01*
X4937495Y-1514771D01*
X4943360Y-1495439D01*
X4965564Y-1270000D01*
X4943360Y-1044561D01*
X4877602Y-827785D01*
X4770816Y-628003D01*
X4627107Y-452893D01*
X4532194Y-375000D01*
X5479536Y-375000D01*
X5466770Y-385461D01*
X5311176Y-574767D01*
X5195503Y-790790D01*
X5124197Y-1025229D01*
X5200998Y-1220000D01*
X6300000Y-1220000D01*
X6300000Y-1200000D01*
X6400000Y-1200000D01*
X6400000Y-1220000D01*
X7499002Y-1220000D01*
X7575803Y-1025229D01*
X7504497Y-790790D01*
X7388824Y-574767D01*
X7233230Y-385461D01*
X7220464Y-375000D01*
X8167806Y-375000D01*
X8072893Y-452893D01*
X7929184Y-628003D01*
X7822398Y-827785D01*
X7756640Y-1044561D01*
X7734436Y-1270000D01*
X7756640Y-1495439D01*
X7822398Y-1712215D01*
X7929184Y-1911997D01*
X8072893Y-2087107D01*
X8248003Y-2230816D01*
X8447785Y-2337602D01*
X8664561Y-2403360D01*
X8833508Y-2420000D01*
X8946492Y-2420000D01*
X9115439Y-2403360D01*
X9332215Y-2337602D01*
X9531997Y-2230816D01*
X9707107Y-2087107D01*
X9850816Y-1911997D01*
X9957602Y-1712215D01*
X10023360Y-1495439D01*
X10045564Y-1270000D01*
X10023360Y-1044561D01*
X9957602Y-827785D01*
X9850816Y-628003D01*
X9707107Y-452893D01*
X9612194Y-375000D01*
X10707806Y-375000D01*
X10612893Y-452893D01*
X10469184Y-628003D01*
X10362398Y-827785D01*
X10296640Y-1044561D01*
X10274436Y-1270000D01*
X10296640Y-1495439D01*
X10362398Y-1712215D01*
X10469184Y-1911997D01*
X10612893Y-2087107D01*
X10788003Y-2230816D01*
X10987785Y-2337602D01*
X11204561Y-2403360D01*
X11373508Y-2420000D01*
X11486492Y-2420000D01*
X11655439Y-2403360D01*
X11872215Y-2337602D01*
X12071997Y-2230816D01*
X12247107Y-2087107D01*
X12390816Y-1911997D01*
X12497602Y-1712215D01*
X12563360Y-1495439D01*
X12585564Y-1270000D01*
X12563360Y-1044561D01*
X12497602Y-827785D01*
X12390816Y-628003D01*
X12247107Y-452893D01*
X12152194Y-375000D01*
X13247806Y-375000D01*
X13152893Y-452893D01*
X13009184Y-628003D01*
X12902398Y-827785D01*
X12836640Y-1044561D01*
X12814436Y-1270000D01*
X12836640Y-1495439D01*
X12902398Y-1712215D01*
X13009184Y-1911997D01*
X13152893Y-2087107D01*
X13328003Y-2230816D01*
X13527785Y-2337602D01*
X13744561Y-2403360D01*
X13913508Y-2420000D01*
X14026492Y-2420000D01*
X14195439Y-2403360D01*
X14412215Y-2337602D01*
X14611997Y-2230816D01*
X14787107Y-2087107D01*
X14930816Y-1911997D01*
X15037602Y-1712215D01*
X15103360Y-1495439D01*
X15125564Y-1270000D01*
X15103360Y-1044561D01*
X15037602Y-827785D01*
X14930816Y-628003D01*
X14787107Y-452893D01*
X14692194Y-375000D01*
X15787806Y-375000D01*
X15692893Y-452893D01*
X15549184Y-628003D01*
X15442398Y-827785D01*
X15376640Y-1044561D01*
X15354436Y-1270000D01*
X15376640Y-1495439D01*
X15442398Y-1712215D01*
X15549184Y-1911997D01*
X15692893Y-2087107D01*
X15868003Y-2230816D01*
X16067785Y-2337602D01*
X16284561Y-2403360D01*
X16453508Y-2420000D01*
X16566492Y-2420000D01*
X16735439Y-2403360D01*
X16952215Y-2337602D01*
X17151997Y-2230816D01*
X17327107Y-2087107D01*
X17470816Y-1911997D01*
X17577602Y-1712215D01*
X17643360Y-1495439D01*
X17665564Y-1270000D01*
X17643360Y-1044561D01*
X17577602Y-827785D01*
X17470816Y-628003D01*
X17327107Y-452893D01*
X17232194Y-375000D01*
X18327806Y-375000D01*
X18232893Y-452893D01*
X18089184Y-628003D01*
X17982398Y-827785D01*
X17916640Y-1044561D01*
X17894436Y-1270000D01*
X17916640Y-1495439D01*
X17982398Y-1712215D01*
X18089184Y-1911997D01*
X18232893Y-2087107D01*
X18408003Y-2230816D01*
X18607785Y-2337602D01*
X18824561Y-2403360D01*
X18993508Y-2420000D01*
X19106492Y-2420000D01*
X19275439Y-2403360D01*
X19492215Y-2337602D01*
X19691997Y-2230816D01*
X19867107Y-2087107D01*
X20010816Y-1911997D01*
X20117602Y-1712215D01*
X20183360Y-1495439D01*
X20205564Y-1270000D01*
X20183360Y-1044561D01*
X20117602Y-827785D01*
X20010816Y-628003D01*
X19867107Y-452893D01*
X19772194Y-375000D01*
X20867806Y-375000D01*
X20772893Y-452893D01*
X20629184Y-628003D01*
X20522398Y-827785D01*
X20456640Y-1044561D01*
X20434436Y-1270000D01*
X20456640Y-1495439D01*
X20522398Y-1712215D01*
X20629184Y-1911997D01*
X20772893Y-2087107D01*
X20948003Y-2230816D01*
X21147785Y-2337602D01*
X21364561Y-2403360D01*
X21533508Y-2420000D01*
X21646492Y-2420000D01*
X21815439Y-2403360D01*
X22032215Y-2337602D01*
X22231997Y-2230816D01*
X22407107Y-2087107D01*
X22550816Y-1911997D01*
X22657602Y-1712215D01*
X22723360Y-1495439D01*
X22745564Y-1270000D01*
X22723360Y-1044561D01*
X22657602Y-827785D01*
X22550816Y-628003D01*
X22407107Y-452893D01*
X22312194Y-375000D01*
X23407806Y-375000D01*
X23312893Y-452893D01*
X23169184Y-628003D01*
X23062398Y-827785D01*
X22996640Y-1044561D01*
X22974436Y-1270000D01*
X22996640Y-1495439D01*
X23062398Y-1712215D01*
X23169184Y-1911997D01*
X23312893Y-2087107D01*
X23488003Y-2230816D01*
X23687785Y-2337602D01*
X23904561Y-2403360D01*
X24073508Y-2420000D01*
X24186492Y-2420000D01*
X24355439Y-2403360D01*
X24572215Y-2337602D01*
X24771997Y-2230816D01*
X24947107Y-2087107D01*
X25090816Y-1911997D01*
X25197602Y-1712215D01*
X25263360Y-1495439D01*
X25285564Y-1270000D01*
X25263360Y-1044561D01*
X25197602Y-827785D01*
X25090816Y-628003D01*
X24947107Y-452893D01*
X24852194Y-375000D01*
X25947806Y-375000D01*
X25852893Y-452893D01*
X25709184Y-628003D01*
X25602398Y-827785D01*
X25536640Y-1044561D01*
X25514436Y-1270000D01*
X25536640Y-1495439D01*
X25602398Y-1712215D01*
X25709184Y-1911997D01*
X25852893Y-2087107D01*
X26028003Y-2230816D01*
X26227785Y-2337602D01*
X26444561Y-2403360D01*
X26613508Y-2420000D01*
X26726492Y-2420000D01*
X26895439Y-2403360D01*
X27112215Y-2337602D01*
X27311997Y-2230816D01*
X27487107Y-2087107D01*
X27630816Y-1911997D01*
X27737602Y-1712215D01*
X27803360Y-1495439D01*
X27825564Y-1270000D01*
X27803360Y-1044561D01*
X27737602Y-827785D01*
X27630816Y-628003D01*
X27487107Y-452893D01*
X27392194Y-375000D01*
X28487806Y-375000D01*
X28392893Y-452893D01*
X28249184Y-628003D01*
X28142398Y-827785D01*
X28076640Y-1044561D01*
X28054436Y-1270000D01*
X28076640Y-1495439D01*
X28142398Y-1712215D01*
X28249184Y-1911997D01*
X28392893Y-2087107D01*
X28568003Y-2230816D01*
X28767785Y-2337602D01*
X28984561Y-2403360D01*
X29153508Y-2420000D01*
X29266492Y-2420000D01*
X29435439Y-2403360D01*
X29652215Y-2337602D01*
X29851997Y-2230816D01*
X30027107Y-2087107D01*
X30170816Y-1911997D01*
X30277602Y-1712215D01*
X30343360Y-1495439D01*
X30365564Y-1270000D01*
X30343360Y-1044561D01*
X30277602Y-827785D01*
X30170816Y-628003D01*
X30027107Y-452893D01*
X29932194Y-375000D01*
X31027806Y-375000D01*
X30932893Y-452893D01*
X30789184Y-628003D01*
X30682398Y-827785D01*
X30616640Y-1044561D01*
X30594436Y-1270000D01*
X30616640Y-1495439D01*
X30682398Y-1712215D01*
X30789184Y-1911997D01*
X30932893Y-2087107D01*
X31108003Y-2230816D01*
X31307785Y-2337602D01*
X31524561Y-2403360D01*
X31693508Y-2420000D01*
X31806492Y-2420000D01*
X31975439Y-2403360D01*
X32192215Y-2337602D01*
X32391997Y-2230816D01*
X32567107Y-2087107D01*
X32710816Y-1911997D01*
X32817602Y-1712215D01*
X32883360Y-1495439D01*
X32905564Y-1270000D01*
X32883360Y-1044561D01*
X32817602Y-827785D01*
X32710816Y-628003D01*
X32567107Y-452893D01*
X32472194Y-375000D01*
X33567806Y-375000D01*
X33472893Y-452893D01*
X33329184Y-628003D01*
X33222398Y-827785D01*
X33156640Y-1044561D01*
X33134436Y-1270000D01*
X33156640Y-1495439D01*
X33222398Y-1712215D01*
X33329184Y-1911997D01*
X33472893Y-2087107D01*
X33648003Y-2230816D01*
X33847785Y-2337602D01*
X34064561Y-2403360D01*
X34233508Y-2420000D01*
X34346492Y-2420000D01*
X34515439Y-2403360D01*
X34732215Y-2337602D01*
X34931997Y-2230816D01*
X35107107Y-2087107D01*
X35250816Y-1911997D01*
X35357602Y-1712215D01*
X35423360Y-1495439D01*
X35445564Y-1270000D01*
X35423360Y-1044561D01*
X35357602Y-827785D01*
X35250816Y-628003D01*
X35107107Y-452893D01*
X35012194Y-375000D01*
X36107806Y-375000D01*
X36012893Y-452893D01*
X35869184Y-628003D01*
X35762398Y-827785D01*
X35696640Y-1044561D01*
X35674436Y-1270000D01*
X35696640Y-1495439D01*
X35762398Y-1712215D01*
X35869184Y-1911997D01*
X36012893Y-2087107D01*
X36188003Y-2230816D01*
X36387785Y-2337602D01*
X36604561Y-2403360D01*
X36773508Y-2420000D01*
X36886492Y-2420000D01*
X37055439Y-2403360D01*
X37272215Y-2337602D01*
X37471997Y-2230816D01*
X37647107Y-2087107D01*
X37790816Y-1911997D01*
X37897602Y-1712215D01*
X37963360Y-1495439D01*
X37985564Y-1270000D01*
X37963360Y-1044561D01*
X37897602Y-827785D01*
X37790816Y-628003D01*
X37647107Y-452893D01*
X37552194Y-375000D01*
X38647806Y-375000D01*
X38552893Y-452893D01*
X38409184Y-628003D01*
X38302398Y-827785D01*
X38236640Y-1044561D01*
X38214436Y-1270000D01*
X38236640Y-1495439D01*
X38302398Y-1712215D01*
X38409184Y-1911997D01*
X38552893Y-2087107D01*
X38728003Y-2230816D01*
X38927785Y-2337602D01*
X39144561Y-2403360D01*
X39313508Y-2420000D01*
X39426492Y-2420000D01*
X39595439Y-2403360D01*
X39812215Y-2337602D01*
X40011997Y-2230816D01*
X40187107Y-2087107D01*
X40330816Y-1911997D01*
X40437602Y-1712215D01*
X40503360Y-1495439D01*
X40525564Y-1270000D01*
X40503360Y-1044561D01*
X40437602Y-827785D01*
X40330816Y-628003D01*
X40187107Y-452893D01*
X40092194Y-375000D01*
X41187806Y-375000D01*
X41092893Y-452893D01*
X40949184Y-628003D01*
X40842398Y-827785D01*
X40776640Y-1044561D01*
X40754436Y-1270000D01*
X40776640Y-1495439D01*
X40842398Y-1712215D01*
X40949184Y-1911997D01*
X41092893Y-2087107D01*
X41268003Y-2230816D01*
X41467785Y-2337602D01*
X41684561Y-2403360D01*
X41853508Y-2420000D01*
X41966492Y-2420000D01*
X42135439Y-2403360D01*
X42352215Y-2337602D01*
X42551997Y-2230816D01*
X42727107Y-2087107D01*
X42870816Y-1911997D01*
X42977602Y-1712215D01*
X43043360Y-1495439D01*
X43065564Y-1270000D01*
X43043360Y-1044561D01*
X42977602Y-827785D01*
X42870816Y-628003D01*
X42727107Y-452893D01*
X42632194Y-375000D01*
X43727806Y-375000D01*
X43632893Y-452893D01*
X43489184Y-628003D01*
X43382398Y-827785D01*
X43316640Y-1044561D01*
X43294436Y-1270000D01*
X43316640Y-1495439D01*
X43382398Y-1712215D01*
X43489184Y-1911997D01*
X43632893Y-2087107D01*
X43808003Y-2230816D01*
X44007785Y-2337602D01*
X44224561Y-2403360D01*
X44393508Y-2420000D01*
X44506492Y-2420000D01*
X44675439Y-2403360D01*
X44892215Y-2337602D01*
X45091997Y-2230816D01*
X45267107Y-2087107D01*
X45410816Y-1911997D01*
X45517602Y-1712215D01*
X45583360Y-1495439D01*
X45605564Y-1270000D01*
X45583360Y-1044561D01*
X45517602Y-827785D01*
X45410816Y-628003D01*
X45267107Y-452893D01*
X45172194Y-375000D01*
X46267806Y-375000D01*
X46172893Y-452893D01*
X46029184Y-628003D01*
X45922398Y-827785D01*
X45856640Y-1044561D01*
X45834436Y-1270000D01*
X45856640Y-1495439D01*
X45922398Y-1712215D01*
X46029184Y-1911997D01*
X46172893Y-2087107D01*
X46348003Y-2230816D01*
X46547785Y-2337602D01*
X46764561Y-2403360D01*
X46933508Y-2420000D01*
X47046492Y-2420000D01*
X47215439Y-2403360D01*
X47432215Y-2337602D01*
X47631997Y-2230816D01*
X47807107Y-2087107D01*
X47950816Y-1911997D01*
X48057602Y-1712215D01*
X48123360Y-1495439D01*
X48145564Y-1270000D01*
X48123360Y-1044561D01*
X48057602Y-827785D01*
X47950816Y-628003D01*
X47807107Y-452893D01*
X47712194Y-375000D01*
X48807806Y-375000D01*
X48712893Y-452893D01*
X48569184Y-628003D01*
X48462398Y-827785D01*
X48396640Y-1044561D01*
X48374436Y-1270000D01*
X48396640Y-1495439D01*
X48462398Y-1712215D01*
X48569184Y-1911997D01*
X48712893Y-2087107D01*
X48888003Y-2230816D01*
X49087785Y-2337602D01*
X49304561Y-2403360D01*
X49473508Y-2420000D01*
X49586492Y-2420000D01*
X49755439Y-2403360D01*
X49972215Y-2337602D01*
X50171997Y-2230816D01*
X50347107Y-2087107D01*
X50490816Y-1911997D01*
X50597602Y-1712215D01*
X50663360Y-1495439D01*
X50685564Y-1270000D01*
X50663360Y-1044561D01*
X50597602Y-827785D01*
X50490816Y-628003D01*
X50347107Y-452893D01*
X50252194Y-375000D01*
X51347806Y-375000D01*
X51252893Y-452893D01*
X51109184Y-628003D01*
X51002398Y-827785D01*
X50936640Y-1044561D01*
X50914436Y-1270000D01*
X50936640Y-1495439D01*
X51002398Y-1712215D01*
X51109184Y-1911997D01*
X51252893Y-2087107D01*
X51428003Y-2230816D01*
X51570000Y-2306715D01*
X51570001Y-7202157D01*
X47651659Y-11120500D01*
X47512175Y-11120500D01*
X47464713Y-11088787D01*
X47355520Y-11043558D01*
X47239601Y-11020500D01*
X47121411Y-11020500D01*
X47005492Y-11043558D01*
X46896299Y-11088787D01*
X46798028Y-11154450D01*
X46714456Y-11238022D01*
X46648793Y-11336293D01*
X46603564Y-11445486D01*
X46580506Y-11561405D01*
X46580506Y-11679595D01*
X46603564Y-11795514D01*
X46648793Y-11904707D01*
X46714456Y-12002978D01*
X46798028Y-12086550D01*
X46896299Y-12152213D01*
X47005492Y-12197442D01*
X47121411Y-12220500D01*
X47239601Y-12220500D01*
X47355520Y-12197442D01*
X47464713Y-12152213D01*
X47512175Y-12120500D01*
X47834204Y-12120500D01*
X47858764Y-12122919D01*
X47883324Y-12120500D01*
X47956781Y-12113265D01*
X48051031Y-12084675D01*
X48137893Y-12038246D01*
X48214028Y-11975764D01*
X48229693Y-11956676D01*
X49477239Y-10709130D01*
X51185081Y-10709130D01*
X51254144Y-10889042D01*
X51450100Y-10992533D01*
X51662481Y-11055806D01*
X51883125Y-11076430D01*
X52103553Y-11053611D01*
X52315293Y-10988228D01*
X52500856Y-10889042D01*
X52569919Y-10709130D01*
X51877500Y-10016711D01*
X51185081Y-10709130D01*
X49477239Y-10709130D01*
X50234744Y-9951625D01*
X50747070Y-9951625D01*
X50769889Y-10172053D01*
X50835272Y-10383793D01*
X50934458Y-10569356D01*
X51114370Y-10638419D01*
X51806789Y-9946000D01*
X51948211Y-9946000D01*
X52640630Y-10638419D01*
X52820542Y-10569356D01*
X52924033Y-10373400D01*
X52987306Y-10161019D01*
X53007930Y-9940375D01*
X52985111Y-9719947D01*
X52919728Y-9508207D01*
X52820542Y-9322644D01*
X52640630Y-9253581D01*
X51948211Y-9946000D01*
X51806789Y-9946000D01*
X51114370Y-9253581D01*
X50934458Y-9322644D01*
X50830967Y-9518600D01*
X50767694Y-9730981D01*
X50747070Y-9951625D01*
X50234744Y-9951625D01*
X51003499Y-9182870D01*
X51185081Y-9182870D01*
X51877500Y-9875289D01*
X52569919Y-9182870D01*
X52557925Y-9151623D01*
X53248869Y-9151623D01*
X53284485Y-9282490D01*
X53368251Y-9459997D01*
X53485037Y-9617752D01*
X53630356Y-9749692D01*
X53798622Y-9850746D01*
X53983370Y-9917031D01*
X54177500Y-9946000D01*
X54527500Y-9946000D01*
X54527500Y-8996000D01*
X53328890Y-8996000D01*
X53248869Y-9151623D01*
X52557925Y-9151623D01*
X52500856Y-9002958D01*
X52304900Y-8899467D01*
X52092519Y-8836194D01*
X51871875Y-8815570D01*
X51651447Y-8838389D01*
X51439707Y-8903772D01*
X51254144Y-9002958D01*
X51185081Y-9182870D01*
X51003499Y-9182870D01*
X51445992Y-8740377D01*
X53248869Y-8740377D01*
X53328890Y-8896000D01*
X54527500Y-8896000D01*
X54527500Y-7946000D01*
X54177500Y-7946000D01*
X53983370Y-7974969D01*
X53798622Y-8041254D01*
X53630356Y-8142308D01*
X53485037Y-8274248D01*
X53368251Y-8432003D01*
X53284485Y-8609510D01*
X53248869Y-8740377D01*
X51445992Y-8740377D01*
X52406181Y-7780189D01*
X52425264Y-7764528D01*
X52487746Y-7688393D01*
X52534175Y-7601531D01*
X52562765Y-7507281D01*
X52570000Y-7433824D01*
X52570000Y-7433823D01*
X52572419Y-7409265D01*
X52570000Y-7384707D01*
X52570000Y-2306715D01*
X52711997Y-2230816D01*
X52887107Y-2087107D01*
X53030816Y-1911997D01*
X53137602Y-1712215D01*
X53197495Y-1514771D01*
X53384197Y-1514771D01*
X53455503Y-1749210D01*
X53571176Y-1965233D01*
X53726770Y-2154539D01*
X53916306Y-2309852D01*
X54132500Y-2425205D01*
X54365229Y-2495801D01*
X54560000Y-2418913D01*
X54560000Y-1320000D01*
X53460998Y-1320000D01*
X53384197Y-1514771D01*
X53197495Y-1514771D01*
X53203360Y-1495439D01*
X53225564Y-1270000D01*
X53203360Y-1044561D01*
X53137602Y-827785D01*
X53030816Y-628003D01*
X52887107Y-452893D01*
X52792194Y-375000D01*
X53739536Y-375000D01*
X53726770Y-385461D01*
X53571176Y-574767D01*
X53455503Y-790790D01*
X53384197Y-1025229D01*
X53460998Y-1220000D01*
X54560000Y-1220000D01*
X54560000Y-1200000D01*
X54660000Y-1200000D01*
X54660000Y-1220000D01*
X54680000Y-1220000D01*
X54680000Y-1320000D01*
X54660000Y-1320000D01*
X54660000Y-2418913D01*
X54854771Y-2495801D01*
X55087500Y-2425205D01*
X55303694Y-2309852D01*
X55493230Y-2154539D01*
X55505000Y-2140219D01*
X55505000Y-8130511D01*
X55356378Y-8041254D01*
X55171630Y-7974969D01*
X54977500Y-7946000D01*
X54627500Y-7946000D01*
X54627500Y-8896000D01*
X54647500Y-8896000D01*
X54647500Y-8996000D01*
X54627500Y-8996000D01*
X54627500Y-9946000D01*
X54977500Y-9946000D01*
X55171630Y-9917031D01*
X55356378Y-9850746D01*
X55505000Y-9761489D01*
X55505001Y-15130511D01*
X55356378Y-15041254D01*
X55171630Y-14974969D01*
X54977500Y-14946000D01*
X54627500Y-14946000D01*
X54627500Y-15896000D01*
X54647500Y-15896000D01*
X54647500Y-15996000D01*
X54627500Y-15996000D01*
X54627500Y-16946000D01*
X54977500Y-16946000D01*
X55171630Y-16917031D01*
X55356378Y-16850746D01*
X55505001Y-16761489D01*
X55505001Y-18179782D01*
X55493230Y-18165461D01*
X55303694Y-18010148D01*
X55087500Y-17894795D01*
X54854771Y-17824199D01*
X54660000Y-17901087D01*
X54660000Y-19000000D01*
X54680000Y-19000000D01*
X54680000Y-19100000D01*
X54660000Y-19100000D01*
X54660000Y-19120000D01*
X54560000Y-19120000D01*
X54560000Y-19100000D01*
X53460998Y-19100000D01*
X53384197Y-19294771D01*
X53455503Y-19529210D01*
X53571176Y-19745233D01*
X53726770Y-19934539D01*
X53739536Y-19945000D01*
X52792194Y-19945000D01*
X52887107Y-19867107D01*
X53030816Y-19691997D01*
X53137602Y-19492215D01*
X53203360Y-19275439D01*
X53225564Y-19050000D01*
X53203360Y-18824561D01*
X53197496Y-18805229D01*
X53384197Y-18805229D01*
X53460998Y-19000000D01*
X54560000Y-19000000D01*
X54560000Y-17901087D01*
X54365229Y-17824199D01*
X54132500Y-17894795D01*
X53916306Y-18010148D01*
X53726770Y-18165461D01*
X53571176Y-18354767D01*
X53455503Y-18570790D01*
X53384197Y-18805229D01*
X53197496Y-18805229D01*
X53137602Y-18607785D01*
X53030816Y-18408003D01*
X52887107Y-18232893D01*
X52711997Y-18089184D01*
X52512215Y-17982398D01*
X52295439Y-17916640D01*
X52126492Y-17900000D01*
X52013508Y-17900000D01*
X51844561Y-17916640D01*
X51627785Y-17982398D01*
X51428003Y-18089184D01*
X51252893Y-18232893D01*
X51109184Y-18408003D01*
X51002398Y-18607785D01*
X50936640Y-18824561D01*
X50914436Y-19050000D01*
X50936640Y-19275439D01*
X51002398Y-19492215D01*
X51109184Y-19691997D01*
X51252893Y-19867107D01*
X51347806Y-19945000D01*
X50252194Y-19945000D01*
X50347107Y-19867107D01*
X50490816Y-19691997D01*
X50597602Y-19492215D01*
X50663360Y-19275439D01*
X50685564Y-19050000D01*
X50663360Y-18824561D01*
X50597602Y-18607785D01*
X50490816Y-18408003D01*
X50347107Y-18232893D01*
X50171997Y-18089184D01*
X49972215Y-17982398D01*
X49755439Y-17916640D01*
X49586492Y-17900000D01*
X49473508Y-17900000D01*
X49304561Y-17916640D01*
X49087785Y-17982398D01*
X48888003Y-18089184D01*
X48712893Y-18232893D01*
X48569184Y-18408003D01*
X48462398Y-18607785D01*
X48396640Y-18824561D01*
X48374436Y-19050000D01*
X48396640Y-19275439D01*
X48462398Y-19492215D01*
X48569184Y-19691997D01*
X48712893Y-19867107D01*
X48807806Y-19945000D01*
X47712194Y-19945000D01*
X47807107Y-19867107D01*
X47950816Y-19691997D01*
X48057602Y-19492215D01*
X48123360Y-19275439D01*
X48145564Y-19050000D01*
X48123360Y-18824561D01*
X48057602Y-18607785D01*
X47950816Y-18408003D01*
X47807107Y-18232893D01*
X47631997Y-18089184D01*
X47432215Y-17982398D01*
X47215439Y-17916640D01*
X47046492Y-17900000D01*
X46933508Y-17900000D01*
X46764561Y-17916640D01*
X46547785Y-17982398D01*
X46348003Y-18089184D01*
X46172893Y-18232893D01*
X46029184Y-18408003D01*
X45922398Y-18607785D01*
X45856640Y-18824561D01*
X45834436Y-19050000D01*
X45856640Y-19275439D01*
X45922398Y-19492215D01*
X46029184Y-19691997D01*
X46172893Y-19867107D01*
X46267806Y-19945000D01*
X45172194Y-19945000D01*
X45267107Y-19867107D01*
X45410816Y-19691997D01*
X45517602Y-19492215D01*
X45583360Y-19275439D01*
X45605564Y-19050000D01*
X45583360Y-18824561D01*
X45517602Y-18607785D01*
X45410816Y-18408003D01*
X45267107Y-18232893D01*
X45091997Y-18089184D01*
X44892215Y-17982398D01*
X44675439Y-17916640D01*
X44506492Y-17900000D01*
X44393508Y-17900000D01*
X44224561Y-17916640D01*
X44007785Y-17982398D01*
X43808003Y-18089184D01*
X43632893Y-18232893D01*
X43489184Y-18408003D01*
X43382398Y-18607785D01*
X43316640Y-18824561D01*
X43294436Y-19050000D01*
X43316640Y-19275439D01*
X43382398Y-19492215D01*
X43489184Y-19691997D01*
X43632893Y-19867107D01*
X43727806Y-19945000D01*
X42632194Y-19945000D01*
X42727107Y-19867107D01*
X42870816Y-19691997D01*
X42977602Y-19492215D01*
X43043360Y-19275439D01*
X43065564Y-19050000D01*
X43043360Y-18824561D01*
X42977602Y-18607785D01*
X42870816Y-18408003D01*
X42727107Y-18232893D01*
X42551997Y-18089184D01*
X42352215Y-17982398D01*
X42135439Y-17916640D01*
X41966492Y-17900000D01*
X41853508Y-17900000D01*
X41684561Y-17916640D01*
X41467785Y-17982398D01*
X41268003Y-18089184D01*
X41092893Y-18232893D01*
X40949184Y-18408003D01*
X40842398Y-18607785D01*
X40776640Y-18824561D01*
X40754436Y-19050000D01*
X40776640Y-19275439D01*
X40842398Y-19492215D01*
X40949184Y-19691997D01*
X41092893Y-19867107D01*
X41187806Y-19945000D01*
X40092194Y-19945000D01*
X40187107Y-19867107D01*
X40330816Y-19691997D01*
X40437602Y-19492215D01*
X40503360Y-19275439D01*
X40525564Y-19050000D01*
X40503360Y-18824561D01*
X40437602Y-18607785D01*
X40330816Y-18408003D01*
X40187107Y-18232893D01*
X40011997Y-18089184D01*
X39812215Y-17982398D01*
X39595439Y-17916640D01*
X39426492Y-17900000D01*
X39313508Y-17900000D01*
X39144561Y-17916640D01*
X38927785Y-17982398D01*
X38728003Y-18089184D01*
X38552893Y-18232893D01*
X38409184Y-18408003D01*
X38302398Y-18607785D01*
X38236640Y-18824561D01*
X38214436Y-19050000D01*
X38236640Y-19275439D01*
X38302398Y-19492215D01*
X38409184Y-19691997D01*
X38552893Y-19867107D01*
X38647806Y-19945000D01*
X37552194Y-19945000D01*
X37647107Y-19867107D01*
X37790816Y-19691997D01*
X37897602Y-19492215D01*
X37963360Y-19275439D01*
X37985564Y-19050000D01*
X37963360Y-18824561D01*
X37897602Y-18607785D01*
X37790816Y-18408003D01*
X37647107Y-18232893D01*
X37471997Y-18089184D01*
X37272215Y-17982398D01*
X37055439Y-17916640D01*
X36886492Y-17900000D01*
X36773508Y-17900000D01*
X36604561Y-17916640D01*
X36387785Y-17982398D01*
X36188003Y-18089184D01*
X36012893Y-18232893D01*
X35869184Y-18408003D01*
X35762398Y-18607785D01*
X35696640Y-18824561D01*
X35674436Y-19050000D01*
X35696640Y-19275439D01*
X35762398Y-19492215D01*
X35869184Y-19691997D01*
X36012893Y-19867107D01*
X36107806Y-19945000D01*
X35012194Y-19945000D01*
X35107107Y-19867107D01*
X35250816Y-19691997D01*
X35357602Y-19492215D01*
X35423360Y-19275439D01*
X35445564Y-19050000D01*
X35423360Y-18824561D01*
X35357602Y-18607785D01*
X35250816Y-18408003D01*
X35107107Y-18232893D01*
X34931997Y-18089184D01*
X34732215Y-17982398D01*
X34515439Y-17916640D01*
X34346492Y-17900000D01*
X34233508Y-17900000D01*
X34064561Y-17916640D01*
X33847785Y-17982398D01*
X33648003Y-18089184D01*
X33472893Y-18232893D01*
X33329184Y-18408003D01*
X33222398Y-18607785D01*
X33156640Y-18824561D01*
X33134436Y-19050000D01*
X33156640Y-19275439D01*
X33222398Y-19492215D01*
X33329184Y-19691997D01*
X33472893Y-19867107D01*
X33567806Y-19945000D01*
X32472194Y-19945000D01*
X32567107Y-19867107D01*
X32710816Y-19691997D01*
X32817602Y-19492215D01*
X32883360Y-19275439D01*
X32905564Y-19050000D01*
X32883360Y-18824561D01*
X32817602Y-18607785D01*
X32710816Y-18408003D01*
X32567107Y-18232893D01*
X32391997Y-18089184D01*
X32192215Y-17982398D01*
X31975439Y-17916640D01*
X31806492Y-17900000D01*
X31693508Y-17900000D01*
X31524561Y-17916640D01*
X31307785Y-17982398D01*
X31108003Y-18089184D01*
X30932893Y-18232893D01*
X30789184Y-18408003D01*
X30682398Y-18607785D01*
X30616640Y-18824561D01*
X30594436Y-19050000D01*
X30616640Y-19275439D01*
X30682398Y-19492215D01*
X30789184Y-19691997D01*
X30932893Y-19867107D01*
X31027806Y-19945000D01*
X29932194Y-19945000D01*
X30027107Y-19867107D01*
X30170816Y-19691997D01*
X30277602Y-19492215D01*
X30343360Y-19275439D01*
X30365564Y-19050000D01*
X30343360Y-18824561D01*
X30277602Y-18607785D01*
X30170816Y-18408003D01*
X30027107Y-18232893D01*
X29851997Y-18089184D01*
X29652215Y-17982398D01*
X29435439Y-17916640D01*
X29266492Y-17900000D01*
X29153508Y-17900000D01*
X28984561Y-17916640D01*
X28767785Y-17982398D01*
X28568003Y-18089184D01*
X28392893Y-18232893D01*
X28249184Y-18408003D01*
X28142398Y-18607785D01*
X28076640Y-18824561D01*
X28054436Y-19050000D01*
X28076640Y-19275439D01*
X28142398Y-19492215D01*
X28249184Y-19691997D01*
X28392893Y-19867107D01*
X28487806Y-19945000D01*
X27392194Y-19945000D01*
X27487107Y-19867107D01*
X27630816Y-19691997D01*
X27737602Y-19492215D01*
X27803360Y-19275439D01*
X27825564Y-19050000D01*
X27803360Y-18824561D01*
X27737602Y-18607785D01*
X27630816Y-18408003D01*
X27487107Y-18232893D01*
X27311997Y-18089184D01*
X27112215Y-17982398D01*
X26895439Y-17916640D01*
X26726492Y-17900000D01*
X26613508Y-17900000D01*
X26444561Y-17916640D01*
X26227785Y-17982398D01*
X26028003Y-18089184D01*
X25852893Y-18232893D01*
X25709184Y-18408003D01*
X25602398Y-18607785D01*
X25536640Y-18824561D01*
X25514436Y-19050000D01*
X25536640Y-19275439D01*
X25602398Y-19492215D01*
X25709184Y-19691997D01*
X25852893Y-19867107D01*
X25947806Y-19945000D01*
X24852194Y-19945000D01*
X24947107Y-19867107D01*
X25090816Y-19691997D01*
X25197602Y-19492215D01*
X25263360Y-19275439D01*
X25285564Y-19050000D01*
X25263360Y-18824561D01*
X25197602Y-18607785D01*
X25090816Y-18408003D01*
X24947107Y-18232893D01*
X24771997Y-18089184D01*
X24572215Y-17982398D01*
X24355439Y-17916640D01*
X24186492Y-17900000D01*
X24073508Y-17900000D01*
X23904561Y-17916640D01*
X23687785Y-17982398D01*
X23488003Y-18089184D01*
X23312893Y-18232893D01*
X23169184Y-18408003D01*
X23062398Y-18607785D01*
X22996640Y-18824561D01*
X22974436Y-19050000D01*
X22996640Y-19275439D01*
X23062398Y-19492215D01*
X23169184Y-19691997D01*
X23312893Y-19867107D01*
X23407806Y-19945000D01*
X22312194Y-19945000D01*
X22407107Y-19867107D01*
X22550816Y-19691997D01*
X22657602Y-19492215D01*
X22723360Y-19275439D01*
X22745564Y-19050000D01*
X22723360Y-18824561D01*
X22657602Y-18607785D01*
X22550816Y-18408003D01*
X22407107Y-18232893D01*
X22231997Y-18089184D01*
X22032215Y-17982398D01*
X21815439Y-17916640D01*
X21646492Y-17900000D01*
X21533508Y-17900000D01*
X21364561Y-17916640D01*
X21147785Y-17982398D01*
X20948003Y-18089184D01*
X20772893Y-18232893D01*
X20629184Y-18408003D01*
X20522398Y-18607785D01*
X20456640Y-18824561D01*
X20434436Y-19050000D01*
X20456640Y-19275439D01*
X20522398Y-19492215D01*
X20629184Y-19691997D01*
X20772893Y-19867107D01*
X20867806Y-19945000D01*
X19772194Y-19945000D01*
X19867107Y-19867107D01*
X20010816Y-19691997D01*
X20117602Y-19492215D01*
X20183360Y-19275439D01*
X20205564Y-19050000D01*
X20183360Y-18824561D01*
X20117602Y-18607785D01*
X20010816Y-18408003D01*
X19867107Y-18232893D01*
X19691997Y-18089184D01*
X19492215Y-17982398D01*
X19275439Y-17916640D01*
X19106492Y-17900000D01*
X18993508Y-17900000D01*
X18824561Y-17916640D01*
X18607785Y-17982398D01*
X18408003Y-18089184D01*
X18232893Y-18232893D01*
X18089184Y-18408003D01*
X17982398Y-18607785D01*
X17916640Y-18824561D01*
X17894436Y-19050000D01*
X17916640Y-19275439D01*
X17982398Y-19492215D01*
X18089184Y-19691997D01*
X18232893Y-19867107D01*
X18327806Y-19945000D01*
X17232194Y-19945000D01*
X17327107Y-19867107D01*
X17470816Y-19691997D01*
X17577602Y-19492215D01*
X17643360Y-19275439D01*
X17665564Y-19050000D01*
X17643360Y-18824561D01*
X17577602Y-18607785D01*
X17470816Y-18408003D01*
X17327107Y-18232893D01*
X17151997Y-18089184D01*
X16952215Y-17982398D01*
X16735439Y-17916640D01*
X16566492Y-17900000D01*
X16453508Y-17900000D01*
X16284561Y-17916640D01*
X16067785Y-17982398D01*
X15868003Y-18089184D01*
X15692893Y-18232893D01*
X15549184Y-18408003D01*
X15442398Y-18607785D01*
X15376640Y-18824561D01*
X15354436Y-19050000D01*
X15376640Y-19275439D01*
X15442398Y-19492215D01*
X15549184Y-19691997D01*
X15692893Y-19867107D01*
X15787806Y-19945000D01*
X14692194Y-19945000D01*
X14787107Y-19867107D01*
X14930816Y-19691997D01*
X15037602Y-19492215D01*
X15103360Y-19275439D01*
X15125564Y-19050000D01*
X15103360Y-18824561D01*
X15037602Y-18607785D01*
X14930816Y-18408003D01*
X14787107Y-18232893D01*
X14611997Y-18089184D01*
X14412215Y-17982398D01*
X14195439Y-17916640D01*
X14026492Y-17900000D01*
X13913508Y-17900000D01*
X13744561Y-17916640D01*
X13527785Y-17982398D01*
X13328003Y-18089184D01*
X13152893Y-18232893D01*
X13009184Y-18408003D01*
X12902398Y-18607785D01*
X12836640Y-18824561D01*
X12814436Y-19050000D01*
X12836640Y-19275439D01*
X12902398Y-19492215D01*
X13009184Y-19691997D01*
X13152893Y-19867107D01*
X13247806Y-19945000D01*
X12152194Y-19945000D01*
X12247107Y-19867107D01*
X12390816Y-19691997D01*
X12497602Y-19492215D01*
X12563360Y-19275439D01*
X12585564Y-19050000D01*
X12563360Y-18824561D01*
X12497602Y-18607785D01*
X12390816Y-18408003D01*
X12247107Y-18232893D01*
X12071997Y-18089184D01*
X11872215Y-17982398D01*
X11655439Y-17916640D01*
X11486492Y-17900000D01*
X11373508Y-17900000D01*
X11204561Y-17916640D01*
X10987785Y-17982398D01*
X10788003Y-18089184D01*
X10612893Y-18232893D01*
X10469184Y-18408003D01*
X10362398Y-18607785D01*
X10296640Y-18824561D01*
X10274436Y-19050000D01*
X10296640Y-19275439D01*
X10362398Y-19492215D01*
X10469184Y-19691997D01*
X10612893Y-19867107D01*
X10707806Y-19945000D01*
X9612194Y-19945000D01*
X9707107Y-19867107D01*
X9850816Y-19691997D01*
X9957602Y-19492215D01*
X10023360Y-19275439D01*
X10045564Y-19050000D01*
X10023360Y-18824561D01*
X9957602Y-18607785D01*
X9850816Y-18408003D01*
X9707107Y-18232893D01*
X9531997Y-18089184D01*
X9332215Y-17982398D01*
X9115439Y-17916640D01*
X8946492Y-17900000D01*
X8833508Y-17900000D01*
X8664561Y-17916640D01*
X8447785Y-17982398D01*
X8248003Y-18089184D01*
X8072893Y-18232893D01*
X7929184Y-18408003D01*
X7822398Y-18607785D01*
X7756640Y-18824561D01*
X7734436Y-19050000D01*
X7756640Y-19275439D01*
X7822398Y-19492215D01*
X7929184Y-19691997D01*
X8072893Y-19867107D01*
X8167806Y-19945000D01*
X7072194Y-19945000D01*
X7167107Y-19867107D01*
X7310816Y-19691997D01*
X7417602Y-19492215D01*
X7483360Y-19275439D01*
X7505564Y-19050000D01*
X7483360Y-18824561D01*
X7417602Y-18607785D01*
X7310816Y-18408003D01*
X7167107Y-18232893D01*
X6991997Y-18089184D01*
X6792215Y-17982398D01*
X6575439Y-17916640D01*
X6406492Y-17900000D01*
X6293508Y-17900000D01*
X6124561Y-17916640D01*
X5907785Y-17982398D01*
X5708003Y-18089184D01*
X5532893Y-18232893D01*
X5389184Y-18408003D01*
X5282398Y-18607785D01*
X5216640Y-18824561D01*
X5194436Y-19050000D01*
X5216640Y-19275439D01*
X5282398Y-19492215D01*
X5389184Y-19691997D01*
X5532893Y-19867107D01*
X5627806Y-19945000D01*
X4532194Y-19945000D01*
X4627107Y-19867107D01*
X4770816Y-19691997D01*
X4877602Y-19492215D01*
X4943360Y-19275439D01*
X4965564Y-19050000D01*
X4943360Y-18824561D01*
X4877602Y-18607785D01*
X4770816Y-18408003D01*
X4627107Y-18232893D01*
X4451997Y-18089184D01*
X4252215Y-17982398D01*
X4035439Y-17916640D01*
X3866492Y-17900000D01*
X3753508Y-17900000D01*
X3584561Y-17916640D01*
X3367785Y-17982398D01*
X3168003Y-18089184D01*
X2992893Y-18232893D01*
X2849184Y-18408003D01*
X2742398Y-18607785D01*
X2676640Y-18824561D01*
X2654436Y-19050000D01*
X2676640Y-19275439D01*
X2742398Y-19492215D01*
X2849184Y-19691997D01*
X2992893Y-19867107D01*
X3087806Y-19945000D01*
X2517503Y-19945000D01*
X2521935Y-19900000D01*
X2520000Y-19200000D01*
X2420000Y-19100000D01*
X1320000Y-19100000D01*
X1320000Y-19120000D01*
X1220000Y-19120000D01*
X1220000Y-19100000D01*
X1200000Y-19100000D01*
X1200000Y-19000000D01*
X1220000Y-19000000D01*
X1220000Y-17900000D01*
X1320000Y-17900000D01*
X1320000Y-19000000D01*
X2420000Y-19000000D01*
X2520000Y-18900000D01*
X2521935Y-18200000D01*
X2514212Y-18121586D01*
X2491340Y-18046186D01*
X2454197Y-17976697D01*
X2404211Y-17915789D01*
X2343303Y-17865803D01*
X2273814Y-17828660D01*
X2198414Y-17805788D01*
X2120000Y-17798065D01*
X1420000Y-17800000D01*
X1320000Y-17900000D01*
X1220000Y-17900000D01*
X1120000Y-17800000D01*
X420000Y-17798065D01*
X375000Y-17802497D01*
X375000Y-16187056D01*
X703990Y-16187056D01*
X703990Y-16324944D01*
X730891Y-16460182D01*
X783658Y-16587574D01*
X860264Y-16702224D01*
X957766Y-16799726D01*
X1072416Y-16876332D01*
X1199808Y-16929099D01*
X1335046Y-16956000D01*
X1472934Y-16956000D01*
X1608172Y-16929099D01*
X1735564Y-16876332D01*
X1850214Y-16799726D01*
X1893940Y-16756000D01*
X36678440Y-16756000D01*
X36703000Y-16758419D01*
X36727560Y-16756000D01*
X36801017Y-16748765D01*
X36895267Y-16720175D01*
X36982129Y-16673746D01*
X37058264Y-16611264D01*
X37073929Y-16592176D01*
X42545001Y-11121106D01*
X47825598Y-16401705D01*
X47841254Y-16420782D01*
X47917389Y-16483264D01*
X48004251Y-16529693D01*
X48098501Y-16558283D01*
X48171958Y-16565518D01*
X48171967Y-16565518D01*
X48196517Y-16567936D01*
X48221067Y-16565518D01*
X50183050Y-16565518D01*
X50226776Y-16609244D01*
X50341426Y-16685850D01*
X50468818Y-16738617D01*
X50604056Y-16765518D01*
X50741944Y-16765518D01*
X50877182Y-16738617D01*
X51004574Y-16685850D01*
X51119224Y-16609244D01*
X51216726Y-16511742D01*
X51293332Y-16397092D01*
X51346099Y-16269700D01*
X51369586Y-16151623D01*
X53248869Y-16151623D01*
X53284485Y-16282490D01*
X53368251Y-16459997D01*
X53485037Y-16617752D01*
X53630356Y-16749692D01*
X53798622Y-16850746D01*
X53983370Y-16917031D01*
X54177500Y-16946000D01*
X54527500Y-16946000D01*
X54527500Y-15996000D01*
X53328890Y-15996000D01*
X53248869Y-16151623D01*
X51369586Y-16151623D01*
X51373000Y-16134462D01*
X51373000Y-15996574D01*
X51363051Y-15946560D01*
X51450100Y-15992533D01*
X51662481Y-16055806D01*
X51883125Y-16076430D01*
X52103553Y-16053611D01*
X52315293Y-15988228D01*
X52500856Y-15889042D01*
X52557924Y-15740377D01*
X53248869Y-15740377D01*
X53328890Y-15896000D01*
X54527500Y-15896000D01*
X54527500Y-14946000D01*
X54177500Y-14946000D01*
X53983370Y-14974969D01*
X53798622Y-15041254D01*
X53630356Y-15142308D01*
X53485037Y-15274248D01*
X53368251Y-15432003D01*
X53284485Y-15609510D01*
X53248869Y-15740377D01*
X52557924Y-15740377D01*
X52569919Y-15709130D01*
X51877500Y-15016711D01*
X51863358Y-15030853D01*
X51792647Y-14960142D01*
X51806789Y-14946000D01*
X51948211Y-14946000D01*
X52640630Y-15638419D01*
X52820542Y-15569356D01*
X52924033Y-15373400D01*
X52987306Y-15161019D01*
X53007930Y-14940375D01*
X52985111Y-14719947D01*
X52919728Y-14508207D01*
X52820542Y-14322644D01*
X52640630Y-14253581D01*
X51948211Y-14946000D01*
X51806789Y-14946000D01*
X51114370Y-14253581D01*
X50934458Y-14322644D01*
X50830967Y-14518600D01*
X50767694Y-14730981D01*
X50747070Y-14951625D01*
X50769889Y-15172053D01*
X50835272Y-15383793D01*
X50835445Y-15384117D01*
X50741944Y-15365518D01*
X50604056Y-15365518D01*
X50468818Y-15392419D01*
X50341426Y-15445186D01*
X50226776Y-15521792D01*
X50183050Y-15565518D01*
X48403625Y-15565518D01*
X47020977Y-14182870D01*
X51185081Y-14182870D01*
X51877500Y-14875289D01*
X52569919Y-14182870D01*
X52500856Y-14002958D01*
X52304900Y-13899467D01*
X52092519Y-13836194D01*
X51871875Y-13815570D01*
X51651447Y-13838389D01*
X51439707Y-13903772D01*
X51254144Y-14002958D01*
X51185081Y-14182870D01*
X47020977Y-14182870D01*
X43245000Y-10406895D01*
X43245000Y-10345056D01*
X43218099Y-10209818D01*
X43165332Y-10082426D01*
X43088726Y-9967776D01*
X42991224Y-9870274D01*
X42876574Y-9793668D01*
X42749182Y-9740901D01*
X42613944Y-9714000D01*
X42476056Y-9714000D01*
X42340818Y-9740901D01*
X42213426Y-9793668D01*
X42098776Y-9870274D01*
X42001274Y-9967776D01*
X41924668Y-10082426D01*
X41871901Y-10209818D01*
X41845000Y-10345056D01*
X41845000Y-10406893D01*
X36495895Y-15756000D01*
X1893940Y-15756000D01*
X1850214Y-15712274D01*
X1735564Y-15635668D01*
X1608172Y-15582901D01*
X1472934Y-15556000D01*
X1335046Y-15556000D01*
X1199808Y-15582901D01*
X1072416Y-15635668D01*
X957766Y-15712274D01*
X860264Y-15809776D01*
X783658Y-15924426D01*
X730891Y-16051818D01*
X703990Y-16187056D01*
X375000Y-16187056D01*
X375000Y-14214771D01*
X2584199Y-14214771D01*
X2654795Y-14447500D01*
X2770148Y-14663694D01*
X2925461Y-14853230D01*
X3114767Y-15008824D01*
X3330790Y-15124497D01*
X3565229Y-15195803D01*
X3760000Y-15119002D01*
X3760000Y-14020000D01*
X3860000Y-14020000D01*
X3860000Y-15119002D01*
X4054771Y-15195803D01*
X4289210Y-15124497D01*
X4505233Y-15008824D01*
X4694539Y-14853230D01*
X4849852Y-14663694D01*
X4965205Y-14447500D01*
X5035801Y-14214771D01*
X4958913Y-14020000D01*
X3860000Y-14020000D01*
X3760000Y-14020000D01*
X2661087Y-14020000D01*
X2584199Y-14214771D01*
X375000Y-14214771D01*
X375000Y-10287000D01*
X2035182Y-10287000D01*
X2037000Y-10305460D01*
X2037001Y-11856030D01*
X2035182Y-11874500D01*
X2042441Y-11948208D01*
X2063941Y-12019084D01*
X2063942Y-12019085D01*
X2098856Y-12084405D01*
X2145843Y-12141658D01*
X2160187Y-12153430D01*
X2959569Y-12952813D01*
X2971342Y-12967158D01*
X3021203Y-13008078D01*
X2925461Y-13086770D01*
X2770148Y-13276306D01*
X2654795Y-13492500D01*
X2584199Y-13725229D01*
X2661087Y-13920000D01*
X3760000Y-13920000D01*
X3760000Y-13900000D01*
X3860000Y-13900000D01*
X3860000Y-13920000D01*
X4958913Y-13920000D01*
X5035801Y-13725229D01*
X4965205Y-13492500D01*
X4849852Y-13276306D01*
X4694539Y-13086770D01*
X4681436Y-13076000D01*
X6448257Y-13076000D01*
X8547575Y-15175320D01*
X8559342Y-15189658D01*
X8573680Y-15201425D01*
X8573686Y-15201431D01*
X8616594Y-15236644D01*
X8616595Y-15236645D01*
X8681915Y-15271559D01*
X8752791Y-15293059D01*
X8808032Y-15298500D01*
X8808040Y-15298500D01*
X8826500Y-15300318D01*
X8844960Y-15298500D01*
X27167331Y-15298500D01*
X27185791Y-15300318D01*
X27204251Y-15298500D01*
X27204259Y-15298500D01*
X27259500Y-15293059D01*
X27330376Y-15271559D01*
X27395696Y-15236645D01*
X27452949Y-15189658D01*
X27464725Y-15175309D01*
X32721117Y-9918918D01*
X32728758Y-9920438D01*
X32846948Y-9920438D01*
X32962867Y-9897380D01*
X33072060Y-9852151D01*
X33170331Y-9786488D01*
X33253903Y-9702916D01*
X33319566Y-9604645D01*
X33364795Y-9495452D01*
X33387853Y-9379533D01*
X33387853Y-9261343D01*
X33364795Y-9145424D01*
X33319566Y-9036231D01*
X33253903Y-8937960D01*
X33170331Y-8854388D01*
X33072060Y-8788725D01*
X32962867Y-8743496D01*
X32846948Y-8720438D01*
X32731008Y-8720438D01*
X32731008Y-8640405D01*
X32707950Y-8524486D01*
X32662721Y-8415293D01*
X32597058Y-8317022D01*
X32513486Y-8233450D01*
X32415215Y-8167787D01*
X32306022Y-8122558D01*
X32190103Y-8099500D01*
X32071913Y-8099500D01*
X31955994Y-8122558D01*
X31846801Y-8167787D01*
X31748530Y-8233450D01*
X31664958Y-8317022D01*
X31599295Y-8415293D01*
X31554066Y-8524486D01*
X31531008Y-8640405D01*
X31531008Y-8758595D01*
X31533212Y-8769675D01*
X31516865Y-8789594D01*
X31508429Y-8805377D01*
X31481950Y-8854915D01*
X31460450Y-8925791D01*
X31453191Y-8999499D01*
X31455010Y-9017969D01*
X31455009Y-9669246D01*
X26881768Y-14242489D01*
X9108169Y-14242489D01*
X6042870Y-11177191D01*
X6031094Y-11162842D01*
X5973841Y-11115855D01*
X5908521Y-11080941D01*
X5837645Y-11059441D01*
X5782404Y-11054000D01*
X5782396Y-11054000D01*
X5763936Y-11052182D01*
X5745476Y-11054000D01*
X4897688Y-11054000D01*
X4877602Y-10987785D01*
X4770816Y-10788003D01*
X4627107Y-10612893D01*
X4451997Y-10469184D01*
X4252215Y-10362398D01*
X4035439Y-10296640D01*
X3866492Y-10280000D01*
X3753508Y-10280000D01*
X3584561Y-10296640D01*
X3367785Y-10362398D01*
X3168003Y-10469184D01*
X2992893Y-10612893D01*
X2849184Y-10788003D01*
X2789000Y-10900599D01*
X2789000Y-10442743D01*
X3306760Y-9924983D01*
X3367785Y-9957602D01*
X3584561Y-10023360D01*
X3753508Y-10040000D01*
X3866492Y-10040000D01*
X4035439Y-10023360D01*
X4252215Y-9957602D01*
X4451997Y-9850816D01*
X4627107Y-9707107D01*
X4770816Y-9531997D01*
X4877602Y-9332215D01*
X4943360Y-9115439D01*
X4965564Y-8890000D01*
X4943360Y-8664561D01*
X4877602Y-8447785D01*
X4770816Y-8248003D01*
X4627107Y-8072893D01*
X4587027Y-8040000D01*
X5198549Y-8040000D01*
X5198549Y-9740000D01*
X5204341Y-9798810D01*
X5221496Y-9855360D01*
X5249353Y-9907477D01*
X5286842Y-9953158D01*
X5332523Y-9990647D01*
X5384640Y-10018504D01*
X5441190Y-10035659D01*
X5500000Y-10041451D01*
X7200000Y-10041451D01*
X7258810Y-10035659D01*
X7315360Y-10018504D01*
X7367477Y-9990647D01*
X7413158Y-9953158D01*
X7450647Y-9907477D01*
X7478504Y-9855360D01*
X7495659Y-9798810D01*
X7501451Y-9740000D01*
X7501451Y-9571194D01*
X11708575Y-13778320D01*
X11720342Y-13792658D01*
X11734680Y-13804425D01*
X11734686Y-13804431D01*
X11756287Y-13822158D01*
X11777595Y-13839645D01*
X11842915Y-13874559D01*
X11913791Y-13896059D01*
X11969032Y-13901500D01*
X11969040Y-13901500D01*
X11987500Y-13903318D01*
X12005960Y-13901500D01*
X24302040Y-13901500D01*
X24320500Y-13903318D01*
X24338960Y-13901500D01*
X24338968Y-13901500D01*
X24394209Y-13896059D01*
X24465085Y-13874559D01*
X24530405Y-13839645D01*
X24587658Y-13792658D01*
X24599434Y-13778309D01*
X30381744Y-7996000D01*
X30454122Y-7996000D01*
X30458450Y-8002478D01*
X30542022Y-8086050D01*
X30640293Y-8151713D01*
X30749486Y-8196942D01*
X30865405Y-8220000D01*
X30983595Y-8220000D01*
X31099514Y-8196942D01*
X31208707Y-8151713D01*
X31306978Y-8086050D01*
X31390550Y-8002478D01*
X31456213Y-7904207D01*
X31501442Y-7795014D01*
X31524500Y-7679095D01*
X31524500Y-7560905D01*
X31501442Y-7444986D01*
X31456213Y-7335793D01*
X31390550Y-7237522D01*
X31306978Y-7153950D01*
X31208707Y-7088287D01*
X31099514Y-7043058D01*
X30983595Y-7020000D01*
X30865405Y-7020000D01*
X30749486Y-7043058D01*
X30640293Y-7088287D01*
X30542022Y-7153950D01*
X30458450Y-7237522D01*
X30454122Y-7244000D01*
X30244459Y-7244000D01*
X30225999Y-7242182D01*
X30207539Y-7244000D01*
X30207532Y-7244000D01*
X30152291Y-7249441D01*
X30081415Y-7270941D01*
X30016095Y-7305855D01*
X29958842Y-7352842D01*
X29947070Y-7367186D01*
X28845427Y-8468829D01*
X28792794Y-8390058D01*
X28709222Y-8306486D01*
X28610951Y-8240823D01*
X28501758Y-8195594D01*
X28385839Y-8172536D01*
X28267649Y-8172536D01*
X28167151Y-8192527D01*
X28154213Y-8161291D01*
X28088550Y-8063020D01*
X28004978Y-7979448D01*
X27906707Y-7913785D01*
X27797514Y-7868556D01*
X27681595Y-7845498D01*
X27563405Y-7845498D01*
X27447486Y-7868556D01*
X27338293Y-7913785D01*
X27240022Y-7979448D01*
X27156450Y-8063020D01*
X27090787Y-8161291D01*
X27045558Y-8270484D01*
X27042140Y-8287667D01*
X27017148Y-8227331D01*
X26951485Y-8129060D01*
X26867913Y-8045488D01*
X26769642Y-7979825D01*
X26660449Y-7934596D01*
X26544530Y-7911538D01*
X26426340Y-7911538D01*
X26310421Y-7934596D01*
X26201228Y-7979825D01*
X26102957Y-8045488D01*
X26019385Y-8129060D01*
X25953722Y-8227331D01*
X25908493Y-8336524D01*
X25885435Y-8452443D01*
X25885435Y-8570633D01*
X25908493Y-8686552D01*
X25953722Y-8795745D01*
X26019385Y-8894016D01*
X26102957Y-8977588D01*
X26201228Y-9043251D01*
X26310421Y-9088480D01*
X26426340Y-9111538D01*
X26544530Y-9111538D01*
X26660449Y-9088480D01*
X26769642Y-9043251D01*
X26867913Y-8977588D01*
X26951485Y-8894016D01*
X27017148Y-8795745D01*
X27062377Y-8686552D01*
X27065795Y-8669369D01*
X27090787Y-8729705D01*
X27156450Y-8827976D01*
X27240022Y-8911548D01*
X27246501Y-8915877D01*
X27246501Y-9051754D01*
X23847257Y-12451000D01*
X20123053Y-12451000D01*
X20154000Y-12295416D01*
X20154000Y-12088584D01*
X20113650Y-11885726D01*
X20034498Y-11694638D01*
X19919589Y-11522664D01*
X19773336Y-11376411D01*
X19601362Y-11261502D01*
X19410274Y-11182350D01*
X19207416Y-11142000D01*
X19000584Y-11142000D01*
X18797726Y-11182350D01*
X18683082Y-11229838D01*
X16374636Y-8921392D01*
X16404550Y-8891478D01*
X16470213Y-8793207D01*
X16515442Y-8684014D01*
X16538500Y-8568095D01*
X16538500Y-8449905D01*
X16515442Y-8333986D01*
X16470213Y-8224793D01*
X16404550Y-8126522D01*
X16320978Y-8042950D01*
X16222707Y-7977287D01*
X16113514Y-7932058D01*
X15997595Y-7909000D01*
X15879405Y-7909000D01*
X15763486Y-7932058D01*
X15654293Y-7977287D01*
X15556022Y-8042950D01*
X15472450Y-8126522D01*
X15406787Y-8224793D01*
X15361558Y-8333986D01*
X15338500Y-8449905D01*
X15338500Y-8568095D01*
X15361558Y-8684014D01*
X15406787Y-8793207D01*
X15472450Y-8891478D01*
X15556022Y-8975050D01*
X15562500Y-8979379D01*
X15562500Y-8998539D01*
X15560682Y-9017000D01*
X15562500Y-9035460D01*
X15562500Y-9035467D01*
X15567941Y-9090708D01*
X15589441Y-9161584D01*
X15624355Y-9226904D01*
X15671342Y-9284158D01*
X15685691Y-9295934D01*
X18147403Y-11757647D01*
X18094350Y-11885726D01*
X18054000Y-12088584D01*
X18054000Y-12295416D01*
X18094350Y-12498274D01*
X18173502Y-12689362D01*
X18268809Y-12832000D01*
X15395745Y-12832000D01*
X15183380Y-12619636D01*
X15233650Y-12498274D01*
X15274000Y-12295416D01*
X15274000Y-12088584D01*
X15233650Y-11885726D01*
X15154498Y-11694638D01*
X15039589Y-11522664D01*
X14893336Y-11376411D01*
X14721362Y-11261502D01*
X14530274Y-11182350D01*
X14327416Y-11142000D01*
X14120584Y-11142000D01*
X13917726Y-11182350D01*
X13796364Y-11232620D01*
X12250500Y-9686757D01*
X12250500Y-8979378D01*
X12256978Y-8975050D01*
X12340550Y-8891478D01*
X12406213Y-8793207D01*
X12451442Y-8684014D01*
X12474500Y-8568095D01*
X12474500Y-8449905D01*
X12451442Y-8333986D01*
X12406213Y-8224793D01*
X12340550Y-8126522D01*
X12256978Y-8042950D01*
X12158707Y-7977287D01*
X12049514Y-7932058D01*
X11933595Y-7909000D01*
X11815405Y-7909000D01*
X11699486Y-7932058D01*
X11590293Y-7977287D01*
X11492022Y-8042950D01*
X11408450Y-8126522D01*
X11342787Y-8224793D01*
X11297558Y-8333986D01*
X11274500Y-8449905D01*
X11274500Y-8568095D01*
X11297558Y-8684014D01*
X11342787Y-8793207D01*
X11408450Y-8891478D01*
X11492022Y-8975050D01*
X11498500Y-8979379D01*
X11498501Y-9824030D01*
X11496682Y-9842500D01*
X11503941Y-9916208D01*
X11525441Y-9987084D01*
X11525442Y-9987085D01*
X11560356Y-10052405D01*
X11565552Y-10058736D01*
X11592974Y-10092149D01*
X11607343Y-10109658D01*
X11621687Y-10121430D01*
X13264620Y-11764364D01*
X13214350Y-11885726D01*
X13174000Y-12088584D01*
X13174000Y-12295416D01*
X13214350Y-12498274D01*
X13293502Y-12689362D01*
X13408411Y-12861336D01*
X13554664Y-13007589D01*
X13726638Y-13122498D01*
X13791826Y-13149500D01*
X12143245Y-13149500D01*
X7630934Y-8637191D01*
X7619158Y-8622842D01*
X7561905Y-8575855D01*
X7501451Y-8543542D01*
X7501451Y-8040000D01*
X7495659Y-7981190D01*
X7478504Y-7924640D01*
X7450647Y-7872523D01*
X7413158Y-7826842D01*
X7367477Y-7789353D01*
X7315360Y-7761496D01*
X7258810Y-7744341D01*
X7200000Y-7738549D01*
X5500000Y-7738549D01*
X5441190Y-7744341D01*
X5384640Y-7761496D01*
X5332523Y-7789353D01*
X5286842Y-7826842D01*
X5249353Y-7872523D01*
X5221496Y-7924640D01*
X5204341Y-7981190D01*
X5198549Y-8040000D01*
X4587027Y-8040000D01*
X4451997Y-7929184D01*
X4252215Y-7822398D01*
X4035439Y-7756640D01*
X3866492Y-7740000D01*
X3753508Y-7740000D01*
X3584561Y-7756640D01*
X3367785Y-7822398D01*
X3168003Y-7929184D01*
X2992893Y-8072893D01*
X2849184Y-8248003D01*
X2742398Y-8447785D01*
X2676640Y-8664561D01*
X2654436Y-8890000D01*
X2676640Y-9115439D01*
X2742398Y-9332215D01*
X2775017Y-9393240D01*
X2160191Y-10008066D01*
X2145842Y-10019842D01*
X2098855Y-10077096D01*
X2063941Y-10142416D01*
X2042441Y-10213292D01*
X2037000Y-10268533D01*
X2037000Y-10268540D01*
X2035182Y-10287000D01*
X375000Y-10287000D01*
X375000Y-5500000D01*
X2658549Y-5500000D01*
X2658549Y-7200000D01*
X2664341Y-7258810D01*
X2681496Y-7315360D01*
X2709353Y-7367477D01*
X2746842Y-7413158D01*
X2792523Y-7450647D01*
X2844640Y-7478504D01*
X2901190Y-7495659D01*
X2960000Y-7501451D01*
X4660000Y-7501451D01*
X4718810Y-7495659D01*
X4775360Y-7478504D01*
X4827477Y-7450647D01*
X4873158Y-7413158D01*
X4910647Y-7367477D01*
X4938504Y-7315360D01*
X4955659Y-7258810D01*
X4961451Y-7200000D01*
X4961451Y-6850000D01*
X5313285Y-6850000D01*
X5389184Y-6991997D01*
X5532893Y-7167107D01*
X5708003Y-7310816D01*
X5907785Y-7417602D01*
X6124561Y-7483360D01*
X6293508Y-7500000D01*
X6406492Y-7500000D01*
X6575439Y-7483360D01*
X6792215Y-7417602D01*
X6991997Y-7310816D01*
X7167107Y-7167107D01*
X7310816Y-6991997D01*
X7417602Y-6792215D01*
X7483360Y-6575439D01*
X7505564Y-6350000D01*
X7483360Y-6124561D01*
X7436621Y-5970484D01*
X8596399Y-4810707D01*
X18313500Y-4810707D01*
X18313500Y-4968293D01*
X18344243Y-5122851D01*
X18404549Y-5268442D01*
X18492099Y-5399470D01*
X18603530Y-5510901D01*
X18734558Y-5598451D01*
X18880149Y-5658757D01*
X19034707Y-5689500D01*
X19192293Y-5689500D01*
X19346851Y-5658757D01*
X19349795Y-5657538D01*
X21494267Y-7802011D01*
X20657755Y-7802011D01*
X19881538Y-7025794D01*
X19882757Y-7022851D01*
X19913500Y-6868293D01*
X19913500Y-6710707D01*
X19882757Y-6556149D01*
X19822451Y-6410558D01*
X19734901Y-6279530D01*
X19623470Y-6168099D01*
X19492442Y-6080549D01*
X19346851Y-6020243D01*
X19192293Y-5989500D01*
X19034707Y-5989500D01*
X18880149Y-6020243D01*
X18734558Y-6080549D01*
X18603530Y-6168099D01*
X18492099Y-6279530D01*
X18404549Y-6410558D01*
X18344243Y-6556149D01*
X18313500Y-6710707D01*
X18313500Y-6868293D01*
X18344243Y-7022851D01*
X18404549Y-7168442D01*
X18492099Y-7299470D01*
X18603530Y-7410901D01*
X18734558Y-7498451D01*
X18880149Y-7558757D01*
X19034707Y-7589500D01*
X19192293Y-7589500D01*
X19346851Y-7558757D01*
X19349794Y-7557538D01*
X20223081Y-8430825D01*
X20234853Y-8445169D01*
X20292106Y-8492156D01*
X20357426Y-8527070D01*
X20428302Y-8548570D01*
X20483543Y-8554011D01*
X20483550Y-8554011D01*
X20502010Y-8555829D01*
X20520470Y-8554011D01*
X25316965Y-8554011D01*
X25335425Y-8555829D01*
X25353885Y-8554011D01*
X25353893Y-8554011D01*
X25409134Y-8548570D01*
X25480010Y-8527070D01*
X25545330Y-8492156D01*
X25602583Y-8445169D01*
X25614359Y-8430820D01*
X26687173Y-7358007D01*
X27461385Y-7358007D01*
X27465713Y-7364485D01*
X27549285Y-7448057D01*
X27647556Y-7513720D01*
X27756749Y-7558949D01*
X27872668Y-7582007D01*
X27990858Y-7582007D01*
X28106777Y-7558949D01*
X28125490Y-7551198D01*
X28172450Y-7621478D01*
X28256022Y-7705050D01*
X28354293Y-7770713D01*
X28463486Y-7815942D01*
X28579405Y-7839000D01*
X28697595Y-7839000D01*
X28813514Y-7815942D01*
X28922707Y-7770713D01*
X29020978Y-7705050D01*
X29104550Y-7621478D01*
X29170213Y-7523207D01*
X29215442Y-7414014D01*
X29238500Y-7298095D01*
X29238500Y-7179905D01*
X29215442Y-7063986D01*
X29170213Y-6954793D01*
X29104550Y-6856522D01*
X29020978Y-6772950D01*
X29011585Y-6766674D01*
X29009059Y-6741027D01*
X28987559Y-6670151D01*
X28952645Y-6604831D01*
X28931935Y-6579596D01*
X28917431Y-6561922D01*
X28917425Y-6561916D01*
X28905658Y-6547578D01*
X28891320Y-6535811D01*
X28452698Y-6097191D01*
X28440922Y-6082842D01*
X28383669Y-6035855D01*
X28318349Y-6000941D01*
X28247473Y-5979441D01*
X28192232Y-5974000D01*
X28192224Y-5974000D01*
X28173764Y-5972182D01*
X28155304Y-5974000D01*
X26751957Y-5974000D01*
X26733499Y-5972182D01*
X26715041Y-5974000D01*
X26715032Y-5974000D01*
X26659791Y-5979441D01*
X26588915Y-6000941D01*
X26523595Y-6035855D01*
X26466342Y-6082842D01*
X26454570Y-6097186D01*
X25053757Y-7498000D01*
X22253744Y-7498000D01*
X19881538Y-5125795D01*
X19882757Y-5122851D01*
X19913500Y-4968293D01*
X19913500Y-4810707D01*
X19882757Y-4656149D01*
X19822451Y-4510558D01*
X19734901Y-4379530D01*
X19623470Y-4268099D01*
X19492442Y-4180549D01*
X19346851Y-4120243D01*
X19192293Y-4089500D01*
X19034707Y-4089500D01*
X18880149Y-4120243D01*
X18734558Y-4180549D01*
X18603530Y-4268099D01*
X18492099Y-4379530D01*
X18404549Y-4510558D01*
X18344243Y-4656149D01*
X18313500Y-4810707D01*
X8596399Y-4810707D01*
X9478107Y-3929000D01*
X22970395Y-3929000D01*
X23886079Y-4844686D01*
X23901736Y-4863764D01*
X23977871Y-4926246D01*
X24064733Y-4972675D01*
X24158983Y-5001265D01*
X24257000Y-5010919D01*
X24281560Y-5008500D01*
X25639831Y-5008500D01*
X25687293Y-5040213D01*
X25796486Y-5085442D01*
X25912405Y-5108500D01*
X26030595Y-5108500D01*
X26146514Y-5085442D01*
X26255707Y-5040213D01*
X26303169Y-5008500D01*
X30463395Y-5008500D01*
X35713393Y-10258500D01*
X35691405Y-10258500D01*
X35575486Y-10281558D01*
X35466293Y-10326787D01*
X35368022Y-10392450D01*
X35284450Y-10476022D01*
X35218787Y-10574293D01*
X35173558Y-10683486D01*
X35150500Y-10799405D01*
X35150500Y-10917595D01*
X35173558Y-11033514D01*
X35218787Y-11142707D01*
X35284450Y-11240978D01*
X35368022Y-11324550D01*
X35466293Y-11390213D01*
X35575486Y-11435442D01*
X35691405Y-11458500D01*
X35809595Y-11458500D01*
X35925514Y-11435442D01*
X36034707Y-11390213D01*
X36132978Y-11324550D01*
X36216550Y-11240978D01*
X36282213Y-11142707D01*
X36327442Y-11033514D01*
X36350500Y-10917595D01*
X36350500Y-10823500D01*
X36444595Y-10823500D01*
X36560514Y-10800442D01*
X36669707Y-10755213D01*
X36767978Y-10689550D01*
X36851550Y-10605978D01*
X36917213Y-10507707D01*
X36925250Y-10488304D01*
X36933287Y-10507707D01*
X36998950Y-10605978D01*
X37082522Y-10689550D01*
X37180793Y-10755213D01*
X37289986Y-10800442D01*
X37405905Y-10823500D01*
X37524095Y-10823500D01*
X37640014Y-10800442D01*
X37749207Y-10755213D01*
X37847478Y-10689550D01*
X37931050Y-10605978D01*
X37996713Y-10507707D01*
X38041942Y-10398514D01*
X38065000Y-10282595D01*
X38065000Y-10164405D01*
X38041942Y-10048486D01*
X37996713Y-9939293D01*
X37965000Y-9891831D01*
X37965000Y-9158169D01*
X37996713Y-9110707D01*
X38041942Y-9001514D01*
X38065000Y-8885595D01*
X38065000Y-8767405D01*
X38041942Y-8651486D01*
X37996713Y-8542293D01*
X37931050Y-8444022D01*
X37847478Y-8360450D01*
X37749207Y-8294787D01*
X37640014Y-8249558D01*
X37524095Y-8226500D01*
X37405905Y-8226500D01*
X37289986Y-8249558D01*
X37180793Y-8294787D01*
X37133331Y-8326500D01*
X36275106Y-8326500D01*
X31944826Y-3996221D01*
X31964213Y-3967207D01*
X32009442Y-3858014D01*
X32032500Y-3742095D01*
X32032500Y-3623905D01*
X32009442Y-3507986D01*
X31964213Y-3398793D01*
X31898550Y-3300522D01*
X31814978Y-3216950D01*
X31716707Y-3151287D01*
X31607514Y-3106058D01*
X31491595Y-3083000D01*
X31373405Y-3083000D01*
X31257486Y-3106058D01*
X31148293Y-3151287D01*
X31050022Y-3216950D01*
X30966450Y-3300522D01*
X30900787Y-3398793D01*
X30855558Y-3507986D01*
X30832500Y-3623905D01*
X30832500Y-3742095D01*
X30855558Y-3858014D01*
X30900787Y-3967207D01*
X30932500Y-4014669D01*
X30932500Y-4081598D01*
X30862767Y-4044325D01*
X30768517Y-4015735D01*
X30695060Y-4008500D01*
X30670500Y-4006081D01*
X30645940Y-4008500D01*
X26303169Y-4008500D01*
X26255707Y-3976787D01*
X26146514Y-3931558D01*
X26030595Y-3908500D01*
X25912405Y-3908500D01*
X25796486Y-3931558D01*
X25687293Y-3976787D01*
X25639831Y-4008500D01*
X24464107Y-4008500D01*
X23548429Y-3092824D01*
X23532764Y-3073736D01*
X23456629Y-3011254D01*
X23369767Y-2964825D01*
X23275517Y-2936235D01*
X23202060Y-2929000D01*
X23177500Y-2926581D01*
X23152940Y-2929000D01*
X9295560Y-2929000D01*
X9271000Y-2926581D01*
X9246440Y-2929000D01*
X9172983Y-2936235D01*
X9078733Y-2964825D01*
X8991871Y-3011254D01*
X8915736Y-3073736D01*
X8900080Y-3092813D01*
X6729516Y-5263379D01*
X6575439Y-5216640D01*
X6406492Y-5200000D01*
X6293508Y-5200000D01*
X6124561Y-5216640D01*
X5907785Y-5282398D01*
X5708003Y-5389184D01*
X5532893Y-5532893D01*
X5389184Y-5708003D01*
X5313285Y-5850000D01*
X4961451Y-5850000D01*
X4961451Y-5500000D01*
X4955659Y-5441190D01*
X4938504Y-5384640D01*
X4910647Y-5332523D01*
X4873158Y-5286842D01*
X4827477Y-5249353D01*
X4775360Y-5221496D01*
X4718810Y-5204341D01*
X4660000Y-5198549D01*
X2960000Y-5198549D01*
X2901190Y-5204341D01*
X2844640Y-5221496D01*
X2792523Y-5249353D01*
X2746842Y-5286842D01*
X2709353Y-5332523D01*
X2681496Y-5384640D01*
X2664341Y-5441190D01*
X2658549Y-5500000D01*
X375000Y-5500000D01*
X375000Y-2517503D01*
X420000Y-2521935D01*
X1120000Y-2520000D01*
X1220000Y-2420000D01*
X1220000Y-1320000D01*
X1320000Y-1320000D01*
X1320000Y-2420000D01*
X1420000Y-2520000D01*
X2120000Y-2521935D01*
X2198414Y-2514212D01*
X2273814Y-2491340D01*
X2343303Y-2454197D01*
X2404211Y-2404211D01*
X2454197Y-2343303D01*
X2491340Y-2273814D01*
X2514212Y-2198414D01*
X2521935Y-2120000D01*
X2520000Y-1420000D01*
X2420000Y-1320000D01*
X1320000Y-1320000D01*
X1220000Y-1320000D01*
X1200000Y-1320000D01*
X1200000Y-1220000D01*
X1220000Y-1220000D01*
X1220000Y-1200000D01*
X1320000Y-1200000D01*
X1320000Y-1220000D01*
X2420000Y-1220000D01*
X2520000Y-1120000D01*
X2521935Y-420000D01*
X2517503Y-375000D01*
X3087806Y-375000D01*
X2992893Y-452893D01*
M02*
