G04 #@! TF.GenerationSoftware,KiCad,Pcbnew,(5.0.0)*
G04 #@! TF.CreationDate,2018-11-21T21:11:44+01:00*
G04 #@! TF.ProjectId,mibo100_imxrt,6D69626F3130305F696D7872742E6B69,rev?*
G04 #@! TF.SameCoordinates,PX695f190PY429d390*
G04 #@! TF.FileFunction,Soldermask,Bot*
G04 #@! TF.FilePolarity,Negative*
%FSLAX46Y46*%
G04 Gerber Fmt 4.6, Leading zero omitted, Abs format (unit mm)*
G04 Created by KiCad (PCBNEW (5.0.0)) date 11/21/18 21:11:44*
%MOMM*%
%LPD*%
G01*
G04 APERTURE LIST*
%ADD10C,0.250000*%
%ADD11C,0.100000*%
G04 APERTURE END LIST*
D10*
X1609380Y-6509476D02*
X609380Y-6509476D01*
X1323666Y-6842809D01*
X609380Y-7176142D01*
X1609380Y-7176142D01*
X1609380Y-7652333D02*
X609380Y-7652333D01*
X1085571Y-8461857D02*
X1133190Y-8604714D01*
X1180809Y-8652333D01*
X1276047Y-8699952D01*
X1418904Y-8699952D01*
X1514142Y-8652333D01*
X1561761Y-8604714D01*
X1609380Y-8509476D01*
X1609380Y-8128523D01*
X609380Y-8128523D01*
X609380Y-8461857D01*
X657000Y-8557095D01*
X704619Y-8604714D01*
X799857Y-8652333D01*
X895095Y-8652333D01*
X990333Y-8604714D01*
X1037952Y-8557095D01*
X1085571Y-8461857D01*
X1085571Y-8128523D01*
X609380Y-9319000D02*
X609380Y-9509476D01*
X657000Y-9604714D01*
X752238Y-9699952D01*
X942714Y-9747571D01*
X1276047Y-9747571D01*
X1466523Y-9699952D01*
X1561761Y-9604714D01*
X1609380Y-9509476D01*
X1609380Y-9319000D01*
X1561761Y-9223761D01*
X1466523Y-9128523D01*
X1276047Y-9080904D01*
X942714Y-9080904D01*
X752238Y-9128523D01*
X657000Y-9223761D01*
X609380Y-9319000D01*
X1609380Y-10699952D02*
X1609380Y-10128523D01*
X1609380Y-10414238D02*
X609380Y-10414238D01*
X752238Y-10319000D01*
X847476Y-10223761D01*
X895095Y-10128523D01*
X609380Y-11319000D02*
X609380Y-11414238D01*
X657000Y-11509476D01*
X704619Y-11557095D01*
X799857Y-11604714D01*
X990333Y-11652333D01*
X1228428Y-11652333D01*
X1418904Y-11604714D01*
X1514142Y-11557095D01*
X1561761Y-11509476D01*
X1609380Y-11414238D01*
X1609380Y-11319000D01*
X1561761Y-11223761D01*
X1514142Y-11176142D01*
X1418904Y-11128523D01*
X1228428Y-11080904D01*
X990333Y-11080904D01*
X799857Y-11128523D01*
X704619Y-11176142D01*
X657000Y-11223761D01*
X609380Y-11319000D01*
X609380Y-12271380D02*
X609380Y-12366619D01*
X657000Y-12461857D01*
X704619Y-12509476D01*
X799857Y-12557095D01*
X990333Y-12604714D01*
X1228428Y-12604714D01*
X1418904Y-12557095D01*
X1514142Y-12509476D01*
X1561761Y-12461857D01*
X1609380Y-12366619D01*
X1609380Y-12271380D01*
X1561761Y-12176142D01*
X1514142Y-12128523D01*
X1418904Y-12080904D01*
X1228428Y-12033285D01*
X990333Y-12033285D01*
X799857Y-12080904D01*
X704619Y-12128523D01*
X657000Y-12176142D01*
X609380Y-12271380D01*
X1228428Y-13033285D02*
X1228428Y-13795190D01*
X1609380Y-14271380D02*
X609380Y-14271380D01*
X1609380Y-14747571D02*
X609380Y-14747571D01*
X1323666Y-15080904D01*
X609380Y-15414238D01*
X1609380Y-15414238D01*
X609380Y-15795190D02*
X1609380Y-16461857D01*
X609380Y-16461857D02*
X1609380Y-15795190D01*
X1609380Y-17414238D02*
X1133190Y-17080904D01*
X1609380Y-16842809D02*
X609380Y-16842809D01*
X609380Y-17223761D01*
X657000Y-17319000D01*
X704619Y-17366619D01*
X799857Y-17414238D01*
X942714Y-17414238D01*
X1037952Y-17366619D01*
X1085571Y-17319000D01*
X1133190Y-17223761D01*
X1133190Y-16842809D01*
X609380Y-17699952D02*
X609380Y-18271380D01*
X1609380Y-17985666D02*
X609380Y-17985666D01*
X3359380Y-9152333D02*
X2359380Y-9152333D01*
X2740333Y-9152333D02*
X2692714Y-9247571D01*
X2692714Y-9438047D01*
X2740333Y-9533285D01*
X2787952Y-9580904D01*
X2883190Y-9628523D01*
X3168904Y-9628523D01*
X3264142Y-9580904D01*
X3311761Y-9533285D01*
X3359380Y-9438047D01*
X3359380Y-9247571D01*
X3311761Y-9152333D01*
X2692714Y-9961857D02*
X3359380Y-10199952D01*
X2692714Y-10438047D02*
X3359380Y-10199952D01*
X3597476Y-10104714D01*
X3645095Y-10057095D01*
X3692714Y-9961857D01*
X2692714Y-11580904D02*
X3359380Y-11580904D01*
X2787952Y-11580904D02*
X2740333Y-11628523D01*
X2692714Y-11723761D01*
X2692714Y-11866619D01*
X2740333Y-11961857D01*
X2835571Y-12009476D01*
X3359380Y-12009476D01*
X2692714Y-12390428D02*
X3359380Y-12628523D01*
X2692714Y-12866619D01*
X3359380Y-13247571D02*
X2692714Y-13247571D01*
X2359380Y-13247571D02*
X2407000Y-13199952D01*
X2454619Y-13247571D01*
X2407000Y-13295190D01*
X2359380Y-13247571D01*
X2454619Y-13247571D01*
X2692714Y-13580904D02*
X2692714Y-13961857D01*
X2359380Y-13723761D02*
X3216523Y-13723761D01*
X3311761Y-13771380D01*
X3359380Y-13866619D01*
X3359380Y-13961857D01*
X2692714Y-14199952D02*
X3359380Y-14438047D01*
X2692714Y-14676142D02*
X3359380Y-14438047D01*
X3597476Y-14342809D01*
X3645095Y-14295190D01*
X3692714Y-14199952D01*
X3359380Y-15485666D02*
X2835571Y-15485666D01*
X2740333Y-15438047D01*
X2692714Y-15342809D01*
X2692714Y-15152333D01*
X2740333Y-15057095D01*
X3311761Y-15485666D02*
X3359380Y-15390428D01*
X3359380Y-15152333D01*
X3311761Y-15057095D01*
X3216523Y-15009476D01*
X3121285Y-15009476D01*
X3026047Y-15057095D01*
X2978428Y-15152333D01*
X2978428Y-15390428D01*
X2930809Y-15485666D01*
D11*
G36*
X21718707Y-23087596D02*
X21795836Y-23095193D01*
X21927787Y-23135220D01*
X21993763Y-23155233D01*
X22176172Y-23252733D01*
X22336054Y-23383946D01*
X22467267Y-23543828D01*
X22564767Y-23726237D01*
X22564767Y-23726238D01*
X22624807Y-23924164D01*
X22645080Y-24130000D01*
X22624807Y-24335836D01*
X22584780Y-24467787D01*
X22564767Y-24533763D01*
X22467267Y-24716172D01*
X22336054Y-24876054D01*
X22176172Y-25007267D01*
X21993763Y-25104767D01*
X21927787Y-25124780D01*
X21795836Y-25164807D01*
X21718707Y-25172403D01*
X21641580Y-25180000D01*
X21538420Y-25180000D01*
X21461293Y-25172403D01*
X21384164Y-25164807D01*
X21252213Y-25124780D01*
X21186237Y-25104767D01*
X21003828Y-25007267D01*
X20843946Y-24876054D01*
X20712733Y-24716172D01*
X20615233Y-24533763D01*
X20595220Y-24467787D01*
X20555193Y-24335836D01*
X20534920Y-24130000D01*
X20555193Y-23924164D01*
X20615233Y-23726238D01*
X20615233Y-23726237D01*
X20712733Y-23543828D01*
X20843946Y-23383946D01*
X21003828Y-23252733D01*
X21186237Y-23155233D01*
X21252213Y-23135220D01*
X21384164Y-23095193D01*
X21461293Y-23087596D01*
X21538420Y-23080000D01*
X21641580Y-23080000D01*
X21718707Y-23087596D01*
X21718707Y-23087596D01*
G37*
G36*
X31878707Y-23087596D02*
X31955836Y-23095193D01*
X32087787Y-23135220D01*
X32153763Y-23155233D01*
X32336172Y-23252733D01*
X32496054Y-23383946D01*
X32627267Y-23543828D01*
X32724767Y-23726237D01*
X32724767Y-23726238D01*
X32784807Y-23924164D01*
X32805080Y-24130000D01*
X32784807Y-24335836D01*
X32744780Y-24467787D01*
X32724767Y-24533763D01*
X32627267Y-24716172D01*
X32496054Y-24876054D01*
X32336172Y-25007267D01*
X32153763Y-25104767D01*
X32087787Y-25124780D01*
X31955836Y-25164807D01*
X31878707Y-25172403D01*
X31801580Y-25180000D01*
X31698420Y-25180000D01*
X31621293Y-25172403D01*
X31544164Y-25164807D01*
X31412213Y-25124780D01*
X31346237Y-25104767D01*
X31163828Y-25007267D01*
X31003946Y-24876054D01*
X30872733Y-24716172D01*
X30775233Y-24533763D01*
X30755220Y-24467787D01*
X30715193Y-24335836D01*
X30694920Y-24130000D01*
X30715193Y-23924164D01*
X30775233Y-23726238D01*
X30775233Y-23726237D01*
X30872733Y-23543828D01*
X31003946Y-23383946D01*
X31163828Y-23252733D01*
X31346237Y-23155233D01*
X31412213Y-23135220D01*
X31544164Y-23095193D01*
X31621293Y-23087596D01*
X31698420Y-23080000D01*
X31801580Y-23080000D01*
X31878707Y-23087596D01*
X31878707Y-23087596D01*
G37*
G36*
X2320000Y-25180000D02*
X220000Y-25180000D01*
X220000Y-23080000D01*
X2320000Y-23080000D01*
X2320000Y-25180000D01*
X2320000Y-25180000D01*
G37*
G36*
X3938707Y-23087596D02*
X4015836Y-23095193D01*
X4147787Y-23135220D01*
X4213763Y-23155233D01*
X4396172Y-23252733D01*
X4556054Y-23383946D01*
X4687267Y-23543828D01*
X4784767Y-23726237D01*
X4784767Y-23726238D01*
X4844807Y-23924164D01*
X4865080Y-24130000D01*
X4844807Y-24335836D01*
X4804780Y-24467787D01*
X4784767Y-24533763D01*
X4687267Y-24716172D01*
X4556054Y-24876054D01*
X4396172Y-25007267D01*
X4213763Y-25104767D01*
X4147787Y-25124780D01*
X4015836Y-25164807D01*
X3938707Y-25172403D01*
X3861580Y-25180000D01*
X3758420Y-25180000D01*
X3681293Y-25172403D01*
X3604164Y-25164807D01*
X3472213Y-25124780D01*
X3406237Y-25104767D01*
X3223828Y-25007267D01*
X3063946Y-24876054D01*
X2932733Y-24716172D01*
X2835233Y-24533763D01*
X2815220Y-24467787D01*
X2775193Y-24335836D01*
X2754920Y-24130000D01*
X2775193Y-23924164D01*
X2835233Y-23726238D01*
X2835233Y-23726237D01*
X2932733Y-23543828D01*
X3063946Y-23383946D01*
X3223828Y-23252733D01*
X3406237Y-23155233D01*
X3472213Y-23135220D01*
X3604164Y-23095193D01*
X3681293Y-23087596D01*
X3758420Y-23080000D01*
X3861580Y-23080000D01*
X3938707Y-23087596D01*
X3938707Y-23087596D01*
G37*
G36*
X6478707Y-23087596D02*
X6555836Y-23095193D01*
X6687787Y-23135220D01*
X6753763Y-23155233D01*
X6936172Y-23252733D01*
X7096054Y-23383946D01*
X7227267Y-23543828D01*
X7324767Y-23726237D01*
X7324767Y-23726238D01*
X7384807Y-23924164D01*
X7405080Y-24130000D01*
X7384807Y-24335836D01*
X7344780Y-24467787D01*
X7324767Y-24533763D01*
X7227267Y-24716172D01*
X7096054Y-24876054D01*
X6936172Y-25007267D01*
X6753763Y-25104767D01*
X6687787Y-25124780D01*
X6555836Y-25164807D01*
X6478707Y-25172403D01*
X6401580Y-25180000D01*
X6298420Y-25180000D01*
X6221293Y-25172403D01*
X6144164Y-25164807D01*
X6012213Y-25124780D01*
X5946237Y-25104767D01*
X5763828Y-25007267D01*
X5603946Y-24876054D01*
X5472733Y-24716172D01*
X5375233Y-24533763D01*
X5355220Y-24467787D01*
X5315193Y-24335836D01*
X5294920Y-24130000D01*
X5315193Y-23924164D01*
X5375233Y-23726238D01*
X5375233Y-23726237D01*
X5472733Y-23543828D01*
X5603946Y-23383946D01*
X5763828Y-23252733D01*
X5946237Y-23155233D01*
X6012213Y-23135220D01*
X6144164Y-23095193D01*
X6221293Y-23087596D01*
X6298420Y-23080000D01*
X6401580Y-23080000D01*
X6478707Y-23087596D01*
X6478707Y-23087596D01*
G37*
G36*
X9018707Y-23087596D02*
X9095836Y-23095193D01*
X9227787Y-23135220D01*
X9293763Y-23155233D01*
X9476172Y-23252733D01*
X9636054Y-23383946D01*
X9767267Y-23543828D01*
X9864767Y-23726237D01*
X9864767Y-23726238D01*
X9924807Y-23924164D01*
X9945080Y-24130000D01*
X9924807Y-24335836D01*
X9884780Y-24467787D01*
X9864767Y-24533763D01*
X9767267Y-24716172D01*
X9636054Y-24876054D01*
X9476172Y-25007267D01*
X9293763Y-25104767D01*
X9227787Y-25124780D01*
X9095836Y-25164807D01*
X9018707Y-25172403D01*
X8941580Y-25180000D01*
X8838420Y-25180000D01*
X8761293Y-25172403D01*
X8684164Y-25164807D01*
X8552213Y-25124780D01*
X8486237Y-25104767D01*
X8303828Y-25007267D01*
X8143946Y-24876054D01*
X8012733Y-24716172D01*
X7915233Y-24533763D01*
X7895220Y-24467787D01*
X7855193Y-24335836D01*
X7834920Y-24130000D01*
X7855193Y-23924164D01*
X7915233Y-23726238D01*
X7915233Y-23726237D01*
X8012733Y-23543828D01*
X8143946Y-23383946D01*
X8303828Y-23252733D01*
X8486237Y-23155233D01*
X8552213Y-23135220D01*
X8684164Y-23095193D01*
X8761293Y-23087596D01*
X8838420Y-23080000D01*
X8941580Y-23080000D01*
X9018707Y-23087596D01*
X9018707Y-23087596D01*
G37*
G36*
X11558707Y-23087596D02*
X11635836Y-23095193D01*
X11767787Y-23135220D01*
X11833763Y-23155233D01*
X12016172Y-23252733D01*
X12176054Y-23383946D01*
X12307267Y-23543828D01*
X12404767Y-23726237D01*
X12404767Y-23726238D01*
X12464807Y-23924164D01*
X12485080Y-24130000D01*
X12464807Y-24335836D01*
X12424780Y-24467787D01*
X12404767Y-24533763D01*
X12307267Y-24716172D01*
X12176054Y-24876054D01*
X12016172Y-25007267D01*
X11833763Y-25104767D01*
X11767787Y-25124780D01*
X11635836Y-25164807D01*
X11558707Y-25172403D01*
X11481580Y-25180000D01*
X11378420Y-25180000D01*
X11301293Y-25172403D01*
X11224164Y-25164807D01*
X11092213Y-25124780D01*
X11026237Y-25104767D01*
X10843828Y-25007267D01*
X10683946Y-24876054D01*
X10552733Y-24716172D01*
X10455233Y-24533763D01*
X10435220Y-24467787D01*
X10395193Y-24335836D01*
X10374920Y-24130000D01*
X10395193Y-23924164D01*
X10455233Y-23726238D01*
X10455233Y-23726237D01*
X10552733Y-23543828D01*
X10683946Y-23383946D01*
X10843828Y-23252733D01*
X11026237Y-23155233D01*
X11092213Y-23135220D01*
X11224164Y-23095193D01*
X11301293Y-23087596D01*
X11378420Y-23080000D01*
X11481580Y-23080000D01*
X11558707Y-23087596D01*
X11558707Y-23087596D01*
G37*
G36*
X14098707Y-23087596D02*
X14175836Y-23095193D01*
X14307787Y-23135220D01*
X14373763Y-23155233D01*
X14556172Y-23252733D01*
X14716054Y-23383946D01*
X14847267Y-23543828D01*
X14944767Y-23726237D01*
X14944767Y-23726238D01*
X15004807Y-23924164D01*
X15025080Y-24130000D01*
X15004807Y-24335836D01*
X14964780Y-24467787D01*
X14944767Y-24533763D01*
X14847267Y-24716172D01*
X14716054Y-24876054D01*
X14556172Y-25007267D01*
X14373763Y-25104767D01*
X14307787Y-25124780D01*
X14175836Y-25164807D01*
X14098707Y-25172403D01*
X14021580Y-25180000D01*
X13918420Y-25180000D01*
X13841293Y-25172403D01*
X13764164Y-25164807D01*
X13632213Y-25124780D01*
X13566237Y-25104767D01*
X13383828Y-25007267D01*
X13223946Y-24876054D01*
X13092733Y-24716172D01*
X12995233Y-24533763D01*
X12975220Y-24467787D01*
X12935193Y-24335836D01*
X12914920Y-24130000D01*
X12935193Y-23924164D01*
X12995233Y-23726238D01*
X12995233Y-23726237D01*
X13092733Y-23543828D01*
X13223946Y-23383946D01*
X13383828Y-23252733D01*
X13566237Y-23155233D01*
X13632213Y-23135220D01*
X13764164Y-23095193D01*
X13841293Y-23087596D01*
X13918420Y-23080000D01*
X14021580Y-23080000D01*
X14098707Y-23087596D01*
X14098707Y-23087596D01*
G37*
G36*
X16638707Y-23087596D02*
X16715836Y-23095193D01*
X16847787Y-23135220D01*
X16913763Y-23155233D01*
X17096172Y-23252733D01*
X17256054Y-23383946D01*
X17387267Y-23543828D01*
X17484767Y-23726237D01*
X17484767Y-23726238D01*
X17544807Y-23924164D01*
X17565080Y-24130000D01*
X17544807Y-24335836D01*
X17504780Y-24467787D01*
X17484767Y-24533763D01*
X17387267Y-24716172D01*
X17256054Y-24876054D01*
X17096172Y-25007267D01*
X16913763Y-25104767D01*
X16847787Y-25124780D01*
X16715836Y-25164807D01*
X16638707Y-25172403D01*
X16561580Y-25180000D01*
X16458420Y-25180000D01*
X16381293Y-25172403D01*
X16304164Y-25164807D01*
X16172213Y-25124780D01*
X16106237Y-25104767D01*
X15923828Y-25007267D01*
X15763946Y-24876054D01*
X15632733Y-24716172D01*
X15535233Y-24533763D01*
X15515220Y-24467787D01*
X15475193Y-24335836D01*
X15454920Y-24130000D01*
X15475193Y-23924164D01*
X15535233Y-23726238D01*
X15535233Y-23726237D01*
X15632733Y-23543828D01*
X15763946Y-23383946D01*
X15923828Y-23252733D01*
X16106237Y-23155233D01*
X16172213Y-23135220D01*
X16304164Y-23095193D01*
X16381293Y-23087596D01*
X16458420Y-23080000D01*
X16561580Y-23080000D01*
X16638707Y-23087596D01*
X16638707Y-23087596D01*
G37*
G36*
X19178707Y-23087596D02*
X19255836Y-23095193D01*
X19387787Y-23135220D01*
X19453763Y-23155233D01*
X19636172Y-23252733D01*
X19796054Y-23383946D01*
X19927267Y-23543828D01*
X20024767Y-23726237D01*
X20024767Y-23726238D01*
X20084807Y-23924164D01*
X20105080Y-24130000D01*
X20084807Y-24335836D01*
X20044780Y-24467787D01*
X20024767Y-24533763D01*
X19927267Y-24716172D01*
X19796054Y-24876054D01*
X19636172Y-25007267D01*
X19453763Y-25104767D01*
X19387787Y-25124780D01*
X19255836Y-25164807D01*
X19178707Y-25172403D01*
X19101580Y-25180000D01*
X18998420Y-25180000D01*
X18921293Y-25172403D01*
X18844164Y-25164807D01*
X18712213Y-25124780D01*
X18646237Y-25104767D01*
X18463828Y-25007267D01*
X18303946Y-24876054D01*
X18172733Y-24716172D01*
X18075233Y-24533763D01*
X18055220Y-24467787D01*
X18015193Y-24335836D01*
X17994920Y-24130000D01*
X18015193Y-23924164D01*
X18075233Y-23726238D01*
X18075233Y-23726237D01*
X18172733Y-23543828D01*
X18303946Y-23383946D01*
X18463828Y-23252733D01*
X18646237Y-23155233D01*
X18712213Y-23135220D01*
X18844164Y-23095193D01*
X18921293Y-23087596D01*
X18998420Y-23080000D01*
X19101580Y-23080000D01*
X19178707Y-23087596D01*
X19178707Y-23087596D01*
G37*
G36*
X24258707Y-23087596D02*
X24335836Y-23095193D01*
X24467787Y-23135220D01*
X24533763Y-23155233D01*
X24716172Y-23252733D01*
X24876054Y-23383946D01*
X25007267Y-23543828D01*
X25104767Y-23726237D01*
X25104767Y-23726238D01*
X25164807Y-23924164D01*
X25185080Y-24130000D01*
X25164807Y-24335836D01*
X25124780Y-24467787D01*
X25104767Y-24533763D01*
X25007267Y-24716172D01*
X24876054Y-24876054D01*
X24716172Y-25007267D01*
X24533763Y-25104767D01*
X24467787Y-25124780D01*
X24335836Y-25164807D01*
X24258707Y-25172403D01*
X24181580Y-25180000D01*
X24078420Y-25180000D01*
X24001293Y-25172403D01*
X23924164Y-25164807D01*
X23792213Y-25124780D01*
X23726237Y-25104767D01*
X23543828Y-25007267D01*
X23383946Y-24876054D01*
X23252733Y-24716172D01*
X23155233Y-24533763D01*
X23135220Y-24467787D01*
X23095193Y-24335836D01*
X23074920Y-24130000D01*
X23095193Y-23924164D01*
X23155233Y-23726238D01*
X23155233Y-23726237D01*
X23252733Y-23543828D01*
X23383946Y-23383946D01*
X23543828Y-23252733D01*
X23726237Y-23155233D01*
X23792213Y-23135220D01*
X23924164Y-23095193D01*
X24001293Y-23087596D01*
X24078420Y-23080000D01*
X24181580Y-23080000D01*
X24258707Y-23087596D01*
X24258707Y-23087596D01*
G37*
G36*
X26798707Y-23087596D02*
X26875836Y-23095193D01*
X27007787Y-23135220D01*
X27073763Y-23155233D01*
X27256172Y-23252733D01*
X27416054Y-23383946D01*
X27547267Y-23543828D01*
X27644767Y-23726237D01*
X27644767Y-23726238D01*
X27704807Y-23924164D01*
X27725080Y-24130000D01*
X27704807Y-24335836D01*
X27664780Y-24467787D01*
X27644767Y-24533763D01*
X27547267Y-24716172D01*
X27416054Y-24876054D01*
X27256172Y-25007267D01*
X27073763Y-25104767D01*
X27007787Y-25124780D01*
X26875836Y-25164807D01*
X26798707Y-25172403D01*
X26721580Y-25180000D01*
X26618420Y-25180000D01*
X26541293Y-25172403D01*
X26464164Y-25164807D01*
X26332213Y-25124780D01*
X26266237Y-25104767D01*
X26083828Y-25007267D01*
X25923946Y-24876054D01*
X25792733Y-24716172D01*
X25695233Y-24533763D01*
X25675220Y-24467787D01*
X25635193Y-24335836D01*
X25614920Y-24130000D01*
X25635193Y-23924164D01*
X25695233Y-23726238D01*
X25695233Y-23726237D01*
X25792733Y-23543828D01*
X25923946Y-23383946D01*
X26083828Y-23252733D01*
X26266237Y-23155233D01*
X26332213Y-23135220D01*
X26464164Y-23095193D01*
X26541293Y-23087596D01*
X26618420Y-23080000D01*
X26721580Y-23080000D01*
X26798707Y-23087596D01*
X26798707Y-23087596D01*
G37*
G36*
X29338707Y-23087596D02*
X29415836Y-23095193D01*
X29547787Y-23135220D01*
X29613763Y-23155233D01*
X29796172Y-23252733D01*
X29956054Y-23383946D01*
X30087267Y-23543828D01*
X30184767Y-23726237D01*
X30184767Y-23726238D01*
X30244807Y-23924164D01*
X30265080Y-24130000D01*
X30244807Y-24335836D01*
X30204780Y-24467787D01*
X30184767Y-24533763D01*
X30087267Y-24716172D01*
X29956054Y-24876054D01*
X29796172Y-25007267D01*
X29613763Y-25104767D01*
X29547787Y-25124780D01*
X29415836Y-25164807D01*
X29338707Y-25172403D01*
X29261580Y-25180000D01*
X29158420Y-25180000D01*
X29081293Y-25172403D01*
X29004164Y-25164807D01*
X28872213Y-25124780D01*
X28806237Y-25104767D01*
X28623828Y-25007267D01*
X28463946Y-24876054D01*
X28332733Y-24716172D01*
X28235233Y-24533763D01*
X28215220Y-24467787D01*
X28175193Y-24335836D01*
X28154920Y-24130000D01*
X28175193Y-23924164D01*
X28235233Y-23726238D01*
X28235233Y-23726237D01*
X28332733Y-23543828D01*
X28463946Y-23383946D01*
X28623828Y-23252733D01*
X28806237Y-23155233D01*
X28872213Y-23135220D01*
X29004164Y-23095193D01*
X29081293Y-23087596D01*
X29158420Y-23080000D01*
X29261580Y-23080000D01*
X29338707Y-23087596D01*
X29338707Y-23087596D01*
G37*
G36*
X57278707Y-23087596D02*
X57355836Y-23095193D01*
X57487787Y-23135220D01*
X57553763Y-23155233D01*
X57736172Y-23252733D01*
X57896054Y-23383946D01*
X58027267Y-23543828D01*
X58124767Y-23726237D01*
X58124767Y-23726238D01*
X58184807Y-23924164D01*
X58205080Y-24130000D01*
X58184807Y-24335836D01*
X58144780Y-24467787D01*
X58124767Y-24533763D01*
X58027267Y-24716172D01*
X57896054Y-24876054D01*
X57736172Y-25007267D01*
X57553763Y-25104767D01*
X57487787Y-25124780D01*
X57355836Y-25164807D01*
X57278707Y-25172403D01*
X57201580Y-25180000D01*
X57098420Y-25180000D01*
X57021293Y-25172403D01*
X56944164Y-25164807D01*
X56812213Y-25124780D01*
X56746237Y-25104767D01*
X56563828Y-25007267D01*
X56403946Y-24876054D01*
X56272733Y-24716172D01*
X56175233Y-24533763D01*
X56155220Y-24467787D01*
X56115193Y-24335836D01*
X56094920Y-24130000D01*
X56115193Y-23924164D01*
X56175233Y-23726238D01*
X56175233Y-23726237D01*
X56272733Y-23543828D01*
X56403946Y-23383946D01*
X56563828Y-23252733D01*
X56746237Y-23155233D01*
X56812213Y-23135220D01*
X56944164Y-23095193D01*
X57021293Y-23087596D01*
X57098420Y-23080000D01*
X57201580Y-23080000D01*
X57278707Y-23087596D01*
X57278707Y-23087596D01*
G37*
G36*
X64898707Y-23087596D02*
X64975836Y-23095193D01*
X65107787Y-23135220D01*
X65173763Y-23155233D01*
X65356172Y-23252733D01*
X65516054Y-23383946D01*
X65647267Y-23543828D01*
X65744767Y-23726237D01*
X65744767Y-23726238D01*
X65804807Y-23924164D01*
X65825080Y-24130000D01*
X65804807Y-24335836D01*
X65764780Y-24467787D01*
X65744767Y-24533763D01*
X65647267Y-24716172D01*
X65516054Y-24876054D01*
X65356172Y-25007267D01*
X65173763Y-25104767D01*
X65107787Y-25124780D01*
X64975836Y-25164807D01*
X64898707Y-25172403D01*
X64821580Y-25180000D01*
X64718420Y-25180000D01*
X64641293Y-25172403D01*
X64564164Y-25164807D01*
X64432213Y-25124780D01*
X64366237Y-25104767D01*
X64183828Y-25007267D01*
X64023946Y-24876054D01*
X63892733Y-24716172D01*
X63795233Y-24533763D01*
X63775220Y-24467787D01*
X63735193Y-24335836D01*
X63714920Y-24130000D01*
X63735193Y-23924164D01*
X63795233Y-23726238D01*
X63795233Y-23726237D01*
X63892733Y-23543828D01*
X64023946Y-23383946D01*
X64183828Y-23252733D01*
X64366237Y-23155233D01*
X64432213Y-23135220D01*
X64564164Y-23095193D01*
X64641293Y-23087596D01*
X64718420Y-23080000D01*
X64821580Y-23080000D01*
X64898707Y-23087596D01*
X64898707Y-23087596D01*
G37*
G36*
X62358707Y-23087596D02*
X62435836Y-23095193D01*
X62567787Y-23135220D01*
X62633763Y-23155233D01*
X62816172Y-23252733D01*
X62976054Y-23383946D01*
X63107267Y-23543828D01*
X63204767Y-23726237D01*
X63204767Y-23726238D01*
X63264807Y-23924164D01*
X63285080Y-24130000D01*
X63264807Y-24335836D01*
X63224780Y-24467787D01*
X63204767Y-24533763D01*
X63107267Y-24716172D01*
X62976054Y-24876054D01*
X62816172Y-25007267D01*
X62633763Y-25104767D01*
X62567787Y-25124780D01*
X62435836Y-25164807D01*
X62358707Y-25172403D01*
X62281580Y-25180000D01*
X62178420Y-25180000D01*
X62101293Y-25172403D01*
X62024164Y-25164807D01*
X61892213Y-25124780D01*
X61826237Y-25104767D01*
X61643828Y-25007267D01*
X61483946Y-24876054D01*
X61352733Y-24716172D01*
X61255233Y-24533763D01*
X61235220Y-24467787D01*
X61195193Y-24335836D01*
X61174920Y-24130000D01*
X61195193Y-23924164D01*
X61255233Y-23726238D01*
X61255233Y-23726237D01*
X61352733Y-23543828D01*
X61483946Y-23383946D01*
X61643828Y-23252733D01*
X61826237Y-23155233D01*
X61892213Y-23135220D01*
X62024164Y-23095193D01*
X62101293Y-23087596D01*
X62178420Y-23080000D01*
X62281580Y-23080000D01*
X62358707Y-23087596D01*
X62358707Y-23087596D01*
G37*
G36*
X59818707Y-23087596D02*
X59895836Y-23095193D01*
X60027787Y-23135220D01*
X60093763Y-23155233D01*
X60276172Y-23252733D01*
X60436054Y-23383946D01*
X60567267Y-23543828D01*
X60664767Y-23726237D01*
X60664767Y-23726238D01*
X60724807Y-23924164D01*
X60745080Y-24130000D01*
X60724807Y-24335836D01*
X60684780Y-24467787D01*
X60664767Y-24533763D01*
X60567267Y-24716172D01*
X60436054Y-24876054D01*
X60276172Y-25007267D01*
X60093763Y-25104767D01*
X60027787Y-25124780D01*
X59895836Y-25164807D01*
X59818707Y-25172403D01*
X59741580Y-25180000D01*
X59638420Y-25180000D01*
X59561293Y-25172403D01*
X59484164Y-25164807D01*
X59352213Y-25124780D01*
X59286237Y-25104767D01*
X59103828Y-25007267D01*
X58943946Y-24876054D01*
X58812733Y-24716172D01*
X58715233Y-24533763D01*
X58695220Y-24467787D01*
X58655193Y-24335836D01*
X58634920Y-24130000D01*
X58655193Y-23924164D01*
X58715233Y-23726238D01*
X58715233Y-23726237D01*
X58812733Y-23543828D01*
X58943946Y-23383946D01*
X59103828Y-23252733D01*
X59286237Y-23155233D01*
X59352213Y-23135220D01*
X59484164Y-23095193D01*
X59561293Y-23087596D01*
X59638420Y-23080000D01*
X59741580Y-23080000D01*
X59818707Y-23087596D01*
X59818707Y-23087596D01*
G37*
G36*
X34418707Y-23087596D02*
X34495836Y-23095193D01*
X34627787Y-23135220D01*
X34693763Y-23155233D01*
X34876172Y-23252733D01*
X35036054Y-23383946D01*
X35167267Y-23543828D01*
X35264767Y-23726237D01*
X35264767Y-23726238D01*
X35324807Y-23924164D01*
X35345080Y-24130000D01*
X35324807Y-24335836D01*
X35284780Y-24467787D01*
X35264767Y-24533763D01*
X35167267Y-24716172D01*
X35036054Y-24876054D01*
X34876172Y-25007267D01*
X34693763Y-25104767D01*
X34627787Y-25124780D01*
X34495836Y-25164807D01*
X34418707Y-25172403D01*
X34341580Y-25180000D01*
X34238420Y-25180000D01*
X34161293Y-25172403D01*
X34084164Y-25164807D01*
X33952213Y-25124780D01*
X33886237Y-25104767D01*
X33703828Y-25007267D01*
X33543946Y-24876054D01*
X33412733Y-24716172D01*
X33315233Y-24533763D01*
X33295220Y-24467787D01*
X33255193Y-24335836D01*
X33234920Y-24130000D01*
X33255193Y-23924164D01*
X33315233Y-23726238D01*
X33315233Y-23726237D01*
X33412733Y-23543828D01*
X33543946Y-23383946D01*
X33703828Y-23252733D01*
X33886237Y-23155233D01*
X33952213Y-23135220D01*
X34084164Y-23095193D01*
X34161293Y-23087596D01*
X34238420Y-23080000D01*
X34341580Y-23080000D01*
X34418707Y-23087596D01*
X34418707Y-23087596D01*
G37*
G36*
X54738707Y-23087596D02*
X54815836Y-23095193D01*
X54947787Y-23135220D01*
X55013763Y-23155233D01*
X55196172Y-23252733D01*
X55356054Y-23383946D01*
X55487267Y-23543828D01*
X55584767Y-23726237D01*
X55584767Y-23726238D01*
X55644807Y-23924164D01*
X55665080Y-24130000D01*
X55644807Y-24335836D01*
X55604780Y-24467787D01*
X55584767Y-24533763D01*
X55487267Y-24716172D01*
X55356054Y-24876054D01*
X55196172Y-25007267D01*
X55013763Y-25104767D01*
X54947787Y-25124780D01*
X54815836Y-25164807D01*
X54738707Y-25172403D01*
X54661580Y-25180000D01*
X54558420Y-25180000D01*
X54481293Y-25172403D01*
X54404164Y-25164807D01*
X54272213Y-25124780D01*
X54206237Y-25104767D01*
X54023828Y-25007267D01*
X53863946Y-24876054D01*
X53732733Y-24716172D01*
X53635233Y-24533763D01*
X53615220Y-24467787D01*
X53575193Y-24335836D01*
X53554920Y-24130000D01*
X53575193Y-23924164D01*
X53635233Y-23726238D01*
X53635233Y-23726237D01*
X53732733Y-23543828D01*
X53863946Y-23383946D01*
X54023828Y-23252733D01*
X54206237Y-23155233D01*
X54272213Y-23135220D01*
X54404164Y-23095193D01*
X54481293Y-23087596D01*
X54558420Y-23080000D01*
X54661580Y-23080000D01*
X54738707Y-23087596D01*
X54738707Y-23087596D01*
G37*
G36*
X52198707Y-23087596D02*
X52275836Y-23095193D01*
X52407787Y-23135220D01*
X52473763Y-23155233D01*
X52656172Y-23252733D01*
X52816054Y-23383946D01*
X52947267Y-23543828D01*
X53044767Y-23726237D01*
X53044767Y-23726238D01*
X53104807Y-23924164D01*
X53125080Y-24130000D01*
X53104807Y-24335836D01*
X53064780Y-24467787D01*
X53044767Y-24533763D01*
X52947267Y-24716172D01*
X52816054Y-24876054D01*
X52656172Y-25007267D01*
X52473763Y-25104767D01*
X52407787Y-25124780D01*
X52275836Y-25164807D01*
X52198707Y-25172403D01*
X52121580Y-25180000D01*
X52018420Y-25180000D01*
X51941293Y-25172403D01*
X51864164Y-25164807D01*
X51732213Y-25124780D01*
X51666237Y-25104767D01*
X51483828Y-25007267D01*
X51323946Y-24876054D01*
X51192733Y-24716172D01*
X51095233Y-24533763D01*
X51075220Y-24467787D01*
X51035193Y-24335836D01*
X51014920Y-24130000D01*
X51035193Y-23924164D01*
X51095233Y-23726238D01*
X51095233Y-23726237D01*
X51192733Y-23543828D01*
X51323946Y-23383946D01*
X51483828Y-23252733D01*
X51666237Y-23155233D01*
X51732213Y-23135220D01*
X51864164Y-23095193D01*
X51941293Y-23087596D01*
X52018420Y-23080000D01*
X52121580Y-23080000D01*
X52198707Y-23087596D01*
X52198707Y-23087596D01*
G37*
G36*
X49658707Y-23087596D02*
X49735836Y-23095193D01*
X49867787Y-23135220D01*
X49933763Y-23155233D01*
X50116172Y-23252733D01*
X50276054Y-23383946D01*
X50407267Y-23543828D01*
X50504767Y-23726237D01*
X50504767Y-23726238D01*
X50564807Y-23924164D01*
X50585080Y-24130000D01*
X50564807Y-24335836D01*
X50524780Y-24467787D01*
X50504767Y-24533763D01*
X50407267Y-24716172D01*
X50276054Y-24876054D01*
X50116172Y-25007267D01*
X49933763Y-25104767D01*
X49867787Y-25124780D01*
X49735836Y-25164807D01*
X49658707Y-25172403D01*
X49581580Y-25180000D01*
X49478420Y-25180000D01*
X49401293Y-25172403D01*
X49324164Y-25164807D01*
X49192213Y-25124780D01*
X49126237Y-25104767D01*
X48943828Y-25007267D01*
X48783946Y-24876054D01*
X48652733Y-24716172D01*
X48555233Y-24533763D01*
X48535220Y-24467787D01*
X48495193Y-24335836D01*
X48474920Y-24130000D01*
X48495193Y-23924164D01*
X48555233Y-23726238D01*
X48555233Y-23726237D01*
X48652733Y-23543828D01*
X48783946Y-23383946D01*
X48943828Y-23252733D01*
X49126237Y-23155233D01*
X49192213Y-23135220D01*
X49324164Y-23095193D01*
X49401293Y-23087596D01*
X49478420Y-23080000D01*
X49581580Y-23080000D01*
X49658707Y-23087596D01*
X49658707Y-23087596D01*
G37*
G36*
X47118707Y-23087596D02*
X47195836Y-23095193D01*
X47327787Y-23135220D01*
X47393763Y-23155233D01*
X47576172Y-23252733D01*
X47736054Y-23383946D01*
X47867267Y-23543828D01*
X47964767Y-23726237D01*
X47964767Y-23726238D01*
X48024807Y-23924164D01*
X48045080Y-24130000D01*
X48024807Y-24335836D01*
X47984780Y-24467787D01*
X47964767Y-24533763D01*
X47867267Y-24716172D01*
X47736054Y-24876054D01*
X47576172Y-25007267D01*
X47393763Y-25104767D01*
X47327787Y-25124780D01*
X47195836Y-25164807D01*
X47118707Y-25172403D01*
X47041580Y-25180000D01*
X46938420Y-25180000D01*
X46861293Y-25172403D01*
X46784164Y-25164807D01*
X46652213Y-25124780D01*
X46586237Y-25104767D01*
X46403828Y-25007267D01*
X46243946Y-24876054D01*
X46112733Y-24716172D01*
X46015233Y-24533763D01*
X45995220Y-24467787D01*
X45955193Y-24335836D01*
X45934920Y-24130000D01*
X45955193Y-23924164D01*
X46015233Y-23726238D01*
X46015233Y-23726237D01*
X46112733Y-23543828D01*
X46243946Y-23383946D01*
X46403828Y-23252733D01*
X46586237Y-23155233D01*
X46652213Y-23135220D01*
X46784164Y-23095193D01*
X46861293Y-23087596D01*
X46938420Y-23080000D01*
X47041580Y-23080000D01*
X47118707Y-23087596D01*
X47118707Y-23087596D01*
G37*
G36*
X44578707Y-23087596D02*
X44655836Y-23095193D01*
X44787787Y-23135220D01*
X44853763Y-23155233D01*
X45036172Y-23252733D01*
X45196054Y-23383946D01*
X45327267Y-23543828D01*
X45424767Y-23726237D01*
X45424767Y-23726238D01*
X45484807Y-23924164D01*
X45505080Y-24130000D01*
X45484807Y-24335836D01*
X45444780Y-24467787D01*
X45424767Y-24533763D01*
X45327267Y-24716172D01*
X45196054Y-24876054D01*
X45036172Y-25007267D01*
X44853763Y-25104767D01*
X44787787Y-25124780D01*
X44655836Y-25164807D01*
X44578707Y-25172403D01*
X44501580Y-25180000D01*
X44398420Y-25180000D01*
X44321293Y-25172403D01*
X44244164Y-25164807D01*
X44112213Y-25124780D01*
X44046237Y-25104767D01*
X43863828Y-25007267D01*
X43703946Y-24876054D01*
X43572733Y-24716172D01*
X43475233Y-24533763D01*
X43455220Y-24467787D01*
X43415193Y-24335836D01*
X43394920Y-24130000D01*
X43415193Y-23924164D01*
X43475233Y-23726238D01*
X43475233Y-23726237D01*
X43572733Y-23543828D01*
X43703946Y-23383946D01*
X43863828Y-23252733D01*
X44046237Y-23155233D01*
X44112213Y-23135220D01*
X44244164Y-23095193D01*
X44321293Y-23087596D01*
X44398420Y-23080000D01*
X44501580Y-23080000D01*
X44578707Y-23087596D01*
X44578707Y-23087596D01*
G37*
G36*
X42038707Y-23087596D02*
X42115836Y-23095193D01*
X42247787Y-23135220D01*
X42313763Y-23155233D01*
X42496172Y-23252733D01*
X42656054Y-23383946D01*
X42787267Y-23543828D01*
X42884767Y-23726237D01*
X42884767Y-23726238D01*
X42944807Y-23924164D01*
X42965080Y-24130000D01*
X42944807Y-24335836D01*
X42904780Y-24467787D01*
X42884767Y-24533763D01*
X42787267Y-24716172D01*
X42656054Y-24876054D01*
X42496172Y-25007267D01*
X42313763Y-25104767D01*
X42247787Y-25124780D01*
X42115836Y-25164807D01*
X42038707Y-25172403D01*
X41961580Y-25180000D01*
X41858420Y-25180000D01*
X41781293Y-25172403D01*
X41704164Y-25164807D01*
X41572213Y-25124780D01*
X41506237Y-25104767D01*
X41323828Y-25007267D01*
X41163946Y-24876054D01*
X41032733Y-24716172D01*
X40935233Y-24533763D01*
X40915220Y-24467787D01*
X40875193Y-24335836D01*
X40854920Y-24130000D01*
X40875193Y-23924164D01*
X40935233Y-23726238D01*
X40935233Y-23726237D01*
X41032733Y-23543828D01*
X41163946Y-23383946D01*
X41323828Y-23252733D01*
X41506237Y-23155233D01*
X41572213Y-23135220D01*
X41704164Y-23095193D01*
X41781293Y-23087596D01*
X41858420Y-23080000D01*
X41961580Y-23080000D01*
X42038707Y-23087596D01*
X42038707Y-23087596D01*
G37*
G36*
X39498707Y-23087596D02*
X39575836Y-23095193D01*
X39707787Y-23135220D01*
X39773763Y-23155233D01*
X39956172Y-23252733D01*
X40116054Y-23383946D01*
X40247267Y-23543828D01*
X40344767Y-23726237D01*
X40344767Y-23726238D01*
X40404807Y-23924164D01*
X40425080Y-24130000D01*
X40404807Y-24335836D01*
X40364780Y-24467787D01*
X40344767Y-24533763D01*
X40247267Y-24716172D01*
X40116054Y-24876054D01*
X39956172Y-25007267D01*
X39773763Y-25104767D01*
X39707787Y-25124780D01*
X39575836Y-25164807D01*
X39498707Y-25172403D01*
X39421580Y-25180000D01*
X39318420Y-25180000D01*
X39241293Y-25172403D01*
X39164164Y-25164807D01*
X39032213Y-25124780D01*
X38966237Y-25104767D01*
X38783828Y-25007267D01*
X38623946Y-24876054D01*
X38492733Y-24716172D01*
X38395233Y-24533763D01*
X38375220Y-24467787D01*
X38335193Y-24335836D01*
X38314920Y-24130000D01*
X38335193Y-23924164D01*
X38395233Y-23726238D01*
X38395233Y-23726237D01*
X38492733Y-23543828D01*
X38623946Y-23383946D01*
X38783828Y-23252733D01*
X38966237Y-23155233D01*
X39032213Y-23135220D01*
X39164164Y-23095193D01*
X39241293Y-23087596D01*
X39318420Y-23080000D01*
X39421580Y-23080000D01*
X39498707Y-23087596D01*
X39498707Y-23087596D01*
G37*
G36*
X36958707Y-23087596D02*
X37035836Y-23095193D01*
X37167787Y-23135220D01*
X37233763Y-23155233D01*
X37416172Y-23252733D01*
X37576054Y-23383946D01*
X37707267Y-23543828D01*
X37804767Y-23726237D01*
X37804767Y-23726238D01*
X37864807Y-23924164D01*
X37885080Y-24130000D01*
X37864807Y-24335836D01*
X37824780Y-24467787D01*
X37804767Y-24533763D01*
X37707267Y-24716172D01*
X37576054Y-24876054D01*
X37416172Y-25007267D01*
X37233763Y-25104767D01*
X37167787Y-25124780D01*
X37035836Y-25164807D01*
X36958707Y-25172403D01*
X36881580Y-25180000D01*
X36778420Y-25180000D01*
X36701293Y-25172403D01*
X36624164Y-25164807D01*
X36492213Y-25124780D01*
X36426237Y-25104767D01*
X36243828Y-25007267D01*
X36083946Y-24876054D01*
X35952733Y-24716172D01*
X35855233Y-24533763D01*
X35835220Y-24467787D01*
X35795193Y-24335836D01*
X35774920Y-24130000D01*
X35795193Y-23924164D01*
X35855233Y-23726238D01*
X35855233Y-23726237D01*
X35952733Y-23543828D01*
X36083946Y-23383946D01*
X36243828Y-23252733D01*
X36426237Y-23155233D01*
X36492213Y-23135220D01*
X36624164Y-23095193D01*
X36701293Y-23087596D01*
X36778420Y-23080000D01*
X36881580Y-23080000D01*
X36958707Y-23087596D01*
X36958707Y-23087596D01*
G37*
G36*
X6478707Y-18007596D02*
X6555836Y-18015193D01*
X6687787Y-18055220D01*
X6753763Y-18075233D01*
X6936172Y-18172733D01*
X7096054Y-18303946D01*
X7227267Y-18463828D01*
X7324767Y-18646237D01*
X7324767Y-18646238D01*
X7384807Y-18844164D01*
X7405080Y-19050000D01*
X7384807Y-19255836D01*
X7344780Y-19387787D01*
X7324767Y-19453763D01*
X7227267Y-19636172D01*
X7096054Y-19796054D01*
X6936172Y-19927267D01*
X6753763Y-20024767D01*
X6687787Y-20044780D01*
X6555836Y-20084807D01*
X6478707Y-20092403D01*
X6401580Y-20100000D01*
X6298420Y-20100000D01*
X6221293Y-20092403D01*
X6144164Y-20084807D01*
X6012213Y-20044780D01*
X5946237Y-20024767D01*
X5763828Y-19927267D01*
X5603946Y-19796054D01*
X5472733Y-19636172D01*
X5375233Y-19453763D01*
X5355220Y-19387787D01*
X5315193Y-19255836D01*
X5294920Y-19050000D01*
X5315193Y-18844164D01*
X5375233Y-18646238D01*
X5375233Y-18646237D01*
X5472733Y-18463828D01*
X5603946Y-18303946D01*
X5763828Y-18172733D01*
X5946237Y-18075233D01*
X6012213Y-18055220D01*
X6144164Y-18015193D01*
X6221293Y-18007596D01*
X6298420Y-18000000D01*
X6401580Y-18000000D01*
X6478707Y-18007596D01*
X6478707Y-18007596D01*
G37*
G36*
X6478707Y-15467597D02*
X6555836Y-15475193D01*
X6687787Y-15515220D01*
X6753763Y-15535233D01*
X6936172Y-15632733D01*
X7096054Y-15763946D01*
X7227267Y-15923828D01*
X7324767Y-16106237D01*
X7324767Y-16106238D01*
X7384807Y-16304164D01*
X7405080Y-16510000D01*
X7384807Y-16715836D01*
X7344780Y-16847787D01*
X7324767Y-16913763D01*
X7227267Y-17096172D01*
X7096054Y-17256054D01*
X6936172Y-17387267D01*
X6753763Y-17484767D01*
X6687787Y-17504780D01*
X6555836Y-17544807D01*
X6478707Y-17552404D01*
X6401580Y-17560000D01*
X6298420Y-17560000D01*
X6221293Y-17552404D01*
X6144164Y-17544807D01*
X6012213Y-17504780D01*
X5946237Y-17484767D01*
X5763828Y-17387267D01*
X5603946Y-17256054D01*
X5472733Y-17096172D01*
X5375233Y-16913763D01*
X5355220Y-16847787D01*
X5315193Y-16715836D01*
X5294920Y-16510000D01*
X5315193Y-16304164D01*
X5375233Y-16106238D01*
X5375233Y-16106237D01*
X5472733Y-15923828D01*
X5603946Y-15763946D01*
X5763828Y-15632733D01*
X5946237Y-15535233D01*
X6012213Y-15515220D01*
X6144164Y-15475193D01*
X6221293Y-15467597D01*
X6298420Y-15460000D01*
X6401580Y-15460000D01*
X6478707Y-15467597D01*
X6478707Y-15467597D01*
G37*
G36*
X6478707Y-12927596D02*
X6555836Y-12935193D01*
X6687787Y-12975220D01*
X6753763Y-12995233D01*
X6936172Y-13092733D01*
X7096054Y-13223946D01*
X7227267Y-13383828D01*
X7324767Y-13566237D01*
X7324767Y-13566238D01*
X7384807Y-13764164D01*
X7405080Y-13970000D01*
X7384807Y-14175836D01*
X7344780Y-14307787D01*
X7324767Y-14373763D01*
X7227267Y-14556172D01*
X7096054Y-14716054D01*
X6936172Y-14847267D01*
X6753763Y-14944767D01*
X6687787Y-14964780D01*
X6555836Y-15004807D01*
X6478707Y-15012403D01*
X6401580Y-15020000D01*
X6298420Y-15020000D01*
X6221293Y-15012403D01*
X6144164Y-15004807D01*
X6012213Y-14964780D01*
X5946237Y-14944767D01*
X5763828Y-14847267D01*
X5603946Y-14716054D01*
X5472733Y-14556172D01*
X5375233Y-14373763D01*
X5355220Y-14307787D01*
X5315193Y-14175836D01*
X5294920Y-13970000D01*
X5315193Y-13764164D01*
X5375233Y-13566238D01*
X5375233Y-13566237D01*
X5472733Y-13383828D01*
X5603946Y-13223946D01*
X5763828Y-13092733D01*
X5946237Y-12995233D01*
X6012213Y-12975220D01*
X6144164Y-12935193D01*
X6221293Y-12927596D01*
X6298420Y-12920000D01*
X6401580Y-12920000D01*
X6478707Y-12927596D01*
X6478707Y-12927596D01*
G37*
G36*
X65205149Y-10962717D02*
X65244327Y-10966576D01*
X65319727Y-10989448D01*
X65395129Y-11012321D01*
X65534108Y-11086608D01*
X65655922Y-11186578D01*
X65755892Y-11308392D01*
X65830179Y-11447371D01*
X65875924Y-11598174D01*
X65891370Y-11755000D01*
X65875924Y-11911826D01*
X65830179Y-12062629D01*
X65755892Y-12201608D01*
X65655922Y-12323422D01*
X65534108Y-12423392D01*
X65395129Y-12497679D01*
X65319728Y-12520551D01*
X65244327Y-12543424D01*
X65205149Y-12547283D01*
X65126795Y-12555000D01*
X64348205Y-12555000D01*
X64269851Y-12547283D01*
X64230673Y-12543424D01*
X64155272Y-12520551D01*
X64079871Y-12497679D01*
X63940892Y-12423392D01*
X63819078Y-12323422D01*
X63719108Y-12201608D01*
X63644821Y-12062629D01*
X63599076Y-11911826D01*
X63583630Y-11755000D01*
X63599076Y-11598174D01*
X63644821Y-11447371D01*
X63719108Y-11308392D01*
X63819078Y-11186578D01*
X63940892Y-11086608D01*
X64079871Y-11012321D01*
X64155273Y-10989448D01*
X64230673Y-10966576D01*
X64269851Y-10962717D01*
X64348205Y-10955000D01*
X65126795Y-10955000D01*
X65205149Y-10962717D01*
X65205149Y-10962717D01*
G37*
G36*
X6478707Y-10387597D02*
X6555836Y-10395193D01*
X6687787Y-10435220D01*
X6753763Y-10455233D01*
X6936172Y-10552733D01*
X7096054Y-10683946D01*
X7227267Y-10843828D01*
X7324767Y-11026237D01*
X7324767Y-11026238D01*
X7384807Y-11224164D01*
X7405080Y-11430000D01*
X7384807Y-11635836D01*
X7371410Y-11680000D01*
X7324767Y-11833763D01*
X7227267Y-12016172D01*
X7096054Y-12176054D01*
X6936172Y-12307267D01*
X6753763Y-12404767D01*
X6692363Y-12423392D01*
X6555836Y-12464807D01*
X6478707Y-12472404D01*
X6401580Y-12480000D01*
X6298420Y-12480000D01*
X6221293Y-12472404D01*
X6144164Y-12464807D01*
X6007637Y-12423392D01*
X5946237Y-12404767D01*
X5763828Y-12307267D01*
X5603946Y-12176054D01*
X5472733Y-12016172D01*
X5375233Y-11833763D01*
X5328590Y-11680000D01*
X5315193Y-11635836D01*
X5294920Y-11430000D01*
X5315193Y-11224164D01*
X5375233Y-11026238D01*
X5375233Y-11026237D01*
X5472733Y-10843828D01*
X5603946Y-10683946D01*
X5763828Y-10552733D01*
X5946237Y-10455233D01*
X6012213Y-10435220D01*
X6144164Y-10395193D01*
X6221293Y-10387597D01*
X6298420Y-10380000D01*
X6401580Y-10380000D01*
X6478707Y-10387597D01*
X6478707Y-10387597D01*
G37*
G36*
X62307311Y-9865546D02*
X62307314Y-9865547D01*
X62307313Y-9865547D01*
X62475652Y-9935275D01*
X62475653Y-9935276D01*
X62627156Y-10036507D01*
X62755993Y-10165344D01*
X62755995Y-10165347D01*
X62857225Y-10316848D01*
X62883383Y-10380000D01*
X62926954Y-10485189D01*
X62962500Y-10663894D01*
X62962500Y-10846106D01*
X62926954Y-11024811D01*
X62926953Y-11024813D01*
X62857225Y-11193152D01*
X62757360Y-11342611D01*
X62755993Y-11344656D01*
X62627156Y-11473493D01*
X62627153Y-11473495D01*
X62475652Y-11574725D01*
X62345448Y-11628657D01*
X62307311Y-11644454D01*
X62128606Y-11680000D01*
X61946394Y-11680000D01*
X61767689Y-11644454D01*
X61729552Y-11628657D01*
X61599348Y-11574725D01*
X61447847Y-11473495D01*
X61447844Y-11473493D01*
X61319007Y-11344656D01*
X61317640Y-11342611D01*
X61217775Y-11193152D01*
X61148047Y-11024813D01*
X61148046Y-11024811D01*
X61112500Y-10846106D01*
X61112500Y-10663894D01*
X61148046Y-10485189D01*
X61191617Y-10380000D01*
X61217775Y-10316848D01*
X61319005Y-10165347D01*
X61319007Y-10165344D01*
X61447844Y-10036507D01*
X61599347Y-9935276D01*
X61599348Y-9935275D01*
X61767687Y-9865547D01*
X61767686Y-9865547D01*
X61767689Y-9865546D01*
X61946394Y-9830000D01*
X62128606Y-9830000D01*
X62307311Y-9865546D01*
X62307311Y-9865546D01*
G37*
G36*
X16638707Y-7847597D02*
X16715836Y-7855193D01*
X16847787Y-7895220D01*
X16913763Y-7915233D01*
X17096172Y-8012733D01*
X17256054Y-8143946D01*
X17387267Y-8303828D01*
X17484767Y-8486237D01*
X17484767Y-8486238D01*
X17544807Y-8684164D01*
X17565080Y-8890000D01*
X17544807Y-9095836D01*
X17504780Y-9227787D01*
X17484767Y-9293763D01*
X17387267Y-9476172D01*
X17256054Y-9636054D01*
X17096172Y-9767267D01*
X16913763Y-9864767D01*
X16847787Y-9884780D01*
X16715836Y-9924807D01*
X16638707Y-9932403D01*
X16561580Y-9940000D01*
X16458420Y-9940000D01*
X16381293Y-9932403D01*
X16304164Y-9924807D01*
X16172213Y-9884780D01*
X16106237Y-9864767D01*
X15923828Y-9767267D01*
X15763946Y-9636054D01*
X15632733Y-9476172D01*
X15535233Y-9293763D01*
X15515220Y-9227787D01*
X15475193Y-9095836D01*
X15454920Y-8890000D01*
X15475193Y-8684164D01*
X15535233Y-8486238D01*
X15535233Y-8486237D01*
X15632733Y-8303828D01*
X15763946Y-8143946D01*
X15923828Y-8012733D01*
X16106237Y-7915233D01*
X16172213Y-7895220D01*
X16304164Y-7855193D01*
X16381293Y-7847597D01*
X16458420Y-7840000D01*
X16561580Y-7840000D01*
X16638707Y-7847597D01*
X16638707Y-7847597D01*
G37*
G36*
X14098707Y-7847597D02*
X14175836Y-7855193D01*
X14307787Y-7895220D01*
X14373763Y-7915233D01*
X14556172Y-8012733D01*
X14716054Y-8143946D01*
X14847267Y-8303828D01*
X14944767Y-8486237D01*
X14944767Y-8486238D01*
X15004807Y-8684164D01*
X15025080Y-8890000D01*
X15004807Y-9095836D01*
X14964780Y-9227787D01*
X14944767Y-9293763D01*
X14847267Y-9476172D01*
X14716054Y-9636054D01*
X14556172Y-9767267D01*
X14373763Y-9864767D01*
X14307787Y-9884780D01*
X14175836Y-9924807D01*
X14098707Y-9932403D01*
X14021580Y-9940000D01*
X13918420Y-9940000D01*
X13841293Y-9932403D01*
X13764164Y-9924807D01*
X13632213Y-9884780D01*
X13566237Y-9864767D01*
X13383828Y-9767267D01*
X13223946Y-9636054D01*
X13092733Y-9476172D01*
X12995233Y-9293763D01*
X12975220Y-9227787D01*
X12935193Y-9095836D01*
X12914920Y-8890000D01*
X12935193Y-8684164D01*
X12995233Y-8486238D01*
X12995233Y-8486237D01*
X13092733Y-8303828D01*
X13223946Y-8143946D01*
X13383828Y-8012733D01*
X13566237Y-7915233D01*
X13632213Y-7895220D01*
X13764164Y-7855193D01*
X13841293Y-7847597D01*
X13918420Y-7840000D01*
X14021580Y-7840000D01*
X14098707Y-7847597D01*
X14098707Y-7847597D01*
G37*
G36*
X7400000Y-9940000D02*
X5300000Y-9940000D01*
X5300000Y-7840000D01*
X7400000Y-7840000D01*
X7400000Y-9940000D01*
X7400000Y-9940000D01*
G37*
G36*
X43574683Y-7264400D02*
X43702074Y-7317168D01*
X43803304Y-7384807D01*
X43816725Y-7393775D01*
X43914225Y-7491275D01*
X43990832Y-7605926D01*
X44043600Y-7733317D01*
X44070500Y-7868555D01*
X44070500Y-8006445D01*
X44043600Y-8141683D01*
X43990832Y-8269074D01*
X43914226Y-8383724D01*
X43816724Y-8481226D01*
X43702074Y-8557832D01*
X43574683Y-8610600D01*
X43439445Y-8637500D01*
X43301555Y-8637500D01*
X43166317Y-8610600D01*
X43038926Y-8557832D01*
X42924276Y-8481226D01*
X42826774Y-8383724D01*
X42750168Y-8269074D01*
X42697400Y-8141683D01*
X42670500Y-8006445D01*
X42670500Y-7868555D01*
X42697400Y-7733317D01*
X42750168Y-7605926D01*
X42826775Y-7491275D01*
X42924275Y-7393775D01*
X42937697Y-7384807D01*
X43038926Y-7317168D01*
X43166317Y-7264400D01*
X43301555Y-7237500D01*
X43439445Y-7237500D01*
X43574683Y-7264400D01*
X43574683Y-7264400D01*
G37*
G36*
X16638707Y-5307597D02*
X16715836Y-5315193D01*
X16847787Y-5355220D01*
X16913763Y-5375233D01*
X17096172Y-5472733D01*
X17256054Y-5603946D01*
X17387267Y-5763828D01*
X17484767Y-5946237D01*
X17484767Y-5946238D01*
X17544807Y-6144164D01*
X17565080Y-6350000D01*
X17544807Y-6555836D01*
X17539077Y-6574724D01*
X17484767Y-6753763D01*
X17387267Y-6936172D01*
X17256054Y-7096054D01*
X17096172Y-7227267D01*
X16913763Y-7324767D01*
X16847787Y-7344780D01*
X16715836Y-7384807D01*
X16638707Y-7392404D01*
X16561580Y-7400000D01*
X16458420Y-7400000D01*
X16381293Y-7392404D01*
X16304164Y-7384807D01*
X16172213Y-7344780D01*
X16106237Y-7324767D01*
X15923828Y-7227267D01*
X15763946Y-7096054D01*
X15632733Y-6936172D01*
X15535233Y-6753763D01*
X15480923Y-6574724D01*
X15475193Y-6555836D01*
X15454920Y-6350000D01*
X15475193Y-6144164D01*
X15535233Y-5946238D01*
X15535233Y-5946237D01*
X15632733Y-5763828D01*
X15763946Y-5603946D01*
X15923828Y-5472733D01*
X16106237Y-5375233D01*
X16172213Y-5355220D01*
X16304164Y-5315193D01*
X16381293Y-5307597D01*
X16458420Y-5300000D01*
X16561580Y-5300000D01*
X16638707Y-5307597D01*
X16638707Y-5307597D01*
G37*
G36*
X15020000Y-7400000D02*
X12920000Y-7400000D01*
X12920000Y-5300000D01*
X15020000Y-5300000D01*
X15020000Y-7400000D01*
X15020000Y-7400000D01*
G37*
G36*
X62307311Y-4865546D02*
X62307314Y-4865547D01*
X62307313Y-4865547D01*
X62475652Y-4935275D01*
X62475653Y-4935276D01*
X62627156Y-5036507D01*
X62755993Y-5165344D01*
X62755995Y-5165347D01*
X62857225Y-5316848D01*
X62901357Y-5423392D01*
X62926954Y-5485189D01*
X62962500Y-5663894D01*
X62962500Y-5846106D01*
X62926954Y-6024811D01*
X62926953Y-6024813D01*
X62857225Y-6193152D01*
X62857224Y-6193153D01*
X62755993Y-6344656D01*
X62627156Y-6473493D01*
X62627153Y-6473495D01*
X62475652Y-6574725D01*
X62345448Y-6628657D01*
X62307311Y-6644454D01*
X62128606Y-6680000D01*
X61946394Y-6680000D01*
X61767689Y-6644454D01*
X61729552Y-6628657D01*
X61599348Y-6574725D01*
X61447847Y-6473495D01*
X61447844Y-6473493D01*
X61319007Y-6344656D01*
X61217776Y-6193153D01*
X61217775Y-6193152D01*
X61148047Y-6024813D01*
X61148046Y-6024811D01*
X61112500Y-5846106D01*
X61112500Y-5663894D01*
X61148046Y-5485189D01*
X61173643Y-5423392D01*
X61217775Y-5316848D01*
X61319005Y-5165347D01*
X61319007Y-5165344D01*
X61447844Y-5036507D01*
X61599347Y-4935276D01*
X61599348Y-4935275D01*
X61767687Y-4865547D01*
X61767686Y-4865547D01*
X61767689Y-4865546D01*
X61946394Y-4830000D01*
X62128606Y-4830000D01*
X62307311Y-4865546D01*
X62307311Y-4865546D01*
G37*
G36*
X65205149Y-3962717D02*
X65244327Y-3966576D01*
X65319727Y-3989448D01*
X65395129Y-4012321D01*
X65534108Y-4086608D01*
X65655922Y-4186578D01*
X65755892Y-4308392D01*
X65830179Y-4447371D01*
X65875924Y-4598174D01*
X65891370Y-4755000D01*
X65875924Y-4911826D01*
X65830179Y-5062629D01*
X65755892Y-5201608D01*
X65655922Y-5323422D01*
X65534108Y-5423392D01*
X65395129Y-5497679D01*
X65319727Y-5520552D01*
X65244327Y-5543424D01*
X65205149Y-5547283D01*
X65126795Y-5555000D01*
X64348205Y-5555000D01*
X64269851Y-5547283D01*
X64230673Y-5543424D01*
X64155273Y-5520552D01*
X64079871Y-5497679D01*
X63940892Y-5423392D01*
X63819078Y-5323422D01*
X63719108Y-5201608D01*
X63644821Y-5062629D01*
X63599076Y-4911826D01*
X63583630Y-4755000D01*
X63599076Y-4598174D01*
X63644821Y-4447371D01*
X63719108Y-4308392D01*
X63819078Y-4186578D01*
X63940892Y-4086608D01*
X64079871Y-4012321D01*
X64155273Y-3989448D01*
X64230673Y-3966576D01*
X64269851Y-3962717D01*
X64348205Y-3955000D01*
X65126795Y-3955000D01*
X65205149Y-3962717D01*
X65205149Y-3962717D01*
G37*
G36*
X44578707Y-227596D02*
X44655836Y-235193D01*
X44787787Y-275220D01*
X44853763Y-295233D01*
X45036172Y-392733D01*
X45196054Y-523946D01*
X45327267Y-683828D01*
X45424767Y-866237D01*
X45424767Y-866238D01*
X45484807Y-1064164D01*
X45505080Y-1270000D01*
X45484807Y-1475836D01*
X45444780Y-1607787D01*
X45424767Y-1673763D01*
X45327267Y-1856172D01*
X45196054Y-2016054D01*
X45036172Y-2147267D01*
X44853763Y-2244767D01*
X44787787Y-2264780D01*
X44655836Y-2304807D01*
X44578707Y-2312404D01*
X44501580Y-2320000D01*
X44398420Y-2320000D01*
X44321293Y-2312404D01*
X44244164Y-2304807D01*
X44112213Y-2264780D01*
X44046237Y-2244767D01*
X43863828Y-2147267D01*
X43703946Y-2016054D01*
X43572733Y-1856172D01*
X43475233Y-1673763D01*
X43455220Y-1607787D01*
X43415193Y-1475836D01*
X43394920Y-1270000D01*
X43415193Y-1064164D01*
X43475233Y-866238D01*
X43475233Y-866237D01*
X43572733Y-683828D01*
X43703946Y-523946D01*
X43863828Y-392733D01*
X44046237Y-295233D01*
X44112213Y-275220D01*
X44244164Y-235193D01*
X44321293Y-227596D01*
X44398420Y-220000D01*
X44501580Y-220000D01*
X44578707Y-227596D01*
X44578707Y-227596D01*
G37*
G36*
X2320000Y-2320000D02*
X220000Y-2320000D01*
X220000Y-220000D01*
X2320000Y-220000D01*
X2320000Y-2320000D01*
X2320000Y-2320000D01*
G37*
G36*
X47118707Y-227596D02*
X47195836Y-235193D01*
X47327787Y-275220D01*
X47393763Y-295233D01*
X47576172Y-392733D01*
X47736054Y-523946D01*
X47867267Y-683828D01*
X47964767Y-866237D01*
X47964767Y-866238D01*
X48024807Y-1064164D01*
X48045080Y-1270000D01*
X48024807Y-1475836D01*
X47984780Y-1607787D01*
X47964767Y-1673763D01*
X47867267Y-1856172D01*
X47736054Y-2016054D01*
X47576172Y-2147267D01*
X47393763Y-2244767D01*
X47327787Y-2264780D01*
X47195836Y-2304807D01*
X47118707Y-2312404D01*
X47041580Y-2320000D01*
X46938420Y-2320000D01*
X46861293Y-2312404D01*
X46784164Y-2304807D01*
X46652213Y-2264780D01*
X46586237Y-2244767D01*
X46403828Y-2147267D01*
X46243946Y-2016054D01*
X46112733Y-1856172D01*
X46015233Y-1673763D01*
X45995220Y-1607787D01*
X45955193Y-1475836D01*
X45934920Y-1270000D01*
X45955193Y-1064164D01*
X46015233Y-866238D01*
X46015233Y-866237D01*
X46112733Y-683828D01*
X46243946Y-523946D01*
X46403828Y-392733D01*
X46586237Y-295233D01*
X46652213Y-275220D01*
X46784164Y-235193D01*
X46861293Y-227596D01*
X46938420Y-220000D01*
X47041580Y-220000D01*
X47118707Y-227596D01*
X47118707Y-227596D01*
G37*
G36*
X49658707Y-227596D02*
X49735836Y-235193D01*
X49867787Y-275220D01*
X49933763Y-295233D01*
X50116172Y-392733D01*
X50276054Y-523946D01*
X50407267Y-683828D01*
X50504767Y-866237D01*
X50504767Y-866238D01*
X50564807Y-1064164D01*
X50585080Y-1270000D01*
X50564807Y-1475836D01*
X50524780Y-1607787D01*
X50504767Y-1673763D01*
X50407267Y-1856172D01*
X50276054Y-2016054D01*
X50116172Y-2147267D01*
X49933763Y-2244767D01*
X49867787Y-2264780D01*
X49735836Y-2304807D01*
X49658707Y-2312404D01*
X49581580Y-2320000D01*
X49478420Y-2320000D01*
X49401293Y-2312404D01*
X49324164Y-2304807D01*
X49192213Y-2264780D01*
X49126237Y-2244767D01*
X48943828Y-2147267D01*
X48783946Y-2016054D01*
X48652733Y-1856172D01*
X48555233Y-1673763D01*
X48535220Y-1607787D01*
X48495193Y-1475836D01*
X48474920Y-1270000D01*
X48495193Y-1064164D01*
X48555233Y-866238D01*
X48555233Y-866237D01*
X48652733Y-683828D01*
X48783946Y-523946D01*
X48943828Y-392733D01*
X49126237Y-295233D01*
X49192213Y-275220D01*
X49324164Y-235193D01*
X49401293Y-227596D01*
X49478420Y-220000D01*
X49581580Y-220000D01*
X49658707Y-227596D01*
X49658707Y-227596D01*
G37*
G36*
X52198707Y-227596D02*
X52275836Y-235193D01*
X52407787Y-275220D01*
X52473763Y-295233D01*
X52656172Y-392733D01*
X52816054Y-523946D01*
X52947267Y-683828D01*
X53044767Y-866237D01*
X53044767Y-866238D01*
X53104807Y-1064164D01*
X53125080Y-1270000D01*
X53104807Y-1475836D01*
X53064780Y-1607787D01*
X53044767Y-1673763D01*
X52947267Y-1856172D01*
X52816054Y-2016054D01*
X52656172Y-2147267D01*
X52473763Y-2244767D01*
X52407787Y-2264780D01*
X52275836Y-2304807D01*
X52198707Y-2312404D01*
X52121580Y-2320000D01*
X52018420Y-2320000D01*
X51941293Y-2312404D01*
X51864164Y-2304807D01*
X51732213Y-2264780D01*
X51666237Y-2244767D01*
X51483828Y-2147267D01*
X51323946Y-2016054D01*
X51192733Y-1856172D01*
X51095233Y-1673763D01*
X51075220Y-1607787D01*
X51035193Y-1475836D01*
X51014920Y-1270000D01*
X51035193Y-1064164D01*
X51095233Y-866238D01*
X51095233Y-866237D01*
X51192733Y-683828D01*
X51323946Y-523946D01*
X51483828Y-392733D01*
X51666237Y-295233D01*
X51732213Y-275220D01*
X51864164Y-235193D01*
X51941293Y-227596D01*
X52018420Y-220000D01*
X52121580Y-220000D01*
X52198707Y-227596D01*
X52198707Y-227596D01*
G37*
G36*
X54738707Y-227596D02*
X54815836Y-235193D01*
X54947787Y-275220D01*
X55013763Y-295233D01*
X55196172Y-392733D01*
X55356054Y-523946D01*
X55487267Y-683828D01*
X55584767Y-866237D01*
X55584767Y-866238D01*
X55644807Y-1064164D01*
X55665080Y-1270000D01*
X55644807Y-1475836D01*
X55604780Y-1607787D01*
X55584767Y-1673763D01*
X55487267Y-1856172D01*
X55356054Y-2016054D01*
X55196172Y-2147267D01*
X55013763Y-2244767D01*
X54947787Y-2264780D01*
X54815836Y-2304807D01*
X54738707Y-2312404D01*
X54661580Y-2320000D01*
X54558420Y-2320000D01*
X54481293Y-2312404D01*
X54404164Y-2304807D01*
X54272213Y-2264780D01*
X54206237Y-2244767D01*
X54023828Y-2147267D01*
X53863946Y-2016054D01*
X53732733Y-1856172D01*
X53635233Y-1673763D01*
X53615220Y-1607787D01*
X53575193Y-1475836D01*
X53554920Y-1270000D01*
X53575193Y-1064164D01*
X53635233Y-866238D01*
X53635233Y-866237D01*
X53732733Y-683828D01*
X53863946Y-523946D01*
X54023828Y-392733D01*
X54206237Y-295233D01*
X54272213Y-275220D01*
X54404164Y-235193D01*
X54481293Y-227596D01*
X54558420Y-220000D01*
X54661580Y-220000D01*
X54738707Y-227596D01*
X54738707Y-227596D01*
G37*
G36*
X57278707Y-227596D02*
X57355836Y-235193D01*
X57487787Y-275220D01*
X57553763Y-295233D01*
X57736172Y-392733D01*
X57896054Y-523946D01*
X58027267Y-683828D01*
X58124767Y-866237D01*
X58124767Y-866238D01*
X58184807Y-1064164D01*
X58205080Y-1270000D01*
X58184807Y-1475836D01*
X58144780Y-1607787D01*
X58124767Y-1673763D01*
X58027267Y-1856172D01*
X57896054Y-2016054D01*
X57736172Y-2147267D01*
X57553763Y-2244767D01*
X57487787Y-2264780D01*
X57355836Y-2304807D01*
X57278707Y-2312404D01*
X57201580Y-2320000D01*
X57098420Y-2320000D01*
X57021293Y-2312404D01*
X56944164Y-2304807D01*
X56812213Y-2264780D01*
X56746237Y-2244767D01*
X56563828Y-2147267D01*
X56403946Y-2016054D01*
X56272733Y-1856172D01*
X56175233Y-1673763D01*
X56155220Y-1607787D01*
X56115193Y-1475836D01*
X56094920Y-1270000D01*
X56115193Y-1064164D01*
X56175233Y-866238D01*
X56175233Y-866237D01*
X56272733Y-683828D01*
X56403946Y-523946D01*
X56563828Y-392733D01*
X56746237Y-295233D01*
X56812213Y-275220D01*
X56944164Y-235193D01*
X57021293Y-227596D01*
X57098420Y-220000D01*
X57201580Y-220000D01*
X57278707Y-227596D01*
X57278707Y-227596D01*
G37*
G36*
X59818707Y-227596D02*
X59895836Y-235193D01*
X60027787Y-275220D01*
X60093763Y-295233D01*
X60276172Y-392733D01*
X60436054Y-523946D01*
X60567267Y-683828D01*
X60664767Y-866237D01*
X60664767Y-866238D01*
X60724807Y-1064164D01*
X60745080Y-1270000D01*
X60724807Y-1475836D01*
X60684780Y-1607787D01*
X60664767Y-1673763D01*
X60567267Y-1856172D01*
X60436054Y-2016054D01*
X60276172Y-2147267D01*
X60093763Y-2244767D01*
X60027787Y-2264780D01*
X59895836Y-2304807D01*
X59818707Y-2312404D01*
X59741580Y-2320000D01*
X59638420Y-2320000D01*
X59561293Y-2312404D01*
X59484164Y-2304807D01*
X59352213Y-2264780D01*
X59286237Y-2244767D01*
X59103828Y-2147267D01*
X58943946Y-2016054D01*
X58812733Y-1856172D01*
X58715233Y-1673763D01*
X58695220Y-1607787D01*
X58655193Y-1475836D01*
X58634920Y-1270000D01*
X58655193Y-1064164D01*
X58715233Y-866238D01*
X58715233Y-866237D01*
X58812733Y-683828D01*
X58943946Y-523946D01*
X59103828Y-392733D01*
X59286237Y-295233D01*
X59352213Y-275220D01*
X59484164Y-235193D01*
X59561293Y-227596D01*
X59638420Y-220000D01*
X59741580Y-220000D01*
X59818707Y-227596D01*
X59818707Y-227596D01*
G37*
G36*
X62358707Y-227596D02*
X62435836Y-235193D01*
X62567787Y-275220D01*
X62633763Y-295233D01*
X62816172Y-392733D01*
X62976054Y-523946D01*
X63107267Y-683828D01*
X63204767Y-866237D01*
X63204767Y-866238D01*
X63264807Y-1064164D01*
X63285080Y-1270000D01*
X63264807Y-1475836D01*
X63224780Y-1607787D01*
X63204767Y-1673763D01*
X63107267Y-1856172D01*
X62976054Y-2016054D01*
X62816172Y-2147267D01*
X62633763Y-2244767D01*
X62567787Y-2264780D01*
X62435836Y-2304807D01*
X62358707Y-2312404D01*
X62281580Y-2320000D01*
X62178420Y-2320000D01*
X62101293Y-2312404D01*
X62024164Y-2304807D01*
X61892213Y-2264780D01*
X61826237Y-2244767D01*
X61643828Y-2147267D01*
X61483946Y-2016054D01*
X61352733Y-1856172D01*
X61255233Y-1673763D01*
X61235220Y-1607787D01*
X61195193Y-1475836D01*
X61174920Y-1270000D01*
X61195193Y-1064164D01*
X61255233Y-866238D01*
X61255233Y-866237D01*
X61352733Y-683828D01*
X61483946Y-523946D01*
X61643828Y-392733D01*
X61826237Y-295233D01*
X61892213Y-275220D01*
X62024164Y-235193D01*
X62101293Y-227596D01*
X62178420Y-220000D01*
X62281580Y-220000D01*
X62358707Y-227596D01*
X62358707Y-227596D01*
G37*
G36*
X64898707Y-227596D02*
X64975836Y-235193D01*
X65107787Y-275220D01*
X65173763Y-295233D01*
X65356172Y-392733D01*
X65516054Y-523946D01*
X65647267Y-683828D01*
X65744767Y-866237D01*
X65744767Y-866238D01*
X65804807Y-1064164D01*
X65825080Y-1270000D01*
X65804807Y-1475836D01*
X65764780Y-1607787D01*
X65744767Y-1673763D01*
X65647267Y-1856172D01*
X65516054Y-2016054D01*
X65356172Y-2147267D01*
X65173763Y-2244767D01*
X65107787Y-2264780D01*
X64975836Y-2304807D01*
X64898707Y-2312404D01*
X64821580Y-2320000D01*
X64718420Y-2320000D01*
X64641293Y-2312404D01*
X64564164Y-2304807D01*
X64432213Y-2264780D01*
X64366237Y-2244767D01*
X64183828Y-2147267D01*
X64023946Y-2016054D01*
X63892733Y-1856172D01*
X63795233Y-1673763D01*
X63775220Y-1607787D01*
X63735193Y-1475836D01*
X63714920Y-1270000D01*
X63735193Y-1064164D01*
X63795233Y-866238D01*
X63795233Y-866237D01*
X63892733Y-683828D01*
X64023946Y-523946D01*
X64183828Y-392733D01*
X64366237Y-295233D01*
X64432213Y-275220D01*
X64564164Y-235193D01*
X64641293Y-227596D01*
X64718420Y-220000D01*
X64821580Y-220000D01*
X64898707Y-227596D01*
X64898707Y-227596D01*
G37*
G36*
X9018707Y-227596D02*
X9095836Y-235193D01*
X9227787Y-275220D01*
X9293763Y-295233D01*
X9476172Y-392733D01*
X9636054Y-523946D01*
X9767267Y-683828D01*
X9864767Y-866237D01*
X9864767Y-866238D01*
X9924807Y-1064164D01*
X9945080Y-1270000D01*
X9924807Y-1475836D01*
X9884780Y-1607787D01*
X9864767Y-1673763D01*
X9767267Y-1856172D01*
X9636054Y-2016054D01*
X9476172Y-2147267D01*
X9293763Y-2244767D01*
X9227787Y-2264780D01*
X9095836Y-2304807D01*
X9018707Y-2312404D01*
X8941580Y-2320000D01*
X8838420Y-2320000D01*
X8761293Y-2312404D01*
X8684164Y-2304807D01*
X8552213Y-2264780D01*
X8486237Y-2244767D01*
X8303828Y-2147267D01*
X8143946Y-2016054D01*
X8012733Y-1856172D01*
X7915233Y-1673763D01*
X7895220Y-1607787D01*
X7855193Y-1475836D01*
X7834920Y-1270000D01*
X7855193Y-1064164D01*
X7915233Y-866238D01*
X7915233Y-866237D01*
X8012733Y-683828D01*
X8143946Y-523946D01*
X8303828Y-392733D01*
X8486237Y-295233D01*
X8552213Y-275220D01*
X8684164Y-235193D01*
X8761293Y-227596D01*
X8838420Y-220000D01*
X8941580Y-220000D01*
X9018707Y-227596D01*
X9018707Y-227596D01*
G37*
G36*
X6478707Y-227596D02*
X6555836Y-235193D01*
X6687787Y-275220D01*
X6753763Y-295233D01*
X6936172Y-392733D01*
X7096054Y-523946D01*
X7227267Y-683828D01*
X7324767Y-866237D01*
X7324767Y-866238D01*
X7384807Y-1064164D01*
X7405080Y-1270000D01*
X7384807Y-1475836D01*
X7344780Y-1607787D01*
X7324767Y-1673763D01*
X7227267Y-1856172D01*
X7096054Y-2016054D01*
X6936172Y-2147267D01*
X6753763Y-2244767D01*
X6687787Y-2264780D01*
X6555836Y-2304807D01*
X6478707Y-2312404D01*
X6401580Y-2320000D01*
X6298420Y-2320000D01*
X6221293Y-2312404D01*
X6144164Y-2304807D01*
X6012213Y-2264780D01*
X5946237Y-2244767D01*
X5763828Y-2147267D01*
X5603946Y-2016054D01*
X5472733Y-1856172D01*
X5375233Y-1673763D01*
X5355220Y-1607787D01*
X5315193Y-1475836D01*
X5294920Y-1270000D01*
X5315193Y-1064164D01*
X5375233Y-866238D01*
X5375233Y-866237D01*
X5472733Y-683828D01*
X5603946Y-523946D01*
X5763828Y-392733D01*
X5946237Y-295233D01*
X6012213Y-275220D01*
X6144164Y-235193D01*
X6221293Y-227596D01*
X6298420Y-220000D01*
X6401580Y-220000D01*
X6478707Y-227596D01*
X6478707Y-227596D01*
G37*
G36*
X3938707Y-227596D02*
X4015836Y-235193D01*
X4147787Y-275220D01*
X4213763Y-295233D01*
X4396172Y-392733D01*
X4556054Y-523946D01*
X4687267Y-683828D01*
X4784767Y-866237D01*
X4784767Y-866238D01*
X4844807Y-1064164D01*
X4865080Y-1270000D01*
X4844807Y-1475836D01*
X4804780Y-1607787D01*
X4784767Y-1673763D01*
X4687267Y-1856172D01*
X4556054Y-2016054D01*
X4396172Y-2147267D01*
X4213763Y-2244767D01*
X4147787Y-2264780D01*
X4015836Y-2304807D01*
X3938707Y-2312404D01*
X3861580Y-2320000D01*
X3758420Y-2320000D01*
X3681293Y-2312404D01*
X3604164Y-2304807D01*
X3472213Y-2264780D01*
X3406237Y-2244767D01*
X3223828Y-2147267D01*
X3063946Y-2016054D01*
X2932733Y-1856172D01*
X2835233Y-1673763D01*
X2815220Y-1607787D01*
X2775193Y-1475836D01*
X2754920Y-1270000D01*
X2775193Y-1064164D01*
X2835233Y-866238D01*
X2835233Y-866237D01*
X2932733Y-683828D01*
X3063946Y-523946D01*
X3223828Y-392733D01*
X3406237Y-295233D01*
X3472213Y-275220D01*
X3604164Y-235193D01*
X3681293Y-227596D01*
X3758420Y-220000D01*
X3861580Y-220000D01*
X3938707Y-227596D01*
X3938707Y-227596D01*
G37*
G36*
X42038707Y-227596D02*
X42115836Y-235193D01*
X42247787Y-275220D01*
X42313763Y-295233D01*
X42496172Y-392733D01*
X42656054Y-523946D01*
X42787267Y-683828D01*
X42884767Y-866237D01*
X42884767Y-866238D01*
X42944807Y-1064164D01*
X42965080Y-1270000D01*
X42944807Y-1475836D01*
X42904780Y-1607787D01*
X42884767Y-1673763D01*
X42787267Y-1856172D01*
X42656054Y-2016054D01*
X42496172Y-2147267D01*
X42313763Y-2244767D01*
X42247787Y-2264780D01*
X42115836Y-2304807D01*
X42038707Y-2312404D01*
X41961580Y-2320000D01*
X41858420Y-2320000D01*
X41781293Y-2312404D01*
X41704164Y-2304807D01*
X41572213Y-2264780D01*
X41506237Y-2244767D01*
X41323828Y-2147267D01*
X41163946Y-2016054D01*
X41032733Y-1856172D01*
X40935233Y-1673763D01*
X40915220Y-1607787D01*
X40875193Y-1475836D01*
X40854920Y-1270000D01*
X40875193Y-1064164D01*
X40935233Y-866238D01*
X40935233Y-866237D01*
X41032733Y-683828D01*
X41163946Y-523946D01*
X41323828Y-392733D01*
X41506237Y-295233D01*
X41572213Y-275220D01*
X41704164Y-235193D01*
X41781293Y-227596D01*
X41858420Y-220000D01*
X41961580Y-220000D01*
X42038707Y-227596D01*
X42038707Y-227596D01*
G37*
G36*
X39498707Y-227596D02*
X39575836Y-235193D01*
X39707787Y-275220D01*
X39773763Y-295233D01*
X39956172Y-392733D01*
X40116054Y-523946D01*
X40247267Y-683828D01*
X40344767Y-866237D01*
X40344767Y-866238D01*
X40404807Y-1064164D01*
X40425080Y-1270000D01*
X40404807Y-1475836D01*
X40364780Y-1607787D01*
X40344767Y-1673763D01*
X40247267Y-1856172D01*
X40116054Y-2016054D01*
X39956172Y-2147267D01*
X39773763Y-2244767D01*
X39707787Y-2264780D01*
X39575836Y-2304807D01*
X39498707Y-2312404D01*
X39421580Y-2320000D01*
X39318420Y-2320000D01*
X39241293Y-2312404D01*
X39164164Y-2304807D01*
X39032213Y-2264780D01*
X38966237Y-2244767D01*
X38783828Y-2147267D01*
X38623946Y-2016054D01*
X38492733Y-1856172D01*
X38395233Y-1673763D01*
X38375220Y-1607787D01*
X38335193Y-1475836D01*
X38314920Y-1270000D01*
X38335193Y-1064164D01*
X38395233Y-866238D01*
X38395233Y-866237D01*
X38492733Y-683828D01*
X38623946Y-523946D01*
X38783828Y-392733D01*
X38966237Y-295233D01*
X39032213Y-275220D01*
X39164164Y-235193D01*
X39241293Y-227596D01*
X39318420Y-220000D01*
X39421580Y-220000D01*
X39498707Y-227596D01*
X39498707Y-227596D01*
G37*
G36*
X11558707Y-227596D02*
X11635836Y-235193D01*
X11767787Y-275220D01*
X11833763Y-295233D01*
X12016172Y-392733D01*
X12176054Y-523946D01*
X12307267Y-683828D01*
X12404767Y-866237D01*
X12404767Y-866238D01*
X12464807Y-1064164D01*
X12485080Y-1270000D01*
X12464807Y-1475836D01*
X12424780Y-1607787D01*
X12404767Y-1673763D01*
X12307267Y-1856172D01*
X12176054Y-2016054D01*
X12016172Y-2147267D01*
X11833763Y-2244767D01*
X11767787Y-2264780D01*
X11635836Y-2304807D01*
X11558707Y-2312404D01*
X11481580Y-2320000D01*
X11378420Y-2320000D01*
X11301293Y-2312404D01*
X11224164Y-2304807D01*
X11092213Y-2264780D01*
X11026237Y-2244767D01*
X10843828Y-2147267D01*
X10683946Y-2016054D01*
X10552733Y-1856172D01*
X10455233Y-1673763D01*
X10435220Y-1607787D01*
X10395193Y-1475836D01*
X10374920Y-1270000D01*
X10395193Y-1064164D01*
X10455233Y-866238D01*
X10455233Y-866237D01*
X10552733Y-683828D01*
X10683946Y-523946D01*
X10843828Y-392733D01*
X11026237Y-295233D01*
X11092213Y-275220D01*
X11224164Y-235193D01*
X11301293Y-227596D01*
X11378420Y-220000D01*
X11481580Y-220000D01*
X11558707Y-227596D01*
X11558707Y-227596D01*
G37*
G36*
X16638707Y-227596D02*
X16715836Y-235193D01*
X16847787Y-275220D01*
X16913763Y-295233D01*
X17096172Y-392733D01*
X17256054Y-523946D01*
X17387267Y-683828D01*
X17484767Y-866237D01*
X17484767Y-866238D01*
X17544807Y-1064164D01*
X17565080Y-1270000D01*
X17544807Y-1475836D01*
X17504780Y-1607787D01*
X17484767Y-1673763D01*
X17387267Y-1856172D01*
X17256054Y-2016054D01*
X17096172Y-2147267D01*
X16913763Y-2244767D01*
X16847787Y-2264780D01*
X16715836Y-2304807D01*
X16638707Y-2312404D01*
X16561580Y-2320000D01*
X16458420Y-2320000D01*
X16381293Y-2312404D01*
X16304164Y-2304807D01*
X16172213Y-2264780D01*
X16106237Y-2244767D01*
X15923828Y-2147267D01*
X15763946Y-2016054D01*
X15632733Y-1856172D01*
X15535233Y-1673763D01*
X15515220Y-1607787D01*
X15475193Y-1475836D01*
X15454920Y-1270000D01*
X15475193Y-1064164D01*
X15535233Y-866238D01*
X15535233Y-866237D01*
X15632733Y-683828D01*
X15763946Y-523946D01*
X15923828Y-392733D01*
X16106237Y-295233D01*
X16172213Y-275220D01*
X16304164Y-235193D01*
X16381293Y-227596D01*
X16458420Y-220000D01*
X16561580Y-220000D01*
X16638707Y-227596D01*
X16638707Y-227596D01*
G37*
G36*
X19178707Y-227596D02*
X19255836Y-235193D01*
X19387787Y-275220D01*
X19453763Y-295233D01*
X19636172Y-392733D01*
X19796054Y-523946D01*
X19927267Y-683828D01*
X20024767Y-866237D01*
X20024767Y-866238D01*
X20084807Y-1064164D01*
X20105080Y-1270000D01*
X20084807Y-1475836D01*
X20044780Y-1607787D01*
X20024767Y-1673763D01*
X19927267Y-1856172D01*
X19796054Y-2016054D01*
X19636172Y-2147267D01*
X19453763Y-2244767D01*
X19387787Y-2264780D01*
X19255836Y-2304807D01*
X19178707Y-2312404D01*
X19101580Y-2320000D01*
X18998420Y-2320000D01*
X18921293Y-2312404D01*
X18844164Y-2304807D01*
X18712213Y-2264780D01*
X18646237Y-2244767D01*
X18463828Y-2147267D01*
X18303946Y-2016054D01*
X18172733Y-1856172D01*
X18075233Y-1673763D01*
X18055220Y-1607787D01*
X18015193Y-1475836D01*
X17994920Y-1270000D01*
X18015193Y-1064164D01*
X18075233Y-866238D01*
X18075233Y-866237D01*
X18172733Y-683828D01*
X18303946Y-523946D01*
X18463828Y-392733D01*
X18646237Y-295233D01*
X18712213Y-275220D01*
X18844164Y-235193D01*
X18921293Y-227596D01*
X18998420Y-220000D01*
X19101580Y-220000D01*
X19178707Y-227596D01*
X19178707Y-227596D01*
G37*
G36*
X21718707Y-227596D02*
X21795836Y-235193D01*
X21927787Y-275220D01*
X21993763Y-295233D01*
X22176172Y-392733D01*
X22336054Y-523946D01*
X22467267Y-683828D01*
X22564767Y-866237D01*
X22564767Y-866238D01*
X22624807Y-1064164D01*
X22645080Y-1270000D01*
X22624807Y-1475836D01*
X22584780Y-1607787D01*
X22564767Y-1673763D01*
X22467267Y-1856172D01*
X22336054Y-2016054D01*
X22176172Y-2147267D01*
X21993763Y-2244767D01*
X21927787Y-2264780D01*
X21795836Y-2304807D01*
X21718707Y-2312404D01*
X21641580Y-2320000D01*
X21538420Y-2320000D01*
X21461293Y-2312404D01*
X21384164Y-2304807D01*
X21252213Y-2264780D01*
X21186237Y-2244767D01*
X21003828Y-2147267D01*
X20843946Y-2016054D01*
X20712733Y-1856172D01*
X20615233Y-1673763D01*
X20595220Y-1607787D01*
X20555193Y-1475836D01*
X20534920Y-1270000D01*
X20555193Y-1064164D01*
X20615233Y-866238D01*
X20615233Y-866237D01*
X20712733Y-683828D01*
X20843946Y-523946D01*
X21003828Y-392733D01*
X21186237Y-295233D01*
X21252213Y-275220D01*
X21384164Y-235193D01*
X21461293Y-227596D01*
X21538420Y-220000D01*
X21641580Y-220000D01*
X21718707Y-227596D01*
X21718707Y-227596D01*
G37*
G36*
X24258707Y-227596D02*
X24335836Y-235193D01*
X24467787Y-275220D01*
X24533763Y-295233D01*
X24716172Y-392733D01*
X24876054Y-523946D01*
X25007267Y-683828D01*
X25104767Y-866237D01*
X25104767Y-866238D01*
X25164807Y-1064164D01*
X25185080Y-1270000D01*
X25164807Y-1475836D01*
X25124780Y-1607787D01*
X25104767Y-1673763D01*
X25007267Y-1856172D01*
X24876054Y-2016054D01*
X24716172Y-2147267D01*
X24533763Y-2244767D01*
X24467787Y-2264780D01*
X24335836Y-2304807D01*
X24258707Y-2312404D01*
X24181580Y-2320000D01*
X24078420Y-2320000D01*
X24001293Y-2312404D01*
X23924164Y-2304807D01*
X23792213Y-2264780D01*
X23726237Y-2244767D01*
X23543828Y-2147267D01*
X23383946Y-2016054D01*
X23252733Y-1856172D01*
X23155233Y-1673763D01*
X23135220Y-1607787D01*
X23095193Y-1475836D01*
X23074920Y-1270000D01*
X23095193Y-1064164D01*
X23155233Y-866238D01*
X23155233Y-866237D01*
X23252733Y-683828D01*
X23383946Y-523946D01*
X23543828Y-392733D01*
X23726237Y-295233D01*
X23792213Y-275220D01*
X23924164Y-235193D01*
X24001293Y-227596D01*
X24078420Y-220000D01*
X24181580Y-220000D01*
X24258707Y-227596D01*
X24258707Y-227596D01*
G37*
G36*
X26798707Y-227596D02*
X26875836Y-235193D01*
X27007787Y-275220D01*
X27073763Y-295233D01*
X27256172Y-392733D01*
X27416054Y-523946D01*
X27547267Y-683828D01*
X27644767Y-866237D01*
X27644767Y-866238D01*
X27704807Y-1064164D01*
X27725080Y-1270000D01*
X27704807Y-1475836D01*
X27664780Y-1607787D01*
X27644767Y-1673763D01*
X27547267Y-1856172D01*
X27416054Y-2016054D01*
X27256172Y-2147267D01*
X27073763Y-2244767D01*
X27007787Y-2264780D01*
X26875836Y-2304807D01*
X26798707Y-2312404D01*
X26721580Y-2320000D01*
X26618420Y-2320000D01*
X26541293Y-2312404D01*
X26464164Y-2304807D01*
X26332213Y-2264780D01*
X26266237Y-2244767D01*
X26083828Y-2147267D01*
X25923946Y-2016054D01*
X25792733Y-1856172D01*
X25695233Y-1673763D01*
X25675220Y-1607787D01*
X25635193Y-1475836D01*
X25614920Y-1270000D01*
X25635193Y-1064164D01*
X25695233Y-866238D01*
X25695233Y-866237D01*
X25792733Y-683828D01*
X25923946Y-523946D01*
X26083828Y-392733D01*
X26266237Y-295233D01*
X26332213Y-275220D01*
X26464164Y-235193D01*
X26541293Y-227596D01*
X26618420Y-220000D01*
X26721580Y-220000D01*
X26798707Y-227596D01*
X26798707Y-227596D01*
G37*
G36*
X29338707Y-227596D02*
X29415836Y-235193D01*
X29547787Y-275220D01*
X29613763Y-295233D01*
X29796172Y-392733D01*
X29956054Y-523946D01*
X30087267Y-683828D01*
X30184767Y-866237D01*
X30184767Y-866238D01*
X30244807Y-1064164D01*
X30265080Y-1270000D01*
X30244807Y-1475836D01*
X30204780Y-1607787D01*
X30184767Y-1673763D01*
X30087267Y-1856172D01*
X29956054Y-2016054D01*
X29796172Y-2147267D01*
X29613763Y-2244767D01*
X29547787Y-2264780D01*
X29415836Y-2304807D01*
X29338707Y-2312404D01*
X29261580Y-2320000D01*
X29158420Y-2320000D01*
X29081293Y-2312404D01*
X29004164Y-2304807D01*
X28872213Y-2264780D01*
X28806237Y-2244767D01*
X28623828Y-2147267D01*
X28463946Y-2016054D01*
X28332733Y-1856172D01*
X28235233Y-1673763D01*
X28215220Y-1607787D01*
X28175193Y-1475836D01*
X28154920Y-1270000D01*
X28175193Y-1064164D01*
X28235233Y-866238D01*
X28235233Y-866237D01*
X28332733Y-683828D01*
X28463946Y-523946D01*
X28623828Y-392733D01*
X28806237Y-295233D01*
X28872213Y-275220D01*
X29004164Y-235193D01*
X29081293Y-227596D01*
X29158420Y-220000D01*
X29261580Y-220000D01*
X29338707Y-227596D01*
X29338707Y-227596D01*
G37*
G36*
X31878707Y-227596D02*
X31955836Y-235193D01*
X32087787Y-275220D01*
X32153763Y-295233D01*
X32336172Y-392733D01*
X32496054Y-523946D01*
X32627267Y-683828D01*
X32724767Y-866237D01*
X32724767Y-866238D01*
X32784807Y-1064164D01*
X32805080Y-1270000D01*
X32784807Y-1475836D01*
X32744780Y-1607787D01*
X32724767Y-1673763D01*
X32627267Y-1856172D01*
X32496054Y-2016054D01*
X32336172Y-2147267D01*
X32153763Y-2244767D01*
X32087787Y-2264780D01*
X31955836Y-2304807D01*
X31878707Y-2312404D01*
X31801580Y-2320000D01*
X31698420Y-2320000D01*
X31621293Y-2312404D01*
X31544164Y-2304807D01*
X31412213Y-2264780D01*
X31346237Y-2244767D01*
X31163828Y-2147267D01*
X31003946Y-2016054D01*
X30872733Y-1856172D01*
X30775233Y-1673763D01*
X30755220Y-1607787D01*
X30715193Y-1475836D01*
X30694920Y-1270000D01*
X30715193Y-1064164D01*
X30775233Y-866238D01*
X30775233Y-866237D01*
X30872733Y-683828D01*
X31003946Y-523946D01*
X31163828Y-392733D01*
X31346237Y-295233D01*
X31412213Y-275220D01*
X31544164Y-235193D01*
X31621293Y-227596D01*
X31698420Y-220000D01*
X31801580Y-220000D01*
X31878707Y-227596D01*
X31878707Y-227596D01*
G37*
G36*
X34418707Y-227596D02*
X34495836Y-235193D01*
X34627787Y-275220D01*
X34693763Y-295233D01*
X34876172Y-392733D01*
X35036054Y-523946D01*
X35167267Y-683828D01*
X35264767Y-866237D01*
X35264767Y-866238D01*
X35324807Y-1064164D01*
X35345080Y-1270000D01*
X35324807Y-1475836D01*
X35284780Y-1607787D01*
X35264767Y-1673763D01*
X35167267Y-1856172D01*
X35036054Y-2016054D01*
X34876172Y-2147267D01*
X34693763Y-2244767D01*
X34627787Y-2264780D01*
X34495836Y-2304807D01*
X34418707Y-2312404D01*
X34341580Y-2320000D01*
X34238420Y-2320000D01*
X34161293Y-2312404D01*
X34084164Y-2304807D01*
X33952213Y-2264780D01*
X33886237Y-2244767D01*
X33703828Y-2147267D01*
X33543946Y-2016054D01*
X33412733Y-1856172D01*
X33315233Y-1673763D01*
X33295220Y-1607787D01*
X33255193Y-1475836D01*
X33234920Y-1270000D01*
X33255193Y-1064164D01*
X33315233Y-866238D01*
X33315233Y-866237D01*
X33412733Y-683828D01*
X33543946Y-523946D01*
X33703828Y-392733D01*
X33886237Y-295233D01*
X33952213Y-275220D01*
X34084164Y-235193D01*
X34161293Y-227596D01*
X34238420Y-220000D01*
X34341580Y-220000D01*
X34418707Y-227596D01*
X34418707Y-227596D01*
G37*
G36*
X14098707Y-227596D02*
X14175836Y-235193D01*
X14307787Y-275220D01*
X14373763Y-295233D01*
X14556172Y-392733D01*
X14716054Y-523946D01*
X14847267Y-683828D01*
X14944767Y-866237D01*
X14944767Y-866238D01*
X15004807Y-1064164D01*
X15025080Y-1270000D01*
X15004807Y-1475836D01*
X14964780Y-1607787D01*
X14944767Y-1673763D01*
X14847267Y-1856172D01*
X14716054Y-2016054D01*
X14556172Y-2147267D01*
X14373763Y-2244767D01*
X14307787Y-2264780D01*
X14175836Y-2304807D01*
X14098707Y-2312404D01*
X14021580Y-2320000D01*
X13918420Y-2320000D01*
X13841293Y-2312404D01*
X13764164Y-2304807D01*
X13632213Y-2264780D01*
X13566237Y-2244767D01*
X13383828Y-2147267D01*
X13223946Y-2016054D01*
X13092733Y-1856172D01*
X12995233Y-1673763D01*
X12975220Y-1607787D01*
X12935193Y-1475836D01*
X12914920Y-1270000D01*
X12935193Y-1064164D01*
X12995233Y-866238D01*
X12995233Y-866237D01*
X13092733Y-683828D01*
X13223946Y-523946D01*
X13383828Y-392733D01*
X13566237Y-295233D01*
X13632213Y-275220D01*
X13764164Y-235193D01*
X13841293Y-227596D01*
X13918420Y-220000D01*
X14021580Y-220000D01*
X14098707Y-227596D01*
X14098707Y-227596D01*
G37*
G36*
X36958707Y-227596D02*
X37035836Y-235193D01*
X37167787Y-275220D01*
X37233763Y-295233D01*
X37416172Y-392733D01*
X37576054Y-523946D01*
X37707267Y-683828D01*
X37804767Y-866237D01*
X37804767Y-866238D01*
X37864807Y-1064164D01*
X37885080Y-1270000D01*
X37864807Y-1475836D01*
X37824780Y-1607787D01*
X37804767Y-1673763D01*
X37707267Y-1856172D01*
X37576054Y-2016054D01*
X37416172Y-2147267D01*
X37233763Y-2244767D01*
X37167787Y-2264780D01*
X37035836Y-2304807D01*
X36958707Y-2312404D01*
X36881580Y-2320000D01*
X36778420Y-2320000D01*
X36701293Y-2312404D01*
X36624164Y-2304807D01*
X36492213Y-2264780D01*
X36426237Y-2244767D01*
X36243828Y-2147267D01*
X36083946Y-2016054D01*
X35952733Y-1856172D01*
X35855233Y-1673763D01*
X35835220Y-1607787D01*
X35795193Y-1475836D01*
X35774920Y-1270000D01*
X35795193Y-1064164D01*
X35855233Y-866238D01*
X35855233Y-866237D01*
X35952733Y-683828D01*
X36083946Y-523946D01*
X36243828Y-392733D01*
X36426237Y-295233D01*
X36492213Y-275220D01*
X36624164Y-235193D01*
X36701293Y-227596D01*
X36778420Y-220000D01*
X36881580Y-220000D01*
X36958707Y-227596D01*
X36958707Y-227596D01*
G37*
M02*
