M48
;DRILL file {KiCad (5.0.0)} date 11/21/18 21:11:51
;FORMAT={3:3/ absolute / metric / suppress leading zeros}
FMAT,2
METRIC,TZ
T1C0.300
T2C0.500
T3C0.600
T4C0.850
T5C1.000
%
G90
G05
M71
T1
X6350Y-5271
X8954Y-17526
X9906Y-17653
X10096Y-10351
X10731Y-17336
X11557Y-11874
X12065Y-11240
X13970Y-12891
X13970Y-14161
X13970Y-15430
X18225Y-17399
X19368Y-15430
X19431Y-14161
X20066Y-6096
X21209Y-16129
X21463Y-13055
X21908Y-16955
X22951Y-16998
X23559Y-6414
X23622Y-7366
X25464Y-12129
X26098Y-6160
X26607Y-20300
X27813Y-3937
X27876Y-21781
X29083Y-9017
X29464Y-8255
X30394Y-8526
X31108Y-7951
X31245Y-19007
X31938Y-8126
X32195Y-5568
X32229Y-7394
X32893Y-4968
X32893Y-6024
X33743Y-20994
X33909Y-21781
X35179Y-17456
X35941Y-18034
X36830Y-17653
X37211Y-6223
X38037Y-17155
X38037Y-17907
X38798Y-17082
X38989Y-8001
X39561Y-9129
X40067Y-21968
X40894Y-21971
X43444Y-8887
X44387Y-18733
X44750Y-6239
X45633Y-8064
X45784Y-6477
X46482Y-19304
X46753Y-4957
X47117Y-17272
X49276Y-12510
X49784Y-5994
X50102Y-9144
X50355Y-10287
X52451Y-9081
X52515Y-16828
X52705Y-12129
X52959Y-18415
X54264Y-6814
X54282Y-4127
X57404Y-19812
X58166Y-21844
X61405Y-15367
X62167Y-13208
X65049Y-17590
T2
X43371Y-7938
T4
X62038Y-5755
X62038Y-10755
T5
X13970Y-6350
X13970Y-8890
X16510Y-6350
X16510Y-8890
X6350Y-8890
X6350Y-11430
X6350Y-13970
X6350Y-16510
X6350Y-19050
X1270Y-1270
X3810Y-1270
X6350Y-1270
X8890Y-1270
X11430Y-1270
X13970Y-1270
X16510Y-1270
X19050Y-1270
X21590Y-1270
X24130Y-1270
X26670Y-1270
X29210Y-1270
X31750Y-1270
X34290Y-1270
X36830Y-1270
X39370Y-1270
X41910Y-1270
X44450Y-1270
X46990Y-1270
X49530Y-1270
X52070Y-1270
X54610Y-1270
X57150Y-1270
X59690Y-1270
X62230Y-1270
X64770Y-1270
X1270Y-24130
X3810Y-24130
X6350Y-24130
X8890Y-24130
X11430Y-24130
X13970Y-24130
X16510Y-24130
X19050Y-24130
X21590Y-24130
X24130Y-24130
X26670Y-24130
X29210Y-24130
X31750Y-24130
X34290Y-24130
X36830Y-24130
X39370Y-24130
X41910Y-24130
X44450Y-24130
X46990Y-24130
X49530Y-24130
X52070Y-24130
X54610Y-24130
X57150Y-24130
X59690Y-24130
X62230Y-24130
X64770Y-24130
T3
X64388Y-4755G85X65087Y-4755
G05
X65087Y-11755G85X64388Y-11755
G05
T0
M30
