G04 #@! TF.GenerationSoftware,KiCad,Pcbnew,(5.0.0)*
G04 #@! TF.CreationDate,2018-10-22T10:35:43+02:00*
G04 #@! TF.ProjectId,mibo100_imxrt,6D69626F3130305F696D7872742E6B69,rev?*
G04 #@! TF.SameCoordinates,PX695f190PY429d390*
G04 #@! TF.FileFunction,Legend,Bot*
G04 #@! TF.FilePolarity,Positive*
%FSLAX46Y46*%
G04 Gerber Fmt 4.6, Leading zero omitted, Abs format (unit mm)*
G04 Created by KiCad (PCBNEW (5.0.0)) date 10/22/18 10:35:43*
%MOMM*%
%LPD*%
G01*
G04 APERTURE LIST*
%ADD10C,0.250000*%
%ADD11C,0.120000*%
G04 APERTURE END LIST*
D10*
X26819712Y-10000212D02*
X26962569Y-9952593D01*
X27200664Y-9952593D01*
X27295902Y-10000212D01*
X27343521Y-10047831D01*
X27391140Y-10143069D01*
X27391140Y-10238307D01*
X27343521Y-10333545D01*
X27295902Y-10381164D01*
X27200664Y-10428783D01*
X27010188Y-10476402D01*
X26914950Y-10524021D01*
X26867331Y-10571640D01*
X26819712Y-10666878D01*
X26819712Y-10762116D01*
X26867331Y-10857354D01*
X26914950Y-10904974D01*
X27010188Y-10952593D01*
X27248283Y-10952593D01*
X27391140Y-10904974D01*
X27724474Y-9952593D02*
X28248283Y-10619259D01*
X27724474Y-10619259D02*
X28248283Y-9952593D01*
X28533997Y-9952593D02*
X29057807Y-10619259D01*
X28533997Y-10619259D02*
X29057807Y-9952593D01*
X30200664Y-10476402D02*
X30962569Y-10476402D01*
X30962569Y-10190688D02*
X30200664Y-10190688D01*
X32724474Y-10904974D02*
X32629236Y-10952593D01*
X32486378Y-10952593D01*
X32343521Y-10904974D01*
X32248283Y-10809735D01*
X32200664Y-10714497D01*
X32153045Y-10524021D01*
X32153045Y-10381164D01*
X32200664Y-10190688D01*
X32248283Y-10095450D01*
X32343521Y-10000212D01*
X32486378Y-9952593D01*
X32581616Y-9952593D01*
X32724474Y-10000212D01*
X32772093Y-10047831D01*
X32772093Y-10381164D01*
X32581616Y-10381164D01*
X33200664Y-9952593D02*
X33200664Y-10952593D01*
X33581616Y-10952593D01*
X33676855Y-10904974D01*
X33724474Y-10857354D01*
X33772093Y-10762116D01*
X33772093Y-10619259D01*
X33724474Y-10524021D01*
X33676855Y-10476402D01*
X33581616Y-10428783D01*
X33200664Y-10428783D01*
X34200664Y-9952593D02*
X34200664Y-10952593D01*
X34867331Y-10952593D02*
X35057807Y-10952593D01*
X35153045Y-10904974D01*
X35248283Y-10809735D01*
X35295902Y-10619259D01*
X35295902Y-10285926D01*
X35248283Y-10095450D01*
X35153045Y-10000212D01*
X35057807Y-9952593D01*
X34867331Y-9952593D01*
X34772093Y-10000212D01*
X34676855Y-10095450D01*
X34629236Y-10285926D01*
X34629236Y-10619259D01*
X34676855Y-10809735D01*
X34772093Y-10904974D01*
X34867331Y-10952593D01*
X35486378Y-9857354D02*
X36248283Y-9857354D01*
X36438759Y-10000212D02*
X36581616Y-9952593D01*
X36819712Y-9952593D01*
X36914950Y-10000212D01*
X36962569Y-10047831D01*
X37010188Y-10143069D01*
X37010188Y-10238307D01*
X36962569Y-10333545D01*
X36914950Y-10381164D01*
X36819712Y-10428783D01*
X36629236Y-10476402D01*
X36533997Y-10524021D01*
X36486378Y-10571640D01*
X36438759Y-10666878D01*
X36438759Y-10762116D01*
X36486378Y-10857354D01*
X36533997Y-10904974D01*
X36629236Y-10952593D01*
X36867331Y-10952593D01*
X37010188Y-10904974D01*
X37438759Y-9952593D02*
X37438759Y-10952593D01*
X37676855Y-10952593D01*
X37819712Y-10904974D01*
X37914950Y-10809735D01*
X37962569Y-10714497D01*
X38010188Y-10524021D01*
X38010188Y-10381164D01*
X37962569Y-10190688D01*
X37914950Y-10095450D01*
X37819712Y-10000212D01*
X37676855Y-9952593D01*
X37438759Y-9952593D01*
X38200664Y-9857354D02*
X38962569Y-9857354D01*
X39533997Y-10476402D02*
X39676855Y-10428783D01*
X39724474Y-10381164D01*
X39772093Y-10285926D01*
X39772093Y-10143069D01*
X39724474Y-10047831D01*
X39676855Y-10000212D01*
X39581616Y-9952593D01*
X39200664Y-9952593D01*
X39200664Y-10952593D01*
X39533997Y-10952593D01*
X39629236Y-10904974D01*
X39676855Y-10857354D01*
X39724474Y-10762116D01*
X39724474Y-10666878D01*
X39676855Y-10571640D01*
X39629236Y-10524021D01*
X39533997Y-10476402D01*
X39200664Y-10476402D01*
X40724474Y-9952593D02*
X40153045Y-9952593D01*
X40438759Y-9952593D02*
X40438759Y-10952593D01*
X40343521Y-10809735D01*
X40248283Y-10714497D01*
X40153045Y-10666878D01*
X40914950Y-9857354D02*
X41676855Y-9857354D01*
X41819712Y-9952593D02*
X42343521Y-10619259D01*
X41819712Y-10619259D02*
X42343521Y-9952593D01*
X42629236Y-9952593D02*
X43153045Y-10619259D01*
X42629236Y-10619259D02*
X43153045Y-9952593D01*
X27137164Y-12254403D02*
X27280021Y-12206784D01*
X27327640Y-12159165D01*
X27375259Y-12063927D01*
X27375259Y-11921070D01*
X27327640Y-11825832D01*
X27280021Y-11778213D01*
X27184783Y-11730594D01*
X26803831Y-11730594D01*
X26803831Y-12730594D01*
X27137164Y-12730594D01*
X27232402Y-12682975D01*
X27280021Y-12635355D01*
X27327640Y-12540117D01*
X27327640Y-12444879D01*
X27280021Y-12349641D01*
X27232402Y-12302022D01*
X27137164Y-12254403D01*
X26803831Y-12254403D01*
X27708593Y-11730594D02*
X28232402Y-12397260D01*
X27708593Y-12397260D02*
X28232402Y-11730594D01*
X28518116Y-11730594D02*
X29041926Y-12397260D01*
X28518116Y-12397260D02*
X29041926Y-11730594D01*
X30184783Y-12254403D02*
X30946688Y-12254403D01*
X30946688Y-11968689D02*
X30184783Y-11968689D01*
X32708593Y-12682975D02*
X32613355Y-12730594D01*
X32470497Y-12730594D01*
X32327640Y-12682975D01*
X32232402Y-12587736D01*
X32184783Y-12492498D01*
X32137164Y-12302022D01*
X32137164Y-12159165D01*
X32184783Y-11968689D01*
X32232402Y-11873451D01*
X32327640Y-11778213D01*
X32470497Y-11730594D01*
X32565736Y-11730594D01*
X32708593Y-11778213D01*
X32756212Y-11825832D01*
X32756212Y-12159165D01*
X32565736Y-12159165D01*
X33184783Y-11730594D02*
X33184783Y-12730594D01*
X33565736Y-12730594D01*
X33660974Y-12682975D01*
X33708593Y-12635355D01*
X33756212Y-12540117D01*
X33756212Y-12397260D01*
X33708593Y-12302022D01*
X33660974Y-12254403D01*
X33565736Y-12206784D01*
X33184783Y-12206784D01*
X34184783Y-11730594D02*
X34184783Y-12730594D01*
X34851450Y-12730594D02*
X35041926Y-12730594D01*
X35137164Y-12682975D01*
X35232402Y-12587736D01*
X35280021Y-12397260D01*
X35280021Y-12063927D01*
X35232402Y-11873451D01*
X35137164Y-11778213D01*
X35041926Y-11730594D01*
X34851450Y-11730594D01*
X34756212Y-11778213D01*
X34660974Y-11873451D01*
X34613355Y-12063927D01*
X34613355Y-12397260D01*
X34660974Y-12587736D01*
X34756212Y-12682975D01*
X34851450Y-12730594D01*
X35470497Y-11635355D02*
X36232402Y-11635355D01*
X36422878Y-12016308D02*
X36899069Y-12016308D01*
X36327640Y-11730594D02*
X36660974Y-12730594D01*
X36994307Y-11730594D01*
X37327640Y-11730594D02*
X37327640Y-12730594D01*
X37565736Y-12730594D01*
X37708593Y-12682975D01*
X37803831Y-12587736D01*
X37851450Y-12492498D01*
X37899069Y-12302022D01*
X37899069Y-12159165D01*
X37851450Y-11968689D01*
X37803831Y-11873451D01*
X37708593Y-11778213D01*
X37565736Y-11730594D01*
X37327640Y-11730594D01*
X38089545Y-11635355D02*
X38851450Y-11635355D01*
X39422878Y-12254403D02*
X39565736Y-12206784D01*
X39613355Y-12159165D01*
X39660974Y-12063927D01*
X39660974Y-11921070D01*
X39613355Y-11825832D01*
X39565736Y-11778213D01*
X39470497Y-11730594D01*
X39089545Y-11730594D01*
X39089545Y-12730594D01*
X39422878Y-12730594D01*
X39518116Y-12682975D01*
X39565736Y-12635355D01*
X39613355Y-12540117D01*
X39613355Y-12444879D01*
X39565736Y-12349641D01*
X39518116Y-12302022D01*
X39422878Y-12254403D01*
X39089545Y-12254403D01*
X40613355Y-11730594D02*
X40041926Y-11730594D01*
X40327640Y-11730594D02*
X40327640Y-12730594D01*
X40232402Y-12587736D01*
X40137164Y-12492498D01*
X40041926Y-12444879D01*
X40803831Y-11635355D02*
X41565736Y-11635355D01*
X41708593Y-11730594D02*
X42232402Y-12397260D01*
X41708593Y-12397260D02*
X42232402Y-11730594D01*
X42518116Y-11730594D02*
X43041926Y-12397260D01*
X42518116Y-12397260D02*
X43041926Y-11730594D01*
X26883212Y-13794307D02*
X27359402Y-13794307D01*
X26787974Y-13508593D02*
X27121307Y-14508593D01*
X27454640Y-13508593D01*
X27692736Y-13508593D02*
X28216545Y-14175259D01*
X27692736Y-14175259D02*
X28216545Y-13508593D01*
X28502259Y-13508593D02*
X29026069Y-14175259D01*
X28502259Y-14175259D02*
X29026069Y-13508593D01*
X30168926Y-14032402D02*
X30930831Y-14032402D01*
X30930831Y-13746688D02*
X30168926Y-13746688D01*
X32692736Y-14460974D02*
X32597497Y-14508593D01*
X32454640Y-14508593D01*
X32311783Y-14460974D01*
X32216545Y-14365735D01*
X32168926Y-14270497D01*
X32121307Y-14080021D01*
X32121307Y-13937164D01*
X32168926Y-13746688D01*
X32216545Y-13651450D01*
X32311783Y-13556212D01*
X32454640Y-13508593D01*
X32549878Y-13508593D01*
X32692736Y-13556212D01*
X32740355Y-13603831D01*
X32740355Y-13937164D01*
X32549878Y-13937164D01*
X33168926Y-13508593D02*
X33168926Y-14508593D01*
X33549878Y-14508593D01*
X33645116Y-14460974D01*
X33692736Y-14413354D01*
X33740355Y-14318116D01*
X33740355Y-14175259D01*
X33692736Y-14080021D01*
X33645116Y-14032402D01*
X33549878Y-13984783D01*
X33168926Y-13984783D01*
X34168926Y-13508593D02*
X34168926Y-14508593D01*
X34835593Y-14508593D02*
X35026069Y-14508593D01*
X35121307Y-14460974D01*
X35216545Y-14365735D01*
X35264164Y-14175259D01*
X35264164Y-13841926D01*
X35216545Y-13651450D01*
X35121307Y-13556212D01*
X35026069Y-13508593D01*
X34835593Y-13508593D01*
X34740355Y-13556212D01*
X34645116Y-13651450D01*
X34597497Y-13841926D01*
X34597497Y-14175259D01*
X34645116Y-14365735D01*
X34740355Y-14460974D01*
X34835593Y-14508593D01*
X35454640Y-13413354D02*
X36216545Y-13413354D01*
X36407021Y-13794307D02*
X36883212Y-13794307D01*
X36311783Y-13508593D02*
X36645116Y-14508593D01*
X36978450Y-13508593D01*
X37311783Y-13508593D02*
X37311783Y-14508593D01*
X37549878Y-14508593D01*
X37692736Y-14460974D01*
X37787974Y-14365735D01*
X37835593Y-14270497D01*
X37883212Y-14080021D01*
X37883212Y-13937164D01*
X37835593Y-13746688D01*
X37787974Y-13651450D01*
X37692736Y-13556212D01*
X37549878Y-13508593D01*
X37311783Y-13508593D01*
X38073688Y-13413354D02*
X38835593Y-13413354D01*
X39407021Y-14032402D02*
X39549878Y-13984783D01*
X39597497Y-13937164D01*
X39645116Y-13841926D01*
X39645116Y-13699069D01*
X39597497Y-13603831D01*
X39549878Y-13556212D01*
X39454640Y-13508593D01*
X39073688Y-13508593D01*
X39073688Y-14508593D01*
X39407021Y-14508593D01*
X39502259Y-14460974D01*
X39549878Y-14413354D01*
X39597497Y-14318116D01*
X39597497Y-14222878D01*
X39549878Y-14127640D01*
X39502259Y-14080021D01*
X39407021Y-14032402D01*
X39073688Y-14032402D01*
X40264164Y-14508593D02*
X40359402Y-14508593D01*
X40454640Y-14460974D01*
X40502259Y-14413354D01*
X40549878Y-14318116D01*
X40597497Y-14127640D01*
X40597497Y-13889545D01*
X40549878Y-13699069D01*
X40502259Y-13603831D01*
X40454640Y-13556212D01*
X40359402Y-13508593D01*
X40264164Y-13508593D01*
X40168926Y-13556212D01*
X40121307Y-13603831D01*
X40073688Y-13699069D01*
X40026069Y-13889545D01*
X40026069Y-14127640D01*
X40073688Y-14318116D01*
X40121307Y-14413354D01*
X40168926Y-14460974D01*
X40264164Y-14508593D01*
X40787974Y-13413354D02*
X41549878Y-13413354D01*
X41692736Y-13508593D02*
X42216545Y-14175259D01*
X41692736Y-14175259D02*
X42216545Y-13508593D01*
X42502259Y-13508593D02*
X43026069Y-14175259D01*
X42502259Y-14175259D02*
X43026069Y-13508593D01*
X26867331Y-15810403D02*
X27200664Y-15810403D01*
X27343521Y-15286594D02*
X26867331Y-15286594D01*
X26867331Y-16286594D01*
X27343521Y-16286594D01*
X27676855Y-15286594D02*
X28200664Y-15953260D01*
X27676855Y-15953260D02*
X28200664Y-15286594D01*
X28486378Y-15286594D02*
X29010188Y-15953260D01*
X28486378Y-15953260D02*
X29010188Y-15286594D01*
X30153045Y-15810403D02*
X30914950Y-15810403D01*
X30914950Y-15524689D02*
X30153045Y-15524689D01*
X32676855Y-16238975D02*
X32581616Y-16286594D01*
X32438759Y-16286594D01*
X32295902Y-16238975D01*
X32200664Y-16143736D01*
X32153045Y-16048498D01*
X32105426Y-15858022D01*
X32105426Y-15715165D01*
X32153045Y-15524689D01*
X32200664Y-15429451D01*
X32295902Y-15334213D01*
X32438759Y-15286594D01*
X32533997Y-15286594D01*
X32676855Y-15334213D01*
X32724474Y-15381832D01*
X32724474Y-15715165D01*
X32533997Y-15715165D01*
X33153045Y-15286594D02*
X33153045Y-16286594D01*
X33533997Y-16286594D01*
X33629236Y-16238975D01*
X33676855Y-16191355D01*
X33724474Y-16096117D01*
X33724474Y-15953260D01*
X33676855Y-15858022D01*
X33629236Y-15810403D01*
X33533997Y-15762784D01*
X33153045Y-15762784D01*
X34153045Y-15286594D02*
X34153045Y-16286594D01*
X34819712Y-16286594D02*
X35010188Y-16286594D01*
X35105426Y-16238975D01*
X35200664Y-16143736D01*
X35248283Y-15953260D01*
X35248283Y-15619927D01*
X35200664Y-15429451D01*
X35105426Y-15334213D01*
X35010188Y-15286594D01*
X34819712Y-15286594D01*
X34724474Y-15334213D01*
X34629236Y-15429451D01*
X34581616Y-15619927D01*
X34581616Y-15953260D01*
X34629236Y-16143736D01*
X34724474Y-16238975D01*
X34819712Y-16286594D01*
X35438759Y-15191355D02*
X36200664Y-15191355D01*
X36438759Y-15810403D02*
X36772093Y-15810403D01*
X36914950Y-15286594D02*
X36438759Y-15286594D01*
X36438759Y-16286594D01*
X36914950Y-16286594D01*
X37343521Y-15286594D02*
X37343521Y-16286594D01*
X37676855Y-15572308D01*
X38010188Y-16286594D01*
X38010188Y-15286594D01*
X39057807Y-15381832D02*
X39010188Y-15334213D01*
X38867331Y-15286594D01*
X38772093Y-15286594D01*
X38629236Y-15334213D01*
X38533997Y-15429451D01*
X38486378Y-15524689D01*
X38438759Y-15715165D01*
X38438759Y-15858022D01*
X38486378Y-16048498D01*
X38533997Y-16143736D01*
X38629236Y-16238975D01*
X38772093Y-16286594D01*
X38867331Y-16286594D01*
X39010188Y-16238975D01*
X39057807Y-16191355D01*
X39248283Y-15191355D02*
X40010188Y-15191355D01*
X40153045Y-15286594D02*
X40676855Y-15953260D01*
X40153045Y-15953260D02*
X40676855Y-15286594D01*
X40962569Y-15286594D02*
X41486378Y-15953260D01*
X40962569Y-15953260D02*
X41486378Y-15286594D01*
D11*
G04 #@! TO.C,J2*
X-60000Y60000D02*
X-60000Y-1270000D01*
X1270000Y60000D02*
X-60000Y60000D01*
X2540000Y60000D02*
X2540000Y-2600000D01*
X2540000Y-2600000D02*
X66100000Y-2600000D01*
X2540000Y60000D02*
X66100000Y60000D01*
X66100000Y60000D02*
X66100000Y-2600000D01*
G04 #@! TO.C,J1*
X66100000Y-22800000D02*
X66100000Y-25460000D01*
X2540000Y-22800000D02*
X66100000Y-22800000D01*
X2540000Y-25460000D02*
X66100000Y-25460000D01*
X2540000Y-22800000D02*
X2540000Y-25460000D01*
X1270000Y-22800000D02*
X-60000Y-22800000D01*
X-60000Y-22800000D02*
X-60000Y-24130000D01*
G04 #@! TD*
M02*
