G04 #@! TF.GenerationSoftware,KiCad,Pcbnew,(5.0.0)*
G04 #@! TF.CreationDate,2018-10-21T19:05:11+02:00*
G04 #@! TF.ProjectId,mibo20_stm32,6D69626F32305F73746D33322E6B6963,V1.0*
G04 #@! TF.SameCoordinates,PX8198450PY53920b0*
G04 #@! TF.FileFunction,Copper,L1,Top,Signal*
G04 #@! TF.FilePolarity,Positive*
%FSLAX46Y46*%
G04 Gerber Fmt 4.6, Leading zero omitted, Abs format (unit mm)*
G04 Created by KiCad (PCBNEW (5.0.0)) date 10/21/18 19:05:11*
%MOMM*%
%LPD*%
G01*
G04 APERTURE LIST*
G04 #@! TA.AperFunction,SMDPad,CuDef*
%ADD10C,0.200000*%
G04 #@! TD*
G04 #@! TA.AperFunction,Conductor*
%ADD11C,0.100000*%
G04 #@! TD*
G04 #@! TA.AperFunction,SMDPad,CuDef*
%ADD12C,0.875000*%
G04 #@! TD*
G04 #@! TA.AperFunction,ComponentPad*
%ADD13O,1.700000X1.700000*%
G04 #@! TD*
G04 #@! TA.AperFunction,ComponentPad*
%ADD14R,1.700000X1.700000*%
G04 #@! TD*
G04 #@! TA.AperFunction,SMDPad,CuDef*
%ADD15R,1.900000X1.200000*%
G04 #@! TD*
G04 #@! TA.AperFunction,ComponentPad*
%ADD16O,1.900000X1.200000*%
G04 #@! TD*
G04 #@! TA.AperFunction,SMDPad,CuDef*
%ADD17R,1.900000X1.500000*%
G04 #@! TD*
G04 #@! TA.AperFunction,ComponentPad*
%ADD18C,1.450000*%
G04 #@! TD*
G04 #@! TA.AperFunction,SMDPad,CuDef*
%ADD19R,1.350000X0.400000*%
G04 #@! TD*
G04 #@! TA.AperFunction,SMDPad,CuDef*
%ADD20R,1.500000X1.500000*%
G04 #@! TD*
G04 #@! TA.AperFunction,SMDPad,CuDef*
%ADD21R,1.450000X0.450000*%
G04 #@! TD*
G04 #@! TA.AperFunction,ComponentPad*
%ADD22C,1.500000*%
G04 #@! TD*
G04 #@! TA.AperFunction,ViaPad*
%ADD23C,0.800000*%
G04 #@! TD*
G04 #@! TA.AperFunction,Conductor*
%ADD24C,0.200000*%
G04 #@! TD*
G04 #@! TA.AperFunction,Conductor*
%ADD25C,0.500000*%
G04 #@! TD*
G04 #@! TA.AperFunction,Conductor*
%ADD26C,0.400000*%
G04 #@! TD*
G04 APERTURE END LIST*
D10*
G04 #@! TO.P,JP1,1*
G04 #@! TO.N,/PA10*
X26600201Y-7747000D03*
D11*
G04 #@! TD*
G04 #@! TO.N,/PA10*
G04 #@! TO.C,JP1*
G36*
X26900201Y-8147000D02*
X26600201Y-8147000D01*
X26600201Y-8146639D01*
X26585481Y-8146639D01*
X26556182Y-8143753D01*
X26527307Y-8138009D01*
X26499134Y-8129463D01*
X26471934Y-8118197D01*
X26445970Y-8104319D01*
X26421491Y-8087962D01*
X26398733Y-8069285D01*
X26377916Y-8048468D01*
X26359239Y-8025710D01*
X26342882Y-8001231D01*
X26329004Y-7975267D01*
X26317738Y-7948067D01*
X26309192Y-7919894D01*
X26303448Y-7891019D01*
X26300562Y-7861720D01*
X26300562Y-7847000D01*
X26300201Y-7847000D01*
X26300201Y-7647000D01*
X26300562Y-7647000D01*
X26300562Y-7632280D01*
X26303448Y-7602981D01*
X26309192Y-7574106D01*
X26317738Y-7545933D01*
X26329004Y-7518733D01*
X26342882Y-7492769D01*
X26359239Y-7468290D01*
X26377916Y-7445532D01*
X26398733Y-7424715D01*
X26421491Y-7406038D01*
X26445970Y-7389681D01*
X26471934Y-7375803D01*
X26499134Y-7364537D01*
X26527307Y-7355991D01*
X26556182Y-7350247D01*
X26585481Y-7347361D01*
X26600201Y-7347361D01*
X26600201Y-7347000D01*
X26900201Y-7347000D01*
X26900201Y-8147000D01*
X26900201Y-8147000D01*
G37*
D10*
G04 #@! TO.P,JP1,2*
G04 #@! TO.N,Net-(J4-Pad3)*
X27400201Y-7747000D03*
D11*
G04 #@! TD*
G04 #@! TO.N,Net-(J4-Pad3)*
G04 #@! TO.C,JP1*
G36*
X27100201Y-7347000D02*
X27400201Y-7347000D01*
X27400201Y-7347361D01*
X27414921Y-7347361D01*
X27444220Y-7350247D01*
X27473095Y-7355991D01*
X27501268Y-7364537D01*
X27528468Y-7375803D01*
X27554432Y-7389681D01*
X27578911Y-7406038D01*
X27601669Y-7424715D01*
X27622486Y-7445532D01*
X27641163Y-7468290D01*
X27657520Y-7492769D01*
X27671398Y-7518733D01*
X27682664Y-7545933D01*
X27691210Y-7574106D01*
X27696954Y-7602981D01*
X27699840Y-7632280D01*
X27699840Y-7647000D01*
X27700201Y-7647000D01*
X27700201Y-7847000D01*
X27699840Y-7847000D01*
X27699840Y-7861720D01*
X27696954Y-7891019D01*
X27691210Y-7919894D01*
X27682664Y-7948067D01*
X27671398Y-7975267D01*
X27657520Y-8001231D01*
X27641163Y-8025710D01*
X27622486Y-8048468D01*
X27601669Y-8069285D01*
X27578911Y-8087962D01*
X27554432Y-8104319D01*
X27528468Y-8118197D01*
X27501268Y-8129463D01*
X27473095Y-8138009D01*
X27444220Y-8143753D01*
X27414921Y-8146639D01*
X27400201Y-8146639D01*
X27400201Y-8147000D01*
X27100201Y-8147000D01*
X27100201Y-7347000D01*
X27100201Y-7347000D01*
G37*
D10*
G04 #@! TO.P,JP2,2*
G04 #@! TO.N,Net-(J4-Pad2)*
X27400201Y-8991600D03*
D11*
G04 #@! TD*
G04 #@! TO.N,Net-(J4-Pad2)*
G04 #@! TO.C,JP2*
G36*
X27100201Y-8591600D02*
X27400201Y-8591600D01*
X27400201Y-8591961D01*
X27414921Y-8591961D01*
X27444220Y-8594847D01*
X27473095Y-8600591D01*
X27501268Y-8609137D01*
X27528468Y-8620403D01*
X27554432Y-8634281D01*
X27578911Y-8650638D01*
X27601669Y-8669315D01*
X27622486Y-8690132D01*
X27641163Y-8712890D01*
X27657520Y-8737369D01*
X27671398Y-8763333D01*
X27682664Y-8790533D01*
X27691210Y-8818706D01*
X27696954Y-8847581D01*
X27699840Y-8876880D01*
X27699840Y-8891600D01*
X27700201Y-8891600D01*
X27700201Y-9091600D01*
X27699840Y-9091600D01*
X27699840Y-9106320D01*
X27696954Y-9135619D01*
X27691210Y-9164494D01*
X27682664Y-9192667D01*
X27671398Y-9219867D01*
X27657520Y-9245831D01*
X27641163Y-9270310D01*
X27622486Y-9293068D01*
X27601669Y-9313885D01*
X27578911Y-9332562D01*
X27554432Y-9348919D01*
X27528468Y-9362797D01*
X27501268Y-9374063D01*
X27473095Y-9382609D01*
X27444220Y-9388353D01*
X27414921Y-9391239D01*
X27400201Y-9391239D01*
X27400201Y-9391600D01*
X27100201Y-9391600D01*
X27100201Y-8591600D01*
X27100201Y-8591600D01*
G37*
D10*
G04 #@! TO.P,JP2,1*
G04 #@! TO.N,/PA11*
X26600201Y-8991600D03*
D11*
G04 #@! TD*
G04 #@! TO.N,/PA11*
G04 #@! TO.C,JP2*
G36*
X26900201Y-9391600D02*
X26600201Y-9391600D01*
X26600201Y-9391239D01*
X26585481Y-9391239D01*
X26556182Y-9388353D01*
X26527307Y-9382609D01*
X26499134Y-9374063D01*
X26471934Y-9362797D01*
X26445970Y-9348919D01*
X26421491Y-9332562D01*
X26398733Y-9313885D01*
X26377916Y-9293068D01*
X26359239Y-9270310D01*
X26342882Y-9245831D01*
X26329004Y-9219867D01*
X26317738Y-9192667D01*
X26309192Y-9164494D01*
X26303448Y-9135619D01*
X26300562Y-9106320D01*
X26300562Y-9091600D01*
X26300201Y-9091600D01*
X26300201Y-8891600D01*
X26300562Y-8891600D01*
X26300562Y-8876880D01*
X26303448Y-8847581D01*
X26309192Y-8818706D01*
X26317738Y-8790533D01*
X26329004Y-8763333D01*
X26342882Y-8737369D01*
X26359239Y-8712890D01*
X26377916Y-8690132D01*
X26398733Y-8669315D01*
X26421491Y-8650638D01*
X26445970Y-8634281D01*
X26471934Y-8620403D01*
X26499134Y-8609137D01*
X26527307Y-8600591D01*
X26556182Y-8594847D01*
X26585481Y-8591961D01*
X26600201Y-8591961D01*
X26600201Y-8591600D01*
X26900201Y-8591600D01*
X26900201Y-9391600D01*
X26900201Y-9391600D01*
G37*
G04 #@! TO.N,Net-(D1-Pad2)*
G04 #@! TO.C,D1*
G36*
X32015691Y-12861053D02*
X32036926Y-12864203D01*
X32057750Y-12869419D01*
X32077962Y-12876651D01*
X32097368Y-12885830D01*
X32115781Y-12896866D01*
X32133024Y-12909654D01*
X32148930Y-12924070D01*
X32163346Y-12939976D01*
X32176134Y-12957219D01*
X32187170Y-12975632D01*
X32196349Y-12995038D01*
X32203581Y-13015250D01*
X32208797Y-13036074D01*
X32211947Y-13057309D01*
X32213000Y-13078750D01*
X32213000Y-13591250D01*
X32211947Y-13612691D01*
X32208797Y-13633926D01*
X32203581Y-13654750D01*
X32196349Y-13674962D01*
X32187170Y-13694368D01*
X32176134Y-13712781D01*
X32163346Y-13730024D01*
X32148930Y-13745930D01*
X32133024Y-13760346D01*
X32115781Y-13773134D01*
X32097368Y-13784170D01*
X32077962Y-13793349D01*
X32057750Y-13800581D01*
X32036926Y-13805797D01*
X32015691Y-13808947D01*
X31994250Y-13810000D01*
X31556750Y-13810000D01*
X31535309Y-13808947D01*
X31514074Y-13805797D01*
X31493250Y-13800581D01*
X31473038Y-13793349D01*
X31453632Y-13784170D01*
X31435219Y-13773134D01*
X31417976Y-13760346D01*
X31402070Y-13745930D01*
X31387654Y-13730024D01*
X31374866Y-13712781D01*
X31363830Y-13694368D01*
X31354651Y-13674962D01*
X31347419Y-13654750D01*
X31342203Y-13633926D01*
X31339053Y-13612691D01*
X31338000Y-13591250D01*
X31338000Y-13078750D01*
X31339053Y-13057309D01*
X31342203Y-13036074D01*
X31347419Y-13015250D01*
X31354651Y-12995038D01*
X31363830Y-12975632D01*
X31374866Y-12957219D01*
X31387654Y-12939976D01*
X31402070Y-12924070D01*
X31417976Y-12909654D01*
X31435219Y-12896866D01*
X31453632Y-12885830D01*
X31473038Y-12876651D01*
X31493250Y-12869419D01*
X31514074Y-12864203D01*
X31535309Y-12861053D01*
X31556750Y-12860000D01*
X31994250Y-12860000D01*
X32015691Y-12861053D01*
X32015691Y-12861053D01*
G37*
D12*
G04 #@! TD*
G04 #@! TO.P,D1,2*
G04 #@! TO.N,Net-(D1-Pad2)*
X31775500Y-13335000D03*
D11*
G04 #@! TO.N,/LED1*
G04 #@! TO.C,D1*
G36*
X30440691Y-12861053D02*
X30461926Y-12864203D01*
X30482750Y-12869419D01*
X30502962Y-12876651D01*
X30522368Y-12885830D01*
X30540781Y-12896866D01*
X30558024Y-12909654D01*
X30573930Y-12924070D01*
X30588346Y-12939976D01*
X30601134Y-12957219D01*
X30612170Y-12975632D01*
X30621349Y-12995038D01*
X30628581Y-13015250D01*
X30633797Y-13036074D01*
X30636947Y-13057309D01*
X30638000Y-13078750D01*
X30638000Y-13591250D01*
X30636947Y-13612691D01*
X30633797Y-13633926D01*
X30628581Y-13654750D01*
X30621349Y-13674962D01*
X30612170Y-13694368D01*
X30601134Y-13712781D01*
X30588346Y-13730024D01*
X30573930Y-13745930D01*
X30558024Y-13760346D01*
X30540781Y-13773134D01*
X30522368Y-13784170D01*
X30502962Y-13793349D01*
X30482750Y-13800581D01*
X30461926Y-13805797D01*
X30440691Y-13808947D01*
X30419250Y-13810000D01*
X29981750Y-13810000D01*
X29960309Y-13808947D01*
X29939074Y-13805797D01*
X29918250Y-13800581D01*
X29898038Y-13793349D01*
X29878632Y-13784170D01*
X29860219Y-13773134D01*
X29842976Y-13760346D01*
X29827070Y-13745930D01*
X29812654Y-13730024D01*
X29799866Y-13712781D01*
X29788830Y-13694368D01*
X29779651Y-13674962D01*
X29772419Y-13654750D01*
X29767203Y-13633926D01*
X29764053Y-13612691D01*
X29763000Y-13591250D01*
X29763000Y-13078750D01*
X29764053Y-13057309D01*
X29767203Y-13036074D01*
X29772419Y-13015250D01*
X29779651Y-12995038D01*
X29788830Y-12975632D01*
X29799866Y-12957219D01*
X29812654Y-12939976D01*
X29827070Y-12924070D01*
X29842976Y-12909654D01*
X29860219Y-12896866D01*
X29878632Y-12885830D01*
X29898038Y-12876651D01*
X29918250Y-12869419D01*
X29939074Y-12864203D01*
X29960309Y-12861053D01*
X29981750Y-12860000D01*
X30419250Y-12860000D01*
X30440691Y-12861053D01*
X30440691Y-12861053D01*
G37*
D12*
G04 #@! TD*
G04 #@! TO.P,D1,1*
G04 #@! TO.N,/LED1*
X30200500Y-13335000D03*
D11*
G04 #@! TO.N,GND*
G04 #@! TO.C,D2*
G36*
X27189691Y-4479053D02*
X27210926Y-4482203D01*
X27231750Y-4487419D01*
X27251962Y-4494651D01*
X27271368Y-4503830D01*
X27289781Y-4514866D01*
X27307024Y-4527654D01*
X27322930Y-4542070D01*
X27337346Y-4557976D01*
X27350134Y-4575219D01*
X27361170Y-4593632D01*
X27370349Y-4613038D01*
X27377581Y-4633250D01*
X27382797Y-4654074D01*
X27385947Y-4675309D01*
X27387000Y-4696750D01*
X27387000Y-5209250D01*
X27385947Y-5230691D01*
X27382797Y-5251926D01*
X27377581Y-5272750D01*
X27370349Y-5292962D01*
X27361170Y-5312368D01*
X27350134Y-5330781D01*
X27337346Y-5348024D01*
X27322930Y-5363930D01*
X27307024Y-5378346D01*
X27289781Y-5391134D01*
X27271368Y-5402170D01*
X27251962Y-5411349D01*
X27231750Y-5418581D01*
X27210926Y-5423797D01*
X27189691Y-5426947D01*
X27168250Y-5428000D01*
X26730750Y-5428000D01*
X26709309Y-5426947D01*
X26688074Y-5423797D01*
X26667250Y-5418581D01*
X26647038Y-5411349D01*
X26627632Y-5402170D01*
X26609219Y-5391134D01*
X26591976Y-5378346D01*
X26576070Y-5363930D01*
X26561654Y-5348024D01*
X26548866Y-5330781D01*
X26537830Y-5312368D01*
X26528651Y-5292962D01*
X26521419Y-5272750D01*
X26516203Y-5251926D01*
X26513053Y-5230691D01*
X26512000Y-5209250D01*
X26512000Y-4696750D01*
X26513053Y-4675309D01*
X26516203Y-4654074D01*
X26521419Y-4633250D01*
X26528651Y-4613038D01*
X26537830Y-4593632D01*
X26548866Y-4575219D01*
X26561654Y-4557976D01*
X26576070Y-4542070D01*
X26591976Y-4527654D01*
X26609219Y-4514866D01*
X26627632Y-4503830D01*
X26647038Y-4494651D01*
X26667250Y-4487419D01*
X26688074Y-4482203D01*
X26709309Y-4479053D01*
X26730750Y-4478000D01*
X27168250Y-4478000D01*
X27189691Y-4479053D01*
X27189691Y-4479053D01*
G37*
D12*
G04 #@! TD*
G04 #@! TO.P,D2,1*
G04 #@! TO.N,GND*
X26949500Y-4953000D03*
D11*
G04 #@! TO.N,Net-(D2-Pad2)*
G04 #@! TO.C,D2*
G36*
X25614691Y-4479053D02*
X25635926Y-4482203D01*
X25656750Y-4487419D01*
X25676962Y-4494651D01*
X25696368Y-4503830D01*
X25714781Y-4514866D01*
X25732024Y-4527654D01*
X25747930Y-4542070D01*
X25762346Y-4557976D01*
X25775134Y-4575219D01*
X25786170Y-4593632D01*
X25795349Y-4613038D01*
X25802581Y-4633250D01*
X25807797Y-4654074D01*
X25810947Y-4675309D01*
X25812000Y-4696750D01*
X25812000Y-5209250D01*
X25810947Y-5230691D01*
X25807797Y-5251926D01*
X25802581Y-5272750D01*
X25795349Y-5292962D01*
X25786170Y-5312368D01*
X25775134Y-5330781D01*
X25762346Y-5348024D01*
X25747930Y-5363930D01*
X25732024Y-5378346D01*
X25714781Y-5391134D01*
X25696368Y-5402170D01*
X25676962Y-5411349D01*
X25656750Y-5418581D01*
X25635926Y-5423797D01*
X25614691Y-5426947D01*
X25593250Y-5428000D01*
X25155750Y-5428000D01*
X25134309Y-5426947D01*
X25113074Y-5423797D01*
X25092250Y-5418581D01*
X25072038Y-5411349D01*
X25052632Y-5402170D01*
X25034219Y-5391134D01*
X25016976Y-5378346D01*
X25001070Y-5363930D01*
X24986654Y-5348024D01*
X24973866Y-5330781D01*
X24962830Y-5312368D01*
X24953651Y-5292962D01*
X24946419Y-5272750D01*
X24941203Y-5251926D01*
X24938053Y-5230691D01*
X24937000Y-5209250D01*
X24937000Y-4696750D01*
X24938053Y-4675309D01*
X24941203Y-4654074D01*
X24946419Y-4633250D01*
X24953651Y-4613038D01*
X24962830Y-4593632D01*
X24973866Y-4575219D01*
X24986654Y-4557976D01*
X25001070Y-4542070D01*
X25016976Y-4527654D01*
X25034219Y-4514866D01*
X25052632Y-4503830D01*
X25072038Y-4494651D01*
X25092250Y-4487419D01*
X25113074Y-4482203D01*
X25134309Y-4479053D01*
X25155750Y-4478000D01*
X25593250Y-4478000D01*
X25614691Y-4479053D01*
X25614691Y-4479053D01*
G37*
D12*
G04 #@! TD*
G04 #@! TO.P,D2,2*
G04 #@! TO.N,Net-(D2-Pad2)*
X25374500Y-4953000D03*
D13*
G04 #@! TO.P,J1,2*
G04 #@! TO.N,/BOOT0*
X6985000Y-10160000D03*
D14*
G04 #@! TO.P,J1,1*
G04 #@! TO.N,+3V3*
X6985000Y-12700000D03*
G04 #@! TD*
D13*
G04 #@! TO.P,J2,13*
G04 #@! TO.N,GND*
X31750001Y-16510000D03*
G04 #@! TO.P,J2,12*
G04 #@! TO.N,/5V*
X29210001Y-16510000D03*
G04 #@! TO.P,J2,11*
G04 #@! TO.N,/LED1*
X26670001Y-16510000D03*
G04 #@! TO.P,J2,10*
G04 #@! TO.N,/PA7*
X24130001Y-16510000D03*
G04 #@! TO.P,J2,9*
G04 #@! TO.N,/PA6*
X21590001Y-16510000D03*
G04 #@! TO.P,J2,8*
G04 #@! TO.N,/PA5*
X19050001Y-16510000D03*
G04 #@! TO.P,J2,7*
G04 #@! TO.N,/PA4*
X16510001Y-16510000D03*
G04 #@! TO.P,J2,6*
G04 #@! TO.N,/PA3*
X13970001Y-16510000D03*
G04 #@! TO.P,J2,5*
G04 #@! TO.N,/PA2*
X11430001Y-16510000D03*
G04 #@! TO.P,J2,4*
G04 #@! TO.N,/PA1*
X8890001Y-16510000D03*
G04 #@! TO.P,J2,3*
G04 #@! TO.N,/PA0*
X6350001Y-16510000D03*
G04 #@! TO.P,J2,2*
G04 #@! TO.N,+3V3*
X3810001Y-16510000D03*
D14*
G04 #@! TO.P,J2,1*
G04 #@! TO.N,GND*
X1270001Y-16510000D03*
G04 #@! TD*
G04 #@! TO.P,J3,1*
G04 #@! TO.N,GND*
X1270000Y-1270000D03*
D13*
G04 #@! TO.P,J3,2*
G04 #@! TO.N,/5V*
X3810000Y-1270000D03*
G04 #@! TO.P,J3,3*
G04 #@! TO.N,/OSC_OUT*
X6350000Y-1270000D03*
G04 #@! TO.P,J3,4*
G04 #@! TO.N,/OSC_IN*
X8890000Y-1270000D03*
G04 #@! TO.P,J3,5*
G04 #@! TO.N,/BOOT0*
X11430000Y-1270000D03*
G04 #@! TO.P,J3,6*
G04 #@! TO.N,/RESET*
X13970000Y-1270000D03*
G04 #@! TO.P,J3,7*
G04 #@! TO.N,/PA11*
X16510000Y-1270000D03*
G04 #@! TO.P,J3,8*
G04 #@! TO.N,/PA10*
X19050000Y-1270000D03*
G04 #@! TO.P,J3,9*
G04 #@! TO.N,/PA13*
X21590000Y-1270000D03*
G04 #@! TO.P,J3,10*
G04 #@! TO.N,/PA14*
X24130000Y-1270000D03*
G04 #@! TO.P,J3,11*
G04 #@! TO.N,GND*
X26670000Y-1270000D03*
G04 #@! TO.P,J3,12*
G04 #@! TO.N,+3V3*
X29210000Y-1270000D03*
G04 #@! TO.P,J3,13*
G04 #@! TO.N,GND*
X31750000Y-1270000D03*
G04 #@! TD*
D15*
G04 #@! TO.P,J4,6*
G04 #@! TO.N,GND*
X31463500Y-11028000D03*
X31463500Y-5228000D03*
D16*
X31463500Y-4628000D03*
X31463500Y-11628000D03*
D17*
X31463500Y-9128000D03*
D18*
X28763500Y-5628000D03*
D19*
G04 #@! TO.P,J4,3*
G04 #@! TO.N,Net-(J4-Pad3)*
X28763500Y-8128000D03*
G04 #@! TO.P,J4,4*
G04 #@! TO.N,N/C*
X28763500Y-7478000D03*
G04 #@! TO.P,J4,5*
G04 #@! TO.N,GND*
X28763500Y-6828000D03*
G04 #@! TO.P,J4,1*
G04 #@! TO.N,/5V*
X28763500Y-9428000D03*
G04 #@! TO.P,J4,2*
G04 #@! TO.N,Net-(J4-Pad2)*
X28763500Y-8778000D03*
D18*
G04 #@! TO.P,J4,6*
G04 #@! TO.N,GND*
X28763500Y-10628000D03*
D17*
X31463500Y-7128000D03*
G04 #@! TD*
D14*
G04 #@! TO.P,J5,1*
G04 #@! TO.N,+3V3*
X4445000Y-5080000D03*
D13*
G04 #@! TO.P,J5,2*
G04 #@! TO.N,/PA13*
X4445000Y-7620000D03*
G04 #@! TO.P,J5,3*
G04 #@! TO.N,/PA14*
X4445000Y-10160000D03*
G04 #@! TO.P,J5,4*
G04 #@! TO.N,GND*
X4445000Y-12700000D03*
G04 #@! TD*
D20*
G04 #@! TO.P,SW1,1*
G04 #@! TO.N,/RESET*
X15748000Y-12790000D03*
G04 #@! TO.P,SW1,2*
G04 #@! TO.N,GND*
X15748000Y-4990000D03*
G04 #@! TD*
D21*
G04 #@! TO.P,U1,1*
G04 #@! TO.N,/BOOT0*
X19148000Y-7235000D03*
G04 #@! TO.P,U1,2*
G04 #@! TO.N,/OSC_IN*
X19148000Y-7885000D03*
G04 #@! TO.P,U1,3*
G04 #@! TO.N,/OSC_OUT*
X19148000Y-8535000D03*
G04 #@! TO.P,U1,4*
G04 #@! TO.N,/RESET*
X19148000Y-9185000D03*
G04 #@! TO.P,U1,5*
G04 #@! TO.N,+3V3*
X19148000Y-9835000D03*
G04 #@! TO.P,U1,6*
G04 #@! TO.N,/PA0*
X19148000Y-10485000D03*
G04 #@! TO.P,U1,7*
G04 #@! TO.N,/PA1*
X19148000Y-11135000D03*
G04 #@! TO.P,U1,8*
G04 #@! TO.N,/PA2*
X19148000Y-11785000D03*
G04 #@! TO.P,U1,9*
G04 #@! TO.N,/PA3*
X19148000Y-12435000D03*
G04 #@! TO.P,U1,10*
G04 #@! TO.N,/PA4*
X19148000Y-13085000D03*
G04 #@! TO.P,U1,11*
G04 #@! TO.N,/PA5*
X25048000Y-13085000D03*
G04 #@! TO.P,U1,12*
G04 #@! TO.N,/PA6*
X25048000Y-12435000D03*
G04 #@! TO.P,U1,13*
G04 #@! TO.N,/PA7*
X25048000Y-11785000D03*
G04 #@! TO.P,U1,14*
G04 #@! TO.N,/LED1*
X25048000Y-11135000D03*
G04 #@! TO.P,U1,15*
G04 #@! TO.N,GND*
X25048000Y-10485000D03*
G04 #@! TO.P,U1,16*
G04 #@! TO.N,+3V3*
X25048000Y-9835000D03*
G04 #@! TO.P,U1,17*
G04 #@! TO.N,/PA11*
X25048000Y-9185000D03*
G04 #@! TO.P,U1,18*
G04 #@! TO.N,/PA10*
X25048000Y-8535000D03*
G04 #@! TO.P,U1,19*
G04 #@! TO.N,/PA13*
X25048000Y-7885000D03*
G04 #@! TO.P,U1,20*
G04 #@! TO.N,/PA14*
X25048000Y-7235000D03*
G04 #@! TD*
D22*
G04 #@! TO.P,Y1,2*
G04 #@! TO.N,/OSC_OUT*
X11049000Y-11328400D03*
G04 #@! TO.P,Y1,1*
G04 #@! TO.N,/OSC_IN*
X11049000Y-6448400D03*
G04 #@! TD*
D23*
G04 #@! TO.N,GND*
X8636001Y-4699000D03*
X22098001Y-4318000D03*
X10033000Y-8890000D03*
X12192001Y-4445000D03*
X18605500Y-4572000D03*
X23495000Y-14224000D03*
X27686000Y-12128500D03*
X8763000Y-13843000D03*
X6985001Y-5334000D03*
X21209000Y-8001000D03*
X26289000Y-3619500D03*
X21971000Y-10033000D03*
X21082000Y-14224000D03*
X26543000Y-10668000D03*
X14541500Y-4572000D03*
X29148010Y-13779500D03*
X10287001Y-4699000D03*
X24130000Y-5334000D03*
X20764500Y-6096000D03*
X15748001Y-11303000D03*
G04 #@! TO.N,/RESET*
X14478001Y-12342000D03*
G04 #@! TO.N,+3V3*
X6794501Y-6604000D03*
X28003500Y-4508500D03*
X20574000Y-12192000D03*
X27432000Y-10033000D03*
X14351001Y-13398500D03*
G04 #@! TO.N,/5V*
X27686000Y-13589000D03*
X6794501Y-3937000D03*
X29889999Y-9428001D03*
G04 #@! TO.N,/BOOT0*
X18605500Y-6540500D03*
G04 #@! TO.N,Net-(D1-Pad2)*
X30035500Y-12255500D03*
G04 #@! TO.N,Net-(D2-Pad2)*
X24574500Y-4318000D03*
G04 #@! TD*
D24*
G04 #@! TO.N,/OSC_IN*
X12728600Y-8128000D02*
X11049000Y-6448400D01*
X17970500Y-8128000D02*
X12728600Y-8128000D01*
X18224500Y-7874000D02*
X17970500Y-8128000D01*
X19148000Y-7885000D02*
X19137000Y-7874000D01*
X19137000Y-7874000D02*
X18224500Y-7874000D01*
X11049000Y-3429000D02*
X8890000Y-1270000D01*
X11049000Y-6448400D02*
X11049000Y-3429000D01*
G04 #@! TO.N,GND*
X15748000Y-5334000D02*
X15494000Y-5334000D01*
G04 #@! TO.N,/OSC_OUT*
X11049000Y-8890000D02*
X11049000Y-11328400D01*
X9398000Y-7239000D02*
X11049000Y-8890000D01*
X6350000Y-1270000D02*
X9398000Y-4318000D01*
X11049000Y-8890001D02*
X11049000Y-11328400D01*
X19148000Y-8535000D02*
X11404001Y-8535000D01*
X11404001Y-8535000D02*
X11049000Y-8890001D01*
X9398001Y-4318000D02*
X9398001Y-7239000D01*
G04 #@! TO.N,/RESET*
X16383000Y-11747500D02*
X16383000Y-12319000D01*
X18310500Y-9185000D02*
X18185501Y-9309999D01*
X19148000Y-9185000D02*
X18310500Y-9185000D01*
X18185501Y-9309999D02*
X18182999Y-9309999D01*
X18182999Y-9309999D02*
X18122999Y-9369999D01*
X18122999Y-9369999D02*
X18122999Y-10007501D01*
X18122999Y-10007501D02*
X16383000Y-11747500D01*
X19988002Y-9185000D02*
X20173001Y-9000001D01*
X19148000Y-9185000D02*
X19988002Y-9185000D01*
X20173001Y-9000001D02*
X20173001Y-6769999D01*
X20173001Y-6769999D02*
X19243501Y-5840499D01*
X19243501Y-5840499D02*
X18162501Y-5840499D01*
X18162501Y-5840499D02*
X17907000Y-6096000D01*
X16573500Y-6096000D02*
X16446500Y-6096000D01*
X17907000Y-6096000D02*
X16573500Y-6096000D01*
X13970000Y-3619500D02*
X13970000Y-1270000D01*
X13779500Y-5207000D02*
X13779500Y-3810000D01*
X14668500Y-6096000D02*
X13779500Y-5207000D01*
X13779500Y-3810000D02*
X13970000Y-3619500D01*
X16573500Y-6096000D02*
X14668500Y-6096000D01*
X15636000Y-12678000D02*
X15748000Y-12790000D01*
X15300000Y-12342000D02*
X15748000Y-12790000D01*
X14478001Y-12342000D02*
X15300000Y-12342000D01*
D25*
G04 #@! TO.N,+3V3*
X5524501Y-14795500D02*
X3810001Y-16510000D01*
X6985000Y-14050000D02*
X6985000Y-14795500D01*
X6985000Y-12700000D02*
X6985000Y-14050000D01*
X6985000Y-14795500D02*
X5524501Y-14795500D01*
D26*
X27234000Y-9835000D02*
X27432000Y-10033000D01*
X27305000Y-9906000D02*
X27234000Y-9835000D01*
X27234000Y-9835000D02*
X25175000Y-9835000D01*
X20122000Y-9835000D02*
X19148000Y-9835000D01*
X20320000Y-10033000D02*
X20122000Y-9835000D01*
X20320000Y-11938000D02*
X20320000Y-10033000D01*
X20574000Y-12192000D02*
X20320000Y-11938000D01*
D25*
X29210000Y-1270000D02*
X29210000Y-3302000D01*
X29210000Y-3302000D02*
X28003500Y-4508500D01*
X9207500Y-14795500D02*
X6985000Y-14795500D01*
X10414000Y-13589000D02*
X9207500Y-14795500D01*
X14351001Y-13462000D02*
X14224001Y-13589000D01*
X14224001Y-13589000D02*
X10414000Y-13589000D01*
X4953000Y-5588000D02*
X4445000Y-5080000D01*
X5778501Y-5588000D02*
X4953000Y-5588000D01*
X6731000Y-6604000D02*
X6731000Y-6540499D01*
X6731000Y-6540499D02*
X5778501Y-5588000D01*
G04 #@! TO.N,/5V*
X29910000Y-9408000D02*
X29865001Y-9452999D01*
X29889999Y-9428001D02*
X29910000Y-9408000D01*
X29210001Y-16510000D02*
X29210001Y-16509999D01*
X29889999Y-9442999D02*
X29889999Y-9428001D01*
D26*
X28321000Y-9428001D02*
X30047000Y-9428001D01*
D25*
X27686000Y-14985999D02*
X29210001Y-16510000D01*
X27686000Y-13970000D02*
X27686000Y-14985999D01*
X27686000Y-13970000D02*
X27686000Y-13462000D01*
X5969001Y-3175000D02*
X6731001Y-3937000D01*
X3810000Y-1270000D02*
X5715000Y-3175000D01*
X5715000Y-3175000D02*
X5969001Y-3175000D01*
D24*
G04 #@! TO.N,/BOOT0*
X18605500Y-7235000D02*
X19148000Y-7235000D01*
X18605500Y-6540500D02*
X18605500Y-7235000D01*
X11430000Y-1270000D02*
X13379489Y-3219489D01*
X13379489Y-3219489D02*
X13379489Y-5441989D01*
X13379489Y-5441989D02*
X14478000Y-6540500D01*
X14478000Y-6540500D02*
X18039815Y-6540500D01*
X18039815Y-6540500D02*
X18605500Y-6540500D01*
G04 #@! TO.N,/PA7*
X25048000Y-11785000D02*
X25973000Y-11785000D01*
X25973000Y-11785000D02*
X26523989Y-12335989D01*
X24980000Y-15660001D02*
X24130001Y-16510000D01*
X26523989Y-12335989D02*
X26523989Y-14116012D01*
X26523989Y-14116012D02*
X24980000Y-15660001D01*
G04 #@! TO.N,/PA6*
X22225000Y-16510000D02*
X21590001Y-16510000D01*
X24645001Y-15359999D02*
X22740002Y-15359999D01*
X22740002Y-15359999D02*
X22440000Y-15660001D01*
X22440000Y-15660001D02*
X21590001Y-16510000D01*
X26123978Y-12585978D02*
X26123978Y-13881022D01*
X26123978Y-13881022D02*
X24645001Y-15359999D01*
X25973000Y-12435000D02*
X26123978Y-12585978D01*
X25048000Y-12435000D02*
X25973000Y-12435000D01*
G04 #@! TO.N,/LED1*
X26924000Y-15053920D02*
X26924000Y-12065000D01*
X26670001Y-16510000D02*
X26670001Y-15307919D01*
X26670001Y-15307919D02*
X26924000Y-15053920D01*
X25994000Y-11135000D02*
X25048000Y-11135000D01*
X26268000Y-11409000D02*
X25994000Y-11135000D01*
X26543000Y-11536000D02*
X26670000Y-11409000D01*
X26543000Y-11684000D02*
X26543000Y-11536000D01*
X26670000Y-11409000D02*
X26268000Y-11409000D01*
X26543000Y-11684000D02*
X26289000Y-11430000D01*
X26924000Y-12065000D02*
X26543000Y-11684000D01*
X28046000Y-11409000D02*
X26670000Y-11409000D01*
X30200500Y-13335000D02*
X29972000Y-13335000D01*
X29972000Y-13335000D02*
X28046000Y-11409000D01*
G04 #@! TO.N,/PA0*
X19148000Y-10485000D02*
X19148000Y-10541000D01*
X18223000Y-10485000D02*
X19148000Y-10485000D01*
X16798001Y-11909999D02*
X18223000Y-10485000D01*
X7514490Y-15345511D02*
X9435322Y-15345511D01*
X9435322Y-15345511D02*
X10638584Y-14142248D01*
X10638584Y-14142248D02*
X16464752Y-14142248D01*
X6350001Y-16510000D02*
X7514490Y-15345511D01*
X16464752Y-14142248D02*
X16798001Y-13808999D01*
X16798001Y-13808999D02*
X16798001Y-11909999D01*
G04 #@! TO.N,/PA1*
X19148000Y-11135000D02*
X19148000Y-11259999D01*
X18307998Y-11135000D02*
X19148000Y-11135000D01*
X17322800Y-12120198D02*
X18307998Y-11135000D01*
X17322800Y-13919200D02*
X17322800Y-12120198D01*
X16682021Y-14559979D02*
X17322800Y-13919200D01*
X8890001Y-16510000D02*
X10840022Y-14559979D01*
X10840022Y-14559979D02*
X16682021Y-14559979D01*
G04 #@! TO.N,/PA2*
X19122000Y-11811000D02*
X19148000Y-11785000D01*
X12980012Y-14959989D02*
X16917011Y-14959989D01*
X11430001Y-16510000D02*
X12980012Y-14959989D01*
X17722810Y-14154190D02*
X17722810Y-12376190D01*
X17722810Y-12376190D02*
X18288000Y-11811000D01*
X16917011Y-14959989D02*
X17722810Y-14154190D01*
X18288000Y-11811000D02*
X19122000Y-11811000D01*
G04 #@! TO.N,/PA3*
X19148000Y-12435000D02*
X18307998Y-12435000D01*
X18307998Y-12435000D02*
X18123000Y-12619998D01*
X18123000Y-14333496D02*
X18122818Y-14333678D01*
X18123000Y-12619998D02*
X18123000Y-14333496D01*
X18122818Y-14333678D02*
X17526000Y-14930496D01*
X17526000Y-14930496D02*
X17307748Y-15148748D01*
X17025001Y-15359999D02*
X17094304Y-15359999D01*
X15120001Y-15360000D02*
X17025001Y-15359999D01*
X13970001Y-16510000D02*
X15120001Y-15360000D01*
X17307748Y-15148748D02*
X17094304Y-15359999D01*
X17094304Y-15359999D02*
X17180748Y-15275748D01*
G04 #@! TO.N,/PA4*
X16510001Y-16510000D02*
X17360000Y-15660001D01*
X19148000Y-13510000D02*
X19148000Y-13085000D01*
X19148000Y-13874194D02*
X19148000Y-13510000D01*
X17362193Y-15660001D02*
X19148000Y-13874194D01*
X17360000Y-15660001D02*
X17362193Y-15660001D01*
G04 #@! TO.N,/PA5*
X19050001Y-16509999D02*
X19050001Y-16510000D01*
X20600011Y-14959989D02*
X19050001Y-16509999D01*
X24410011Y-14959989D02*
X20600011Y-14959989D01*
X25048000Y-13085000D02*
X25048000Y-14322000D01*
X25048000Y-14322000D02*
X24410011Y-14959989D01*
G04 #@! TO.N,/PA10*
X19050001Y-1270001D02*
X19050000Y-1270000D01*
X19050001Y-2413000D02*
X19050001Y-1270001D01*
X22352000Y-5714999D02*
X19050001Y-2413000D01*
X22352000Y-6985000D02*
X22352000Y-5714999D01*
X25048000Y-8535000D02*
X23902000Y-8535000D01*
X23902000Y-8535000D02*
X22352000Y-6985000D01*
D26*
X25048000Y-8535000D02*
X25932801Y-8535000D01*
X25932801Y-8535000D02*
X26543001Y-7924800D01*
G04 #@! TO.N,/PA11*
X26406801Y-9185000D02*
X26600201Y-8991600D01*
X25048000Y-9185000D02*
X26406801Y-9185000D01*
D24*
X23790000Y-9185000D02*
X25048000Y-9185000D01*
X21844000Y-7239000D02*
X23790000Y-9185000D01*
X21844000Y-5994399D02*
X21844000Y-7239000D01*
X18389601Y-2540000D02*
X21844000Y-5994399D01*
X16510000Y-1270000D02*
X17780000Y-2540000D01*
X17780000Y-2540000D02*
X18389601Y-2540000D01*
G04 #@! TO.N,Net-(D1-Pad2)*
X31775500Y-13335000D02*
X31775500Y-13436500D01*
X31313888Y-12873388D02*
X31775500Y-13335000D01*
X31034388Y-12873388D02*
X31313888Y-12873388D01*
X30035500Y-12255500D02*
X30416500Y-12255500D01*
X30416500Y-12255500D02*
X31034388Y-12873388D01*
G04 #@! TO.N,Net-(D2-Pad2)*
X24574500Y-4318000D02*
X24511000Y-4318000D01*
X25247500Y-4699000D02*
X24955500Y-4699000D01*
X24955500Y-4699000D02*
X24574500Y-4318000D01*
G04 #@! TO.N,/PA13*
X22860001Y-2540001D02*
X21590000Y-1270000D01*
X22860001Y-6731001D02*
X22860001Y-2540001D01*
X25048000Y-7885000D02*
X24014000Y-7885000D01*
X24014000Y-7885000D02*
X22860001Y-6731001D01*
G04 #@! TO.N,/PA14*
X24126000Y-7235000D02*
X23368000Y-6477000D01*
X25048000Y-7235000D02*
X24126000Y-7235000D01*
X23368000Y-6477000D02*
X23368000Y-2032000D01*
X23368000Y-2032000D02*
X24130000Y-1270000D01*
D26*
G04 #@! TO.N,Net-(J4-Pad2)*
X27613801Y-8778000D02*
X27400201Y-8991600D01*
X28763500Y-8778000D02*
X27613801Y-8778000D01*
G04 #@! TO.N,Net-(J4-Pad3)*
X27781201Y-8128000D02*
X27400201Y-7747000D01*
X28763500Y-8128000D02*
X27781201Y-8128000D01*
G04 #@! TD*
D24*
G04 #@! TO.N,GND*
G36*
X2992893Y-452893D02*
X2849184Y-628003D01*
X2742398Y-827785D01*
X2676640Y-1044561D01*
X2654436Y-1270000D01*
X2676640Y-1495439D01*
X2742398Y-1712215D01*
X2849184Y-1911997D01*
X2992893Y-2087107D01*
X3168003Y-2230816D01*
X3367785Y-2337602D01*
X3584561Y-2403360D01*
X3753508Y-2420000D01*
X3866492Y-2420000D01*
X4035439Y-2403360D01*
X4135262Y-2373079D01*
X5306992Y-3544810D01*
X5324210Y-3565790D01*
X5345190Y-3583008D01*
X5345195Y-3583013D01*
X5407958Y-3634521D01*
X5503505Y-3685592D01*
X5594549Y-3713210D01*
X5607181Y-3717042D01*
X5687982Y-3725000D01*
X5687989Y-3725000D01*
X5715000Y-3727660D01*
X5741258Y-3725074D01*
X6112472Y-4096288D01*
X6121402Y-4141182D01*
X6174169Y-4268574D01*
X6250775Y-4383224D01*
X6348277Y-4480726D01*
X6462927Y-4557332D01*
X6590319Y-4610099D01*
X6725557Y-4637000D01*
X6863445Y-4637000D01*
X6998683Y-4610099D01*
X7126075Y-4557332D01*
X7240725Y-4480726D01*
X7338227Y-4383224D01*
X7414833Y-4268574D01*
X7467600Y-4141182D01*
X7494501Y-4005944D01*
X7494501Y-3868056D01*
X7467600Y-3732818D01*
X7414833Y-3605426D01*
X7338227Y-3490776D01*
X7240725Y-3393274D01*
X7126075Y-3316668D01*
X6998683Y-3263901D01*
X6863445Y-3237000D01*
X6808818Y-3237000D01*
X6377013Y-2805195D01*
X6359791Y-2784210D01*
X6276043Y-2715479D01*
X6180495Y-2664408D01*
X6076820Y-2632958D01*
X5996019Y-2625000D01*
X5996009Y-2625000D01*
X5969001Y-2622340D01*
X5942744Y-2624926D01*
X4913079Y-1595262D01*
X4943360Y-1495439D01*
X4965564Y-1270000D01*
X4943360Y-1044561D01*
X4877602Y-827785D01*
X4770816Y-628003D01*
X4627107Y-452893D01*
X4532194Y-375000D01*
X5627806Y-375000D01*
X5532893Y-452893D01*
X5389184Y-628003D01*
X5282398Y-827785D01*
X5216640Y-1044561D01*
X5194436Y-1270000D01*
X5216640Y-1495439D01*
X5282398Y-1712215D01*
X5389184Y-1911997D01*
X5532893Y-2087107D01*
X5708003Y-2230816D01*
X5907785Y-2337602D01*
X6124561Y-2403360D01*
X6293508Y-2420000D01*
X6406492Y-2420000D01*
X6575439Y-2403360D01*
X6792215Y-2337602D01*
X6831121Y-2316806D01*
X8998001Y-4483687D01*
X8998002Y-7219333D01*
X8996065Y-7239000D01*
X9003788Y-7317413D01*
X9026661Y-7392814D01*
X9063803Y-7462302D01*
X9101265Y-7507950D01*
X9101274Y-7507959D01*
X9113791Y-7523211D01*
X9129043Y-7535728D01*
X10649000Y-9055685D01*
X10649001Y-10357573D01*
X10551638Y-10397902D01*
X10379664Y-10512811D01*
X10233411Y-10659064D01*
X10118502Y-10831038D01*
X10039350Y-11022126D01*
X9999000Y-11224984D01*
X9999000Y-11431816D01*
X10039350Y-11634674D01*
X10118502Y-11825762D01*
X10233411Y-11997736D01*
X10379664Y-12143989D01*
X10551638Y-12258898D01*
X10742726Y-12338050D01*
X10945584Y-12378400D01*
X11152416Y-12378400D01*
X11355274Y-12338050D01*
X11546362Y-12258898D01*
X11718336Y-12143989D01*
X11864589Y-11997736D01*
X11979498Y-11825762D01*
X12058650Y-11634674D01*
X12099000Y-11431816D01*
X12099000Y-11224984D01*
X12058650Y-11022126D01*
X11979498Y-10831038D01*
X11864589Y-10659064D01*
X11718336Y-10512811D01*
X11546362Y-10397902D01*
X11449000Y-10357573D01*
X11449000Y-9055686D01*
X11569687Y-8935000D01*
X17994815Y-8935000D01*
X17928004Y-9001811D01*
X17898788Y-9025788D01*
X17886264Y-9041049D01*
X17854051Y-9073262D01*
X17838788Y-9085788D01*
X17788802Y-9146697D01*
X17751659Y-9216186D01*
X17735653Y-9268951D01*
X17728787Y-9291586D01*
X17721064Y-9369999D01*
X17722999Y-9389646D01*
X17723000Y-9841814D01*
X16114052Y-11450763D01*
X16098789Y-11463289D01*
X16048803Y-11524198D01*
X16011660Y-11593687D01*
X15993576Y-11653302D01*
X15988788Y-11669087D01*
X15981947Y-11738549D01*
X14998000Y-11738549D01*
X14939190Y-11744341D01*
X14882640Y-11761496D01*
X14875163Y-11765492D01*
X14809575Y-11721668D01*
X14682183Y-11668901D01*
X14546945Y-11642000D01*
X14409057Y-11642000D01*
X14273819Y-11668901D01*
X14146427Y-11721668D01*
X14031777Y-11798274D01*
X13934275Y-11895776D01*
X13857669Y-12010426D01*
X13804902Y-12137818D01*
X13778001Y-12273056D01*
X13778001Y-12410944D01*
X13804902Y-12546182D01*
X13857669Y-12673574D01*
X13934275Y-12788224D01*
X13962354Y-12816303D01*
X13904777Y-12854774D01*
X13807275Y-12952276D01*
X13749328Y-13039000D01*
X10441011Y-13039000D01*
X10414000Y-13036340D01*
X10386989Y-13039000D01*
X10386982Y-13039000D01*
X10306181Y-13046958D01*
X10202506Y-13078408D01*
X10106958Y-13129479D01*
X10023210Y-13198210D01*
X10005987Y-13219196D01*
X8979683Y-14245500D01*
X7535000Y-14245500D01*
X7535000Y-13851451D01*
X7835000Y-13851451D01*
X7893810Y-13845659D01*
X7950360Y-13828504D01*
X8002477Y-13800647D01*
X8048158Y-13763158D01*
X8085647Y-13717477D01*
X8113504Y-13665360D01*
X8130659Y-13608810D01*
X8136451Y-13550000D01*
X8136451Y-11850000D01*
X8130659Y-11791190D01*
X8113504Y-11734640D01*
X8085647Y-11682523D01*
X8048158Y-11636842D01*
X8002477Y-11599353D01*
X7950360Y-11571496D01*
X7893810Y-11554341D01*
X7835000Y-11548549D01*
X6135000Y-11548549D01*
X6076190Y-11554341D01*
X6019640Y-11571496D01*
X5967523Y-11599353D01*
X5921842Y-11636842D01*
X5884353Y-11682523D01*
X5856496Y-11734640D01*
X5839341Y-11791190D01*
X5833549Y-11850000D01*
X5833549Y-13550000D01*
X5839341Y-13608810D01*
X5856496Y-13665360D01*
X5884353Y-13717477D01*
X5921842Y-13763158D01*
X5967523Y-13800647D01*
X6019640Y-13828504D01*
X6076190Y-13845659D01*
X6135000Y-13851451D01*
X6435001Y-13851451D01*
X6435001Y-14022973D01*
X6435000Y-14022983D01*
X6435000Y-14245500D01*
X5551508Y-14245500D01*
X5524500Y-14242840D01*
X5497492Y-14245500D01*
X5497483Y-14245500D01*
X5416682Y-14253458D01*
X5313007Y-14284908D01*
X5269799Y-14308003D01*
X5217458Y-14335979D01*
X5154696Y-14387487D01*
X5154691Y-14387492D01*
X5133711Y-14404710D01*
X5116493Y-14425690D01*
X4135263Y-15406921D01*
X4035440Y-15376640D01*
X3866493Y-15360000D01*
X3753509Y-15360000D01*
X3584562Y-15376640D01*
X3367786Y-15442398D01*
X3168004Y-15549184D01*
X2992894Y-15692893D01*
X2849185Y-15868003D01*
X2742399Y-16067785D01*
X2676641Y-16284561D01*
X2654437Y-16510000D01*
X2676641Y-16735439D01*
X2742399Y-16952215D01*
X2849185Y-17151997D01*
X2992894Y-17327107D01*
X3087807Y-17405000D01*
X375000Y-17405000D01*
X375000Y-10160000D01*
X3289436Y-10160000D01*
X3311640Y-10385439D01*
X3377398Y-10602215D01*
X3484184Y-10801997D01*
X3627893Y-10977107D01*
X3803003Y-11120816D01*
X4002785Y-11227602D01*
X4219561Y-11293360D01*
X4388508Y-11310000D01*
X4501492Y-11310000D01*
X4670439Y-11293360D01*
X4887215Y-11227602D01*
X5086997Y-11120816D01*
X5262107Y-10977107D01*
X5405816Y-10801997D01*
X5512602Y-10602215D01*
X5578360Y-10385439D01*
X5600564Y-10160000D01*
X5829436Y-10160000D01*
X5851640Y-10385439D01*
X5917398Y-10602215D01*
X6024184Y-10801997D01*
X6167893Y-10977107D01*
X6343003Y-11120816D01*
X6542785Y-11227602D01*
X6759561Y-11293360D01*
X6928508Y-11310000D01*
X7041492Y-11310000D01*
X7210439Y-11293360D01*
X7427215Y-11227602D01*
X7626997Y-11120816D01*
X7802107Y-10977107D01*
X7945816Y-10801997D01*
X8052602Y-10602215D01*
X8118360Y-10385439D01*
X8140564Y-10160000D01*
X8118360Y-9934561D01*
X8052602Y-9717785D01*
X7945816Y-9518003D01*
X7802107Y-9342893D01*
X7626997Y-9199184D01*
X7427215Y-9092398D01*
X7210439Y-9026640D01*
X7041492Y-9010000D01*
X6928508Y-9010000D01*
X6759561Y-9026640D01*
X6542785Y-9092398D01*
X6343003Y-9199184D01*
X6167893Y-9342893D01*
X6024184Y-9518003D01*
X5917398Y-9717785D01*
X5851640Y-9934561D01*
X5829436Y-10160000D01*
X5600564Y-10160000D01*
X5578360Y-9934561D01*
X5512602Y-9717785D01*
X5405816Y-9518003D01*
X5262107Y-9342893D01*
X5086997Y-9199184D01*
X4887215Y-9092398D01*
X4670439Y-9026640D01*
X4501492Y-9010000D01*
X4388508Y-9010000D01*
X4219561Y-9026640D01*
X4002785Y-9092398D01*
X3803003Y-9199184D01*
X3627893Y-9342893D01*
X3484184Y-9518003D01*
X3377398Y-9717785D01*
X3311640Y-9934561D01*
X3289436Y-10160000D01*
X375000Y-10160000D01*
X375000Y-7620000D01*
X3289436Y-7620000D01*
X3311640Y-7845439D01*
X3377398Y-8062215D01*
X3484184Y-8261997D01*
X3627893Y-8437107D01*
X3803003Y-8580816D01*
X4002785Y-8687602D01*
X4219561Y-8753360D01*
X4388508Y-8770000D01*
X4501492Y-8770000D01*
X4670439Y-8753360D01*
X4887215Y-8687602D01*
X5086997Y-8580816D01*
X5262107Y-8437107D01*
X5405816Y-8261997D01*
X5512602Y-8062215D01*
X5578360Y-7845439D01*
X5600564Y-7620000D01*
X5578360Y-7394561D01*
X5512602Y-7177785D01*
X5405816Y-6978003D01*
X5262107Y-6802893D01*
X5086997Y-6659184D01*
X4887215Y-6552398D01*
X4670439Y-6486640D01*
X4501492Y-6470000D01*
X4388508Y-6470000D01*
X4219561Y-6486640D01*
X4002785Y-6552398D01*
X3803003Y-6659184D01*
X3627893Y-6802893D01*
X3484184Y-6978003D01*
X3377398Y-7177785D01*
X3311640Y-7394561D01*
X3289436Y-7620000D01*
X375000Y-7620000D01*
X375000Y-4230000D01*
X3293549Y-4230000D01*
X3293549Y-5930000D01*
X3299341Y-5988810D01*
X3316496Y-6045360D01*
X3344353Y-6097477D01*
X3381842Y-6143158D01*
X3427523Y-6180647D01*
X3479640Y-6208504D01*
X3536190Y-6225659D01*
X3595000Y-6231451D01*
X5295000Y-6231451D01*
X5353810Y-6225659D01*
X5410360Y-6208504D01*
X5462477Y-6180647D01*
X5508158Y-6143158D01*
X5512391Y-6138000D01*
X5550684Y-6138000D01*
X6096704Y-6684021D01*
X6121402Y-6808182D01*
X6174169Y-6935574D01*
X6250775Y-7050224D01*
X6348277Y-7147726D01*
X6462927Y-7224332D01*
X6590319Y-7277099D01*
X6725557Y-7304000D01*
X6863445Y-7304000D01*
X6998683Y-7277099D01*
X7126075Y-7224332D01*
X7240725Y-7147726D01*
X7338227Y-7050224D01*
X7414833Y-6935574D01*
X7467600Y-6808182D01*
X7494501Y-6672944D01*
X7494501Y-6535056D01*
X7467600Y-6399818D01*
X7414833Y-6272426D01*
X7338227Y-6157776D01*
X7240725Y-6060274D01*
X7126075Y-5983668D01*
X6998683Y-5930901D01*
X6874522Y-5906203D01*
X6186513Y-5218195D01*
X6169291Y-5197210D01*
X6085543Y-5128479D01*
X5989995Y-5077408D01*
X5886320Y-5045958D01*
X5805519Y-5038000D01*
X5805509Y-5038000D01*
X5778501Y-5035340D01*
X5751493Y-5038000D01*
X5596451Y-5038000D01*
X5596451Y-4230000D01*
X5590659Y-4171190D01*
X5573504Y-4114640D01*
X5545647Y-4062523D01*
X5508158Y-4016842D01*
X5462477Y-3979353D01*
X5410360Y-3951496D01*
X5353810Y-3934341D01*
X5295000Y-3928549D01*
X3595000Y-3928549D01*
X3536190Y-3934341D01*
X3479640Y-3951496D01*
X3427523Y-3979353D01*
X3381842Y-4016842D01*
X3344353Y-4062523D01*
X3316496Y-4114640D01*
X3299341Y-4171190D01*
X3293549Y-4230000D01*
X375000Y-4230000D01*
X375000Y-375000D01*
X3087806Y-375000D01*
X2992893Y-452893D01*
X2992893Y-452893D01*
G37*
X2992893Y-452893D02*
X2849184Y-628003D01*
X2742398Y-827785D01*
X2676640Y-1044561D01*
X2654436Y-1270000D01*
X2676640Y-1495439D01*
X2742398Y-1712215D01*
X2849184Y-1911997D01*
X2992893Y-2087107D01*
X3168003Y-2230816D01*
X3367785Y-2337602D01*
X3584561Y-2403360D01*
X3753508Y-2420000D01*
X3866492Y-2420000D01*
X4035439Y-2403360D01*
X4135262Y-2373079D01*
X5306992Y-3544810D01*
X5324210Y-3565790D01*
X5345190Y-3583008D01*
X5345195Y-3583013D01*
X5407958Y-3634521D01*
X5503505Y-3685592D01*
X5594549Y-3713210D01*
X5607181Y-3717042D01*
X5687982Y-3725000D01*
X5687989Y-3725000D01*
X5715000Y-3727660D01*
X5741258Y-3725074D01*
X6112472Y-4096288D01*
X6121402Y-4141182D01*
X6174169Y-4268574D01*
X6250775Y-4383224D01*
X6348277Y-4480726D01*
X6462927Y-4557332D01*
X6590319Y-4610099D01*
X6725557Y-4637000D01*
X6863445Y-4637000D01*
X6998683Y-4610099D01*
X7126075Y-4557332D01*
X7240725Y-4480726D01*
X7338227Y-4383224D01*
X7414833Y-4268574D01*
X7467600Y-4141182D01*
X7494501Y-4005944D01*
X7494501Y-3868056D01*
X7467600Y-3732818D01*
X7414833Y-3605426D01*
X7338227Y-3490776D01*
X7240725Y-3393274D01*
X7126075Y-3316668D01*
X6998683Y-3263901D01*
X6863445Y-3237000D01*
X6808818Y-3237000D01*
X6377013Y-2805195D01*
X6359791Y-2784210D01*
X6276043Y-2715479D01*
X6180495Y-2664408D01*
X6076820Y-2632958D01*
X5996019Y-2625000D01*
X5996009Y-2625000D01*
X5969001Y-2622340D01*
X5942744Y-2624926D01*
X4913079Y-1595262D01*
X4943360Y-1495439D01*
X4965564Y-1270000D01*
X4943360Y-1044561D01*
X4877602Y-827785D01*
X4770816Y-628003D01*
X4627107Y-452893D01*
X4532194Y-375000D01*
X5627806Y-375000D01*
X5532893Y-452893D01*
X5389184Y-628003D01*
X5282398Y-827785D01*
X5216640Y-1044561D01*
X5194436Y-1270000D01*
X5216640Y-1495439D01*
X5282398Y-1712215D01*
X5389184Y-1911997D01*
X5532893Y-2087107D01*
X5708003Y-2230816D01*
X5907785Y-2337602D01*
X6124561Y-2403360D01*
X6293508Y-2420000D01*
X6406492Y-2420000D01*
X6575439Y-2403360D01*
X6792215Y-2337602D01*
X6831121Y-2316806D01*
X8998001Y-4483687D01*
X8998002Y-7219333D01*
X8996065Y-7239000D01*
X9003788Y-7317413D01*
X9026661Y-7392814D01*
X9063803Y-7462302D01*
X9101265Y-7507950D01*
X9101274Y-7507959D01*
X9113791Y-7523211D01*
X9129043Y-7535728D01*
X10649000Y-9055685D01*
X10649001Y-10357573D01*
X10551638Y-10397902D01*
X10379664Y-10512811D01*
X10233411Y-10659064D01*
X10118502Y-10831038D01*
X10039350Y-11022126D01*
X9999000Y-11224984D01*
X9999000Y-11431816D01*
X10039350Y-11634674D01*
X10118502Y-11825762D01*
X10233411Y-11997736D01*
X10379664Y-12143989D01*
X10551638Y-12258898D01*
X10742726Y-12338050D01*
X10945584Y-12378400D01*
X11152416Y-12378400D01*
X11355274Y-12338050D01*
X11546362Y-12258898D01*
X11718336Y-12143989D01*
X11864589Y-11997736D01*
X11979498Y-11825762D01*
X12058650Y-11634674D01*
X12099000Y-11431816D01*
X12099000Y-11224984D01*
X12058650Y-11022126D01*
X11979498Y-10831038D01*
X11864589Y-10659064D01*
X11718336Y-10512811D01*
X11546362Y-10397902D01*
X11449000Y-10357573D01*
X11449000Y-9055686D01*
X11569687Y-8935000D01*
X17994815Y-8935000D01*
X17928004Y-9001811D01*
X17898788Y-9025788D01*
X17886264Y-9041049D01*
X17854051Y-9073262D01*
X17838788Y-9085788D01*
X17788802Y-9146697D01*
X17751659Y-9216186D01*
X17735653Y-9268951D01*
X17728787Y-9291586D01*
X17721064Y-9369999D01*
X17722999Y-9389646D01*
X17723000Y-9841814D01*
X16114052Y-11450763D01*
X16098789Y-11463289D01*
X16048803Y-11524198D01*
X16011660Y-11593687D01*
X15993576Y-11653302D01*
X15988788Y-11669087D01*
X15981947Y-11738549D01*
X14998000Y-11738549D01*
X14939190Y-11744341D01*
X14882640Y-11761496D01*
X14875163Y-11765492D01*
X14809575Y-11721668D01*
X14682183Y-11668901D01*
X14546945Y-11642000D01*
X14409057Y-11642000D01*
X14273819Y-11668901D01*
X14146427Y-11721668D01*
X14031777Y-11798274D01*
X13934275Y-11895776D01*
X13857669Y-12010426D01*
X13804902Y-12137818D01*
X13778001Y-12273056D01*
X13778001Y-12410944D01*
X13804902Y-12546182D01*
X13857669Y-12673574D01*
X13934275Y-12788224D01*
X13962354Y-12816303D01*
X13904777Y-12854774D01*
X13807275Y-12952276D01*
X13749328Y-13039000D01*
X10441011Y-13039000D01*
X10414000Y-13036340D01*
X10386989Y-13039000D01*
X10386982Y-13039000D01*
X10306181Y-13046958D01*
X10202506Y-13078408D01*
X10106958Y-13129479D01*
X10023210Y-13198210D01*
X10005987Y-13219196D01*
X8979683Y-14245500D01*
X7535000Y-14245500D01*
X7535000Y-13851451D01*
X7835000Y-13851451D01*
X7893810Y-13845659D01*
X7950360Y-13828504D01*
X8002477Y-13800647D01*
X8048158Y-13763158D01*
X8085647Y-13717477D01*
X8113504Y-13665360D01*
X8130659Y-13608810D01*
X8136451Y-13550000D01*
X8136451Y-11850000D01*
X8130659Y-11791190D01*
X8113504Y-11734640D01*
X8085647Y-11682523D01*
X8048158Y-11636842D01*
X8002477Y-11599353D01*
X7950360Y-11571496D01*
X7893810Y-11554341D01*
X7835000Y-11548549D01*
X6135000Y-11548549D01*
X6076190Y-11554341D01*
X6019640Y-11571496D01*
X5967523Y-11599353D01*
X5921842Y-11636842D01*
X5884353Y-11682523D01*
X5856496Y-11734640D01*
X5839341Y-11791190D01*
X5833549Y-11850000D01*
X5833549Y-13550000D01*
X5839341Y-13608810D01*
X5856496Y-13665360D01*
X5884353Y-13717477D01*
X5921842Y-13763158D01*
X5967523Y-13800647D01*
X6019640Y-13828504D01*
X6076190Y-13845659D01*
X6135000Y-13851451D01*
X6435001Y-13851451D01*
X6435001Y-14022973D01*
X6435000Y-14022983D01*
X6435000Y-14245500D01*
X5551508Y-14245500D01*
X5524500Y-14242840D01*
X5497492Y-14245500D01*
X5497483Y-14245500D01*
X5416682Y-14253458D01*
X5313007Y-14284908D01*
X5269799Y-14308003D01*
X5217458Y-14335979D01*
X5154696Y-14387487D01*
X5154691Y-14387492D01*
X5133711Y-14404710D01*
X5116493Y-14425690D01*
X4135263Y-15406921D01*
X4035440Y-15376640D01*
X3866493Y-15360000D01*
X3753509Y-15360000D01*
X3584562Y-15376640D01*
X3367786Y-15442398D01*
X3168004Y-15549184D01*
X2992894Y-15692893D01*
X2849185Y-15868003D01*
X2742399Y-16067785D01*
X2676641Y-16284561D01*
X2654437Y-16510000D01*
X2676641Y-16735439D01*
X2742399Y-16952215D01*
X2849185Y-17151997D01*
X2992894Y-17327107D01*
X3087807Y-17405000D01*
X375000Y-17405000D01*
X375000Y-10160000D01*
X3289436Y-10160000D01*
X3311640Y-10385439D01*
X3377398Y-10602215D01*
X3484184Y-10801997D01*
X3627893Y-10977107D01*
X3803003Y-11120816D01*
X4002785Y-11227602D01*
X4219561Y-11293360D01*
X4388508Y-11310000D01*
X4501492Y-11310000D01*
X4670439Y-11293360D01*
X4887215Y-11227602D01*
X5086997Y-11120816D01*
X5262107Y-10977107D01*
X5405816Y-10801997D01*
X5512602Y-10602215D01*
X5578360Y-10385439D01*
X5600564Y-10160000D01*
X5829436Y-10160000D01*
X5851640Y-10385439D01*
X5917398Y-10602215D01*
X6024184Y-10801997D01*
X6167893Y-10977107D01*
X6343003Y-11120816D01*
X6542785Y-11227602D01*
X6759561Y-11293360D01*
X6928508Y-11310000D01*
X7041492Y-11310000D01*
X7210439Y-11293360D01*
X7427215Y-11227602D01*
X7626997Y-11120816D01*
X7802107Y-10977107D01*
X7945816Y-10801997D01*
X8052602Y-10602215D01*
X8118360Y-10385439D01*
X8140564Y-10160000D01*
X8118360Y-9934561D01*
X8052602Y-9717785D01*
X7945816Y-9518003D01*
X7802107Y-9342893D01*
X7626997Y-9199184D01*
X7427215Y-9092398D01*
X7210439Y-9026640D01*
X7041492Y-9010000D01*
X6928508Y-9010000D01*
X6759561Y-9026640D01*
X6542785Y-9092398D01*
X6343003Y-9199184D01*
X6167893Y-9342893D01*
X6024184Y-9518003D01*
X5917398Y-9717785D01*
X5851640Y-9934561D01*
X5829436Y-10160000D01*
X5600564Y-10160000D01*
X5578360Y-9934561D01*
X5512602Y-9717785D01*
X5405816Y-9518003D01*
X5262107Y-9342893D01*
X5086997Y-9199184D01*
X4887215Y-9092398D01*
X4670439Y-9026640D01*
X4501492Y-9010000D01*
X4388508Y-9010000D01*
X4219561Y-9026640D01*
X4002785Y-9092398D01*
X3803003Y-9199184D01*
X3627893Y-9342893D01*
X3484184Y-9518003D01*
X3377398Y-9717785D01*
X3311640Y-9934561D01*
X3289436Y-10160000D01*
X375000Y-10160000D01*
X375000Y-7620000D01*
X3289436Y-7620000D01*
X3311640Y-7845439D01*
X3377398Y-8062215D01*
X3484184Y-8261997D01*
X3627893Y-8437107D01*
X3803003Y-8580816D01*
X4002785Y-8687602D01*
X4219561Y-8753360D01*
X4388508Y-8770000D01*
X4501492Y-8770000D01*
X4670439Y-8753360D01*
X4887215Y-8687602D01*
X5086997Y-8580816D01*
X5262107Y-8437107D01*
X5405816Y-8261997D01*
X5512602Y-8062215D01*
X5578360Y-7845439D01*
X5600564Y-7620000D01*
X5578360Y-7394561D01*
X5512602Y-7177785D01*
X5405816Y-6978003D01*
X5262107Y-6802893D01*
X5086997Y-6659184D01*
X4887215Y-6552398D01*
X4670439Y-6486640D01*
X4501492Y-6470000D01*
X4388508Y-6470000D01*
X4219561Y-6486640D01*
X4002785Y-6552398D01*
X3803003Y-6659184D01*
X3627893Y-6802893D01*
X3484184Y-6978003D01*
X3377398Y-7177785D01*
X3311640Y-7394561D01*
X3289436Y-7620000D01*
X375000Y-7620000D01*
X375000Y-4230000D01*
X3293549Y-4230000D01*
X3293549Y-5930000D01*
X3299341Y-5988810D01*
X3316496Y-6045360D01*
X3344353Y-6097477D01*
X3381842Y-6143158D01*
X3427523Y-6180647D01*
X3479640Y-6208504D01*
X3536190Y-6225659D01*
X3595000Y-6231451D01*
X5295000Y-6231451D01*
X5353810Y-6225659D01*
X5410360Y-6208504D01*
X5462477Y-6180647D01*
X5508158Y-6143158D01*
X5512391Y-6138000D01*
X5550684Y-6138000D01*
X6096704Y-6684021D01*
X6121402Y-6808182D01*
X6174169Y-6935574D01*
X6250775Y-7050224D01*
X6348277Y-7147726D01*
X6462927Y-7224332D01*
X6590319Y-7277099D01*
X6725557Y-7304000D01*
X6863445Y-7304000D01*
X6998683Y-7277099D01*
X7126075Y-7224332D01*
X7240725Y-7147726D01*
X7338227Y-7050224D01*
X7414833Y-6935574D01*
X7467600Y-6808182D01*
X7494501Y-6672944D01*
X7494501Y-6535056D01*
X7467600Y-6399818D01*
X7414833Y-6272426D01*
X7338227Y-6157776D01*
X7240725Y-6060274D01*
X7126075Y-5983668D01*
X6998683Y-5930901D01*
X6874522Y-5906203D01*
X6186513Y-5218195D01*
X6169291Y-5197210D01*
X6085543Y-5128479D01*
X5989995Y-5077408D01*
X5886320Y-5045958D01*
X5805519Y-5038000D01*
X5805509Y-5038000D01*
X5778501Y-5035340D01*
X5751493Y-5038000D01*
X5596451Y-5038000D01*
X5596451Y-4230000D01*
X5590659Y-4171190D01*
X5573504Y-4114640D01*
X5545647Y-4062523D01*
X5508158Y-4016842D01*
X5462477Y-3979353D01*
X5410360Y-3951496D01*
X5353810Y-3934341D01*
X5295000Y-3928549D01*
X3595000Y-3928549D01*
X3536190Y-3934341D01*
X3479640Y-3951496D01*
X3427523Y-3979353D01*
X3381842Y-4016842D01*
X3344353Y-4062523D01*
X3316496Y-4114640D01*
X3299341Y-4171190D01*
X3293549Y-4230000D01*
X375000Y-4230000D01*
X375000Y-375000D01*
X3087806Y-375000D01*
X2992893Y-452893D01*
G36*
X15692893Y-452893D02*
X15549184Y-628003D01*
X15442398Y-827785D01*
X15376640Y-1044561D01*
X15354436Y-1270000D01*
X15376640Y-1495439D01*
X15442398Y-1712215D01*
X15549184Y-1911997D01*
X15692893Y-2087107D01*
X15868003Y-2230816D01*
X16067785Y-2337602D01*
X16284561Y-2403360D01*
X16453508Y-2420000D01*
X16566492Y-2420000D01*
X16735439Y-2403360D01*
X16952215Y-2337602D01*
X16991121Y-2316806D01*
X17483267Y-2808953D01*
X17495789Y-2824211D01*
X17511047Y-2836733D01*
X17511049Y-2836735D01*
X17524957Y-2848149D01*
X17556697Y-2874197D01*
X17626186Y-2911340D01*
X17701586Y-2934212D01*
X17760353Y-2940000D01*
X17760363Y-2940000D01*
X17779999Y-2941934D01*
X17799635Y-2940000D01*
X18223916Y-2940000D01*
X21444000Y-6160085D01*
X21444001Y-7219344D01*
X21442065Y-7239000D01*
X21449788Y-7317413D01*
X21472661Y-7392814D01*
X21509803Y-7462302D01*
X21547265Y-7507950D01*
X21547268Y-7507953D01*
X21559790Y-7523211D01*
X21575048Y-7535733D01*
X23493263Y-9453948D01*
X23505789Y-9469211D01*
X23562580Y-9515818D01*
X23566697Y-9519197D01*
X23636186Y-9556340D01*
X23711586Y-9579212D01*
X23790000Y-9586935D01*
X23809647Y-9585000D01*
X24024011Y-9585000D01*
X24021549Y-9610000D01*
X24021549Y-10060000D01*
X24027341Y-10118810D01*
X24044496Y-10175360D01*
X24072353Y-10227477D01*
X24109842Y-10273158D01*
X24155523Y-10310647D01*
X24207640Y-10338504D01*
X24264190Y-10355659D01*
X24323000Y-10361451D01*
X25773000Y-10361451D01*
X25831810Y-10355659D01*
X25888360Y-10338504D01*
X25894916Y-10335000D01*
X26799418Y-10335000D01*
X26811668Y-10364574D01*
X26888274Y-10479224D01*
X26985776Y-10576726D01*
X27100426Y-10653332D01*
X27227818Y-10706099D01*
X27363056Y-10733000D01*
X27500944Y-10733000D01*
X27636182Y-10706099D01*
X27763574Y-10653332D01*
X27878224Y-10576726D01*
X27975726Y-10479224D01*
X28052332Y-10364574D01*
X28105099Y-10237182D01*
X28132000Y-10101944D01*
X28132000Y-9964056D01*
X28125117Y-9929451D01*
X29401499Y-9929451D01*
X29443775Y-9971727D01*
X29558425Y-10048333D01*
X29685817Y-10101100D01*
X29821055Y-10128001D01*
X29958943Y-10128001D01*
X30094181Y-10101100D01*
X30221573Y-10048333D01*
X30336223Y-9971727D01*
X30433725Y-9874225D01*
X30510331Y-9759575D01*
X30563098Y-9632183D01*
X30589999Y-9496945D01*
X30589999Y-9359057D01*
X30563098Y-9223819D01*
X30510331Y-9096427D01*
X30433725Y-8981777D01*
X30336223Y-8884275D01*
X30221573Y-8807669D01*
X30094181Y-8754902D01*
X29958943Y-8728001D01*
X29821055Y-8728001D01*
X29739951Y-8744134D01*
X29739951Y-8578000D01*
X29734159Y-8519190D01*
X29717004Y-8462640D01*
X29711851Y-8453000D01*
X29717004Y-8443360D01*
X29734159Y-8386810D01*
X29739951Y-8328000D01*
X29739951Y-7928000D01*
X29734159Y-7869190D01*
X29717004Y-7812640D01*
X29711851Y-7803000D01*
X29717004Y-7793360D01*
X29734159Y-7736810D01*
X29739951Y-7678000D01*
X29739951Y-7278000D01*
X29734159Y-7219190D01*
X29717004Y-7162640D01*
X29689147Y-7110523D01*
X29651658Y-7064842D01*
X29605977Y-7027353D01*
X29553860Y-6999496D01*
X29497310Y-6982341D01*
X29438500Y-6976549D01*
X28088500Y-6976549D01*
X28029690Y-6982341D01*
X27973140Y-6999496D01*
X27921023Y-7027353D01*
X27875342Y-7064842D01*
X27837853Y-7110523D01*
X27809996Y-7162640D01*
X27799192Y-7198256D01*
X27757996Y-7164448D01*
X27709097Y-7131775D01*
X27656981Y-7103919D01*
X27602647Y-7081413D01*
X27546095Y-7064258D01*
X27488415Y-7052785D01*
X27429606Y-7046993D01*
X27414873Y-7046993D01*
X27400201Y-7045548D01*
X27100201Y-7045548D01*
X27041391Y-7051340D01*
X27000201Y-7063835D01*
X26959011Y-7051340D01*
X26900201Y-7045548D01*
X26600201Y-7045548D01*
X26585529Y-7046993D01*
X26570796Y-7046993D01*
X26511987Y-7052785D01*
X26454307Y-7064258D01*
X26397755Y-7081413D01*
X26343421Y-7103919D01*
X26291305Y-7131775D01*
X26242406Y-7164448D01*
X26196724Y-7201938D01*
X26155139Y-7243523D01*
X26117649Y-7289205D01*
X26084976Y-7338104D01*
X26074451Y-7357795D01*
X26074451Y-7010000D01*
X26068659Y-6951190D01*
X26051504Y-6894640D01*
X26023647Y-6842523D01*
X25986158Y-6796842D01*
X25940477Y-6759353D01*
X25888360Y-6731496D01*
X25831810Y-6714341D01*
X25773000Y-6708549D01*
X24323000Y-6708549D01*
X24264190Y-6714341D01*
X24207640Y-6731496D01*
X24194960Y-6738274D01*
X23768000Y-6311315D01*
X23768000Y-4249056D01*
X23874500Y-4249056D01*
X23874500Y-4386944D01*
X23901401Y-4522182D01*
X23954168Y-4649574D01*
X24030774Y-4764224D01*
X24128276Y-4861726D01*
X24242926Y-4938332D01*
X24370318Y-4991099D01*
X24505556Y-5018000D01*
X24635549Y-5018000D01*
X24635549Y-5209250D01*
X24645545Y-5310736D01*
X24675147Y-5408322D01*
X24723219Y-5498258D01*
X24787912Y-5577088D01*
X24866742Y-5641781D01*
X24956678Y-5689853D01*
X25054264Y-5719455D01*
X25155750Y-5729451D01*
X25593250Y-5729451D01*
X25694736Y-5719455D01*
X25792322Y-5689853D01*
X25882258Y-5641781D01*
X25961088Y-5577088D01*
X26025781Y-5498258D01*
X26073853Y-5408322D01*
X26103455Y-5310736D01*
X26113451Y-5209250D01*
X26113451Y-4696750D01*
X26103455Y-4595264D01*
X26073853Y-4497678D01*
X26025781Y-4407742D01*
X25961088Y-4328912D01*
X25882258Y-4264219D01*
X25792322Y-4216147D01*
X25694736Y-4186545D01*
X25593250Y-4176549D01*
X25260077Y-4176549D01*
X25247599Y-4113818D01*
X25194832Y-3986426D01*
X25118226Y-3871776D01*
X25020724Y-3774274D01*
X24906074Y-3697668D01*
X24778682Y-3644901D01*
X24643444Y-3618000D01*
X24505556Y-3618000D01*
X24370318Y-3644901D01*
X24242926Y-3697668D01*
X24128276Y-3774274D01*
X24030774Y-3871776D01*
X23954168Y-3986426D01*
X23901401Y-4113818D01*
X23874500Y-4249056D01*
X23768000Y-4249056D01*
X23768000Y-2361935D01*
X23904561Y-2403360D01*
X24073508Y-2420000D01*
X24186492Y-2420000D01*
X24355439Y-2403360D01*
X24572215Y-2337602D01*
X24771997Y-2230816D01*
X24947107Y-2087107D01*
X25090816Y-1911997D01*
X25197602Y-1712215D01*
X25263360Y-1495439D01*
X25285564Y-1270000D01*
X25263360Y-1044561D01*
X25197602Y-827785D01*
X25090816Y-628003D01*
X24947107Y-452893D01*
X24852194Y-375000D01*
X28487806Y-375000D01*
X28392893Y-452893D01*
X28249184Y-628003D01*
X28142398Y-827785D01*
X28076640Y-1044561D01*
X28054436Y-1270000D01*
X28076640Y-1495439D01*
X28142398Y-1712215D01*
X28249184Y-1911997D01*
X28392893Y-2087107D01*
X28568003Y-2230816D01*
X28660000Y-2279990D01*
X28660001Y-3074182D01*
X27923480Y-3810703D01*
X27799318Y-3835401D01*
X27671926Y-3888168D01*
X27557276Y-3964774D01*
X27459774Y-4062276D01*
X27383168Y-4176926D01*
X27330401Y-4304318D01*
X27303500Y-4439556D01*
X27303500Y-4577444D01*
X27330401Y-4712682D01*
X27383168Y-4840074D01*
X27459774Y-4954724D01*
X27557276Y-5052226D01*
X27671926Y-5128832D01*
X27799318Y-5181599D01*
X27934556Y-5208500D01*
X28072444Y-5208500D01*
X28207682Y-5181599D01*
X28335074Y-5128832D01*
X28449724Y-5052226D01*
X28547226Y-4954724D01*
X28623832Y-4840074D01*
X28676599Y-4712682D01*
X28701297Y-4588520D01*
X29579804Y-3710013D01*
X29600790Y-3692790D01*
X29630831Y-3656186D01*
X29669521Y-3609042D01*
X29720592Y-3513494D01*
X29752042Y-3409819D01*
X29752215Y-3408065D01*
X29760000Y-3329018D01*
X29760000Y-3329011D01*
X29762660Y-3302000D01*
X29760000Y-3274989D01*
X29760000Y-2279990D01*
X29851997Y-2230816D01*
X30027107Y-2087107D01*
X30170816Y-1911997D01*
X30277602Y-1712215D01*
X30343360Y-1495439D01*
X30365564Y-1270000D01*
X30343360Y-1044561D01*
X30277602Y-827785D01*
X30170816Y-628003D01*
X30027107Y-452893D01*
X29932194Y-375000D01*
X32645001Y-375000D01*
X32645000Y-17405000D01*
X29932195Y-17405000D01*
X30027108Y-17327107D01*
X30170817Y-17151997D01*
X30277603Y-16952215D01*
X30343361Y-16735439D01*
X30365565Y-16510000D01*
X30343361Y-16284561D01*
X30277603Y-16067785D01*
X30170817Y-15868003D01*
X30027108Y-15692893D01*
X29851998Y-15549184D01*
X29652216Y-15442398D01*
X29435440Y-15376640D01*
X29266493Y-15360000D01*
X29153509Y-15360000D01*
X28984562Y-15376640D01*
X28884739Y-15406921D01*
X28236000Y-14758182D01*
X28236000Y-14025834D01*
X28306332Y-13920574D01*
X28359099Y-13793182D01*
X28386000Y-13657944D01*
X28386000Y-13520056D01*
X28359099Y-13384818D01*
X28306332Y-13257426D01*
X28229726Y-13142776D01*
X28132224Y-13045274D01*
X28017574Y-12968668D01*
X27890182Y-12915901D01*
X27754944Y-12889000D01*
X27617056Y-12889000D01*
X27481818Y-12915901D01*
X27354426Y-12968668D01*
X27324000Y-12988998D01*
X27324000Y-12084635D01*
X27325934Y-12064999D01*
X27324000Y-12045363D01*
X27324000Y-12045353D01*
X27318212Y-11986586D01*
X27295340Y-11911186D01*
X27258197Y-11841697D01*
X27231363Y-11809000D01*
X27880315Y-11809000D01*
X29461549Y-13390235D01*
X29461549Y-13591250D01*
X29471545Y-13692736D01*
X29501147Y-13790322D01*
X29549219Y-13880258D01*
X29613912Y-13959088D01*
X29692742Y-14023781D01*
X29782678Y-14071853D01*
X29880264Y-14101455D01*
X29981750Y-14111451D01*
X30419250Y-14111451D01*
X30520736Y-14101455D01*
X30618322Y-14071853D01*
X30708258Y-14023781D01*
X30787088Y-13959088D01*
X30851781Y-13880258D01*
X30899853Y-13790322D01*
X30929455Y-13692736D01*
X30939451Y-13591250D01*
X30939451Y-13262588D01*
X30955974Y-13267600D01*
X31034388Y-13275323D01*
X31036549Y-13275110D01*
X31036549Y-13591250D01*
X31046545Y-13692736D01*
X31076147Y-13790322D01*
X31124219Y-13880258D01*
X31188912Y-13959088D01*
X31267742Y-14023781D01*
X31357678Y-14071853D01*
X31455264Y-14101455D01*
X31556750Y-14111451D01*
X31994250Y-14111451D01*
X32095736Y-14101455D01*
X32193322Y-14071853D01*
X32283258Y-14023781D01*
X32362088Y-13959088D01*
X32426781Y-13880258D01*
X32474853Y-13790322D01*
X32504455Y-13692736D01*
X32514451Y-13591250D01*
X32514451Y-13078750D01*
X32504455Y-12977264D01*
X32474853Y-12879678D01*
X32426781Y-12789742D01*
X32362088Y-12710912D01*
X32283258Y-12646219D01*
X32193322Y-12598147D01*
X32095736Y-12568545D01*
X31994250Y-12558549D01*
X31560779Y-12558549D01*
X31537191Y-12539191D01*
X31467702Y-12502048D01*
X31392302Y-12479176D01*
X31333535Y-12473388D01*
X31333534Y-12473388D01*
X31313888Y-12471453D01*
X31294242Y-12473388D01*
X31200073Y-12473388D01*
X30713237Y-11986552D01*
X30700711Y-11971289D01*
X30662441Y-11939881D01*
X30655832Y-11923926D01*
X30579226Y-11809276D01*
X30481724Y-11711774D01*
X30367074Y-11635168D01*
X30239682Y-11582401D01*
X30104444Y-11555500D01*
X29966556Y-11555500D01*
X29831318Y-11582401D01*
X29703926Y-11635168D01*
X29589276Y-11711774D01*
X29491774Y-11809276D01*
X29415168Y-11923926D01*
X29362401Y-12051318D01*
X29344416Y-12141731D01*
X28342735Y-11140050D01*
X28330211Y-11124789D01*
X28269303Y-11074803D01*
X28199814Y-11037660D01*
X28124414Y-11014788D01*
X28065647Y-11009000D01*
X28065646Y-11009000D01*
X28046000Y-11007065D01*
X28026354Y-11009000D01*
X26689635Y-11009000D01*
X26669999Y-11007066D01*
X26650363Y-11009000D01*
X26433685Y-11009000D01*
X26290737Y-10866052D01*
X26278211Y-10850789D01*
X26217303Y-10800803D01*
X26147814Y-10763660D01*
X26072414Y-10740788D01*
X26017810Y-10735410D01*
X25986158Y-10696842D01*
X25940477Y-10659353D01*
X25888360Y-10631496D01*
X25831810Y-10614341D01*
X25773000Y-10608549D01*
X24323000Y-10608549D01*
X24264190Y-10614341D01*
X24207640Y-10631496D01*
X24155523Y-10659353D01*
X24109842Y-10696842D01*
X24072353Y-10742523D01*
X24044496Y-10794640D01*
X24027341Y-10851190D01*
X24021549Y-10910000D01*
X24021549Y-11360000D01*
X24027341Y-11418810D01*
X24039836Y-11460000D01*
X24027341Y-11501190D01*
X24021549Y-11560000D01*
X24021549Y-12010000D01*
X24027341Y-12068810D01*
X24039836Y-12110000D01*
X24027341Y-12151190D01*
X24021549Y-12210000D01*
X24021549Y-12660000D01*
X24027341Y-12718810D01*
X24039836Y-12760000D01*
X24027341Y-12801190D01*
X24021549Y-12860000D01*
X24021549Y-13310000D01*
X24027341Y-13368810D01*
X24044496Y-13425360D01*
X24072353Y-13477477D01*
X24109842Y-13523158D01*
X24155523Y-13560647D01*
X24207640Y-13588504D01*
X24264190Y-13605659D01*
X24323000Y-13611451D01*
X24648000Y-13611451D01*
X24648001Y-14156314D01*
X24244326Y-14559989D01*
X20619646Y-14559989D01*
X20600010Y-14558055D01*
X20580374Y-14559989D01*
X20580364Y-14559989D01*
X20521597Y-14565777D01*
X20446197Y-14588649D01*
X20376708Y-14625792D01*
X20376706Y-14625793D01*
X20376707Y-14625793D01*
X20331060Y-14663254D01*
X20331058Y-14663256D01*
X20315800Y-14675778D01*
X20303278Y-14691036D01*
X19531121Y-15463193D01*
X19492216Y-15442398D01*
X19275440Y-15376640D01*
X19106493Y-15360000D01*
X18993509Y-15360000D01*
X18824562Y-15376640D01*
X18607786Y-15442398D01*
X18408004Y-15549184D01*
X18232894Y-15692893D01*
X18089185Y-15868003D01*
X17982399Y-16067785D01*
X17916641Y-16284561D01*
X17894437Y-16510000D01*
X17916641Y-16735439D01*
X17982399Y-16952215D01*
X18089185Y-17151997D01*
X18232894Y-17327107D01*
X18327807Y-17405000D01*
X17232195Y-17405000D01*
X17327108Y-17327107D01*
X17470817Y-17151997D01*
X17577603Y-16952215D01*
X17643361Y-16735439D01*
X17665565Y-16510000D01*
X17643361Y-16284561D01*
X17577603Y-16067785D01*
X17556807Y-16028879D01*
X17618917Y-15966770D01*
X17646404Y-15944212D01*
X17658930Y-15928949D01*
X19416949Y-14170930D01*
X19432211Y-14158405D01*
X19482197Y-14097497D01*
X19519340Y-14028008D01*
X19542212Y-13952608D01*
X19548000Y-13893841D01*
X19548000Y-13893831D01*
X19549934Y-13874195D01*
X19548000Y-13854559D01*
X19548000Y-13611451D01*
X19873000Y-13611451D01*
X19931810Y-13605659D01*
X19988360Y-13588504D01*
X20040477Y-13560647D01*
X20086158Y-13523158D01*
X20123647Y-13477477D01*
X20151504Y-13425360D01*
X20168659Y-13368810D01*
X20174451Y-13310000D01*
X20174451Y-12860000D01*
X20168659Y-12801190D01*
X20156164Y-12760000D01*
X20157502Y-12755588D01*
X20242426Y-12812332D01*
X20369818Y-12865099D01*
X20505056Y-12892000D01*
X20642944Y-12892000D01*
X20778182Y-12865099D01*
X20905574Y-12812332D01*
X21020224Y-12735726D01*
X21117726Y-12638224D01*
X21194332Y-12523574D01*
X21247099Y-12396182D01*
X21274000Y-12260944D01*
X21274000Y-12123056D01*
X21247099Y-11987818D01*
X21194332Y-11860426D01*
X21117726Y-11745776D01*
X21020224Y-11648274D01*
X20905574Y-11571668D01*
X20820000Y-11536222D01*
X20820000Y-10057549D01*
X20822418Y-10032999D01*
X20820000Y-10008449D01*
X20820000Y-10008440D01*
X20812765Y-9934983D01*
X20784175Y-9840733D01*
X20737746Y-9753871D01*
X20675264Y-9677736D01*
X20656181Y-9662075D01*
X20492928Y-9498823D01*
X20477264Y-9479736D01*
X20401129Y-9417254D01*
X20349193Y-9389494D01*
X20441950Y-9296737D01*
X20457212Y-9284212D01*
X20507198Y-9223304D01*
X20544341Y-9153815D01*
X20567213Y-9078415D01*
X20573001Y-9019648D01*
X20573001Y-9019638D01*
X20574935Y-9000002D01*
X20573001Y-8980366D01*
X20573001Y-6789646D01*
X20574936Y-6769999D01*
X20567213Y-6691585D01*
X20544341Y-6616185D01*
X20507198Y-6546696D01*
X20469736Y-6501049D01*
X20457212Y-6485788D01*
X20441949Y-6473262D01*
X19540238Y-5571551D01*
X19527712Y-5556288D01*
X19466804Y-5506302D01*
X19397315Y-5469159D01*
X19321915Y-5446287D01*
X19263148Y-5440499D01*
X19263147Y-5440499D01*
X19243501Y-5438564D01*
X19223855Y-5440499D01*
X18182147Y-5440499D01*
X18162501Y-5438564D01*
X18142854Y-5440499D01*
X18084087Y-5446287D01*
X18008687Y-5469159D01*
X17939198Y-5506302D01*
X17878290Y-5556288D01*
X17865764Y-5571551D01*
X17741315Y-5696000D01*
X14834186Y-5696000D01*
X14179500Y-5041315D01*
X14179500Y-3975684D01*
X14238944Y-3916240D01*
X14254211Y-3903711D01*
X14304197Y-3842803D01*
X14341340Y-3773314D01*
X14364212Y-3697914D01*
X14370000Y-3639147D01*
X14370000Y-3639146D01*
X14371935Y-3619500D01*
X14370000Y-3599853D01*
X14370000Y-2350408D01*
X14412215Y-2337602D01*
X14611997Y-2230816D01*
X14787107Y-2087107D01*
X14930816Y-1911997D01*
X15037602Y-1712215D01*
X15103360Y-1495439D01*
X15125564Y-1270000D01*
X15103360Y-1044561D01*
X15037602Y-827785D01*
X14930816Y-628003D01*
X14787107Y-452893D01*
X14692194Y-375000D01*
X15787806Y-375000D01*
X15692893Y-452893D01*
X15692893Y-452893D01*
G37*
X15692893Y-452893D02*
X15549184Y-628003D01*
X15442398Y-827785D01*
X15376640Y-1044561D01*
X15354436Y-1270000D01*
X15376640Y-1495439D01*
X15442398Y-1712215D01*
X15549184Y-1911997D01*
X15692893Y-2087107D01*
X15868003Y-2230816D01*
X16067785Y-2337602D01*
X16284561Y-2403360D01*
X16453508Y-2420000D01*
X16566492Y-2420000D01*
X16735439Y-2403360D01*
X16952215Y-2337602D01*
X16991121Y-2316806D01*
X17483267Y-2808953D01*
X17495789Y-2824211D01*
X17511047Y-2836733D01*
X17511049Y-2836735D01*
X17524957Y-2848149D01*
X17556697Y-2874197D01*
X17626186Y-2911340D01*
X17701586Y-2934212D01*
X17760353Y-2940000D01*
X17760363Y-2940000D01*
X17779999Y-2941934D01*
X17799635Y-2940000D01*
X18223916Y-2940000D01*
X21444000Y-6160085D01*
X21444001Y-7219344D01*
X21442065Y-7239000D01*
X21449788Y-7317413D01*
X21472661Y-7392814D01*
X21509803Y-7462302D01*
X21547265Y-7507950D01*
X21547268Y-7507953D01*
X21559790Y-7523211D01*
X21575048Y-7535733D01*
X23493263Y-9453948D01*
X23505789Y-9469211D01*
X23562580Y-9515818D01*
X23566697Y-9519197D01*
X23636186Y-9556340D01*
X23711586Y-9579212D01*
X23790000Y-9586935D01*
X23809647Y-9585000D01*
X24024011Y-9585000D01*
X24021549Y-9610000D01*
X24021549Y-10060000D01*
X24027341Y-10118810D01*
X24044496Y-10175360D01*
X24072353Y-10227477D01*
X24109842Y-10273158D01*
X24155523Y-10310647D01*
X24207640Y-10338504D01*
X24264190Y-10355659D01*
X24323000Y-10361451D01*
X25773000Y-10361451D01*
X25831810Y-10355659D01*
X25888360Y-10338504D01*
X25894916Y-10335000D01*
X26799418Y-10335000D01*
X26811668Y-10364574D01*
X26888274Y-10479224D01*
X26985776Y-10576726D01*
X27100426Y-10653332D01*
X27227818Y-10706099D01*
X27363056Y-10733000D01*
X27500944Y-10733000D01*
X27636182Y-10706099D01*
X27763574Y-10653332D01*
X27878224Y-10576726D01*
X27975726Y-10479224D01*
X28052332Y-10364574D01*
X28105099Y-10237182D01*
X28132000Y-10101944D01*
X28132000Y-9964056D01*
X28125117Y-9929451D01*
X29401499Y-9929451D01*
X29443775Y-9971727D01*
X29558425Y-10048333D01*
X29685817Y-10101100D01*
X29821055Y-10128001D01*
X29958943Y-10128001D01*
X30094181Y-10101100D01*
X30221573Y-10048333D01*
X30336223Y-9971727D01*
X30433725Y-9874225D01*
X30510331Y-9759575D01*
X30563098Y-9632183D01*
X30589999Y-9496945D01*
X30589999Y-9359057D01*
X30563098Y-9223819D01*
X30510331Y-9096427D01*
X30433725Y-8981777D01*
X30336223Y-8884275D01*
X30221573Y-8807669D01*
X30094181Y-8754902D01*
X29958943Y-8728001D01*
X29821055Y-8728001D01*
X29739951Y-8744134D01*
X29739951Y-8578000D01*
X29734159Y-8519190D01*
X29717004Y-8462640D01*
X29711851Y-8453000D01*
X29717004Y-8443360D01*
X29734159Y-8386810D01*
X29739951Y-8328000D01*
X29739951Y-7928000D01*
X29734159Y-7869190D01*
X29717004Y-7812640D01*
X29711851Y-7803000D01*
X29717004Y-7793360D01*
X29734159Y-7736810D01*
X29739951Y-7678000D01*
X29739951Y-7278000D01*
X29734159Y-7219190D01*
X29717004Y-7162640D01*
X29689147Y-7110523D01*
X29651658Y-7064842D01*
X29605977Y-7027353D01*
X29553860Y-6999496D01*
X29497310Y-6982341D01*
X29438500Y-6976549D01*
X28088500Y-6976549D01*
X28029690Y-6982341D01*
X27973140Y-6999496D01*
X27921023Y-7027353D01*
X27875342Y-7064842D01*
X27837853Y-7110523D01*
X27809996Y-7162640D01*
X27799192Y-7198256D01*
X27757996Y-7164448D01*
X27709097Y-7131775D01*
X27656981Y-7103919D01*
X27602647Y-7081413D01*
X27546095Y-7064258D01*
X27488415Y-7052785D01*
X27429606Y-7046993D01*
X27414873Y-7046993D01*
X27400201Y-7045548D01*
X27100201Y-7045548D01*
X27041391Y-7051340D01*
X27000201Y-7063835D01*
X26959011Y-7051340D01*
X26900201Y-7045548D01*
X26600201Y-7045548D01*
X26585529Y-7046993D01*
X26570796Y-7046993D01*
X26511987Y-7052785D01*
X26454307Y-7064258D01*
X26397755Y-7081413D01*
X26343421Y-7103919D01*
X26291305Y-7131775D01*
X26242406Y-7164448D01*
X26196724Y-7201938D01*
X26155139Y-7243523D01*
X26117649Y-7289205D01*
X26084976Y-7338104D01*
X26074451Y-7357795D01*
X26074451Y-7010000D01*
X26068659Y-6951190D01*
X26051504Y-6894640D01*
X26023647Y-6842523D01*
X25986158Y-6796842D01*
X25940477Y-6759353D01*
X25888360Y-6731496D01*
X25831810Y-6714341D01*
X25773000Y-6708549D01*
X24323000Y-6708549D01*
X24264190Y-6714341D01*
X24207640Y-6731496D01*
X24194960Y-6738274D01*
X23768000Y-6311315D01*
X23768000Y-4249056D01*
X23874500Y-4249056D01*
X23874500Y-4386944D01*
X23901401Y-4522182D01*
X23954168Y-4649574D01*
X24030774Y-4764224D01*
X24128276Y-4861726D01*
X24242926Y-4938332D01*
X24370318Y-4991099D01*
X24505556Y-5018000D01*
X24635549Y-5018000D01*
X24635549Y-5209250D01*
X24645545Y-5310736D01*
X24675147Y-5408322D01*
X24723219Y-5498258D01*
X24787912Y-5577088D01*
X24866742Y-5641781D01*
X24956678Y-5689853D01*
X25054264Y-5719455D01*
X25155750Y-5729451D01*
X25593250Y-5729451D01*
X25694736Y-5719455D01*
X25792322Y-5689853D01*
X25882258Y-5641781D01*
X25961088Y-5577088D01*
X26025781Y-5498258D01*
X26073853Y-5408322D01*
X26103455Y-5310736D01*
X26113451Y-5209250D01*
X26113451Y-4696750D01*
X26103455Y-4595264D01*
X26073853Y-4497678D01*
X26025781Y-4407742D01*
X25961088Y-4328912D01*
X25882258Y-4264219D01*
X25792322Y-4216147D01*
X25694736Y-4186545D01*
X25593250Y-4176549D01*
X25260077Y-4176549D01*
X25247599Y-4113818D01*
X25194832Y-3986426D01*
X25118226Y-3871776D01*
X25020724Y-3774274D01*
X24906074Y-3697668D01*
X24778682Y-3644901D01*
X24643444Y-3618000D01*
X24505556Y-3618000D01*
X24370318Y-3644901D01*
X24242926Y-3697668D01*
X24128276Y-3774274D01*
X24030774Y-3871776D01*
X23954168Y-3986426D01*
X23901401Y-4113818D01*
X23874500Y-4249056D01*
X23768000Y-4249056D01*
X23768000Y-2361935D01*
X23904561Y-2403360D01*
X24073508Y-2420000D01*
X24186492Y-2420000D01*
X24355439Y-2403360D01*
X24572215Y-2337602D01*
X24771997Y-2230816D01*
X24947107Y-2087107D01*
X25090816Y-1911997D01*
X25197602Y-1712215D01*
X25263360Y-1495439D01*
X25285564Y-1270000D01*
X25263360Y-1044561D01*
X25197602Y-827785D01*
X25090816Y-628003D01*
X24947107Y-452893D01*
X24852194Y-375000D01*
X28487806Y-375000D01*
X28392893Y-452893D01*
X28249184Y-628003D01*
X28142398Y-827785D01*
X28076640Y-1044561D01*
X28054436Y-1270000D01*
X28076640Y-1495439D01*
X28142398Y-1712215D01*
X28249184Y-1911997D01*
X28392893Y-2087107D01*
X28568003Y-2230816D01*
X28660000Y-2279990D01*
X28660001Y-3074182D01*
X27923480Y-3810703D01*
X27799318Y-3835401D01*
X27671926Y-3888168D01*
X27557276Y-3964774D01*
X27459774Y-4062276D01*
X27383168Y-4176926D01*
X27330401Y-4304318D01*
X27303500Y-4439556D01*
X27303500Y-4577444D01*
X27330401Y-4712682D01*
X27383168Y-4840074D01*
X27459774Y-4954724D01*
X27557276Y-5052226D01*
X27671926Y-5128832D01*
X27799318Y-5181599D01*
X27934556Y-5208500D01*
X28072444Y-5208500D01*
X28207682Y-5181599D01*
X28335074Y-5128832D01*
X28449724Y-5052226D01*
X28547226Y-4954724D01*
X28623832Y-4840074D01*
X28676599Y-4712682D01*
X28701297Y-4588520D01*
X29579804Y-3710013D01*
X29600790Y-3692790D01*
X29630831Y-3656186D01*
X29669521Y-3609042D01*
X29720592Y-3513494D01*
X29752042Y-3409819D01*
X29752215Y-3408065D01*
X29760000Y-3329018D01*
X29760000Y-3329011D01*
X29762660Y-3302000D01*
X29760000Y-3274989D01*
X29760000Y-2279990D01*
X29851997Y-2230816D01*
X30027107Y-2087107D01*
X30170816Y-1911997D01*
X30277602Y-1712215D01*
X30343360Y-1495439D01*
X30365564Y-1270000D01*
X30343360Y-1044561D01*
X30277602Y-827785D01*
X30170816Y-628003D01*
X30027107Y-452893D01*
X29932194Y-375000D01*
X32645001Y-375000D01*
X32645000Y-17405000D01*
X29932195Y-17405000D01*
X30027108Y-17327107D01*
X30170817Y-17151997D01*
X30277603Y-16952215D01*
X30343361Y-16735439D01*
X30365565Y-16510000D01*
X30343361Y-16284561D01*
X30277603Y-16067785D01*
X30170817Y-15868003D01*
X30027108Y-15692893D01*
X29851998Y-15549184D01*
X29652216Y-15442398D01*
X29435440Y-15376640D01*
X29266493Y-15360000D01*
X29153509Y-15360000D01*
X28984562Y-15376640D01*
X28884739Y-15406921D01*
X28236000Y-14758182D01*
X28236000Y-14025834D01*
X28306332Y-13920574D01*
X28359099Y-13793182D01*
X28386000Y-13657944D01*
X28386000Y-13520056D01*
X28359099Y-13384818D01*
X28306332Y-13257426D01*
X28229726Y-13142776D01*
X28132224Y-13045274D01*
X28017574Y-12968668D01*
X27890182Y-12915901D01*
X27754944Y-12889000D01*
X27617056Y-12889000D01*
X27481818Y-12915901D01*
X27354426Y-12968668D01*
X27324000Y-12988998D01*
X27324000Y-12084635D01*
X27325934Y-12064999D01*
X27324000Y-12045363D01*
X27324000Y-12045353D01*
X27318212Y-11986586D01*
X27295340Y-11911186D01*
X27258197Y-11841697D01*
X27231363Y-11809000D01*
X27880315Y-11809000D01*
X29461549Y-13390235D01*
X29461549Y-13591250D01*
X29471545Y-13692736D01*
X29501147Y-13790322D01*
X29549219Y-13880258D01*
X29613912Y-13959088D01*
X29692742Y-14023781D01*
X29782678Y-14071853D01*
X29880264Y-14101455D01*
X29981750Y-14111451D01*
X30419250Y-14111451D01*
X30520736Y-14101455D01*
X30618322Y-14071853D01*
X30708258Y-14023781D01*
X30787088Y-13959088D01*
X30851781Y-13880258D01*
X30899853Y-13790322D01*
X30929455Y-13692736D01*
X30939451Y-13591250D01*
X30939451Y-13262588D01*
X30955974Y-13267600D01*
X31034388Y-13275323D01*
X31036549Y-13275110D01*
X31036549Y-13591250D01*
X31046545Y-13692736D01*
X31076147Y-13790322D01*
X31124219Y-13880258D01*
X31188912Y-13959088D01*
X31267742Y-14023781D01*
X31357678Y-14071853D01*
X31455264Y-14101455D01*
X31556750Y-14111451D01*
X31994250Y-14111451D01*
X32095736Y-14101455D01*
X32193322Y-14071853D01*
X32283258Y-14023781D01*
X32362088Y-13959088D01*
X32426781Y-13880258D01*
X32474853Y-13790322D01*
X32504455Y-13692736D01*
X32514451Y-13591250D01*
X32514451Y-13078750D01*
X32504455Y-12977264D01*
X32474853Y-12879678D01*
X32426781Y-12789742D01*
X32362088Y-12710912D01*
X32283258Y-12646219D01*
X32193322Y-12598147D01*
X32095736Y-12568545D01*
X31994250Y-12558549D01*
X31560779Y-12558549D01*
X31537191Y-12539191D01*
X31467702Y-12502048D01*
X31392302Y-12479176D01*
X31333535Y-12473388D01*
X31333534Y-12473388D01*
X31313888Y-12471453D01*
X31294242Y-12473388D01*
X31200073Y-12473388D01*
X30713237Y-11986552D01*
X30700711Y-11971289D01*
X30662441Y-11939881D01*
X30655832Y-11923926D01*
X30579226Y-11809276D01*
X30481724Y-11711774D01*
X30367074Y-11635168D01*
X30239682Y-11582401D01*
X30104444Y-11555500D01*
X29966556Y-11555500D01*
X29831318Y-11582401D01*
X29703926Y-11635168D01*
X29589276Y-11711774D01*
X29491774Y-11809276D01*
X29415168Y-11923926D01*
X29362401Y-12051318D01*
X29344416Y-12141731D01*
X28342735Y-11140050D01*
X28330211Y-11124789D01*
X28269303Y-11074803D01*
X28199814Y-11037660D01*
X28124414Y-11014788D01*
X28065647Y-11009000D01*
X28065646Y-11009000D01*
X28046000Y-11007065D01*
X28026354Y-11009000D01*
X26689635Y-11009000D01*
X26669999Y-11007066D01*
X26650363Y-11009000D01*
X26433685Y-11009000D01*
X26290737Y-10866052D01*
X26278211Y-10850789D01*
X26217303Y-10800803D01*
X26147814Y-10763660D01*
X26072414Y-10740788D01*
X26017810Y-10735410D01*
X25986158Y-10696842D01*
X25940477Y-10659353D01*
X25888360Y-10631496D01*
X25831810Y-10614341D01*
X25773000Y-10608549D01*
X24323000Y-10608549D01*
X24264190Y-10614341D01*
X24207640Y-10631496D01*
X24155523Y-10659353D01*
X24109842Y-10696842D01*
X24072353Y-10742523D01*
X24044496Y-10794640D01*
X24027341Y-10851190D01*
X24021549Y-10910000D01*
X24021549Y-11360000D01*
X24027341Y-11418810D01*
X24039836Y-11460000D01*
X24027341Y-11501190D01*
X24021549Y-11560000D01*
X24021549Y-12010000D01*
X24027341Y-12068810D01*
X24039836Y-12110000D01*
X24027341Y-12151190D01*
X24021549Y-12210000D01*
X24021549Y-12660000D01*
X24027341Y-12718810D01*
X24039836Y-12760000D01*
X24027341Y-12801190D01*
X24021549Y-12860000D01*
X24021549Y-13310000D01*
X24027341Y-13368810D01*
X24044496Y-13425360D01*
X24072353Y-13477477D01*
X24109842Y-13523158D01*
X24155523Y-13560647D01*
X24207640Y-13588504D01*
X24264190Y-13605659D01*
X24323000Y-13611451D01*
X24648000Y-13611451D01*
X24648001Y-14156314D01*
X24244326Y-14559989D01*
X20619646Y-14559989D01*
X20600010Y-14558055D01*
X20580374Y-14559989D01*
X20580364Y-14559989D01*
X20521597Y-14565777D01*
X20446197Y-14588649D01*
X20376708Y-14625792D01*
X20376706Y-14625793D01*
X20376707Y-14625793D01*
X20331060Y-14663254D01*
X20331058Y-14663256D01*
X20315800Y-14675778D01*
X20303278Y-14691036D01*
X19531121Y-15463193D01*
X19492216Y-15442398D01*
X19275440Y-15376640D01*
X19106493Y-15360000D01*
X18993509Y-15360000D01*
X18824562Y-15376640D01*
X18607786Y-15442398D01*
X18408004Y-15549184D01*
X18232894Y-15692893D01*
X18089185Y-15868003D01*
X17982399Y-16067785D01*
X17916641Y-16284561D01*
X17894437Y-16510000D01*
X17916641Y-16735439D01*
X17982399Y-16952215D01*
X18089185Y-17151997D01*
X18232894Y-17327107D01*
X18327807Y-17405000D01*
X17232195Y-17405000D01*
X17327108Y-17327107D01*
X17470817Y-17151997D01*
X17577603Y-16952215D01*
X17643361Y-16735439D01*
X17665565Y-16510000D01*
X17643361Y-16284561D01*
X17577603Y-16067785D01*
X17556807Y-16028879D01*
X17618917Y-15966770D01*
X17646404Y-15944212D01*
X17658930Y-15928949D01*
X19416949Y-14170930D01*
X19432211Y-14158405D01*
X19482197Y-14097497D01*
X19519340Y-14028008D01*
X19542212Y-13952608D01*
X19548000Y-13893841D01*
X19548000Y-13893831D01*
X19549934Y-13874195D01*
X19548000Y-13854559D01*
X19548000Y-13611451D01*
X19873000Y-13611451D01*
X19931810Y-13605659D01*
X19988360Y-13588504D01*
X20040477Y-13560647D01*
X20086158Y-13523158D01*
X20123647Y-13477477D01*
X20151504Y-13425360D01*
X20168659Y-13368810D01*
X20174451Y-13310000D01*
X20174451Y-12860000D01*
X20168659Y-12801190D01*
X20156164Y-12760000D01*
X20157502Y-12755588D01*
X20242426Y-12812332D01*
X20369818Y-12865099D01*
X20505056Y-12892000D01*
X20642944Y-12892000D01*
X20778182Y-12865099D01*
X20905574Y-12812332D01*
X21020224Y-12735726D01*
X21117726Y-12638224D01*
X21194332Y-12523574D01*
X21247099Y-12396182D01*
X21274000Y-12260944D01*
X21274000Y-12123056D01*
X21247099Y-11987818D01*
X21194332Y-11860426D01*
X21117726Y-11745776D01*
X21020224Y-11648274D01*
X20905574Y-11571668D01*
X20820000Y-11536222D01*
X20820000Y-10057549D01*
X20822418Y-10032999D01*
X20820000Y-10008449D01*
X20820000Y-10008440D01*
X20812765Y-9934983D01*
X20784175Y-9840733D01*
X20737746Y-9753871D01*
X20675264Y-9677736D01*
X20656181Y-9662075D01*
X20492928Y-9498823D01*
X20477264Y-9479736D01*
X20401129Y-9417254D01*
X20349193Y-9389494D01*
X20441950Y-9296737D01*
X20457212Y-9284212D01*
X20507198Y-9223304D01*
X20544341Y-9153815D01*
X20567213Y-9078415D01*
X20573001Y-9019648D01*
X20573001Y-9019638D01*
X20574935Y-9000002D01*
X20573001Y-8980366D01*
X20573001Y-6789646D01*
X20574936Y-6769999D01*
X20567213Y-6691585D01*
X20544341Y-6616185D01*
X20507198Y-6546696D01*
X20469736Y-6501049D01*
X20457212Y-6485788D01*
X20441949Y-6473262D01*
X19540238Y-5571551D01*
X19527712Y-5556288D01*
X19466804Y-5506302D01*
X19397315Y-5469159D01*
X19321915Y-5446287D01*
X19263148Y-5440499D01*
X19263147Y-5440499D01*
X19243501Y-5438564D01*
X19223855Y-5440499D01*
X18182147Y-5440499D01*
X18162501Y-5438564D01*
X18142854Y-5440499D01*
X18084087Y-5446287D01*
X18008687Y-5469159D01*
X17939198Y-5506302D01*
X17878290Y-5556288D01*
X17865764Y-5571551D01*
X17741315Y-5696000D01*
X14834186Y-5696000D01*
X14179500Y-5041315D01*
X14179500Y-3975684D01*
X14238944Y-3916240D01*
X14254211Y-3903711D01*
X14304197Y-3842803D01*
X14341340Y-3773314D01*
X14364212Y-3697914D01*
X14370000Y-3639147D01*
X14370000Y-3639146D01*
X14371935Y-3619500D01*
X14370000Y-3599853D01*
X14370000Y-2350408D01*
X14412215Y-2337602D01*
X14611997Y-2230816D01*
X14787107Y-2087107D01*
X14930816Y-1911997D01*
X15037602Y-1712215D01*
X15103360Y-1495439D01*
X15125564Y-1270000D01*
X15103360Y-1044561D01*
X15037602Y-827785D01*
X14930816Y-628003D01*
X14787107Y-452893D01*
X14692194Y-375000D01*
X15787806Y-375000D01*
X15692893Y-452893D01*
G36*
X8072893Y-452893D02*
X7929184Y-628003D01*
X7822398Y-827785D01*
X7756640Y-1044561D01*
X7734436Y-1270000D01*
X7756640Y-1495439D01*
X7822398Y-1712215D01*
X7929184Y-1911997D01*
X8072893Y-2087107D01*
X8248003Y-2230816D01*
X8447785Y-2337602D01*
X8664561Y-2403360D01*
X8833508Y-2420000D01*
X8946492Y-2420000D01*
X9115439Y-2403360D01*
X9332215Y-2337602D01*
X9371121Y-2316806D01*
X10649001Y-3594687D01*
X10649000Y-5477573D01*
X10551638Y-5517902D01*
X10379664Y-5632811D01*
X10233411Y-5779064D01*
X10118502Y-5951038D01*
X10039350Y-6142126D01*
X9999000Y-6344984D01*
X9999000Y-6551816D01*
X10039350Y-6754674D01*
X10118502Y-6945762D01*
X10233411Y-7117736D01*
X10379664Y-7263989D01*
X10551638Y-7378898D01*
X10742726Y-7458050D01*
X10945584Y-7498400D01*
X11152416Y-7498400D01*
X11355274Y-7458050D01*
X11452636Y-7417721D01*
X12169914Y-8135000D01*
X11423636Y-8135000D01*
X11404000Y-8133066D01*
X11384364Y-8135000D01*
X11384354Y-8135000D01*
X11325587Y-8140788D01*
X11250187Y-8163660D01*
X11180698Y-8200803D01*
X11180696Y-8200804D01*
X11180697Y-8200804D01*
X11135050Y-8238265D01*
X11135048Y-8238267D01*
X11119790Y-8250789D01*
X11107268Y-8266047D01*
X11049000Y-8324315D01*
X9798001Y-7073316D01*
X9798001Y-4337636D01*
X9799935Y-4318000D01*
X9798001Y-4298364D01*
X9798001Y-4298353D01*
X9792213Y-4239586D01*
X9769341Y-4164186D01*
X9732198Y-4094697D01*
X9682212Y-4033789D01*
X9666950Y-4021264D01*
X7396806Y-1751121D01*
X7417602Y-1712215D01*
X7483360Y-1495439D01*
X7505564Y-1270000D01*
X7483360Y-1044561D01*
X7417602Y-827785D01*
X7310816Y-628003D01*
X7167107Y-452893D01*
X7072194Y-375000D01*
X8167806Y-375000D01*
X8072893Y-452893D01*
X8072893Y-452893D01*
G37*
X8072893Y-452893D02*
X7929184Y-628003D01*
X7822398Y-827785D01*
X7756640Y-1044561D01*
X7734436Y-1270000D01*
X7756640Y-1495439D01*
X7822398Y-1712215D01*
X7929184Y-1911997D01*
X8072893Y-2087107D01*
X8248003Y-2230816D01*
X8447785Y-2337602D01*
X8664561Y-2403360D01*
X8833508Y-2420000D01*
X8946492Y-2420000D01*
X9115439Y-2403360D01*
X9332215Y-2337602D01*
X9371121Y-2316806D01*
X10649001Y-3594687D01*
X10649000Y-5477573D01*
X10551638Y-5517902D01*
X10379664Y-5632811D01*
X10233411Y-5779064D01*
X10118502Y-5951038D01*
X10039350Y-6142126D01*
X9999000Y-6344984D01*
X9999000Y-6551816D01*
X10039350Y-6754674D01*
X10118502Y-6945762D01*
X10233411Y-7117736D01*
X10379664Y-7263989D01*
X10551638Y-7378898D01*
X10742726Y-7458050D01*
X10945584Y-7498400D01*
X11152416Y-7498400D01*
X11355274Y-7458050D01*
X11452636Y-7417721D01*
X12169914Y-8135000D01*
X11423636Y-8135000D01*
X11404000Y-8133066D01*
X11384364Y-8135000D01*
X11384354Y-8135000D01*
X11325587Y-8140788D01*
X11250187Y-8163660D01*
X11180698Y-8200803D01*
X11180696Y-8200804D01*
X11180697Y-8200804D01*
X11135050Y-8238265D01*
X11135048Y-8238267D01*
X11119790Y-8250789D01*
X11107268Y-8266047D01*
X11049000Y-8324315D01*
X9798001Y-7073316D01*
X9798001Y-4337636D01*
X9799935Y-4318000D01*
X9798001Y-4298364D01*
X9798001Y-4298353D01*
X9792213Y-4239586D01*
X9769341Y-4164186D01*
X9732198Y-4094697D01*
X9682212Y-4033789D01*
X9666950Y-4021264D01*
X7396806Y-1751121D01*
X7417602Y-1712215D01*
X7483360Y-1495439D01*
X7505564Y-1270000D01*
X7483360Y-1044561D01*
X7417602Y-827785D01*
X7310816Y-628003D01*
X7167107Y-452893D01*
X7072194Y-375000D01*
X8167806Y-375000D01*
X8072893Y-452893D01*
G36*
X10612893Y-452893D02*
X10469184Y-628003D01*
X10362398Y-827785D01*
X10296640Y-1044561D01*
X10274436Y-1270000D01*
X10296640Y-1495439D01*
X10362398Y-1712215D01*
X10469184Y-1911997D01*
X10612893Y-2087107D01*
X10788003Y-2230816D01*
X10987785Y-2337602D01*
X11204561Y-2403360D01*
X11373508Y-2420000D01*
X11486492Y-2420000D01*
X11655439Y-2403360D01*
X11872215Y-2337602D01*
X11911121Y-2316806D01*
X12979489Y-3385175D01*
X12979490Y-5422333D01*
X12977554Y-5441989D01*
X12985277Y-5520402D01*
X13008150Y-5595803D01*
X13045292Y-5665291D01*
X13082754Y-5710939D01*
X13082757Y-5710942D01*
X13095279Y-5726200D01*
X13110537Y-5738722D01*
X14181267Y-6809453D01*
X14193789Y-6824711D01*
X14209047Y-6837233D01*
X14209049Y-6837235D01*
X14221607Y-6847541D01*
X14254697Y-6874697D01*
X14324186Y-6911840D01*
X14399586Y-6934712D01*
X14458353Y-6940500D01*
X14458363Y-6940500D01*
X14477999Y-6942434D01*
X14497635Y-6940500D01*
X18030888Y-6940500D01*
X18061774Y-6986724D01*
X18121549Y-7046499D01*
X18121549Y-7460000D01*
X18124153Y-7486441D01*
X18070686Y-7502660D01*
X18001197Y-7539803D01*
X17940289Y-7589789D01*
X17927763Y-7605052D01*
X17804815Y-7728000D01*
X12894286Y-7728000D01*
X12018321Y-6852036D01*
X12058650Y-6754674D01*
X12099000Y-6551816D01*
X12099000Y-6344984D01*
X12058650Y-6142126D01*
X11979498Y-5951038D01*
X11864589Y-5779064D01*
X11718336Y-5632811D01*
X11546362Y-5517902D01*
X11449000Y-5477573D01*
X11449000Y-3448635D01*
X11450934Y-3428999D01*
X11449000Y-3409363D01*
X11449000Y-3409353D01*
X11443212Y-3350586D01*
X11420340Y-3275186D01*
X11383197Y-3205697D01*
X11333211Y-3144789D01*
X11317953Y-3132267D01*
X9936806Y-1751121D01*
X9957602Y-1712215D01*
X10023360Y-1495439D01*
X10045564Y-1270000D01*
X10023360Y-1044561D01*
X9957602Y-827785D01*
X9850816Y-628003D01*
X9707107Y-452893D01*
X9612194Y-375000D01*
X10707806Y-375000D01*
X10612893Y-452893D01*
X10612893Y-452893D01*
G37*
X10612893Y-452893D02*
X10469184Y-628003D01*
X10362398Y-827785D01*
X10296640Y-1044561D01*
X10274436Y-1270000D01*
X10296640Y-1495439D01*
X10362398Y-1712215D01*
X10469184Y-1911997D01*
X10612893Y-2087107D01*
X10788003Y-2230816D01*
X10987785Y-2337602D01*
X11204561Y-2403360D01*
X11373508Y-2420000D01*
X11486492Y-2420000D01*
X11655439Y-2403360D01*
X11872215Y-2337602D01*
X11911121Y-2316806D01*
X12979489Y-3385175D01*
X12979490Y-5422333D01*
X12977554Y-5441989D01*
X12985277Y-5520402D01*
X13008150Y-5595803D01*
X13045292Y-5665291D01*
X13082754Y-5710939D01*
X13082757Y-5710942D01*
X13095279Y-5726200D01*
X13110537Y-5738722D01*
X14181267Y-6809453D01*
X14193789Y-6824711D01*
X14209047Y-6837233D01*
X14209049Y-6837235D01*
X14221607Y-6847541D01*
X14254697Y-6874697D01*
X14324186Y-6911840D01*
X14399586Y-6934712D01*
X14458353Y-6940500D01*
X14458363Y-6940500D01*
X14477999Y-6942434D01*
X14497635Y-6940500D01*
X18030888Y-6940500D01*
X18061774Y-6986724D01*
X18121549Y-7046499D01*
X18121549Y-7460000D01*
X18124153Y-7486441D01*
X18070686Y-7502660D01*
X18001197Y-7539803D01*
X17940289Y-7589789D01*
X17927763Y-7605052D01*
X17804815Y-7728000D01*
X12894286Y-7728000D01*
X12018321Y-6852036D01*
X12058650Y-6754674D01*
X12099000Y-6551816D01*
X12099000Y-6344984D01*
X12058650Y-6142126D01*
X11979498Y-5951038D01*
X11864589Y-5779064D01*
X11718336Y-5632811D01*
X11546362Y-5517902D01*
X11449000Y-5477573D01*
X11449000Y-3448635D01*
X11450934Y-3428999D01*
X11449000Y-3409363D01*
X11449000Y-3409353D01*
X11443212Y-3350586D01*
X11420340Y-3275186D01*
X11383197Y-3205697D01*
X11333211Y-3144789D01*
X11317953Y-3132267D01*
X9936806Y-1751121D01*
X9957602Y-1712215D01*
X10023360Y-1495439D01*
X10045564Y-1270000D01*
X10023360Y-1044561D01*
X9957602Y-827785D01*
X9850816Y-628003D01*
X9707107Y-452893D01*
X9612194Y-375000D01*
X10707806Y-375000D01*
X10612893Y-452893D01*
G36*
X20772893Y-452893D02*
X20629184Y-628003D01*
X20522398Y-827785D01*
X20456640Y-1044561D01*
X20434436Y-1270000D01*
X20456640Y-1495439D01*
X20522398Y-1712215D01*
X20629184Y-1911997D01*
X20772893Y-2087107D01*
X20948003Y-2230816D01*
X21147785Y-2337602D01*
X21364561Y-2403360D01*
X21533508Y-2420000D01*
X21646492Y-2420000D01*
X21815439Y-2403360D01*
X22032215Y-2337602D01*
X22071121Y-2316806D01*
X22460002Y-2705687D01*
X22460001Y-5257314D01*
X19523543Y-2320857D01*
X19691997Y-2230816D01*
X19867107Y-2087107D01*
X20010816Y-1911997D01*
X20117602Y-1712215D01*
X20183360Y-1495439D01*
X20205564Y-1270000D01*
X20183360Y-1044561D01*
X20117602Y-827785D01*
X20010816Y-628003D01*
X19867107Y-452893D01*
X19772194Y-375000D01*
X20867806Y-375000D01*
X20772893Y-452893D01*
X20772893Y-452893D01*
G37*
X20772893Y-452893D02*
X20629184Y-628003D01*
X20522398Y-827785D01*
X20456640Y-1044561D01*
X20434436Y-1270000D01*
X20456640Y-1495439D01*
X20522398Y-1712215D01*
X20629184Y-1911997D01*
X20772893Y-2087107D01*
X20948003Y-2230816D01*
X21147785Y-2337602D01*
X21364561Y-2403360D01*
X21533508Y-2420000D01*
X21646492Y-2420000D01*
X21815439Y-2403360D01*
X22032215Y-2337602D01*
X22071121Y-2316806D01*
X22460002Y-2705687D01*
X22460001Y-5257314D01*
X19523543Y-2320857D01*
X19691997Y-2230816D01*
X19867107Y-2087107D01*
X20010816Y-1911997D01*
X20117602Y-1712215D01*
X20183360Y-1495439D01*
X20205564Y-1270000D01*
X20183360Y-1044561D01*
X20117602Y-827785D01*
X20010816Y-628003D01*
X19867107Y-452893D01*
X19772194Y-375000D01*
X20867806Y-375000D01*
X20772893Y-452893D01*
G04 #@! TD*
M02*
