G04 #@! TF.GenerationSoftware,KiCad,Pcbnew,(5.0.0)*
G04 #@! TF.CreationDate,2018-10-21T19:05:11+02:00*
G04 #@! TF.ProjectId,mibo20_stm32,6D69626F32305F73746D33322E6B6963,V1.0*
G04 #@! TF.SameCoordinates,PX8198450PY53920b0*
G04 #@! TF.FileFunction,Legend,Bot*
G04 #@! TF.FilePolarity,Positive*
%FSLAX46Y46*%
G04 Gerber Fmt 4.6, Leading zero omitted, Abs format (unit mm)*
G04 Created by KiCad (PCBNEW (5.0.0)) date 10/21/18 19:05:11*
%MOMM*%
%LPD*%
G01*
G04 APERTURE LIST*
%ADD10C,0.100000*%
%ADD11C,0.120000*%
%ADD12C,0.150000*%
G04 APERTURE END LIST*
D10*
G36*
X13536000Y-9542000D02*
X13536000Y-10142000D01*
X13236000Y-10442000D01*
X13236000Y-9842000D01*
X13536000Y-9542000D01*
G37*
G36*
X13536000Y-7742000D02*
X12936000Y-8342000D01*
X12936000Y-8942000D01*
X12636000Y-9242000D01*
X12636000Y-8642000D01*
X12336000Y-8942000D01*
X12336000Y-9742000D01*
X12036000Y-10042000D01*
X12036000Y-8642000D01*
X13536000Y-7142000D01*
X13536000Y-7742000D01*
G37*
G36*
X13536000Y-8342000D02*
X13536000Y-8942000D01*
X13236000Y-9242000D01*
X13236000Y-8642000D01*
X13536000Y-8342000D01*
G37*
D11*
G04 #@! TO.C,C1*
X10322779Y-8574500D02*
X9997221Y-8574500D01*
X10322779Y-7554500D02*
X9997221Y-7554500D01*
G04 #@! TO.C,C2*
X10322779Y-10225500D02*
X9997221Y-10225500D01*
X10322779Y-9205500D02*
X9997221Y-9205500D01*
G04 #@! TO.C,C3*
X16635000Y-12608779D02*
X16635000Y-12283221D01*
X17655000Y-12608779D02*
X17655000Y-12283221D01*
G04 #@! TO.C,C4*
X24890000Y-9616221D02*
X24890000Y-9941779D01*
X25910000Y-9616221D02*
X25910000Y-9941779D01*
G04 #@! TO.C,C5*
X27434000Y-8443279D02*
X27434000Y-8117721D01*
X26414000Y-8443279D02*
X26414000Y-8117721D01*
G04 #@! TO.C,C8*
X25910000Y-12989779D02*
X25910000Y-12664221D01*
X24890000Y-12989779D02*
X24890000Y-12664221D01*
G04 #@! TO.C,J2*
X-59999Y-15180000D02*
X-59999Y-16510000D01*
X1270001Y-15180000D02*
X-59999Y-15180000D01*
X2540001Y-15180000D02*
X2540001Y-17840000D01*
X2540001Y-17840000D02*
X33080001Y-17840000D01*
X2540001Y-15180000D02*
X33080001Y-15180000D01*
X33080001Y-15180000D02*
X33080001Y-17840000D01*
G04 #@! TO.C,J3*
X33080000Y60000D02*
X33080000Y-2600000D01*
X2540000Y60000D02*
X33080000Y60000D01*
X2540000Y-2600000D02*
X33080000Y-2600000D01*
X2540000Y60000D02*
X2540000Y-2600000D01*
X1270000Y60000D02*
X-60000Y60000D01*
X-60000Y60000D02*
X-60000Y-1270000D01*
G04 #@! TO.C,R1*
X17143000Y-5496779D02*
X17143000Y-5171221D01*
X18163000Y-5496779D02*
X18163000Y-5171221D01*
G04 #@! TO.C,R2*
X15111000Y-13172221D02*
X15111000Y-13497779D01*
X16131000Y-13172221D02*
X16131000Y-13497779D01*
G04 #@! TO.C,R3*
X22641779Y-13591000D02*
X22316221Y-13591000D01*
X22641779Y-12571000D02*
X22316221Y-12571000D01*
G04 #@! TO.C,U2*
X24420000Y-5480000D02*
X18410000Y-5480000D01*
X22170000Y-12300000D02*
X18410000Y-12300000D01*
X18410000Y-5480000D02*
X18410000Y-6740000D01*
X18410000Y-12300000D02*
X18410000Y-11040000D01*
G04 #@! TO.C,C6*
X19683000Y-13680221D02*
X19683000Y-14005779D01*
X20703000Y-13680221D02*
X20703000Y-14005779D01*
G04 #@! TO.C,C7*
X19179000Y-13680221D02*
X19179000Y-14005779D01*
X18159000Y-13680221D02*
X18159000Y-14005779D01*
G04 #@! TO.C,C9*
X25910000Y-6893779D02*
X25910000Y-6568221D01*
X24890000Y-6893779D02*
X24890000Y-6568221D01*
G04 #@! TO.C,R4*
X26126221Y-5005800D02*
X26451779Y-5005800D01*
X26126221Y-3985800D02*
X26451779Y-3985800D01*
G04 #@! TO.C,C1*
D12*
X9310666Y-11533142D02*
X9358285Y-11580761D01*
X9501142Y-11628380D01*
X9596380Y-11628380D01*
X9739238Y-11580761D01*
X9834476Y-11485523D01*
X9882095Y-11390285D01*
X9929714Y-11199809D01*
X9929714Y-11056952D01*
X9882095Y-10866476D01*
X9834476Y-10771238D01*
X9739238Y-10676000D01*
X9596380Y-10628380D01*
X9501142Y-10628380D01*
X9358285Y-10676000D01*
X9310666Y-10723619D01*
X8358285Y-11628380D02*
X8929714Y-11628380D01*
X8644000Y-11628380D02*
X8644000Y-10628380D01*
X8739238Y-10771238D01*
X8834476Y-10866476D01*
X8929714Y-10914095D01*
G04 #@! TO.C,C2*
X9310666Y-7088142D02*
X9358285Y-7135761D01*
X9501142Y-7183380D01*
X9596380Y-7183380D01*
X9739238Y-7135761D01*
X9834476Y-7040523D01*
X9882095Y-6945285D01*
X9929714Y-6754809D01*
X9929714Y-6611952D01*
X9882095Y-6421476D01*
X9834476Y-6326238D01*
X9739238Y-6231000D01*
X9596380Y-6183380D01*
X9501142Y-6183380D01*
X9358285Y-6231000D01*
X9310666Y-6278619D01*
X8929714Y-6278619D02*
X8882095Y-6231000D01*
X8786857Y-6183380D01*
X8548761Y-6183380D01*
X8453523Y-6231000D01*
X8405904Y-6278619D01*
X8358285Y-6373857D01*
X8358285Y-6469095D01*
X8405904Y-6611952D01*
X8977333Y-7183380D01*
X8358285Y-7183380D01*
G04 #@! TO.C,C3*
X14454142Y-12279333D02*
X14501761Y-12231714D01*
X14549380Y-12088857D01*
X14549380Y-11993619D01*
X14501761Y-11850761D01*
X14406523Y-11755523D01*
X14311285Y-11707904D01*
X14120809Y-11660285D01*
X13977952Y-11660285D01*
X13787476Y-11707904D01*
X13692238Y-11755523D01*
X13597000Y-11850761D01*
X13549380Y-11993619D01*
X13549380Y-12088857D01*
X13597000Y-12231714D01*
X13644619Y-12279333D01*
X13549380Y-12612666D02*
X13549380Y-13231714D01*
X13930333Y-12898380D01*
X13930333Y-13041238D01*
X13977952Y-13136476D01*
X14025571Y-13184095D01*
X14120809Y-13231714D01*
X14358904Y-13231714D01*
X14454142Y-13184095D01*
X14501761Y-13136476D01*
X14549380Y-13041238D01*
X14549380Y-12755523D01*
X14501761Y-12660285D01*
X14454142Y-12612666D01*
G04 #@! TO.C,C4*
X27281142Y-10755333D02*
X27328761Y-10707714D01*
X27376380Y-10564857D01*
X27376380Y-10469619D01*
X27328761Y-10326761D01*
X27233523Y-10231523D01*
X27138285Y-10183904D01*
X26947809Y-10136285D01*
X26804952Y-10136285D01*
X26614476Y-10183904D01*
X26519238Y-10231523D01*
X26424000Y-10326761D01*
X26376380Y-10469619D01*
X26376380Y-10564857D01*
X26424000Y-10707714D01*
X26471619Y-10755333D01*
X26709714Y-11612476D02*
X27376380Y-11612476D01*
X26328761Y-11374380D02*
X27043047Y-11136285D01*
X27043047Y-11755333D01*
G04 #@! TO.C,C5*
X28741642Y-8088333D02*
X28789261Y-8040714D01*
X28836880Y-7897857D01*
X28836880Y-7802619D01*
X28789261Y-7659761D01*
X28694023Y-7564523D01*
X28598785Y-7516904D01*
X28408309Y-7469285D01*
X28265452Y-7469285D01*
X28074976Y-7516904D01*
X27979738Y-7564523D01*
X27884500Y-7659761D01*
X27836880Y-7802619D01*
X27836880Y-7897857D01*
X27884500Y-8040714D01*
X27932119Y-8088333D01*
X27836880Y-8993095D02*
X27836880Y-8516904D01*
X28313071Y-8469285D01*
X28265452Y-8516904D01*
X28217833Y-8612142D01*
X28217833Y-8850238D01*
X28265452Y-8945476D01*
X28313071Y-8993095D01*
X28408309Y-9040714D01*
X28646404Y-9040714D01*
X28741642Y-8993095D01*
X28789261Y-8945476D01*
X28836880Y-8850238D01*
X28836880Y-8612142D01*
X28789261Y-8516904D01*
X28741642Y-8469285D01*
G04 #@! TO.C,C8*
X27217642Y-13041333D02*
X27265261Y-12993714D01*
X27312880Y-12850857D01*
X27312880Y-12755619D01*
X27265261Y-12612761D01*
X27170023Y-12517523D01*
X27074785Y-12469904D01*
X26884309Y-12422285D01*
X26741452Y-12422285D01*
X26550976Y-12469904D01*
X26455738Y-12517523D01*
X26360500Y-12612761D01*
X26312880Y-12755619D01*
X26312880Y-12850857D01*
X26360500Y-12993714D01*
X26408119Y-13041333D01*
X26741452Y-13612761D02*
X26693833Y-13517523D01*
X26646214Y-13469904D01*
X26550976Y-13422285D01*
X26503357Y-13422285D01*
X26408119Y-13469904D01*
X26360500Y-13517523D01*
X26312880Y-13612761D01*
X26312880Y-13803238D01*
X26360500Y-13898476D01*
X26408119Y-13946095D01*
X26503357Y-13993714D01*
X26550976Y-13993714D01*
X26646214Y-13946095D01*
X26693833Y-13898476D01*
X26741452Y-13803238D01*
X26741452Y-13612761D01*
X26789071Y-13517523D01*
X26836690Y-13469904D01*
X26931928Y-13422285D01*
X27122404Y-13422285D01*
X27217642Y-13469904D01*
X27265261Y-13517523D01*
X27312880Y-13612761D01*
X27312880Y-13803238D01*
X27265261Y-13898476D01*
X27217642Y-13946095D01*
X27122404Y-13993714D01*
X26931928Y-13993714D01*
X26836690Y-13946095D01*
X26789071Y-13898476D01*
X26741452Y-13803238D01*
G04 #@! TO.C,R1*
X16708380Y-5167333D02*
X16232190Y-4834000D01*
X16708380Y-4595904D02*
X15708380Y-4595904D01*
X15708380Y-4976857D01*
X15756000Y-5072095D01*
X15803619Y-5119714D01*
X15898857Y-5167333D01*
X16041714Y-5167333D01*
X16136952Y-5119714D01*
X16184571Y-5072095D01*
X16232190Y-4976857D01*
X16232190Y-4595904D01*
X16708380Y-6119714D02*
X16708380Y-5548285D01*
X16708380Y-5834000D02*
X15708380Y-5834000D01*
X15851238Y-5738761D01*
X15946476Y-5643523D01*
X15994095Y-5548285D01*
G04 #@! TO.C,R2*
X13152380Y-13168333D02*
X12676190Y-12835000D01*
X13152380Y-12596904D02*
X12152380Y-12596904D01*
X12152380Y-12977857D01*
X12200000Y-13073095D01*
X12247619Y-13120714D01*
X12342857Y-13168333D01*
X12485714Y-13168333D01*
X12580952Y-13120714D01*
X12628571Y-13073095D01*
X12676190Y-12977857D01*
X12676190Y-12596904D01*
X12247619Y-13549285D02*
X12200000Y-13596904D01*
X12152380Y-13692142D01*
X12152380Y-13930238D01*
X12200000Y-14025476D01*
X12247619Y-14073095D01*
X12342857Y-14120714D01*
X12438095Y-14120714D01*
X12580952Y-14073095D01*
X13152380Y-13501666D01*
X13152380Y-14120714D01*
G04 #@! TO.C,R3*
X22645666Y-14930380D02*
X22979000Y-14454190D01*
X23217095Y-14930380D02*
X23217095Y-13930380D01*
X22836142Y-13930380D01*
X22740904Y-13978000D01*
X22693285Y-14025619D01*
X22645666Y-14120857D01*
X22645666Y-14263714D01*
X22693285Y-14358952D01*
X22740904Y-14406571D01*
X22836142Y-14454190D01*
X23217095Y-14454190D01*
X22312333Y-13930380D02*
X21693285Y-13930380D01*
X22026619Y-14311333D01*
X21883761Y-14311333D01*
X21788523Y-14358952D01*
X21740904Y-14406571D01*
X21693285Y-14501809D01*
X21693285Y-14739904D01*
X21740904Y-14835142D01*
X21788523Y-14882761D01*
X21883761Y-14930380D01*
X22169476Y-14930380D01*
X22264714Y-14882761D01*
X22312333Y-14835142D01*
G04 #@! TO.C,U2*
X19772380Y-8128095D02*
X20581904Y-8128095D01*
X20677142Y-8175714D01*
X20724761Y-8223333D01*
X20772380Y-8318571D01*
X20772380Y-8509047D01*
X20724761Y-8604285D01*
X20677142Y-8651904D01*
X20581904Y-8699523D01*
X19772380Y-8699523D01*
X19867619Y-9128095D02*
X19820000Y-9175714D01*
X19772380Y-9270952D01*
X19772380Y-9509047D01*
X19820000Y-9604285D01*
X19867619Y-9651904D01*
X19962857Y-9699523D01*
X20058095Y-9699523D01*
X20200952Y-9651904D01*
X20772380Y-9080476D01*
X20772380Y-9699523D01*
G04 #@! TO.C,C6*
X21121642Y-11009333D02*
X21169261Y-10961714D01*
X21216880Y-10818857D01*
X21216880Y-10723619D01*
X21169261Y-10580761D01*
X21074023Y-10485523D01*
X20978785Y-10437904D01*
X20788309Y-10390285D01*
X20645452Y-10390285D01*
X20454976Y-10437904D01*
X20359738Y-10485523D01*
X20264500Y-10580761D01*
X20216880Y-10723619D01*
X20216880Y-10818857D01*
X20264500Y-10961714D01*
X20312119Y-11009333D01*
X20216880Y-11866476D02*
X20216880Y-11676000D01*
X20264500Y-11580761D01*
X20312119Y-11533142D01*
X20454976Y-11437904D01*
X20645452Y-11390285D01*
X21026404Y-11390285D01*
X21121642Y-11437904D01*
X21169261Y-11485523D01*
X21216880Y-11580761D01*
X21216880Y-11771238D01*
X21169261Y-11866476D01*
X21121642Y-11914095D01*
X21026404Y-11961714D01*
X20788309Y-11961714D01*
X20693071Y-11914095D01*
X20645452Y-11866476D01*
X20597833Y-11771238D01*
X20597833Y-11580761D01*
X20645452Y-11485523D01*
X20693071Y-11437904D01*
X20788309Y-11390285D01*
G04 #@! TO.C,C7*
X19597642Y-11009333D02*
X19645261Y-10961714D01*
X19692880Y-10818857D01*
X19692880Y-10723619D01*
X19645261Y-10580761D01*
X19550023Y-10485523D01*
X19454785Y-10437904D01*
X19264309Y-10390285D01*
X19121452Y-10390285D01*
X18930976Y-10437904D01*
X18835738Y-10485523D01*
X18740500Y-10580761D01*
X18692880Y-10723619D01*
X18692880Y-10818857D01*
X18740500Y-10961714D01*
X18788119Y-11009333D01*
X18692880Y-11342666D02*
X18692880Y-12009333D01*
X19692880Y-11580761D01*
G04 #@! TO.C,C9*
X24487142Y-4278333D02*
X24534761Y-4230714D01*
X24582380Y-4087857D01*
X24582380Y-3992619D01*
X24534761Y-3849761D01*
X24439523Y-3754523D01*
X24344285Y-3706904D01*
X24153809Y-3659285D01*
X24010952Y-3659285D01*
X23820476Y-3706904D01*
X23725238Y-3754523D01*
X23630000Y-3849761D01*
X23582380Y-3992619D01*
X23582380Y-4087857D01*
X23630000Y-4230714D01*
X23677619Y-4278333D01*
X24582380Y-4754523D02*
X24582380Y-4945000D01*
X24534761Y-5040238D01*
X24487142Y-5087857D01*
X24344285Y-5183095D01*
X24153809Y-5230714D01*
X23772857Y-5230714D01*
X23677619Y-5183095D01*
X23630000Y-5135476D01*
X23582380Y-5040238D01*
X23582380Y-4849761D01*
X23630000Y-4754523D01*
X23677619Y-4706904D01*
X23772857Y-4659285D01*
X24010952Y-4659285D01*
X24106190Y-4706904D01*
X24153809Y-4754523D01*
X24201428Y-4849761D01*
X24201428Y-5040238D01*
X24153809Y-5135476D01*
X24106190Y-5183095D01*
X24010952Y-5230714D01*
G04 #@! TO.C,R4*
X28932166Y-4135380D02*
X29265500Y-3659190D01*
X29503595Y-4135380D02*
X29503595Y-3135380D01*
X29122642Y-3135380D01*
X29027404Y-3183000D01*
X28979785Y-3230619D01*
X28932166Y-3325857D01*
X28932166Y-3468714D01*
X28979785Y-3563952D01*
X29027404Y-3611571D01*
X29122642Y-3659190D01*
X29503595Y-3659190D01*
X28075023Y-3468714D02*
X28075023Y-4135380D01*
X28313119Y-3087761D02*
X28551214Y-3802047D01*
X27932166Y-3802047D01*
G04 #@! TD*
M02*
