M48
;DRILL file {KiCad (5.0.0)} date 10/21/18 19:05:28
;FORMAT={3:3/ absolute / metric / suppress leading zeros}
FMAT,2
METRIC,TZ
T1C0.400
T2C0.600
T3C0.800
T4C0.850
T5C1.000
%
G90
G05
M71
T1
X6795Y-3937
X6795Y-6604
X6985Y-5334
X8636Y-4699
X8763Y-13843
X10033Y-8890
X10287Y-4699
X12192Y-4445
X14351Y-13399
X14478Y-12342
X14541Y-4572
X15748Y-11303
X18606Y-4572
X18606Y-6541
X20574Y-12192
X20765Y-6096
X21082Y-14224
X21209Y-8001
X21971Y-10033
X22098Y-4318
X23495Y-14224
X24130Y-5334
X24575Y-4318
X26289Y-3620
X26543Y-10668
X27432Y-10033
X27686Y-12129
X27686Y-13589
X28003Y-4508
X29148Y-13779
X29890Y-9428
X30036Y-12256
T3
X11049Y-6448
X11049Y-11328
T4
X28764Y-5628
X28764Y-10628
T5
X1270Y-1270
X3810Y-1270
X6350Y-1270
X8890Y-1270
X11430Y-1270
X13970Y-1270
X16510Y-1270
X19050Y-1270
X21590Y-1270
X24130Y-1270
X26670Y-1270
X29210Y-1270
X31750Y-1270
X4445Y-5080
X4445Y-7620
X4445Y-10160
X4445Y-12700
X1270Y-16510
X3810Y-16510
X6350Y-16510
X8890Y-16510
X11430Y-16510
X13970Y-16510
X16510Y-16510
X19050Y-16510
X21590Y-16510
X24130Y-16510
X26670Y-16510
X29210Y-16510
X31750Y-16510
X6985Y-10160
X6985Y-12700
T2
X31114Y-4628G85X31814Y-4628
G05
X31814Y-11628G85X31114Y-11628
G05
T0
M30
