G04 #@! TF.GenerationSoftware,KiCad,Pcbnew,(5.0.0)*
G04 #@! TF.CreationDate,2018-10-21T19:05:11+02:00*
G04 #@! TF.ProjectId,mibo20_stm32,6D69626F32305F73746D33322E6B6963,V1.0*
G04 #@! TF.SameCoordinates,PX8198450PY53920b0*
G04 #@! TF.FileFunction,Soldermask,Bot*
G04 #@! TF.FilePolarity,Negative*
%FSLAX46Y46*%
G04 Gerber Fmt 4.6, Leading zero omitted, Abs format (unit mm)*
G04 Created by KiCad (PCBNEW (5.0.0)) date 10/21/18 19:05:11*
%MOMM*%
%LPD*%
G01*
G04 APERTURE LIST*
%ADD10C,0.100000*%
%ADD11C,0.250000*%
G04 APERTURE END LIST*
D10*
G36*
X13536000Y-7142000D02*
X15336000Y-7742000D01*
X15336000Y-8342000D01*
X14436000Y-8642000D01*
X15336000Y-8942000D01*
X15336000Y-9542000D01*
X13536000Y-10142000D01*
X13536000Y-9542000D01*
X14436000Y-9242000D01*
X13536000Y-8942000D01*
X13536000Y-8342000D01*
X14436000Y-8042000D01*
X13536000Y-7742000D01*
X13536000Y-7142000D01*
G37*
G36*
X12636000Y-8942000D02*
X12336000Y-8942000D01*
X12336000Y-9742000D01*
X12936000Y-9742000D01*
X12936000Y-9242000D01*
X12636000Y-9242000D01*
X12636000Y-8942000D01*
G37*
G36*
X13536000Y-8342000D02*
X12936000Y-8342000D01*
X12936000Y-8942000D01*
X13236000Y-8942000D01*
X13236000Y-8642000D01*
X13536000Y-8342000D01*
G37*
G36*
X13536000Y-8342000D02*
X13536000Y-8942000D01*
X13236000Y-9242000D01*
X13236000Y-8642000D01*
X13536000Y-8342000D01*
G37*
G36*
X13536000Y-7742000D02*
X12936000Y-8342000D01*
X12936000Y-8942000D01*
X12636000Y-9242000D01*
X12636000Y-8642000D01*
X12336000Y-8942000D01*
X12336000Y-9742000D01*
X12036000Y-10042000D01*
X12036000Y-8642000D01*
X13536000Y-7142000D01*
X13536000Y-7742000D01*
G37*
G36*
X13536000Y-9542000D02*
X13536000Y-10142000D01*
X13236000Y-10442000D01*
X13236000Y-9842000D01*
X13536000Y-9542000D01*
G37*
D11*
X30948380Y-6604190D02*
X31948380Y-6937523D01*
X30948380Y-7270857D01*
X31948380Y-8128000D02*
X31948380Y-7556571D01*
X31948380Y-7842285D02*
X30948380Y-7842285D01*
X31091238Y-7747047D01*
X31186476Y-7651809D01*
X31234095Y-7556571D01*
X31853142Y-8556571D02*
X31900761Y-8604190D01*
X31948380Y-8556571D01*
X31900761Y-8508952D01*
X31853142Y-8556571D01*
X31948380Y-8556571D01*
X30948380Y-9223238D02*
X30948380Y-9318476D01*
X30996000Y-9413714D01*
X31043619Y-9461333D01*
X31138857Y-9508952D01*
X31329333Y-9556571D01*
X31567428Y-9556571D01*
X31757904Y-9508952D01*
X31853142Y-9461333D01*
X31900761Y-9413714D01*
X31948380Y-9318476D01*
X31948380Y-9223238D01*
X31900761Y-9128000D01*
X31853142Y-9080380D01*
X31757904Y-9032761D01*
X31567428Y-8985142D01*
X31329333Y-8985142D01*
X31138857Y-9032761D01*
X31043619Y-9080380D01*
X30996000Y-9128000D01*
X30948380Y-9223238D01*
X1976380Y-3342380D02*
X976380Y-3342380D01*
X1690666Y-3675714D01*
X976380Y-4009047D01*
X1976380Y-4009047D01*
X1976380Y-4485238D02*
X976380Y-4485238D01*
X1452571Y-5294761D02*
X1500190Y-5437619D01*
X1547809Y-5485238D01*
X1643047Y-5532857D01*
X1785904Y-5532857D01*
X1881142Y-5485238D01*
X1928761Y-5437619D01*
X1976380Y-5342380D01*
X1976380Y-4961428D01*
X976380Y-4961428D01*
X976380Y-5294761D01*
X1024000Y-5390000D01*
X1071619Y-5437619D01*
X1166857Y-5485238D01*
X1262095Y-5485238D01*
X1357333Y-5437619D01*
X1404952Y-5390000D01*
X1452571Y-5294761D01*
X1452571Y-4961428D01*
X976380Y-6151904D02*
X976380Y-6342380D01*
X1024000Y-6437619D01*
X1119238Y-6532857D01*
X1309714Y-6580476D01*
X1643047Y-6580476D01*
X1833523Y-6532857D01*
X1928761Y-6437619D01*
X1976380Y-6342380D01*
X1976380Y-6151904D01*
X1928761Y-6056666D01*
X1833523Y-5961428D01*
X1643047Y-5913809D01*
X1309714Y-5913809D01*
X1119238Y-5961428D01*
X1024000Y-6056666D01*
X976380Y-6151904D01*
X1071619Y-6961428D02*
X1024000Y-7009047D01*
X976380Y-7104285D01*
X976380Y-7342380D01*
X1024000Y-7437619D01*
X1071619Y-7485238D01*
X1166857Y-7532857D01*
X1262095Y-7532857D01*
X1404952Y-7485238D01*
X1976380Y-6913809D01*
X1976380Y-7532857D01*
X976380Y-8151904D02*
X976380Y-8247142D01*
X1024000Y-8342380D01*
X1071619Y-8390000D01*
X1166857Y-8437619D01*
X1357333Y-8485238D01*
X1595428Y-8485238D01*
X1785904Y-8437619D01*
X1881142Y-8390000D01*
X1928761Y-8342380D01*
X1976380Y-8247142D01*
X1976380Y-8151904D01*
X1928761Y-8056666D01*
X1881142Y-8009047D01*
X1785904Y-7961428D01*
X1595428Y-7913809D01*
X1357333Y-7913809D01*
X1166857Y-7961428D01*
X1071619Y-8009047D01*
X1024000Y-8056666D01*
X976380Y-8151904D01*
X1595428Y-8913809D02*
X1595428Y-9675714D01*
X1928761Y-10104285D02*
X1976380Y-10247142D01*
X1976380Y-10485238D01*
X1928761Y-10580476D01*
X1881142Y-10628095D01*
X1785904Y-10675714D01*
X1690666Y-10675714D01*
X1595428Y-10628095D01*
X1547809Y-10580476D01*
X1500190Y-10485238D01*
X1452571Y-10294761D01*
X1404952Y-10199523D01*
X1357333Y-10151904D01*
X1262095Y-10104285D01*
X1166857Y-10104285D01*
X1071619Y-10151904D01*
X1024000Y-10199523D01*
X976380Y-10294761D01*
X976380Y-10532857D01*
X1024000Y-10675714D01*
X976380Y-10961428D02*
X976380Y-11532857D01*
X1976380Y-11247142D02*
X976380Y-11247142D01*
X1976380Y-11866190D02*
X976380Y-11866190D01*
X1690666Y-12199523D01*
X976380Y-12532857D01*
X1976380Y-12532857D01*
X976380Y-12913809D02*
X976380Y-13532857D01*
X1357333Y-13199523D01*
X1357333Y-13342380D01*
X1404952Y-13437619D01*
X1452571Y-13485238D01*
X1547809Y-13532857D01*
X1785904Y-13532857D01*
X1881142Y-13485238D01*
X1928761Y-13437619D01*
X1976380Y-13342380D01*
X1976380Y-13056666D01*
X1928761Y-12961428D01*
X1881142Y-12913809D01*
X1071619Y-13913809D02*
X1024000Y-13961428D01*
X976380Y-14056666D01*
X976380Y-14294761D01*
X1024000Y-14390000D01*
X1071619Y-14437619D01*
X1166857Y-14485238D01*
X1262095Y-14485238D01*
X1404952Y-14437619D01*
X1976380Y-13866190D01*
X1976380Y-14485238D01*
D10*
G36*
X16696233Y-15573746D02*
X16875309Y-15628068D01*
X17040346Y-15716282D01*
X17185002Y-15834999D01*
X17303719Y-15979655D01*
X17391933Y-16144692D01*
X17446255Y-16323768D01*
X17464597Y-16510000D01*
X17446255Y-16696232D01*
X17391933Y-16875308D01*
X17303719Y-17040345D01*
X17185002Y-17185001D01*
X17040346Y-17303718D01*
X17040344Y-17303719D01*
X16875309Y-17391932D01*
X16696233Y-17446254D01*
X16556667Y-17460000D01*
X16463335Y-17460000D01*
X16323769Y-17446254D01*
X16144693Y-17391932D01*
X15979658Y-17303719D01*
X15979656Y-17303718D01*
X15835000Y-17185001D01*
X15716283Y-17040345D01*
X15628069Y-16875308D01*
X15573747Y-16696232D01*
X15555405Y-16510000D01*
X15573747Y-16323768D01*
X15628069Y-16144692D01*
X15716283Y-15979655D01*
X15835000Y-15834999D01*
X15979656Y-15716282D01*
X16144693Y-15628068D01*
X16323769Y-15573746D01*
X16463335Y-15560000D01*
X16556667Y-15560000D01*
X16696233Y-15573746D01*
X16696233Y-15573746D01*
G37*
G36*
X29396233Y-15573746D02*
X29575309Y-15628068D01*
X29740346Y-15716282D01*
X29885002Y-15834999D01*
X30003719Y-15979655D01*
X30091933Y-16144692D01*
X30146255Y-16323768D01*
X30164597Y-16510000D01*
X30146255Y-16696232D01*
X30091933Y-16875308D01*
X30003719Y-17040345D01*
X29885002Y-17185001D01*
X29740346Y-17303718D01*
X29740344Y-17303719D01*
X29575309Y-17391932D01*
X29396233Y-17446254D01*
X29256667Y-17460000D01*
X29163335Y-17460000D01*
X29023769Y-17446254D01*
X28844693Y-17391932D01*
X28679658Y-17303719D01*
X28679656Y-17303718D01*
X28535000Y-17185001D01*
X28416283Y-17040345D01*
X28328069Y-16875308D01*
X28273747Y-16696232D01*
X28255405Y-16510000D01*
X28273747Y-16323768D01*
X28328069Y-16144692D01*
X28416283Y-15979655D01*
X28535000Y-15834999D01*
X28679656Y-15716282D01*
X28844693Y-15628068D01*
X29023769Y-15573746D01*
X29163335Y-15560000D01*
X29256667Y-15560000D01*
X29396233Y-15573746D01*
X29396233Y-15573746D01*
G37*
G36*
X2220001Y-17460000D02*
X320001Y-17460000D01*
X320001Y-15560000D01*
X2220001Y-15560000D01*
X2220001Y-17460000D01*
X2220001Y-17460000D01*
G37*
G36*
X3996233Y-15573746D02*
X4175309Y-15628068D01*
X4340346Y-15716282D01*
X4485002Y-15834999D01*
X4603719Y-15979655D01*
X4691933Y-16144692D01*
X4746255Y-16323768D01*
X4764597Y-16510000D01*
X4746255Y-16696232D01*
X4691933Y-16875308D01*
X4603719Y-17040345D01*
X4485002Y-17185001D01*
X4340346Y-17303718D01*
X4340344Y-17303719D01*
X4175309Y-17391932D01*
X3996233Y-17446254D01*
X3856667Y-17460000D01*
X3763335Y-17460000D01*
X3623769Y-17446254D01*
X3444693Y-17391932D01*
X3279658Y-17303719D01*
X3279656Y-17303718D01*
X3135000Y-17185001D01*
X3016283Y-17040345D01*
X2928069Y-16875308D01*
X2873747Y-16696232D01*
X2855405Y-16510000D01*
X2873747Y-16323768D01*
X2928069Y-16144692D01*
X3016283Y-15979655D01*
X3135000Y-15834999D01*
X3279656Y-15716282D01*
X3444693Y-15628068D01*
X3623769Y-15573746D01*
X3763335Y-15560000D01*
X3856667Y-15560000D01*
X3996233Y-15573746D01*
X3996233Y-15573746D01*
G37*
G36*
X6536233Y-15573746D02*
X6715309Y-15628068D01*
X6880346Y-15716282D01*
X7025002Y-15834999D01*
X7143719Y-15979655D01*
X7231933Y-16144692D01*
X7286255Y-16323768D01*
X7304597Y-16510000D01*
X7286255Y-16696232D01*
X7231933Y-16875308D01*
X7143719Y-17040345D01*
X7025002Y-17185001D01*
X6880346Y-17303718D01*
X6880344Y-17303719D01*
X6715309Y-17391932D01*
X6536233Y-17446254D01*
X6396667Y-17460000D01*
X6303335Y-17460000D01*
X6163769Y-17446254D01*
X5984693Y-17391932D01*
X5819658Y-17303719D01*
X5819656Y-17303718D01*
X5675000Y-17185001D01*
X5556283Y-17040345D01*
X5468069Y-16875308D01*
X5413747Y-16696232D01*
X5395405Y-16510000D01*
X5413747Y-16323768D01*
X5468069Y-16144692D01*
X5556283Y-15979655D01*
X5675000Y-15834999D01*
X5819656Y-15716282D01*
X5984693Y-15628068D01*
X6163769Y-15573746D01*
X6303335Y-15560000D01*
X6396667Y-15560000D01*
X6536233Y-15573746D01*
X6536233Y-15573746D01*
G37*
G36*
X9076233Y-15573746D02*
X9255309Y-15628068D01*
X9420346Y-15716282D01*
X9565002Y-15834999D01*
X9683719Y-15979655D01*
X9771933Y-16144692D01*
X9826255Y-16323768D01*
X9844597Y-16510000D01*
X9826255Y-16696232D01*
X9771933Y-16875308D01*
X9683719Y-17040345D01*
X9565002Y-17185001D01*
X9420346Y-17303718D01*
X9420344Y-17303719D01*
X9255309Y-17391932D01*
X9076233Y-17446254D01*
X8936667Y-17460000D01*
X8843335Y-17460000D01*
X8703769Y-17446254D01*
X8524693Y-17391932D01*
X8359658Y-17303719D01*
X8359656Y-17303718D01*
X8215000Y-17185001D01*
X8096283Y-17040345D01*
X8008069Y-16875308D01*
X7953747Y-16696232D01*
X7935405Y-16510000D01*
X7953747Y-16323768D01*
X8008069Y-16144692D01*
X8096283Y-15979655D01*
X8215000Y-15834999D01*
X8359656Y-15716282D01*
X8524693Y-15628068D01*
X8703769Y-15573746D01*
X8843335Y-15560000D01*
X8936667Y-15560000D01*
X9076233Y-15573746D01*
X9076233Y-15573746D01*
G37*
G36*
X11616233Y-15573746D02*
X11795309Y-15628068D01*
X11960346Y-15716282D01*
X12105002Y-15834999D01*
X12223719Y-15979655D01*
X12311933Y-16144692D01*
X12366255Y-16323768D01*
X12384597Y-16510000D01*
X12366255Y-16696232D01*
X12311933Y-16875308D01*
X12223719Y-17040345D01*
X12105002Y-17185001D01*
X11960346Y-17303718D01*
X11960344Y-17303719D01*
X11795309Y-17391932D01*
X11616233Y-17446254D01*
X11476667Y-17460000D01*
X11383335Y-17460000D01*
X11243769Y-17446254D01*
X11064693Y-17391932D01*
X10899658Y-17303719D01*
X10899656Y-17303718D01*
X10755000Y-17185001D01*
X10636283Y-17040345D01*
X10548069Y-16875308D01*
X10493747Y-16696232D01*
X10475405Y-16510000D01*
X10493747Y-16323768D01*
X10548069Y-16144692D01*
X10636283Y-15979655D01*
X10755000Y-15834999D01*
X10899656Y-15716282D01*
X11064693Y-15628068D01*
X11243769Y-15573746D01*
X11383335Y-15560000D01*
X11476667Y-15560000D01*
X11616233Y-15573746D01*
X11616233Y-15573746D01*
G37*
G36*
X31936233Y-15573746D02*
X32115309Y-15628068D01*
X32280346Y-15716282D01*
X32425002Y-15834999D01*
X32543719Y-15979655D01*
X32631933Y-16144692D01*
X32686255Y-16323768D01*
X32704597Y-16510000D01*
X32686255Y-16696232D01*
X32631933Y-16875308D01*
X32543719Y-17040345D01*
X32425002Y-17185001D01*
X32280346Y-17303718D01*
X32280344Y-17303719D01*
X32115309Y-17391932D01*
X31936233Y-17446254D01*
X31796667Y-17460000D01*
X31703335Y-17460000D01*
X31563769Y-17446254D01*
X31384693Y-17391932D01*
X31219658Y-17303719D01*
X31219656Y-17303718D01*
X31075000Y-17185001D01*
X30956283Y-17040345D01*
X30868069Y-16875308D01*
X30813747Y-16696232D01*
X30795405Y-16510000D01*
X30813747Y-16323768D01*
X30868069Y-16144692D01*
X30956283Y-15979655D01*
X31075000Y-15834999D01*
X31219656Y-15716282D01*
X31384693Y-15628068D01*
X31563769Y-15573746D01*
X31703335Y-15560000D01*
X31796667Y-15560000D01*
X31936233Y-15573746D01*
X31936233Y-15573746D01*
G37*
G36*
X26856233Y-15573746D02*
X27035309Y-15628068D01*
X27200346Y-15716282D01*
X27345002Y-15834999D01*
X27463719Y-15979655D01*
X27551933Y-16144692D01*
X27606255Y-16323768D01*
X27624597Y-16510000D01*
X27606255Y-16696232D01*
X27551933Y-16875308D01*
X27463719Y-17040345D01*
X27345002Y-17185001D01*
X27200346Y-17303718D01*
X27200344Y-17303719D01*
X27035309Y-17391932D01*
X26856233Y-17446254D01*
X26716667Y-17460000D01*
X26623335Y-17460000D01*
X26483769Y-17446254D01*
X26304693Y-17391932D01*
X26139658Y-17303719D01*
X26139656Y-17303718D01*
X25995000Y-17185001D01*
X25876283Y-17040345D01*
X25788069Y-16875308D01*
X25733747Y-16696232D01*
X25715405Y-16510000D01*
X25733747Y-16323768D01*
X25788069Y-16144692D01*
X25876283Y-15979655D01*
X25995000Y-15834999D01*
X26139656Y-15716282D01*
X26304693Y-15628068D01*
X26483769Y-15573746D01*
X26623335Y-15560000D01*
X26716667Y-15560000D01*
X26856233Y-15573746D01*
X26856233Y-15573746D01*
G37*
G36*
X24316233Y-15573746D02*
X24495309Y-15628068D01*
X24660346Y-15716282D01*
X24805002Y-15834999D01*
X24923719Y-15979655D01*
X25011933Y-16144692D01*
X25066255Y-16323768D01*
X25084597Y-16510000D01*
X25066255Y-16696232D01*
X25011933Y-16875308D01*
X24923719Y-17040345D01*
X24805002Y-17185001D01*
X24660346Y-17303718D01*
X24660344Y-17303719D01*
X24495309Y-17391932D01*
X24316233Y-17446254D01*
X24176667Y-17460000D01*
X24083335Y-17460000D01*
X23943769Y-17446254D01*
X23764693Y-17391932D01*
X23599658Y-17303719D01*
X23599656Y-17303718D01*
X23455000Y-17185001D01*
X23336283Y-17040345D01*
X23248069Y-16875308D01*
X23193747Y-16696232D01*
X23175405Y-16510000D01*
X23193747Y-16323768D01*
X23248069Y-16144692D01*
X23336283Y-15979655D01*
X23455000Y-15834999D01*
X23599656Y-15716282D01*
X23764693Y-15628068D01*
X23943769Y-15573746D01*
X24083335Y-15560000D01*
X24176667Y-15560000D01*
X24316233Y-15573746D01*
X24316233Y-15573746D01*
G37*
G36*
X21776233Y-15573746D02*
X21955309Y-15628068D01*
X22120346Y-15716282D01*
X22265002Y-15834999D01*
X22383719Y-15979655D01*
X22471933Y-16144692D01*
X22526255Y-16323768D01*
X22544597Y-16510000D01*
X22526255Y-16696232D01*
X22471933Y-16875308D01*
X22383719Y-17040345D01*
X22265002Y-17185001D01*
X22120346Y-17303718D01*
X22120344Y-17303719D01*
X21955309Y-17391932D01*
X21776233Y-17446254D01*
X21636667Y-17460000D01*
X21543335Y-17460000D01*
X21403769Y-17446254D01*
X21224693Y-17391932D01*
X21059658Y-17303719D01*
X21059656Y-17303718D01*
X20915000Y-17185001D01*
X20796283Y-17040345D01*
X20708069Y-16875308D01*
X20653747Y-16696232D01*
X20635405Y-16510000D01*
X20653747Y-16323768D01*
X20708069Y-16144692D01*
X20796283Y-15979655D01*
X20915000Y-15834999D01*
X21059656Y-15716282D01*
X21224693Y-15628068D01*
X21403769Y-15573746D01*
X21543335Y-15560000D01*
X21636667Y-15560000D01*
X21776233Y-15573746D01*
X21776233Y-15573746D01*
G37*
G36*
X19236233Y-15573746D02*
X19415309Y-15628068D01*
X19580346Y-15716282D01*
X19725002Y-15834999D01*
X19843719Y-15979655D01*
X19931933Y-16144692D01*
X19986255Y-16323768D01*
X20004597Y-16510000D01*
X19986255Y-16696232D01*
X19931933Y-16875308D01*
X19843719Y-17040345D01*
X19725002Y-17185001D01*
X19580346Y-17303718D01*
X19580344Y-17303719D01*
X19415309Y-17391932D01*
X19236233Y-17446254D01*
X19096667Y-17460000D01*
X19003335Y-17460000D01*
X18863769Y-17446254D01*
X18684693Y-17391932D01*
X18519658Y-17303719D01*
X18519656Y-17303718D01*
X18375000Y-17185001D01*
X18256283Y-17040345D01*
X18168069Y-16875308D01*
X18113747Y-16696232D01*
X18095405Y-16510000D01*
X18113747Y-16323768D01*
X18168069Y-16144692D01*
X18256283Y-15979655D01*
X18375000Y-15834999D01*
X18519656Y-15716282D01*
X18684693Y-15628068D01*
X18863769Y-15573746D01*
X19003335Y-15560000D01*
X19096667Y-15560000D01*
X19236233Y-15573746D01*
X19236233Y-15573746D01*
G37*
G36*
X14156233Y-15573746D02*
X14335309Y-15628068D01*
X14500346Y-15716282D01*
X14645002Y-15834999D01*
X14763719Y-15979655D01*
X14851933Y-16144692D01*
X14906255Y-16323768D01*
X14924597Y-16510000D01*
X14906255Y-16696232D01*
X14851933Y-16875308D01*
X14763719Y-17040345D01*
X14645002Y-17185001D01*
X14500346Y-17303718D01*
X14500344Y-17303719D01*
X14335309Y-17391932D01*
X14156233Y-17446254D01*
X14016667Y-17460000D01*
X13923335Y-17460000D01*
X13783769Y-17446254D01*
X13604693Y-17391932D01*
X13439658Y-17303719D01*
X13439656Y-17303718D01*
X13295000Y-17185001D01*
X13176283Y-17040345D01*
X13088069Y-16875308D01*
X13033747Y-16696232D01*
X13015405Y-16510000D01*
X13033747Y-16323768D01*
X13088069Y-16144692D01*
X13176283Y-15979655D01*
X13295000Y-15834999D01*
X13439656Y-15716282D01*
X13604693Y-15628068D01*
X13783769Y-15573746D01*
X13923335Y-15560000D01*
X14016667Y-15560000D01*
X14156233Y-15573746D01*
X14156233Y-15573746D01*
G37*
G36*
X20571756Y-14097920D02*
X20617436Y-14111777D01*
X20659537Y-14134281D01*
X20696437Y-14164563D01*
X20726719Y-14201463D01*
X20749223Y-14243564D01*
X20763080Y-14289244D01*
X20768000Y-14339204D01*
X20768000Y-14921796D01*
X20763080Y-14971756D01*
X20749223Y-15017436D01*
X20726719Y-15059537D01*
X20696437Y-15096437D01*
X20659537Y-15126719D01*
X20617436Y-15149223D01*
X20571756Y-15163080D01*
X20521796Y-15168000D01*
X19864204Y-15168000D01*
X19814244Y-15163080D01*
X19768564Y-15149223D01*
X19726463Y-15126719D01*
X19689563Y-15096437D01*
X19659281Y-15059537D01*
X19636777Y-15017436D01*
X19622920Y-14971756D01*
X19618000Y-14921796D01*
X19618000Y-14339204D01*
X19622920Y-14289244D01*
X19636777Y-14243564D01*
X19659281Y-14201463D01*
X19689563Y-14164563D01*
X19726463Y-14134281D01*
X19768564Y-14111777D01*
X19814244Y-14097920D01*
X19864204Y-14093000D01*
X20521796Y-14093000D01*
X20571756Y-14097920D01*
X20571756Y-14097920D01*
G37*
G36*
X19047756Y-14097920D02*
X19093436Y-14111777D01*
X19135537Y-14134281D01*
X19172437Y-14164563D01*
X19202719Y-14201463D01*
X19225223Y-14243564D01*
X19239080Y-14289244D01*
X19244000Y-14339204D01*
X19244000Y-14921796D01*
X19239080Y-14971756D01*
X19225223Y-15017436D01*
X19202719Y-15059537D01*
X19172437Y-15096437D01*
X19135537Y-15126719D01*
X19093436Y-15149223D01*
X19047756Y-15163080D01*
X18997796Y-15168000D01*
X18340204Y-15168000D01*
X18290244Y-15163080D01*
X18244564Y-15149223D01*
X18202463Y-15126719D01*
X18165563Y-15096437D01*
X18135281Y-15059537D01*
X18112777Y-15017436D01*
X18098920Y-14971756D01*
X18094000Y-14921796D01*
X18094000Y-14339204D01*
X18098920Y-14289244D01*
X18112777Y-14243564D01*
X18135281Y-14201463D01*
X18165563Y-14164563D01*
X18202463Y-14134281D01*
X18244564Y-14111777D01*
X18290244Y-14097920D01*
X18340204Y-14093000D01*
X18997796Y-14093000D01*
X19047756Y-14097920D01*
X19047756Y-14097920D01*
G37*
G36*
X15999756Y-13589920D02*
X16045436Y-13603777D01*
X16087537Y-13626281D01*
X16124437Y-13656563D01*
X16154719Y-13693463D01*
X16177223Y-13735564D01*
X16191080Y-13781244D01*
X16196000Y-13831204D01*
X16196000Y-14413796D01*
X16191080Y-14463756D01*
X16177223Y-14509436D01*
X16154719Y-14551537D01*
X16124437Y-14588437D01*
X16087537Y-14618719D01*
X16045436Y-14641223D01*
X15999756Y-14655080D01*
X15949796Y-14660000D01*
X15292204Y-14660000D01*
X15242244Y-14655080D01*
X15196564Y-14641223D01*
X15154463Y-14618719D01*
X15117563Y-14588437D01*
X15087281Y-14551537D01*
X15064777Y-14509436D01*
X15050920Y-14463756D01*
X15046000Y-14413796D01*
X15046000Y-13831204D01*
X15050920Y-13781244D01*
X15064777Y-13735564D01*
X15087281Y-13693463D01*
X15117563Y-13656563D01*
X15154463Y-13626281D01*
X15196564Y-13603777D01*
X15242244Y-13589920D01*
X15292204Y-13585000D01*
X15949796Y-13585000D01*
X15999756Y-13589920D01*
X15999756Y-13589920D01*
G37*
G36*
X25778756Y-13081920D02*
X25824436Y-13095777D01*
X25866537Y-13118281D01*
X25903437Y-13148563D01*
X25933719Y-13185463D01*
X25956223Y-13227564D01*
X25970080Y-13273244D01*
X25975000Y-13323204D01*
X25975000Y-13905796D01*
X25970080Y-13955756D01*
X25956223Y-14001436D01*
X25933719Y-14043537D01*
X25903437Y-14080437D01*
X25866537Y-14110719D01*
X25824436Y-14133223D01*
X25778756Y-14147080D01*
X25728796Y-14152000D01*
X25071204Y-14152000D01*
X25021244Y-14147080D01*
X24975564Y-14133223D01*
X24933463Y-14110719D01*
X24896563Y-14080437D01*
X24866281Y-14043537D01*
X24843777Y-14001436D01*
X24829920Y-13955756D01*
X24825000Y-13905796D01*
X24825000Y-13323204D01*
X24829920Y-13273244D01*
X24843777Y-13227564D01*
X24866281Y-13185463D01*
X24896563Y-13148563D01*
X24933463Y-13118281D01*
X24975564Y-13095777D01*
X25021244Y-13081920D01*
X25071204Y-13077000D01*
X25728796Y-13077000D01*
X25778756Y-13081920D01*
X25778756Y-13081920D01*
G37*
G36*
X17523756Y-12700920D02*
X17569436Y-12714777D01*
X17611537Y-12737281D01*
X17648437Y-12767563D01*
X17678719Y-12804463D01*
X17701223Y-12846564D01*
X17715080Y-12892244D01*
X17720000Y-12942204D01*
X17720000Y-13524796D01*
X17715080Y-13574756D01*
X17701223Y-13620436D01*
X17678719Y-13662537D01*
X17648437Y-13699437D01*
X17611537Y-13729719D01*
X17569436Y-13752223D01*
X17523756Y-13766080D01*
X17473796Y-13771000D01*
X16816204Y-13771000D01*
X16766244Y-13766080D01*
X16720564Y-13752223D01*
X16678463Y-13729719D01*
X16641563Y-13699437D01*
X16611281Y-13662537D01*
X16588777Y-13620436D01*
X16574920Y-13574756D01*
X16570000Y-13524796D01*
X16570000Y-12942204D01*
X16574920Y-12892244D01*
X16588777Y-12846564D01*
X16611281Y-12804463D01*
X16641563Y-12767563D01*
X16678463Y-12737281D01*
X16720564Y-12714777D01*
X16766244Y-12700920D01*
X16816204Y-12696000D01*
X17473796Y-12696000D01*
X17523756Y-12700920D01*
X17523756Y-12700920D01*
G37*
G36*
X22032756Y-12510920D02*
X22078436Y-12524777D01*
X22120537Y-12547281D01*
X22157437Y-12577563D01*
X22187719Y-12614463D01*
X22210223Y-12656564D01*
X22224080Y-12702244D01*
X22229000Y-12752204D01*
X22229000Y-13409796D01*
X22224080Y-13459756D01*
X22210223Y-13505436D01*
X22187719Y-13547537D01*
X22157437Y-13584437D01*
X22120537Y-13614719D01*
X22078436Y-13637223D01*
X22032756Y-13651080D01*
X21982796Y-13656000D01*
X21400204Y-13656000D01*
X21350244Y-13651080D01*
X21304564Y-13637223D01*
X21262463Y-13614719D01*
X21225563Y-13584437D01*
X21195281Y-13547537D01*
X21172777Y-13505436D01*
X21158920Y-13459756D01*
X21154000Y-13409796D01*
X21154000Y-12752204D01*
X21158920Y-12702244D01*
X21172777Y-12656564D01*
X21195281Y-12614463D01*
X21225563Y-12577563D01*
X21262463Y-12547281D01*
X21304564Y-12524777D01*
X21350244Y-12510920D01*
X21400204Y-12506000D01*
X21982796Y-12506000D01*
X22032756Y-12510920D01*
X22032756Y-12510920D01*
G37*
G36*
X23607756Y-12510920D02*
X23653436Y-12524777D01*
X23695537Y-12547281D01*
X23732437Y-12577563D01*
X23762719Y-12614463D01*
X23785223Y-12656564D01*
X23799080Y-12702244D01*
X23804000Y-12752204D01*
X23804000Y-13409796D01*
X23799080Y-13459756D01*
X23785223Y-13505436D01*
X23762719Y-13547537D01*
X23732437Y-13584437D01*
X23695537Y-13614719D01*
X23653436Y-13637223D01*
X23607756Y-13651080D01*
X23557796Y-13656000D01*
X22975204Y-13656000D01*
X22925244Y-13651080D01*
X22879564Y-13637223D01*
X22837463Y-13614719D01*
X22800563Y-13584437D01*
X22770281Y-13547537D01*
X22747777Y-13505436D01*
X22733920Y-13459756D01*
X22729000Y-13409796D01*
X22729000Y-12752204D01*
X22733920Y-12702244D01*
X22747777Y-12656564D01*
X22770281Y-12614463D01*
X22800563Y-12577563D01*
X22837463Y-12547281D01*
X22879564Y-12524777D01*
X22925244Y-12510920D01*
X22975204Y-12506000D01*
X23557796Y-12506000D01*
X23607756Y-12510920D01*
X23607756Y-12510920D01*
G37*
G36*
X4631232Y-11763746D02*
X4810308Y-11818068D01*
X4975345Y-11906282D01*
X5120001Y-12024999D01*
X5238718Y-12169655D01*
X5326932Y-12334692D01*
X5381254Y-12513768D01*
X5399596Y-12700000D01*
X5381254Y-12886232D01*
X5326932Y-13065308D01*
X5238718Y-13230345D01*
X5120001Y-13375001D01*
X4975345Y-13493718D01*
X4975343Y-13493719D01*
X4810308Y-13581932D01*
X4631232Y-13636254D01*
X4491666Y-13650000D01*
X4398334Y-13650000D01*
X4258768Y-13636254D01*
X4079692Y-13581932D01*
X3914657Y-13493719D01*
X3914655Y-13493718D01*
X3769999Y-13375001D01*
X3651282Y-13230345D01*
X3563068Y-13065308D01*
X3508746Y-12886232D01*
X3490404Y-12700000D01*
X3508746Y-12513768D01*
X3563068Y-12334692D01*
X3651282Y-12169655D01*
X3769999Y-12024999D01*
X3914655Y-11906282D01*
X4079692Y-11818068D01*
X4258768Y-11763746D01*
X4398334Y-11750000D01*
X4491666Y-11750000D01*
X4631232Y-11763746D01*
X4631232Y-11763746D01*
G37*
G36*
X7935000Y-13650000D02*
X6035000Y-13650000D01*
X6035000Y-11750000D01*
X7935000Y-11750000D01*
X7935000Y-13650000D01*
X7935000Y-13650000D01*
G37*
G36*
X19047756Y-12522920D02*
X19093436Y-12536777D01*
X19135537Y-12559281D01*
X19172437Y-12589563D01*
X19202719Y-12626463D01*
X19225223Y-12668564D01*
X19239080Y-12714244D01*
X19244000Y-12764204D01*
X19244000Y-13346796D01*
X19239080Y-13396756D01*
X19225223Y-13442436D01*
X19202719Y-13484537D01*
X19172437Y-13521437D01*
X19135537Y-13551719D01*
X19093436Y-13574223D01*
X19047756Y-13588080D01*
X18997796Y-13593000D01*
X18340204Y-13593000D01*
X18290244Y-13588080D01*
X18244564Y-13574223D01*
X18202463Y-13551719D01*
X18165563Y-13521437D01*
X18135281Y-13484537D01*
X18112777Y-13442436D01*
X18098920Y-13396756D01*
X18094000Y-13346796D01*
X18094000Y-12764204D01*
X18098920Y-12714244D01*
X18112777Y-12668564D01*
X18135281Y-12626463D01*
X18165563Y-12589563D01*
X18202463Y-12559281D01*
X18244564Y-12536777D01*
X18290244Y-12522920D01*
X18340204Y-12518000D01*
X18997796Y-12518000D01*
X19047756Y-12522920D01*
X19047756Y-12522920D01*
G37*
G36*
X20571756Y-12522920D02*
X20617436Y-12536777D01*
X20659537Y-12559281D01*
X20696437Y-12589563D01*
X20726719Y-12626463D01*
X20749223Y-12668564D01*
X20763080Y-12714244D01*
X20768000Y-12764204D01*
X20768000Y-13346796D01*
X20763080Y-13396756D01*
X20749223Y-13442436D01*
X20726719Y-13484537D01*
X20696437Y-13521437D01*
X20659537Y-13551719D01*
X20617436Y-13574223D01*
X20571756Y-13588080D01*
X20521796Y-13593000D01*
X19864204Y-13593000D01*
X19814244Y-13588080D01*
X19768564Y-13574223D01*
X19726463Y-13551719D01*
X19689563Y-13521437D01*
X19659281Y-13484537D01*
X19636777Y-13442436D01*
X19622920Y-13396756D01*
X19618000Y-13346796D01*
X19618000Y-12764204D01*
X19622920Y-12714244D01*
X19636777Y-12668564D01*
X19659281Y-12626463D01*
X19689563Y-12589563D01*
X19726463Y-12559281D01*
X19768564Y-12536777D01*
X19814244Y-12522920D01*
X19864204Y-12518000D01*
X20521796Y-12518000D01*
X20571756Y-12522920D01*
X20571756Y-12522920D01*
G37*
G36*
X15999756Y-12014920D02*
X16045436Y-12028777D01*
X16087537Y-12051281D01*
X16124437Y-12081563D01*
X16154719Y-12118463D01*
X16177223Y-12160564D01*
X16191080Y-12206244D01*
X16196000Y-12256204D01*
X16196000Y-12838796D01*
X16191080Y-12888756D01*
X16177223Y-12934436D01*
X16154719Y-12976537D01*
X16124437Y-13013437D01*
X16087537Y-13043719D01*
X16045436Y-13066223D01*
X15999756Y-13080080D01*
X15949796Y-13085000D01*
X15292204Y-13085000D01*
X15242244Y-13080080D01*
X15196564Y-13066223D01*
X15154463Y-13043719D01*
X15117563Y-13013437D01*
X15087281Y-12976537D01*
X15064777Y-12934436D01*
X15050920Y-12888756D01*
X15046000Y-12838796D01*
X15046000Y-12256204D01*
X15050920Y-12206244D01*
X15064777Y-12160564D01*
X15087281Y-12118463D01*
X15117563Y-12081563D01*
X15154463Y-12051281D01*
X15196564Y-12028777D01*
X15242244Y-12014920D01*
X15292204Y-12010000D01*
X15949796Y-12010000D01*
X15999756Y-12014920D01*
X15999756Y-12014920D01*
G37*
G36*
X25778756Y-11506920D02*
X25824436Y-11520777D01*
X25866537Y-11543281D01*
X25903437Y-11573563D01*
X25933719Y-11610463D01*
X25956223Y-11652564D01*
X25970080Y-11698244D01*
X25975000Y-11748204D01*
X25975000Y-12330796D01*
X25970080Y-12380756D01*
X25956223Y-12426436D01*
X25933719Y-12468537D01*
X25903437Y-12505437D01*
X25866537Y-12535719D01*
X25824436Y-12558223D01*
X25778756Y-12572080D01*
X25728796Y-12577000D01*
X25071204Y-12577000D01*
X25021244Y-12572080D01*
X24975564Y-12558223D01*
X24933463Y-12535719D01*
X24896563Y-12505437D01*
X24866281Y-12468537D01*
X24843777Y-12426436D01*
X24829920Y-12380756D01*
X24825000Y-12330796D01*
X24825000Y-11748204D01*
X24829920Y-11698244D01*
X24843777Y-11652564D01*
X24866281Y-11610463D01*
X24896563Y-11573563D01*
X24933463Y-11543281D01*
X24975564Y-11520777D01*
X25021244Y-11506920D01*
X25071204Y-11502000D01*
X25728796Y-11502000D01*
X25778756Y-11506920D01*
X25778756Y-11506920D01*
G37*
G36*
X31950724Y-10938128D02*
X32082675Y-10978155D01*
X32204281Y-11043155D01*
X32310870Y-11130630D01*
X32398345Y-11237219D01*
X32463345Y-11358825D01*
X32503372Y-11490776D01*
X32516887Y-11628000D01*
X32503372Y-11765224D01*
X32463345Y-11897175D01*
X32398345Y-12018781D01*
X32310870Y-12125370D01*
X32204281Y-12212845D01*
X32082675Y-12277845D01*
X31950724Y-12317872D01*
X31847890Y-12328000D01*
X31079110Y-12328000D01*
X30976276Y-12317872D01*
X30844325Y-12277845D01*
X30722719Y-12212845D01*
X30616130Y-12125370D01*
X30528655Y-12018781D01*
X30463655Y-11897175D01*
X30423628Y-11765224D01*
X30410113Y-11628000D01*
X30423628Y-11490776D01*
X30463655Y-11358825D01*
X30528655Y-11237219D01*
X30616130Y-11130630D01*
X30722719Y-11043155D01*
X30844325Y-10978155D01*
X30976276Y-10938128D01*
X31079110Y-10928000D01*
X31847890Y-10928000D01*
X31950724Y-10938128D01*
X31950724Y-10938128D01*
G37*
G36*
X17523756Y-11125920D02*
X17569436Y-11139777D01*
X17611537Y-11162281D01*
X17648437Y-11192563D01*
X17678719Y-11229463D01*
X17701223Y-11271564D01*
X17715080Y-11317244D01*
X17720000Y-11367204D01*
X17720000Y-11949796D01*
X17715080Y-11999756D01*
X17701223Y-12045436D01*
X17678719Y-12087537D01*
X17648437Y-12124437D01*
X17611537Y-12154719D01*
X17569436Y-12177223D01*
X17523756Y-12191080D01*
X17473796Y-12196000D01*
X16816204Y-12196000D01*
X16766244Y-12191080D01*
X16720564Y-12177223D01*
X16678463Y-12154719D01*
X16641563Y-12124437D01*
X16611281Y-12087537D01*
X16588777Y-12045436D01*
X16574920Y-11999756D01*
X16570000Y-11949796D01*
X16570000Y-11367204D01*
X16574920Y-11317244D01*
X16588777Y-11271564D01*
X16611281Y-11229463D01*
X16641563Y-11192563D01*
X16678463Y-11162281D01*
X16720564Y-11139777D01*
X16766244Y-11125920D01*
X16816204Y-11121000D01*
X17473796Y-11121000D01*
X17523756Y-11125920D01*
X17523756Y-11125920D01*
G37*
G36*
X11296934Y-10511064D02*
X11451625Y-10575139D01*
X11590846Y-10668163D01*
X11709237Y-10786554D01*
X11802261Y-10925775D01*
X11866336Y-11080466D01*
X11899000Y-11244681D01*
X11899000Y-11412119D01*
X11866336Y-11576334D01*
X11802261Y-11731025D01*
X11709237Y-11870246D01*
X11590846Y-11988637D01*
X11451625Y-12081661D01*
X11296934Y-12145736D01*
X11132719Y-12178400D01*
X10965281Y-12178400D01*
X10801066Y-12145736D01*
X10646375Y-12081661D01*
X10507154Y-11988637D01*
X10388763Y-11870246D01*
X10295739Y-11731025D01*
X10231664Y-11576334D01*
X10199000Y-11412119D01*
X10199000Y-11244681D01*
X10231664Y-11080466D01*
X10295739Y-10925775D01*
X10388763Y-10786554D01*
X10507154Y-10668163D01*
X10646375Y-10575139D01*
X10801066Y-10511064D01*
X10965281Y-10478400D01*
X11132719Y-10478400D01*
X11296934Y-10511064D01*
X11296934Y-10511064D01*
G37*
G36*
X24570000Y-12040000D02*
X22370000Y-12040000D01*
X22370000Y-10340000D01*
X24570000Y-10340000D01*
X24570000Y-12040000D01*
X24570000Y-12040000D01*
G37*
G36*
X28924449Y-9818852D02*
X29004144Y-9834704D01*
X29154284Y-9896894D01*
X29154285Y-9896895D01*
X29289408Y-9987181D01*
X29404319Y-10102092D01*
X29443012Y-10160000D01*
X29494606Y-10237216D01*
X29556796Y-10387356D01*
X29588500Y-10546745D01*
X29588500Y-10709255D01*
X29556796Y-10868644D01*
X29494606Y-11018784D01*
X29494605Y-11018785D01*
X29404319Y-11153908D01*
X29289408Y-11268819D01*
X29199121Y-11329147D01*
X29154284Y-11359106D01*
X29004144Y-11421296D01*
X28844756Y-11453000D01*
X28682244Y-11453000D01*
X28602551Y-11437148D01*
X28522856Y-11421296D01*
X28372716Y-11359106D01*
X28327879Y-11329147D01*
X28237592Y-11268819D01*
X28122681Y-11153908D01*
X28032395Y-11018785D01*
X28032394Y-11018784D01*
X27970204Y-10868644D01*
X27938500Y-10709255D01*
X27938500Y-10546745D01*
X27970204Y-10387356D01*
X28032394Y-10237216D01*
X28083988Y-10160000D01*
X28122681Y-10102092D01*
X28237592Y-9987181D01*
X28372715Y-9896895D01*
X28372716Y-9896894D01*
X28522856Y-9834704D01*
X28682244Y-9803000D01*
X28844756Y-9803000D01*
X28924449Y-9818852D01*
X28924449Y-9818852D01*
G37*
G36*
X7171232Y-9223746D02*
X7350308Y-9278068D01*
X7515345Y-9366282D01*
X7660001Y-9484999D01*
X7778718Y-9629655D01*
X7866932Y-9794692D01*
X7921254Y-9973768D01*
X7939596Y-10160000D01*
X7921254Y-10346232D01*
X7866932Y-10525308D01*
X7778718Y-10690345D01*
X7660001Y-10835001D01*
X7515345Y-10953718D01*
X7469625Y-10978156D01*
X7350308Y-11041932D01*
X7171232Y-11096254D01*
X7031666Y-11110000D01*
X6938334Y-11110000D01*
X6798768Y-11096254D01*
X6619692Y-11041932D01*
X6500375Y-10978156D01*
X6454655Y-10953718D01*
X6309999Y-10835001D01*
X6191282Y-10690345D01*
X6103068Y-10525308D01*
X6048746Y-10346232D01*
X6030404Y-10160000D01*
X6048746Y-9973768D01*
X6103068Y-9794692D01*
X6191282Y-9629655D01*
X6309999Y-9484999D01*
X6454655Y-9366282D01*
X6619692Y-9278068D01*
X6798768Y-9223746D01*
X6938334Y-9210000D01*
X7031666Y-9210000D01*
X7171232Y-9223746D01*
X7171232Y-9223746D01*
G37*
G36*
X4631232Y-9223746D02*
X4810308Y-9278068D01*
X4975345Y-9366282D01*
X5120001Y-9484999D01*
X5238718Y-9629655D01*
X5326932Y-9794692D01*
X5381254Y-9973768D01*
X5399596Y-10160000D01*
X5381254Y-10346232D01*
X5326932Y-10525308D01*
X5238718Y-10690345D01*
X5120001Y-10835001D01*
X4975345Y-10953718D01*
X4929625Y-10978156D01*
X4810308Y-11041932D01*
X4631232Y-11096254D01*
X4491666Y-11110000D01*
X4398334Y-11110000D01*
X4258768Y-11096254D01*
X4079692Y-11041932D01*
X3960375Y-10978156D01*
X3914655Y-10953718D01*
X3769999Y-10835001D01*
X3651282Y-10690345D01*
X3563068Y-10525308D01*
X3508746Y-10346232D01*
X3490404Y-10160000D01*
X3508746Y-9973768D01*
X3563068Y-9794692D01*
X3651282Y-9629655D01*
X3769999Y-9484999D01*
X3914655Y-9366282D01*
X4079692Y-9278068D01*
X4258768Y-9223746D01*
X4398334Y-9210000D01*
X4491666Y-9210000D01*
X4631232Y-9223746D01*
X4631232Y-9223746D01*
G37*
G36*
X25778756Y-10033920D02*
X25824436Y-10047777D01*
X25866537Y-10070281D01*
X25903437Y-10100563D01*
X25933719Y-10137463D01*
X25956223Y-10179564D01*
X25970080Y-10225244D01*
X25975000Y-10275204D01*
X25975000Y-10857796D01*
X25970080Y-10907756D01*
X25956223Y-10953436D01*
X25933719Y-10995537D01*
X25903437Y-11032437D01*
X25866537Y-11062719D01*
X25824436Y-11085223D01*
X25778756Y-11099080D01*
X25728796Y-11104000D01*
X25071204Y-11104000D01*
X25021244Y-11099080D01*
X24975564Y-11085223D01*
X24933463Y-11062719D01*
X24896563Y-11032437D01*
X24866281Y-10995537D01*
X24843777Y-10953436D01*
X24829920Y-10907756D01*
X24825000Y-10857796D01*
X24825000Y-10275204D01*
X24829920Y-10225244D01*
X24843777Y-10179564D01*
X24866281Y-10137463D01*
X24896563Y-10100563D01*
X24933463Y-10070281D01*
X24975564Y-10047777D01*
X25021244Y-10033920D01*
X25071204Y-10029000D01*
X25728796Y-10029000D01*
X25778756Y-10033920D01*
X25778756Y-10033920D01*
G37*
G36*
X18270000Y-10890000D02*
X16070000Y-10890000D01*
X16070000Y-6890000D01*
X18270000Y-6890000D01*
X18270000Y-10890000D01*
X18270000Y-10890000D01*
G37*
G36*
X9713756Y-9145420D02*
X9759436Y-9159277D01*
X9801537Y-9181781D01*
X9838437Y-9212063D01*
X9868719Y-9248963D01*
X9891223Y-9291064D01*
X9905080Y-9336744D01*
X9910000Y-9386704D01*
X9910000Y-10044296D01*
X9905080Y-10094256D01*
X9891223Y-10139936D01*
X9868719Y-10182037D01*
X9838437Y-10218937D01*
X9801537Y-10249219D01*
X9759436Y-10271723D01*
X9713756Y-10285580D01*
X9663796Y-10290500D01*
X9081204Y-10290500D01*
X9031244Y-10285580D01*
X8985564Y-10271723D01*
X8943463Y-10249219D01*
X8906563Y-10218937D01*
X8876281Y-10182037D01*
X8853777Y-10139936D01*
X8839920Y-10094256D01*
X8835000Y-10044296D01*
X8835000Y-9386704D01*
X8839920Y-9336744D01*
X8853777Y-9291064D01*
X8876281Y-9248963D01*
X8906563Y-9212063D01*
X8943463Y-9181781D01*
X8985564Y-9159277D01*
X9031244Y-9145420D01*
X9081204Y-9140500D01*
X9663796Y-9140500D01*
X9713756Y-9145420D01*
X9713756Y-9145420D01*
G37*
G36*
X11288756Y-9145420D02*
X11334436Y-9159277D01*
X11376537Y-9181781D01*
X11413437Y-9212063D01*
X11443719Y-9248963D01*
X11466223Y-9291064D01*
X11480080Y-9336744D01*
X11485000Y-9386704D01*
X11485000Y-10044296D01*
X11480080Y-10094256D01*
X11466223Y-10139936D01*
X11443719Y-10182037D01*
X11413437Y-10218937D01*
X11376537Y-10249219D01*
X11334436Y-10271723D01*
X11288756Y-10285580D01*
X11238796Y-10290500D01*
X10656204Y-10290500D01*
X10606244Y-10285580D01*
X10560564Y-10271723D01*
X10518463Y-10249219D01*
X10481563Y-10218937D01*
X10451281Y-10182037D01*
X10428777Y-10139936D01*
X10414920Y-10094256D01*
X10410000Y-10044296D01*
X10410000Y-9386704D01*
X10414920Y-9336744D01*
X10428777Y-9291064D01*
X10451281Y-9248963D01*
X10481563Y-9212063D01*
X10518463Y-9181781D01*
X10560564Y-9159277D01*
X10606244Y-9145420D01*
X10656204Y-9140500D01*
X11238796Y-9140500D01*
X11288756Y-9145420D01*
X11288756Y-9145420D01*
G37*
G36*
X24570000Y-9740000D02*
X22370000Y-9740000D01*
X22370000Y-8040000D01*
X24570000Y-8040000D01*
X24570000Y-9740000D01*
X24570000Y-9740000D01*
G37*
G36*
X27302756Y-8535420D02*
X27348436Y-8549277D01*
X27390537Y-8571781D01*
X27427437Y-8602063D01*
X27457719Y-8638963D01*
X27480223Y-8681064D01*
X27494080Y-8726744D01*
X27499000Y-8776704D01*
X27499000Y-9359296D01*
X27494080Y-9409256D01*
X27480223Y-9454936D01*
X27457719Y-9497037D01*
X27427437Y-9533937D01*
X27390537Y-9564219D01*
X27348436Y-9586723D01*
X27302756Y-9600580D01*
X27252796Y-9605500D01*
X26595204Y-9605500D01*
X26545244Y-9600580D01*
X26499564Y-9586723D01*
X26457463Y-9564219D01*
X26420563Y-9533937D01*
X26390281Y-9497037D01*
X26367777Y-9454936D01*
X26353920Y-9409256D01*
X26349000Y-9359296D01*
X26349000Y-8776704D01*
X26353920Y-8726744D01*
X26367777Y-8681064D01*
X26390281Y-8638963D01*
X26420563Y-8602063D01*
X26457463Y-8571781D01*
X26499564Y-8549277D01*
X26545244Y-8535420D01*
X26595204Y-8530500D01*
X27252796Y-8530500D01*
X27302756Y-8535420D01*
X27302756Y-8535420D01*
G37*
G36*
X25778756Y-8458920D02*
X25824436Y-8472777D01*
X25866537Y-8495281D01*
X25903437Y-8525563D01*
X25933719Y-8562463D01*
X25956223Y-8604564D01*
X25970080Y-8650244D01*
X25975000Y-8700204D01*
X25975000Y-9282796D01*
X25970080Y-9332756D01*
X25956223Y-9378436D01*
X25933719Y-9420537D01*
X25903437Y-9457437D01*
X25866537Y-9487719D01*
X25824436Y-9510223D01*
X25778756Y-9524080D01*
X25728796Y-9529000D01*
X25071204Y-9529000D01*
X25021244Y-9524080D01*
X24975564Y-9510223D01*
X24933463Y-9487719D01*
X24896563Y-9457437D01*
X24866281Y-9420537D01*
X24843777Y-9378436D01*
X24829920Y-9332756D01*
X24825000Y-9282796D01*
X24825000Y-8700204D01*
X24829920Y-8650244D01*
X24843777Y-8604564D01*
X24866281Y-8562463D01*
X24896563Y-8525563D01*
X24933463Y-8495281D01*
X24975564Y-8472777D01*
X25021244Y-8458920D01*
X25071204Y-8454000D01*
X25728796Y-8454000D01*
X25778756Y-8458920D01*
X25778756Y-8458920D01*
G37*
G36*
X9713756Y-7494420D02*
X9759436Y-7508277D01*
X9801537Y-7530781D01*
X9838437Y-7561063D01*
X9868719Y-7597963D01*
X9891223Y-7640064D01*
X9905080Y-7685744D01*
X9910000Y-7735704D01*
X9910000Y-8393296D01*
X9905080Y-8443256D01*
X9891223Y-8488936D01*
X9868719Y-8531037D01*
X9838437Y-8567937D01*
X9801537Y-8598219D01*
X9759436Y-8620723D01*
X9713756Y-8634580D01*
X9663796Y-8639500D01*
X9081204Y-8639500D01*
X9031244Y-8634580D01*
X8985564Y-8620723D01*
X8943463Y-8598219D01*
X8906563Y-8567937D01*
X8876281Y-8531037D01*
X8853777Y-8488936D01*
X8839920Y-8443256D01*
X8835000Y-8393296D01*
X8835000Y-7735704D01*
X8839920Y-7685744D01*
X8853777Y-7640064D01*
X8876281Y-7597963D01*
X8906563Y-7561063D01*
X8943463Y-7530781D01*
X8985564Y-7508277D01*
X9031244Y-7494420D01*
X9081204Y-7489500D01*
X9663796Y-7489500D01*
X9713756Y-7494420D01*
X9713756Y-7494420D01*
G37*
G36*
X11288756Y-7494420D02*
X11334436Y-7508277D01*
X11376537Y-7530781D01*
X11413437Y-7561063D01*
X11443719Y-7597963D01*
X11466223Y-7640064D01*
X11480080Y-7685744D01*
X11485000Y-7735704D01*
X11485000Y-8393296D01*
X11480080Y-8443256D01*
X11466223Y-8488936D01*
X11443719Y-8531037D01*
X11413437Y-8567937D01*
X11376537Y-8598219D01*
X11334436Y-8620723D01*
X11288756Y-8634580D01*
X11238796Y-8639500D01*
X10656204Y-8639500D01*
X10606244Y-8634580D01*
X10560564Y-8620723D01*
X10518463Y-8598219D01*
X10481563Y-8567937D01*
X10451281Y-8531037D01*
X10428777Y-8488936D01*
X10414920Y-8443256D01*
X10410000Y-8393296D01*
X10410000Y-7735704D01*
X10414920Y-7685744D01*
X10428777Y-7640064D01*
X10451281Y-7597963D01*
X10481563Y-7561063D01*
X10518463Y-7530781D01*
X10560564Y-7508277D01*
X10606244Y-7494420D01*
X10656204Y-7489500D01*
X11238796Y-7489500D01*
X11288756Y-7494420D01*
X11288756Y-7494420D01*
G37*
G36*
X4631232Y-6683746D02*
X4810308Y-6738068D01*
X4975345Y-6826282D01*
X5120001Y-6944999D01*
X5238718Y-7089655D01*
X5326932Y-7254692D01*
X5381254Y-7433768D01*
X5399596Y-7620000D01*
X5381254Y-7806232D01*
X5326932Y-7985308D01*
X5238718Y-8150345D01*
X5120001Y-8295001D01*
X4975345Y-8413718D01*
X4975343Y-8413719D01*
X4810308Y-8501932D01*
X4631232Y-8556254D01*
X4491666Y-8570000D01*
X4398334Y-8570000D01*
X4258768Y-8556254D01*
X4079692Y-8501932D01*
X3914657Y-8413719D01*
X3914655Y-8413718D01*
X3769999Y-8295001D01*
X3651282Y-8150345D01*
X3563068Y-7985308D01*
X3508746Y-7806232D01*
X3490404Y-7620000D01*
X3508746Y-7433768D01*
X3563068Y-7254692D01*
X3651282Y-7089655D01*
X3769999Y-6944999D01*
X3914655Y-6826282D01*
X4079692Y-6738068D01*
X4258768Y-6683746D01*
X4398334Y-6670000D01*
X4491666Y-6670000D01*
X4631232Y-6683746D01*
X4631232Y-6683746D01*
G37*
G36*
X25778756Y-6985920D02*
X25824436Y-6999777D01*
X25866537Y-7022281D01*
X25903437Y-7052563D01*
X25933719Y-7089463D01*
X25956223Y-7131564D01*
X25970080Y-7177244D01*
X25975000Y-7227204D01*
X25975000Y-7809796D01*
X25970080Y-7859756D01*
X25956223Y-7905436D01*
X25933719Y-7947537D01*
X25903437Y-7984437D01*
X25866537Y-8014719D01*
X25824436Y-8037223D01*
X25778756Y-8051080D01*
X25728796Y-8056000D01*
X25071204Y-8056000D01*
X25021244Y-8051080D01*
X24975564Y-8037223D01*
X24933463Y-8014719D01*
X24896563Y-7984437D01*
X24866281Y-7947537D01*
X24843777Y-7905436D01*
X24829920Y-7859756D01*
X24825000Y-7809796D01*
X24825000Y-7227204D01*
X24829920Y-7177244D01*
X24843777Y-7131564D01*
X24866281Y-7089463D01*
X24896563Y-7052563D01*
X24933463Y-7022281D01*
X24975564Y-6999777D01*
X25021244Y-6985920D01*
X25071204Y-6981000D01*
X25728796Y-6981000D01*
X25778756Y-6985920D01*
X25778756Y-6985920D01*
G37*
G36*
X27302756Y-6960420D02*
X27348436Y-6974277D01*
X27390537Y-6996781D01*
X27427437Y-7027063D01*
X27457719Y-7063963D01*
X27480223Y-7106064D01*
X27494080Y-7151744D01*
X27499000Y-7201704D01*
X27499000Y-7784296D01*
X27494080Y-7834256D01*
X27480223Y-7879936D01*
X27457719Y-7922037D01*
X27427437Y-7958937D01*
X27390537Y-7989219D01*
X27348436Y-8011723D01*
X27302756Y-8025580D01*
X27252796Y-8030500D01*
X26595204Y-8030500D01*
X26545244Y-8025580D01*
X26499564Y-8011723D01*
X26457463Y-7989219D01*
X26420563Y-7958937D01*
X26390281Y-7922037D01*
X26367777Y-7879936D01*
X26353920Y-7834256D01*
X26349000Y-7784296D01*
X26349000Y-7201704D01*
X26353920Y-7151744D01*
X26367777Y-7106064D01*
X26390281Y-7063963D01*
X26420563Y-7027063D01*
X26457463Y-6996781D01*
X26499564Y-6974277D01*
X26545244Y-6960420D01*
X26595204Y-6955500D01*
X27252796Y-6955500D01*
X27302756Y-6960420D01*
X27302756Y-6960420D01*
G37*
G36*
X24570000Y-7440000D02*
X22370000Y-7440000D01*
X22370000Y-5740000D01*
X24570000Y-5740000D01*
X24570000Y-7440000D01*
X24570000Y-7440000D01*
G37*
G36*
X11296934Y-5631064D02*
X11451625Y-5695139D01*
X11590846Y-5788163D01*
X11709237Y-5906554D01*
X11802261Y-6045775D01*
X11866336Y-6200466D01*
X11899000Y-6364681D01*
X11899000Y-6532119D01*
X11866336Y-6696334D01*
X11802261Y-6851025D01*
X11709237Y-6990246D01*
X11590846Y-7108637D01*
X11451625Y-7201661D01*
X11296934Y-7265736D01*
X11132719Y-7298400D01*
X10965281Y-7298400D01*
X10801066Y-7265736D01*
X10646375Y-7201661D01*
X10507154Y-7108637D01*
X10388763Y-6990246D01*
X10295739Y-6851025D01*
X10231664Y-6696334D01*
X10199000Y-6532119D01*
X10199000Y-6364681D01*
X10231664Y-6200466D01*
X10295739Y-6045775D01*
X10388763Y-5906554D01*
X10507154Y-5788163D01*
X10646375Y-5695139D01*
X10801066Y-5631064D01*
X10965281Y-5598400D01*
X11132719Y-5598400D01*
X11296934Y-5631064D01*
X11296934Y-5631064D01*
G37*
G36*
X18031756Y-5588920D02*
X18077436Y-5602777D01*
X18119537Y-5625281D01*
X18156437Y-5655563D01*
X18186719Y-5692463D01*
X18209223Y-5734564D01*
X18223080Y-5780244D01*
X18228000Y-5830204D01*
X18228000Y-6412796D01*
X18223080Y-6462756D01*
X18209223Y-6508436D01*
X18186719Y-6550537D01*
X18156437Y-6587437D01*
X18119537Y-6617719D01*
X18077436Y-6640223D01*
X18031756Y-6654080D01*
X17981796Y-6659000D01*
X17324204Y-6659000D01*
X17274244Y-6654080D01*
X17228564Y-6640223D01*
X17186463Y-6617719D01*
X17149563Y-6587437D01*
X17119281Y-6550537D01*
X17096777Y-6508436D01*
X17082920Y-6462756D01*
X17078000Y-6412796D01*
X17078000Y-5830204D01*
X17082920Y-5780244D01*
X17096777Y-5734564D01*
X17119281Y-5692463D01*
X17149563Y-5655563D01*
X17186463Y-5625281D01*
X17228564Y-5602777D01*
X17274244Y-5588920D01*
X17324204Y-5584000D01*
X17981796Y-5584000D01*
X18031756Y-5588920D01*
X18031756Y-5588920D01*
G37*
G36*
X25778756Y-5410920D02*
X25824436Y-5424777D01*
X25866537Y-5447281D01*
X25903437Y-5477563D01*
X25933719Y-5514463D01*
X25956223Y-5556564D01*
X25970080Y-5602244D01*
X25975000Y-5652204D01*
X25975000Y-6234796D01*
X25970080Y-6284756D01*
X25956223Y-6330436D01*
X25933719Y-6372537D01*
X25903437Y-6409437D01*
X25866537Y-6439719D01*
X25824436Y-6462223D01*
X25778756Y-6476080D01*
X25728796Y-6481000D01*
X25071204Y-6481000D01*
X25021244Y-6476080D01*
X24975564Y-6462223D01*
X24933463Y-6439719D01*
X24896563Y-6409437D01*
X24866281Y-6372537D01*
X24843777Y-6330436D01*
X24829920Y-6284756D01*
X24825000Y-6234796D01*
X24825000Y-5652204D01*
X24829920Y-5602244D01*
X24843777Y-5556564D01*
X24866281Y-5514463D01*
X24896563Y-5477563D01*
X24933463Y-5447281D01*
X24975564Y-5424777D01*
X25021244Y-5410920D01*
X25071204Y-5406000D01*
X25728796Y-5406000D01*
X25778756Y-5410920D01*
X25778756Y-5410920D01*
G37*
G36*
X28906341Y-4815250D02*
X29004144Y-4834704D01*
X29154284Y-4896894D01*
X29199121Y-4926853D01*
X29289408Y-4987181D01*
X29404319Y-5102092D01*
X29464647Y-5192379D01*
X29494606Y-5237216D01*
X29556796Y-5387356D01*
X29588500Y-5546745D01*
X29588500Y-5709255D01*
X29556796Y-5868644D01*
X29494606Y-6018784D01*
X29476572Y-6045774D01*
X29404319Y-6153908D01*
X29289408Y-6268819D01*
X29220149Y-6315096D01*
X29154284Y-6359106D01*
X29004144Y-6421296D01*
X28931694Y-6435707D01*
X28844756Y-6453000D01*
X28682244Y-6453000D01*
X28595306Y-6435707D01*
X28522856Y-6421296D01*
X28372716Y-6359106D01*
X28306851Y-6315096D01*
X28237592Y-6268819D01*
X28122681Y-6153908D01*
X28050428Y-6045774D01*
X28032394Y-6018784D01*
X27970204Y-5868644D01*
X27938500Y-5709255D01*
X27938500Y-5546745D01*
X27970204Y-5387356D01*
X28032394Y-5237216D01*
X28062353Y-5192379D01*
X28122681Y-5102092D01*
X28237592Y-4987181D01*
X28327879Y-4926853D01*
X28372716Y-4896894D01*
X28522856Y-4834704D01*
X28620659Y-4815250D01*
X28682244Y-4803000D01*
X28844756Y-4803000D01*
X28906341Y-4815250D01*
X28906341Y-4815250D01*
G37*
G36*
X5395000Y-6030000D02*
X3495000Y-6030000D01*
X3495000Y-4130000D01*
X5395000Y-4130000D01*
X5395000Y-6030000D01*
X5395000Y-6030000D01*
G37*
G36*
X31950724Y-3938128D02*
X32082675Y-3978155D01*
X32204281Y-4043155D01*
X32310870Y-4130630D01*
X32398345Y-4237219D01*
X32463345Y-4358825D01*
X32503372Y-4490776D01*
X32516887Y-4628000D01*
X32503372Y-4765224D01*
X32463345Y-4897175D01*
X32398345Y-5018781D01*
X32310870Y-5125370D01*
X32204281Y-5212845D01*
X32082675Y-5277845D01*
X31950724Y-5317872D01*
X31847890Y-5328000D01*
X31079110Y-5328000D01*
X30976276Y-5317872D01*
X30844325Y-5277845D01*
X30722719Y-5212845D01*
X30616130Y-5125370D01*
X30528655Y-5018781D01*
X30463655Y-4897175D01*
X30423628Y-4765224D01*
X30410113Y-4628000D01*
X30423628Y-4490776D01*
X30463655Y-4358825D01*
X30528655Y-4237219D01*
X30616130Y-4130630D01*
X30722719Y-4043155D01*
X30844325Y-3978155D01*
X30976276Y-3938128D01*
X31079110Y-3928000D01*
X31847890Y-3928000D01*
X31950724Y-3938128D01*
X31950724Y-3938128D01*
G37*
G36*
X18031756Y-4013920D02*
X18077436Y-4027777D01*
X18119537Y-4050281D01*
X18156437Y-4080563D01*
X18186719Y-4117463D01*
X18209223Y-4159564D01*
X18223080Y-4205244D01*
X18228000Y-4255204D01*
X18228000Y-4837796D01*
X18223080Y-4887756D01*
X18209223Y-4933436D01*
X18186719Y-4975537D01*
X18156437Y-5012437D01*
X18119537Y-5042719D01*
X18077436Y-5065223D01*
X18031756Y-5079080D01*
X17981796Y-5084000D01*
X17324204Y-5084000D01*
X17274244Y-5079080D01*
X17228564Y-5065223D01*
X17186463Y-5042719D01*
X17149563Y-5012437D01*
X17119281Y-4975537D01*
X17096777Y-4933436D01*
X17082920Y-4887756D01*
X17078000Y-4837796D01*
X17078000Y-4255204D01*
X17082920Y-4205244D01*
X17096777Y-4159564D01*
X17119281Y-4117463D01*
X17149563Y-4080563D01*
X17186463Y-4050281D01*
X17228564Y-4027777D01*
X17274244Y-4013920D01*
X17324204Y-4009000D01*
X17981796Y-4009000D01*
X18031756Y-4013920D01*
X18031756Y-4013920D01*
G37*
G36*
X27417756Y-3925720D02*
X27463436Y-3939577D01*
X27505537Y-3962081D01*
X27542437Y-3992363D01*
X27572719Y-4029263D01*
X27595223Y-4071364D01*
X27609080Y-4117044D01*
X27614000Y-4167004D01*
X27614000Y-4824596D01*
X27609080Y-4874556D01*
X27595223Y-4920236D01*
X27572719Y-4962337D01*
X27542437Y-4999237D01*
X27505537Y-5029519D01*
X27463436Y-5052023D01*
X27417756Y-5065880D01*
X27367796Y-5070800D01*
X26785204Y-5070800D01*
X26735244Y-5065880D01*
X26689564Y-5052023D01*
X26647463Y-5029519D01*
X26610563Y-4999237D01*
X26580281Y-4962337D01*
X26557777Y-4920236D01*
X26543920Y-4874556D01*
X26539000Y-4824596D01*
X26539000Y-4167004D01*
X26543920Y-4117044D01*
X26557777Y-4071364D01*
X26580281Y-4029263D01*
X26610563Y-3992363D01*
X26647463Y-3962081D01*
X26689564Y-3939577D01*
X26735244Y-3925720D01*
X26785204Y-3920800D01*
X27367796Y-3920800D01*
X27417756Y-3925720D01*
X27417756Y-3925720D01*
G37*
G36*
X25842756Y-3925720D02*
X25888436Y-3939577D01*
X25930537Y-3962081D01*
X25967437Y-3992363D01*
X25997719Y-4029263D01*
X26020223Y-4071364D01*
X26034080Y-4117044D01*
X26039000Y-4167004D01*
X26039000Y-4824596D01*
X26034080Y-4874556D01*
X26020223Y-4920236D01*
X25997719Y-4962337D01*
X25967437Y-4999237D01*
X25930537Y-5029519D01*
X25888436Y-5052023D01*
X25842756Y-5065880D01*
X25792796Y-5070800D01*
X25210204Y-5070800D01*
X25160244Y-5065880D01*
X25114564Y-5052023D01*
X25072463Y-5029519D01*
X25035563Y-4999237D01*
X25005281Y-4962337D01*
X24982777Y-4920236D01*
X24968920Y-4874556D01*
X24964000Y-4824596D01*
X24964000Y-4167004D01*
X24968920Y-4117044D01*
X24982777Y-4071364D01*
X25005281Y-4029263D01*
X25035563Y-3992363D01*
X25072463Y-3962081D01*
X25114564Y-3939577D01*
X25160244Y-3925720D01*
X25210204Y-3920800D01*
X25792796Y-3920800D01*
X25842756Y-3925720D01*
X25842756Y-3925720D01*
G37*
G36*
X26856232Y-333746D02*
X27035308Y-388068D01*
X27200345Y-476282D01*
X27345001Y-594999D01*
X27463718Y-739655D01*
X27551932Y-904692D01*
X27606254Y-1083768D01*
X27624596Y-1270000D01*
X27606254Y-1456232D01*
X27551932Y-1635308D01*
X27463718Y-1800345D01*
X27345001Y-1945001D01*
X27200345Y-2063718D01*
X27200343Y-2063719D01*
X27035308Y-2151932D01*
X26856232Y-2206254D01*
X26716666Y-2220000D01*
X26623334Y-2220000D01*
X26483768Y-2206254D01*
X26304692Y-2151932D01*
X26139657Y-2063719D01*
X26139655Y-2063718D01*
X25994999Y-1945001D01*
X25876282Y-1800345D01*
X25788068Y-1635308D01*
X25733746Y-1456232D01*
X25715404Y-1270000D01*
X25733746Y-1083768D01*
X25788068Y-904692D01*
X25876282Y-739655D01*
X25994999Y-594999D01*
X26139655Y-476282D01*
X26304692Y-388068D01*
X26483768Y-333746D01*
X26623334Y-320000D01*
X26716666Y-320000D01*
X26856232Y-333746D01*
X26856232Y-333746D01*
G37*
G36*
X3996232Y-333746D02*
X4175308Y-388068D01*
X4340345Y-476282D01*
X4485001Y-594999D01*
X4603718Y-739655D01*
X4691932Y-904692D01*
X4746254Y-1083768D01*
X4764596Y-1270000D01*
X4746254Y-1456232D01*
X4691932Y-1635308D01*
X4603718Y-1800345D01*
X4485001Y-1945001D01*
X4340345Y-2063718D01*
X4340343Y-2063719D01*
X4175308Y-2151932D01*
X3996232Y-2206254D01*
X3856666Y-2220000D01*
X3763334Y-2220000D01*
X3623768Y-2206254D01*
X3444692Y-2151932D01*
X3279657Y-2063719D01*
X3279655Y-2063718D01*
X3134999Y-1945001D01*
X3016282Y-1800345D01*
X2928068Y-1635308D01*
X2873746Y-1456232D01*
X2855404Y-1270000D01*
X2873746Y-1083768D01*
X2928068Y-904692D01*
X3016282Y-739655D01*
X3134999Y-594999D01*
X3279655Y-476282D01*
X3444692Y-388068D01*
X3623768Y-333746D01*
X3763334Y-320000D01*
X3856666Y-320000D01*
X3996232Y-333746D01*
X3996232Y-333746D01*
G37*
G36*
X24316232Y-333746D02*
X24495308Y-388068D01*
X24660345Y-476282D01*
X24805001Y-594999D01*
X24923718Y-739655D01*
X25011932Y-904692D01*
X25066254Y-1083768D01*
X25084596Y-1270000D01*
X25066254Y-1456232D01*
X25011932Y-1635308D01*
X24923718Y-1800345D01*
X24805001Y-1945001D01*
X24660345Y-2063718D01*
X24660343Y-2063719D01*
X24495308Y-2151932D01*
X24316232Y-2206254D01*
X24176666Y-2220000D01*
X24083334Y-2220000D01*
X23943768Y-2206254D01*
X23764692Y-2151932D01*
X23599657Y-2063719D01*
X23599655Y-2063718D01*
X23454999Y-1945001D01*
X23336282Y-1800345D01*
X23248068Y-1635308D01*
X23193746Y-1456232D01*
X23175404Y-1270000D01*
X23193746Y-1083768D01*
X23248068Y-904692D01*
X23336282Y-739655D01*
X23454999Y-594999D01*
X23599655Y-476282D01*
X23764692Y-388068D01*
X23943768Y-333746D01*
X24083334Y-320000D01*
X24176666Y-320000D01*
X24316232Y-333746D01*
X24316232Y-333746D01*
G37*
G36*
X21776232Y-333746D02*
X21955308Y-388068D01*
X22120345Y-476282D01*
X22265001Y-594999D01*
X22383718Y-739655D01*
X22471932Y-904692D01*
X22526254Y-1083768D01*
X22544596Y-1270000D01*
X22526254Y-1456232D01*
X22471932Y-1635308D01*
X22383718Y-1800345D01*
X22265001Y-1945001D01*
X22120345Y-2063718D01*
X22120343Y-2063719D01*
X21955308Y-2151932D01*
X21776232Y-2206254D01*
X21636666Y-2220000D01*
X21543334Y-2220000D01*
X21403768Y-2206254D01*
X21224692Y-2151932D01*
X21059657Y-2063719D01*
X21059655Y-2063718D01*
X20914999Y-1945001D01*
X20796282Y-1800345D01*
X20708068Y-1635308D01*
X20653746Y-1456232D01*
X20635404Y-1270000D01*
X20653746Y-1083768D01*
X20708068Y-904692D01*
X20796282Y-739655D01*
X20914999Y-594999D01*
X21059655Y-476282D01*
X21224692Y-388068D01*
X21403768Y-333746D01*
X21543334Y-320000D01*
X21636666Y-320000D01*
X21776232Y-333746D01*
X21776232Y-333746D01*
G37*
G36*
X19236232Y-333746D02*
X19415308Y-388068D01*
X19580345Y-476282D01*
X19725001Y-594999D01*
X19843718Y-739655D01*
X19931932Y-904692D01*
X19986254Y-1083768D01*
X20004596Y-1270000D01*
X19986254Y-1456232D01*
X19931932Y-1635308D01*
X19843718Y-1800345D01*
X19725001Y-1945001D01*
X19580345Y-2063718D01*
X19580343Y-2063719D01*
X19415308Y-2151932D01*
X19236232Y-2206254D01*
X19096666Y-2220000D01*
X19003334Y-2220000D01*
X18863768Y-2206254D01*
X18684692Y-2151932D01*
X18519657Y-2063719D01*
X18519655Y-2063718D01*
X18374999Y-1945001D01*
X18256282Y-1800345D01*
X18168068Y-1635308D01*
X18113746Y-1456232D01*
X18095404Y-1270000D01*
X18113746Y-1083768D01*
X18168068Y-904692D01*
X18256282Y-739655D01*
X18374999Y-594999D01*
X18519655Y-476282D01*
X18684692Y-388068D01*
X18863768Y-333746D01*
X19003334Y-320000D01*
X19096666Y-320000D01*
X19236232Y-333746D01*
X19236232Y-333746D01*
G37*
G36*
X16696232Y-333746D02*
X16875308Y-388068D01*
X17040345Y-476282D01*
X17185001Y-594999D01*
X17303718Y-739655D01*
X17391932Y-904692D01*
X17446254Y-1083768D01*
X17464596Y-1270000D01*
X17446254Y-1456232D01*
X17391932Y-1635308D01*
X17303718Y-1800345D01*
X17185001Y-1945001D01*
X17040345Y-2063718D01*
X17040343Y-2063719D01*
X16875308Y-2151932D01*
X16696232Y-2206254D01*
X16556666Y-2220000D01*
X16463334Y-2220000D01*
X16323768Y-2206254D01*
X16144692Y-2151932D01*
X15979657Y-2063719D01*
X15979655Y-2063718D01*
X15834999Y-1945001D01*
X15716282Y-1800345D01*
X15628068Y-1635308D01*
X15573746Y-1456232D01*
X15555404Y-1270000D01*
X15573746Y-1083768D01*
X15628068Y-904692D01*
X15716282Y-739655D01*
X15834999Y-594999D01*
X15979655Y-476282D01*
X16144692Y-388068D01*
X16323768Y-333746D01*
X16463334Y-320000D01*
X16556666Y-320000D01*
X16696232Y-333746D01*
X16696232Y-333746D01*
G37*
G36*
X14156232Y-333746D02*
X14335308Y-388068D01*
X14500345Y-476282D01*
X14645001Y-594999D01*
X14763718Y-739655D01*
X14851932Y-904692D01*
X14906254Y-1083768D01*
X14924596Y-1270000D01*
X14906254Y-1456232D01*
X14851932Y-1635308D01*
X14763718Y-1800345D01*
X14645001Y-1945001D01*
X14500345Y-2063718D01*
X14500343Y-2063719D01*
X14335308Y-2151932D01*
X14156232Y-2206254D01*
X14016666Y-2220000D01*
X13923334Y-2220000D01*
X13783768Y-2206254D01*
X13604692Y-2151932D01*
X13439657Y-2063719D01*
X13439655Y-2063718D01*
X13294999Y-1945001D01*
X13176282Y-1800345D01*
X13088068Y-1635308D01*
X13033746Y-1456232D01*
X13015404Y-1270000D01*
X13033746Y-1083768D01*
X13088068Y-904692D01*
X13176282Y-739655D01*
X13294999Y-594999D01*
X13439655Y-476282D01*
X13604692Y-388068D01*
X13783768Y-333746D01*
X13923334Y-320000D01*
X14016666Y-320000D01*
X14156232Y-333746D01*
X14156232Y-333746D01*
G37*
G36*
X11616232Y-333746D02*
X11795308Y-388068D01*
X11960345Y-476282D01*
X12105001Y-594999D01*
X12223718Y-739655D01*
X12311932Y-904692D01*
X12366254Y-1083768D01*
X12384596Y-1270000D01*
X12366254Y-1456232D01*
X12311932Y-1635308D01*
X12223718Y-1800345D01*
X12105001Y-1945001D01*
X11960345Y-2063718D01*
X11960343Y-2063719D01*
X11795308Y-2151932D01*
X11616232Y-2206254D01*
X11476666Y-2220000D01*
X11383334Y-2220000D01*
X11243768Y-2206254D01*
X11064692Y-2151932D01*
X10899657Y-2063719D01*
X10899655Y-2063718D01*
X10754999Y-1945001D01*
X10636282Y-1800345D01*
X10548068Y-1635308D01*
X10493746Y-1456232D01*
X10475404Y-1270000D01*
X10493746Y-1083768D01*
X10548068Y-904692D01*
X10636282Y-739655D01*
X10754999Y-594999D01*
X10899655Y-476282D01*
X11064692Y-388068D01*
X11243768Y-333746D01*
X11383334Y-320000D01*
X11476666Y-320000D01*
X11616232Y-333746D01*
X11616232Y-333746D01*
G37*
G36*
X9076232Y-333746D02*
X9255308Y-388068D01*
X9420345Y-476282D01*
X9565001Y-594999D01*
X9683718Y-739655D01*
X9771932Y-904692D01*
X9826254Y-1083768D01*
X9844596Y-1270000D01*
X9826254Y-1456232D01*
X9771932Y-1635308D01*
X9683718Y-1800345D01*
X9565001Y-1945001D01*
X9420345Y-2063718D01*
X9420343Y-2063719D01*
X9255308Y-2151932D01*
X9076232Y-2206254D01*
X8936666Y-2220000D01*
X8843334Y-2220000D01*
X8703768Y-2206254D01*
X8524692Y-2151932D01*
X8359657Y-2063719D01*
X8359655Y-2063718D01*
X8214999Y-1945001D01*
X8096282Y-1800345D01*
X8008068Y-1635308D01*
X7953746Y-1456232D01*
X7935404Y-1270000D01*
X7953746Y-1083768D01*
X8008068Y-904692D01*
X8096282Y-739655D01*
X8214999Y-594999D01*
X8359655Y-476282D01*
X8524692Y-388068D01*
X8703768Y-333746D01*
X8843334Y-320000D01*
X8936666Y-320000D01*
X9076232Y-333746D01*
X9076232Y-333746D01*
G37*
G36*
X6536232Y-333746D02*
X6715308Y-388068D01*
X6880345Y-476282D01*
X7025001Y-594999D01*
X7143718Y-739655D01*
X7231932Y-904692D01*
X7286254Y-1083768D01*
X7304596Y-1270000D01*
X7286254Y-1456232D01*
X7231932Y-1635308D01*
X7143718Y-1800345D01*
X7025001Y-1945001D01*
X6880345Y-2063718D01*
X6880343Y-2063719D01*
X6715308Y-2151932D01*
X6536232Y-2206254D01*
X6396666Y-2220000D01*
X6303334Y-2220000D01*
X6163768Y-2206254D01*
X5984692Y-2151932D01*
X5819657Y-2063719D01*
X5819655Y-2063718D01*
X5674999Y-1945001D01*
X5556282Y-1800345D01*
X5468068Y-1635308D01*
X5413746Y-1456232D01*
X5395404Y-1270000D01*
X5413746Y-1083768D01*
X5468068Y-904692D01*
X5556282Y-739655D01*
X5674999Y-594999D01*
X5819655Y-476282D01*
X5984692Y-388068D01*
X6163768Y-333746D01*
X6303334Y-320000D01*
X6396666Y-320000D01*
X6536232Y-333746D01*
X6536232Y-333746D01*
G37*
G36*
X2220000Y-2220000D02*
X320000Y-2220000D01*
X320000Y-320000D01*
X2220000Y-320000D01*
X2220000Y-2220000D01*
X2220000Y-2220000D01*
G37*
G36*
X29396232Y-333746D02*
X29575308Y-388068D01*
X29740345Y-476282D01*
X29885001Y-594999D01*
X30003718Y-739655D01*
X30091932Y-904692D01*
X30146254Y-1083768D01*
X30164596Y-1270000D01*
X30146254Y-1456232D01*
X30091932Y-1635308D01*
X30003718Y-1800345D01*
X29885001Y-1945001D01*
X29740345Y-2063718D01*
X29740343Y-2063719D01*
X29575308Y-2151932D01*
X29396232Y-2206254D01*
X29256666Y-2220000D01*
X29163334Y-2220000D01*
X29023768Y-2206254D01*
X28844692Y-2151932D01*
X28679657Y-2063719D01*
X28679655Y-2063718D01*
X28534999Y-1945001D01*
X28416282Y-1800345D01*
X28328068Y-1635308D01*
X28273746Y-1456232D01*
X28255404Y-1270000D01*
X28273746Y-1083768D01*
X28328068Y-904692D01*
X28416282Y-739655D01*
X28534999Y-594999D01*
X28679655Y-476282D01*
X28844692Y-388068D01*
X29023768Y-333746D01*
X29163334Y-320000D01*
X29256666Y-320000D01*
X29396232Y-333746D01*
X29396232Y-333746D01*
G37*
G36*
X31936232Y-333746D02*
X32115308Y-388068D01*
X32280345Y-476282D01*
X32425001Y-594999D01*
X32543718Y-739655D01*
X32631932Y-904692D01*
X32686254Y-1083768D01*
X32704596Y-1270000D01*
X32686254Y-1456232D01*
X32631932Y-1635308D01*
X32543718Y-1800345D01*
X32425001Y-1945001D01*
X32280345Y-2063718D01*
X32280343Y-2063719D01*
X32115308Y-2151932D01*
X31936232Y-2206254D01*
X31796666Y-2220000D01*
X31703334Y-2220000D01*
X31563768Y-2206254D01*
X31384692Y-2151932D01*
X31219657Y-2063719D01*
X31219655Y-2063718D01*
X31074999Y-1945001D01*
X30956282Y-1800345D01*
X30868068Y-1635308D01*
X30813746Y-1456232D01*
X30795404Y-1270000D01*
X30813746Y-1083768D01*
X30868068Y-904692D01*
X30956282Y-739655D01*
X31074999Y-594999D01*
X31219655Y-476282D01*
X31384692Y-388068D01*
X31563768Y-333746D01*
X31703334Y-320000D01*
X31796666Y-320000D01*
X31936232Y-333746D01*
X31936232Y-333746D01*
G37*
M02*
