G04 #@! TF.GenerationSoftware,KiCad,Pcbnew,(5.0.0)*
G04 #@! TF.CreationDate,2018-10-21T19:05:11+02:00*
G04 #@! TF.ProjectId,mibo20_stm32,6D69626F32305F73746D33322E6B6963,V1.0*
G04 #@! TF.SameCoordinates,PX8198450PY53920b0*
G04 #@! TF.FileFunction,Copper,L2,Bot,Signal*
G04 #@! TF.FilePolarity,Positive*
%FSLAX46Y46*%
G04 Gerber Fmt 4.6, Leading zero omitted, Abs format (unit mm)*
G04 Created by KiCad (PCBNEW (5.0.0)) date 10/21/18 19:05:11*
%MOMM*%
%LPD*%
G01*
G04 APERTURE LIST*
G04 #@! TA.AperFunction,Conductor*
%ADD10C,0.100000*%
G04 #@! TD*
G04 #@! TA.AperFunction,SMDPad,CuDef*
%ADD11C,0.875000*%
G04 #@! TD*
G04 #@! TA.AperFunction,ComponentPad*
%ADD12O,1.700000X1.700000*%
G04 #@! TD*
G04 #@! TA.AperFunction,ComponentPad*
%ADD13R,1.700000X1.700000*%
G04 #@! TD*
G04 #@! TA.AperFunction,ComponentPad*
%ADD14O,1.900000X1.200000*%
G04 #@! TD*
G04 #@! TA.AperFunction,ComponentPad*
%ADD15C,1.450000*%
G04 #@! TD*
G04 #@! TA.AperFunction,SMDPad,CuDef*
%ADD16R,2.000000X1.500000*%
G04 #@! TD*
G04 #@! TA.AperFunction,SMDPad,CuDef*
%ADD17R,2.000000X3.800000*%
G04 #@! TD*
G04 #@! TA.AperFunction,ComponentPad*
%ADD18C,1.500000*%
G04 #@! TD*
G04 #@! TA.AperFunction,ViaPad*
%ADD19C,0.800000*%
G04 #@! TD*
G04 #@! TA.AperFunction,Conductor*
%ADD20C,0.200000*%
G04 #@! TD*
G04 #@! TA.AperFunction,Conductor*
%ADD21C,0.300000*%
G04 #@! TD*
G04 #@! TA.AperFunction,Conductor*
%ADD22C,0.500000*%
G04 #@! TD*
G04 #@! TA.AperFunction,Conductor*
%ADD23C,0.025400*%
G04 #@! TD*
G04 APERTURE END LIST*
D10*
G04 #@! TO.N,GND*
G04 #@! TO.C,C1*
G36*
X9612691Y-7590553D02*
X9633926Y-7593703D01*
X9654750Y-7598919D01*
X9674962Y-7606151D01*
X9694368Y-7615330D01*
X9712781Y-7626366D01*
X9730024Y-7639154D01*
X9745930Y-7653570D01*
X9760346Y-7669476D01*
X9773134Y-7686719D01*
X9784170Y-7705132D01*
X9793349Y-7724538D01*
X9800581Y-7744750D01*
X9805797Y-7765574D01*
X9808947Y-7786809D01*
X9810000Y-7808250D01*
X9810000Y-8320750D01*
X9808947Y-8342191D01*
X9805797Y-8363426D01*
X9800581Y-8384250D01*
X9793349Y-8404462D01*
X9784170Y-8423868D01*
X9773134Y-8442281D01*
X9760346Y-8459524D01*
X9745930Y-8475430D01*
X9730024Y-8489846D01*
X9712781Y-8502634D01*
X9694368Y-8513670D01*
X9674962Y-8522849D01*
X9654750Y-8530081D01*
X9633926Y-8535297D01*
X9612691Y-8538447D01*
X9591250Y-8539500D01*
X9153750Y-8539500D01*
X9132309Y-8538447D01*
X9111074Y-8535297D01*
X9090250Y-8530081D01*
X9070038Y-8522849D01*
X9050632Y-8513670D01*
X9032219Y-8502634D01*
X9014976Y-8489846D01*
X8999070Y-8475430D01*
X8984654Y-8459524D01*
X8971866Y-8442281D01*
X8960830Y-8423868D01*
X8951651Y-8404462D01*
X8944419Y-8384250D01*
X8939203Y-8363426D01*
X8936053Y-8342191D01*
X8935000Y-8320750D01*
X8935000Y-7808250D01*
X8936053Y-7786809D01*
X8939203Y-7765574D01*
X8944419Y-7744750D01*
X8951651Y-7724538D01*
X8960830Y-7705132D01*
X8971866Y-7686719D01*
X8984654Y-7669476D01*
X8999070Y-7653570D01*
X9014976Y-7639154D01*
X9032219Y-7626366D01*
X9050632Y-7615330D01*
X9070038Y-7606151D01*
X9090250Y-7598919D01*
X9111074Y-7593703D01*
X9132309Y-7590553D01*
X9153750Y-7589500D01*
X9591250Y-7589500D01*
X9612691Y-7590553D01*
X9612691Y-7590553D01*
G37*
D11*
G04 #@! TD*
G04 #@! TO.P,C1,2*
G04 #@! TO.N,GND*
X9372500Y-8064500D03*
D10*
G04 #@! TO.N,/OSC_IN*
G04 #@! TO.C,C1*
G36*
X11187691Y-7590553D02*
X11208926Y-7593703D01*
X11229750Y-7598919D01*
X11249962Y-7606151D01*
X11269368Y-7615330D01*
X11287781Y-7626366D01*
X11305024Y-7639154D01*
X11320930Y-7653570D01*
X11335346Y-7669476D01*
X11348134Y-7686719D01*
X11359170Y-7705132D01*
X11368349Y-7724538D01*
X11375581Y-7744750D01*
X11380797Y-7765574D01*
X11383947Y-7786809D01*
X11385000Y-7808250D01*
X11385000Y-8320750D01*
X11383947Y-8342191D01*
X11380797Y-8363426D01*
X11375581Y-8384250D01*
X11368349Y-8404462D01*
X11359170Y-8423868D01*
X11348134Y-8442281D01*
X11335346Y-8459524D01*
X11320930Y-8475430D01*
X11305024Y-8489846D01*
X11287781Y-8502634D01*
X11269368Y-8513670D01*
X11249962Y-8522849D01*
X11229750Y-8530081D01*
X11208926Y-8535297D01*
X11187691Y-8538447D01*
X11166250Y-8539500D01*
X10728750Y-8539500D01*
X10707309Y-8538447D01*
X10686074Y-8535297D01*
X10665250Y-8530081D01*
X10645038Y-8522849D01*
X10625632Y-8513670D01*
X10607219Y-8502634D01*
X10589976Y-8489846D01*
X10574070Y-8475430D01*
X10559654Y-8459524D01*
X10546866Y-8442281D01*
X10535830Y-8423868D01*
X10526651Y-8404462D01*
X10519419Y-8384250D01*
X10514203Y-8363426D01*
X10511053Y-8342191D01*
X10510000Y-8320750D01*
X10510000Y-7808250D01*
X10511053Y-7786809D01*
X10514203Y-7765574D01*
X10519419Y-7744750D01*
X10526651Y-7724538D01*
X10535830Y-7705132D01*
X10546866Y-7686719D01*
X10559654Y-7669476D01*
X10574070Y-7653570D01*
X10589976Y-7639154D01*
X10607219Y-7626366D01*
X10625632Y-7615330D01*
X10645038Y-7606151D01*
X10665250Y-7598919D01*
X10686074Y-7593703D01*
X10707309Y-7590553D01*
X10728750Y-7589500D01*
X11166250Y-7589500D01*
X11187691Y-7590553D01*
X11187691Y-7590553D01*
G37*
D11*
G04 #@! TD*
G04 #@! TO.P,C1,1*
G04 #@! TO.N,/OSC_IN*
X10947500Y-8064500D03*
D10*
G04 #@! TO.N,GND*
G04 #@! TO.C,C2*
G36*
X9612691Y-9241553D02*
X9633926Y-9244703D01*
X9654750Y-9249919D01*
X9674962Y-9257151D01*
X9694368Y-9266330D01*
X9712781Y-9277366D01*
X9730024Y-9290154D01*
X9745930Y-9304570D01*
X9760346Y-9320476D01*
X9773134Y-9337719D01*
X9784170Y-9356132D01*
X9793349Y-9375538D01*
X9800581Y-9395750D01*
X9805797Y-9416574D01*
X9808947Y-9437809D01*
X9810000Y-9459250D01*
X9810000Y-9971750D01*
X9808947Y-9993191D01*
X9805797Y-10014426D01*
X9800581Y-10035250D01*
X9793349Y-10055462D01*
X9784170Y-10074868D01*
X9773134Y-10093281D01*
X9760346Y-10110524D01*
X9745930Y-10126430D01*
X9730024Y-10140846D01*
X9712781Y-10153634D01*
X9694368Y-10164670D01*
X9674962Y-10173849D01*
X9654750Y-10181081D01*
X9633926Y-10186297D01*
X9612691Y-10189447D01*
X9591250Y-10190500D01*
X9153750Y-10190500D01*
X9132309Y-10189447D01*
X9111074Y-10186297D01*
X9090250Y-10181081D01*
X9070038Y-10173849D01*
X9050632Y-10164670D01*
X9032219Y-10153634D01*
X9014976Y-10140846D01*
X8999070Y-10126430D01*
X8984654Y-10110524D01*
X8971866Y-10093281D01*
X8960830Y-10074868D01*
X8951651Y-10055462D01*
X8944419Y-10035250D01*
X8939203Y-10014426D01*
X8936053Y-9993191D01*
X8935000Y-9971750D01*
X8935000Y-9459250D01*
X8936053Y-9437809D01*
X8939203Y-9416574D01*
X8944419Y-9395750D01*
X8951651Y-9375538D01*
X8960830Y-9356132D01*
X8971866Y-9337719D01*
X8984654Y-9320476D01*
X8999070Y-9304570D01*
X9014976Y-9290154D01*
X9032219Y-9277366D01*
X9050632Y-9266330D01*
X9070038Y-9257151D01*
X9090250Y-9249919D01*
X9111074Y-9244703D01*
X9132309Y-9241553D01*
X9153750Y-9240500D01*
X9591250Y-9240500D01*
X9612691Y-9241553D01*
X9612691Y-9241553D01*
G37*
D11*
G04 #@! TD*
G04 #@! TO.P,C2,2*
G04 #@! TO.N,GND*
X9372500Y-9715500D03*
D10*
G04 #@! TO.N,/OSC_OUT*
G04 #@! TO.C,C2*
G36*
X11187691Y-9241553D02*
X11208926Y-9244703D01*
X11229750Y-9249919D01*
X11249962Y-9257151D01*
X11269368Y-9266330D01*
X11287781Y-9277366D01*
X11305024Y-9290154D01*
X11320930Y-9304570D01*
X11335346Y-9320476D01*
X11348134Y-9337719D01*
X11359170Y-9356132D01*
X11368349Y-9375538D01*
X11375581Y-9395750D01*
X11380797Y-9416574D01*
X11383947Y-9437809D01*
X11385000Y-9459250D01*
X11385000Y-9971750D01*
X11383947Y-9993191D01*
X11380797Y-10014426D01*
X11375581Y-10035250D01*
X11368349Y-10055462D01*
X11359170Y-10074868D01*
X11348134Y-10093281D01*
X11335346Y-10110524D01*
X11320930Y-10126430D01*
X11305024Y-10140846D01*
X11287781Y-10153634D01*
X11269368Y-10164670D01*
X11249962Y-10173849D01*
X11229750Y-10181081D01*
X11208926Y-10186297D01*
X11187691Y-10189447D01*
X11166250Y-10190500D01*
X10728750Y-10190500D01*
X10707309Y-10189447D01*
X10686074Y-10186297D01*
X10665250Y-10181081D01*
X10645038Y-10173849D01*
X10625632Y-10164670D01*
X10607219Y-10153634D01*
X10589976Y-10140846D01*
X10574070Y-10126430D01*
X10559654Y-10110524D01*
X10546866Y-10093281D01*
X10535830Y-10074868D01*
X10526651Y-10055462D01*
X10519419Y-10035250D01*
X10514203Y-10014426D01*
X10511053Y-9993191D01*
X10510000Y-9971750D01*
X10510000Y-9459250D01*
X10511053Y-9437809D01*
X10514203Y-9416574D01*
X10519419Y-9395750D01*
X10526651Y-9375538D01*
X10535830Y-9356132D01*
X10546866Y-9337719D01*
X10559654Y-9320476D01*
X10574070Y-9304570D01*
X10589976Y-9290154D01*
X10607219Y-9277366D01*
X10625632Y-9266330D01*
X10645038Y-9257151D01*
X10665250Y-9249919D01*
X10686074Y-9244703D01*
X10707309Y-9241553D01*
X10728750Y-9240500D01*
X11166250Y-9240500D01*
X11187691Y-9241553D01*
X11187691Y-9241553D01*
G37*
D11*
G04 #@! TD*
G04 #@! TO.P,C2,1*
G04 #@! TO.N,/OSC_OUT*
X10947500Y-9715500D03*
D10*
G04 #@! TO.N,GND*
G04 #@! TO.C,C3*
G36*
X17422691Y-11222053D02*
X17443926Y-11225203D01*
X17464750Y-11230419D01*
X17484962Y-11237651D01*
X17504368Y-11246830D01*
X17522781Y-11257866D01*
X17540024Y-11270654D01*
X17555930Y-11285070D01*
X17570346Y-11300976D01*
X17583134Y-11318219D01*
X17594170Y-11336632D01*
X17603349Y-11356038D01*
X17610581Y-11376250D01*
X17615797Y-11397074D01*
X17618947Y-11418309D01*
X17620000Y-11439750D01*
X17620000Y-11877250D01*
X17618947Y-11898691D01*
X17615797Y-11919926D01*
X17610581Y-11940750D01*
X17603349Y-11960962D01*
X17594170Y-11980368D01*
X17583134Y-11998781D01*
X17570346Y-12016024D01*
X17555930Y-12031930D01*
X17540024Y-12046346D01*
X17522781Y-12059134D01*
X17504368Y-12070170D01*
X17484962Y-12079349D01*
X17464750Y-12086581D01*
X17443926Y-12091797D01*
X17422691Y-12094947D01*
X17401250Y-12096000D01*
X16888750Y-12096000D01*
X16867309Y-12094947D01*
X16846074Y-12091797D01*
X16825250Y-12086581D01*
X16805038Y-12079349D01*
X16785632Y-12070170D01*
X16767219Y-12059134D01*
X16749976Y-12046346D01*
X16734070Y-12031930D01*
X16719654Y-12016024D01*
X16706866Y-11998781D01*
X16695830Y-11980368D01*
X16686651Y-11960962D01*
X16679419Y-11940750D01*
X16674203Y-11919926D01*
X16671053Y-11898691D01*
X16670000Y-11877250D01*
X16670000Y-11439750D01*
X16671053Y-11418309D01*
X16674203Y-11397074D01*
X16679419Y-11376250D01*
X16686651Y-11356038D01*
X16695830Y-11336632D01*
X16706866Y-11318219D01*
X16719654Y-11300976D01*
X16734070Y-11285070D01*
X16749976Y-11270654D01*
X16767219Y-11257866D01*
X16785632Y-11246830D01*
X16805038Y-11237651D01*
X16825250Y-11230419D01*
X16846074Y-11225203D01*
X16867309Y-11222053D01*
X16888750Y-11221000D01*
X17401250Y-11221000D01*
X17422691Y-11222053D01*
X17422691Y-11222053D01*
G37*
D11*
G04 #@! TD*
G04 #@! TO.P,C3,2*
G04 #@! TO.N,GND*
X17145000Y-11658500D03*
D10*
G04 #@! TO.N,/RESET*
G04 #@! TO.C,C3*
G36*
X17422691Y-12797053D02*
X17443926Y-12800203D01*
X17464750Y-12805419D01*
X17484962Y-12812651D01*
X17504368Y-12821830D01*
X17522781Y-12832866D01*
X17540024Y-12845654D01*
X17555930Y-12860070D01*
X17570346Y-12875976D01*
X17583134Y-12893219D01*
X17594170Y-12911632D01*
X17603349Y-12931038D01*
X17610581Y-12951250D01*
X17615797Y-12972074D01*
X17618947Y-12993309D01*
X17620000Y-13014750D01*
X17620000Y-13452250D01*
X17618947Y-13473691D01*
X17615797Y-13494926D01*
X17610581Y-13515750D01*
X17603349Y-13535962D01*
X17594170Y-13555368D01*
X17583134Y-13573781D01*
X17570346Y-13591024D01*
X17555930Y-13606930D01*
X17540024Y-13621346D01*
X17522781Y-13634134D01*
X17504368Y-13645170D01*
X17484962Y-13654349D01*
X17464750Y-13661581D01*
X17443926Y-13666797D01*
X17422691Y-13669947D01*
X17401250Y-13671000D01*
X16888750Y-13671000D01*
X16867309Y-13669947D01*
X16846074Y-13666797D01*
X16825250Y-13661581D01*
X16805038Y-13654349D01*
X16785632Y-13645170D01*
X16767219Y-13634134D01*
X16749976Y-13621346D01*
X16734070Y-13606930D01*
X16719654Y-13591024D01*
X16706866Y-13573781D01*
X16695830Y-13555368D01*
X16686651Y-13535962D01*
X16679419Y-13515750D01*
X16674203Y-13494926D01*
X16671053Y-13473691D01*
X16670000Y-13452250D01*
X16670000Y-13014750D01*
X16671053Y-12993309D01*
X16674203Y-12972074D01*
X16679419Y-12951250D01*
X16686651Y-12931038D01*
X16695830Y-12911632D01*
X16706866Y-12893219D01*
X16719654Y-12875976D01*
X16734070Y-12860070D01*
X16749976Y-12845654D01*
X16767219Y-12832866D01*
X16785632Y-12821830D01*
X16805038Y-12812651D01*
X16825250Y-12805419D01*
X16846074Y-12800203D01*
X16867309Y-12797053D01*
X16888750Y-12796000D01*
X17401250Y-12796000D01*
X17422691Y-12797053D01*
X17422691Y-12797053D01*
G37*
D11*
G04 #@! TD*
G04 #@! TO.P,C3,1*
G04 #@! TO.N,/RESET*
X17145000Y-13233500D03*
D10*
G04 #@! TO.N,+3V3*
G04 #@! TO.C,C4*
G36*
X25677691Y-8555053D02*
X25698926Y-8558203D01*
X25719750Y-8563419D01*
X25739962Y-8570651D01*
X25759368Y-8579830D01*
X25777781Y-8590866D01*
X25795024Y-8603654D01*
X25810930Y-8618070D01*
X25825346Y-8633976D01*
X25838134Y-8651219D01*
X25849170Y-8669632D01*
X25858349Y-8689038D01*
X25865581Y-8709250D01*
X25870797Y-8730074D01*
X25873947Y-8751309D01*
X25875000Y-8772750D01*
X25875000Y-9210250D01*
X25873947Y-9231691D01*
X25870797Y-9252926D01*
X25865581Y-9273750D01*
X25858349Y-9293962D01*
X25849170Y-9313368D01*
X25838134Y-9331781D01*
X25825346Y-9349024D01*
X25810930Y-9364930D01*
X25795024Y-9379346D01*
X25777781Y-9392134D01*
X25759368Y-9403170D01*
X25739962Y-9412349D01*
X25719750Y-9419581D01*
X25698926Y-9424797D01*
X25677691Y-9427947D01*
X25656250Y-9429000D01*
X25143750Y-9429000D01*
X25122309Y-9427947D01*
X25101074Y-9424797D01*
X25080250Y-9419581D01*
X25060038Y-9412349D01*
X25040632Y-9403170D01*
X25022219Y-9392134D01*
X25004976Y-9379346D01*
X24989070Y-9364930D01*
X24974654Y-9349024D01*
X24961866Y-9331781D01*
X24950830Y-9313368D01*
X24941651Y-9293962D01*
X24934419Y-9273750D01*
X24929203Y-9252926D01*
X24926053Y-9231691D01*
X24925000Y-9210250D01*
X24925000Y-8772750D01*
X24926053Y-8751309D01*
X24929203Y-8730074D01*
X24934419Y-8709250D01*
X24941651Y-8689038D01*
X24950830Y-8669632D01*
X24961866Y-8651219D01*
X24974654Y-8633976D01*
X24989070Y-8618070D01*
X25004976Y-8603654D01*
X25022219Y-8590866D01*
X25040632Y-8579830D01*
X25060038Y-8570651D01*
X25080250Y-8563419D01*
X25101074Y-8558203D01*
X25122309Y-8555053D01*
X25143750Y-8554000D01*
X25656250Y-8554000D01*
X25677691Y-8555053D01*
X25677691Y-8555053D01*
G37*
D11*
G04 #@! TD*
G04 #@! TO.P,C4,1*
G04 #@! TO.N,+3V3*
X25400000Y-8991500D03*
D10*
G04 #@! TO.N,GND*
G04 #@! TO.C,C4*
G36*
X25677691Y-10130053D02*
X25698926Y-10133203D01*
X25719750Y-10138419D01*
X25739962Y-10145651D01*
X25759368Y-10154830D01*
X25777781Y-10165866D01*
X25795024Y-10178654D01*
X25810930Y-10193070D01*
X25825346Y-10208976D01*
X25838134Y-10226219D01*
X25849170Y-10244632D01*
X25858349Y-10264038D01*
X25865581Y-10284250D01*
X25870797Y-10305074D01*
X25873947Y-10326309D01*
X25875000Y-10347750D01*
X25875000Y-10785250D01*
X25873947Y-10806691D01*
X25870797Y-10827926D01*
X25865581Y-10848750D01*
X25858349Y-10868962D01*
X25849170Y-10888368D01*
X25838134Y-10906781D01*
X25825346Y-10924024D01*
X25810930Y-10939930D01*
X25795024Y-10954346D01*
X25777781Y-10967134D01*
X25759368Y-10978170D01*
X25739962Y-10987349D01*
X25719750Y-10994581D01*
X25698926Y-10999797D01*
X25677691Y-11002947D01*
X25656250Y-11004000D01*
X25143750Y-11004000D01*
X25122309Y-11002947D01*
X25101074Y-10999797D01*
X25080250Y-10994581D01*
X25060038Y-10987349D01*
X25040632Y-10978170D01*
X25022219Y-10967134D01*
X25004976Y-10954346D01*
X24989070Y-10939930D01*
X24974654Y-10924024D01*
X24961866Y-10906781D01*
X24950830Y-10888368D01*
X24941651Y-10868962D01*
X24934419Y-10848750D01*
X24929203Y-10827926D01*
X24926053Y-10806691D01*
X24925000Y-10785250D01*
X24925000Y-10347750D01*
X24926053Y-10326309D01*
X24929203Y-10305074D01*
X24934419Y-10284250D01*
X24941651Y-10264038D01*
X24950830Y-10244632D01*
X24961866Y-10226219D01*
X24974654Y-10208976D01*
X24989070Y-10193070D01*
X25004976Y-10178654D01*
X25022219Y-10165866D01*
X25040632Y-10154830D01*
X25060038Y-10145651D01*
X25080250Y-10138419D01*
X25101074Y-10133203D01*
X25122309Y-10130053D01*
X25143750Y-10129000D01*
X25656250Y-10129000D01*
X25677691Y-10130053D01*
X25677691Y-10130053D01*
G37*
D11*
G04 #@! TD*
G04 #@! TO.P,C4,2*
G04 #@! TO.N,GND*
X25400000Y-10566500D03*
D10*
G04 #@! TO.N,+3V3*
G04 #@! TO.C,C5*
G36*
X27201691Y-8631553D02*
X27222926Y-8634703D01*
X27243750Y-8639919D01*
X27263962Y-8647151D01*
X27283368Y-8656330D01*
X27301781Y-8667366D01*
X27319024Y-8680154D01*
X27334930Y-8694570D01*
X27349346Y-8710476D01*
X27362134Y-8727719D01*
X27373170Y-8746132D01*
X27382349Y-8765538D01*
X27389581Y-8785750D01*
X27394797Y-8806574D01*
X27397947Y-8827809D01*
X27399000Y-8849250D01*
X27399000Y-9286750D01*
X27397947Y-9308191D01*
X27394797Y-9329426D01*
X27389581Y-9350250D01*
X27382349Y-9370462D01*
X27373170Y-9389868D01*
X27362134Y-9408281D01*
X27349346Y-9425524D01*
X27334930Y-9441430D01*
X27319024Y-9455846D01*
X27301781Y-9468634D01*
X27283368Y-9479670D01*
X27263962Y-9488849D01*
X27243750Y-9496081D01*
X27222926Y-9501297D01*
X27201691Y-9504447D01*
X27180250Y-9505500D01*
X26667750Y-9505500D01*
X26646309Y-9504447D01*
X26625074Y-9501297D01*
X26604250Y-9496081D01*
X26584038Y-9488849D01*
X26564632Y-9479670D01*
X26546219Y-9468634D01*
X26528976Y-9455846D01*
X26513070Y-9441430D01*
X26498654Y-9425524D01*
X26485866Y-9408281D01*
X26474830Y-9389868D01*
X26465651Y-9370462D01*
X26458419Y-9350250D01*
X26453203Y-9329426D01*
X26450053Y-9308191D01*
X26449000Y-9286750D01*
X26449000Y-8849250D01*
X26450053Y-8827809D01*
X26453203Y-8806574D01*
X26458419Y-8785750D01*
X26465651Y-8765538D01*
X26474830Y-8746132D01*
X26485866Y-8727719D01*
X26498654Y-8710476D01*
X26513070Y-8694570D01*
X26528976Y-8680154D01*
X26546219Y-8667366D01*
X26564632Y-8656330D01*
X26584038Y-8647151D01*
X26604250Y-8639919D01*
X26625074Y-8634703D01*
X26646309Y-8631553D01*
X26667750Y-8630500D01*
X27180250Y-8630500D01*
X27201691Y-8631553D01*
X27201691Y-8631553D01*
G37*
D11*
G04 #@! TD*
G04 #@! TO.P,C5,1*
G04 #@! TO.N,+3V3*
X26924000Y-9068000D03*
D10*
G04 #@! TO.N,GND*
G04 #@! TO.C,C5*
G36*
X27201691Y-7056553D02*
X27222926Y-7059703D01*
X27243750Y-7064919D01*
X27263962Y-7072151D01*
X27283368Y-7081330D01*
X27301781Y-7092366D01*
X27319024Y-7105154D01*
X27334930Y-7119570D01*
X27349346Y-7135476D01*
X27362134Y-7152719D01*
X27373170Y-7171132D01*
X27382349Y-7190538D01*
X27389581Y-7210750D01*
X27394797Y-7231574D01*
X27397947Y-7252809D01*
X27399000Y-7274250D01*
X27399000Y-7711750D01*
X27397947Y-7733191D01*
X27394797Y-7754426D01*
X27389581Y-7775250D01*
X27382349Y-7795462D01*
X27373170Y-7814868D01*
X27362134Y-7833281D01*
X27349346Y-7850524D01*
X27334930Y-7866430D01*
X27319024Y-7880846D01*
X27301781Y-7893634D01*
X27283368Y-7904670D01*
X27263962Y-7913849D01*
X27243750Y-7921081D01*
X27222926Y-7926297D01*
X27201691Y-7929447D01*
X27180250Y-7930500D01*
X26667750Y-7930500D01*
X26646309Y-7929447D01*
X26625074Y-7926297D01*
X26604250Y-7921081D01*
X26584038Y-7913849D01*
X26564632Y-7904670D01*
X26546219Y-7893634D01*
X26528976Y-7880846D01*
X26513070Y-7866430D01*
X26498654Y-7850524D01*
X26485866Y-7833281D01*
X26474830Y-7814868D01*
X26465651Y-7795462D01*
X26458419Y-7775250D01*
X26453203Y-7754426D01*
X26450053Y-7733191D01*
X26449000Y-7711750D01*
X26449000Y-7274250D01*
X26450053Y-7252809D01*
X26453203Y-7231574D01*
X26458419Y-7210750D01*
X26465651Y-7190538D01*
X26474830Y-7171132D01*
X26485866Y-7152719D01*
X26498654Y-7135476D01*
X26513070Y-7119570D01*
X26528976Y-7105154D01*
X26546219Y-7092366D01*
X26564632Y-7081330D01*
X26584038Y-7072151D01*
X26604250Y-7064919D01*
X26625074Y-7059703D01*
X26646309Y-7056553D01*
X26667750Y-7055500D01*
X27180250Y-7055500D01*
X27201691Y-7056553D01*
X27201691Y-7056553D01*
G37*
D11*
G04 #@! TD*
G04 #@! TO.P,C5,2*
G04 #@! TO.N,GND*
X26924000Y-7493000D03*
D10*
G04 #@! TO.N,/5V*
G04 #@! TO.C,C8*
G36*
X25677691Y-13178053D02*
X25698926Y-13181203D01*
X25719750Y-13186419D01*
X25739962Y-13193651D01*
X25759368Y-13202830D01*
X25777781Y-13213866D01*
X25795024Y-13226654D01*
X25810930Y-13241070D01*
X25825346Y-13256976D01*
X25838134Y-13274219D01*
X25849170Y-13292632D01*
X25858349Y-13312038D01*
X25865581Y-13332250D01*
X25870797Y-13353074D01*
X25873947Y-13374309D01*
X25875000Y-13395750D01*
X25875000Y-13833250D01*
X25873947Y-13854691D01*
X25870797Y-13875926D01*
X25865581Y-13896750D01*
X25858349Y-13916962D01*
X25849170Y-13936368D01*
X25838134Y-13954781D01*
X25825346Y-13972024D01*
X25810930Y-13987930D01*
X25795024Y-14002346D01*
X25777781Y-14015134D01*
X25759368Y-14026170D01*
X25739962Y-14035349D01*
X25719750Y-14042581D01*
X25698926Y-14047797D01*
X25677691Y-14050947D01*
X25656250Y-14052000D01*
X25143750Y-14052000D01*
X25122309Y-14050947D01*
X25101074Y-14047797D01*
X25080250Y-14042581D01*
X25060038Y-14035349D01*
X25040632Y-14026170D01*
X25022219Y-14015134D01*
X25004976Y-14002346D01*
X24989070Y-13987930D01*
X24974654Y-13972024D01*
X24961866Y-13954781D01*
X24950830Y-13936368D01*
X24941651Y-13916962D01*
X24934419Y-13896750D01*
X24929203Y-13875926D01*
X24926053Y-13854691D01*
X24925000Y-13833250D01*
X24925000Y-13395750D01*
X24926053Y-13374309D01*
X24929203Y-13353074D01*
X24934419Y-13332250D01*
X24941651Y-13312038D01*
X24950830Y-13292632D01*
X24961866Y-13274219D01*
X24974654Y-13256976D01*
X24989070Y-13241070D01*
X25004976Y-13226654D01*
X25022219Y-13213866D01*
X25040632Y-13202830D01*
X25060038Y-13193651D01*
X25080250Y-13186419D01*
X25101074Y-13181203D01*
X25122309Y-13178053D01*
X25143750Y-13177000D01*
X25656250Y-13177000D01*
X25677691Y-13178053D01*
X25677691Y-13178053D01*
G37*
D11*
G04 #@! TD*
G04 #@! TO.P,C8,1*
G04 #@! TO.N,/5V*
X25400000Y-13614500D03*
D10*
G04 #@! TO.N,GND*
G04 #@! TO.C,C8*
G36*
X25677691Y-11603053D02*
X25698926Y-11606203D01*
X25719750Y-11611419D01*
X25739962Y-11618651D01*
X25759368Y-11627830D01*
X25777781Y-11638866D01*
X25795024Y-11651654D01*
X25810930Y-11666070D01*
X25825346Y-11681976D01*
X25838134Y-11699219D01*
X25849170Y-11717632D01*
X25858349Y-11737038D01*
X25865581Y-11757250D01*
X25870797Y-11778074D01*
X25873947Y-11799309D01*
X25875000Y-11820750D01*
X25875000Y-12258250D01*
X25873947Y-12279691D01*
X25870797Y-12300926D01*
X25865581Y-12321750D01*
X25858349Y-12341962D01*
X25849170Y-12361368D01*
X25838134Y-12379781D01*
X25825346Y-12397024D01*
X25810930Y-12412930D01*
X25795024Y-12427346D01*
X25777781Y-12440134D01*
X25759368Y-12451170D01*
X25739962Y-12460349D01*
X25719750Y-12467581D01*
X25698926Y-12472797D01*
X25677691Y-12475947D01*
X25656250Y-12477000D01*
X25143750Y-12477000D01*
X25122309Y-12475947D01*
X25101074Y-12472797D01*
X25080250Y-12467581D01*
X25060038Y-12460349D01*
X25040632Y-12451170D01*
X25022219Y-12440134D01*
X25004976Y-12427346D01*
X24989070Y-12412930D01*
X24974654Y-12397024D01*
X24961866Y-12379781D01*
X24950830Y-12361368D01*
X24941651Y-12341962D01*
X24934419Y-12321750D01*
X24929203Y-12300926D01*
X24926053Y-12279691D01*
X24925000Y-12258250D01*
X24925000Y-11820750D01*
X24926053Y-11799309D01*
X24929203Y-11778074D01*
X24934419Y-11757250D01*
X24941651Y-11737038D01*
X24950830Y-11717632D01*
X24961866Y-11699219D01*
X24974654Y-11681976D01*
X24989070Y-11666070D01*
X25004976Y-11651654D01*
X25022219Y-11638866D01*
X25040632Y-11627830D01*
X25060038Y-11618651D01*
X25080250Y-11611419D01*
X25101074Y-11606203D01*
X25122309Y-11603053D01*
X25143750Y-11602000D01*
X25656250Y-11602000D01*
X25677691Y-11603053D01*
X25677691Y-11603053D01*
G37*
D11*
G04 #@! TD*
G04 #@! TO.P,C8,2*
G04 #@! TO.N,GND*
X25400000Y-12039500D03*
D12*
G04 #@! TO.P,J1,2*
G04 #@! TO.N,/BOOT0*
X6985000Y-10160000D03*
D13*
G04 #@! TO.P,J1,1*
G04 #@! TO.N,+3V3*
X6985000Y-12700000D03*
G04 #@! TD*
D12*
G04 #@! TO.P,J2,13*
G04 #@! TO.N,GND*
X31750001Y-16510000D03*
G04 #@! TO.P,J2,12*
G04 #@! TO.N,/5V*
X29210001Y-16510000D03*
G04 #@! TO.P,J2,11*
G04 #@! TO.N,/LED1*
X26670001Y-16510000D03*
G04 #@! TO.P,J2,10*
G04 #@! TO.N,/PA7*
X24130001Y-16510000D03*
G04 #@! TO.P,J2,9*
G04 #@! TO.N,/PA6*
X21590001Y-16510000D03*
G04 #@! TO.P,J2,8*
G04 #@! TO.N,/PA5*
X19050001Y-16510000D03*
G04 #@! TO.P,J2,7*
G04 #@! TO.N,/PA4*
X16510001Y-16510000D03*
G04 #@! TO.P,J2,6*
G04 #@! TO.N,/PA3*
X13970001Y-16510000D03*
G04 #@! TO.P,J2,5*
G04 #@! TO.N,/PA2*
X11430001Y-16510000D03*
G04 #@! TO.P,J2,4*
G04 #@! TO.N,/PA1*
X8890001Y-16510000D03*
G04 #@! TO.P,J2,3*
G04 #@! TO.N,/PA0*
X6350001Y-16510000D03*
G04 #@! TO.P,J2,2*
G04 #@! TO.N,+3V3*
X3810001Y-16510000D03*
D13*
G04 #@! TO.P,J2,1*
G04 #@! TO.N,GND*
X1270001Y-16510000D03*
G04 #@! TD*
G04 #@! TO.P,J3,1*
G04 #@! TO.N,GND*
X1270000Y-1270000D03*
D12*
G04 #@! TO.P,J3,2*
G04 #@! TO.N,/5V*
X3810000Y-1270000D03*
G04 #@! TO.P,J3,3*
G04 #@! TO.N,/OSC_OUT*
X6350000Y-1270000D03*
G04 #@! TO.P,J3,4*
G04 #@! TO.N,/OSC_IN*
X8890000Y-1270000D03*
G04 #@! TO.P,J3,5*
G04 #@! TO.N,/BOOT0*
X11430000Y-1270000D03*
G04 #@! TO.P,J3,6*
G04 #@! TO.N,/RESET*
X13970000Y-1270000D03*
G04 #@! TO.P,J3,7*
G04 #@! TO.N,/PA11*
X16510000Y-1270000D03*
G04 #@! TO.P,J3,8*
G04 #@! TO.N,/PA10*
X19050000Y-1270000D03*
G04 #@! TO.P,J3,9*
G04 #@! TO.N,/PA13*
X21590000Y-1270000D03*
G04 #@! TO.P,J3,10*
G04 #@! TO.N,/PA14*
X24130000Y-1270000D03*
G04 #@! TO.P,J3,11*
G04 #@! TO.N,GND*
X26670000Y-1270000D03*
G04 #@! TO.P,J3,12*
G04 #@! TO.N,+3V3*
X29210000Y-1270000D03*
G04 #@! TO.P,J3,13*
G04 #@! TO.N,GND*
X31750000Y-1270000D03*
G04 #@! TD*
D14*
G04 #@! TO.P,J4,6*
G04 #@! TO.N,GND*
X31463500Y-4628000D03*
X31463500Y-11628000D03*
D15*
X28763500Y-5628000D03*
X28763500Y-10628000D03*
G04 #@! TD*
D13*
G04 #@! TO.P,J5,1*
G04 #@! TO.N,+3V3*
X4445000Y-5080000D03*
D12*
G04 #@! TO.P,J5,2*
G04 #@! TO.N,/PA13*
X4445000Y-7620000D03*
G04 #@! TO.P,J5,3*
G04 #@! TO.N,/PA14*
X4445000Y-10160000D03*
G04 #@! TO.P,J5,4*
G04 #@! TO.N,GND*
X4445000Y-12700000D03*
G04 #@! TD*
D10*
G04 #@! TO.N,GND*
G04 #@! TO.C,R1*
G36*
X17930691Y-4110053D02*
X17951926Y-4113203D01*
X17972750Y-4118419D01*
X17992962Y-4125651D01*
X18012368Y-4134830D01*
X18030781Y-4145866D01*
X18048024Y-4158654D01*
X18063930Y-4173070D01*
X18078346Y-4188976D01*
X18091134Y-4206219D01*
X18102170Y-4224632D01*
X18111349Y-4244038D01*
X18118581Y-4264250D01*
X18123797Y-4285074D01*
X18126947Y-4306309D01*
X18128000Y-4327750D01*
X18128000Y-4765250D01*
X18126947Y-4786691D01*
X18123797Y-4807926D01*
X18118581Y-4828750D01*
X18111349Y-4848962D01*
X18102170Y-4868368D01*
X18091134Y-4886781D01*
X18078346Y-4904024D01*
X18063930Y-4919930D01*
X18048024Y-4934346D01*
X18030781Y-4947134D01*
X18012368Y-4958170D01*
X17992962Y-4967349D01*
X17972750Y-4974581D01*
X17951926Y-4979797D01*
X17930691Y-4982947D01*
X17909250Y-4984000D01*
X17396750Y-4984000D01*
X17375309Y-4982947D01*
X17354074Y-4979797D01*
X17333250Y-4974581D01*
X17313038Y-4967349D01*
X17293632Y-4958170D01*
X17275219Y-4947134D01*
X17257976Y-4934346D01*
X17242070Y-4919930D01*
X17227654Y-4904024D01*
X17214866Y-4886781D01*
X17203830Y-4868368D01*
X17194651Y-4848962D01*
X17187419Y-4828750D01*
X17182203Y-4807926D01*
X17179053Y-4786691D01*
X17178000Y-4765250D01*
X17178000Y-4327750D01*
X17179053Y-4306309D01*
X17182203Y-4285074D01*
X17187419Y-4264250D01*
X17194651Y-4244038D01*
X17203830Y-4224632D01*
X17214866Y-4206219D01*
X17227654Y-4188976D01*
X17242070Y-4173070D01*
X17257976Y-4158654D01*
X17275219Y-4145866D01*
X17293632Y-4134830D01*
X17313038Y-4125651D01*
X17333250Y-4118419D01*
X17354074Y-4113203D01*
X17375309Y-4110053D01*
X17396750Y-4109000D01*
X17909250Y-4109000D01*
X17930691Y-4110053D01*
X17930691Y-4110053D01*
G37*
D11*
G04 #@! TD*
G04 #@! TO.P,R1,2*
G04 #@! TO.N,GND*
X17653000Y-4546500D03*
D10*
G04 #@! TO.N,/BOOT0*
G04 #@! TO.C,R1*
G36*
X17930691Y-5685053D02*
X17951926Y-5688203D01*
X17972750Y-5693419D01*
X17992962Y-5700651D01*
X18012368Y-5709830D01*
X18030781Y-5720866D01*
X18048024Y-5733654D01*
X18063930Y-5748070D01*
X18078346Y-5763976D01*
X18091134Y-5781219D01*
X18102170Y-5799632D01*
X18111349Y-5819038D01*
X18118581Y-5839250D01*
X18123797Y-5860074D01*
X18126947Y-5881309D01*
X18128000Y-5902750D01*
X18128000Y-6340250D01*
X18126947Y-6361691D01*
X18123797Y-6382926D01*
X18118581Y-6403750D01*
X18111349Y-6423962D01*
X18102170Y-6443368D01*
X18091134Y-6461781D01*
X18078346Y-6479024D01*
X18063930Y-6494930D01*
X18048024Y-6509346D01*
X18030781Y-6522134D01*
X18012368Y-6533170D01*
X17992962Y-6542349D01*
X17972750Y-6549581D01*
X17951926Y-6554797D01*
X17930691Y-6557947D01*
X17909250Y-6559000D01*
X17396750Y-6559000D01*
X17375309Y-6557947D01*
X17354074Y-6554797D01*
X17333250Y-6549581D01*
X17313038Y-6542349D01*
X17293632Y-6533170D01*
X17275219Y-6522134D01*
X17257976Y-6509346D01*
X17242070Y-6494930D01*
X17227654Y-6479024D01*
X17214866Y-6461781D01*
X17203830Y-6443368D01*
X17194651Y-6423962D01*
X17187419Y-6403750D01*
X17182203Y-6382926D01*
X17179053Y-6361691D01*
X17178000Y-6340250D01*
X17178000Y-5902750D01*
X17179053Y-5881309D01*
X17182203Y-5860074D01*
X17187419Y-5839250D01*
X17194651Y-5819038D01*
X17203830Y-5799632D01*
X17214866Y-5781219D01*
X17227654Y-5763976D01*
X17242070Y-5748070D01*
X17257976Y-5733654D01*
X17275219Y-5720866D01*
X17293632Y-5709830D01*
X17313038Y-5700651D01*
X17333250Y-5693419D01*
X17354074Y-5688203D01*
X17375309Y-5685053D01*
X17396750Y-5684000D01*
X17909250Y-5684000D01*
X17930691Y-5685053D01*
X17930691Y-5685053D01*
G37*
D11*
G04 #@! TD*
G04 #@! TO.P,R1,1*
G04 #@! TO.N,/BOOT0*
X17653000Y-6121500D03*
D10*
G04 #@! TO.N,/RESET*
G04 #@! TO.C,R2*
G36*
X15898691Y-12111053D02*
X15919926Y-12114203D01*
X15940750Y-12119419D01*
X15960962Y-12126651D01*
X15980368Y-12135830D01*
X15998781Y-12146866D01*
X16016024Y-12159654D01*
X16031930Y-12174070D01*
X16046346Y-12189976D01*
X16059134Y-12207219D01*
X16070170Y-12225632D01*
X16079349Y-12245038D01*
X16086581Y-12265250D01*
X16091797Y-12286074D01*
X16094947Y-12307309D01*
X16096000Y-12328750D01*
X16096000Y-12766250D01*
X16094947Y-12787691D01*
X16091797Y-12808926D01*
X16086581Y-12829750D01*
X16079349Y-12849962D01*
X16070170Y-12869368D01*
X16059134Y-12887781D01*
X16046346Y-12905024D01*
X16031930Y-12920930D01*
X16016024Y-12935346D01*
X15998781Y-12948134D01*
X15980368Y-12959170D01*
X15960962Y-12968349D01*
X15940750Y-12975581D01*
X15919926Y-12980797D01*
X15898691Y-12983947D01*
X15877250Y-12985000D01*
X15364750Y-12985000D01*
X15343309Y-12983947D01*
X15322074Y-12980797D01*
X15301250Y-12975581D01*
X15281038Y-12968349D01*
X15261632Y-12959170D01*
X15243219Y-12948134D01*
X15225976Y-12935346D01*
X15210070Y-12920930D01*
X15195654Y-12905024D01*
X15182866Y-12887781D01*
X15171830Y-12869368D01*
X15162651Y-12849962D01*
X15155419Y-12829750D01*
X15150203Y-12808926D01*
X15147053Y-12787691D01*
X15146000Y-12766250D01*
X15146000Y-12328750D01*
X15147053Y-12307309D01*
X15150203Y-12286074D01*
X15155419Y-12265250D01*
X15162651Y-12245038D01*
X15171830Y-12225632D01*
X15182866Y-12207219D01*
X15195654Y-12189976D01*
X15210070Y-12174070D01*
X15225976Y-12159654D01*
X15243219Y-12146866D01*
X15261632Y-12135830D01*
X15281038Y-12126651D01*
X15301250Y-12119419D01*
X15322074Y-12114203D01*
X15343309Y-12111053D01*
X15364750Y-12110000D01*
X15877250Y-12110000D01*
X15898691Y-12111053D01*
X15898691Y-12111053D01*
G37*
D11*
G04 #@! TD*
G04 #@! TO.P,R2,1*
G04 #@! TO.N,/RESET*
X15621000Y-12547500D03*
D10*
G04 #@! TO.N,+3V3*
G04 #@! TO.C,R2*
G36*
X15898691Y-13686053D02*
X15919926Y-13689203D01*
X15940750Y-13694419D01*
X15960962Y-13701651D01*
X15980368Y-13710830D01*
X15998781Y-13721866D01*
X16016024Y-13734654D01*
X16031930Y-13749070D01*
X16046346Y-13764976D01*
X16059134Y-13782219D01*
X16070170Y-13800632D01*
X16079349Y-13820038D01*
X16086581Y-13840250D01*
X16091797Y-13861074D01*
X16094947Y-13882309D01*
X16096000Y-13903750D01*
X16096000Y-14341250D01*
X16094947Y-14362691D01*
X16091797Y-14383926D01*
X16086581Y-14404750D01*
X16079349Y-14424962D01*
X16070170Y-14444368D01*
X16059134Y-14462781D01*
X16046346Y-14480024D01*
X16031930Y-14495930D01*
X16016024Y-14510346D01*
X15998781Y-14523134D01*
X15980368Y-14534170D01*
X15960962Y-14543349D01*
X15940750Y-14550581D01*
X15919926Y-14555797D01*
X15898691Y-14558947D01*
X15877250Y-14560000D01*
X15364750Y-14560000D01*
X15343309Y-14558947D01*
X15322074Y-14555797D01*
X15301250Y-14550581D01*
X15281038Y-14543349D01*
X15261632Y-14534170D01*
X15243219Y-14523134D01*
X15225976Y-14510346D01*
X15210070Y-14495930D01*
X15195654Y-14480024D01*
X15182866Y-14462781D01*
X15171830Y-14444368D01*
X15162651Y-14424962D01*
X15155419Y-14404750D01*
X15150203Y-14383926D01*
X15147053Y-14362691D01*
X15146000Y-14341250D01*
X15146000Y-13903750D01*
X15147053Y-13882309D01*
X15150203Y-13861074D01*
X15155419Y-13840250D01*
X15162651Y-13820038D01*
X15171830Y-13800632D01*
X15182866Y-13782219D01*
X15195654Y-13764976D01*
X15210070Y-13749070D01*
X15225976Y-13734654D01*
X15243219Y-13721866D01*
X15261632Y-13710830D01*
X15281038Y-13701651D01*
X15301250Y-13694419D01*
X15322074Y-13689203D01*
X15343309Y-13686053D01*
X15364750Y-13685000D01*
X15877250Y-13685000D01*
X15898691Y-13686053D01*
X15898691Y-13686053D01*
G37*
D11*
G04 #@! TD*
G04 #@! TO.P,R2,2*
G04 #@! TO.N,+3V3*
X15621000Y-14122500D03*
D10*
G04 #@! TO.N,+3V3*
G04 #@! TO.C,R3*
G36*
X21931691Y-12607053D02*
X21952926Y-12610203D01*
X21973750Y-12615419D01*
X21993962Y-12622651D01*
X22013368Y-12631830D01*
X22031781Y-12642866D01*
X22049024Y-12655654D01*
X22064930Y-12670070D01*
X22079346Y-12685976D01*
X22092134Y-12703219D01*
X22103170Y-12721632D01*
X22112349Y-12741038D01*
X22119581Y-12761250D01*
X22124797Y-12782074D01*
X22127947Y-12803309D01*
X22129000Y-12824750D01*
X22129000Y-13337250D01*
X22127947Y-13358691D01*
X22124797Y-13379926D01*
X22119581Y-13400750D01*
X22112349Y-13420962D01*
X22103170Y-13440368D01*
X22092134Y-13458781D01*
X22079346Y-13476024D01*
X22064930Y-13491930D01*
X22049024Y-13506346D01*
X22031781Y-13519134D01*
X22013368Y-13530170D01*
X21993962Y-13539349D01*
X21973750Y-13546581D01*
X21952926Y-13551797D01*
X21931691Y-13554947D01*
X21910250Y-13556000D01*
X21472750Y-13556000D01*
X21451309Y-13554947D01*
X21430074Y-13551797D01*
X21409250Y-13546581D01*
X21389038Y-13539349D01*
X21369632Y-13530170D01*
X21351219Y-13519134D01*
X21333976Y-13506346D01*
X21318070Y-13491930D01*
X21303654Y-13476024D01*
X21290866Y-13458781D01*
X21279830Y-13440368D01*
X21270651Y-13420962D01*
X21263419Y-13400750D01*
X21258203Y-13379926D01*
X21255053Y-13358691D01*
X21254000Y-13337250D01*
X21254000Y-12824750D01*
X21255053Y-12803309D01*
X21258203Y-12782074D01*
X21263419Y-12761250D01*
X21270651Y-12741038D01*
X21279830Y-12721632D01*
X21290866Y-12703219D01*
X21303654Y-12685976D01*
X21318070Y-12670070D01*
X21333976Y-12655654D01*
X21351219Y-12642866D01*
X21369632Y-12631830D01*
X21389038Y-12622651D01*
X21409250Y-12615419D01*
X21430074Y-12610203D01*
X21451309Y-12607053D01*
X21472750Y-12606000D01*
X21910250Y-12606000D01*
X21931691Y-12607053D01*
X21931691Y-12607053D01*
G37*
D11*
G04 #@! TD*
G04 #@! TO.P,R3,2*
G04 #@! TO.N,+3V3*
X21691500Y-13081000D03*
D10*
G04 #@! TO.N,Net-(D1-Pad2)*
G04 #@! TO.C,R3*
G36*
X23506691Y-12607053D02*
X23527926Y-12610203D01*
X23548750Y-12615419D01*
X23568962Y-12622651D01*
X23588368Y-12631830D01*
X23606781Y-12642866D01*
X23624024Y-12655654D01*
X23639930Y-12670070D01*
X23654346Y-12685976D01*
X23667134Y-12703219D01*
X23678170Y-12721632D01*
X23687349Y-12741038D01*
X23694581Y-12761250D01*
X23699797Y-12782074D01*
X23702947Y-12803309D01*
X23704000Y-12824750D01*
X23704000Y-13337250D01*
X23702947Y-13358691D01*
X23699797Y-13379926D01*
X23694581Y-13400750D01*
X23687349Y-13420962D01*
X23678170Y-13440368D01*
X23667134Y-13458781D01*
X23654346Y-13476024D01*
X23639930Y-13491930D01*
X23624024Y-13506346D01*
X23606781Y-13519134D01*
X23588368Y-13530170D01*
X23568962Y-13539349D01*
X23548750Y-13546581D01*
X23527926Y-13551797D01*
X23506691Y-13554947D01*
X23485250Y-13556000D01*
X23047750Y-13556000D01*
X23026309Y-13554947D01*
X23005074Y-13551797D01*
X22984250Y-13546581D01*
X22964038Y-13539349D01*
X22944632Y-13530170D01*
X22926219Y-13519134D01*
X22908976Y-13506346D01*
X22893070Y-13491930D01*
X22878654Y-13476024D01*
X22865866Y-13458781D01*
X22854830Y-13440368D01*
X22845651Y-13420962D01*
X22838419Y-13400750D01*
X22833203Y-13379926D01*
X22830053Y-13358691D01*
X22829000Y-13337250D01*
X22829000Y-12824750D01*
X22830053Y-12803309D01*
X22833203Y-12782074D01*
X22838419Y-12761250D01*
X22845651Y-12741038D01*
X22854830Y-12721632D01*
X22865866Y-12703219D01*
X22878654Y-12685976D01*
X22893070Y-12670070D01*
X22908976Y-12655654D01*
X22926219Y-12642866D01*
X22944632Y-12631830D01*
X22964038Y-12622651D01*
X22984250Y-12615419D01*
X23005074Y-12610203D01*
X23026309Y-12607053D01*
X23047750Y-12606000D01*
X23485250Y-12606000D01*
X23506691Y-12607053D01*
X23506691Y-12607053D01*
G37*
D11*
G04 #@! TD*
G04 #@! TO.P,R3,1*
G04 #@! TO.N,Net-(D1-Pad2)*
X23266500Y-13081000D03*
D16*
G04 #@! TO.P,U2,1*
G04 #@! TO.N,GND*
X23470000Y-6590000D03*
G04 #@! TO.P,U2,3*
G04 #@! TO.N,/5V*
X23470000Y-11190000D03*
G04 #@! TO.P,U2,2*
G04 #@! TO.N,+3V3*
X23470000Y-8890000D03*
D17*
G04 #@! TO.P,U2,4*
G04 #@! TO.N,N/C*
X17170000Y-8890000D03*
G04 #@! TD*
D18*
G04 #@! TO.P,Y1,2*
G04 #@! TO.N,/OSC_OUT*
X11049000Y-11328400D03*
G04 #@! TO.P,Y1,1*
G04 #@! TO.N,/OSC_IN*
X11049000Y-6448400D03*
G04 #@! TD*
D10*
G04 #@! TO.N,+3V3*
G04 #@! TO.C,C6*
G36*
X20470691Y-12619053D02*
X20491926Y-12622203D01*
X20512750Y-12627419D01*
X20532962Y-12634651D01*
X20552368Y-12643830D01*
X20570781Y-12654866D01*
X20588024Y-12667654D01*
X20603930Y-12682070D01*
X20618346Y-12697976D01*
X20631134Y-12715219D01*
X20642170Y-12733632D01*
X20651349Y-12753038D01*
X20658581Y-12773250D01*
X20663797Y-12794074D01*
X20666947Y-12815309D01*
X20668000Y-12836750D01*
X20668000Y-13274250D01*
X20666947Y-13295691D01*
X20663797Y-13316926D01*
X20658581Y-13337750D01*
X20651349Y-13357962D01*
X20642170Y-13377368D01*
X20631134Y-13395781D01*
X20618346Y-13413024D01*
X20603930Y-13428930D01*
X20588024Y-13443346D01*
X20570781Y-13456134D01*
X20552368Y-13467170D01*
X20532962Y-13476349D01*
X20512750Y-13483581D01*
X20491926Y-13488797D01*
X20470691Y-13491947D01*
X20449250Y-13493000D01*
X19936750Y-13493000D01*
X19915309Y-13491947D01*
X19894074Y-13488797D01*
X19873250Y-13483581D01*
X19853038Y-13476349D01*
X19833632Y-13467170D01*
X19815219Y-13456134D01*
X19797976Y-13443346D01*
X19782070Y-13428930D01*
X19767654Y-13413024D01*
X19754866Y-13395781D01*
X19743830Y-13377368D01*
X19734651Y-13357962D01*
X19727419Y-13337750D01*
X19722203Y-13316926D01*
X19719053Y-13295691D01*
X19718000Y-13274250D01*
X19718000Y-12836750D01*
X19719053Y-12815309D01*
X19722203Y-12794074D01*
X19727419Y-12773250D01*
X19734651Y-12753038D01*
X19743830Y-12733632D01*
X19754866Y-12715219D01*
X19767654Y-12697976D01*
X19782070Y-12682070D01*
X19797976Y-12667654D01*
X19815219Y-12654866D01*
X19833632Y-12643830D01*
X19853038Y-12634651D01*
X19873250Y-12627419D01*
X19894074Y-12622203D01*
X19915309Y-12619053D01*
X19936750Y-12618000D01*
X20449250Y-12618000D01*
X20470691Y-12619053D01*
X20470691Y-12619053D01*
G37*
D11*
G04 #@! TD*
G04 #@! TO.P,C6,1*
G04 #@! TO.N,+3V3*
X20193000Y-13055500D03*
D10*
G04 #@! TO.N,GND*
G04 #@! TO.C,C6*
G36*
X20470691Y-14194053D02*
X20491926Y-14197203D01*
X20512750Y-14202419D01*
X20532962Y-14209651D01*
X20552368Y-14218830D01*
X20570781Y-14229866D01*
X20588024Y-14242654D01*
X20603930Y-14257070D01*
X20618346Y-14272976D01*
X20631134Y-14290219D01*
X20642170Y-14308632D01*
X20651349Y-14328038D01*
X20658581Y-14348250D01*
X20663797Y-14369074D01*
X20666947Y-14390309D01*
X20668000Y-14411750D01*
X20668000Y-14849250D01*
X20666947Y-14870691D01*
X20663797Y-14891926D01*
X20658581Y-14912750D01*
X20651349Y-14932962D01*
X20642170Y-14952368D01*
X20631134Y-14970781D01*
X20618346Y-14988024D01*
X20603930Y-15003930D01*
X20588024Y-15018346D01*
X20570781Y-15031134D01*
X20552368Y-15042170D01*
X20532962Y-15051349D01*
X20512750Y-15058581D01*
X20491926Y-15063797D01*
X20470691Y-15066947D01*
X20449250Y-15068000D01*
X19936750Y-15068000D01*
X19915309Y-15066947D01*
X19894074Y-15063797D01*
X19873250Y-15058581D01*
X19853038Y-15051349D01*
X19833632Y-15042170D01*
X19815219Y-15031134D01*
X19797976Y-15018346D01*
X19782070Y-15003930D01*
X19767654Y-14988024D01*
X19754866Y-14970781D01*
X19743830Y-14952368D01*
X19734651Y-14932962D01*
X19727419Y-14912750D01*
X19722203Y-14891926D01*
X19719053Y-14870691D01*
X19718000Y-14849250D01*
X19718000Y-14411750D01*
X19719053Y-14390309D01*
X19722203Y-14369074D01*
X19727419Y-14348250D01*
X19734651Y-14328038D01*
X19743830Y-14308632D01*
X19754866Y-14290219D01*
X19767654Y-14272976D01*
X19782070Y-14257070D01*
X19797976Y-14242654D01*
X19815219Y-14229866D01*
X19833632Y-14218830D01*
X19853038Y-14209651D01*
X19873250Y-14202419D01*
X19894074Y-14197203D01*
X19915309Y-14194053D01*
X19936750Y-14193000D01*
X20449250Y-14193000D01*
X20470691Y-14194053D01*
X20470691Y-14194053D01*
G37*
D11*
G04 #@! TD*
G04 #@! TO.P,C6,2*
G04 #@! TO.N,GND*
X20193000Y-14630500D03*
D10*
G04 #@! TO.N,GND*
G04 #@! TO.C,C7*
G36*
X18946691Y-14194053D02*
X18967926Y-14197203D01*
X18988750Y-14202419D01*
X19008962Y-14209651D01*
X19028368Y-14218830D01*
X19046781Y-14229866D01*
X19064024Y-14242654D01*
X19079930Y-14257070D01*
X19094346Y-14272976D01*
X19107134Y-14290219D01*
X19118170Y-14308632D01*
X19127349Y-14328038D01*
X19134581Y-14348250D01*
X19139797Y-14369074D01*
X19142947Y-14390309D01*
X19144000Y-14411750D01*
X19144000Y-14849250D01*
X19142947Y-14870691D01*
X19139797Y-14891926D01*
X19134581Y-14912750D01*
X19127349Y-14932962D01*
X19118170Y-14952368D01*
X19107134Y-14970781D01*
X19094346Y-14988024D01*
X19079930Y-15003930D01*
X19064024Y-15018346D01*
X19046781Y-15031134D01*
X19028368Y-15042170D01*
X19008962Y-15051349D01*
X18988750Y-15058581D01*
X18967926Y-15063797D01*
X18946691Y-15066947D01*
X18925250Y-15068000D01*
X18412750Y-15068000D01*
X18391309Y-15066947D01*
X18370074Y-15063797D01*
X18349250Y-15058581D01*
X18329038Y-15051349D01*
X18309632Y-15042170D01*
X18291219Y-15031134D01*
X18273976Y-15018346D01*
X18258070Y-15003930D01*
X18243654Y-14988024D01*
X18230866Y-14970781D01*
X18219830Y-14952368D01*
X18210651Y-14932962D01*
X18203419Y-14912750D01*
X18198203Y-14891926D01*
X18195053Y-14870691D01*
X18194000Y-14849250D01*
X18194000Y-14411750D01*
X18195053Y-14390309D01*
X18198203Y-14369074D01*
X18203419Y-14348250D01*
X18210651Y-14328038D01*
X18219830Y-14308632D01*
X18230866Y-14290219D01*
X18243654Y-14272976D01*
X18258070Y-14257070D01*
X18273976Y-14242654D01*
X18291219Y-14229866D01*
X18309632Y-14218830D01*
X18329038Y-14209651D01*
X18349250Y-14202419D01*
X18370074Y-14197203D01*
X18391309Y-14194053D01*
X18412750Y-14193000D01*
X18925250Y-14193000D01*
X18946691Y-14194053D01*
X18946691Y-14194053D01*
G37*
D11*
G04 #@! TD*
G04 #@! TO.P,C7,2*
G04 #@! TO.N,GND*
X18669000Y-14630500D03*
D10*
G04 #@! TO.N,+3V3*
G04 #@! TO.C,C7*
G36*
X18946691Y-12619053D02*
X18967926Y-12622203D01*
X18988750Y-12627419D01*
X19008962Y-12634651D01*
X19028368Y-12643830D01*
X19046781Y-12654866D01*
X19064024Y-12667654D01*
X19079930Y-12682070D01*
X19094346Y-12697976D01*
X19107134Y-12715219D01*
X19118170Y-12733632D01*
X19127349Y-12753038D01*
X19134581Y-12773250D01*
X19139797Y-12794074D01*
X19142947Y-12815309D01*
X19144000Y-12836750D01*
X19144000Y-13274250D01*
X19142947Y-13295691D01*
X19139797Y-13316926D01*
X19134581Y-13337750D01*
X19127349Y-13357962D01*
X19118170Y-13377368D01*
X19107134Y-13395781D01*
X19094346Y-13413024D01*
X19079930Y-13428930D01*
X19064024Y-13443346D01*
X19046781Y-13456134D01*
X19028368Y-13467170D01*
X19008962Y-13476349D01*
X18988750Y-13483581D01*
X18967926Y-13488797D01*
X18946691Y-13491947D01*
X18925250Y-13493000D01*
X18412750Y-13493000D01*
X18391309Y-13491947D01*
X18370074Y-13488797D01*
X18349250Y-13483581D01*
X18329038Y-13476349D01*
X18309632Y-13467170D01*
X18291219Y-13456134D01*
X18273976Y-13443346D01*
X18258070Y-13428930D01*
X18243654Y-13413024D01*
X18230866Y-13395781D01*
X18219830Y-13377368D01*
X18210651Y-13357962D01*
X18203419Y-13337750D01*
X18198203Y-13316926D01*
X18195053Y-13295691D01*
X18194000Y-13274250D01*
X18194000Y-12836750D01*
X18195053Y-12815309D01*
X18198203Y-12794074D01*
X18203419Y-12773250D01*
X18210651Y-12753038D01*
X18219830Y-12733632D01*
X18230866Y-12715219D01*
X18243654Y-12697976D01*
X18258070Y-12682070D01*
X18273976Y-12667654D01*
X18291219Y-12654866D01*
X18309632Y-12643830D01*
X18329038Y-12634651D01*
X18349250Y-12627419D01*
X18370074Y-12622203D01*
X18391309Y-12619053D01*
X18412750Y-12618000D01*
X18925250Y-12618000D01*
X18946691Y-12619053D01*
X18946691Y-12619053D01*
G37*
D11*
G04 #@! TD*
G04 #@! TO.P,C7,1*
G04 #@! TO.N,+3V3*
X18669000Y-13055500D03*
D10*
G04 #@! TO.N,+3V3*
G04 #@! TO.C,C9*
G36*
X25677691Y-7082053D02*
X25698926Y-7085203D01*
X25719750Y-7090419D01*
X25739962Y-7097651D01*
X25759368Y-7106830D01*
X25777781Y-7117866D01*
X25795024Y-7130654D01*
X25810930Y-7145070D01*
X25825346Y-7160976D01*
X25838134Y-7178219D01*
X25849170Y-7196632D01*
X25858349Y-7216038D01*
X25865581Y-7236250D01*
X25870797Y-7257074D01*
X25873947Y-7278309D01*
X25875000Y-7299750D01*
X25875000Y-7737250D01*
X25873947Y-7758691D01*
X25870797Y-7779926D01*
X25865581Y-7800750D01*
X25858349Y-7820962D01*
X25849170Y-7840368D01*
X25838134Y-7858781D01*
X25825346Y-7876024D01*
X25810930Y-7891930D01*
X25795024Y-7906346D01*
X25777781Y-7919134D01*
X25759368Y-7930170D01*
X25739962Y-7939349D01*
X25719750Y-7946581D01*
X25698926Y-7951797D01*
X25677691Y-7954947D01*
X25656250Y-7956000D01*
X25143750Y-7956000D01*
X25122309Y-7954947D01*
X25101074Y-7951797D01*
X25080250Y-7946581D01*
X25060038Y-7939349D01*
X25040632Y-7930170D01*
X25022219Y-7919134D01*
X25004976Y-7906346D01*
X24989070Y-7891930D01*
X24974654Y-7876024D01*
X24961866Y-7858781D01*
X24950830Y-7840368D01*
X24941651Y-7820962D01*
X24934419Y-7800750D01*
X24929203Y-7779926D01*
X24926053Y-7758691D01*
X24925000Y-7737250D01*
X24925000Y-7299750D01*
X24926053Y-7278309D01*
X24929203Y-7257074D01*
X24934419Y-7236250D01*
X24941651Y-7216038D01*
X24950830Y-7196632D01*
X24961866Y-7178219D01*
X24974654Y-7160976D01*
X24989070Y-7145070D01*
X25004976Y-7130654D01*
X25022219Y-7117866D01*
X25040632Y-7106830D01*
X25060038Y-7097651D01*
X25080250Y-7090419D01*
X25101074Y-7085203D01*
X25122309Y-7082053D01*
X25143750Y-7081000D01*
X25656250Y-7081000D01*
X25677691Y-7082053D01*
X25677691Y-7082053D01*
G37*
D11*
G04 #@! TD*
G04 #@! TO.P,C9,1*
G04 #@! TO.N,+3V3*
X25400000Y-7518500D03*
D10*
G04 #@! TO.N,GND*
G04 #@! TO.C,C9*
G36*
X25677691Y-5507053D02*
X25698926Y-5510203D01*
X25719750Y-5515419D01*
X25739962Y-5522651D01*
X25759368Y-5531830D01*
X25777781Y-5542866D01*
X25795024Y-5555654D01*
X25810930Y-5570070D01*
X25825346Y-5585976D01*
X25838134Y-5603219D01*
X25849170Y-5621632D01*
X25858349Y-5641038D01*
X25865581Y-5661250D01*
X25870797Y-5682074D01*
X25873947Y-5703309D01*
X25875000Y-5724750D01*
X25875000Y-6162250D01*
X25873947Y-6183691D01*
X25870797Y-6204926D01*
X25865581Y-6225750D01*
X25858349Y-6245962D01*
X25849170Y-6265368D01*
X25838134Y-6283781D01*
X25825346Y-6301024D01*
X25810930Y-6316930D01*
X25795024Y-6331346D01*
X25777781Y-6344134D01*
X25759368Y-6355170D01*
X25739962Y-6364349D01*
X25719750Y-6371581D01*
X25698926Y-6376797D01*
X25677691Y-6379947D01*
X25656250Y-6381000D01*
X25143750Y-6381000D01*
X25122309Y-6379947D01*
X25101074Y-6376797D01*
X25080250Y-6371581D01*
X25060038Y-6364349D01*
X25040632Y-6355170D01*
X25022219Y-6344134D01*
X25004976Y-6331346D01*
X24989070Y-6316930D01*
X24974654Y-6301024D01*
X24961866Y-6283781D01*
X24950830Y-6265368D01*
X24941651Y-6245962D01*
X24934419Y-6225750D01*
X24929203Y-6204926D01*
X24926053Y-6183691D01*
X24925000Y-6162250D01*
X24925000Y-5724750D01*
X24926053Y-5703309D01*
X24929203Y-5682074D01*
X24934419Y-5661250D01*
X24941651Y-5641038D01*
X24950830Y-5621632D01*
X24961866Y-5603219D01*
X24974654Y-5585976D01*
X24989070Y-5570070D01*
X25004976Y-5555654D01*
X25022219Y-5542866D01*
X25040632Y-5531830D01*
X25060038Y-5522651D01*
X25080250Y-5515419D01*
X25101074Y-5510203D01*
X25122309Y-5507053D01*
X25143750Y-5506000D01*
X25656250Y-5506000D01*
X25677691Y-5507053D01*
X25677691Y-5507053D01*
G37*
D11*
G04 #@! TD*
G04 #@! TO.P,C9,2*
G04 #@! TO.N,GND*
X25400000Y-5943500D03*
D10*
G04 #@! TO.N,Net-(D2-Pad2)*
G04 #@! TO.C,R4*
G36*
X25741691Y-4021853D02*
X25762926Y-4025003D01*
X25783750Y-4030219D01*
X25803962Y-4037451D01*
X25823368Y-4046630D01*
X25841781Y-4057666D01*
X25859024Y-4070454D01*
X25874930Y-4084870D01*
X25889346Y-4100776D01*
X25902134Y-4118019D01*
X25913170Y-4136432D01*
X25922349Y-4155838D01*
X25929581Y-4176050D01*
X25934797Y-4196874D01*
X25937947Y-4218109D01*
X25939000Y-4239550D01*
X25939000Y-4752050D01*
X25937947Y-4773491D01*
X25934797Y-4794726D01*
X25929581Y-4815550D01*
X25922349Y-4835762D01*
X25913170Y-4855168D01*
X25902134Y-4873581D01*
X25889346Y-4890824D01*
X25874930Y-4906730D01*
X25859024Y-4921146D01*
X25841781Y-4933934D01*
X25823368Y-4944970D01*
X25803962Y-4954149D01*
X25783750Y-4961381D01*
X25762926Y-4966597D01*
X25741691Y-4969747D01*
X25720250Y-4970800D01*
X25282750Y-4970800D01*
X25261309Y-4969747D01*
X25240074Y-4966597D01*
X25219250Y-4961381D01*
X25199038Y-4954149D01*
X25179632Y-4944970D01*
X25161219Y-4933934D01*
X25143976Y-4921146D01*
X25128070Y-4906730D01*
X25113654Y-4890824D01*
X25100866Y-4873581D01*
X25089830Y-4855168D01*
X25080651Y-4835762D01*
X25073419Y-4815550D01*
X25068203Y-4794726D01*
X25065053Y-4773491D01*
X25064000Y-4752050D01*
X25064000Y-4239550D01*
X25065053Y-4218109D01*
X25068203Y-4196874D01*
X25073419Y-4176050D01*
X25080651Y-4155838D01*
X25089830Y-4136432D01*
X25100866Y-4118019D01*
X25113654Y-4100776D01*
X25128070Y-4084870D01*
X25143976Y-4070454D01*
X25161219Y-4057666D01*
X25179632Y-4046630D01*
X25199038Y-4037451D01*
X25219250Y-4030219D01*
X25240074Y-4025003D01*
X25261309Y-4021853D01*
X25282750Y-4020800D01*
X25720250Y-4020800D01*
X25741691Y-4021853D01*
X25741691Y-4021853D01*
G37*
D11*
G04 #@! TD*
G04 #@! TO.P,R4,1*
G04 #@! TO.N,Net-(D2-Pad2)*
X25501500Y-4495800D03*
D10*
G04 #@! TO.N,+3V3*
G04 #@! TO.C,R4*
G36*
X27316691Y-4021853D02*
X27337926Y-4025003D01*
X27358750Y-4030219D01*
X27378962Y-4037451D01*
X27398368Y-4046630D01*
X27416781Y-4057666D01*
X27434024Y-4070454D01*
X27449930Y-4084870D01*
X27464346Y-4100776D01*
X27477134Y-4118019D01*
X27488170Y-4136432D01*
X27497349Y-4155838D01*
X27504581Y-4176050D01*
X27509797Y-4196874D01*
X27512947Y-4218109D01*
X27514000Y-4239550D01*
X27514000Y-4752050D01*
X27512947Y-4773491D01*
X27509797Y-4794726D01*
X27504581Y-4815550D01*
X27497349Y-4835762D01*
X27488170Y-4855168D01*
X27477134Y-4873581D01*
X27464346Y-4890824D01*
X27449930Y-4906730D01*
X27434024Y-4921146D01*
X27416781Y-4933934D01*
X27398368Y-4944970D01*
X27378962Y-4954149D01*
X27358750Y-4961381D01*
X27337926Y-4966597D01*
X27316691Y-4969747D01*
X27295250Y-4970800D01*
X26857750Y-4970800D01*
X26836309Y-4969747D01*
X26815074Y-4966597D01*
X26794250Y-4961381D01*
X26774038Y-4954149D01*
X26754632Y-4944970D01*
X26736219Y-4933934D01*
X26718976Y-4921146D01*
X26703070Y-4906730D01*
X26688654Y-4890824D01*
X26675866Y-4873581D01*
X26664830Y-4855168D01*
X26655651Y-4835762D01*
X26648419Y-4815550D01*
X26643203Y-4794726D01*
X26640053Y-4773491D01*
X26639000Y-4752050D01*
X26639000Y-4239550D01*
X26640053Y-4218109D01*
X26643203Y-4196874D01*
X26648419Y-4176050D01*
X26655651Y-4155838D01*
X26664830Y-4136432D01*
X26675866Y-4118019D01*
X26688654Y-4100776D01*
X26703070Y-4084870D01*
X26718976Y-4070454D01*
X26736219Y-4057666D01*
X26754632Y-4046630D01*
X26774038Y-4037451D01*
X26794250Y-4030219D01*
X26815074Y-4025003D01*
X26836309Y-4021853D01*
X26857750Y-4020800D01*
X27295250Y-4020800D01*
X27316691Y-4021853D01*
X27316691Y-4021853D01*
G37*
D11*
G04 #@! TD*
G04 #@! TO.P,R4,2*
G04 #@! TO.N,+3V3*
X27076500Y-4495800D03*
D19*
G04 #@! TO.N,GND*
X8636001Y-4699000D03*
X22098001Y-4318000D03*
X10033000Y-8890000D03*
X12192001Y-4445000D03*
X18605500Y-4572000D03*
X23495000Y-14224000D03*
X27686000Y-12128500D03*
X8763000Y-13843000D03*
X6985001Y-5334000D03*
X21209000Y-8001000D03*
X26289000Y-3619500D03*
X21971000Y-10033000D03*
X21082000Y-14224000D03*
X26543000Y-10668000D03*
X14541500Y-4572000D03*
X29148010Y-13779500D03*
X10287001Y-4699000D03*
X24130000Y-5334000D03*
X20764500Y-6096000D03*
X15748001Y-11303000D03*
G04 #@! TO.N,/RESET*
X14478001Y-12342000D03*
G04 #@! TO.N,+3V3*
X6794501Y-6604000D03*
X28003500Y-4508500D03*
X20574000Y-12192000D03*
X27432000Y-10033000D03*
X14351001Y-13398500D03*
G04 #@! TO.N,/5V*
X27686000Y-13589000D03*
X6794501Y-3937000D03*
X29889999Y-9428001D03*
G04 #@! TO.N,/BOOT0*
X18605500Y-6540500D03*
G04 #@! TO.N,Net-(D1-Pad2)*
X30035500Y-12255500D03*
G04 #@! TO.N,Net-(D2-Pad2)*
X24574500Y-4318000D03*
G04 #@! TD*
D20*
G04 #@! TO.N,/OSC_IN*
X11049000Y-8026500D02*
X10947500Y-8128000D01*
X11049000Y-6448400D02*
X11049000Y-8026500D01*
D21*
G04 #@! TO.N,GND*
X26416000Y-1524000D02*
X26670000Y-1270000D01*
D22*
X30200500Y-13335000D02*
X30200500Y-13309500D01*
X30099000Y-13233500D02*
X30200500Y-13335000D01*
D20*
G04 #@! TO.N,/OSC_OUT*
X11049000Y-9753500D02*
X10947500Y-9652000D01*
X11049000Y-11328400D02*
X11049000Y-9753500D01*
G04 #@! TO.N,/RESET*
X16802000Y-12890500D02*
X17145000Y-13233500D01*
X15964000Y-12890500D02*
X16802000Y-12890500D01*
X15621000Y-12547500D02*
X15964000Y-12890500D01*
X15636000Y-12532500D02*
X15621000Y-12547500D01*
X15415500Y-12342000D02*
X15621000Y-12547500D01*
X14478001Y-12342000D02*
X15415500Y-12342000D01*
D22*
G04 #@! TO.N,+3V3*
X25273000Y-9271000D02*
X24257000Y-9271000D01*
X26289000Y-9271000D02*
X25273000Y-9271000D01*
X27305000Y-9271000D02*
X26289000Y-9271000D01*
X27418982Y-9220518D02*
X27686000Y-8953500D01*
X28829000Y-8382000D02*
X27813000Y-8382000D01*
X27482482Y-8395018D02*
X27749500Y-8128000D01*
X28765500Y-8128000D02*
X27749500Y-8128000D01*
X29337000Y-8128000D02*
X29337000Y-8763000D01*
X29337000Y-8509000D02*
X28321000Y-8509000D01*
X28956000Y-8128000D02*
X27940000Y-8128000D01*
X27559000Y-8509000D02*
X26543000Y-8509000D01*
X27178000Y-8509000D02*
X26162000Y-8509000D01*
X26162000Y-8509000D02*
X25146000Y-8509000D01*
X25400000Y-9144000D02*
X24384000Y-9144000D01*
X26543000Y-9144000D02*
X25527000Y-9144000D01*
X29337000Y-8128000D02*
X28321000Y-8128000D01*
X18669000Y-13055500D02*
X18694500Y-13055500D01*
X20193000Y-13055500D02*
X20167500Y-13055500D01*
X20193000Y-13055500D02*
X19431000Y-13055500D01*
X19431000Y-13055500D02*
X18669000Y-13055500D01*
X18643500Y-13081000D02*
X18669000Y-13055500D01*
X7518500Y-13233500D02*
X6985000Y-12700000D01*
X23571500Y-8991500D02*
X23470000Y-8890000D01*
D20*
X24028500Y-8890000D02*
X23470000Y-8890000D01*
D22*
X25400000Y-7518500D02*
X24028500Y-8890000D01*
X24536500Y-8991500D02*
X25400000Y-8128000D01*
X24511000Y-8991500D02*
X24536500Y-8991500D01*
X25400000Y-8128000D02*
X25400000Y-8991500D01*
X25400000Y-7518500D02*
X25400000Y-8128000D01*
X24511000Y-8991500D02*
X23571500Y-8991500D01*
X25400000Y-8991500D02*
X24511000Y-8991500D01*
X19177000Y-13081000D02*
X18796000Y-13081000D01*
X18796000Y-13081000D02*
X19786500Y-13081000D01*
X29337000Y-8763000D02*
X28321000Y-8763000D01*
X27559000Y-8509000D02*
X27826018Y-8776018D01*
X26873000Y-8991500D02*
X26924000Y-9042500D01*
X25400000Y-8991500D02*
X26873000Y-8991500D01*
X26924000Y-9068000D02*
X26797000Y-9195000D01*
X27432000Y-9449000D02*
X27051000Y-9068000D01*
X27432000Y-10033000D02*
X27432000Y-9449000D01*
X21590000Y-8890000D02*
X23470000Y-8890000D01*
X20828000Y-9652000D02*
X21590000Y-8890000D01*
X20828000Y-10414000D02*
X20828000Y-9652000D01*
X27876500Y-8763000D02*
X28575000Y-8763000D01*
X27291982Y-9030018D02*
X27609482Y-9030018D01*
X27609482Y-9030018D02*
X27876500Y-8763000D01*
X20574000Y-12192000D02*
X20574000Y-12674500D01*
X20574000Y-12674500D02*
X20193000Y-13055500D01*
X20828000Y-10731500D02*
X20828000Y-10414000D01*
X19494500Y-12065000D02*
X20828000Y-10731500D01*
X20828000Y-11176000D02*
X20828000Y-10731500D01*
X21526500Y-11874500D02*
X20828000Y-11176000D01*
X21691500Y-13081000D02*
X21526500Y-12916000D01*
X21526500Y-12916000D02*
X21526500Y-11874500D01*
X19130612Y-12428888D02*
X19494500Y-12065000D01*
X19130612Y-12593888D02*
X19130612Y-12428888D01*
X18669000Y-13055500D02*
X19130612Y-12593888D01*
X18542000Y-13017500D02*
X18542000Y-13081000D01*
X19177000Y-13055500D02*
X19177000Y-12382500D01*
X19177000Y-12382500D02*
X18542000Y-13017500D01*
X18669000Y-13081000D02*
X18669000Y-13055500D01*
D20*
X26924000Y-4419500D02*
X26822500Y-4318000D01*
D22*
X26924000Y-6045200D02*
X26924000Y-4445000D01*
X25450800Y-7518400D02*
X26924000Y-6045200D01*
X27025700Y-4572000D02*
X26949500Y-4495800D01*
X28003500Y-4508500D02*
X27089200Y-4508500D01*
X18605500Y-13193772D02*
X18605500Y-13119000D01*
X17549772Y-14249500D02*
X18605500Y-13193772D01*
X18605500Y-13119000D02*
X18669000Y-13055500D01*
X15621000Y-14249500D02*
X17549772Y-14249500D01*
X14986001Y-14097000D02*
X14287501Y-13398500D01*
X15621000Y-14122500D02*
X15595500Y-14097000D01*
X15595500Y-14097000D02*
X14986001Y-14097000D01*
X6985000Y-12382500D02*
X6985000Y-12700000D01*
X8285001Y-11082499D02*
X6985000Y-12382500D01*
X8285001Y-9555001D02*
X8285001Y-11082499D01*
X6794501Y-8064501D02*
X8285001Y-9555001D01*
X6731000Y-6604000D02*
X6794501Y-6667501D01*
X6794501Y-6667501D02*
X6794501Y-8064501D01*
G04 #@! TO.N,/5V*
X30289998Y-10791369D02*
X30289998Y-9828000D01*
X30289998Y-9828000D02*
X29889999Y-9428001D01*
X27466867Y-13614500D02*
X30289998Y-10791369D01*
X25400000Y-13614500D02*
X27466867Y-13614500D01*
X30063490Y-3393490D02*
X30035500Y-3365500D01*
X29910000Y-9408000D02*
X30063490Y-9254510D01*
X30063490Y-9254510D02*
X30063490Y-3393490D01*
X25044500Y-13614500D02*
X25400000Y-13614500D01*
X24154010Y-12724010D02*
X25044500Y-13614500D01*
X24130000Y-11430000D02*
X24154010Y-11454010D01*
X24154010Y-11454010D02*
X24154010Y-12724010D01*
X6897967Y-3770034D02*
X6731001Y-3937000D01*
X29337000Y-2667000D02*
X23622000Y-2667000D01*
X23622000Y-2667000D02*
X22860000Y-3429000D01*
X22860000Y-3429000D02*
X10342234Y-3429000D01*
X10342234Y-3429000D02*
X10001200Y-3770034D01*
X30063490Y-3393490D02*
X29337000Y-2667000D01*
X10001200Y-3770034D02*
X6897967Y-3770034D01*
D20*
G04 #@! TO.N,/BOOT0*
X6223000Y-10160000D02*
X6985000Y-10160000D01*
X17424500Y-6350000D02*
X17653000Y-6121500D01*
X18186500Y-6121500D02*
X18605500Y-6540500D01*
X17653000Y-6121500D02*
X18186500Y-6121500D01*
X3175000Y-10592002D02*
X3892999Y-11310001D01*
X3175000Y-4109998D02*
X3175000Y-10592002D01*
X5834999Y-11310001D02*
X6135001Y-11009999D01*
X9442001Y-2420001D02*
X5962000Y-2420001D01*
X3892999Y-11310001D02*
X5834999Y-11310001D01*
X11430000Y-1270000D02*
X10592002Y-1270000D01*
X5962000Y-2420001D02*
X4508501Y-3873500D01*
X4508501Y-3873500D02*
X3411498Y-3873500D01*
X6135001Y-11009999D02*
X6985000Y-10160000D01*
X10592002Y-1270000D02*
X9442001Y-2420001D01*
X3411498Y-3873500D02*
X3175000Y-4109998D01*
G04 #@! TO.N,Net-(D1-Pad2)*
X23431500Y-13081000D02*
X23266500Y-13081000D01*
X29603700Y-12255500D02*
X28397200Y-13462000D01*
X30035500Y-12255500D02*
X29603700Y-12255500D01*
X28397200Y-13462000D02*
X28397200Y-13893800D01*
X28397200Y-13893800D02*
X27938990Y-14352010D01*
X27938990Y-14352010D02*
X24702510Y-14352010D01*
X24702510Y-14352010D02*
X23431500Y-13081000D01*
G04 #@! TO.N,Net-(D2-Pad2)*
X25196700Y-4318000D02*
X25374500Y-4495800D01*
X24384000Y-4318000D02*
X25196700Y-4318000D01*
G04 #@! TO.N,/PA13*
X5294999Y-6770001D02*
X4445000Y-7620000D01*
X5595001Y-6469999D02*
X5294999Y-6770001D01*
X20381022Y-2478978D02*
X9948724Y-2478978D01*
X21590000Y-1270000D02*
X20381022Y-2478978D01*
X9948724Y-2478978D02*
X9607690Y-2820012D01*
X9607690Y-2820012D02*
X6196989Y-2820012D01*
X6196989Y-2820012D02*
X5595001Y-3422000D01*
X5595001Y-3422000D02*
X5595001Y-6469999D01*
G04 #@! TO.N,/PA14*
X10114413Y-2878989D02*
X9773379Y-3220023D01*
X9773379Y-3220023D02*
X6431977Y-3220023D01*
X6431977Y-3220023D02*
X6032500Y-3619500D01*
X22521011Y-2878989D02*
X10114413Y-2878989D01*
X5294999Y-9310001D02*
X4445000Y-10160000D01*
X6032500Y-8572500D02*
X5294999Y-9310001D01*
X6032500Y-3619500D02*
X6032500Y-8572500D01*
X24130000Y-1270000D02*
X22521011Y-2878989D01*
G04 #@! TD*
G04 #@! TO.N,GND*
G36*
X2992893Y-452893D02*
X2849184Y-628003D01*
X2742398Y-827785D01*
X2676640Y-1044561D01*
X2654436Y-1270000D01*
X2676640Y-1495439D01*
X2742398Y-1712215D01*
X2849184Y-1911997D01*
X2992893Y-2087107D01*
X3168003Y-2230816D01*
X3367785Y-2337602D01*
X3584561Y-2403360D01*
X3753508Y-2420000D01*
X3866492Y-2420000D01*
X4035439Y-2403360D01*
X4252215Y-2337602D01*
X4451997Y-2230816D01*
X4627107Y-2087107D01*
X4770816Y-1911997D01*
X4877602Y-1712215D01*
X4943360Y-1495439D01*
X4965564Y-1270000D01*
X4943360Y-1044561D01*
X4877602Y-827785D01*
X4770816Y-628003D01*
X4627107Y-452893D01*
X4532194Y-375000D01*
X5627806Y-375000D01*
X5532893Y-452893D01*
X5389184Y-628003D01*
X5282398Y-827785D01*
X5216640Y-1044561D01*
X5194436Y-1270000D01*
X5216640Y-1495439D01*
X5282398Y-1712215D01*
X5389184Y-1911997D01*
X5532893Y-2087107D01*
X5640718Y-2175597D01*
X4342816Y-3473500D01*
X3431145Y-3473500D01*
X3411498Y-3471565D01*
X3391851Y-3473500D01*
X3333084Y-3479288D01*
X3257684Y-3502160D01*
X3188195Y-3539303D01*
X3127287Y-3589289D01*
X3114757Y-3604557D01*
X2906053Y-3813260D01*
X2890789Y-3825787D01*
X2840803Y-3886696D01*
X2803660Y-3956185D01*
X2783867Y-4021435D01*
X2780788Y-4031585D01*
X2773065Y-4109998D01*
X2775000Y-4129644D01*
X2775001Y-10572346D01*
X2773065Y-10592002D01*
X2780788Y-10670415D01*
X2803661Y-10745816D01*
X2840803Y-10815304D01*
X2878265Y-10860952D01*
X2878268Y-10860955D01*
X2890790Y-10876213D01*
X2906047Y-10888735D01*
X3596266Y-11578954D01*
X3608788Y-11594212D01*
X3624046Y-11606734D01*
X3624048Y-11606736D01*
X3669696Y-11644198D01*
X3739184Y-11681341D01*
X3814585Y-11704213D01*
X3892999Y-11711936D01*
X3912645Y-11710001D01*
X5815353Y-11710001D01*
X5834999Y-11711936D01*
X5854645Y-11710001D01*
X5854646Y-11710001D01*
X5870500Y-11708439D01*
X5856496Y-11734640D01*
X5839341Y-11791190D01*
X5833549Y-11850000D01*
X5833549Y-13550000D01*
X5839341Y-13608810D01*
X5856496Y-13665360D01*
X5884353Y-13717477D01*
X5921842Y-13763158D01*
X5967523Y-13800647D01*
X6019640Y-13828504D01*
X6076190Y-13845659D01*
X6135000Y-13851451D01*
X7835000Y-13851451D01*
X7893810Y-13845659D01*
X7950360Y-13828504D01*
X8002477Y-13800647D01*
X8048158Y-13763158D01*
X8085647Y-13717477D01*
X8113504Y-13665360D01*
X8130659Y-13608810D01*
X8136451Y-13550000D01*
X8136451Y-12008867D01*
X8654811Y-11490507D01*
X8675791Y-11473289D01*
X8693009Y-11452309D01*
X8693014Y-11452304D01*
X8744522Y-11389542D01*
X8780709Y-11321839D01*
X8795593Y-11293993D01*
X8816527Y-11224984D01*
X9999000Y-11224984D01*
X9999000Y-11431816D01*
X10039350Y-11634674D01*
X10118502Y-11825762D01*
X10233411Y-11997736D01*
X10379664Y-12143989D01*
X10551638Y-12258898D01*
X10742726Y-12338050D01*
X10945584Y-12378400D01*
X11152416Y-12378400D01*
X11355274Y-12338050D01*
X11546362Y-12258898D01*
X11718336Y-12143989D01*
X11864589Y-11997736D01*
X11979498Y-11825762D01*
X12058650Y-11634674D01*
X12099000Y-11431816D01*
X12099000Y-11224984D01*
X12058650Y-11022126D01*
X11979498Y-10831038D01*
X11864589Y-10659064D01*
X11718336Y-10512811D01*
X11546362Y-10397902D01*
X11490983Y-10374963D01*
X11534088Y-10339588D01*
X11598781Y-10260758D01*
X11646853Y-10170822D01*
X11676455Y-10073236D01*
X11686451Y-9971750D01*
X11686451Y-9459250D01*
X11676455Y-9357764D01*
X11646853Y-9260178D01*
X11598781Y-9170242D01*
X11534088Y-9091412D01*
X11455258Y-9026719D01*
X11365322Y-8978647D01*
X11267736Y-8949045D01*
X11166250Y-8939049D01*
X10728750Y-8939049D01*
X10627264Y-8949045D01*
X10529678Y-8978647D01*
X10439742Y-9026719D01*
X10360912Y-9091412D01*
X10296219Y-9170242D01*
X10248147Y-9260178D01*
X10218545Y-9357764D01*
X10208549Y-9459250D01*
X10208549Y-9971750D01*
X10218545Y-10073236D01*
X10248147Y-10170822D01*
X10296219Y-10260758D01*
X10360912Y-10339588D01*
X10439742Y-10404281D01*
X10496604Y-10434674D01*
X10379664Y-10512811D01*
X10233411Y-10659064D01*
X10118502Y-10831038D01*
X10039350Y-11022126D01*
X9999000Y-11224984D01*
X8816527Y-11224984D01*
X8827043Y-11190318D01*
X8835001Y-11109517D01*
X8835001Y-11109508D01*
X8837661Y-11082500D01*
X8835001Y-11055492D01*
X8835001Y-9582008D01*
X8837661Y-9555000D01*
X8835001Y-9527992D01*
X8835001Y-9527983D01*
X8827043Y-9447182D01*
X8795593Y-9343507D01*
X8744522Y-9247959D01*
X8724711Y-9223819D01*
X8693014Y-9185196D01*
X8693009Y-9185191D01*
X8675791Y-9164211D01*
X8654811Y-9146993D01*
X7344501Y-7836684D01*
X7344501Y-7040834D01*
X7414833Y-6935574D01*
X7467600Y-6808182D01*
X7494501Y-6672944D01*
X7494501Y-6535056D01*
X7467600Y-6399818D01*
X7444888Y-6344984D01*
X9999000Y-6344984D01*
X9999000Y-6551816D01*
X10039350Y-6754674D01*
X10118502Y-6945762D01*
X10233411Y-7117736D01*
X10379664Y-7263989D01*
X10499265Y-7343903D01*
X10439742Y-7375719D01*
X10360912Y-7440412D01*
X10296219Y-7519242D01*
X10248147Y-7609178D01*
X10218545Y-7706764D01*
X10208549Y-7808250D01*
X10208549Y-8320750D01*
X10218545Y-8422236D01*
X10248147Y-8519822D01*
X10296219Y-8609758D01*
X10360912Y-8688588D01*
X10439742Y-8753281D01*
X10529678Y-8801353D01*
X10627264Y-8830955D01*
X10728750Y-8840951D01*
X11166250Y-8840951D01*
X11267736Y-8830955D01*
X11365322Y-8801353D01*
X11455258Y-8753281D01*
X11534088Y-8688588D01*
X11572321Y-8642000D01*
X11936000Y-8642000D01*
X11936000Y-10042000D01*
X11943612Y-10080268D01*
X11965289Y-10112711D01*
X11997732Y-10134388D01*
X12036000Y-10142000D01*
X12636000Y-10142000D01*
X12674268Y-10134388D01*
X12706711Y-10112711D01*
X13006711Y-9812711D01*
X13028388Y-9780268D01*
X13036000Y-9742000D01*
X13028388Y-9703732D01*
X13006711Y-9671289D01*
X12974268Y-9649612D01*
X12936000Y-9642000D01*
X12436000Y-9642000D01*
X12436000Y-9042000D01*
X12536000Y-9042000D01*
X12536000Y-9242000D01*
X12543612Y-9280268D01*
X12565289Y-9312711D01*
X12597732Y-9334388D01*
X12636000Y-9342000D01*
X13219773Y-9342000D01*
X13525837Y-9444021D01*
X13497732Y-9449612D01*
X13465289Y-9471289D01*
X13165289Y-9771289D01*
X13143612Y-9803732D01*
X13136000Y-9842000D01*
X13136000Y-10442000D01*
X13139128Y-10457725D01*
X13141132Y-10473623D01*
X13142911Y-10476744D01*
X13143612Y-10480268D01*
X13152520Y-10493600D01*
X13160455Y-10507520D01*
X13163292Y-10509721D01*
X13165289Y-10512711D01*
X13178620Y-10521618D01*
X13191279Y-10531443D01*
X13194745Y-10532392D01*
X13197732Y-10534388D01*
X13213454Y-10537515D01*
X13228911Y-10541748D01*
X13232475Y-10541299D01*
X13236000Y-10542000D01*
X13251725Y-10538872D01*
X13267623Y-10536868D01*
X15067623Y-9936868D01*
X15106711Y-9912711D01*
X15406711Y-9612711D01*
X15425443Y-9586721D01*
X15435748Y-9549089D01*
X15430868Y-9510377D01*
X15411545Y-9476480D01*
X15380721Y-9452557D01*
X15343089Y-9442252D01*
X15304377Y-9447132D01*
X13636000Y-10003258D01*
X13636000Y-9542000D01*
X13628388Y-9503732D01*
X13606711Y-9471289D01*
X13605786Y-9470671D01*
X13804377Y-9536868D01*
X13828911Y-9541748D01*
X13867623Y-9536868D01*
X14467623Y-9336868D01*
X14511545Y-9307520D01*
X14530868Y-9273623D01*
X14535748Y-9234911D01*
X14525443Y-9197279D01*
X14501520Y-9166455D01*
X14467623Y-9147132D01*
X13636000Y-8869924D01*
X13636000Y-8649089D01*
X14336252Y-8649089D01*
X14346557Y-8686721D01*
X14370480Y-8717545D01*
X14404377Y-8736868D01*
X14704377Y-8836868D01*
X14728911Y-8841748D01*
X14767623Y-8836868D01*
X15067623Y-8736868D01*
X15106711Y-8712711D01*
X15406711Y-8412711D01*
X15425443Y-8386721D01*
X15435748Y-8349089D01*
X15430868Y-8310377D01*
X15411545Y-8276480D01*
X15380721Y-8252557D01*
X15343089Y-8242252D01*
X15304377Y-8247132D01*
X14404377Y-8547132D01*
X14360455Y-8576480D01*
X14341132Y-8610377D01*
X14336252Y-8649089D01*
X13636000Y-8649089D01*
X13636000Y-8383422D01*
X13713010Y-8306412D01*
X13804377Y-8336868D01*
X13828911Y-8341748D01*
X13867623Y-8336868D01*
X14467623Y-8136868D01*
X14511545Y-8107520D01*
X14530868Y-8073623D01*
X14535748Y-8034911D01*
X14525443Y-7997279D01*
X14501520Y-7966455D01*
X14467623Y-7947132D01*
X13636000Y-7669924D01*
X13636000Y-7142000D01*
X13628388Y-7103732D01*
X13606711Y-7071289D01*
X13574268Y-7049612D01*
X13536000Y-7042000D01*
X13497732Y-7049612D01*
X13465289Y-7071289D01*
X11965289Y-8571289D01*
X11943612Y-8603732D01*
X11936000Y-8642000D01*
X11572321Y-8642000D01*
X11598781Y-8609758D01*
X11646853Y-8519822D01*
X11676455Y-8422236D01*
X11686451Y-8320750D01*
X11686451Y-7808250D01*
X11676455Y-7706764D01*
X11646853Y-7609178D01*
X11598781Y-7519242D01*
X11534088Y-7440412D01*
X11488391Y-7402910D01*
X11546362Y-7378898D01*
X11718336Y-7263989D01*
X11864589Y-7117736D01*
X11949939Y-6990000D01*
X15868549Y-6990000D01*
X15868549Y-10790000D01*
X15874341Y-10848810D01*
X15891496Y-10905360D01*
X15919353Y-10957477D01*
X15956842Y-11003158D01*
X16002523Y-11040647D01*
X16054640Y-11068504D01*
X16111190Y-11085659D01*
X16170000Y-11091451D01*
X18170000Y-11091451D01*
X18228810Y-11085659D01*
X18285360Y-11068504D01*
X18337477Y-11040647D01*
X18383158Y-11003158D01*
X18420647Y-10957477D01*
X18448504Y-10905360D01*
X18465659Y-10848810D01*
X18471451Y-10790000D01*
X18471451Y-7227550D01*
X18536556Y-7240500D01*
X18674444Y-7240500D01*
X18809682Y-7213599D01*
X18937074Y-7160832D01*
X19051724Y-7084226D01*
X19149226Y-6986724D01*
X19225832Y-6872074D01*
X19278599Y-6744682D01*
X19305500Y-6609444D01*
X19305500Y-6471556D01*
X19278599Y-6336318D01*
X19225832Y-6208926D01*
X19149226Y-6094276D01*
X19051724Y-5996774D01*
X18937074Y-5920168D01*
X18809682Y-5867401D01*
X18674444Y-5840500D01*
X18536556Y-5840500D01*
X18482217Y-5851309D01*
X18470711Y-5837289D01*
X18417016Y-5793222D01*
X18389853Y-5703678D01*
X18341781Y-5613742D01*
X18277088Y-5534912D01*
X18198258Y-5470219D01*
X18108322Y-5422147D01*
X18010736Y-5392545D01*
X17909250Y-5382549D01*
X17396750Y-5382549D01*
X17295264Y-5392545D01*
X17197678Y-5422147D01*
X17107742Y-5470219D01*
X17028912Y-5534912D01*
X16964219Y-5613742D01*
X16916147Y-5703678D01*
X16886545Y-5801264D01*
X16876549Y-5902750D01*
X16876549Y-6340250D01*
X16886545Y-6441736D01*
X16916147Y-6539322D01*
X16964219Y-6629258D01*
X17012877Y-6688549D01*
X16170000Y-6688549D01*
X16111190Y-6694341D01*
X16054640Y-6711496D01*
X16002523Y-6739353D01*
X15956842Y-6776842D01*
X15919353Y-6822523D01*
X15891496Y-6874640D01*
X15874341Y-6931190D01*
X15868549Y-6990000D01*
X11949939Y-6990000D01*
X11979498Y-6945762D01*
X12058650Y-6754674D01*
X12099000Y-6551816D01*
X12099000Y-6344984D01*
X12058650Y-6142126D01*
X11979498Y-5951038D01*
X11864589Y-5779064D01*
X11718336Y-5632811D01*
X11546362Y-5517902D01*
X11355274Y-5438750D01*
X11152416Y-5398400D01*
X10945584Y-5398400D01*
X10742726Y-5438750D01*
X10551638Y-5517902D01*
X10379664Y-5632811D01*
X10233411Y-5779064D01*
X10118502Y-5951038D01*
X10039350Y-6142126D01*
X9999000Y-6344984D01*
X7444888Y-6344984D01*
X7414833Y-6272426D01*
X7338227Y-6157776D01*
X7240725Y-6060274D01*
X7126075Y-5983668D01*
X6998683Y-5930901D01*
X6863445Y-5904000D01*
X6725557Y-5904000D01*
X6590319Y-5930901D01*
X6462927Y-5983668D01*
X6432500Y-6003998D01*
X6432500Y-4537002D01*
X6462927Y-4557332D01*
X6590319Y-4610099D01*
X6725557Y-4637000D01*
X6863445Y-4637000D01*
X6998683Y-4610099D01*
X7126075Y-4557332D01*
X7240725Y-4480726D01*
X7338227Y-4383224D01*
X7380449Y-4320034D01*
X9974192Y-4320034D01*
X10001200Y-4322694D01*
X10028208Y-4320034D01*
X10028218Y-4320034D01*
X10109019Y-4312076D01*
X10212694Y-4280626D01*
X10271757Y-4249056D01*
X23874500Y-4249056D01*
X23874500Y-4386944D01*
X23901401Y-4522182D01*
X23954168Y-4649574D01*
X24030774Y-4764224D01*
X24128276Y-4861726D01*
X24242926Y-4938332D01*
X24370318Y-4991099D01*
X24505556Y-5018000D01*
X24643444Y-5018000D01*
X24778682Y-4991099D01*
X24815388Y-4975895D01*
X24850219Y-5041058D01*
X24914912Y-5119888D01*
X24993742Y-5184581D01*
X25083678Y-5232653D01*
X25181264Y-5262255D01*
X25282750Y-5272251D01*
X25720250Y-5272251D01*
X25821736Y-5262255D01*
X25919322Y-5232653D01*
X26009258Y-5184581D01*
X26088088Y-5119888D01*
X26152781Y-5041058D01*
X26200853Y-4951122D01*
X26230455Y-4853536D01*
X26240451Y-4752050D01*
X26240451Y-4239550D01*
X26230455Y-4138064D01*
X26200853Y-4040478D01*
X26152781Y-3950542D01*
X26088088Y-3871712D01*
X26009258Y-3807019D01*
X25919322Y-3758947D01*
X25821736Y-3729345D01*
X25720250Y-3719349D01*
X25282750Y-3719349D01*
X25181264Y-3729345D01*
X25083678Y-3758947D01*
X25032664Y-3786214D01*
X25020724Y-3774274D01*
X24906074Y-3697668D01*
X24778682Y-3644901D01*
X24643444Y-3618000D01*
X24505556Y-3618000D01*
X24370318Y-3644901D01*
X24242926Y-3697668D01*
X24128276Y-3774274D01*
X24030774Y-3871776D01*
X23954168Y-3986426D01*
X23901401Y-4113818D01*
X23874500Y-4249056D01*
X10271757Y-4249056D01*
X10308242Y-4229555D01*
X10391990Y-4160824D01*
X10409214Y-4139837D01*
X10570051Y-3979000D01*
X22832992Y-3979000D01*
X22860000Y-3981660D01*
X22887008Y-3979000D01*
X22887018Y-3979000D01*
X22967819Y-3971042D01*
X23071494Y-3939592D01*
X23167042Y-3888521D01*
X23250790Y-3819790D01*
X23268013Y-3798804D01*
X23849817Y-3217000D01*
X29109183Y-3217000D01*
X29513491Y-3621309D01*
X29513490Y-7606790D01*
X29444819Y-7585958D01*
X29364018Y-7578000D01*
X29337000Y-7575339D01*
X29309982Y-7578000D01*
X27776507Y-7578000D01*
X27749499Y-7575340D01*
X27722491Y-7578000D01*
X27722482Y-7578000D01*
X27641681Y-7585958D01*
X27538006Y-7617408D01*
X27442458Y-7668479D01*
X27358710Y-7737210D01*
X27341487Y-7758196D01*
X27140683Y-7959000D01*
X26124731Y-7959000D01*
X26136853Y-7936322D01*
X26166455Y-7838736D01*
X26176451Y-7737250D01*
X26176451Y-7570566D01*
X27293810Y-6453208D01*
X27314790Y-6435990D01*
X27332008Y-6415010D01*
X27332013Y-6415005D01*
X27383520Y-6352243D01*
X27387497Y-6344803D01*
X27434592Y-6256694D01*
X27466042Y-6153019D01*
X27474000Y-6072218D01*
X27474000Y-6072209D01*
X27476660Y-6045201D01*
X27474000Y-6018193D01*
X27474000Y-5238818D01*
X27494322Y-5232653D01*
X27584258Y-5184581D01*
X27661047Y-5121563D01*
X27671926Y-5128832D01*
X27799318Y-5181599D01*
X27934556Y-5208500D01*
X28072444Y-5208500D01*
X28207682Y-5181599D01*
X28335074Y-5128832D01*
X28449724Y-5052226D01*
X28547226Y-4954724D01*
X28623832Y-4840074D01*
X28676599Y-4712682D01*
X28703500Y-4577444D01*
X28703500Y-4439556D01*
X28676599Y-4304318D01*
X28623832Y-4176926D01*
X28547226Y-4062276D01*
X28449724Y-3964774D01*
X28335074Y-3888168D01*
X28207682Y-3835401D01*
X28072444Y-3808500D01*
X27934556Y-3808500D01*
X27799318Y-3835401D01*
X27675409Y-3886725D01*
X27663088Y-3871712D01*
X27584258Y-3807019D01*
X27494322Y-3758947D01*
X27396736Y-3729345D01*
X27295250Y-3719349D01*
X26857750Y-3719349D01*
X26756264Y-3729345D01*
X26658678Y-3758947D01*
X26568742Y-3807019D01*
X26489912Y-3871712D01*
X26425219Y-3950542D01*
X26377147Y-4040478D01*
X26347545Y-4138064D01*
X26337549Y-4239550D01*
X26337549Y-4752050D01*
X26347545Y-4853536D01*
X26374001Y-4940750D01*
X26374000Y-5817382D01*
X25411834Y-6779549D01*
X25143750Y-6779549D01*
X25042264Y-6789545D01*
X24944678Y-6819147D01*
X24854742Y-6867219D01*
X24775912Y-6931912D01*
X24711219Y-7010742D01*
X24663147Y-7100678D01*
X24633545Y-7198264D01*
X24623549Y-7299750D01*
X24623549Y-7517133D01*
X24302134Y-7838549D01*
X22470000Y-7838549D01*
X22411190Y-7844341D01*
X22354640Y-7861496D01*
X22302523Y-7889353D01*
X22256842Y-7926842D01*
X22219353Y-7972523D01*
X22191496Y-8024640D01*
X22174341Y-8081190D01*
X22168549Y-8140000D01*
X22168549Y-8340000D01*
X21617011Y-8340000D01*
X21590000Y-8337340D01*
X21562989Y-8340000D01*
X21562982Y-8340000D01*
X21482181Y-8347958D01*
X21378505Y-8379408D01*
X21328355Y-8406214D01*
X21282958Y-8430479D01*
X21199210Y-8499210D01*
X21181987Y-8520196D01*
X20458191Y-9243992D01*
X20437211Y-9261210D01*
X20419993Y-9282190D01*
X20419987Y-9282196D01*
X20368479Y-9344958D01*
X20327310Y-9421982D01*
X20317409Y-9440506D01*
X20285958Y-9544181D01*
X20278000Y-9624982D01*
X20278000Y-9624992D01*
X20275340Y-9652000D01*
X20278000Y-9679008D01*
X20278000Y-10503683D01*
X18807191Y-11974492D01*
X18786211Y-11991710D01*
X18768993Y-12012690D01*
X18760803Y-12020880D01*
X18739823Y-12038098D01*
X18722603Y-12059080D01*
X18465134Y-12316549D01*
X18412750Y-12316549D01*
X18311264Y-12326545D01*
X18213678Y-12356147D01*
X18123742Y-12404219D01*
X18044912Y-12468912D01*
X17980219Y-12547742D01*
X17932147Y-12637678D01*
X17902545Y-12735264D01*
X17892549Y-12836750D01*
X17892549Y-12850938D01*
X17881853Y-12815678D01*
X17833781Y-12725742D01*
X17769088Y-12646912D01*
X17690258Y-12582219D01*
X17600322Y-12534147D01*
X17502736Y-12504545D01*
X17401250Y-12494549D01*
X16888750Y-12494549D01*
X16875754Y-12495829D01*
X16821647Y-12490500D01*
X16821646Y-12490500D01*
X16802000Y-12488565D01*
X16782354Y-12490500D01*
X16397451Y-12490500D01*
X16397451Y-12328750D01*
X16387455Y-12227264D01*
X16357853Y-12129678D01*
X16309781Y-12039742D01*
X16245088Y-11960912D01*
X16166258Y-11896219D01*
X16076322Y-11848147D01*
X15978736Y-11818545D01*
X15877250Y-11808549D01*
X15364750Y-11808549D01*
X15263264Y-11818545D01*
X15165678Y-11848147D01*
X15075742Y-11896219D01*
X15041048Y-11924692D01*
X15021727Y-11895776D01*
X14924225Y-11798274D01*
X14809575Y-11721668D01*
X14682183Y-11668901D01*
X14546945Y-11642000D01*
X14409057Y-11642000D01*
X14273819Y-11668901D01*
X14146427Y-11721668D01*
X14031777Y-11798274D01*
X13934275Y-11895776D01*
X13857669Y-12010426D01*
X13804902Y-12137818D01*
X13778001Y-12273056D01*
X13778001Y-12410944D01*
X13804902Y-12546182D01*
X13857669Y-12673574D01*
X13934275Y-12788224D01*
X13962354Y-12816303D01*
X13904777Y-12854774D01*
X13807275Y-12952276D01*
X13730669Y-13066926D01*
X13677902Y-13194318D01*
X13651001Y-13329556D01*
X13651001Y-13467444D01*
X13677902Y-13602682D01*
X13730669Y-13730074D01*
X13807275Y-13844724D01*
X13904777Y-13942226D01*
X14019427Y-14018832D01*
X14146819Y-14071599D01*
X14191713Y-14080529D01*
X14577993Y-14466809D01*
X14595211Y-14487790D01*
X14616191Y-14505008D01*
X14616196Y-14505013D01*
X14659221Y-14540322D01*
X14678959Y-14556521D01*
X14774507Y-14607592D01*
X14878182Y-14639042D01*
X14944813Y-14645604D01*
X14996912Y-14709088D01*
X15075742Y-14773781D01*
X15165678Y-14821853D01*
X15263264Y-14851455D01*
X15364750Y-14861451D01*
X15877250Y-14861451D01*
X15978736Y-14851455D01*
X16076322Y-14821853D01*
X16118141Y-14799500D01*
X17522764Y-14799500D01*
X17549772Y-14802160D01*
X17576780Y-14799500D01*
X17576790Y-14799500D01*
X17657591Y-14791542D01*
X17761266Y-14760092D01*
X17856814Y-14709021D01*
X17940562Y-14640290D01*
X17957785Y-14619304D01*
X18782639Y-13794451D01*
X18925250Y-13794451D01*
X19026736Y-13784455D01*
X19124322Y-13754853D01*
X19214258Y-13706781D01*
X19293088Y-13642088D01*
X19302188Y-13631000D01*
X19559812Y-13631000D01*
X19568912Y-13642088D01*
X19647742Y-13706781D01*
X19737678Y-13754853D01*
X19835264Y-13784455D01*
X19936750Y-13794451D01*
X20449250Y-13794451D01*
X20550736Y-13784455D01*
X20648322Y-13754853D01*
X20738258Y-13706781D01*
X20817088Y-13642088D01*
X20881781Y-13563258D01*
X20929853Y-13473322D01*
X20957103Y-13383489D01*
X20962545Y-13438736D01*
X20992147Y-13536322D01*
X21040219Y-13626258D01*
X21104912Y-13705088D01*
X21183742Y-13769781D01*
X21273678Y-13817853D01*
X21371264Y-13847455D01*
X21472750Y-13857451D01*
X21910250Y-13857451D01*
X22011736Y-13847455D01*
X22109322Y-13817853D01*
X22199258Y-13769781D01*
X22278088Y-13705088D01*
X22342781Y-13626258D01*
X22390853Y-13536322D01*
X22420455Y-13438736D01*
X22430451Y-13337250D01*
X22430451Y-12824750D01*
X22420455Y-12723264D01*
X22390853Y-12625678D01*
X22342781Y-12535742D01*
X22278088Y-12456912D01*
X22199258Y-12392219D01*
X22109322Y-12344147D01*
X22076500Y-12334191D01*
X22076500Y-11901507D01*
X22079160Y-11874499D01*
X22076500Y-11847491D01*
X22076500Y-11847482D01*
X22068542Y-11766681D01*
X22037092Y-11663006D01*
X21986021Y-11567458D01*
X21968250Y-11545804D01*
X21934513Y-11504695D01*
X21934508Y-11504690D01*
X21917290Y-11483710D01*
X21896309Y-11466492D01*
X21378000Y-10948183D01*
X21378000Y-10758511D01*
X21380660Y-10731500D01*
X21378000Y-10704489D01*
X21378000Y-9879817D01*
X21817817Y-9440000D01*
X22168549Y-9440000D01*
X22168549Y-9640000D01*
X22174341Y-9698810D01*
X22191496Y-9755360D01*
X22219353Y-9807477D01*
X22256842Y-9853158D01*
X22302523Y-9890647D01*
X22354640Y-9918504D01*
X22411190Y-9935659D01*
X22470000Y-9941451D01*
X24470000Y-9941451D01*
X24528810Y-9935659D01*
X24585360Y-9918504D01*
X24637477Y-9890647D01*
X24683158Y-9853158D01*
X24709549Y-9821000D01*
X26762139Y-9821000D01*
X26758901Y-9828818D01*
X26732000Y-9964056D01*
X26732000Y-10101944D01*
X26758901Y-10237182D01*
X26811668Y-10364574D01*
X26888274Y-10479224D01*
X26985776Y-10576726D01*
X27100426Y-10653332D01*
X27227818Y-10706099D01*
X27363056Y-10733000D01*
X27500944Y-10733000D01*
X27636182Y-10706099D01*
X27763574Y-10653332D01*
X27878224Y-10576726D01*
X27975726Y-10479224D01*
X28052332Y-10364574D01*
X28105099Y-10237182D01*
X28132000Y-10101944D01*
X28132000Y-9964056D01*
X28105099Y-9828818D01*
X28052332Y-9701426D01*
X27982000Y-9596166D01*
X27982000Y-9476007D01*
X27984660Y-9448999D01*
X27983259Y-9434771D01*
X28000272Y-9420808D01*
X28017495Y-9399822D01*
X28104317Y-9313000D01*
X29199160Y-9313000D01*
X29189999Y-9359057D01*
X29189999Y-9496945D01*
X29216900Y-9632183D01*
X29269667Y-9759575D01*
X29346273Y-9874225D01*
X29443775Y-9971727D01*
X29558425Y-10048333D01*
X29685817Y-10101100D01*
X29739999Y-10111878D01*
X29739998Y-10563551D01*
X27295528Y-13008022D01*
X27239776Y-13045274D01*
X27220550Y-13064500D01*
X26054114Y-13064500D01*
X26024088Y-13027912D01*
X25945258Y-12963219D01*
X25855322Y-12915147D01*
X25757736Y-12885545D01*
X25656250Y-12875549D01*
X25143750Y-12875549D01*
X25088781Y-12880963D01*
X24704010Y-12496193D01*
X24704010Y-12127749D01*
X24720647Y-12107477D01*
X24748504Y-12055360D01*
X24765659Y-11998810D01*
X24771451Y-11940000D01*
X24771451Y-10440000D01*
X24765659Y-10381190D01*
X24748504Y-10324640D01*
X24720647Y-10272523D01*
X24683158Y-10226842D01*
X24637477Y-10189353D01*
X24585360Y-10161496D01*
X24528810Y-10144341D01*
X24470000Y-10138549D01*
X22470000Y-10138549D01*
X22411190Y-10144341D01*
X22354640Y-10161496D01*
X22302523Y-10189353D01*
X22256842Y-10226842D01*
X22219353Y-10272523D01*
X22191496Y-10324640D01*
X22174341Y-10381190D01*
X22168549Y-10440000D01*
X22168549Y-11940000D01*
X22174341Y-11998810D01*
X22191496Y-12055360D01*
X22219353Y-12107477D01*
X22256842Y-12153158D01*
X22302523Y-12190647D01*
X22354640Y-12218504D01*
X22411190Y-12235659D01*
X22470000Y-12241451D01*
X23604011Y-12241451D01*
X23604011Y-12319785D01*
X23586736Y-12314545D01*
X23485250Y-12304549D01*
X23047750Y-12304549D01*
X22946264Y-12314545D01*
X22848678Y-12344147D01*
X22758742Y-12392219D01*
X22679912Y-12456912D01*
X22615219Y-12535742D01*
X22567147Y-12625678D01*
X22537545Y-12723264D01*
X22527549Y-12824750D01*
X22527549Y-13337250D01*
X22537545Y-13438736D01*
X22567147Y-13536322D01*
X22615219Y-13626258D01*
X22679912Y-13705088D01*
X22758742Y-13769781D01*
X22848678Y-13817853D01*
X22946264Y-13847455D01*
X23047750Y-13857451D01*
X23485250Y-13857451D01*
X23586736Y-13847455D01*
X23621672Y-13836857D01*
X24405773Y-14620958D01*
X24418299Y-14636221D01*
X24452807Y-14664541D01*
X24479207Y-14686207D01*
X24548696Y-14723350D01*
X24624096Y-14746222D01*
X24702510Y-14753945D01*
X24722157Y-14752010D01*
X27919344Y-14752010D01*
X27938990Y-14753945D01*
X27958636Y-14752010D01*
X27958637Y-14752010D01*
X28017404Y-14746222D01*
X28092804Y-14723350D01*
X28162293Y-14686207D01*
X28223201Y-14636221D01*
X28235727Y-14620958D01*
X28666153Y-14190533D01*
X28681411Y-14178011D01*
X28699031Y-14156542D01*
X28731397Y-14117103D01*
X28768540Y-14047614D01*
X28791412Y-13972214D01*
X28799135Y-13893800D01*
X28797200Y-13874153D01*
X28797200Y-13627685D01*
X29611086Y-12813799D01*
X29703926Y-12875832D01*
X29831318Y-12928599D01*
X29966556Y-12955500D01*
X30104444Y-12955500D01*
X30239682Y-12928599D01*
X30367074Y-12875832D01*
X30481724Y-12799226D01*
X30579226Y-12701724D01*
X30655832Y-12587074D01*
X30708599Y-12459682D01*
X30735500Y-12324444D01*
X30735500Y-12186556D01*
X30708599Y-12051318D01*
X30655832Y-11923926D01*
X30579226Y-11809276D01*
X30481724Y-11711774D01*
X30367074Y-11635168D01*
X30265917Y-11593268D01*
X30659808Y-11199377D01*
X30680788Y-11182159D01*
X30698006Y-11161179D01*
X30698011Y-11161174D01*
X30749519Y-11098412D01*
X30790368Y-11021987D01*
X30800590Y-11002863D01*
X30832040Y-10899188D01*
X30839998Y-10818387D01*
X30839998Y-10818378D01*
X30842658Y-10791370D01*
X30839998Y-10764362D01*
X30839998Y-9855007D01*
X30842658Y-9827999D01*
X30839998Y-9800991D01*
X30839998Y-9800982D01*
X30832040Y-9720181D01*
X30800590Y-9616506D01*
X30771216Y-9561551D01*
X30749519Y-9520957D01*
X30698011Y-9458195D01*
X30698006Y-9458190D01*
X30680788Y-9437210D01*
X30659807Y-9419991D01*
X30604744Y-9364928D01*
X30605532Y-9362329D01*
X30613490Y-9281528D01*
X30613490Y-9281521D01*
X30616150Y-9254510D01*
X30613490Y-9227499D01*
X30613490Y-3420501D01*
X30616150Y-3393490D01*
X30613490Y-3366480D01*
X30613490Y-3366472D01*
X30605532Y-3285671D01*
X30574082Y-3181996D01*
X30532512Y-3104223D01*
X30523011Y-3086447D01*
X30471503Y-3023685D01*
X30471498Y-3023680D01*
X30454280Y-3002700D01*
X30433300Y-2985482D01*
X29745013Y-2297196D01*
X29739767Y-2290804D01*
X29851997Y-2230816D01*
X30027107Y-2087107D01*
X30170816Y-1911997D01*
X30277602Y-1712215D01*
X30343360Y-1495439D01*
X30365564Y-1270000D01*
X30343360Y-1044561D01*
X30277602Y-827785D01*
X30170816Y-628003D01*
X30027107Y-452893D01*
X29932194Y-375000D01*
X32645001Y-375000D01*
X32645000Y-17405000D01*
X29932195Y-17405000D01*
X30027108Y-17327107D01*
X30170817Y-17151997D01*
X30277603Y-16952215D01*
X30343361Y-16735439D01*
X30365565Y-16510000D01*
X30343361Y-16284561D01*
X30277603Y-16067785D01*
X30170817Y-15868003D01*
X30027108Y-15692893D01*
X29851998Y-15549184D01*
X29652216Y-15442398D01*
X29435440Y-15376640D01*
X29266493Y-15360000D01*
X29153509Y-15360000D01*
X28984562Y-15376640D01*
X28767786Y-15442398D01*
X28568004Y-15549184D01*
X28392894Y-15692893D01*
X28249185Y-15868003D01*
X28142399Y-16067785D01*
X28076641Y-16284561D01*
X28054437Y-16510000D01*
X28076641Y-16735439D01*
X28142399Y-16952215D01*
X28249185Y-17151997D01*
X28392894Y-17327107D01*
X28487807Y-17405000D01*
X27392195Y-17405000D01*
X27487108Y-17327107D01*
X27630817Y-17151997D01*
X27737603Y-16952215D01*
X27803361Y-16735439D01*
X27825565Y-16510000D01*
X27803361Y-16284561D01*
X27737603Y-16067785D01*
X27630817Y-15868003D01*
X27487108Y-15692893D01*
X27311998Y-15549184D01*
X27112216Y-15442398D01*
X26895440Y-15376640D01*
X26726493Y-15360000D01*
X26613509Y-15360000D01*
X26444562Y-15376640D01*
X26227786Y-15442398D01*
X26028004Y-15549184D01*
X25852894Y-15692893D01*
X25709185Y-15868003D01*
X25602399Y-16067785D01*
X25536641Y-16284561D01*
X25514437Y-16510000D01*
X25536641Y-16735439D01*
X25602399Y-16952215D01*
X25709185Y-17151997D01*
X25852894Y-17327107D01*
X25947807Y-17405000D01*
X24852195Y-17405000D01*
X24947108Y-17327107D01*
X25090817Y-17151997D01*
X25197603Y-16952215D01*
X25263361Y-16735439D01*
X25285565Y-16510000D01*
X25263361Y-16284561D01*
X25197603Y-16067785D01*
X25090817Y-15868003D01*
X24947108Y-15692893D01*
X24771998Y-15549184D01*
X24572216Y-15442398D01*
X24355440Y-15376640D01*
X24186493Y-15360000D01*
X24073509Y-15360000D01*
X23904562Y-15376640D01*
X23687786Y-15442398D01*
X23488004Y-15549184D01*
X23312894Y-15692893D01*
X23169185Y-15868003D01*
X23062399Y-16067785D01*
X22996641Y-16284561D01*
X22974437Y-16510000D01*
X22996641Y-16735439D01*
X23062399Y-16952215D01*
X23169185Y-17151997D01*
X23312894Y-17327107D01*
X23407807Y-17405000D01*
X22312195Y-17405000D01*
X22407108Y-17327107D01*
X22550817Y-17151997D01*
X22657603Y-16952215D01*
X22723361Y-16735439D01*
X22745565Y-16510000D01*
X22723361Y-16284561D01*
X22657603Y-16067785D01*
X22550817Y-15868003D01*
X22407108Y-15692893D01*
X22231998Y-15549184D01*
X22032216Y-15442398D01*
X21815440Y-15376640D01*
X21646493Y-15360000D01*
X21533509Y-15360000D01*
X21364562Y-15376640D01*
X21147786Y-15442398D01*
X20948004Y-15549184D01*
X20772894Y-15692893D01*
X20629185Y-15868003D01*
X20522399Y-16067785D01*
X20456641Y-16284561D01*
X20434437Y-16510000D01*
X20456641Y-16735439D01*
X20522399Y-16952215D01*
X20629185Y-17151997D01*
X20772894Y-17327107D01*
X20867807Y-17405000D01*
X19772195Y-17405000D01*
X19867108Y-17327107D01*
X20010817Y-17151997D01*
X20117603Y-16952215D01*
X20183361Y-16735439D01*
X20205565Y-16510000D01*
X20183361Y-16284561D01*
X20117603Y-16067785D01*
X20010817Y-15868003D01*
X19867108Y-15692893D01*
X19691998Y-15549184D01*
X19492216Y-15442398D01*
X19275440Y-15376640D01*
X19106493Y-15360000D01*
X18993509Y-15360000D01*
X18824562Y-15376640D01*
X18607786Y-15442398D01*
X18408004Y-15549184D01*
X18232894Y-15692893D01*
X18089185Y-15868003D01*
X17982399Y-16067785D01*
X17916641Y-16284561D01*
X17894437Y-16510000D01*
X17916641Y-16735439D01*
X17982399Y-16952215D01*
X18089185Y-17151997D01*
X18232894Y-17327107D01*
X18327807Y-17405000D01*
X17232195Y-17405000D01*
X17327108Y-17327107D01*
X17470817Y-17151997D01*
X17577603Y-16952215D01*
X17643361Y-16735439D01*
X17665565Y-16510000D01*
X17643361Y-16284561D01*
X17577603Y-16067785D01*
X17470817Y-15868003D01*
X17327108Y-15692893D01*
X17151998Y-15549184D01*
X16952216Y-15442398D01*
X16735440Y-15376640D01*
X16566493Y-15360000D01*
X16453509Y-15360000D01*
X16284562Y-15376640D01*
X16067786Y-15442398D01*
X15868004Y-15549184D01*
X15692894Y-15692893D01*
X15549185Y-15868003D01*
X15442399Y-16067785D01*
X15376641Y-16284561D01*
X15354437Y-16510000D01*
X15376641Y-16735439D01*
X15442399Y-16952215D01*
X15549185Y-17151997D01*
X15692894Y-17327107D01*
X15787807Y-17405000D01*
X14692195Y-17405000D01*
X14787108Y-17327107D01*
X14930817Y-17151997D01*
X15037603Y-16952215D01*
X15103361Y-16735439D01*
X15125565Y-16510000D01*
X15103361Y-16284561D01*
X15037603Y-16067785D01*
X14930817Y-15868003D01*
X14787108Y-15692893D01*
X14611998Y-15549184D01*
X14412216Y-15442398D01*
X14195440Y-15376640D01*
X14026493Y-15360000D01*
X13913509Y-15360000D01*
X13744562Y-15376640D01*
X13527786Y-15442398D01*
X13328004Y-15549184D01*
X13152894Y-15692893D01*
X13009185Y-15868003D01*
X12902399Y-16067785D01*
X12836641Y-16284561D01*
X12814437Y-16510000D01*
X12836641Y-16735439D01*
X12902399Y-16952215D01*
X13009185Y-17151997D01*
X13152894Y-17327107D01*
X13247807Y-17405000D01*
X12152195Y-17405000D01*
X12247108Y-17327107D01*
X12390817Y-17151997D01*
X12497603Y-16952215D01*
X12563361Y-16735439D01*
X12585565Y-16510000D01*
X12563361Y-16284561D01*
X12497603Y-16067785D01*
X12390817Y-15868003D01*
X12247108Y-15692893D01*
X12071998Y-15549184D01*
X11872216Y-15442398D01*
X11655440Y-15376640D01*
X11486493Y-15360000D01*
X11373509Y-15360000D01*
X11204562Y-15376640D01*
X10987786Y-15442398D01*
X10788004Y-15549184D01*
X10612894Y-15692893D01*
X10469185Y-15868003D01*
X10362399Y-16067785D01*
X10296641Y-16284561D01*
X10274437Y-16510000D01*
X10296641Y-16735439D01*
X10362399Y-16952215D01*
X10469185Y-17151997D01*
X10612894Y-17327107D01*
X10707807Y-17405000D01*
X9612195Y-17405000D01*
X9707108Y-17327107D01*
X9850817Y-17151997D01*
X9957603Y-16952215D01*
X10023361Y-16735439D01*
X10045565Y-16510000D01*
X10023361Y-16284561D01*
X9957603Y-16067785D01*
X9850817Y-15868003D01*
X9707108Y-15692893D01*
X9531998Y-15549184D01*
X9332216Y-15442398D01*
X9115440Y-15376640D01*
X8946493Y-15360000D01*
X8833509Y-15360000D01*
X8664562Y-15376640D01*
X8447786Y-15442398D01*
X8248004Y-15549184D01*
X8072894Y-15692893D01*
X7929185Y-15868003D01*
X7822399Y-16067785D01*
X7756641Y-16284561D01*
X7734437Y-16510000D01*
X7756641Y-16735439D01*
X7822399Y-16952215D01*
X7929185Y-17151997D01*
X8072894Y-17327107D01*
X8167807Y-17405000D01*
X7072195Y-17405000D01*
X7167108Y-17327107D01*
X7310817Y-17151997D01*
X7417603Y-16952215D01*
X7483361Y-16735439D01*
X7505565Y-16510000D01*
X7483361Y-16284561D01*
X7417603Y-16067785D01*
X7310817Y-15868003D01*
X7167108Y-15692893D01*
X6991998Y-15549184D01*
X6792216Y-15442398D01*
X6575440Y-15376640D01*
X6406493Y-15360000D01*
X6293509Y-15360000D01*
X6124562Y-15376640D01*
X5907786Y-15442398D01*
X5708004Y-15549184D01*
X5532894Y-15692893D01*
X5389185Y-15868003D01*
X5282399Y-16067785D01*
X5216641Y-16284561D01*
X5194437Y-16510000D01*
X5216641Y-16735439D01*
X5282399Y-16952215D01*
X5389185Y-17151997D01*
X5532894Y-17327107D01*
X5627807Y-17405000D01*
X4532195Y-17405000D01*
X4627108Y-17327107D01*
X4770817Y-17151997D01*
X4877603Y-16952215D01*
X4943361Y-16735439D01*
X4965565Y-16510000D01*
X4943361Y-16284561D01*
X4877603Y-16067785D01*
X4770817Y-15868003D01*
X4627108Y-15692893D01*
X4451998Y-15549184D01*
X4252216Y-15442398D01*
X4035440Y-15376640D01*
X3866493Y-15360000D01*
X3753509Y-15360000D01*
X3584562Y-15376640D01*
X3367786Y-15442398D01*
X3168004Y-15549184D01*
X2992894Y-15692893D01*
X2849185Y-15868003D01*
X2742399Y-16067785D01*
X2676641Y-16284561D01*
X2654437Y-16510000D01*
X2676641Y-16735439D01*
X2742399Y-16952215D01*
X2849185Y-17151997D01*
X2992894Y-17327107D01*
X3087807Y-17405000D01*
X375000Y-17405000D01*
X375000Y-375000D01*
X3087806Y-375000D01*
X2992893Y-452893D01*
X2992893Y-452893D01*
G37*
X2992893Y-452893D02*
X2849184Y-628003D01*
X2742398Y-827785D01*
X2676640Y-1044561D01*
X2654436Y-1270000D01*
X2676640Y-1495439D01*
X2742398Y-1712215D01*
X2849184Y-1911997D01*
X2992893Y-2087107D01*
X3168003Y-2230816D01*
X3367785Y-2337602D01*
X3584561Y-2403360D01*
X3753508Y-2420000D01*
X3866492Y-2420000D01*
X4035439Y-2403360D01*
X4252215Y-2337602D01*
X4451997Y-2230816D01*
X4627107Y-2087107D01*
X4770816Y-1911997D01*
X4877602Y-1712215D01*
X4943360Y-1495439D01*
X4965564Y-1270000D01*
X4943360Y-1044561D01*
X4877602Y-827785D01*
X4770816Y-628003D01*
X4627107Y-452893D01*
X4532194Y-375000D01*
X5627806Y-375000D01*
X5532893Y-452893D01*
X5389184Y-628003D01*
X5282398Y-827785D01*
X5216640Y-1044561D01*
X5194436Y-1270000D01*
X5216640Y-1495439D01*
X5282398Y-1712215D01*
X5389184Y-1911997D01*
X5532893Y-2087107D01*
X5640718Y-2175597D01*
X4342816Y-3473500D01*
X3431145Y-3473500D01*
X3411498Y-3471565D01*
X3391851Y-3473500D01*
X3333084Y-3479288D01*
X3257684Y-3502160D01*
X3188195Y-3539303D01*
X3127287Y-3589289D01*
X3114757Y-3604557D01*
X2906053Y-3813260D01*
X2890789Y-3825787D01*
X2840803Y-3886696D01*
X2803660Y-3956185D01*
X2783867Y-4021435D01*
X2780788Y-4031585D01*
X2773065Y-4109998D01*
X2775000Y-4129644D01*
X2775001Y-10572346D01*
X2773065Y-10592002D01*
X2780788Y-10670415D01*
X2803661Y-10745816D01*
X2840803Y-10815304D01*
X2878265Y-10860952D01*
X2878268Y-10860955D01*
X2890790Y-10876213D01*
X2906047Y-10888735D01*
X3596266Y-11578954D01*
X3608788Y-11594212D01*
X3624046Y-11606734D01*
X3624048Y-11606736D01*
X3669696Y-11644198D01*
X3739184Y-11681341D01*
X3814585Y-11704213D01*
X3892999Y-11711936D01*
X3912645Y-11710001D01*
X5815353Y-11710001D01*
X5834999Y-11711936D01*
X5854645Y-11710001D01*
X5854646Y-11710001D01*
X5870500Y-11708439D01*
X5856496Y-11734640D01*
X5839341Y-11791190D01*
X5833549Y-11850000D01*
X5833549Y-13550000D01*
X5839341Y-13608810D01*
X5856496Y-13665360D01*
X5884353Y-13717477D01*
X5921842Y-13763158D01*
X5967523Y-13800647D01*
X6019640Y-13828504D01*
X6076190Y-13845659D01*
X6135000Y-13851451D01*
X7835000Y-13851451D01*
X7893810Y-13845659D01*
X7950360Y-13828504D01*
X8002477Y-13800647D01*
X8048158Y-13763158D01*
X8085647Y-13717477D01*
X8113504Y-13665360D01*
X8130659Y-13608810D01*
X8136451Y-13550000D01*
X8136451Y-12008867D01*
X8654811Y-11490507D01*
X8675791Y-11473289D01*
X8693009Y-11452309D01*
X8693014Y-11452304D01*
X8744522Y-11389542D01*
X8780709Y-11321839D01*
X8795593Y-11293993D01*
X8816527Y-11224984D01*
X9999000Y-11224984D01*
X9999000Y-11431816D01*
X10039350Y-11634674D01*
X10118502Y-11825762D01*
X10233411Y-11997736D01*
X10379664Y-12143989D01*
X10551638Y-12258898D01*
X10742726Y-12338050D01*
X10945584Y-12378400D01*
X11152416Y-12378400D01*
X11355274Y-12338050D01*
X11546362Y-12258898D01*
X11718336Y-12143989D01*
X11864589Y-11997736D01*
X11979498Y-11825762D01*
X12058650Y-11634674D01*
X12099000Y-11431816D01*
X12099000Y-11224984D01*
X12058650Y-11022126D01*
X11979498Y-10831038D01*
X11864589Y-10659064D01*
X11718336Y-10512811D01*
X11546362Y-10397902D01*
X11490983Y-10374963D01*
X11534088Y-10339588D01*
X11598781Y-10260758D01*
X11646853Y-10170822D01*
X11676455Y-10073236D01*
X11686451Y-9971750D01*
X11686451Y-9459250D01*
X11676455Y-9357764D01*
X11646853Y-9260178D01*
X11598781Y-9170242D01*
X11534088Y-9091412D01*
X11455258Y-9026719D01*
X11365322Y-8978647D01*
X11267736Y-8949045D01*
X11166250Y-8939049D01*
X10728750Y-8939049D01*
X10627264Y-8949045D01*
X10529678Y-8978647D01*
X10439742Y-9026719D01*
X10360912Y-9091412D01*
X10296219Y-9170242D01*
X10248147Y-9260178D01*
X10218545Y-9357764D01*
X10208549Y-9459250D01*
X10208549Y-9971750D01*
X10218545Y-10073236D01*
X10248147Y-10170822D01*
X10296219Y-10260758D01*
X10360912Y-10339588D01*
X10439742Y-10404281D01*
X10496604Y-10434674D01*
X10379664Y-10512811D01*
X10233411Y-10659064D01*
X10118502Y-10831038D01*
X10039350Y-11022126D01*
X9999000Y-11224984D01*
X8816527Y-11224984D01*
X8827043Y-11190318D01*
X8835001Y-11109517D01*
X8835001Y-11109508D01*
X8837661Y-11082500D01*
X8835001Y-11055492D01*
X8835001Y-9582008D01*
X8837661Y-9555000D01*
X8835001Y-9527992D01*
X8835001Y-9527983D01*
X8827043Y-9447182D01*
X8795593Y-9343507D01*
X8744522Y-9247959D01*
X8724711Y-9223819D01*
X8693014Y-9185196D01*
X8693009Y-9185191D01*
X8675791Y-9164211D01*
X8654811Y-9146993D01*
X7344501Y-7836684D01*
X7344501Y-7040834D01*
X7414833Y-6935574D01*
X7467600Y-6808182D01*
X7494501Y-6672944D01*
X7494501Y-6535056D01*
X7467600Y-6399818D01*
X7444888Y-6344984D01*
X9999000Y-6344984D01*
X9999000Y-6551816D01*
X10039350Y-6754674D01*
X10118502Y-6945762D01*
X10233411Y-7117736D01*
X10379664Y-7263989D01*
X10499265Y-7343903D01*
X10439742Y-7375719D01*
X10360912Y-7440412D01*
X10296219Y-7519242D01*
X10248147Y-7609178D01*
X10218545Y-7706764D01*
X10208549Y-7808250D01*
X10208549Y-8320750D01*
X10218545Y-8422236D01*
X10248147Y-8519822D01*
X10296219Y-8609758D01*
X10360912Y-8688588D01*
X10439742Y-8753281D01*
X10529678Y-8801353D01*
X10627264Y-8830955D01*
X10728750Y-8840951D01*
X11166250Y-8840951D01*
X11267736Y-8830955D01*
X11365322Y-8801353D01*
X11455258Y-8753281D01*
X11534088Y-8688588D01*
X11572321Y-8642000D01*
X11936000Y-8642000D01*
X11936000Y-10042000D01*
X11943612Y-10080268D01*
X11965289Y-10112711D01*
X11997732Y-10134388D01*
X12036000Y-10142000D01*
X12636000Y-10142000D01*
X12674268Y-10134388D01*
X12706711Y-10112711D01*
X13006711Y-9812711D01*
X13028388Y-9780268D01*
X13036000Y-9742000D01*
X13028388Y-9703732D01*
X13006711Y-9671289D01*
X12974268Y-9649612D01*
X12936000Y-9642000D01*
X12436000Y-9642000D01*
X12436000Y-9042000D01*
X12536000Y-9042000D01*
X12536000Y-9242000D01*
X12543612Y-9280268D01*
X12565289Y-9312711D01*
X12597732Y-9334388D01*
X12636000Y-9342000D01*
X13219773Y-9342000D01*
X13525837Y-9444021D01*
X13497732Y-9449612D01*
X13465289Y-9471289D01*
X13165289Y-9771289D01*
X13143612Y-9803732D01*
X13136000Y-9842000D01*
X13136000Y-10442000D01*
X13139128Y-10457725D01*
X13141132Y-10473623D01*
X13142911Y-10476744D01*
X13143612Y-10480268D01*
X13152520Y-10493600D01*
X13160455Y-10507520D01*
X13163292Y-10509721D01*
X13165289Y-10512711D01*
X13178620Y-10521618D01*
X13191279Y-10531443D01*
X13194745Y-10532392D01*
X13197732Y-10534388D01*
X13213454Y-10537515D01*
X13228911Y-10541748D01*
X13232475Y-10541299D01*
X13236000Y-10542000D01*
X13251725Y-10538872D01*
X13267623Y-10536868D01*
X15067623Y-9936868D01*
X15106711Y-9912711D01*
X15406711Y-9612711D01*
X15425443Y-9586721D01*
X15435748Y-9549089D01*
X15430868Y-9510377D01*
X15411545Y-9476480D01*
X15380721Y-9452557D01*
X15343089Y-9442252D01*
X15304377Y-9447132D01*
X13636000Y-10003258D01*
X13636000Y-9542000D01*
X13628388Y-9503732D01*
X13606711Y-9471289D01*
X13605786Y-9470671D01*
X13804377Y-9536868D01*
X13828911Y-9541748D01*
X13867623Y-9536868D01*
X14467623Y-9336868D01*
X14511545Y-9307520D01*
X14530868Y-9273623D01*
X14535748Y-9234911D01*
X14525443Y-9197279D01*
X14501520Y-9166455D01*
X14467623Y-9147132D01*
X13636000Y-8869924D01*
X13636000Y-8649089D01*
X14336252Y-8649089D01*
X14346557Y-8686721D01*
X14370480Y-8717545D01*
X14404377Y-8736868D01*
X14704377Y-8836868D01*
X14728911Y-8841748D01*
X14767623Y-8836868D01*
X15067623Y-8736868D01*
X15106711Y-8712711D01*
X15406711Y-8412711D01*
X15425443Y-8386721D01*
X15435748Y-8349089D01*
X15430868Y-8310377D01*
X15411545Y-8276480D01*
X15380721Y-8252557D01*
X15343089Y-8242252D01*
X15304377Y-8247132D01*
X14404377Y-8547132D01*
X14360455Y-8576480D01*
X14341132Y-8610377D01*
X14336252Y-8649089D01*
X13636000Y-8649089D01*
X13636000Y-8383422D01*
X13713010Y-8306412D01*
X13804377Y-8336868D01*
X13828911Y-8341748D01*
X13867623Y-8336868D01*
X14467623Y-8136868D01*
X14511545Y-8107520D01*
X14530868Y-8073623D01*
X14535748Y-8034911D01*
X14525443Y-7997279D01*
X14501520Y-7966455D01*
X14467623Y-7947132D01*
X13636000Y-7669924D01*
X13636000Y-7142000D01*
X13628388Y-7103732D01*
X13606711Y-7071289D01*
X13574268Y-7049612D01*
X13536000Y-7042000D01*
X13497732Y-7049612D01*
X13465289Y-7071289D01*
X11965289Y-8571289D01*
X11943612Y-8603732D01*
X11936000Y-8642000D01*
X11572321Y-8642000D01*
X11598781Y-8609758D01*
X11646853Y-8519822D01*
X11676455Y-8422236D01*
X11686451Y-8320750D01*
X11686451Y-7808250D01*
X11676455Y-7706764D01*
X11646853Y-7609178D01*
X11598781Y-7519242D01*
X11534088Y-7440412D01*
X11488391Y-7402910D01*
X11546362Y-7378898D01*
X11718336Y-7263989D01*
X11864589Y-7117736D01*
X11949939Y-6990000D01*
X15868549Y-6990000D01*
X15868549Y-10790000D01*
X15874341Y-10848810D01*
X15891496Y-10905360D01*
X15919353Y-10957477D01*
X15956842Y-11003158D01*
X16002523Y-11040647D01*
X16054640Y-11068504D01*
X16111190Y-11085659D01*
X16170000Y-11091451D01*
X18170000Y-11091451D01*
X18228810Y-11085659D01*
X18285360Y-11068504D01*
X18337477Y-11040647D01*
X18383158Y-11003158D01*
X18420647Y-10957477D01*
X18448504Y-10905360D01*
X18465659Y-10848810D01*
X18471451Y-10790000D01*
X18471451Y-7227550D01*
X18536556Y-7240500D01*
X18674444Y-7240500D01*
X18809682Y-7213599D01*
X18937074Y-7160832D01*
X19051724Y-7084226D01*
X19149226Y-6986724D01*
X19225832Y-6872074D01*
X19278599Y-6744682D01*
X19305500Y-6609444D01*
X19305500Y-6471556D01*
X19278599Y-6336318D01*
X19225832Y-6208926D01*
X19149226Y-6094276D01*
X19051724Y-5996774D01*
X18937074Y-5920168D01*
X18809682Y-5867401D01*
X18674444Y-5840500D01*
X18536556Y-5840500D01*
X18482217Y-5851309D01*
X18470711Y-5837289D01*
X18417016Y-5793222D01*
X18389853Y-5703678D01*
X18341781Y-5613742D01*
X18277088Y-5534912D01*
X18198258Y-5470219D01*
X18108322Y-5422147D01*
X18010736Y-5392545D01*
X17909250Y-5382549D01*
X17396750Y-5382549D01*
X17295264Y-5392545D01*
X17197678Y-5422147D01*
X17107742Y-5470219D01*
X17028912Y-5534912D01*
X16964219Y-5613742D01*
X16916147Y-5703678D01*
X16886545Y-5801264D01*
X16876549Y-5902750D01*
X16876549Y-6340250D01*
X16886545Y-6441736D01*
X16916147Y-6539322D01*
X16964219Y-6629258D01*
X17012877Y-6688549D01*
X16170000Y-6688549D01*
X16111190Y-6694341D01*
X16054640Y-6711496D01*
X16002523Y-6739353D01*
X15956842Y-6776842D01*
X15919353Y-6822523D01*
X15891496Y-6874640D01*
X15874341Y-6931190D01*
X15868549Y-6990000D01*
X11949939Y-6990000D01*
X11979498Y-6945762D01*
X12058650Y-6754674D01*
X12099000Y-6551816D01*
X12099000Y-6344984D01*
X12058650Y-6142126D01*
X11979498Y-5951038D01*
X11864589Y-5779064D01*
X11718336Y-5632811D01*
X11546362Y-5517902D01*
X11355274Y-5438750D01*
X11152416Y-5398400D01*
X10945584Y-5398400D01*
X10742726Y-5438750D01*
X10551638Y-5517902D01*
X10379664Y-5632811D01*
X10233411Y-5779064D01*
X10118502Y-5951038D01*
X10039350Y-6142126D01*
X9999000Y-6344984D01*
X7444888Y-6344984D01*
X7414833Y-6272426D01*
X7338227Y-6157776D01*
X7240725Y-6060274D01*
X7126075Y-5983668D01*
X6998683Y-5930901D01*
X6863445Y-5904000D01*
X6725557Y-5904000D01*
X6590319Y-5930901D01*
X6462927Y-5983668D01*
X6432500Y-6003998D01*
X6432500Y-4537002D01*
X6462927Y-4557332D01*
X6590319Y-4610099D01*
X6725557Y-4637000D01*
X6863445Y-4637000D01*
X6998683Y-4610099D01*
X7126075Y-4557332D01*
X7240725Y-4480726D01*
X7338227Y-4383224D01*
X7380449Y-4320034D01*
X9974192Y-4320034D01*
X10001200Y-4322694D01*
X10028208Y-4320034D01*
X10028218Y-4320034D01*
X10109019Y-4312076D01*
X10212694Y-4280626D01*
X10271757Y-4249056D01*
X23874500Y-4249056D01*
X23874500Y-4386944D01*
X23901401Y-4522182D01*
X23954168Y-4649574D01*
X24030774Y-4764224D01*
X24128276Y-4861726D01*
X24242926Y-4938332D01*
X24370318Y-4991099D01*
X24505556Y-5018000D01*
X24643444Y-5018000D01*
X24778682Y-4991099D01*
X24815388Y-4975895D01*
X24850219Y-5041058D01*
X24914912Y-5119888D01*
X24993742Y-5184581D01*
X25083678Y-5232653D01*
X25181264Y-5262255D01*
X25282750Y-5272251D01*
X25720250Y-5272251D01*
X25821736Y-5262255D01*
X25919322Y-5232653D01*
X26009258Y-5184581D01*
X26088088Y-5119888D01*
X26152781Y-5041058D01*
X26200853Y-4951122D01*
X26230455Y-4853536D01*
X26240451Y-4752050D01*
X26240451Y-4239550D01*
X26230455Y-4138064D01*
X26200853Y-4040478D01*
X26152781Y-3950542D01*
X26088088Y-3871712D01*
X26009258Y-3807019D01*
X25919322Y-3758947D01*
X25821736Y-3729345D01*
X25720250Y-3719349D01*
X25282750Y-3719349D01*
X25181264Y-3729345D01*
X25083678Y-3758947D01*
X25032664Y-3786214D01*
X25020724Y-3774274D01*
X24906074Y-3697668D01*
X24778682Y-3644901D01*
X24643444Y-3618000D01*
X24505556Y-3618000D01*
X24370318Y-3644901D01*
X24242926Y-3697668D01*
X24128276Y-3774274D01*
X24030774Y-3871776D01*
X23954168Y-3986426D01*
X23901401Y-4113818D01*
X23874500Y-4249056D01*
X10271757Y-4249056D01*
X10308242Y-4229555D01*
X10391990Y-4160824D01*
X10409214Y-4139837D01*
X10570051Y-3979000D01*
X22832992Y-3979000D01*
X22860000Y-3981660D01*
X22887008Y-3979000D01*
X22887018Y-3979000D01*
X22967819Y-3971042D01*
X23071494Y-3939592D01*
X23167042Y-3888521D01*
X23250790Y-3819790D01*
X23268013Y-3798804D01*
X23849817Y-3217000D01*
X29109183Y-3217000D01*
X29513491Y-3621309D01*
X29513490Y-7606790D01*
X29444819Y-7585958D01*
X29364018Y-7578000D01*
X29337000Y-7575339D01*
X29309982Y-7578000D01*
X27776507Y-7578000D01*
X27749499Y-7575340D01*
X27722491Y-7578000D01*
X27722482Y-7578000D01*
X27641681Y-7585958D01*
X27538006Y-7617408D01*
X27442458Y-7668479D01*
X27358710Y-7737210D01*
X27341487Y-7758196D01*
X27140683Y-7959000D01*
X26124731Y-7959000D01*
X26136853Y-7936322D01*
X26166455Y-7838736D01*
X26176451Y-7737250D01*
X26176451Y-7570566D01*
X27293810Y-6453208D01*
X27314790Y-6435990D01*
X27332008Y-6415010D01*
X27332013Y-6415005D01*
X27383520Y-6352243D01*
X27387497Y-6344803D01*
X27434592Y-6256694D01*
X27466042Y-6153019D01*
X27474000Y-6072218D01*
X27474000Y-6072209D01*
X27476660Y-6045201D01*
X27474000Y-6018193D01*
X27474000Y-5238818D01*
X27494322Y-5232653D01*
X27584258Y-5184581D01*
X27661047Y-5121563D01*
X27671926Y-5128832D01*
X27799318Y-5181599D01*
X27934556Y-5208500D01*
X28072444Y-5208500D01*
X28207682Y-5181599D01*
X28335074Y-5128832D01*
X28449724Y-5052226D01*
X28547226Y-4954724D01*
X28623832Y-4840074D01*
X28676599Y-4712682D01*
X28703500Y-4577444D01*
X28703500Y-4439556D01*
X28676599Y-4304318D01*
X28623832Y-4176926D01*
X28547226Y-4062276D01*
X28449724Y-3964774D01*
X28335074Y-3888168D01*
X28207682Y-3835401D01*
X28072444Y-3808500D01*
X27934556Y-3808500D01*
X27799318Y-3835401D01*
X27675409Y-3886725D01*
X27663088Y-3871712D01*
X27584258Y-3807019D01*
X27494322Y-3758947D01*
X27396736Y-3729345D01*
X27295250Y-3719349D01*
X26857750Y-3719349D01*
X26756264Y-3729345D01*
X26658678Y-3758947D01*
X26568742Y-3807019D01*
X26489912Y-3871712D01*
X26425219Y-3950542D01*
X26377147Y-4040478D01*
X26347545Y-4138064D01*
X26337549Y-4239550D01*
X26337549Y-4752050D01*
X26347545Y-4853536D01*
X26374001Y-4940750D01*
X26374000Y-5817382D01*
X25411834Y-6779549D01*
X25143750Y-6779549D01*
X25042264Y-6789545D01*
X24944678Y-6819147D01*
X24854742Y-6867219D01*
X24775912Y-6931912D01*
X24711219Y-7010742D01*
X24663147Y-7100678D01*
X24633545Y-7198264D01*
X24623549Y-7299750D01*
X24623549Y-7517133D01*
X24302134Y-7838549D01*
X22470000Y-7838549D01*
X22411190Y-7844341D01*
X22354640Y-7861496D01*
X22302523Y-7889353D01*
X22256842Y-7926842D01*
X22219353Y-7972523D01*
X22191496Y-8024640D01*
X22174341Y-8081190D01*
X22168549Y-8140000D01*
X22168549Y-8340000D01*
X21617011Y-8340000D01*
X21590000Y-8337340D01*
X21562989Y-8340000D01*
X21562982Y-8340000D01*
X21482181Y-8347958D01*
X21378505Y-8379408D01*
X21328355Y-8406214D01*
X21282958Y-8430479D01*
X21199210Y-8499210D01*
X21181987Y-8520196D01*
X20458191Y-9243992D01*
X20437211Y-9261210D01*
X20419993Y-9282190D01*
X20419987Y-9282196D01*
X20368479Y-9344958D01*
X20327310Y-9421982D01*
X20317409Y-9440506D01*
X20285958Y-9544181D01*
X20278000Y-9624982D01*
X20278000Y-9624992D01*
X20275340Y-9652000D01*
X20278000Y-9679008D01*
X20278000Y-10503683D01*
X18807191Y-11974492D01*
X18786211Y-11991710D01*
X18768993Y-12012690D01*
X18760803Y-12020880D01*
X18739823Y-12038098D01*
X18722603Y-12059080D01*
X18465134Y-12316549D01*
X18412750Y-12316549D01*
X18311264Y-12326545D01*
X18213678Y-12356147D01*
X18123742Y-12404219D01*
X18044912Y-12468912D01*
X17980219Y-12547742D01*
X17932147Y-12637678D01*
X17902545Y-12735264D01*
X17892549Y-12836750D01*
X17892549Y-12850938D01*
X17881853Y-12815678D01*
X17833781Y-12725742D01*
X17769088Y-12646912D01*
X17690258Y-12582219D01*
X17600322Y-12534147D01*
X17502736Y-12504545D01*
X17401250Y-12494549D01*
X16888750Y-12494549D01*
X16875754Y-12495829D01*
X16821647Y-12490500D01*
X16821646Y-12490500D01*
X16802000Y-12488565D01*
X16782354Y-12490500D01*
X16397451Y-12490500D01*
X16397451Y-12328750D01*
X16387455Y-12227264D01*
X16357853Y-12129678D01*
X16309781Y-12039742D01*
X16245088Y-11960912D01*
X16166258Y-11896219D01*
X16076322Y-11848147D01*
X15978736Y-11818545D01*
X15877250Y-11808549D01*
X15364750Y-11808549D01*
X15263264Y-11818545D01*
X15165678Y-11848147D01*
X15075742Y-11896219D01*
X15041048Y-11924692D01*
X15021727Y-11895776D01*
X14924225Y-11798274D01*
X14809575Y-11721668D01*
X14682183Y-11668901D01*
X14546945Y-11642000D01*
X14409057Y-11642000D01*
X14273819Y-11668901D01*
X14146427Y-11721668D01*
X14031777Y-11798274D01*
X13934275Y-11895776D01*
X13857669Y-12010426D01*
X13804902Y-12137818D01*
X13778001Y-12273056D01*
X13778001Y-12410944D01*
X13804902Y-12546182D01*
X13857669Y-12673574D01*
X13934275Y-12788224D01*
X13962354Y-12816303D01*
X13904777Y-12854774D01*
X13807275Y-12952276D01*
X13730669Y-13066926D01*
X13677902Y-13194318D01*
X13651001Y-13329556D01*
X13651001Y-13467444D01*
X13677902Y-13602682D01*
X13730669Y-13730074D01*
X13807275Y-13844724D01*
X13904777Y-13942226D01*
X14019427Y-14018832D01*
X14146819Y-14071599D01*
X14191713Y-14080529D01*
X14577993Y-14466809D01*
X14595211Y-14487790D01*
X14616191Y-14505008D01*
X14616196Y-14505013D01*
X14659221Y-14540322D01*
X14678959Y-14556521D01*
X14774507Y-14607592D01*
X14878182Y-14639042D01*
X14944813Y-14645604D01*
X14996912Y-14709088D01*
X15075742Y-14773781D01*
X15165678Y-14821853D01*
X15263264Y-14851455D01*
X15364750Y-14861451D01*
X15877250Y-14861451D01*
X15978736Y-14851455D01*
X16076322Y-14821853D01*
X16118141Y-14799500D01*
X17522764Y-14799500D01*
X17549772Y-14802160D01*
X17576780Y-14799500D01*
X17576790Y-14799500D01*
X17657591Y-14791542D01*
X17761266Y-14760092D01*
X17856814Y-14709021D01*
X17940562Y-14640290D01*
X17957785Y-14619304D01*
X18782639Y-13794451D01*
X18925250Y-13794451D01*
X19026736Y-13784455D01*
X19124322Y-13754853D01*
X19214258Y-13706781D01*
X19293088Y-13642088D01*
X19302188Y-13631000D01*
X19559812Y-13631000D01*
X19568912Y-13642088D01*
X19647742Y-13706781D01*
X19737678Y-13754853D01*
X19835264Y-13784455D01*
X19936750Y-13794451D01*
X20449250Y-13794451D01*
X20550736Y-13784455D01*
X20648322Y-13754853D01*
X20738258Y-13706781D01*
X20817088Y-13642088D01*
X20881781Y-13563258D01*
X20929853Y-13473322D01*
X20957103Y-13383489D01*
X20962545Y-13438736D01*
X20992147Y-13536322D01*
X21040219Y-13626258D01*
X21104912Y-13705088D01*
X21183742Y-13769781D01*
X21273678Y-13817853D01*
X21371264Y-13847455D01*
X21472750Y-13857451D01*
X21910250Y-13857451D01*
X22011736Y-13847455D01*
X22109322Y-13817853D01*
X22199258Y-13769781D01*
X22278088Y-13705088D01*
X22342781Y-13626258D01*
X22390853Y-13536322D01*
X22420455Y-13438736D01*
X22430451Y-13337250D01*
X22430451Y-12824750D01*
X22420455Y-12723264D01*
X22390853Y-12625678D01*
X22342781Y-12535742D01*
X22278088Y-12456912D01*
X22199258Y-12392219D01*
X22109322Y-12344147D01*
X22076500Y-12334191D01*
X22076500Y-11901507D01*
X22079160Y-11874499D01*
X22076500Y-11847491D01*
X22076500Y-11847482D01*
X22068542Y-11766681D01*
X22037092Y-11663006D01*
X21986021Y-11567458D01*
X21968250Y-11545804D01*
X21934513Y-11504695D01*
X21934508Y-11504690D01*
X21917290Y-11483710D01*
X21896309Y-11466492D01*
X21378000Y-10948183D01*
X21378000Y-10758511D01*
X21380660Y-10731500D01*
X21378000Y-10704489D01*
X21378000Y-9879817D01*
X21817817Y-9440000D01*
X22168549Y-9440000D01*
X22168549Y-9640000D01*
X22174341Y-9698810D01*
X22191496Y-9755360D01*
X22219353Y-9807477D01*
X22256842Y-9853158D01*
X22302523Y-9890647D01*
X22354640Y-9918504D01*
X22411190Y-9935659D01*
X22470000Y-9941451D01*
X24470000Y-9941451D01*
X24528810Y-9935659D01*
X24585360Y-9918504D01*
X24637477Y-9890647D01*
X24683158Y-9853158D01*
X24709549Y-9821000D01*
X26762139Y-9821000D01*
X26758901Y-9828818D01*
X26732000Y-9964056D01*
X26732000Y-10101944D01*
X26758901Y-10237182D01*
X26811668Y-10364574D01*
X26888274Y-10479224D01*
X26985776Y-10576726D01*
X27100426Y-10653332D01*
X27227818Y-10706099D01*
X27363056Y-10733000D01*
X27500944Y-10733000D01*
X27636182Y-10706099D01*
X27763574Y-10653332D01*
X27878224Y-10576726D01*
X27975726Y-10479224D01*
X28052332Y-10364574D01*
X28105099Y-10237182D01*
X28132000Y-10101944D01*
X28132000Y-9964056D01*
X28105099Y-9828818D01*
X28052332Y-9701426D01*
X27982000Y-9596166D01*
X27982000Y-9476007D01*
X27984660Y-9448999D01*
X27983259Y-9434771D01*
X28000272Y-9420808D01*
X28017495Y-9399822D01*
X28104317Y-9313000D01*
X29199160Y-9313000D01*
X29189999Y-9359057D01*
X29189999Y-9496945D01*
X29216900Y-9632183D01*
X29269667Y-9759575D01*
X29346273Y-9874225D01*
X29443775Y-9971727D01*
X29558425Y-10048333D01*
X29685817Y-10101100D01*
X29739999Y-10111878D01*
X29739998Y-10563551D01*
X27295528Y-13008022D01*
X27239776Y-13045274D01*
X27220550Y-13064500D01*
X26054114Y-13064500D01*
X26024088Y-13027912D01*
X25945258Y-12963219D01*
X25855322Y-12915147D01*
X25757736Y-12885545D01*
X25656250Y-12875549D01*
X25143750Y-12875549D01*
X25088781Y-12880963D01*
X24704010Y-12496193D01*
X24704010Y-12127749D01*
X24720647Y-12107477D01*
X24748504Y-12055360D01*
X24765659Y-11998810D01*
X24771451Y-11940000D01*
X24771451Y-10440000D01*
X24765659Y-10381190D01*
X24748504Y-10324640D01*
X24720647Y-10272523D01*
X24683158Y-10226842D01*
X24637477Y-10189353D01*
X24585360Y-10161496D01*
X24528810Y-10144341D01*
X24470000Y-10138549D01*
X22470000Y-10138549D01*
X22411190Y-10144341D01*
X22354640Y-10161496D01*
X22302523Y-10189353D01*
X22256842Y-10226842D01*
X22219353Y-10272523D01*
X22191496Y-10324640D01*
X22174341Y-10381190D01*
X22168549Y-10440000D01*
X22168549Y-11940000D01*
X22174341Y-11998810D01*
X22191496Y-12055360D01*
X22219353Y-12107477D01*
X22256842Y-12153158D01*
X22302523Y-12190647D01*
X22354640Y-12218504D01*
X22411190Y-12235659D01*
X22470000Y-12241451D01*
X23604011Y-12241451D01*
X23604011Y-12319785D01*
X23586736Y-12314545D01*
X23485250Y-12304549D01*
X23047750Y-12304549D01*
X22946264Y-12314545D01*
X22848678Y-12344147D01*
X22758742Y-12392219D01*
X22679912Y-12456912D01*
X22615219Y-12535742D01*
X22567147Y-12625678D01*
X22537545Y-12723264D01*
X22527549Y-12824750D01*
X22527549Y-13337250D01*
X22537545Y-13438736D01*
X22567147Y-13536322D01*
X22615219Y-13626258D01*
X22679912Y-13705088D01*
X22758742Y-13769781D01*
X22848678Y-13817853D01*
X22946264Y-13847455D01*
X23047750Y-13857451D01*
X23485250Y-13857451D01*
X23586736Y-13847455D01*
X23621672Y-13836857D01*
X24405773Y-14620958D01*
X24418299Y-14636221D01*
X24452807Y-14664541D01*
X24479207Y-14686207D01*
X24548696Y-14723350D01*
X24624096Y-14746222D01*
X24702510Y-14753945D01*
X24722157Y-14752010D01*
X27919344Y-14752010D01*
X27938990Y-14753945D01*
X27958636Y-14752010D01*
X27958637Y-14752010D01*
X28017404Y-14746222D01*
X28092804Y-14723350D01*
X28162293Y-14686207D01*
X28223201Y-14636221D01*
X28235727Y-14620958D01*
X28666153Y-14190533D01*
X28681411Y-14178011D01*
X28699031Y-14156542D01*
X28731397Y-14117103D01*
X28768540Y-14047614D01*
X28791412Y-13972214D01*
X28799135Y-13893800D01*
X28797200Y-13874153D01*
X28797200Y-13627685D01*
X29611086Y-12813799D01*
X29703926Y-12875832D01*
X29831318Y-12928599D01*
X29966556Y-12955500D01*
X30104444Y-12955500D01*
X30239682Y-12928599D01*
X30367074Y-12875832D01*
X30481724Y-12799226D01*
X30579226Y-12701724D01*
X30655832Y-12587074D01*
X30708599Y-12459682D01*
X30735500Y-12324444D01*
X30735500Y-12186556D01*
X30708599Y-12051318D01*
X30655832Y-11923926D01*
X30579226Y-11809276D01*
X30481724Y-11711774D01*
X30367074Y-11635168D01*
X30265917Y-11593268D01*
X30659808Y-11199377D01*
X30680788Y-11182159D01*
X30698006Y-11161179D01*
X30698011Y-11161174D01*
X30749519Y-11098412D01*
X30790368Y-11021987D01*
X30800590Y-11002863D01*
X30832040Y-10899188D01*
X30839998Y-10818387D01*
X30839998Y-10818378D01*
X30842658Y-10791370D01*
X30839998Y-10764362D01*
X30839998Y-9855007D01*
X30842658Y-9827999D01*
X30839998Y-9800991D01*
X30839998Y-9800982D01*
X30832040Y-9720181D01*
X30800590Y-9616506D01*
X30771216Y-9561551D01*
X30749519Y-9520957D01*
X30698011Y-9458195D01*
X30698006Y-9458190D01*
X30680788Y-9437210D01*
X30659807Y-9419991D01*
X30604744Y-9364928D01*
X30605532Y-9362329D01*
X30613490Y-9281528D01*
X30613490Y-9281521D01*
X30616150Y-9254510D01*
X30613490Y-9227499D01*
X30613490Y-3420501D01*
X30616150Y-3393490D01*
X30613490Y-3366480D01*
X30613490Y-3366472D01*
X30605532Y-3285671D01*
X30574082Y-3181996D01*
X30532512Y-3104223D01*
X30523011Y-3086447D01*
X30471503Y-3023685D01*
X30471498Y-3023680D01*
X30454280Y-3002700D01*
X30433300Y-2985482D01*
X29745013Y-2297196D01*
X29739767Y-2290804D01*
X29851997Y-2230816D01*
X30027107Y-2087107D01*
X30170816Y-1911997D01*
X30277602Y-1712215D01*
X30343360Y-1495439D01*
X30365564Y-1270000D01*
X30343360Y-1044561D01*
X30277602Y-827785D01*
X30170816Y-628003D01*
X30027107Y-452893D01*
X29932194Y-375000D01*
X32645001Y-375000D01*
X32645000Y-17405000D01*
X29932195Y-17405000D01*
X30027108Y-17327107D01*
X30170817Y-17151997D01*
X30277603Y-16952215D01*
X30343361Y-16735439D01*
X30365565Y-16510000D01*
X30343361Y-16284561D01*
X30277603Y-16067785D01*
X30170817Y-15868003D01*
X30027108Y-15692893D01*
X29851998Y-15549184D01*
X29652216Y-15442398D01*
X29435440Y-15376640D01*
X29266493Y-15360000D01*
X29153509Y-15360000D01*
X28984562Y-15376640D01*
X28767786Y-15442398D01*
X28568004Y-15549184D01*
X28392894Y-15692893D01*
X28249185Y-15868003D01*
X28142399Y-16067785D01*
X28076641Y-16284561D01*
X28054437Y-16510000D01*
X28076641Y-16735439D01*
X28142399Y-16952215D01*
X28249185Y-17151997D01*
X28392894Y-17327107D01*
X28487807Y-17405000D01*
X27392195Y-17405000D01*
X27487108Y-17327107D01*
X27630817Y-17151997D01*
X27737603Y-16952215D01*
X27803361Y-16735439D01*
X27825565Y-16510000D01*
X27803361Y-16284561D01*
X27737603Y-16067785D01*
X27630817Y-15868003D01*
X27487108Y-15692893D01*
X27311998Y-15549184D01*
X27112216Y-15442398D01*
X26895440Y-15376640D01*
X26726493Y-15360000D01*
X26613509Y-15360000D01*
X26444562Y-15376640D01*
X26227786Y-15442398D01*
X26028004Y-15549184D01*
X25852894Y-15692893D01*
X25709185Y-15868003D01*
X25602399Y-16067785D01*
X25536641Y-16284561D01*
X25514437Y-16510000D01*
X25536641Y-16735439D01*
X25602399Y-16952215D01*
X25709185Y-17151997D01*
X25852894Y-17327107D01*
X25947807Y-17405000D01*
X24852195Y-17405000D01*
X24947108Y-17327107D01*
X25090817Y-17151997D01*
X25197603Y-16952215D01*
X25263361Y-16735439D01*
X25285565Y-16510000D01*
X25263361Y-16284561D01*
X25197603Y-16067785D01*
X25090817Y-15868003D01*
X24947108Y-15692893D01*
X24771998Y-15549184D01*
X24572216Y-15442398D01*
X24355440Y-15376640D01*
X24186493Y-15360000D01*
X24073509Y-15360000D01*
X23904562Y-15376640D01*
X23687786Y-15442398D01*
X23488004Y-15549184D01*
X23312894Y-15692893D01*
X23169185Y-15868003D01*
X23062399Y-16067785D01*
X22996641Y-16284561D01*
X22974437Y-16510000D01*
X22996641Y-16735439D01*
X23062399Y-16952215D01*
X23169185Y-17151997D01*
X23312894Y-17327107D01*
X23407807Y-17405000D01*
X22312195Y-17405000D01*
X22407108Y-17327107D01*
X22550817Y-17151997D01*
X22657603Y-16952215D01*
X22723361Y-16735439D01*
X22745565Y-16510000D01*
X22723361Y-16284561D01*
X22657603Y-16067785D01*
X22550817Y-15868003D01*
X22407108Y-15692893D01*
X22231998Y-15549184D01*
X22032216Y-15442398D01*
X21815440Y-15376640D01*
X21646493Y-15360000D01*
X21533509Y-15360000D01*
X21364562Y-15376640D01*
X21147786Y-15442398D01*
X20948004Y-15549184D01*
X20772894Y-15692893D01*
X20629185Y-15868003D01*
X20522399Y-16067785D01*
X20456641Y-16284561D01*
X20434437Y-16510000D01*
X20456641Y-16735439D01*
X20522399Y-16952215D01*
X20629185Y-17151997D01*
X20772894Y-17327107D01*
X20867807Y-17405000D01*
X19772195Y-17405000D01*
X19867108Y-17327107D01*
X20010817Y-17151997D01*
X20117603Y-16952215D01*
X20183361Y-16735439D01*
X20205565Y-16510000D01*
X20183361Y-16284561D01*
X20117603Y-16067785D01*
X20010817Y-15868003D01*
X19867108Y-15692893D01*
X19691998Y-15549184D01*
X19492216Y-15442398D01*
X19275440Y-15376640D01*
X19106493Y-15360000D01*
X18993509Y-15360000D01*
X18824562Y-15376640D01*
X18607786Y-15442398D01*
X18408004Y-15549184D01*
X18232894Y-15692893D01*
X18089185Y-15868003D01*
X17982399Y-16067785D01*
X17916641Y-16284561D01*
X17894437Y-16510000D01*
X17916641Y-16735439D01*
X17982399Y-16952215D01*
X18089185Y-17151997D01*
X18232894Y-17327107D01*
X18327807Y-17405000D01*
X17232195Y-17405000D01*
X17327108Y-17327107D01*
X17470817Y-17151997D01*
X17577603Y-16952215D01*
X17643361Y-16735439D01*
X17665565Y-16510000D01*
X17643361Y-16284561D01*
X17577603Y-16067785D01*
X17470817Y-15868003D01*
X17327108Y-15692893D01*
X17151998Y-15549184D01*
X16952216Y-15442398D01*
X16735440Y-15376640D01*
X16566493Y-15360000D01*
X16453509Y-15360000D01*
X16284562Y-15376640D01*
X16067786Y-15442398D01*
X15868004Y-15549184D01*
X15692894Y-15692893D01*
X15549185Y-15868003D01*
X15442399Y-16067785D01*
X15376641Y-16284561D01*
X15354437Y-16510000D01*
X15376641Y-16735439D01*
X15442399Y-16952215D01*
X15549185Y-17151997D01*
X15692894Y-17327107D01*
X15787807Y-17405000D01*
X14692195Y-17405000D01*
X14787108Y-17327107D01*
X14930817Y-17151997D01*
X15037603Y-16952215D01*
X15103361Y-16735439D01*
X15125565Y-16510000D01*
X15103361Y-16284561D01*
X15037603Y-16067785D01*
X14930817Y-15868003D01*
X14787108Y-15692893D01*
X14611998Y-15549184D01*
X14412216Y-15442398D01*
X14195440Y-15376640D01*
X14026493Y-15360000D01*
X13913509Y-15360000D01*
X13744562Y-15376640D01*
X13527786Y-15442398D01*
X13328004Y-15549184D01*
X13152894Y-15692893D01*
X13009185Y-15868003D01*
X12902399Y-16067785D01*
X12836641Y-16284561D01*
X12814437Y-16510000D01*
X12836641Y-16735439D01*
X12902399Y-16952215D01*
X13009185Y-17151997D01*
X13152894Y-17327107D01*
X13247807Y-17405000D01*
X12152195Y-17405000D01*
X12247108Y-17327107D01*
X12390817Y-17151997D01*
X12497603Y-16952215D01*
X12563361Y-16735439D01*
X12585565Y-16510000D01*
X12563361Y-16284561D01*
X12497603Y-16067785D01*
X12390817Y-15868003D01*
X12247108Y-15692893D01*
X12071998Y-15549184D01*
X11872216Y-15442398D01*
X11655440Y-15376640D01*
X11486493Y-15360000D01*
X11373509Y-15360000D01*
X11204562Y-15376640D01*
X10987786Y-15442398D01*
X10788004Y-15549184D01*
X10612894Y-15692893D01*
X10469185Y-15868003D01*
X10362399Y-16067785D01*
X10296641Y-16284561D01*
X10274437Y-16510000D01*
X10296641Y-16735439D01*
X10362399Y-16952215D01*
X10469185Y-17151997D01*
X10612894Y-17327107D01*
X10707807Y-17405000D01*
X9612195Y-17405000D01*
X9707108Y-17327107D01*
X9850817Y-17151997D01*
X9957603Y-16952215D01*
X10023361Y-16735439D01*
X10045565Y-16510000D01*
X10023361Y-16284561D01*
X9957603Y-16067785D01*
X9850817Y-15868003D01*
X9707108Y-15692893D01*
X9531998Y-15549184D01*
X9332216Y-15442398D01*
X9115440Y-15376640D01*
X8946493Y-15360000D01*
X8833509Y-15360000D01*
X8664562Y-15376640D01*
X8447786Y-15442398D01*
X8248004Y-15549184D01*
X8072894Y-15692893D01*
X7929185Y-15868003D01*
X7822399Y-16067785D01*
X7756641Y-16284561D01*
X7734437Y-16510000D01*
X7756641Y-16735439D01*
X7822399Y-16952215D01*
X7929185Y-17151997D01*
X8072894Y-17327107D01*
X8167807Y-17405000D01*
X7072195Y-17405000D01*
X7167108Y-17327107D01*
X7310817Y-17151997D01*
X7417603Y-16952215D01*
X7483361Y-16735439D01*
X7505565Y-16510000D01*
X7483361Y-16284561D01*
X7417603Y-16067785D01*
X7310817Y-15868003D01*
X7167108Y-15692893D01*
X6991998Y-15549184D01*
X6792216Y-15442398D01*
X6575440Y-15376640D01*
X6406493Y-15360000D01*
X6293509Y-15360000D01*
X6124562Y-15376640D01*
X5907786Y-15442398D01*
X5708004Y-15549184D01*
X5532894Y-15692893D01*
X5389185Y-15868003D01*
X5282399Y-16067785D01*
X5216641Y-16284561D01*
X5194437Y-16510000D01*
X5216641Y-16735439D01*
X5282399Y-16952215D01*
X5389185Y-17151997D01*
X5532894Y-17327107D01*
X5627807Y-17405000D01*
X4532195Y-17405000D01*
X4627108Y-17327107D01*
X4770817Y-17151997D01*
X4877603Y-16952215D01*
X4943361Y-16735439D01*
X4965565Y-16510000D01*
X4943361Y-16284561D01*
X4877603Y-16067785D01*
X4770817Y-15868003D01*
X4627108Y-15692893D01*
X4451998Y-15549184D01*
X4252216Y-15442398D01*
X4035440Y-15376640D01*
X3866493Y-15360000D01*
X3753509Y-15360000D01*
X3584562Y-15376640D01*
X3367786Y-15442398D01*
X3168004Y-15549184D01*
X2992894Y-15692893D01*
X2849185Y-15868003D01*
X2742399Y-16067785D01*
X2676641Y-16284561D01*
X2654437Y-16510000D01*
X2676641Y-16735439D01*
X2742399Y-16952215D01*
X2849185Y-17151997D01*
X2992894Y-17327107D01*
X3087807Y-17405000D01*
X375000Y-17405000D01*
X375000Y-375000D01*
X3087806Y-375000D01*
X2992893Y-452893D01*
G36*
X13165289Y-8571289D02*
X13143612Y-8603732D01*
X13136000Y-8642000D01*
X13136000Y-8842000D01*
X13036000Y-8842000D01*
X13036000Y-8442000D01*
X13294578Y-8442000D01*
X13165289Y-8571289D01*
X13165289Y-8571289D01*
G37*
X13165289Y-8571289D02*
X13143612Y-8603732D01*
X13136000Y-8642000D01*
X13136000Y-8842000D01*
X13036000Y-8842000D01*
X13036000Y-8442000D01*
X13294578Y-8442000D01*
X13165289Y-8571289D01*
G36*
X28392893Y-452893D02*
X28249184Y-628003D01*
X28142398Y-827785D01*
X28076640Y-1044561D01*
X28054436Y-1270000D01*
X28076640Y-1495439D01*
X28142398Y-1712215D01*
X28249184Y-1911997D01*
X28392893Y-2087107D01*
X28429318Y-2117000D01*
X24910682Y-2117000D01*
X24947107Y-2087107D01*
X25090816Y-1911997D01*
X25197602Y-1712215D01*
X25263360Y-1495439D01*
X25285564Y-1270000D01*
X25263360Y-1044561D01*
X25197602Y-827785D01*
X25090816Y-628003D01*
X24947107Y-452893D01*
X24852194Y-375000D01*
X28487806Y-375000D01*
X28392893Y-452893D01*
X28392893Y-452893D01*
G37*
X28392893Y-452893D02*
X28249184Y-628003D01*
X28142398Y-827785D01*
X28076640Y-1044561D01*
X28054436Y-1270000D01*
X28076640Y-1495439D01*
X28142398Y-1712215D01*
X28249184Y-1911997D01*
X28392893Y-2087107D01*
X28429318Y-2117000D01*
X24910682Y-2117000D01*
X24947107Y-2087107D01*
X25090816Y-1911997D01*
X25197602Y-1712215D01*
X25263360Y-1495439D01*
X25285564Y-1270000D01*
X25263360Y-1044561D01*
X25197602Y-827785D01*
X25090816Y-628003D01*
X24947107Y-452893D01*
X24852194Y-375000D01*
X28487806Y-375000D01*
X28392893Y-452893D01*
D23*
G36*
X15758300Y-10556300D02*
X12376260Y-10556300D01*
X11601867Y-9781907D01*
X11601867Y-9459250D01*
X11583700Y-9367918D01*
X11583700Y-8674260D01*
X11615960Y-8642000D01*
X12023300Y-8642000D01*
X12023300Y-10042000D01*
X12024267Y-10046860D01*
X12027020Y-10050980D01*
X12031140Y-10053733D01*
X12036000Y-10054700D01*
X12636000Y-10054700D01*
X12640860Y-10053733D01*
X12644980Y-10050980D01*
X12853960Y-9842000D01*
X13223300Y-9842000D01*
X13223300Y-10442000D01*
X13223697Y-10443997D01*
X13223952Y-10446016D01*
X13224178Y-10446412D01*
X13224267Y-10446860D01*
X13225398Y-10448552D01*
X13226406Y-10450321D01*
X13226767Y-10450601D01*
X13227020Y-10450980D01*
X13228709Y-10452109D01*
X13230320Y-10453359D01*
X13230761Y-10453480D01*
X13231140Y-10453733D01*
X13233136Y-10454130D01*
X13235100Y-10454668D01*
X13235552Y-10454611D01*
X13236000Y-10454700D01*
X13237997Y-10454303D01*
X13240016Y-10454048D01*
X15040016Y-9854048D01*
X15044980Y-9850980D01*
X15344980Y-9550980D01*
X15347359Y-9547680D01*
X15348668Y-9542900D01*
X15348048Y-9537984D01*
X15345594Y-9533679D01*
X15341680Y-9530641D01*
X15336900Y-9529332D01*
X15331984Y-9529952D01*
X13548700Y-10124380D01*
X13548700Y-9542000D01*
X13547733Y-9537140D01*
X13544980Y-9533020D01*
X13540860Y-9530267D01*
X13536000Y-9529300D01*
X13531140Y-9530267D01*
X13527020Y-9533020D01*
X13227020Y-9833020D01*
X13224267Y-9837140D01*
X13223300Y-9842000D01*
X12853960Y-9842000D01*
X12944980Y-9750980D01*
X12947733Y-9746860D01*
X12948700Y-9742000D01*
X12947733Y-9737140D01*
X12944980Y-9733020D01*
X12940860Y-9730267D01*
X12936000Y-9729300D01*
X12348700Y-9729300D01*
X12348700Y-8954700D01*
X12623300Y-8954700D01*
X12623300Y-9242000D01*
X12624267Y-9246860D01*
X12627020Y-9250980D01*
X12631140Y-9253733D01*
X12636000Y-9254700D01*
X13233940Y-9254700D01*
X13831984Y-9454048D01*
X13835100Y-9454668D01*
X13840016Y-9454048D01*
X14440016Y-9254048D01*
X14445594Y-9250321D01*
X14448048Y-9246016D01*
X14448668Y-9241100D01*
X14447359Y-9236320D01*
X14444321Y-9232406D01*
X14440016Y-9229952D01*
X13548700Y-8932847D01*
X13548700Y-8642900D01*
X14423332Y-8642900D01*
X14424641Y-8647680D01*
X14427679Y-8651594D01*
X14431984Y-8654048D01*
X14731984Y-8754048D01*
X14735100Y-8754668D01*
X14740016Y-8754048D01*
X15040016Y-8654048D01*
X15044980Y-8650980D01*
X15344980Y-8350980D01*
X15347359Y-8347680D01*
X15348668Y-8342900D01*
X15348048Y-8337984D01*
X15345594Y-8333679D01*
X15341680Y-8330641D01*
X15336900Y-8329332D01*
X15331984Y-8329952D01*
X14431984Y-8629952D01*
X14426406Y-8633679D01*
X14423952Y-8637984D01*
X14423332Y-8642900D01*
X13548700Y-8642900D01*
X13548700Y-8347260D01*
X13689430Y-8206530D01*
X13831984Y-8254048D01*
X13835100Y-8254668D01*
X13840016Y-8254048D01*
X14440016Y-8054048D01*
X14445594Y-8050321D01*
X14448048Y-8046016D01*
X14448668Y-8041100D01*
X14447359Y-8036320D01*
X14444321Y-8032406D01*
X14440016Y-8029952D01*
X13548700Y-7732847D01*
X13548700Y-7142000D01*
X13547733Y-7137140D01*
X13544980Y-7133020D01*
X13540860Y-7130267D01*
X13536000Y-7129300D01*
X13531140Y-7130267D01*
X13527020Y-7133020D01*
X12027020Y-8633020D01*
X12024267Y-8637140D01*
X12023300Y-8642000D01*
X11615960Y-8642000D01*
X13276260Y-6981700D01*
X15758300Y-6981700D01*
X15758300Y-10556300D01*
X15758300Y-10556300D01*
G37*
X15758300Y-10556300D02*
X12376260Y-10556300D01*
X11601867Y-9781907D01*
X11601867Y-9459250D01*
X11583700Y-9367918D01*
X11583700Y-8674260D01*
X11615960Y-8642000D01*
X12023300Y-8642000D01*
X12023300Y-10042000D01*
X12024267Y-10046860D01*
X12027020Y-10050980D01*
X12031140Y-10053733D01*
X12036000Y-10054700D01*
X12636000Y-10054700D01*
X12640860Y-10053733D01*
X12644980Y-10050980D01*
X12853960Y-9842000D01*
X13223300Y-9842000D01*
X13223300Y-10442000D01*
X13223697Y-10443997D01*
X13223952Y-10446016D01*
X13224178Y-10446412D01*
X13224267Y-10446860D01*
X13225398Y-10448552D01*
X13226406Y-10450321D01*
X13226767Y-10450601D01*
X13227020Y-10450980D01*
X13228709Y-10452109D01*
X13230320Y-10453359D01*
X13230761Y-10453480D01*
X13231140Y-10453733D01*
X13233136Y-10454130D01*
X13235100Y-10454668D01*
X13235552Y-10454611D01*
X13236000Y-10454700D01*
X13237997Y-10454303D01*
X13240016Y-10454048D01*
X15040016Y-9854048D01*
X15044980Y-9850980D01*
X15344980Y-9550980D01*
X15347359Y-9547680D01*
X15348668Y-9542900D01*
X15348048Y-9537984D01*
X15345594Y-9533679D01*
X15341680Y-9530641D01*
X15336900Y-9529332D01*
X15331984Y-9529952D01*
X13548700Y-10124380D01*
X13548700Y-9542000D01*
X13547733Y-9537140D01*
X13544980Y-9533020D01*
X13540860Y-9530267D01*
X13536000Y-9529300D01*
X13531140Y-9530267D01*
X13527020Y-9533020D01*
X13227020Y-9833020D01*
X13224267Y-9837140D01*
X13223300Y-9842000D01*
X12853960Y-9842000D01*
X12944980Y-9750980D01*
X12947733Y-9746860D01*
X12948700Y-9742000D01*
X12947733Y-9737140D01*
X12944980Y-9733020D01*
X12940860Y-9730267D01*
X12936000Y-9729300D01*
X12348700Y-9729300D01*
X12348700Y-8954700D01*
X12623300Y-8954700D01*
X12623300Y-9242000D01*
X12624267Y-9246860D01*
X12627020Y-9250980D01*
X12631140Y-9253733D01*
X12636000Y-9254700D01*
X13233940Y-9254700D01*
X13831984Y-9454048D01*
X13835100Y-9454668D01*
X13840016Y-9454048D01*
X14440016Y-9254048D01*
X14445594Y-9250321D01*
X14448048Y-9246016D01*
X14448668Y-9241100D01*
X14447359Y-9236320D01*
X14444321Y-9232406D01*
X14440016Y-9229952D01*
X13548700Y-8932847D01*
X13548700Y-8642900D01*
X14423332Y-8642900D01*
X14424641Y-8647680D01*
X14427679Y-8651594D01*
X14431984Y-8654048D01*
X14731984Y-8754048D01*
X14735100Y-8754668D01*
X14740016Y-8754048D01*
X15040016Y-8654048D01*
X15044980Y-8650980D01*
X15344980Y-8350980D01*
X15347359Y-8347680D01*
X15348668Y-8342900D01*
X15348048Y-8337984D01*
X15345594Y-8333679D01*
X15341680Y-8330641D01*
X15336900Y-8329332D01*
X15331984Y-8329952D01*
X14431984Y-8629952D01*
X14426406Y-8633679D01*
X14423952Y-8637984D01*
X14423332Y-8642900D01*
X13548700Y-8642900D01*
X13548700Y-8347260D01*
X13689430Y-8206530D01*
X13831984Y-8254048D01*
X13835100Y-8254668D01*
X13840016Y-8254048D01*
X14440016Y-8054048D01*
X14445594Y-8050321D01*
X14448048Y-8046016D01*
X14448668Y-8041100D01*
X14447359Y-8036320D01*
X14444321Y-8032406D01*
X14440016Y-8029952D01*
X13548700Y-7732847D01*
X13548700Y-7142000D01*
X13547733Y-7137140D01*
X13544980Y-7133020D01*
X13540860Y-7130267D01*
X13536000Y-7129300D01*
X13531140Y-7130267D01*
X13527020Y-7133020D01*
X12027020Y-8633020D01*
X12024267Y-8637140D01*
X12023300Y-8642000D01*
X11615960Y-8642000D01*
X13276260Y-6981700D01*
X15758300Y-6981700D01*
X15758300Y-10556300D01*
G36*
X13227020Y-8633020D02*
X13224267Y-8637140D01*
X13223300Y-8642000D01*
X13223300Y-8929300D01*
X12948700Y-8929300D01*
X12948700Y-8354700D01*
X13505340Y-8354700D01*
X13227020Y-8633020D01*
X13227020Y-8633020D01*
G37*
X13227020Y-8633020D02*
X13224267Y-8637140D01*
X13223300Y-8642000D01*
X13223300Y-8929300D01*
X12948700Y-8929300D01*
X12948700Y-8354700D01*
X13505340Y-8354700D01*
X13227020Y-8633020D01*
G04 #@! TD*
M02*
